<?xml version="1.0" encoding="UTF-8" standalone="no"?>
<!DOCTYPE svg PUBLIC "-//W3C//DTD SVG 1.1//EN"
 "http://www.w3.org/Graphics/SVG/1.1/DTD/svg11.dtd">
<!-- Generated by graphviz version 2.40.1 (20161225.0304)
 -->
<!-- Title: printStateArray Pages: 1 -->
<svg width="431pt" height="484pt"
 viewBox="0.00 0.00 431.00 484.00" xmlns="http://www.w3.org/2000/svg" xmlns:xlink="http://www.w3.org/1999/xlink">
<g id="graph0" class="graph" transform="scale(1 1) rotate(0) translate(4 480)">
<title>printStateArray</title>
<polygon fill="#ffffff" stroke="transparent" points="-4,4 -4,-480 427,-480 427,4 -4,4"/>
<!-- Node422 -->
<g id="node1" class="node">
<title>Node422</title>
<polygon fill="#bfbfbf" stroke="#000000" points="0,-171.5 0,-190.5 82,-190.5 82,-171.5 0,-171.5"/>
<text text-anchor="middle" x="41" y="-178.5" font-family="Helvetica,sans-Serif" font-size="10.00" fill="#000000">printStateArray</text>
</g>
<!-- Node423 -->
<g id="node2" class="node">
<title>Node423</title>
<g id="a_node2"><a xlink:href="_a_e_s_8h.html#a0ac21e951d3e46598708ab8fd8bc61c5" target="_top" xlink:title="AESEncrypt &#45; Function to encrypt a single block of plaintext passed in as parameter &#160;plainText using ...">
<polygon fill="#ffffff" stroke="#000000" points="118,-285.5 118,-304.5 189,-304.5 189,-285.5 118,-285.5"/>
<text text-anchor="middle" x="153.5" y="-292.5" font-family="Helvetica,sans-Serif" font-size="10.00" fill="#000000">AESEncrypt</text>
</a>
</g>
</g>
<!-- Node422&#45;&gt;Node423 -->
<g id="edge1" class="edge">
<title>Node422&#45;&gt;Node423</title>
<path fill="none" stroke="#191970" d="M57.9216,-198.1472C81.8704,-222.4153 124.8571,-265.9752 143.9326,-285.305"/>
<polygon fill="#191970" stroke="#191970" points="60.107,-195.3789 50.5917,-190.7196 55.1246,-200.2958 60.107,-195.3789"/>
</g>
<!-- Node434 -->
<g id="node13" class="node">
<title>Node434</title>
<g id="a_node13"><a xlink:href="_a_e_s_8h.html#aea7dd7439aa08f23e6fecd32d4055ac3" target="_top" xlink:title="AESDecrypt &#45; Function to decrypt a single block of ciphertext passed in as parameter &#160;cipherText usin...">
<polygon fill="#ffffff" stroke="#000000" points="118,-95.5 118,-114.5 189,-114.5 189,-95.5 118,-95.5"/>
<text text-anchor="middle" x="153.5" y="-102.5" font-family="Helvetica,sans-Serif" font-size="10.00" fill="#000000">AESDecrypt</text>
</a>
</g>
</g>
<!-- Node422&#45;&gt;Node434 -->
<g id="edge12" class="edge">
<title>Node422&#45;&gt;Node434</title>
<path fill="none" stroke="#191970" d="M63.5877,-165.7408C86.2104,-150.4578 120.3244,-127.412 139.3675,-114.5473"/>
<polygon fill="#191970" stroke="#191970" points="61.5753,-162.8764 55.2482,-171.3745 65.4938,-168.6768 61.5753,-162.8764"/>
</g>
<!-- Node424 -->
<g id="node3" class="node">
<title>Node424</title>
<g id="a_node3"><a xlink:href="aes_tester_8c.html#a0ddf1224851353fc92bfbff6f499fa97" target="_top" xlink:title="main">
<polygon fill="#ffffff" stroke="#000000" points="253.5,-152.5 253.5,-171.5 291.5,-171.5 291.5,-152.5 253.5,-152.5"/>
<text text-anchor="middle" x="272.5" y="-159.5" font-family="Helvetica,sans-Serif" font-size="10.00" fill="#000000">main</text>
</a>
</g>
</g>
<!-- Node423&#45;&gt;Node424 -->
<g id="edge2" class="edge">
<title>Node423&#45;&gt;Node424</title>
<path fill="none" stroke="#191970" d="M161.018,-275.8522C171.7263,-250.8515 193.6136,-207.1992 225,-181 233.1822,-174.1701 244.1306,-169.5684 253.454,-166.6067"/>
<polygon fill="#191970" stroke="#191970" points="157.6907,-274.7403 157.118,-285.3197 164.1631,-277.4066 157.6907,-274.7403"/>
</g>
<!-- Node425 -->
<g id="node4" class="node">
<title>Node425</title>
<g id="a_node4"><a xlink:href="cbc_8h.html#ad055b3ad2664ace8ba1ab68a481dc1b3" target="_top" xlink:title="cbcEncryptFile &#45; Function to encrypt the file with name ">
<polygon fill="#ffffff" stroke="#000000" points="231.5,-456.5 231.5,-475.5 313.5,-475.5 313.5,-456.5 231.5,-456.5"/>
<text text-anchor="middle" x="272.5" y="-463.5" font-family="Helvetica,sans-Serif" font-size="10.00" fill="#000000">cbcEncryptFile</text>
</a>
</g>
</g>
<!-- Node423&#45;&gt;Node425 -->
<g id="edge3" class="edge">
<title>Node423&#45;&gt;Node425</title>
<path fill="none" stroke="#191970" d="M157.7522,-314.5021C165.6554,-346.3718 185.5135,-409.7837 225,-447 229.0073,-450.7769 233.8597,-453.8388 238.9128,-456.3106"/>
<polygon fill="#191970" stroke="#191970" points="161.1306,-313.578 155.4428,-304.6394 154.315,-315.174 161.1306,-313.578"/>
</g>
<!-- Node426 -->
<g id="node5" class="node">
<title>Node426</title>
<g id="a_node5"><a xlink:href="cbc_8h.html#a90f1f37609cf336c57cd0300282c1dac" target="_top" xlink:title="cbcEncrypt &#45; Function to encrypt the user input pointed to by ">
<polygon fill="#ffffff" stroke="#000000" points="239.5,-418.5 239.5,-437.5 305.5,-437.5 305.5,-418.5 239.5,-418.5"/>
<text text-anchor="middle" x="272.5" y="-425.5" font-family="Helvetica,sans-Serif" font-size="10.00" fill="#000000">cbcEncrypt</text>
</a>
</g>
</g>
<!-- Node423&#45;&gt;Node426 -->
<g id="edge4" class="edge">
<title>Node423&#45;&gt;Node426</title>
<path fill="none" stroke="#191970" d="M161.018,-314.1478C171.7263,-339.1485 193.6136,-382.8008 225,-409 229.5002,-412.7565 234.8372,-415.8389 240.2804,-418.3451"/>
<polygon fill="#191970" stroke="#191970" points="164.1631,-312.5934 157.118,-304.6803 157.6907,-315.2597 164.1631,-312.5934"/>
</g>
<!-- Node427 -->
<g id="node6" class="node">
<title>Node427</title>
<g id="a_node6"><a xlink:href="cfb_8h.html#a9384de325e389ba7809b7ee98320f485" target="_top" xlink:title="cfbEncryptFile &#45; Function to encrypt the file with name ">
<polygon fill="#ffffff" stroke="#000000" points="232.5,-380.5 232.5,-399.5 312.5,-399.5 312.5,-380.5 232.5,-380.5"/>
<text text-anchor="middle" x="272.5" y="-387.5" font-family="Helvetica,sans-Serif" font-size="10.00" fill="#000000">cfbEncryptFile</text>
</a>
</g>
</g>
<!-- Node423&#45;&gt;Node427 -->
<g id="edge5" class="edge">
<title>Node423&#45;&gt;Node427</title>
<path fill="none" stroke="#191970" d="M166.416,-312.6734C179.548,-329.5843 201.289,-354.8409 225,-371 230.4312,-374.7014 236.6914,-377.8505 242.8476,-380.4573"/>
<polygon fill="#191970" stroke="#191970" points="169.1944,-310.5448 160.3687,-304.6832 163.6127,-314.7692 169.1944,-310.5448"/>
</g>
<!-- Node428 -->
<g id="node7" class="node">
<title>Node428</title>
<g id="a_node7"><a xlink:href="cfb_8h.html#a6dce0b90ab3948c3df032eb61c2a64ea" target="_top" xlink:title="cfbDecryptFile &#45; Function to decrypt the file with name ">
<polygon fill="#ffffff" stroke="#000000" points="232.5,-342.5 232.5,-361.5 312.5,-361.5 312.5,-342.5 232.5,-342.5"/>
<text text-anchor="middle" x="272.5" y="-349.5" font-family="Helvetica,sans-Serif" font-size="10.00" fill="#000000">cfbDecryptFile</text>
</a>
</g>
</g>
<!-- Node423&#45;&gt;Node428 -->
<g id="edge6" class="edge">
<title>Node423&#45;&gt;Node428</title>
<path fill="none" stroke="#191970" d="M179.4068,-309.6377C192.8364,-317.0023 209.6089,-325.8572 225,-333 232.0897,-336.2902 239.918,-339.5635 247.1394,-342.4428"/>
<polygon fill="#191970" stroke="#191970" points="180.7296,-306.3693 170.2862,-304.5843 177.337,-312.4923 180.7296,-306.3693"/>
</g>
<!-- Node429 -->
<g id="node8" class="node">
<title>Node429</title>
<g id="a_node8"><a xlink:href="cfb_8h.html#a826aec09cb2af95cb8781d2b4c211182" target="_top" xlink:title="cfbEncrypt &#45; Function to encrypt the user input pointed to by ">
<polygon fill="#ffffff" stroke="#000000" points="240.5,-304.5 240.5,-323.5 304.5,-323.5 304.5,-304.5 240.5,-304.5"/>
<text text-anchor="middle" x="272.5" y="-311.5" font-family="Helvetica,sans-Serif" font-size="10.00" fill="#000000">cfbEncrypt</text>
</a>
</g>
</g>
<!-- Node423&#45;&gt;Node429 -->
<g id="edge7" class="edge">
<title>Node423&#45;&gt;Node429</title>
<path fill="none" stroke="#191970" d="M199.4341,-302.334C213.1381,-304.522 227.8562,-306.872 240.4659,-308.8853"/>
<polygon fill="#191970" stroke="#191970" points="199.6307,-298.8212 189.2039,-300.7006 198.527,-305.7336 199.6307,-298.8212"/>
</g>
<!-- Node430 -->
<g id="node9" class="node">
<title>Node430</title>
<g id="a_node9"><a xlink:href="cfb_8h.html#ad6a75d43203e367b8a83f6b7c7f506c6" target="_top" xlink:title="cfbDecrypt &#45; Function to decrypt the user input pointed to by ">
<polygon fill="#ffffff" stroke="#000000" points="240,-266.5 240,-285.5 305,-285.5 305,-266.5 240,-266.5"/>
<text text-anchor="middle" x="272.5" y="-273.5" font-family="Helvetica,sans-Serif" font-size="10.00" fill="#000000">cfbDecrypt</text>
</a>
</g>
</g>
<!-- Node423&#45;&gt;Node430 -->
<g id="edge8" class="edge">
<title>Node423&#45;&gt;Node430</title>
<path fill="none" stroke="#191970" d="M199.258,-287.6941C212.7231,-285.5442 227.1814,-283.2357 239.6653,-281.2425"/>
<polygon fill="#191970" stroke="#191970" points="198.527,-284.2664 189.2039,-289.2994 199.6307,-291.1788 198.527,-284.2664"/>
</g>
<!-- Node431 -->
<g id="node10" class="node">
<title>Node431</title>
<g id="a_node10"><a xlink:href="ecb_8h.html#a50ddfe369298c1293b5c57662f569127" target="_top" xlink:title="ecbEcryptHelper &#45; Helper function used to encrypt the plaintext pointed to by ">
<polygon fill="#ffffff" stroke="#000000" points="228,-228.5 228,-247.5 317,-247.5 317,-228.5 228,-228.5"/>
<text text-anchor="middle" x="272.5" y="-235.5" font-family="Helvetica,sans-Serif" font-size="10.00" fill="#000000">ecbEcryptHelper</text>
</a>
</g>
</g>
<!-- Node423&#45;&gt;Node431 -->
<g id="edge9" class="edge">
<title>Node423&#45;&gt;Node431</title>
<path fill="none" stroke="#191970" d="M179.4068,-280.3623C192.8364,-272.9977 209.6089,-264.1428 225,-257 232.0897,-253.7098 239.918,-250.4365 247.1394,-247.5572"/>
<polygon fill="#191970" stroke="#191970" points="177.337,-277.5077 170.2862,-285.4157 180.7296,-283.6307 177.337,-277.5077"/>
</g>
<!-- Node433 -->
<g id="node12" class="node">
<title>Node433</title>
<g id="a_node12"><a xlink:href="ecb_8h.html#ab68902caeba7880cf1be8b40e8bb9a50" target="_top" xlink:title="ecbEncryptFile &#45; Function to encrypt the file with name ">
<polygon fill="#ffffff" stroke="#000000" points="231.5,-190.5 231.5,-209.5 313.5,-209.5 313.5,-190.5 231.5,-190.5"/>
<text text-anchor="middle" x="272.5" y="-197.5" font-family="Helvetica,sans-Serif" font-size="10.00" fill="#000000">ecbEncryptFile</text>
</a>
</g>
</g>
<!-- Node423&#45;&gt;Node433 -->
<g id="edge11" class="edge">
<title>Node423&#45;&gt;Node433</title>
<path fill="none" stroke="#191970" d="M166.416,-277.3266C179.548,-260.4157 201.289,-235.1591 225,-219 230.4312,-215.2986 236.6914,-212.1495 242.8476,-209.5427"/>
<polygon fill="#191970" stroke="#191970" points="163.6127,-275.2308 160.3687,-285.3168 169.1944,-279.4552 163.6127,-275.2308"/>
</g>
<!-- Node432 -->
<g id="node11" class="node">
<title>Node432</title>
<g id="a_node11"><a xlink:href="ecb_8h.html#aa451eb4920a712afa521f06831277731" target="_top" xlink:title="ecbEncrypt &#45; Function to encrypt the user input pointed to by ">
<polygon fill="#ffffff" stroke="#000000" points="356.5,-228.5 356.5,-247.5 422.5,-247.5 422.5,-228.5 356.5,-228.5"/>
<text text-anchor="middle" x="389.5" y="-235.5" font-family="Helvetica,sans-Serif" font-size="10.00" fill="#000000">ecbEncrypt</text>
</a>
</g>
</g>
<!-- Node431&#45;&gt;Node432 -->
<g id="edge10" class="edge">
<title>Node431&#45;&gt;Node432</title>
<path fill="none" stroke="#191970" d="M327.3035,-238C337.2224,-238 347.2836,-238 356.3404,-238"/>
<polygon fill="#191970" stroke="#191970" points="327.0665,-234.5001 317.0664,-238 327.0664,-241.5001 327.0665,-234.5001"/>
</g>
<!-- Node434&#45;&gt;Node424 -->
<g id="edge13" class="edge">
<title>Node434&#45;&gt;Node424</title>
<path fill="none" stroke="#191970" d="M179.4068,-119.6377C192.8364,-127.0023 209.6089,-135.8572 225,-143 234.1844,-147.2623 244.6083,-151.4963 253.3466,-154.8819"/>
<polygon fill="#191970" stroke="#191970" points="180.7296,-116.3693 170.2862,-114.5843 177.337,-122.4923 180.7296,-116.3693"/>
</g>
<!-- Node435 -->
<g id="node14" class="node">
<title>Node435</title>
<g id="a_node14"><a xlink:href="cbc_8h.html#a9375da4cc24b1bedceb0364f2865bcc3" target="_top" xlink:title="cbcDecryptFile &#45; Function to decrypt the file with name ">
<polygon fill="#ffffff" stroke="#000000" points="231,-114.5 231,-133.5 314,-133.5 314,-114.5 231,-114.5"/>
<text text-anchor="middle" x="272.5" y="-121.5" font-family="Helvetica,sans-Serif" font-size="10.00" fill="#000000">cbcDecryptFile</text>
</a>
</g>
</g>
<!-- Node434&#45;&gt;Node435 -->
<g id="edge14" class="edge">
<title>Node434&#45;&gt;Node435</title>
<path fill="none" stroke="#191970" d="M199.3596,-112.3221C209.7618,-113.983 220.7519,-115.7377 230.9631,-117.3681"/>
<polygon fill="#191970" stroke="#191970" points="199.6307,-108.8212 189.2039,-110.7006 198.527,-115.7336 199.6307,-108.8212"/>
</g>
<!-- Node436 -->
<g id="node15" class="node">
<title>Node436</title>
<g id="a_node15"><a xlink:href="cbc_8h.html#a95fbad6d45d4b793610fe663939b5f8c" target="_top" xlink:title="cbcDecrypt &#45; Function to decrypt the user input pointed to by ">
<polygon fill="#ffffff" stroke="#000000" points="239,-76.5 239,-95.5 306,-95.5 306,-76.5 239,-76.5"/>
<text text-anchor="middle" x="272.5" y="-83.5" font-family="Helvetica,sans-Serif" font-size="10.00" fill="#000000">cbcDecrypt</text>
</a>
</g>
</g>
<!-- Node434&#45;&gt;Node436 -->
<g id="edge15" class="edge">
<title>Node434&#45;&gt;Node436</title>
<path fill="none" stroke="#191970" d="M199.082,-97.7222C212.3084,-95.6104 226.5068,-93.3434 238.8592,-91.3712"/>
<polygon fill="#191970" stroke="#191970" points="198.527,-94.2664 189.2039,-99.2994 199.6307,-101.1788 198.527,-94.2664"/>
</g>
<!-- Node437 -->
<g id="node16" class="node">
<title>Node437</title>
<g id="a_node16"><a xlink:href="ecb_8h.html#a9661ce321dd2649926ebadd2ab9dcd20" target="_top" xlink:title="ecbDecryptHelper &#45; Helper function used to decrypt the ciphertext pointed to by ">
<polygon fill="#ffffff" stroke="#000000" points="225,-38.5 225,-57.5 320,-57.5 320,-38.5 225,-38.5"/>
<text text-anchor="middle" x="272.5" y="-45.5" font-family="Helvetica,sans-Serif" font-size="10.00" fill="#000000">ecbDecryptHelper</text>
</a>
</g>
</g>
<!-- Node434&#45;&gt;Node437 -->
<g id="edge16" class="edge">
<title>Node434&#45;&gt;Node437</title>
<path fill="none" stroke="#191970" d="M179.4068,-90.3623C192.8364,-82.9977 209.6089,-74.1428 225,-67 232.0897,-63.7098 239.918,-60.4365 247.1394,-57.5572"/>
<polygon fill="#191970" stroke="#191970" points="177.337,-87.5077 170.2862,-95.4157 180.7296,-93.6307 177.337,-87.5077"/>
</g>
<!-- Node439 -->
<g id="node18" class="node">
<title>Node439</title>
<g id="a_node18"><a xlink:href="ecb_8h.html#ab4c77adefd8655ebd7bc79524f958013" target="_top" xlink:title="ecbDecryptFile &#45; Function to encrypt the file with name ">
<polygon fill="#ffffff" stroke="#000000" points="231,-.5 231,-19.5 314,-19.5 314,-.5 231,-.5"/>
<text text-anchor="middle" x="272.5" y="-7.5" font-family="Helvetica,sans-Serif" font-size="10.00" fill="#000000">ecbDecryptFile</text>
</a>
</g>
</g>
<!-- Node434&#45;&gt;Node439 -->
<g id="edge18" class="edge">
<title>Node434&#45;&gt;Node439</title>
<path fill="none" stroke="#191970" d="M166.416,-87.3266C179.548,-70.4157 201.289,-45.1591 225,-29 230.4312,-25.2986 236.6914,-22.1495 242.8476,-19.5427"/>
<polygon fill="#191970" stroke="#191970" points="163.6127,-85.2308 160.3687,-95.3168 169.1944,-89.4552 163.6127,-85.2308"/>
</g>
<!-- Node438 -->
<g id="node17" class="node">
<title>Node438</title>
<g id="a_node17"><a xlink:href="ecb_8h.html#acd982a867b70e4f75f2232c974a1e4ae" target="_top" xlink:title="ecbDecrypt &#45; Function to decrypt the user input pointed to by ">
<polygon fill="#ffffff" stroke="#000000" points="356,-38.5 356,-57.5 423,-57.5 423,-38.5 356,-38.5"/>
<text text-anchor="middle" x="389.5" y="-45.5" font-family="Helvetica,sans-Serif" font-size="10.00" fill="#000000">ecbDecrypt</text>
</a>
</g>
</g>
<!-- Node437&#45;&gt;Node438 -->
<g id="edge17" class="edge">
<title>Node437&#45;&gt;Node438</title>
<path fill="none" stroke="#191970" d="M330.3346,-48C339.1109,-48 347.9073,-48 355.9333,-48"/>
<polygon fill="#191970" stroke="#191970" points="330.0884,-44.5001 320.0884,-48 330.0883,-51.5001 330.0884,-44.5001"/>
</g>
</g>
</svg>
