<?xml version="1.0" encoding="UTF-8" standalone="no"?>
<!DOCTYPE svg PUBLIC "-//W3C//DTD SVG 1.1//EN"
 "http://www.w3.org/Graphics/SVG/1.1/DTD/svg11.dtd">
<!-- Generated by graphviz version 2.40.1 (20161225.0304)
 -->
<!-- Title: hexToInt Pages: 1 -->
<svg width="529pt" height="522pt"
 viewBox="0.00 0.00 529.00 522.00" xmlns="http://www.w3.org/2000/svg" xmlns:xlink="http://www.w3.org/1999/xlink">
<g id="graph0" class="graph" transform="scale(1 1) rotate(0) translate(4 518)">
<title>hexToInt</title>
<polygon fill="#ffffff" stroke="transparent" points="-4,4 -4,-518 525,-518 525,4 -4,4"/>
<!-- Node281 -->
<g id="node1" class="node">
<title>Node281</title>
<polygon fill="#bfbfbf" stroke="#000000" points="0,-266.5 0,-285.5 55,-285.5 55,-266.5 0,-266.5"/>
<text text-anchor="middle" x="27.5" y="-273.5" font-family="Helvetica,sans-Serif" font-size="10.00" fill="#000000">hexToInt</text>
</g>
<!-- Node282 -->
<g id="node2" class="node">
<title>Node282</title>
<g id="a_node2"><a xlink:href="_a_e_s_8h.html#acb25fd10b0e1c3e0844d4bde447259de" target="_top" xlink:title="hexToAscii &#45; Function that converts a given hex value to its ASCII equivalent. ">
<polygon fill="#ffffff" stroke="#000000" points="91,-266.5 91,-285.5 156,-285.5 156,-266.5 91,-266.5"/>
<text text-anchor="middle" x="123.5" y="-273.5" font-family="Helvetica,sans-Serif" font-size="10.00" fill="#000000">hexToAscii</text>
</a>
</g>
</g>
<!-- Node281&#45;&gt;Node282 -->
<g id="edge1" class="edge">
<title>Node281&#45;&gt;Node282</title>
<path fill="none" stroke="#191970" d="M65.097,-276C73.6166,-276 82.5955,-276 90.8889,-276"/>
<polygon fill="#191970" stroke="#191970" points="65.0098,-272.5001 55.0097,-276 65.0097,-279.5001 65.0098,-272.5001"/>
</g>
<!-- Node283 -->
<g id="node3" class="node">
<title>Node283</title>
<g id="a_node3"><a xlink:href="_a_e_s_8h.html#a69dcfd00e48471cb60dc1b24ba6e5520" target="_top" xlink:title="hexToAsciiString &#45; Function that converts a given string of hex values into its ASCII equivalent...">
<polygon fill="#ffffff" stroke="#000000" points="192,-266.5 192,-285.5 283,-285.5 283,-266.5 192,-266.5"/>
<text text-anchor="middle" x="237.5" y="-273.5" font-family="Helvetica,sans-Serif" font-size="10.00" fill="#000000">hexToAsciiString</text>
</a>
</g>
</g>
<!-- Node282&#45;&gt;Node283 -->
<g id="edge2" class="edge">
<title>Node282&#45;&gt;Node283</title>
<path fill="none" stroke="#191970" d="M166.3527,-276C174.6173,-276 183.3054,-276 191.6605,-276"/>
<polygon fill="#191970" stroke="#191970" points="166.1679,-272.5001 156.1678,-276 166.1678,-279.5001 166.1679,-272.5001"/>
</g>
<!-- Node284 -->
<g id="node4" class="node">
<title>Node284</title>
<g id="a_node4"><a xlink:href="_a_e_s_8h.html#afba897e91364663f883cc51ed309dc92" target="_top" xlink:title="keyHexToAscii &#45; Function to convert a key from a Hex string passed in as a paramter ...">
<polygon fill="#ffffff" stroke="#000000" points="319,-266.5 319,-285.5 402,-285.5 402,-266.5 319,-266.5"/>
<text text-anchor="middle" x="360.5" y="-273.5" font-family="Helvetica,sans-Serif" font-size="10.00" fill="#000000">keyHexToAscii</text>
</a>
</g>
</g>
<!-- Node283&#45;&gt;Node284 -->
<g id="edge3" class="edge">
<title>Node283&#45;&gt;Node284</title>
<path fill="none" stroke="#191970" d="M293.5267,-276C302.0029,-276 310.6189,-276 318.7237,-276"/>
<polygon fill="#191970" stroke="#191970" points="293.3007,-272.5001 283.3007,-276 293.3006,-279.5001 293.3007,-272.5001"/>
</g>
<!-- Node285 -->
<g id="node5" class="node">
<title>Node285</title>
<g id="a_node5"><a xlink:href="cbc_8h.html#ad055b3ad2664ace8ba1ab68a481dc1b3" target="_top" xlink:title="cbcEncryptFile &#45; Function to encrypt the file with name ">
<polygon fill="#ffffff" stroke="#000000" points="438.5,-494.5 438.5,-513.5 520.5,-513.5 520.5,-494.5 438.5,-494.5"/>
<text text-anchor="middle" x="479.5" y="-501.5" font-family="Helvetica,sans-Serif" font-size="10.00" fill="#000000">cbcEncryptFile</text>
</a>
</g>
</g>
<!-- Node283&#45;&gt;Node285 -->
<g id="edge26" class="edge">
<title>Node283&#45;&gt;Node285</title>
<path fill="none" stroke="#191970" d="M239.4182,-295.7588C244.4707,-336.278 261.9693,-428.8417 319,-475 352.5654,-502.1664 403.0961,-507.2576 438.4685,-506.9338"/>
<polygon fill="#191970" stroke="#191970" points="242.8933,-295.3399 238.3007,-285.7923 235.9369,-296.12 242.8933,-295.3399"/>
</g>
<!-- Node286 -->
<g id="node6" class="node">
<title>Node286</title>
<g id="a_node6"><a xlink:href="cbc_8h.html#a9375da4cc24b1bedceb0364f2865bcc3" target="_top" xlink:title="cbcDecryptFile &#45; Function to decrypt the file with name ">
<polygon fill="#ffffff" stroke="#000000" points="438,-456.5 438,-475.5 521,-475.5 521,-456.5 438,-456.5"/>
<text text-anchor="middle" x="479.5" y="-463.5" font-family="Helvetica,sans-Serif" font-size="10.00" fill="#000000">cbcDecryptFile</text>
</a>
</g>
</g>
<!-- Node283&#45;&gt;Node286 -->
<g id="edge27" class="edge">
<title>Node283&#45;&gt;Node286</title>
<path fill="none" stroke="#191970" d="M240.3282,-295.65C246.8091,-332.7673 266.4464,-412.7934 319,-450 353.3964,-474.3518 402.8214,-475.601 437.7168,-472.4949"/>
<polygon fill="#191970" stroke="#191970" points="243.7565,-294.9231 238.7174,-285.6033 236.8447,-296.0313 243.7565,-294.9231"/>
</g>
<!-- Node287 -->
<g id="node7" class="node">
<title>Node287</title>
<g id="a_node7"><a xlink:href="cbc_8h.html#a90f1f37609cf336c57cd0300282c1dac" target="_top" xlink:title="cbcEncrypt &#45; Function to encrypt the user input pointed to by ">
<polygon fill="#ffffff" stroke="#000000" points="446.5,-418.5 446.5,-437.5 512.5,-437.5 512.5,-418.5 446.5,-418.5"/>
<text text-anchor="middle" x="479.5" y="-425.5" font-family="Helvetica,sans-Serif" font-size="10.00" fill="#000000">cbcEncrypt</text>
</a>
</g>
</g>
<!-- Node283&#45;&gt;Node287 -->
<g id="edge28" class="edge">
<title>Node283&#45;&gt;Node287</title>
<path fill="none" stroke="#191970" d="M241.3877,-295.9907C249.2338,-330.178 270.5248,-398.9879 319,-428 357.853,-451.2533 412.0508,-444.9858 446.4577,-437.3057"/>
<polygon fill="#191970" stroke="#191970" points="244.7301,-294.8823 239.2224,-285.8316 237.8839,-296.3415 244.7301,-294.8823"/>
</g>
<!-- Node288 -->
<g id="node8" class="node">
<title>Node288</title>
<g id="a_node8"><a xlink:href="cbc_8h.html#a95fbad6d45d4b793610fe663939b5f8c" target="_top" xlink:title="cbcDecrypt &#45; Function to decrypt the user input pointed to by ">
<polygon fill="#ffffff" stroke="#000000" points="446,-380.5 446,-399.5 513,-399.5 513,-380.5 446,-380.5"/>
<text text-anchor="middle" x="479.5" y="-387.5" font-family="Helvetica,sans-Serif" font-size="10.00" fill="#000000">cbcDecrypt</text>
</a>
</g>
</g>
<!-- Node283&#45;&gt;Node288 -->
<g id="edge29" class="edge">
<title>Node283&#45;&gt;Node288</title>
<path fill="none" stroke="#191970" d="M242.8414,-295.6862C252.3522,-326.3696 275.4401,-384.6049 319,-409 364.1682,-434.2958 427.5965,-413.2612 459.5037,-399.5382"/>
<polygon fill="#191970" stroke="#191970" points="246.1007,-294.3609 239.939,-285.7421 239.3811,-296.3222 246.1007,-294.3609"/>
</g>
<!-- Node289 -->
<g id="node9" class="node">
<title>Node289</title>
<g id="a_node9"><a xlink:href="cfb_8h.html#a9384de325e389ba7809b7ee98320f485" target="_top" xlink:title="cfbEncryptFile &#45; Function to encrypt the file with name ">
<polygon fill="#ffffff" stroke="#000000" points="439.5,-342.5 439.5,-361.5 519.5,-361.5 519.5,-342.5 439.5,-342.5"/>
<text text-anchor="middle" x="479.5" y="-349.5" font-family="Helvetica,sans-Serif" font-size="10.00" fill="#000000">cfbEncryptFile</text>
</a>
</g>
</g>
<!-- Node283&#45;&gt;Node289 -->
<g id="edge30" class="edge">
<title>Node283&#45;&gt;Node289</title>
<path fill="none" stroke="#191970" d="M264.265,-290.1678C279.898,-298.0113 300.1929,-307.4658 319,-314 359.0324,-327.9085 406.421,-338.436 439.2802,-344.8431"/>
<polygon fill="#191970" stroke="#191970" points="265.6865,-286.9637 255.1887,-285.5327 262.5028,-293.1979 265.6865,-286.9637"/>
</g>
<!-- Node290 -->
<g id="node10" class="node">
<title>Node290</title>
<g id="a_node10"><a xlink:href="cfb_8h.html#a6dce0b90ab3948c3df032eb61c2a64ea" target="_top" xlink:title="cfbDecryptFile &#45; Function to decrypt the file with name ">
<polygon fill="#ffffff" stroke="#000000" points="439.5,-304.5 439.5,-323.5 519.5,-323.5 519.5,-304.5 439.5,-304.5"/>
<text text-anchor="middle" x="479.5" y="-311.5" font-family="Helvetica,sans-Serif" font-size="10.00" fill="#000000">cfbDecryptFile</text>
</a>
</g>
</g>
<!-- Node283&#45;&gt;Node290 -->
<g id="edge31" class="edge">
<title>Node283&#45;&gt;Node290</title>
<path fill="none" stroke="#191970" d="M284.6825,-287.9377C295.8826,-290.5106 307.8242,-293.0421 319,-295 359.7663,-302.1421 406.8377,-307.3615 439.4151,-310.5029"/>
<polygon fill="#191970" stroke="#191970" points="285.184,-284.4602 274.6483,-285.5784 283.5818,-291.2744 285.184,-284.4602"/>
</g>
<!-- Node291 -->
<g id="node11" class="node">
<title>Node291</title>
<g id="a_node11"><a xlink:href="cfb_8h.html#a826aec09cb2af95cb8781d2b4c211182" target="_top" xlink:title="cfbEncrypt &#45; Function to encrypt the user input pointed to by ">
<polygon fill="#ffffff" stroke="#000000" points="447.5,-266.5 447.5,-285.5 511.5,-285.5 511.5,-266.5 447.5,-266.5"/>
<text text-anchor="middle" x="479.5" y="-273.5" font-family="Helvetica,sans-Serif" font-size="10.00" fill="#000000">cfbEncrypt</text>
</a>
</g>
</g>
<!-- Node283&#45;&gt;Node291 -->
<g id="edge32" class="edge">
<title>Node283&#45;&gt;Node291</title>
<path fill="none" stroke="#191970" d="M280.5306,-264.0297C292.8534,-261.132 306.3706,-258.4527 319,-257 355.6473,-252.7847 365.3773,-252.5763 402,-257 417.4037,-258.8606 434.1632,-262.7299 448.1437,-266.4942"/>
<polygon fill="#191970" stroke="#191970" points="279.382,-260.7077 270.5062,-266.493 281.0525,-267.5055 279.382,-260.7077"/>
</g>
<!-- Node292 -->
<g id="node12" class="node">
<title>Node292</title>
<g id="a_node12"><a xlink:href="cfb_8h.html#ad6a75d43203e367b8a83f6b7c7f506c6" target="_top" xlink:title="cfbDecrypt &#45; Function to decrypt the user input pointed to by ">
<polygon fill="#ffffff" stroke="#000000" points="447,-228.5 447,-247.5 512,-247.5 512,-228.5 447,-228.5"/>
<text text-anchor="middle" x="479.5" y="-235.5" font-family="Helvetica,sans-Serif" font-size="10.00" fill="#000000">cfbDecrypt</text>
</a>
</g>
</g>
<!-- Node283&#45;&gt;Node292 -->
<g id="edge33" class="edge">
<title>Node283&#45;&gt;Node292</title>
<path fill="none" stroke="#191970" d="M270.5726,-262.9429C285.1889,-257.7235 302.72,-252.2014 319,-249 362.7111,-240.4044 414.2582,-238.2496 446.9087,-237.8466"/>
<polygon fill="#191970" stroke="#191970" points="269.147,-259.7379 260.9705,-266.4757 271.5641,-266.3074 269.147,-259.7379"/>
</g>
<!-- Node293 -->
<g id="node13" class="node">
<title>Node293</title>
<g id="a_node13"><a xlink:href="ecb_8h.html#aa451eb4920a712afa521f06831277731" target="_top" xlink:title="ecbEncrypt &#45; Function to encrypt the user input pointed to by ">
<polygon fill="#ffffff" stroke="#000000" points="446.5,-188.5 446.5,-207.5 512.5,-207.5 512.5,-188.5 446.5,-188.5"/>
<text text-anchor="middle" x="479.5" y="-195.5" font-family="Helvetica,sans-Serif" font-size="10.00" fill="#000000">ecbEncrypt</text>
</a>
</g>
</g>
<!-- Node283&#45;&gt;Node293 -->
<g id="edge34" class="edge">
<title>Node283&#45;&gt;Node293</title>
<path fill="none" stroke="#191970" d="M262.6163,-261.3912C278.385,-252.7228 299.383,-242.0794 319,-235 361.767,-219.5662 413.3235,-209.0311 446.2535,-203.2632"/>
<polygon fill="#191970" stroke="#191970" points="260.544,-258.5404 253.5329,-266.4837 263.9672,-264.6463 260.544,-258.5404"/>
</g>
<!-- Node294 -->
<g id="node14" class="node">
<title>Node294</title>
<g id="a_node14"><a xlink:href="ecb_8h.html#acd982a867b70e4f75f2232c974a1e4ae" target="_top" xlink:title="ecbDecrypt &#45; Function to decrypt the user input pointed to by ">
<polygon fill="#ffffff" stroke="#000000" points="446,-145.5 446,-164.5 513,-164.5 513,-145.5 446,-145.5"/>
<text text-anchor="middle" x="479.5" y="-152.5" font-family="Helvetica,sans-Serif" font-size="10.00" fill="#000000">ecbDecrypt</text>
</a>
</g>
</g>
<!-- Node283&#45;&gt;Node294 -->
<g id="edge35" class="edge">
<title>Node283&#45;&gt;Node294</title>
<path fill="none" stroke="#191970" d="M253.8934,-259.0716C269.4266,-243.87 294.0349,-221.871 319,-208 359.9135,-185.2679 412.149,-170.2882 445.7162,-162.225"/>
<polygon fill="#191970" stroke="#191970" points="251.2392,-256.776 246.6438,-266.3223 256.1894,-261.7253 251.2392,-256.776"/>
</g>
<!-- Node295 -->
<g id="node15" class="node">
<title>Node295</title>
<g id="a_node15"><a xlink:href="ecb_8h.html#ab68902caeba7880cf1be8b40e8bb9a50" target="_top" xlink:title="ecbEncryptFile &#45; Function to encrypt the file with name ">
<polygon fill="#ffffff" stroke="#000000" points="438.5,-98.5 438.5,-117.5 520.5,-117.5 520.5,-98.5 438.5,-98.5"/>
<text text-anchor="middle" x="479.5" y="-105.5" font-family="Helvetica,sans-Serif" font-size="10.00" fill="#000000">ecbEncryptFile</text>
</a>
</g>
</g>
<!-- Node283&#45;&gt;Node295 -->
<g id="edge36" class="edge">
<title>Node283&#45;&gt;Node295</title>
<path fill="none" stroke="#191970" d="M247.4449,-257.4822C260.8493,-234.1164 286.7895,-194.0815 319,-170 354.8864,-143.1703 403.8217,-126.4956 438.1937,-117.2868"/>
<polygon fill="#191970" stroke="#191970" points="244.2968,-255.9415 242.486,-266.3805 250.4114,-259.3492 244.2968,-255.9415"/>
</g>
<!-- Node296 -->
<g id="node16" class="node">
<title>Node296</title>
<g id="a_node16"><a xlink:href="ecb_8h.html#ab4c77adefd8655ebd7bc79524f958013" target="_top" xlink:title="ecbDecryptFile &#45; Function to encrypt the file with name ">
<polygon fill="#ffffff" stroke="#000000" points="438,-41.5 438,-60.5 521,-60.5 521,-41.5 438,-41.5"/>
<text text-anchor="middle" x="479.5" y="-48.5" font-family="Helvetica,sans-Serif" font-size="10.00" fill="#000000">ecbDecryptFile</text>
</a>
</g>
</g>
<!-- Node283&#45;&gt;Node296 -->
<g id="edge37" class="edge">
<title>Node283&#45;&gt;Node296</title>
<path fill="none" stroke="#191970" d="M243.3207,-256.693C253.7318,-225.1041 278.3401,-162.0874 319,-124 354.0749,-91.1442 406.4945,-71.1318 441.7923,-60.5671"/>
<polygon fill="#191970" stroke="#191970" points="239.9091,-255.8733 240.2273,-266.4633 246.5826,-257.9863 239.9091,-255.8733"/>
</g>
<!-- Node297 -->
<g id="node17" class="node">
<title>Node297</title>
<g id="a_node17"><a xlink:href="_a_e_s_8h.html#ad82d1b77336ac1292ed5a24b92380f42" target="_top" xlink:title="IVHexToAscii &#45; Function to convert a initialization vector from a Hex string passed in as a paramter...">
<polygon fill="#ffffff" stroke="#000000" points="322,-380.5 322,-399.5 399,-399.5 399,-380.5 322,-380.5"/>
<text text-anchor="middle" x="360.5" y="-387.5" font-family="Helvetica,sans-Serif" font-size="10.00" fill="#000000">IVHexToAscii</text>
</a>
</g>
</g>
<!-- Node283&#45;&gt;Node297 -->
<g id="edge16" class="edge">
<title>Node283&#45;&gt;Node297</title>
<path fill="none" stroke="#191970" d="M250.6449,-293.5234C265.7104,-312.8327 291.8431,-344.0563 319,-366 325.7326,-371.4402 333.8441,-376.4212 341.103,-380.4182"/>
<polygon fill="#191970" stroke="#191970" points="253.4027,-291.368 244.5377,-285.566 247.8496,-295.6299 253.4027,-291.368"/>
</g>
<!-- Node298 -->
<g id="node18" class="node">
<title>Node298</title>
<g id="a_node18"><a xlink:href="aes_tester_8c.html#a0ddf1224851353fc92bfbff6f499fa97" target="_top" xlink:title="main">
<polygon fill="#ffffff" stroke="#000000" points="341.5,-.5 341.5,-19.5 379.5,-19.5 379.5,-.5 341.5,-.5"/>
<text text-anchor="middle" x="360.5" y="-7.5" font-family="Helvetica,sans-Serif" font-size="10.00" fill="#000000">main</text>
</a>
</g>
</g>
<!-- Node283&#45;&gt;Node298 -->
<g id="edge25" class="edge">
<title>Node283&#45;&gt;Node298</title>
<path fill="none" stroke="#191970" d="M239.464,-255.9257C244.7631,-211.3182 262.9645,-102.4974 319,-34 324.9023,-26.785 333.5835,-21.2894 341.4823,-17.3897"/>
<polygon fill="#191970" stroke="#191970" points="235.9652,-255.7249 238.357,-266.0462 242.9237,-256.486 235.9652,-255.7249"/>
</g>
<!-- Node284&#45;&gt;Node285 -->
<g id="edge4" class="edge">
<title>Node284&#45;&gt;Node285</title>
<path fill="none" stroke="#191970" d="M369.4523,-294.8733C378.2944,-313.8704 391.9197,-344.1271 402,-371 420.6611,-420.7481 402.8188,-445.183 438,-485 441.358,-488.8004 445.6307,-491.8881 450.1509,-494.382"/>
<polygon fill="#191970" stroke="#191970" points="372.5029,-293.1354 365.0849,-285.5707 366.1665,-296.1102 372.5029,-293.1354"/>
</g>
<!-- Node284&#45;&gt;Node286 -->
<g id="edge5" class="edge">
<title>Node284&#45;&gt;Node286</title>
<path fill="none" stroke="#191970" d="M369.0547,-295.3445C388.6046,-339.4885 435.0984,-444.0873 438,-447 441.8029,-450.8174 446.5136,-453.9474 451.3815,-456.4858"/>
<polygon fill="#191970" stroke="#191970" points="372.1565,-293.7047 364.9087,-285.9768 365.7554,-296.5377 372.1565,-293.7047"/>
</g>
<!-- Node284&#45;&gt;Node287 -->
<g id="edge6" class="edge">
<title>Node284&#45;&gt;Node287</title>
<path fill="none" stroke="#191970" d="M367.3488,-295.245C378.286,-323.5455 402.1796,-376.537 438,-409 442.1101,-412.7249 447.0754,-415.8333 452.1208,-418.3839"/>
<polygon fill="#191970" stroke="#191970" points="370.5645,-293.8507 363.7936,-285.7017 364.0049,-296.2945 370.5645,-293.8507"/>
</g>
<!-- Node284&#45;&gt;Node288 -->
<g id="edge7" class="edge">
<title>Node284&#45;&gt;Node288</title>
<path fill="none" stroke="#191970" d="M371.5904,-294.1208C385.1025,-314.9591 409.6658,-349.1038 438,-371 442.7652,-374.6825 448.3587,-377.8531 453.8686,-380.4911"/>
<polygon fill="#191970" stroke="#191970" points="374.4889,-292.1557 366.186,-285.5745 368.5726,-295.8971 374.4889,-292.1557"/>
</g>
<!-- Node284&#45;&gt;Node289 -->
<g id="edge8" class="edge">
<title>Node284&#45;&gt;Node289</title>
<path fill="none" stroke="#191970" d="M380.188,-292.2368C395.4063,-304.3445 417.3013,-320.8237 438,-333 443.7371,-336.375 450.1774,-339.5808 456.2417,-342.365"/>
<polygon fill="#191970" stroke="#191970" points="382.0395,-289.2335 372.0588,-285.6787 377.6442,-294.6817 382.0395,-289.2335"/>
</g>
<!-- Node284&#45;&gt;Node290 -->
<g id="edge9" class="edge">
<title>Node284&#45;&gt;Node290</title>
<path fill="none" stroke="#191970" d="M400.2098,-288.6804C416.2886,-293.8148 434.5433,-299.6441 449.4809,-304.4141"/>
<polygon fill="#191970" stroke="#191970" points="401.1195,-285.2969 390.5287,-285.589 398.9901,-291.9652 401.1195,-285.2969"/>
</g>
<!-- Node284&#45;&gt;Node291 -->
<g id="edge10" class="edge">
<title>Node284&#45;&gt;Node291</title>
<path fill="none" stroke="#191970" d="M412.4378,-276C424.3547,-276 436.6829,-276 447.4683,-276"/>
<polygon fill="#191970" stroke="#191970" points="412.1205,-272.5001 402.1204,-276 412.1204,-279.5001 412.1205,-272.5001"/>
</g>
<!-- Node284&#45;&gt;Node292 -->
<g id="edge11" class="edge">
<title>Node284&#45;&gt;Node292</title>
<path fill="none" stroke="#191970" d="M400.2098,-263.3196C416.2886,-258.1852 434.5433,-252.3559 449.4809,-247.5859"/>
<polygon fill="#191970" stroke="#191970" points="398.9901,-260.0348 390.5287,-266.411 401.1195,-266.7031 398.9901,-260.0348"/>
</g>
<!-- Node284&#45;&gt;Node293 -->
<g id="edge12" class="edge">
<title>Node284&#45;&gt;Node293</title>
<path fill="none" stroke="#191970" d="M380.3275,-259.9952C395.6185,-248.0083 417.5434,-231.5787 438,-219 444.6033,-214.9396 452.0901,-210.9714 458.8691,-207.5972"/>
<polygon fill="#191970" stroke="#191970" points="377.8139,-257.5215 372.1523,-266.4768 382.1627,-263.0067 377.8139,-257.5215"/>
</g>
<!-- Node284&#45;&gt;Node294 -->
<g id="edge13" class="edge">
<title>Node284&#45;&gt;Node294</title>
<path fill="none" stroke="#191970" d="M371.8885,-257.9541C385.6821,-237.1081 410.5112,-202.6515 438,-179 444.4352,-173.4631 452.3306,-168.5284 459.501,-164.5949"/>
<polygon fill="#191970" stroke="#191970" points="368.8601,-256.1915 366.3575,-266.4865 374.7339,-259.9991 368.8601,-256.1915"/>
</g>
<!-- Node284&#45;&gt;Node295 -->
<g id="edge14" class="edge">
<title>Node284&#45;&gt;Node295</title>
<path fill="none" stroke="#191970" d="M367.683,-256.8684C379.1734,-228.1298 403.9126,-173.2259 438,-136 444.6913,-128.6926 453.6528,-122.3408 461.5356,-117.5427"/>
<polygon fill="#191970" stroke="#191970" points="364.42,-255.6026 364.0564,-266.1912 370.9437,-258.1404 364.42,-255.6026"/>
</g>
<!-- Node284&#45;&gt;Node296 -->
<g id="edge15" class="edge">
<title>Node284&#45;&gt;Node296</title>
<path fill="none" stroke="#191970" d="M367.1919,-256.9668C382.011,-215.3588 417.8728,-117.7276 438,-89 445.7356,-77.959 457.1907,-67.7792 466.1073,-60.7405"/>
<polygon fill="#191970" stroke="#191970" points="363.8632,-255.8818 363.8246,-266.4766 370.4618,-258.2184 363.8632,-255.8818"/>
</g>
<!-- Node297&#45;&gt;Node285 -->
<g id="edge17" class="edge">
<title>Node297&#45;&gt;Node285</title>
<path fill="none" stroke="#191970" d="M371.5904,-408.1208C385.1025,-428.9591 409.6658,-463.1038 438,-485 442.7652,-488.6825 448.3587,-491.8531 453.8686,-494.4911"/>
<polygon fill="#191970" stroke="#191970" points="374.4889,-406.1557 366.186,-399.5745 368.5726,-409.8971 374.4889,-406.1557"/>
</g>
<!-- Node297&#45;&gt;Node286 -->
<g id="edge18" class="edge">
<title>Node297&#45;&gt;Node286</title>
<path fill="none" stroke="#191970" d="M380.188,-406.2368C395.4063,-418.3445 417.3013,-434.8237 438,-447 443.7371,-450.375 450.1774,-453.5808 456.2417,-456.365"/>
<polygon fill="#191970" stroke="#191970" points="382.0395,-403.2335 372.0588,-399.6787 377.6442,-408.6817 382.0395,-403.2335"/>
</g>
<!-- Node297&#45;&gt;Node287 -->
<g id="edge19" class="edge">
<title>Node297&#45;&gt;Node287</title>
<path fill="none" stroke="#191970" d="M400.2098,-402.6804C416.2886,-407.8148 434.5433,-413.6441 449.4809,-418.4141"/>
<polygon fill="#191970" stroke="#191970" points="401.1195,-399.2969 390.5287,-399.589 398.9901,-405.9652 401.1195,-399.2969"/>
</g>
<!-- Node297&#45;&gt;Node288 -->
<g id="edge20" class="edge">
<title>Node297&#45;&gt;Node288</title>
<path fill="none" stroke="#191970" d="M409.2682,-390C421.565,-390 434.4943,-390 445.8604,-390"/>
<polygon fill="#191970" stroke="#191970" points="409.1359,-386.5001 399.1359,-390 409.1359,-393.5001 409.1359,-386.5001"/>
</g>
<!-- Node297&#45;&gt;Node289 -->
<g id="edge21" class="edge">
<title>Node297&#45;&gt;Node289</title>
<path fill="none" stroke="#191970" d="M400.2098,-377.3196C416.2886,-372.1852 434.5433,-366.3559 449.4809,-361.5859"/>
<polygon fill="#191970" stroke="#191970" points="398.9901,-374.0348 390.5287,-380.411 401.1195,-380.7031 398.9901,-374.0348"/>
</g>
<!-- Node297&#45;&gt;Node290 -->
<g id="edge22" class="edge">
<title>Node297&#45;&gt;Node290</title>
<path fill="none" stroke="#191970" d="M380.188,-373.7632C395.4063,-361.6555 417.3013,-345.1763 438,-333 443.7371,-329.625 450.1774,-326.4192 456.2417,-323.635"/>
<polygon fill="#191970" stroke="#191970" points="377.6442,-371.3183 372.0588,-380.3213 382.0395,-376.7665 377.6442,-371.3183"/>
</g>
<!-- Node297&#45;&gt;Node291 -->
<g id="edge23" class="edge">
<title>Node297&#45;&gt;Node291</title>
<path fill="none" stroke="#191970" d="M371.5904,-371.8792C385.1025,-351.0409 409.6658,-316.8962 438,-295 442.7652,-291.3175 448.3587,-288.1469 453.8686,-285.5089"/>
<polygon fill="#191970" stroke="#191970" points="368.5726,-370.1029 366.186,-380.4255 374.4889,-373.8443 368.5726,-370.1029"/>
</g>
<!-- Node297&#45;&gt;Node292 -->
<g id="edge24" class="edge">
<title>Node297&#45;&gt;Node292</title>
<path fill="none" stroke="#191970" d="M367.3488,-370.755C378.286,-342.4545 402.1796,-289.463 438,-257 442.1101,-253.2751 447.0754,-250.1667 452.1208,-247.6161"/>
<polygon fill="#191970" stroke="#191970" points="364.0049,-369.7055 363.7936,-380.2983 370.5645,-372.1493 364.0049,-369.7055"/>
</g>
</g>
</svg>
