<?xml version="1.0" encoding="UTF-8" standalone="no"?>
<!DOCTYPE svg PUBLIC "-//W3C//DTD SVG 1.1//EN"
 "http://www.w3.org/Graphics/SVG/1.1/DTD/svg11.dtd">
<!-- Generated by graphviz version 2.40.1 (20161225.0304)
 -->
<!-- Title: AESEncrypt Pages: 1 -->
<svg width="502pt" height="484pt"
 viewBox="0.00 0.00 502.00 484.00" xmlns="http://www.w3.org/2000/svg" xmlns:xlink="http://www.w3.org/1999/xlink">
<g id="graph0" class="graph" transform="scale(1 1) rotate(0) translate(4 480)">
<title>AESEncrypt</title>
<polygon fill="#ffffff" stroke="transparent" points="-4,4 -4,-480 498,-480 498,4 -4,4"/>
<!-- Node47 -->
<g id="node1" class="node">
<title>Node47</title>
<polygon fill="#bfbfbf" stroke="#000000" points="0,-228.5 0,-247.5 71,-247.5 71,-228.5 0,-228.5"/>
<text text-anchor="middle" x="35.5" y="-235.5" font-family="Helvetica,sans-Serif" font-size="10.00" fill="#000000">AESEncrypt</text>
</g>
<!-- Node48 -->
<g id="node2" class="node">
<title>Node48</title>
<g id="a_node2"><a xlink:href="_a_e_s_8c.html#a5d65eac115e562c64b00a43e72ee6aca" target="_top" xlink:title="getPaddedKeyLength &#45; Function to return a valid key length (in bytes) based off of the current key le...">
<polygon fill="#ffffff" stroke="#000000" points="112.5,-456.5 112.5,-475.5 222.5,-475.5 222.5,-456.5 112.5,-456.5"/>
<text text-anchor="middle" x="167.5" y="-463.5" font-family="Helvetica,sans-Serif" font-size="10.00" fill="#000000">getPaddedKeyLength</text>
</a>
</g>
</g>
<!-- Node47&#45;&gt;Node48 -->
<g id="edge1" class="edge">
<title>Node47&#45;&gt;Node48</title>
<path fill="none" stroke="#191970" d="M36.114,-247.5433C38.6672,-279.4692 51.1136,-383.8006 107,-442 110.6724,-445.8243 115.031,-449.053 119.7009,-451.776"/>
<polygon fill="#191970" stroke="#191970" points="118.4576,-455.0675 128.9667,-456.4125 121.5901,-448.8075 118.4576,-455.0675"/>
</g>
<!-- Node49 -->
<g id="node3" class="node">
<title>Node49</title>
<g id="a_node3"><a xlink:href="_a_e_s_8c.html#a1c2a403d95a85400bbae142d48cb8c9d" target="_top" xlink:title="getNumRounds &#45; Function to return the number of rounds of AES encryption and decryption based off of ...">
<polygon fill="#ffffff" stroke="#000000" points="274,-342.5 274,-361.5 359,-361.5 359,-342.5 274,-342.5"/>
<text text-anchor="middle" x="316.5" y="-349.5" font-family="Helvetica,sans-Serif" font-size="10.00" fill="#000000">getNumRounds</text>
</a>
</g>
</g>
<!-- Node47&#45;&gt;Node49 -->
<g id="edge2" class="edge">
<title>Node47&#45;&gt;Node49</title>
<path fill="none" stroke="#191970" d="M36.4469,-247.6191C39.8276,-276.088 54.0938,-360.0502 107,-394 166.0866,-431.9158 252.3108,-390.8152 293.2539,-366.8072"/>
<polygon fill="#191970" stroke="#191970" points="295.2084,-369.7158 301.9632,-361.5535 291.5926,-363.7219 295.2084,-369.7158"/>
</g>
<!-- Node50 -->
<g id="node4" class="node">
<title>Node50</title>
<g id="a_node4"><a xlink:href="_a_e_s_8c.html#a0e0b199ded54d7fb53a3bda3fcc02256" target="_top" xlink:title="validateNumRounds &#45; Function that validates the number of rounds that have been passed in by the ...">
<polygon fill="#ffffff" stroke="#000000" points="264,-228.5 264,-247.5 369,-247.5 369,-228.5 264,-228.5"/>
<text text-anchor="middle" x="316.5" y="-235.5" font-family="Helvetica,sans-Serif" font-size="10.00" fill="#000000">validateNumRounds</text>
</a>
</g>
</g>
<!-- Node47&#45;&gt;Node50 -->
<g id="edge3" class="edge">
<title>Node47&#45;&gt;Node50</title>
<path fill="none" stroke="#191970" d="M37.2363,-247.6925C42.4206,-273.383 60.4212,-343.1575 107,-371 153.1598,-398.5921 180.5965,-396.396 228,-371 251.3742,-358.4775 289.2067,-290.4574 306.8571,-256.8341"/>
<polygon fill="#191970" stroke="#191970" points="310.148,-258.0911 311.6485,-247.6031 303.9351,-254.8662 310.148,-258.0911"/>
</g>
<!-- Node51 -->
<g id="node5" class="node">
<title>Node51</title>
<g id="a_node5"><a xlink:href="_a_e_s_8c.html#acefcd728377e1e14187fa8fcd20f4064" target="_top" xlink:title="validatePlainTextLength &#45; Function that validates the length of the plaintext. The validation is done...">
<polygon fill="#ffffff" stroke="#000000" points="107,-342.5 107,-361.5 228,-361.5 228,-342.5 107,-342.5"/>
<text text-anchor="middle" x="167.5" y="-349.5" font-family="Helvetica,sans-Serif" font-size="10.00" fill="#000000">validatePlainTextLength</text>
</a>
</g>
</g>
<!-- Node47&#45;&gt;Node51 -->
<g id="edge4" class="edge">
<title>Node47&#45;&gt;Node51</title>
<path fill="none" stroke="#191970" d="M40.1439,-247.6556C49.846,-266.8125 74.1216,-309.7774 107,-333 109.8284,-334.9977 112.875,-336.7914 116.0436,-338.401"/>
<polygon fill="#191970" stroke="#191970" points="114.6557,-341.6141 125.2162,-342.4662 117.492,-335.2145 114.6557,-341.6141"/>
</g>
<!-- Node52 -->
<g id="node6" class="node">
<title>Node52</title>
<g id="a_node6"><a xlink:href="_a_e_s_8c.html#a1c1a633a58f7328faa397db9e45e7e0c" target="_top" xlink:title="constructStateArray &#45; Function to convert the state array from a flat 1D array to a multidimensional ...">
<polygon fill="#ffffff" stroke="#000000" points="115.5,-304.5 115.5,-323.5 219.5,-323.5 219.5,-304.5 115.5,-304.5"/>
<text text-anchor="middle" x="167.5" y="-311.5" font-family="Helvetica,sans-Serif" font-size="10.00" fill="#000000">constructStateArray</text>
</a>
</g>
</g>
<!-- Node47&#45;&gt;Node52 -->
<g id="edge5" class="edge">
<title>Node47&#45;&gt;Node52</title>
<path fill="none" stroke="#191970" d="M45.301,-247.8068C58.3442,-260.3603 82.6105,-282.0327 107,-295 111.0463,-297.1513 115.3762,-299.1053 119.7906,-300.8693"/>
<polygon fill="#191970" stroke="#191970" points="118.9183,-304.2772 129.512,-304.4304 121.3261,-297.7043 118.9183,-304.2772"/>
</g>
<!-- Node53 -->
<g id="node7" class="node">
<title>Node53</title>
<g id="a_node7"><a xlink:href="_a_e_s_8c.html#ae9af90db32afa65125a7eec339ed9d58" target="_top" xlink:title="printStateArray &#45; Function to print the state array to the terminal in hex format. ">
<polygon fill="#ffffff" stroke="#000000" points="126.5,-266.5 126.5,-285.5 208.5,-285.5 208.5,-266.5 126.5,-266.5"/>
<text text-anchor="middle" x="167.5" y="-273.5" font-family="Helvetica,sans-Serif" font-size="10.00" fill="#000000">printStateArray</text>
</a>
</g>
</g>
<!-- Node47&#45;&gt;Node53 -->
<g id="edge6" class="edge">
<title>Node47&#45;&gt;Node53</title>
<path fill="none" stroke="#191970" d="M68.8092,-247.589C85.6928,-252.4494 106.3948,-258.4091 124.4705,-263.6127"/>
<polygon fill="#191970" stroke="#191970" points="123.6235,-267.011 134.2015,-266.4141 125.56,-260.2842 123.6235,-267.011"/>
</g>
<!-- Node54 -->
<g id="node8" class="node">
<title>Node54</title>
<g id="a_node8"><a xlink:href="_a_e_s_8c.html#a185c827e4ccbc8e4608e83dfbf9dfc8e" target="_top" xlink:title="RijndaelKeySchedule &#45; Function that performs the Rijndael key scheduling for AES encryption. Takes in the original key passed in as parameter. ">
<polygon fill="#ffffff" stroke="#000000" points="112.5,-228.5 112.5,-247.5 222.5,-247.5 222.5,-228.5 112.5,-228.5"/>
<text text-anchor="middle" x="167.5" y="-235.5" font-family="Helvetica,sans-Serif" font-size="10.00" fill="#000000">RijndaelKeySchedule</text>
</a>
</g>
</g>
<!-- Node47&#45;&gt;Node54 -->
<g id="edge7" class="edge">
<title>Node47&#45;&gt;Node54</title>
<path fill="none" stroke="#191970" d="M71.2211,-238C80.826,-238 91.5231,-238 102.196,-238"/>
<polygon fill="#191970" stroke="#191970" points="102.385,-241.5001 112.3849,-238 102.3849,-234.5001 102.385,-241.5001"/>
</g>
<!-- Node59 -->
<g id="node13" class="node">
<title>Node59</title>
<g id="a_node13"><a xlink:href="_a_e_s_8c.html#abe15a731f43315f6f595674d3cd62d57" target="_top" xlink:title="getRoundKey &#45; Function to extract the correct sub&#45;key to use for the appropriate round specified by ...">
<polygon fill="#ffffff" stroke="#000000" points="129.5,-190.5 129.5,-209.5 205.5,-209.5 205.5,-190.5 129.5,-190.5"/>
<text text-anchor="middle" x="167.5" y="-197.5" font-family="Helvetica,sans-Serif" font-size="10.00" fill="#000000">getRoundKey</text>
</a>
</g>
</g>
<!-- Node47&#45;&gt;Node59 -->
<g id="edge15" class="edge">
<title>Node47&#45;&gt;Node59</title>
<path fill="none" stroke="#191970" d="M68.8092,-228.411C85.6928,-223.5506 106.3948,-217.5909 124.4705,-212.3873"/>
<polygon fill="#191970" stroke="#191970" points="125.56,-215.7158 134.2015,-209.5859 123.6235,-208.989 125.56,-215.7158"/>
</g>
<!-- Node60 -->
<g id="node14" class="node">
<title>Node60</title>
<g id="a_node14"><a xlink:href="_a_e_s_8c.html#aef4d8fc4282e3cc21708d25c0ec9ad06" target="_top" xlink:title="AddRoundKey &#45; Function that performs the Bitwise XOR between state and key as per AES encryption...">
<polygon fill="#ffffff" stroke="#000000" points="127.5,-152.5 127.5,-171.5 207.5,-171.5 207.5,-152.5 127.5,-152.5"/>
<text text-anchor="middle" x="167.5" y="-159.5" font-family="Helvetica,sans-Serif" font-size="10.00" fill="#000000">AddRoundKey</text>
</a>
</g>
</g>
<!-- Node47&#45;&gt;Node60 -->
<g id="edge16" class="edge">
<title>Node47&#45;&gt;Node60</title>
<path fill="none" stroke="#191970" d="M45.301,-228.1932C58.3442,-215.6397 82.6105,-193.9673 107,-181 111.0463,-178.8487 115.3762,-176.8947 119.7906,-175.1307"/>
<polygon fill="#191970" stroke="#191970" points="121.3261,-178.2957 129.512,-171.5696 118.9183,-171.7228 121.3261,-178.2957"/>
</g>
<!-- Node61 -->
<g id="node15" class="node">
<title>Node61</title>
<g id="a_node15"><a xlink:href="_a_e_s_8c.html#aec40f89d2cbf831fd0d5d5f1bfa616f5" target="_top" xlink:title="subBytes &#45; Function that performs the sub byte operation where each value is replaced by the s box va...">
<polygon fill="#ffffff" stroke="#000000" points="287.5,-152.5 287.5,-171.5 345.5,-171.5 345.5,-152.5 287.5,-152.5"/>
<text text-anchor="middle" x="316.5" y="-159.5" font-family="Helvetica,sans-Serif" font-size="10.00" fill="#000000">subBytes</text>
</a>
</g>
</g>
<!-- Node47&#45;&gt;Node61 -->
<g id="edge17" class="edge">
<title>Node47&#45;&gt;Node61</title>
<path fill="none" stroke="#191970" d="M39.2155,-228.3904C47.6565,-208.098 70.4277,-161.2477 107,-143 155.1205,-118.9903 174.5226,-137.3242 228,-143 244.252,-144.7249 261.9052,-148.1841 277.1389,-151.6837"/>
<polygon fill="#191970" stroke="#191970" points="276.713,-155.1801 287.2518,-154.0922 278.3348,-148.3706 276.713,-155.1801"/>
</g>
<!-- Node62 -->
<g id="node16" class="node">
<title>Node62</title>
<g id="a_node16"><a xlink:href="_a_e_s_8c.html#abeb4dba64fcf4d07eac178e732ca6aa8" target="_top" xlink:title="ShiftRows &#45; Function to shift the state array according to the AES encryption standard for 128 &#45; bits...">
<polygon fill="#ffffff" stroke="#000000" points="285.5,-76.5 285.5,-95.5 347.5,-95.5 347.5,-76.5 285.5,-76.5"/>
<text text-anchor="middle" x="316.5" y="-83.5" font-family="Helvetica,sans-Serif" font-size="10.00" fill="#000000">ShiftRows</text>
</a>
</g>
</g>
<!-- Node47&#45;&gt;Node62 -->
<g id="edge19" class="edge">
<title>Node47&#45;&gt;Node62</title>
<path fill="none" stroke="#191970" d="M38.6677,-228.3146C46.4296,-206.2228 68.6167,-152.0146 107,-126 157.6174,-91.6937 230.1066,-85.0026 275.1878,-84.5747"/>
<polygon fill="#191970" stroke="#191970" points="275.199,-88.0746 285.2004,-84.5786 275.2018,-81.0746 275.199,-88.0746"/>
</g>
<!-- Node63 -->
<g id="node17" class="node">
<title>Node63</title>
<g id="a_node17"><a xlink:href="_a_e_s_8c.html#aca09b30896a351db6587639a1cc1bf0d" target="_top" xlink:title="mixColumns &#45; Function that performs the MixColumns step of AES as specified by AES encryption...">
<polygon fill="#ffffff" stroke="#000000" points="132,-38.5 132,-57.5 203,-57.5 203,-38.5 132,-38.5"/>
<text text-anchor="middle" x="167.5" y="-45.5" font-family="Helvetica,sans-Serif" font-size="10.00" fill="#000000">mixColumns</text>
</a>
</g>
</g>
<!-- Node47&#45;&gt;Node63 -->
<g id="edge21" class="edge">
<title>Node47&#45;&gt;Node63</title>
<path fill="none" stroke="#191970" d="M37.0176,-228.2943C41.9,-200.2038 59.7324,-117.9138 107,-72 111.5213,-67.6082 116.9446,-63.9909 122.6624,-61.019"/>
<polygon fill="#191970" stroke="#191970" points="124.1488,-64.1879 131.8022,-56.8615 121.2505,-57.8161 124.1488,-64.1879"/>
</g>
<!-- Node64 -->
<g id="node18" class="node">
<title>Node64</title>
<g id="a_node18"><a xlink:href="_a_e_s_8c.html#aaba2e1b9466483b3c6b8669eb42aa5ed" target="_top" xlink:title="printAESBlock &#45; Function to print a single block in hex format to the terminal. ">
<polygon fill="#ffffff" stroke="#000000" points="127.5,-.5 127.5,-19.5 207.5,-19.5 207.5,-.5 127.5,-.5"/>
<text text-anchor="middle" x="167.5" y="-7.5" font-family="Helvetica,sans-Serif" font-size="10.00" fill="#000000">printAESBlock</text>
</a>
</g>
</g>
<!-- Node47&#45;&gt;Node64 -->
<g id="edge22" class="edge">
<title>Node47&#45;&gt;Node64</title>
<path fill="none" stroke="#191970" d="M35.8717,-228.0637C37.6586,-194.8523 47.9647,-86.5587 107,-29 110.2812,-25.8009 114.0948,-23.1398 118.181,-20.9264"/>
<polygon fill="#191970" stroke="#191970" points="119.7713,-24.049 127.461,-16.7607 116.9046,-17.6629 119.7713,-24.049"/>
</g>
<!-- Node54&#45;&gt;Node49 -->
<g id="edge8" class="edge">
<title>Node54&#45;&gt;Node49</title>
<path fill="none" stroke="#191970" d="M208.1709,-247.5737C215.0671,-250.08 221.9467,-253.1834 228,-257 260.5335,-277.5127 289.0137,-312.8834 304.3915,-334.194"/>
<polygon fill="#191970" stroke="#191970" points="301.536,-336.2181 310.1533,-342.382 307.2607,-332.1896 301.536,-336.2181"/>
</g>
<!-- Node54&#45;&gt;Node50 -->
<g id="edge9" class="edge">
<title>Node54&#45;&gt;Node50</title>
<path fill="none" stroke="#191970" d="M222.5588,-238C232.6311,-238 243.2131,-238 253.4958,-238"/>
<polygon fill="#191970" stroke="#191970" points="253.6487,-241.5001 263.6487,-238 253.6486,-234.5001 253.6487,-241.5001"/>
</g>
<!-- Node55 -->
<g id="node9" class="node">
<title>Node55</title>
<g id="a_node9"><a xlink:href="_a_e_s_8c.html#af2f914cf17729a0ee89102c98b39665e" target="_top" xlink:title="KeyScheduleCore &#45; Function that performs the key schedule core for the Rijndael Key Schedule...">
<polygon fill="#ffffff" stroke="#000000" points="269,-114.5 269,-133.5 364,-133.5 364,-114.5 269,-114.5"/>
<text text-anchor="middle" x="316.5" y="-121.5" font-family="Helvetica,sans-Serif" font-size="10.00" fill="#000000">KeyScheduleCore</text>
</a>
</g>
</g>
<!-- Node54&#45;&gt;Node55 -->
<g id="edge10" class="edge">
<title>Node54&#45;&gt;Node55</title>
<path fill="none" stroke="#191970" d="M212.6849,-228.4712C218.2322,-226.006 223.5163,-222.9037 228,-219 256.1888,-194.4575 236.3447,-168.142 264,-143 265.7191,-141.4371 267.5765,-140.0004 269.5312,-138.6798"/>
<polygon fill="#191970" stroke="#191970" points="271.5825,-141.5426 278.598,-133.6032 268.1627,-135.4348 271.5825,-141.5426"/>
</g>
<!-- Node57 -->
<g id="node11" class="node">
<title>Node57</title>
<g id="a_node11"><a xlink:href="_a_e_s_8c.html#acdf4abe2846c02b4d3e674782807fdfa" target="_top" xlink:title="getSBoxValue &#45; Function to return the sBox value passed in as a parameter ">
<polygon fill="#ffffff" stroke="#000000" points="410,-152.5 410,-171.5 489,-171.5 489,-152.5 410,-152.5"/>
<text text-anchor="middle" x="449.5" y="-159.5" font-family="Helvetica,sans-Serif" font-size="10.00" fill="#000000">getSBoxValue</text>
</a>
</g>
</g>
<!-- Node54&#45;&gt;Node57 -->
<g id="edge14" class="edge">
<title>Node54&#45;&gt;Node57</title>
<path fill="none" stroke="#191970" d="M202.93,-228.4515C254.0051,-214.6866 348.3235,-189.2674 404.3359,-174.1719"/>
<polygon fill="#191970" stroke="#191970" points="405.2485,-177.5509 413.9932,-171.5692 403.4269,-170.7921 405.2485,-177.5509"/>
</g>
<!-- Node56 -->
<g id="node10" class="node">
<title>Node56</title>
<g id="a_node10"><a xlink:href="_a_e_s_8c.html#ac769b0533ccecd203cc3ab64e6b2f950" target="_top" xlink:title="SingleRotateLeft &#45; Function to rotate the array passed in as a paramter. ">
<polygon fill="#ffffff" stroke="#000000" points="405,-76.5 405,-95.5 494,-95.5 494,-76.5 405,-76.5"/>
<text text-anchor="middle" x="449.5" y="-83.5" font-family="Helvetica,sans-Serif" font-size="10.00" fill="#000000">SingleRotateLeft</text>
</a>
</g>
</g>
<!-- Node55&#45;&gt;Node56 -->
<g id="edge11" class="edge">
<title>Node55&#45;&gt;Node56</title>
<path fill="none" stroke="#191970" d="M350.0615,-114.411C367.073,-109.5506 387.9319,-103.5909 406.1446,-98.3873"/>
<polygon fill="#191970" stroke="#191970" points="407.2955,-101.6986 415.9492,-95.5859 405.3724,-94.9679 407.2955,-101.6986"/>
</g>
<!-- Node55&#45;&gt;Node57 -->
<g id="edge12" class="edge">
<title>Node55&#45;&gt;Node57</title>
<path fill="none" stroke="#191970" d="M350.0615,-133.589C367.073,-138.4494 387.9319,-144.4091 406.1446,-149.6127"/>
<polygon fill="#191970" stroke="#191970" points="405.3724,-153.0321 415.9492,-152.4141 407.2955,-146.3014 405.3724,-153.0321"/>
</g>
<!-- Node58 -->
<g id="node12" class="node">
<title>Node58</title>
<g id="a_node12"><a xlink:href="_a_e_s_8c.html#a4e58d2e928429bc56387394251b8ece5" target="_top" xlink:title="getRconValue &#45; Function to return the Rcon value for the index passed in as a parameter ...">
<polygon fill="#ffffff" stroke="#000000" points="410.5,-114.5 410.5,-133.5 488.5,-133.5 488.5,-114.5 410.5,-114.5"/>
<text text-anchor="middle" x="449.5" y="-121.5" font-family="Helvetica,sans-Serif" font-size="10.00" fill="#000000">getRconValue</text>
</a>
</g>
</g>
<!-- Node55&#45;&gt;Node58 -->
<g id="edge13" class="edge">
<title>Node55&#45;&gt;Node58</title>
<path fill="none" stroke="#191970" d="M364.1404,-124C375.7856,-124 388.272,-124 400.0019,-124"/>
<polygon fill="#191970" stroke="#191970" points="400.0751,-127.5001 410.0751,-124 400.0751,-120.5001 400.0751,-127.5001"/>
</g>
<!-- Node61&#45;&gt;Node57 -->
<g id="edge18" class="edge">
<title>Node61&#45;&gt;Node57</title>
<path fill="none" stroke="#191970" d="M345.6874,-162C361.4855,-162 381.4374,-162 399.6186,-162"/>
<polygon fill="#191970" stroke="#191970" points="399.7856,-165.5001 409.7856,-162 399.7856,-158.5001 399.7856,-165.5001"/>
</g>
<!-- Node62&#45;&gt;Node56 -->
<g id="edge20" class="edge">
<title>Node62&#45;&gt;Node56</title>
<path fill="none" stroke="#191970" d="M347.6826,-86C361.6647,-86 378.5814,-86 394.5762,-86"/>
<polygon fill="#191970" stroke="#191970" points="394.9138,-89.5001 404.9138,-86 394.9138,-82.5001 394.9138,-89.5001"/>
</g>
</g>
</svg>
