<?xml version="1.0" encoding="UTF-8" standalone="no"?>
<!DOCTYPE svg PUBLIC "-//W3C//DTD SVG 1.1//EN"
 "http://www.w3.org/Graphics/SVG/1.1/DTD/svg11.dtd">
<!-- Generated by graphviz version 2.40.1 (20161225.0304)
 -->
<!-- Title: fileNameDirIndex Pages: 1 -->
<svg width="356pt" height="218pt"
 viewBox="0.00 0.00 356.00 218.00" xmlns="http://www.w3.org/2000/svg" xmlns:xlink="http://www.w3.org/1999/xlink">
<g id="graph0" class="graph" transform="scale(1 1) rotate(0) translate(4 214)">
<title>fileNameDirIndex</title>
<polygon fill="#ffffff" stroke="transparent" points="-4,4 -4,-214 352,-214 352,4 -4,4"/>
<!-- Node101 -->
<g id="node1" class="node">
<title>Node101</title>
<polygon fill="#bfbfbf" stroke="#000000" points="0,-95.5 0,-114.5 92,-114.5 92,-95.5 0,-95.5"/>
<text text-anchor="middle" x="46" y="-102.5" font-family="Helvetica,sans-Serif" font-size="10.00" fill="#000000">fileNameDirIndex</text>
</g>
<!-- Node102 -->
<g id="node2" class="node">
<title>Node102</title>
<g id="a_node2"><a xlink:href="_a_e_s_8h.html#ac206e95e4e98f7a5a92b046ad726f622" target="_top" xlink:title="Get the output file name from all the parameters passed in. ">
<polygon fill="#ffffff" stroke="#000000" points="128,-95.5 128,-114.5 229,-114.5 229,-95.5 128,-95.5"/>
<text text-anchor="middle" x="178.5" y="-102.5" font-family="Helvetica,sans-Serif" font-size="10.00" fill="#000000">getOutputFileName</text>
</a>
</g>
</g>
<!-- Node101&#45;&gt;Node102 -->
<g id="edge1" class="edge">
<title>Node101&#45;&gt;Node102</title>
<path fill="none" stroke="#191970" d="M102.4913,-105C110.9307,-105 119.5861,-105 127.8935,-105"/>
<polygon fill="#191970" stroke="#191970" points="102.3421,-101.5001 92.3421,-105 102.342,-108.5001 102.3421,-101.5001"/>
</g>
<!-- Node103 -->
<g id="node3" class="node">
<title>Node103</title>
<g id="a_node3"><a xlink:href="cbc_8h.html#ad055b3ad2664ace8ba1ab68a481dc1b3" target="_top" xlink:title="cbcEncryptFile &#45; Function to encrypt the file with name ">
<polygon fill="#ffffff" stroke="#000000" points="265.5,-190.5 265.5,-209.5 347.5,-209.5 347.5,-190.5 265.5,-190.5"/>
<text text-anchor="middle" x="306.5" y="-197.5" font-family="Helvetica,sans-Serif" font-size="10.00" fill="#000000">cbcEncryptFile</text>
</a>
</g>
</g>
<!-- Node102&#45;&gt;Node103 -->
<g id="edge2" class="edge">
<title>Node102&#45;&gt;Node103</title>
<path fill="none" stroke="#191970" d="M195.132,-122.2931C211.7161,-138.8573 238.4752,-163.8066 265,-181 270.4525,-184.5343 276.6698,-187.7538 282.6027,-190.4976"/>
<polygon fill="#191970" stroke="#191970" points="197.3652,-119.5728 187.8536,-114.9058 192.3788,-124.4857 197.3652,-119.5728"/>
</g>
<!-- Node104 -->
<g id="node4" class="node">
<title>Node104</title>
<g id="a_node4"><a xlink:href="cbc_8h.html#a9375da4cc24b1bedceb0364f2865bcc3" target="_top" xlink:title="cbcDecryptFile &#45; Function to decrypt the file with name ">
<polygon fill="#ffffff" stroke="#000000" points="265,-152.5 265,-171.5 348,-171.5 348,-152.5 265,-152.5"/>
<text text-anchor="middle" x="306.5" y="-159.5" font-family="Helvetica,sans-Serif" font-size="10.00" fill="#000000">cbcDecryptFile</text>
</a>
</g>
</g>
<!-- Node102&#45;&gt;Node104 -->
<g id="edge3" class="edge">
<title>Node102&#45;&gt;Node104</title>
<path fill="none" stroke="#191970" d="M209.081,-118.6181C232.4991,-129.0465 264.2144,-143.1697 285.0058,-152.4284"/>
<polygon fill="#191970" stroke="#191970" points="210.4833,-115.4113 199.9243,-114.5405 207.6357,-121.8059 210.4833,-115.4113"/>
</g>
<!-- Node105 -->
<g id="node5" class="node">
<title>Node105</title>
<g id="a_node5"><a xlink:href="cfb_8h.html#a9384de325e389ba7809b7ee98320f485" target="_top" xlink:title="cfbEncryptFile &#45; Function to encrypt the file with name ">
<polygon fill="#ffffff" stroke="#000000" points="266.5,-114.5 266.5,-133.5 346.5,-133.5 346.5,-114.5 266.5,-114.5"/>
<text text-anchor="middle" x="306.5" y="-121.5" font-family="Helvetica,sans-Serif" font-size="10.00" fill="#000000">cfbEncryptFile</text>
</a>
</g>
</g>
<!-- Node102&#45;&gt;Node105 -->
<g id="edge4" class="edge">
<title>Node102&#45;&gt;Node105</title>
<path fill="none" stroke="#191970" d="M238.9998,-113.9804C248.2017,-115.3463 257.5003,-116.7266 266.1318,-118.0078"/>
<polygon fill="#191970" stroke="#191970" points="239.4945,-110.5156 229.089,-112.5093 238.4667,-117.4397 239.4945,-110.5156"/>
</g>
<!-- Node106 -->
<g id="node6" class="node">
<title>Node106</title>
<g id="a_node6"><a xlink:href="cfb_8h.html#a6dce0b90ab3948c3df032eb61c2a64ea" target="_top" xlink:title="cfbDecryptFile &#45; Function to decrypt the file with name ">
<polygon fill="#ffffff" stroke="#000000" points="266.5,-76.5 266.5,-95.5 346.5,-95.5 346.5,-76.5 266.5,-76.5"/>
<text text-anchor="middle" x="306.5" y="-83.5" font-family="Helvetica,sans-Serif" font-size="10.00" fill="#000000">cfbDecryptFile</text>
</a>
</g>
</g>
<!-- Node102&#45;&gt;Node106 -->
<g id="edge5" class="edge">
<title>Node102&#45;&gt;Node106</title>
<path fill="none" stroke="#191970" d="M238.9998,-96.0196C248.2017,-94.6537 257.5003,-93.2734 266.1318,-91.9922"/>
<polygon fill="#191970" stroke="#191970" points="238.4667,-92.5603 229.089,-97.4907 239.4945,-99.4844 238.4667,-92.5603"/>
</g>
<!-- Node107 -->
<g id="node7" class="node">
<title>Node107</title>
<g id="a_node7"><a xlink:href="ecb_8h.html#ab68902caeba7880cf1be8b40e8bb9a50" target="_top" xlink:title="ecbEncryptFile &#45; Function to encrypt the file with name ">
<polygon fill="#ffffff" stroke="#000000" points="265.5,-38.5 265.5,-57.5 347.5,-57.5 347.5,-38.5 265.5,-38.5"/>
<text text-anchor="middle" x="306.5" y="-45.5" font-family="Helvetica,sans-Serif" font-size="10.00" fill="#000000">ecbEncryptFile</text>
</a>
</g>
</g>
<!-- Node102&#45;&gt;Node107 -->
<g id="edge6" class="edge">
<title>Node102&#45;&gt;Node107</title>
<path fill="none" stroke="#191970" d="M209.081,-91.3819C232.4991,-80.9535 264.2144,-66.8303 285.0058,-57.5716"/>
<polygon fill="#191970" stroke="#191970" points="207.6357,-88.1941 199.9243,-95.4595 210.4833,-94.5887 207.6357,-88.1941"/>
</g>
<!-- Node108 -->
<g id="node8" class="node">
<title>Node108</title>
<g id="a_node8"><a xlink:href="ecb_8h.html#ab4c77adefd8655ebd7bc79524f958013" target="_top" xlink:title="ecbDecryptFile &#45; Function to encrypt the file with name ">
<polygon fill="#ffffff" stroke="#000000" points="265,-.5 265,-19.5 348,-19.5 348,-.5 265,-.5"/>
<text text-anchor="middle" x="306.5" y="-7.5" font-family="Helvetica,sans-Serif" font-size="10.00" fill="#000000">ecbDecryptFile</text>
</a>
</g>
</g>
<!-- Node102&#45;&gt;Node108 -->
<g id="edge7" class="edge">
<title>Node102&#45;&gt;Node108</title>
<path fill="none" stroke="#191970" d="M195.132,-87.7069C211.7161,-71.1427 238.4752,-46.1934 265,-29 270.4525,-25.4657 276.6698,-22.2462 282.6027,-19.5024"/>
<polygon fill="#191970" stroke="#191970" points="192.3788,-85.5143 187.8536,-95.0942 197.3652,-90.4272 192.3788,-85.5143"/>
</g>
</g>
</svg>
