<?xml version="1.0" encoding="UTF-8" standalone="no"?>
<!DOCTYPE svg PUBLIC "-//W3C//DTD SVG 1.1//EN"
 "http://www.w3.org/Graphics/SVG/1.1/DTD/svg11.dtd">
<!-- Generated by graphviz version 2.40.1 (20161225.0304)
 -->
<!-- Title: invShiftRows Pages: 1 -->
<svg width="424pt" height="180pt"
 viewBox="0.00 0.00 424.00 180.00" xmlns="http://www.w3.org/2000/svg" xmlns:xlink="http://www.w3.org/1999/xlink">
<g id="graph0" class="graph" transform="scale(1 1) rotate(0) translate(4 176)">
<title>invShiftRows</title>
<polygon fill="#ffffff" stroke="transparent" points="-4,4 -4,-176 420,-176 420,4 -4,4"/>
<!-- Node311 -->
<g id="node1" class="node">
<title>Node311</title>
<polygon fill="#bfbfbf" stroke="#000000" points="0,-113.5 0,-132.5 75,-132.5 75,-113.5 0,-113.5"/>
<text text-anchor="middle" x="37.5" y="-120.5" font-family="Helvetica,sans-Serif" font-size="10.00" fill="#000000">invShiftRows</text>
</g>
<!-- Node312 -->
<g id="node2" class="node">
<title>Node312</title>
<g id="a_node2"><a xlink:href="_a_e_s_8h.html#aea7dd7439aa08f23e6fecd32d4055ac3" target="_top" xlink:title="AESDecrypt &#45; Function to decrypt a single block of ciphertext passed in as parameter &#160;cipherText usin...">
<polygon fill="#ffffff" stroke="#000000" points="111,-85.5 111,-104.5 182,-104.5 182,-85.5 111,-85.5"/>
<text text-anchor="middle" x="146.5" y="-92.5" font-family="Helvetica,sans-Serif" font-size="10.00" fill="#000000">AESDecrypt</text>
</a>
</g>
</g>
<!-- Node311&#45;&gt;Node312 -->
<g id="edge1" class="edge">
<title>Node311&#45;&gt;Node312</title>
<path fill="none" stroke="#191970" d="M84.5349,-110.9176C93.3858,-108.644 102.5044,-106.3016 110.9331,-104.1365"/>
<polygon fill="#191970" stroke="#191970" points="83.5215,-107.5643 74.7068,-113.4423 85.2631,-114.3441 83.5215,-107.5643"/>
</g>
<!-- Node313 -->
<g id="node3" class="node">
<title>Node313</title>
<g id="a_node3"><a xlink:href="aes_tester_8c.html#a0ddf1224851353fc92bfbff6f499fa97" target="_top" xlink:title="main">
<polygon fill="#ffffff" stroke="#000000" points="246.5,-152.5 246.5,-171.5 284.5,-171.5 284.5,-152.5 246.5,-152.5"/>
<text text-anchor="middle" x="265.5" y="-159.5" font-family="Helvetica,sans-Serif" font-size="10.00" fill="#000000">main</text>
</a>
</g>
</g>
<!-- Node311&#45;&gt;Node313 -->
<g id="edge8" class="edge">
<title>Node311&#45;&gt;Node313</title>
<path fill="none" stroke="#191970" d="M85.0788,-131.1385C135.026,-139.6821 211.0959,-152.694 246.34,-158.7226"/>
<polygon fill="#191970" stroke="#191970" points="85.5965,-127.6763 75.1496,-129.4401 84.4163,-134.5761 85.5965,-127.6763"/>
</g>
<!-- Node312&#45;&gt;Node313 -->
<g id="edge2" class="edge">
<title>Node312&#45;&gt;Node313</title>
<path fill="none" stroke="#191970" d="M167.25,-110.638C181.1461,-120.6749 200.1055,-133.5501 218,-143 226.9535,-147.7282 237.3521,-152.0131 246.1334,-155.3119"/>
<polygon fill="#191970" stroke="#191970" points="169.0439,-107.613 158.9116,-104.5167 164.9015,-113.2558 169.0439,-107.613"/>
</g>
<!-- Node314 -->
<g id="node4" class="node">
<title>Node314</title>
<g id="a_node4"><a xlink:href="cbc_8h.html#a9375da4cc24b1bedceb0364f2865bcc3" target="_top" xlink:title="cbcDecryptFile &#45; Function to decrypt the file with name ">
<polygon fill="#ffffff" stroke="#000000" points="224,-114.5 224,-133.5 307,-133.5 307,-114.5 224,-114.5"/>
<text text-anchor="middle" x="265.5" y="-121.5" font-family="Helvetica,sans-Serif" font-size="10.00" fill="#000000">cbcDecryptFile</text>
</a>
</g>
</g>
<!-- Node312&#45;&gt;Node314 -->
<g id="edge3" class="edge">
<title>Node312&#45;&gt;Node314</title>
<path fill="none" stroke="#191970" d="M191.9738,-106.0819C203.3554,-108.8555 215.4631,-111.8061 226.4989,-114.4955"/>
<polygon fill="#191970" stroke="#191970" points="192.7483,-102.6682 182.2039,-103.701 191.0909,-109.4692 192.7483,-102.6682"/>
</g>
<!-- Node315 -->
<g id="node5" class="node">
<title>Node315</title>
<g id="a_node5"><a xlink:href="cbc_8h.html#a95fbad6d45d4b793610fe663939b5f8c" target="_top" xlink:title="cbcDecrypt &#45; Function to decrypt the user input pointed to by ">
<polygon fill="#ffffff" stroke="#000000" points="232,-76.5 232,-95.5 299,-95.5 299,-76.5 232,-76.5"/>
<text text-anchor="middle" x="265.5" y="-83.5" font-family="Helvetica,sans-Serif" font-size="10.00" fill="#000000">cbcDecrypt</text>
</a>
</g>
</g>
<!-- Node312&#45;&gt;Node315 -->
<g id="edge4" class="edge">
<title>Node312&#45;&gt;Node315</title>
<path fill="none" stroke="#191970" d="M192.4713,-91.5232C205.5866,-90.5313 219.6279,-89.4693 231.8592,-88.5443"/>
<polygon fill="#191970" stroke="#191970" points="191.9115,-88.0554 182.2039,-92.2997 192.4394,-95.0355 191.9115,-88.0554"/>
</g>
<!-- Node316 -->
<g id="node6" class="node">
<title>Node316</title>
<g id="a_node6"><a xlink:href="ecb_8h.html#a9661ce321dd2649926ebadd2ab9dcd20" target="_top" xlink:title="ecbDecryptHelper &#45; Helper function used to decrypt the ciphertext pointed to by ">
<polygon fill="#ffffff" stroke="#000000" points="218,-38.5 218,-57.5 313,-57.5 313,-38.5 218,-38.5"/>
<text text-anchor="middle" x="265.5" y="-45.5" font-family="Helvetica,sans-Serif" font-size="10.00" fill="#000000">ecbDecryptHelper</text>
</a>
</g>
</g>
<!-- Node312&#45;&gt;Node316 -->
<g id="edge5" class="edge">
<title>Node312&#45;&gt;Node316</title>
<path fill="none" stroke="#191970" d="M179.9747,-81.7789C199.3899,-74.1107 223.4095,-64.624 241.0459,-57.6583"/>
<polygon fill="#191970" stroke="#191970" points="178.5966,-78.56 170.5814,-85.4888 181.168,-85.0706 178.5966,-78.56"/>
</g>
<!-- Node318 -->
<g id="node8" class="node">
<title>Node318</title>
<g id="a_node8"><a xlink:href="ecb_8h.html#ab4c77adefd8655ebd7bc79524f958013" target="_top" xlink:title="ecbDecryptFile &#45; Function to encrypt the file with name ">
<polygon fill="#ffffff" stroke="#000000" points="224,-.5 224,-19.5 307,-19.5 307,-.5 224,-.5"/>
<text text-anchor="middle" x="265.5" y="-7.5" font-family="Helvetica,sans-Serif" font-size="10.00" fill="#000000">ecbDecryptFile</text>
</a>
</g>
</g>
<!-- Node312&#45;&gt;Node318 -->
<g id="edge7" class="edge">
<title>Node312&#45;&gt;Node318</title>
<path fill="none" stroke="#191970" d="M161.9746,-77.5158C175.5759,-62.9858 196.5037,-42.566 218,-29 223.7085,-25.3975 230.2139,-22.2594 236.54,-19.6275"/>
<polygon fill="#191970" stroke="#191970" points="159.0281,-75.5517 154.8641,-85.294 164.1946,-80.2747 159.0281,-75.5517"/>
</g>
<!-- Node317 -->
<g id="node7" class="node">
<title>Node317</title>
<g id="a_node7"><a xlink:href="ecb_8h.html#acd982a867b70e4f75f2232c974a1e4ae" target="_top" xlink:title="ecbDecrypt &#45; Function to decrypt the user input pointed to by ">
<polygon fill="#ffffff" stroke="#000000" points="349,-38.5 349,-57.5 416,-57.5 416,-38.5 349,-38.5"/>
<text text-anchor="middle" x="382.5" y="-45.5" font-family="Helvetica,sans-Serif" font-size="10.00" fill="#000000">ecbDecrypt</text>
</a>
</g>
</g>
<!-- Node316&#45;&gt;Node317 -->
<g id="edge6" class="edge">
<title>Node316&#45;&gt;Node317</title>
<path fill="none" stroke="#191970" d="M323.3346,-48C332.1109,-48 340.9073,-48 348.9333,-48"/>
<polygon fill="#191970" stroke="#191970" points="323.0884,-44.5001 313.0884,-48 323.0883,-51.5001 323.0884,-44.5001"/>
</g>
</g>
</svg>
