<?xml version="1.0" encoding="UTF-8" standalone="no"?>
<!DOCTYPE svg PUBLIC "-//W3C//DTD SVG 1.1//EN"
 "http://www.w3.org/Graphics/SVG/1.1/DTD/svg11.dtd">
<!-- Generated by graphviz version 2.40.1 (20161225.0304)
 -->
<!-- Title: invSubBytes Pages: 1 -->
<svg width="421pt" height="180pt"
 viewBox="0.00 0.00 421.00 180.00" xmlns="http://www.w3.org/2000/svg" xmlns:xlink="http://www.w3.org/1999/xlink">
<g id="graph0" class="graph" transform="scale(1 1) rotate(0) translate(4 176)">
<title>invSubBytes</title>
<polygon fill="#ffffff" stroke="transparent" points="-4,4 -4,-176 417,-176 417,4 -4,4"/>
<!-- Node321 -->
<g id="node1" class="node">
<title>Node321</title>
<polygon fill="#bfbfbf" stroke="#000000" points="0,-76.5 0,-95.5 72,-95.5 72,-76.5 0,-76.5"/>
<text text-anchor="middle" x="36" y="-83.5" font-family="Helvetica,sans-Serif" font-size="10.00" fill="#000000">invSubBytes</text>
</g>
<!-- Node322 -->
<g id="node2" class="node">
<title>Node322</title>
<g id="a_node2"><a xlink:href="_a_e_s_8h.html#aea7dd7439aa08f23e6fecd32d4055ac3" target="_top" xlink:title="AESDecrypt &#45; Function to decrypt a single block of ciphertext passed in as parameter &#160;cipherText usin...">
<polygon fill="#ffffff" stroke="#000000" points="108,-76.5 108,-95.5 179,-95.5 179,-76.5 108,-76.5"/>
<text text-anchor="middle" x="143.5" y="-83.5" font-family="Helvetica,sans-Serif" font-size="10.00" fill="#000000">AESDecrypt</text>
</a>
</g>
</g>
<!-- Node321&#45;&gt;Node322 -->
<g id="edge1" class="edge">
<title>Node321&#45;&gt;Node322</title>
<path fill="none" stroke="#191970" d="M82.2828,-86C90.7865,-86 99.5446,-86 107.683,-86"/>
<polygon fill="#191970" stroke="#191970" points="82.095,-82.5001 72.095,-86 82.095,-89.5001 82.095,-82.5001"/>
</g>
<!-- Node323 -->
<g id="node3" class="node">
<title>Node323</title>
<g id="a_node3"><a xlink:href="aes_tester_8c.html#a0ddf1224851353fc92bfbff6f499fa97" target="_top" xlink:title="main">
<polygon fill="#ffffff" stroke="#000000" points="243.5,-152.5 243.5,-171.5 281.5,-171.5 281.5,-152.5 243.5,-152.5"/>
<text text-anchor="middle" x="262.5" y="-159.5" font-family="Helvetica,sans-Serif" font-size="10.00" fill="#000000">main</text>
</a>
</g>
</g>
<!-- Node322&#45;&gt;Node323 -->
<g id="edge2" class="edge">
<title>Node322&#45;&gt;Node323</title>
<path fill="none" stroke="#191970" d="M161.2076,-102.5607C175.0599,-114.8871 195.2262,-131.4998 215,-143 223.9062,-148.1797 234.4939,-152.5664 243.4107,-155.8153"/>
<polygon fill="#191970" stroke="#191970" points="163.2146,-99.6554 153.4585,-95.5237 158.5086,-104.8375 163.2146,-99.6554"/>
</g>
<!-- Node324 -->
<g id="node4" class="node">
<title>Node324</title>
<g id="a_node4"><a xlink:href="cbc_8h.html#a9375da4cc24b1bedceb0364f2865bcc3" target="_top" xlink:title="cbcDecryptFile &#45; Function to decrypt the file with name ">
<polygon fill="#ffffff" stroke="#000000" points="221,-114.5 221,-133.5 304,-133.5 304,-114.5 221,-114.5"/>
<text text-anchor="middle" x="262.5" y="-121.5" font-family="Helvetica,sans-Serif" font-size="10.00" fill="#000000">cbcDecryptFile</text>
</a>
</g>
</g>
<!-- Node322&#45;&gt;Node324 -->
<g id="edge3" class="edge">
<title>Node322&#45;&gt;Node324</title>
<path fill="none" stroke="#191970" d="M183.2098,-98.6804C199.2886,-103.8148 217.5433,-109.6441 232.4809,-114.4141"/>
<polygon fill="#191970" stroke="#191970" points="184.1195,-95.2969 173.5287,-95.589 181.9901,-101.9652 184.1195,-95.2969"/>
</g>
<!-- Node325 -->
<g id="node5" class="node">
<title>Node325</title>
<g id="a_node5"><a xlink:href="cbc_8h.html#a95fbad6d45d4b793610fe663939b5f8c" target="_top" xlink:title="cbcDecrypt &#45; Function to decrypt the user input pointed to by ">
<polygon fill="#ffffff" stroke="#000000" points="229,-76.5 229,-95.5 296,-95.5 296,-76.5 229,-76.5"/>
<text text-anchor="middle" x="262.5" y="-83.5" font-family="Helvetica,sans-Serif" font-size="10.00" fill="#000000">cbcDecrypt</text>
</a>
</g>
</g>
<!-- Node322&#45;&gt;Node325 -->
<g id="edge4" class="edge">
<title>Node322&#45;&gt;Node325</title>
<path fill="none" stroke="#191970" d="M189.4713,-86C202.5866,-86 216.6279,-86 228.8592,-86"/>
<polygon fill="#191970" stroke="#191970" points="189.204,-82.5001 179.2039,-86 189.2039,-89.5001 189.204,-82.5001"/>
</g>
<!-- Node326 -->
<g id="node6" class="node">
<title>Node326</title>
<g id="a_node6"><a xlink:href="ecb_8h.html#a9661ce321dd2649926ebadd2ab9dcd20" target="_top" xlink:title="ecbDecryptHelper &#45; Helper function used to decrypt the ciphertext pointed to by ">
<polygon fill="#ffffff" stroke="#000000" points="215,-38.5 215,-57.5 310,-57.5 310,-38.5 215,-38.5"/>
<text text-anchor="middle" x="262.5" y="-45.5" font-family="Helvetica,sans-Serif" font-size="10.00" fill="#000000">ecbDecryptHelper</text>
</a>
</g>
</g>
<!-- Node322&#45;&gt;Node326 -->
<g id="edge5" class="edge">
<title>Node322&#45;&gt;Node326</title>
<path fill="none" stroke="#191970" d="M183.2098,-73.3196C199.2886,-68.1852 217.5433,-62.3559 232.4809,-57.5859"/>
<polygon fill="#191970" stroke="#191970" points="181.9901,-70.0348 173.5287,-76.411 184.1195,-76.7031 181.9901,-70.0348"/>
</g>
<!-- Node328 -->
<g id="node8" class="node">
<title>Node328</title>
<g id="a_node8"><a xlink:href="ecb_8h.html#ab4c77adefd8655ebd7bc79524f958013" target="_top" xlink:title="ecbDecryptFile &#45; Function to encrypt the file with name ">
<polygon fill="#ffffff" stroke="#000000" points="221,-.5 221,-19.5 304,-19.5 304,-.5 221,-.5"/>
<text text-anchor="middle" x="262.5" y="-7.5" font-family="Helvetica,sans-Serif" font-size="10.00" fill="#000000">ecbDecryptFile</text>
</a>
</g>
</g>
<!-- Node322&#45;&gt;Node328 -->
<g id="edge7" class="edge">
<title>Node322&#45;&gt;Node328</title>
<path fill="none" stroke="#191970" d="M161.2076,-69.4393C175.0599,-57.1129 195.2262,-40.5002 215,-29 221.1422,-25.4278 228.0842,-22.2327 234.7263,-19.528"/>
<polygon fill="#191970" stroke="#191970" points="158.5086,-67.1625 153.4585,-76.4763 163.2146,-72.3446 158.5086,-67.1625"/>
</g>
<!-- Node327 -->
<g id="node7" class="node">
<title>Node327</title>
<g id="a_node7"><a xlink:href="ecb_8h.html#acd982a867b70e4f75f2232c974a1e4ae" target="_top" xlink:title="ecbDecrypt &#45; Function to decrypt the user input pointed to by ">
<polygon fill="#ffffff" stroke="#000000" points="346,-38.5 346,-57.5 413,-57.5 413,-38.5 346,-38.5"/>
<text text-anchor="middle" x="379.5" y="-45.5" font-family="Helvetica,sans-Serif" font-size="10.00" fill="#000000">ecbDecrypt</text>
</a>
</g>
</g>
<!-- Node326&#45;&gt;Node327 -->
<g id="edge6" class="edge">
<title>Node326&#45;&gt;Node327</title>
<path fill="none" stroke="#191970" d="M320.3346,-48C329.1109,-48 337.9073,-48 345.9333,-48"/>
<polygon fill="#191970" stroke="#191970" points="320.0884,-44.5001 310.0884,-48 320.0883,-51.5001 320.0884,-44.5001"/>
</g>
</g>
</svg>
