<?xml version="1.0" encoding="UTF-8" standalone="no"?>
<!DOCTYPE svg PUBLIC "-//W3C//DTD SVG 1.1//EN"
 "http://www.w3.org/Graphics/SVG/1.1/DTD/svg11.dtd">
<!-- Generated by graphviz version 2.40.1 (20161225.0304)
 -->
<!-- Title: mixColumns Pages: 1 -->
<svg width="413pt" height="332pt"
 viewBox="0.00 0.00 413.00 332.00" xmlns="http://www.w3.org/2000/svg" xmlns:xlink="http://www.w3.org/1999/xlink">
<g id="graph0" class="graph" transform="scale(1 1) rotate(0) translate(4 328)">
<title>mixColumns</title>
<polygon fill="#ffffff" stroke="transparent" points="-4,4 -4,-328 409,-328 409,4 -4,4"/>
<!-- Node390 -->
<g id="node1" class="node">
<title>Node390</title>
<polygon fill="#bfbfbf" stroke="#000000" points="0,-218.5 0,-237.5 71,-237.5 71,-218.5 0,-218.5"/>
<text text-anchor="middle" x="35.5" y="-225.5" font-family="Helvetica,sans-Serif" font-size="10.00" fill="#000000">mixColumns</text>
</g>
<!-- Node391 -->
<g id="node2" class="node">
<title>Node391</title>
<g id="a_node2"><a xlink:href="_a_e_s_8h.html#a0ac21e951d3e46598708ab8fd8bc61c5" target="_top" xlink:title="AESEncrypt &#45; Function to encrypt a single block of plaintext passed in as parameter &#160;plainText using ...">
<polygon fill="#ffffff" stroke="#000000" points="107,-171.5 107,-190.5 178,-190.5 178,-171.5 107,-171.5"/>
<text text-anchor="middle" x="142.5" y="-178.5" font-family="Helvetica,sans-Serif" font-size="10.00" fill="#000000">AESEncrypt</text>
</a>
</g>
</g>
<!-- Node390&#45;&gt;Node391 -->
<g id="edge1" class="edge">
<title>Node390&#45;&gt;Node391</title>
<path fill="none" stroke="#191970" d="M66.3189,-214.4627C83.6471,-206.8513 104.8711,-197.5286 120.5119,-190.6583"/>
<polygon fill="#191970" stroke="#191970" points="64.9011,-211.2627 57.153,-218.4888 67.7163,-217.6716 64.9011,-211.2627"/>
</g>
<!-- Node392 -->
<g id="node3" class="node">
<title>Node392</title>
<g id="a_node3"><a xlink:href="aes_tester_8c.html#a0ddf1224851353fc92bfbff6f499fa97" target="_top" xlink:title="main">
<polygon fill="#ffffff" stroke="#000000" points="239.5,-304.5 239.5,-323.5 277.5,-323.5 277.5,-304.5 239.5,-304.5"/>
<text text-anchor="middle" x="258.5" y="-311.5" font-family="Helvetica,sans-Serif" font-size="10.00" fill="#000000">main</text>
</a>
</g>
</g>
<!-- Node390&#45;&gt;Node392 -->
<g id="edge12" class="edge">
<title>Node390&#45;&gt;Node392</title>
<path fill="none" stroke="#191970" d="M69.7832,-241.2213C117.3781,-259.5763 201.8563,-292.1553 239.4932,-306.67"/>
<polygon fill="#191970" stroke="#191970" points="70.8066,-237.8648 60.2169,-237.5321 68.2878,-244.3959 70.8066,-237.8648"/>
</g>
<!-- Node391&#45;&gt;Node392 -->
<g id="edge2" class="edge">
<title>Node391&#45;&gt;Node392</title>
<path fill="none" stroke="#191970" d="M150.1092,-200.0397C160.9185,-224.921 182.9174,-268.4411 214,-295 221.2807,-301.221 230.9015,-305.6692 239.3345,-308.6899"/>
<polygon fill="#191970" stroke="#191970" points="153.2569,-198.495 146.1678,-190.6213 146.7995,-201.1973 153.2569,-198.495"/>
</g>
<!-- Node393 -->
<g id="node4" class="node">
<title>Node393</title>
<g id="a_node4"><a xlink:href="cbc_8h.html#ad055b3ad2664ace8ba1ab68a481dc1b3" target="_top" xlink:title="cbcEncryptFile &#45; Function to encrypt the file with name ">
<polygon fill="#ffffff" stroke="#000000" points="217.5,-266.5 217.5,-285.5 299.5,-285.5 299.5,-266.5 217.5,-266.5"/>
<text text-anchor="middle" x="258.5" y="-273.5" font-family="Helvetica,sans-Serif" font-size="10.00" fill="#000000">cbcEncryptFile</text>
</a>
</g>
</g>
<!-- Node391&#45;&gt;Node393 -->
<g id="edge3" class="edge">
<title>Node391&#45;&gt;Node393</title>
<path fill="none" stroke="#191970" d="M155.4978,-198.5548C168.6911,-215.3769 190.4766,-240.569 214,-257 219.2339,-260.6559 225.2822,-263.8157 231.2,-266.4517"/>
<polygon fill="#191970" stroke="#191970" points="158.2754,-196.4252 149.4181,-190.6116 152.7168,-200.6798 158.2754,-196.4252"/>
</g>
<!-- Node394 -->
<g id="node5" class="node">
<title>Node394</title>
<g id="a_node5"><a xlink:href="cbc_8h.html#a90f1f37609cf336c57cd0300282c1dac" target="_top" xlink:title="cbcEncrypt &#45; Function to encrypt the user input pointed to by ">
<polygon fill="#ffffff" stroke="#000000" points="225.5,-228.5 225.5,-247.5 291.5,-247.5 291.5,-228.5 225.5,-228.5"/>
<text text-anchor="middle" x="258.5" y="-235.5" font-family="Helvetica,sans-Serif" font-size="10.00" fill="#000000">cbcEncrypt</text>
</a>
</g>
</g>
<!-- Node391&#45;&gt;Node394 -->
<g id="edge4" class="edge">
<title>Node391&#45;&gt;Node394</title>
<path fill="none" stroke="#191970" d="M168.7459,-195.6363C182.148,-202.9336 198.7943,-211.7293 214,-219 220.6692,-222.1889 228.0116,-225.4306 234.7764,-228.3119"/>
<polygon fill="#191970" stroke="#191970" points="170.0779,-192.3748 159.6276,-190.6308 166.7094,-198.511 170.0779,-192.3748"/>
</g>
<!-- Node395 -->
<g id="node6" class="node">
<title>Node395</title>
<g id="a_node6"><a xlink:href="cfb_8h.html#a9384de325e389ba7809b7ee98320f485" target="_top" xlink:title="cfbEncryptFile &#45; Function to encrypt the file with name ">
<polygon fill="#ffffff" stroke="#000000" points="218.5,-190.5 218.5,-209.5 298.5,-209.5 298.5,-190.5 218.5,-190.5"/>
<text text-anchor="middle" x="258.5" y="-197.5" font-family="Helvetica,sans-Serif" font-size="10.00" fill="#000000">cfbEncryptFile</text>
</a>
</g>
</g>
<!-- Node391&#45;&gt;Node395 -->
<g id="edge5" class="edge">
<title>Node391&#45;&gt;Node395</title>
<path fill="none" stroke="#191970" d="M188.3137,-188.504C198.191,-190.1218 208.562,-191.8205 218.2099,-193.4008"/>
<polygon fill="#191970" stroke="#191970" points="188.6846,-185.0182 178.2503,-186.8557 187.5531,-191.9261 188.6846,-185.0182"/>
</g>
<!-- Node396 -->
<g id="node7" class="node">
<title>Node396</title>
<g id="a_node7"><a xlink:href="cfb_8h.html#a6dce0b90ab3948c3df032eb61c2a64ea" target="_top" xlink:title="cfbDecryptFile &#45; Function to decrypt the file with name ">
<polygon fill="#ffffff" stroke="#000000" points="218.5,-152.5 218.5,-171.5 298.5,-171.5 298.5,-152.5 218.5,-152.5"/>
<text text-anchor="middle" x="258.5" y="-159.5" font-family="Helvetica,sans-Serif" font-size="10.00" fill="#000000">cfbDecryptFile</text>
</a>
</g>
</g>
<!-- Node391&#45;&gt;Node396 -->
<g id="edge6" class="edge">
<title>Node391&#45;&gt;Node396</title>
<path fill="none" stroke="#191970" d="M188.3137,-173.496C198.191,-171.8782 208.562,-170.1795 218.2099,-168.5992"/>
<polygon fill="#191970" stroke="#191970" points="187.5531,-170.0739 178.2503,-175.1443 188.6846,-176.9818 187.5531,-170.0739"/>
</g>
<!-- Node397 -->
<g id="node8" class="node">
<title>Node397</title>
<g id="a_node8"><a xlink:href="cfb_8h.html#a826aec09cb2af95cb8781d2b4c211182" target="_top" xlink:title="cfbEncrypt &#45; Function to encrypt the user input pointed to by ">
<polygon fill="#ffffff" stroke="#000000" points="226.5,-114.5 226.5,-133.5 290.5,-133.5 290.5,-114.5 226.5,-114.5"/>
<text text-anchor="middle" x="258.5" y="-121.5" font-family="Helvetica,sans-Serif" font-size="10.00" fill="#000000">cfbEncrypt</text>
</a>
</g>
</g>
<!-- Node391&#45;&gt;Node397 -->
<g id="edge7" class="edge">
<title>Node391&#45;&gt;Node397</title>
<path fill="none" stroke="#191970" d="M168.7459,-166.3637C182.148,-159.0664 198.7943,-150.2707 214,-143 220.6692,-139.8111 228.0116,-136.5694 234.7764,-133.6881"/>
<polygon fill="#191970" stroke="#191970" points="166.7094,-163.489 159.6276,-171.3692 170.0779,-169.6252 166.7094,-163.489"/>
</g>
<!-- Node398 -->
<g id="node9" class="node">
<title>Node398</title>
<g id="a_node9"><a xlink:href="cfb_8h.html#ad6a75d43203e367b8a83f6b7c7f506c6" target="_top" xlink:title="cfbDecrypt &#45; Function to decrypt the user input pointed to by ">
<polygon fill="#ffffff" stroke="#000000" points="226,-76.5 226,-95.5 291,-95.5 291,-76.5 226,-76.5"/>
<text text-anchor="middle" x="258.5" y="-83.5" font-family="Helvetica,sans-Serif" font-size="10.00" fill="#000000">cfbDecrypt</text>
</a>
</g>
</g>
<!-- Node391&#45;&gt;Node398 -->
<g id="edge8" class="edge">
<title>Node391&#45;&gt;Node398</title>
<path fill="none" stroke="#191970" d="M155.4978,-163.4452C168.6911,-146.6231 190.4766,-121.431 214,-105 219.2339,-101.3441 225.2822,-98.1843 231.2,-95.5483"/>
<polygon fill="#191970" stroke="#191970" points="152.7168,-161.3202 149.4181,-171.3884 158.2754,-165.5748 152.7168,-161.3202"/>
</g>
<!-- Node399 -->
<g id="node10" class="node">
<title>Node399</title>
<g id="a_node10"><a xlink:href="ecb_8h.html#a50ddfe369298c1293b5c57662f569127" target="_top" xlink:title="ecbEcryptHelper &#45; Helper function used to encrypt the plaintext pointed to by ">
<polygon fill="#ffffff" stroke="#000000" points="214,-38.5 214,-57.5 303,-57.5 303,-38.5 214,-38.5"/>
<text text-anchor="middle" x="258.5" y="-45.5" font-family="Helvetica,sans-Serif" font-size="10.00" fill="#000000">ecbEcryptHelper</text>
</a>
</g>
</g>
<!-- Node391&#45;&gt;Node399 -->
<g id="edge9" class="edge">
<title>Node391&#45;&gt;Node399</title>
<path fill="none" stroke="#191970" d="M150.1092,-161.9603C160.9185,-137.079 182.9174,-93.5589 214,-67 218.3428,-63.2892 223.5183,-60.2092 228.7777,-57.6867"/>
<polygon fill="#191970" stroke="#191970" points="146.7995,-160.8027 146.1678,-171.3787 153.2569,-163.505 146.7995,-160.8027"/>
</g>
<!-- Node401 -->
<g id="node12" class="node">
<title>Node401</title>
<g id="a_node12"><a xlink:href="ecb_8h.html#ab68902caeba7880cf1be8b40e8bb9a50" target="_top" xlink:title="ecbEncryptFile &#45; Function to encrypt the file with name ">
<polygon fill="#ffffff" stroke="#000000" points="217.5,-.5 217.5,-19.5 299.5,-19.5 299.5,-.5 217.5,-.5"/>
<text text-anchor="middle" x="258.5" y="-7.5" font-family="Helvetica,sans-Serif" font-size="10.00" fill="#000000">ecbEncryptFile</text>
</a>
</g>
</g>
<!-- Node391&#45;&gt;Node401 -->
<g id="edge11" class="edge">
<title>Node391&#45;&gt;Node401</title>
<path fill="none" stroke="#191970" d="M146.8488,-161.5992C154.891,-129.8752 174.9447,-66.6684 214,-29 217.9906,-25.1511 222.8814,-22.0239 227.9429,-19.5021"/>
<polygon fill="#191970" stroke="#191970" points="143.4237,-160.8732 144.4936,-171.4139 150.2304,-162.5067 143.4237,-160.8732"/>
</g>
<!-- Node400 -->
<g id="node11" class="node">
<title>Node400</title>
<g id="a_node11"><a xlink:href="ecb_8h.html#aa451eb4920a712afa521f06831277731" target="_top" xlink:title="ecbEncrypt &#45; Function to encrypt the user input pointed to by ">
<polygon fill="#ffffff" stroke="#000000" points="339,-38.5 339,-57.5 405,-57.5 405,-38.5 339,-38.5"/>
<text text-anchor="middle" x="372" y="-45.5" font-family="Helvetica,sans-Serif" font-size="10.00" fill="#000000">ecbEncrypt</text>
</a>
</g>
</g>
<!-- Node399&#45;&gt;Node400 -->
<g id="edge10" class="edge">
<title>Node399&#45;&gt;Node400</title>
<path fill="none" stroke="#191970" d="M313.2228,-48C321.9711,-48 330.7838,-48 338.8278,-48"/>
<polygon fill="#191970" stroke="#191970" points="313.0325,-44.5001 303.0324,-48 313.0324,-51.5001 313.0325,-44.5001"/>
</g>
</g>
</svg>
