<?xml version="1.0" encoding="UTF-8" standalone="no"?>
<!DOCTYPE svg PUBLIC "-//W3C//DTD SVG 1.1//EN"
 "http://www.w3.org/Graphics/SVG/1.1/DTD/svg11.dtd">
<!-- Generated by graphviz version 2.40.1 (20161225.0304)
 -->
<!-- Title: ShiftRows Pages: 1 -->
<svg width="404pt" height="332pt"
 viewBox="0.00 0.00 404.00 332.00" xmlns="http://www.w3.org/2000/svg" xmlns:xlink="http://www.w3.org/1999/xlink">
<g id="graph0" class="graph" transform="scale(1 1) rotate(0) translate(4 328)">
<title>ShiftRows</title>
<polygon fill="#ffffff" stroke="transparent" points="-4,4 -4,-328 400,-328 400,4 -4,4"/>
<!-- Node467 -->
<g id="node1" class="node">
<title>Node467</title>
<polygon fill="#bfbfbf" stroke="#000000" points="0,-218.5 0,-237.5 62,-237.5 62,-218.5 0,-218.5"/>
<text text-anchor="middle" x="31" y="-225.5" font-family="Helvetica,sans-Serif" font-size="10.00" fill="#000000">ShiftRows</text>
</g>
<!-- Node468 -->
<g id="node2" class="node">
<title>Node468</title>
<g id="a_node2"><a xlink:href="_a_e_s_8h.html#a0ac21e951d3e46598708ab8fd8bc61c5" target="_top" xlink:title="AESEncrypt &#45; Function to encrypt a single block of plaintext passed in as parameter &#160;plainText using ...">
<polygon fill="#ffffff" stroke="#000000" points="98,-171.5 98,-190.5 169,-190.5 169,-171.5 98,-171.5"/>
<text text-anchor="middle" x="133.5" y="-178.5" font-family="Helvetica,sans-Serif" font-size="10.00" fill="#000000">AESEncrypt</text>
</a>
</g>
</g>
<!-- Node467&#45;&gt;Node468 -->
<g id="edge1" class="edge">
<title>Node467&#45;&gt;Node468</title>
<path fill="none" stroke="#191970" d="M60.9848,-214.2509C77.4983,-206.6788 97.5924,-197.465 112.4366,-190.6583"/>
<polygon fill="#191970" stroke="#191970" points="59.3735,-211.1392 51.7424,-218.4888 62.2912,-217.5022 59.3735,-211.1392"/>
</g>
<!-- Node469 -->
<g id="node3" class="node">
<title>Node469</title>
<g id="a_node3"><a xlink:href="aes_tester_8c.html#a0ddf1224851353fc92bfbff6f499fa97" target="_top" xlink:title="main">
<polygon fill="#ffffff" stroke="#000000" points="230.5,-304.5 230.5,-323.5 268.5,-323.5 268.5,-304.5 230.5,-304.5"/>
<text text-anchor="middle" x="249.5" y="-311.5" font-family="Helvetica,sans-Serif" font-size="10.00" fill="#000000">main</text>
</a>
</g>
</g>
<!-- Node467&#45;&gt;Node469 -->
<g id="edge12" class="edge">
<title>Node467&#45;&gt;Node469</title>
<path fill="none" stroke="#191970" d="M64.5412,-241.2016C110.9143,-259.4537 193.0914,-291.798 230.2742,-306.4329"/>
<polygon fill="#191970" stroke="#191970" points="65.8052,-237.9378 55.2182,-237.5321 63.2415,-244.4514 65.8052,-237.9378"/>
</g>
<!-- Node468&#45;&gt;Node469 -->
<g id="edge2" class="edge">
<title>Node468&#45;&gt;Node469</title>
<path fill="none" stroke="#191970" d="M141.1092,-200.0397C151.9185,-224.921 173.9174,-268.4411 205,-295 212.2807,-301.221 221.9015,-305.6692 230.3345,-308.6899"/>
<polygon fill="#191970" stroke="#191970" points="144.2569,-198.495 137.1678,-190.6213 137.7995,-201.1973 144.2569,-198.495"/>
</g>
<!-- Node470 -->
<g id="node4" class="node">
<title>Node470</title>
<g id="a_node4"><a xlink:href="cbc_8h.html#ad055b3ad2664ace8ba1ab68a481dc1b3" target="_top" xlink:title="cbcEncryptFile &#45; Function to encrypt the file with name ">
<polygon fill="#ffffff" stroke="#000000" points="208.5,-266.5 208.5,-285.5 290.5,-285.5 290.5,-266.5 208.5,-266.5"/>
<text text-anchor="middle" x="249.5" y="-273.5" font-family="Helvetica,sans-Serif" font-size="10.00" fill="#000000">cbcEncryptFile</text>
</a>
</g>
</g>
<!-- Node468&#45;&gt;Node470 -->
<g id="edge3" class="edge">
<title>Node468&#45;&gt;Node470</title>
<path fill="none" stroke="#191970" d="M146.4978,-198.5548C159.6911,-215.3769 181.4766,-240.569 205,-257 210.2339,-260.6559 216.2822,-263.8157 222.2,-266.4517"/>
<polygon fill="#191970" stroke="#191970" points="149.2754,-196.4252 140.4181,-190.6116 143.7168,-200.6798 149.2754,-196.4252"/>
</g>
<!-- Node471 -->
<g id="node5" class="node">
<title>Node471</title>
<g id="a_node5"><a xlink:href="cbc_8h.html#a90f1f37609cf336c57cd0300282c1dac" target="_top" xlink:title="cbcEncrypt &#45; Function to encrypt the user input pointed to by ">
<polygon fill="#ffffff" stroke="#000000" points="216.5,-228.5 216.5,-247.5 282.5,-247.5 282.5,-228.5 216.5,-228.5"/>
<text text-anchor="middle" x="249.5" y="-235.5" font-family="Helvetica,sans-Serif" font-size="10.00" fill="#000000">cbcEncrypt</text>
</a>
</g>
</g>
<!-- Node468&#45;&gt;Node471 -->
<g id="edge4" class="edge">
<title>Node468&#45;&gt;Node471</title>
<path fill="none" stroke="#191970" d="M159.7459,-195.6363C173.148,-202.9336 189.7943,-211.7293 205,-219 211.6692,-222.1889 219.0116,-225.4306 225.7764,-228.3119"/>
<polygon fill="#191970" stroke="#191970" points="161.0779,-192.3748 150.6276,-190.6308 157.7094,-198.511 161.0779,-192.3748"/>
</g>
<!-- Node472 -->
<g id="node6" class="node">
<title>Node472</title>
<g id="a_node6"><a xlink:href="cfb_8h.html#a9384de325e389ba7809b7ee98320f485" target="_top" xlink:title="cfbEncryptFile &#45; Function to encrypt the file with name ">
<polygon fill="#ffffff" stroke="#000000" points="209.5,-190.5 209.5,-209.5 289.5,-209.5 289.5,-190.5 209.5,-190.5"/>
<text text-anchor="middle" x="249.5" y="-197.5" font-family="Helvetica,sans-Serif" font-size="10.00" fill="#000000">cfbEncryptFile</text>
</a>
</g>
</g>
<!-- Node468&#45;&gt;Node472 -->
<g id="edge5" class="edge">
<title>Node468&#45;&gt;Node472</title>
<path fill="none" stroke="#191970" d="M179.3137,-188.504C189.191,-190.1218 199.562,-191.8205 209.2099,-193.4008"/>
<polygon fill="#191970" stroke="#191970" points="179.6846,-185.0182 169.2503,-186.8557 178.5531,-191.9261 179.6846,-185.0182"/>
</g>
<!-- Node473 -->
<g id="node7" class="node">
<title>Node473</title>
<g id="a_node7"><a xlink:href="cfb_8h.html#a6dce0b90ab3948c3df032eb61c2a64ea" target="_top" xlink:title="cfbDecryptFile &#45; Function to decrypt the file with name ">
<polygon fill="#ffffff" stroke="#000000" points="209.5,-152.5 209.5,-171.5 289.5,-171.5 289.5,-152.5 209.5,-152.5"/>
<text text-anchor="middle" x="249.5" y="-159.5" font-family="Helvetica,sans-Serif" font-size="10.00" fill="#000000">cfbDecryptFile</text>
</a>
</g>
</g>
<!-- Node468&#45;&gt;Node473 -->
<g id="edge6" class="edge">
<title>Node468&#45;&gt;Node473</title>
<path fill="none" stroke="#191970" d="M179.3137,-173.496C189.191,-171.8782 199.562,-170.1795 209.2099,-168.5992"/>
<polygon fill="#191970" stroke="#191970" points="178.5531,-170.0739 169.2503,-175.1443 179.6846,-176.9818 178.5531,-170.0739"/>
</g>
<!-- Node474 -->
<g id="node8" class="node">
<title>Node474</title>
<g id="a_node8"><a xlink:href="cfb_8h.html#a826aec09cb2af95cb8781d2b4c211182" target="_top" xlink:title="cfbEncrypt &#45; Function to encrypt the user input pointed to by ">
<polygon fill="#ffffff" stroke="#000000" points="217.5,-114.5 217.5,-133.5 281.5,-133.5 281.5,-114.5 217.5,-114.5"/>
<text text-anchor="middle" x="249.5" y="-121.5" font-family="Helvetica,sans-Serif" font-size="10.00" fill="#000000">cfbEncrypt</text>
</a>
</g>
</g>
<!-- Node468&#45;&gt;Node474 -->
<g id="edge7" class="edge">
<title>Node468&#45;&gt;Node474</title>
<path fill="none" stroke="#191970" d="M159.7459,-166.3637C173.148,-159.0664 189.7943,-150.2707 205,-143 211.6692,-139.8111 219.0116,-136.5694 225.7764,-133.6881"/>
<polygon fill="#191970" stroke="#191970" points="157.7094,-163.489 150.6276,-171.3692 161.0779,-169.6252 157.7094,-163.489"/>
</g>
<!-- Node475 -->
<g id="node9" class="node">
<title>Node475</title>
<g id="a_node9"><a xlink:href="cfb_8h.html#ad6a75d43203e367b8a83f6b7c7f506c6" target="_top" xlink:title="cfbDecrypt &#45; Function to decrypt the user input pointed to by ">
<polygon fill="#ffffff" stroke="#000000" points="217,-76.5 217,-95.5 282,-95.5 282,-76.5 217,-76.5"/>
<text text-anchor="middle" x="249.5" y="-83.5" font-family="Helvetica,sans-Serif" font-size="10.00" fill="#000000">cfbDecrypt</text>
</a>
</g>
</g>
<!-- Node468&#45;&gt;Node475 -->
<g id="edge8" class="edge">
<title>Node468&#45;&gt;Node475</title>
<path fill="none" stroke="#191970" d="M146.4978,-163.4452C159.6911,-146.6231 181.4766,-121.431 205,-105 210.2339,-101.3441 216.2822,-98.1843 222.2,-95.5483"/>
<polygon fill="#191970" stroke="#191970" points="143.7168,-161.3202 140.4181,-171.3884 149.2754,-165.5748 143.7168,-161.3202"/>
</g>
<!-- Node476 -->
<g id="node10" class="node">
<title>Node476</title>
<g id="a_node10"><a xlink:href="ecb_8h.html#a50ddfe369298c1293b5c57662f569127" target="_top" xlink:title="ecbEcryptHelper &#45; Helper function used to encrypt the plaintext pointed to by ">
<polygon fill="#ffffff" stroke="#000000" points="205,-38.5 205,-57.5 294,-57.5 294,-38.5 205,-38.5"/>
<text text-anchor="middle" x="249.5" y="-45.5" font-family="Helvetica,sans-Serif" font-size="10.00" fill="#000000">ecbEcryptHelper</text>
</a>
</g>
</g>
<!-- Node468&#45;&gt;Node476 -->
<g id="edge9" class="edge">
<title>Node468&#45;&gt;Node476</title>
<path fill="none" stroke="#191970" d="M141.1092,-161.9603C151.9185,-137.079 173.9174,-93.5589 205,-67 209.3428,-63.2892 214.5183,-60.2092 219.7777,-57.6867"/>
<polygon fill="#191970" stroke="#191970" points="137.7995,-160.8027 137.1678,-171.3787 144.2569,-163.505 137.7995,-160.8027"/>
</g>
<!-- Node478 -->
<g id="node12" class="node">
<title>Node478</title>
<g id="a_node12"><a xlink:href="ecb_8h.html#ab68902caeba7880cf1be8b40e8bb9a50" target="_top" xlink:title="ecbEncryptFile &#45; Function to encrypt the file with name ">
<polygon fill="#ffffff" stroke="#000000" points="208.5,-.5 208.5,-19.5 290.5,-19.5 290.5,-.5 208.5,-.5"/>
<text text-anchor="middle" x="249.5" y="-7.5" font-family="Helvetica,sans-Serif" font-size="10.00" fill="#000000">ecbEncryptFile</text>
</a>
</g>
</g>
<!-- Node468&#45;&gt;Node478 -->
<g id="edge11" class="edge">
<title>Node468&#45;&gt;Node478</title>
<path fill="none" stroke="#191970" d="M137.8488,-161.5992C145.891,-129.8752 165.9447,-66.6684 205,-29 208.9906,-25.1511 213.8814,-22.0239 218.9429,-19.5021"/>
<polygon fill="#191970" stroke="#191970" points="134.4237,-160.8732 135.4936,-171.4139 141.2304,-162.5067 134.4237,-160.8732"/>
</g>
<!-- Node477 -->
<g id="node11" class="node">
<title>Node477</title>
<g id="a_node11"><a xlink:href="ecb_8h.html#aa451eb4920a712afa521f06831277731" target="_top" xlink:title="ecbEncrypt &#45; Function to encrypt the user input pointed to by ">
<polygon fill="#ffffff" stroke="#000000" points="330,-38.5 330,-57.5 396,-57.5 396,-38.5 330,-38.5"/>
<text text-anchor="middle" x="363" y="-45.5" font-family="Helvetica,sans-Serif" font-size="10.00" fill="#000000">ecbEncrypt</text>
</a>
</g>
</g>
<!-- Node476&#45;&gt;Node477 -->
<g id="edge10" class="edge">
<title>Node476&#45;&gt;Node477</title>
<path fill="none" stroke="#191970" d="M304.2228,-48C312.9711,-48 321.7838,-48 329.8278,-48"/>
<polygon fill="#191970" stroke="#191970" points="304.0325,-44.5001 294.0324,-48 304.0324,-51.5001 304.0325,-44.5001"/>
</g>
</g>
</svg>
