<?xml version="1.0" encoding="UTF-8" standalone="no"?>
<!DOCTYPE svg PUBLIC "-//W3C//DTD SVG 1.1//EN"
 "http://www.w3.org/Graphics/SVG/1.1/DTD/svg11.dtd">
<!-- Generated by graphviz version 2.40.1 (20161225.0304)
 -->
<!-- Title: AddRoundKey Pages: 1 -->
<svg width="429pt" height="484pt"
 viewBox="0.00 0.00 429.00 484.00" xmlns="http://www.w3.org/2000/svg" xmlns:xlink="http://www.w3.org/1999/xlink">
<g id="graph0" class="graph" transform="scale(1 1) rotate(0) translate(4 480)">
<title>AddRoundKey</title>
<polygon fill="#ffffff" stroke="transparent" points="-4,4 -4,-480 425,-480 425,4 -4,4"/>
<!-- Node1 -->
<g id="node1" class="node">
<title>Node1</title>
<polygon fill="#bfbfbf" stroke="#000000" points="0,-152.5 0,-171.5 80,-171.5 80,-152.5 0,-152.5"/>
<text text-anchor="middle" x="40" y="-159.5" font-family="Helvetica,sans-Serif" font-size="10.00" fill="#000000">AddRoundKey</text>
</g>
<!-- Node2 -->
<g id="node2" class="node">
<title>Node2</title>
<g id="a_node2"><a xlink:href="_a_e_s_8h.html#a0ac21e951d3e46598708ab8fd8bc61c5" target="_top" xlink:title="AESEncrypt &#45; Function to encrypt a single block of plaintext passed in as parameter &#160;plainText using ...">
<polygon fill="#ffffff" stroke="#000000" points="116,-285.5 116,-304.5 187,-304.5 187,-285.5 116,-285.5"/>
<text text-anchor="middle" x="151.5" y="-292.5" font-family="Helvetica,sans-Serif" font-size="10.00" fill="#000000">AESEncrypt</text>
</a>
</g>
</g>
<!-- Node1&#45;&gt;Node2 -->
<g id="edge1" class="edge">
<title>Node1&#45;&gt;Node2</title>
<path fill="none" stroke="#191970" d="M54.6068,-179.4233C78.3315,-207.7228 124.4758,-262.7648 143.253,-285.1628"/>
<polygon fill="#191970" stroke="#191970" points="57.1255,-176.9798 48.0188,-171.565 51.7612,-181.4769 57.1255,-176.9798"/>
</g>
<!-- Node3 -->
<g id="node3" class="node">
<title>Node3</title>
<g id="a_node3"><a xlink:href="aes_tester_8c.html#a0ddf1224851353fc92bfbff6f499fa97" target="_top" xlink:title="main">
<polygon fill="#ffffff" stroke="#000000" points="251.5,-152.5 251.5,-171.5 289.5,-171.5 289.5,-152.5 251.5,-152.5"/>
<text text-anchor="middle" x="270.5" y="-159.5" font-family="Helvetica,sans-Serif" font-size="10.00" fill="#000000">main</text>
</a>
</g>
</g>
<!-- Node1&#45;&gt;Node3 -->
<g id="edge19" class="edge">
<title>Node1&#45;&gt;Node3</title>
<path fill="none" stroke="#191970" d="M90.2226,-162C140.7696,-162 216.123,-162 251.2195,-162"/>
<polygon fill="#191970" stroke="#191970" points="90.1501,-158.5001 80.15,-162 90.15,-165.5001 90.1501,-158.5001"/>
</g>
<!-- Node13 -->
<g id="node13" class="node">
<title>Node13</title>
<g id="a_node13"><a xlink:href="_a_e_s_8h.html#aea7dd7439aa08f23e6fecd32d4055ac3" target="_top" xlink:title="AESDecrypt &#45; Function to decrypt a single block of ciphertext passed in as parameter &#160;cipherText usin...">
<polygon fill="#ffffff" stroke="#000000" points="116,-95.5 116,-114.5 187,-114.5 187,-95.5 116,-95.5"/>
<text text-anchor="middle" x="151.5" y="-102.5" font-family="Helvetica,sans-Serif" font-size="10.00" fill="#000000">AESDecrypt</text>
</a>
</g>
</g>
<!-- Node1&#45;&gt;Node13 -->
<g id="edge12" class="edge">
<title>Node1&#45;&gt;Node13</title>
<path fill="none" stroke="#191970" d="M67.7337,-147.8223C88.0176,-137.4529 114.9873,-123.6657 132.7765,-114.5716"/>
<polygon fill="#191970" stroke="#191970" points="65.9734,-144.7912 58.6626,-152.4595 69.1597,-151.024 65.9734,-144.7912"/>
</g>
<!-- Node2&#45;&gt;Node3 -->
<g id="edge2" class="edge">
<title>Node2&#45;&gt;Node3</title>
<path fill="none" stroke="#191970" d="M159.018,-275.8522C169.7263,-250.8515 191.6136,-207.1992 223,-181 231.1822,-174.1701 242.1306,-169.5684 251.454,-166.6067"/>
<polygon fill="#191970" stroke="#191970" points="155.6907,-274.7403 155.118,-285.3197 162.1631,-277.4066 155.6907,-274.7403"/>
</g>
<!-- Node4 -->
<g id="node4" class="node">
<title>Node4</title>
<g id="a_node4"><a xlink:href="cbc_8h.html#ad055b3ad2664ace8ba1ab68a481dc1b3" target="_top" xlink:title="cbcEncryptFile &#45; Function to encrypt the file with name ">
<polygon fill="#ffffff" stroke="#000000" points="229.5,-304.5 229.5,-323.5 311.5,-323.5 311.5,-304.5 229.5,-304.5"/>
<text text-anchor="middle" x="270.5" y="-311.5" font-family="Helvetica,sans-Serif" font-size="10.00" fill="#000000">cbcEncryptFile</text>
</a>
</g>
</g>
<!-- Node2&#45;&gt;Node4 -->
<g id="edge3" class="edge">
<title>Node2&#45;&gt;Node4</title>
<path fill="none" stroke="#191970" d="M197.1395,-302.287C207.7511,-303.9813 218.9854,-305.775 229.3881,-307.4359"/>
<polygon fill="#191970" stroke="#191970" points="197.6307,-298.8212 187.2039,-300.7006 196.527,-305.7336 197.6307,-298.8212"/>
</g>
<!-- Node5 -->
<g id="node5" class="node">
<title>Node5</title>
<g id="a_node5"><a xlink:href="cbc_8h.html#a90f1f37609cf336c57cd0300282c1dac" target="_top" xlink:title="cbcEncrypt &#45; Function to encrypt the user input pointed to by ">
<polygon fill="#ffffff" stroke="#000000" points="237.5,-266.5 237.5,-285.5 303.5,-285.5 303.5,-266.5 237.5,-266.5"/>
<text text-anchor="middle" x="270.5" y="-273.5" font-family="Helvetica,sans-Serif" font-size="10.00" fill="#000000">cbcEncrypt</text>
</a>
</g>
</g>
<!-- Node2&#45;&gt;Node5 -->
<g id="edge4" class="edge">
<title>Node2&#45;&gt;Node5</title>
<path fill="none" stroke="#191970" d="M197.17,-287.7082C210.5157,-285.5773 224.8441,-283.2896 237.2629,-281.3068"/>
<polygon fill="#191970" stroke="#191970" points="196.527,-284.2664 187.2039,-289.2994 197.6307,-291.1788 196.527,-284.2664"/>
</g>
<!-- Node6 -->
<g id="node6" class="node">
<title>Node6</title>
<g id="a_node6"><a xlink:href="cfb_8h.html#a9384de325e389ba7809b7ee98320f485" target="_top" xlink:title="cfbEncryptFile &#45; Function to encrypt the file with name ">
<polygon fill="#ffffff" stroke="#000000" points="230.5,-228.5 230.5,-247.5 310.5,-247.5 310.5,-228.5 230.5,-228.5"/>
<text text-anchor="middle" x="270.5" y="-235.5" font-family="Helvetica,sans-Serif" font-size="10.00" fill="#000000">cfbEncryptFile</text>
</a>
</g>
</g>
<!-- Node2&#45;&gt;Node6 -->
<g id="edge5" class="edge">
<title>Node2&#45;&gt;Node6</title>
<path fill="none" stroke="#191970" d="M177.4068,-280.3623C190.8364,-272.9977 207.6089,-264.1428 223,-257 230.0897,-253.7098 237.918,-250.4365 245.1394,-247.5572"/>
<polygon fill="#191970" stroke="#191970" points="175.337,-277.5077 168.2862,-285.4157 178.7296,-283.6307 175.337,-277.5077"/>
</g>
<!-- Node7 -->
<g id="node7" class="node">
<title>Node7</title>
<g id="a_node7"><a xlink:href="cfb_8h.html#a6dce0b90ab3948c3df032eb61c2a64ea" target="_top" xlink:title="cfbDecryptFile &#45; Function to decrypt the file with name ">
<polygon fill="#ffffff" stroke="#000000" points="230.5,-190.5 230.5,-209.5 310.5,-209.5 310.5,-190.5 230.5,-190.5"/>
<text text-anchor="middle" x="270.5" y="-197.5" font-family="Helvetica,sans-Serif" font-size="10.00" fill="#000000">cfbDecryptFile</text>
</a>
</g>
</g>
<!-- Node2&#45;&gt;Node7 -->
<g id="edge6" class="edge">
<title>Node2&#45;&gt;Node7</title>
<path fill="none" stroke="#191970" d="M164.416,-277.3266C177.548,-260.4157 199.289,-235.1591 223,-219 228.4312,-215.2986 234.6914,-212.1495 240.8476,-209.5427"/>
<polygon fill="#191970" stroke="#191970" points="161.6127,-275.2308 158.3687,-285.3168 167.1944,-279.4552 161.6127,-275.2308"/>
</g>
<!-- Node8 -->
<g id="node8" class="node">
<title>Node8</title>
<g id="a_node8"><a xlink:href="cfb_8h.html#a826aec09cb2af95cb8781d2b4c211182" target="_top" xlink:title="cfbEncrypt &#45; Function to encrypt the user input pointed to by ">
<polygon fill="#ffffff" stroke="#000000" points="238.5,-456.5 238.5,-475.5 302.5,-475.5 302.5,-456.5 238.5,-456.5"/>
<text text-anchor="middle" x="270.5" y="-463.5" font-family="Helvetica,sans-Serif" font-size="10.00" fill="#000000">cfbEncrypt</text>
</a>
</g>
</g>
<!-- Node2&#45;&gt;Node8 -->
<g id="edge7" class="edge">
<title>Node2&#45;&gt;Node8</title>
<path fill="none" stroke="#191970" d="M155.7522,-314.5021C163.6554,-346.3718 183.5135,-409.7837 223,-447 227.3951,-451.1424 232.8068,-454.4248 238.3848,-457.0117"/>
<polygon fill="#191970" stroke="#191970" points="159.1306,-313.578 153.4428,-304.6394 152.315,-315.174 159.1306,-313.578"/>
</g>
<!-- Node9 -->
<g id="node9" class="node">
<title>Node9</title>
<g id="a_node9"><a xlink:href="cfb_8h.html#ad6a75d43203e367b8a83f6b7c7f506c6" target="_top" xlink:title="cfbDecrypt &#45; Function to decrypt the user input pointed to by ">
<polygon fill="#ffffff" stroke="#000000" points="238,-418.5 238,-437.5 303,-437.5 303,-418.5 238,-418.5"/>
<text text-anchor="middle" x="270.5" y="-425.5" font-family="Helvetica,sans-Serif" font-size="10.00" fill="#000000">cfbDecrypt</text>
</a>
</g>
</g>
<!-- Node2&#45;&gt;Node9 -->
<g id="edge8" class="edge">
<title>Node2&#45;&gt;Node9</title>
<path fill="none" stroke="#191970" d="M159.018,-314.1478C169.7263,-339.1485 191.6136,-382.8008 223,-409 227.5002,-412.7565 232.8372,-415.8389 238.2804,-418.3451"/>
<polygon fill="#191970" stroke="#191970" points="162.1631,-312.5934 155.118,-304.6803 155.6907,-315.2597 162.1631,-312.5934"/>
</g>
<!-- Node10 -->
<g id="node10" class="node">
<title>Node10</title>
<g id="a_node10"><a xlink:href="ecb_8h.html#a50ddfe369298c1293b5c57662f569127" target="_top" xlink:title="ecbEcryptHelper &#45; Helper function used to encrypt the plaintext pointed to by ">
<polygon fill="#ffffff" stroke="#000000" points="226,-380.5 226,-399.5 315,-399.5 315,-380.5 226,-380.5"/>
<text text-anchor="middle" x="270.5" y="-387.5" font-family="Helvetica,sans-Serif" font-size="10.00" fill="#000000">ecbEcryptHelper</text>
</a>
</g>
</g>
<!-- Node2&#45;&gt;Node10 -->
<g id="edge9" class="edge">
<title>Node2&#45;&gt;Node10</title>
<path fill="none" stroke="#191970" d="M164.416,-312.6734C177.548,-329.5843 199.289,-354.8409 223,-371 228.4312,-374.7014 234.6914,-377.8505 240.8476,-380.4573"/>
<polygon fill="#191970" stroke="#191970" points="167.1944,-310.5448 158.3687,-304.6832 161.6127,-314.7692 167.1944,-310.5448"/>
</g>
<!-- Node12 -->
<g id="node12" class="node">
<title>Node12</title>
<g id="a_node12"><a xlink:href="ecb_8h.html#ab68902caeba7880cf1be8b40e8bb9a50" target="_top" xlink:title="ecbEncryptFile &#45; Function to encrypt the file with name ">
<polygon fill="#ffffff" stroke="#000000" points="229.5,-342.5 229.5,-361.5 311.5,-361.5 311.5,-342.5 229.5,-342.5"/>
<text text-anchor="middle" x="270.5" y="-349.5" font-family="Helvetica,sans-Serif" font-size="10.00" fill="#000000">ecbEncryptFile</text>
</a>
</g>
</g>
<!-- Node2&#45;&gt;Node12 -->
<g id="edge11" class="edge">
<title>Node2&#45;&gt;Node12</title>
<path fill="none" stroke="#191970" d="M177.4068,-309.6377C190.8364,-317.0023 207.6089,-325.8572 223,-333 230.0897,-336.2902 237.918,-339.5635 245.1394,-342.4428"/>
<polygon fill="#191970" stroke="#191970" points="178.7296,-306.3693 168.2862,-304.5843 175.337,-312.4923 178.7296,-306.3693"/>
</g>
<!-- Node11 -->
<g id="node11" class="node">
<title>Node11</title>
<g id="a_node11"><a xlink:href="ecb_8h.html#aa451eb4920a712afa521f06831277731" target="_top" xlink:title="ecbEncrypt &#45; Function to encrypt the user input pointed to by ">
<polygon fill="#ffffff" stroke="#000000" points="354.5,-380.5 354.5,-399.5 420.5,-399.5 420.5,-380.5 354.5,-380.5"/>
<text text-anchor="middle" x="387.5" y="-387.5" font-family="Helvetica,sans-Serif" font-size="10.00" fill="#000000">ecbEncrypt</text>
</a>
</g>
</g>
<!-- Node10&#45;&gt;Node11 -->
<g id="edge10" class="edge">
<title>Node10&#45;&gt;Node11</title>
<path fill="none" stroke="#191970" d="M325.3035,-390C335.2224,-390 345.2836,-390 354.3404,-390"/>
<polygon fill="#191970" stroke="#191970" points="325.0665,-386.5001 315.0664,-390 325.0664,-393.5001 325.0665,-386.5001"/>
</g>
<!-- Node13&#45;&gt;Node3 -->
<g id="edge13" class="edge">
<title>Node13&#45;&gt;Node3</title>
<path fill="none" stroke="#191970" d="M177.4068,-119.6377C190.8364,-127.0023 207.6089,-135.8572 223,-143 232.1844,-147.2623 242.6083,-151.4963 251.3466,-154.8819"/>
<polygon fill="#191970" stroke="#191970" points="178.7296,-116.3693 168.2862,-114.5843 175.337,-122.4923 178.7296,-116.3693"/>
</g>
<!-- Node14 -->
<g id="node14" class="node">
<title>Node14</title>
<g id="a_node14"><a xlink:href="cbc_8h.html#a9375da4cc24b1bedceb0364f2865bcc3" target="_top" xlink:title="cbcDecryptFile &#45; Function to decrypt the file with name ">
<polygon fill="#ffffff" stroke="#000000" points="229,-76.5 229,-95.5 312,-95.5 312,-76.5 229,-76.5"/>
<text text-anchor="middle" x="270.5" y="-83.5" font-family="Helvetica,sans-Serif" font-size="10.00" fill="#000000">cbcDecryptFile</text>
</a>
</g>
</g>
<!-- Node13&#45;&gt;Node14 -->
<g id="edge14" class="edge">
<title>Node13&#45;&gt;Node14</title>
<path fill="none" stroke="#191970" d="M197.3596,-97.6779C207.7618,-96.017 218.7519,-94.2623 228.9631,-92.6319"/>
<polygon fill="#191970" stroke="#191970" points="196.527,-94.2664 187.2039,-99.2994 197.6307,-101.1788 196.527,-94.2664"/>
</g>
<!-- Node15 -->
<g id="node15" class="node">
<title>Node15</title>
<g id="a_node15"><a xlink:href="cbc_8h.html#a95fbad6d45d4b793610fe663939b5f8c" target="_top" xlink:title="cbcDecrypt &#45; Function to decrypt the user input pointed to by ">
<polygon fill="#ffffff" stroke="#000000" points="237,-38.5 237,-57.5 304,-57.5 304,-38.5 237,-38.5"/>
<text text-anchor="middle" x="270.5" y="-45.5" font-family="Helvetica,sans-Serif" font-size="10.00" fill="#000000">cbcDecrypt</text>
</a>
</g>
</g>
<!-- Node13&#45;&gt;Node15 -->
<g id="edge15" class="edge">
<title>Node13&#45;&gt;Node15</title>
<path fill="none" stroke="#191970" d="M177.4068,-90.3623C190.8364,-82.9977 207.6089,-74.1428 223,-67 230.0897,-63.7098 237.918,-60.4365 245.1394,-57.5572"/>
<polygon fill="#191970" stroke="#191970" points="175.337,-87.5077 168.2862,-95.4157 178.7296,-93.6307 175.337,-87.5077"/>
</g>
<!-- Node16 -->
<g id="node16" class="node">
<title>Node16</title>
<g id="a_node16"><a xlink:href="ecb_8h.html#a9661ce321dd2649926ebadd2ab9dcd20" target="_top" xlink:title="ecbDecryptHelper &#45; Helper function used to decrypt the ciphertext pointed to by ">
<polygon fill="#ffffff" stroke="#000000" points="223,-.5 223,-19.5 318,-19.5 318,-.5 223,-.5"/>
<text text-anchor="middle" x="270.5" y="-7.5" font-family="Helvetica,sans-Serif" font-size="10.00" fill="#000000">ecbDecryptHelper</text>
</a>
</g>
</g>
<!-- Node13&#45;&gt;Node16 -->
<g id="edge16" class="edge">
<title>Node13&#45;&gt;Node16</title>
<path fill="none" stroke="#191970" d="M164.416,-87.3266C177.548,-70.4157 199.289,-45.1591 223,-29 228.4312,-25.2986 234.6914,-22.1495 240.8476,-19.5427"/>
<polygon fill="#191970" stroke="#191970" points="161.6127,-85.2308 158.3687,-95.3168 167.1944,-89.4552 161.6127,-85.2308"/>
</g>
<!-- Node18 -->
<g id="node18" class="node">
<title>Node18</title>
<g id="a_node18"><a xlink:href="ecb_8h.html#ab4c77adefd8655ebd7bc79524f958013" target="_top" xlink:title="ecbDecryptFile &#45; Function to encrypt the file with name ">
<polygon fill="#ffffff" stroke="#000000" points="229,-114.5 229,-133.5 312,-133.5 312,-114.5 229,-114.5"/>
<text text-anchor="middle" x="270.5" y="-121.5" font-family="Helvetica,sans-Serif" font-size="10.00" fill="#000000">ecbDecryptFile</text>
</a>
</g>
</g>
<!-- Node13&#45;&gt;Node18 -->
<g id="edge18" class="edge">
<title>Node13&#45;&gt;Node18</title>
<path fill="none" stroke="#191970" d="M197.3596,-112.3221C207.7618,-113.983 218.7519,-115.7377 228.9631,-117.3681"/>
<polygon fill="#191970" stroke="#191970" points="197.6307,-108.8212 187.2039,-110.7006 196.527,-115.7336 197.6307,-108.8212"/>
</g>
<!-- Node17 -->
<g id="node17" class="node">
<title>Node17</title>
<g id="a_node17"><a xlink:href="ecb_8h.html#acd982a867b70e4f75f2232c974a1e4ae" target="_top" xlink:title="ecbDecrypt &#45; Function to decrypt the user input pointed to by ">
<polygon fill="#ffffff" stroke="#000000" points="354,-.5 354,-19.5 421,-19.5 421,-.5 354,-.5"/>
<text text-anchor="middle" x="387.5" y="-7.5" font-family="Helvetica,sans-Serif" font-size="10.00" fill="#000000">ecbDecrypt</text>
</a>
</g>
</g>
<!-- Node16&#45;&gt;Node17 -->
<g id="edge17" class="edge">
<title>Node16&#45;&gt;Node17</title>
<path fill="none" stroke="#191970" d="M328.3346,-10C337.1109,-10 345.9073,-10 353.9333,-10"/>
<polygon fill="#191970" stroke="#191970" points="328.0884,-6.5001 318.0884,-10 328.0883,-13.5001 328.0884,-6.5001"/>
</g>
</g>
</svg>
