<?xml version="1.0" encoding="UTF-8" standalone="no"?>
<!DOCTYPE svg PUBLIC "-//W3C//DTD SVG 1.1//EN"
 "http://www.w3.org/Graphics/SVG/1.1/DTD/svg11.dtd">
<!-- Generated by graphviz version 2.40.1 (20161225.0304)
 -->
<!-- Title: SingleRotateLeft Pages: 1 -->
<svg width="715pt" height="484pt"
 viewBox="0.00 0.00 715.00 484.00" xmlns="http://www.w3.org/2000/svg" xmlns:xlink="http://www.w3.org/1999/xlink">
<g id="graph0" class="graph" transform="scale(1 1) rotate(0) translate(4 480)">
<title>SingleRotateLeft</title>
<polygon fill="#ffffff" stroke="transparent" points="-4,4 -4,-480 711,-480 711,4 -4,4"/>
<!-- Node480 -->
<g id="node1" class="node">
<title>Node480</title>
<polygon fill="#bfbfbf" stroke="#000000" points="0,-285.5 0,-304.5 89,-304.5 89,-285.5 0,-285.5"/>
<text text-anchor="middle" x="44.5" y="-292.5" font-family="Helvetica,sans-Serif" font-size="10.00" fill="#000000">SingleRotateLeft</text>
</g>
<!-- Node481 -->
<g id="node2" class="node">
<title>Node481</title>
<g id="a_node2"><a xlink:href="_a_e_s_8h.html#a4d8c6f749326403dce59fae3f81cd120" target="_top" xlink:title="KeyScheduleCore &#45; Function that performs the key schedule core for the Rijndael Key Schedule...">
<polygon fill="#ffffff" stroke="#000000" points="125,-304.5 125,-323.5 220,-323.5 220,-304.5 125,-304.5"/>
<text text-anchor="middle" x="172.5" y="-311.5" font-family="Helvetica,sans-Serif" font-size="10.00" fill="#000000">KeyScheduleCore</text>
</a>
</g>
</g>
<!-- Node480&#45;&gt;Node481 -->
<g id="edge1" class="edge">
<title>Node480&#45;&gt;Node481</title>
<path fill="none" stroke="#191970" d="M99.1809,-303.1167C107.7464,-304.3881 116.5394,-305.6933 124.9285,-306.9386"/>
<polygon fill="#191970" stroke="#191970" points="99.6737,-299.6516 89.2682,-301.6453 98.6459,-306.5757 99.6737,-299.6516"/>
</g>
<!-- Node500 -->
<g id="node21" class="node">
<title>Node500</title>
<g id="a_node21"><a xlink:href="_a_e_s_8h.html#a3171e930e8e63e937e3542740b7c94d6" target="_top" xlink:title="ShiftRows &#45; Function to shift the state array according to the AES encryption standard for 128 &#45; bits...">
<polygon fill="#ffffff" stroke="#000000" points="280,-266.5 280,-285.5 342,-285.5 342,-266.5 280,-266.5"/>
<text text-anchor="middle" x="311" y="-273.5" font-family="Helvetica,sans-Serif" font-size="10.00" fill="#000000">ShiftRows</text>
</a>
</g>
</g>
<!-- Node480&#45;&gt;Node500 -->
<g id="edge22" class="edge">
<title>Node480&#45;&gt;Node500</title>
<path fill="none" stroke="#191970" d="M99.2758,-291.0948C153.7129,-287.2137 235.2966,-281.3972 279.6167,-278.2375"/>
<polygon fill="#191970" stroke="#191970" points="98.8319,-287.6175 89.1061,-291.8198 99.3297,-294.5997 98.8319,-287.6175"/>
</g>
<!-- Node482 -->
<g id="node3" class="node">
<title>Node482</title>
<g id="a_node3"><a xlink:href="_a_e_s_8h.html#a53bffc877a08f01e5fd9cf1e28298aab" target="_top" xlink:title="RijndaelKeySchedule &#45; Function that performs the Rijndael key scheduling for AES encryption. Takes in the original key passed in as parameter. ">
<polygon fill="#ffffff" stroke="#000000" points="256,-304.5 256,-323.5 366,-323.5 366,-304.5 256,-304.5"/>
<text text-anchor="middle" x="311" y="-311.5" font-family="Helvetica,sans-Serif" font-size="10.00" fill="#000000">RijndaelKeySchedule</text>
</a>
</g>
</g>
<!-- Node481&#45;&gt;Node482 -->
<g id="edge2" class="edge">
<title>Node481&#45;&gt;Node482</title>
<path fill="none" stroke="#191970" d="M230.2547,-314C238.6498,-314 247.2769,-314 255.6236,-314"/>
<polygon fill="#191970" stroke="#191970" points="230.1639,-310.5001 220.1638,-314 230.1638,-317.5001 230.1639,-310.5001"/>
</g>
<!-- Node483 -->
<g id="node4" class="node">
<title>Node483</title>
<g id="a_node4"><a xlink:href="_a_e_s_8h.html#a0ac21e951d3e46598708ab8fd8bc61c5" target="_top" xlink:title="AESEncrypt &#45; Function to encrypt a single block of plaintext passed in as parameter &#160;plainText using ...">
<polygon fill="#ffffff" stroke="#000000" points="402,-190.5 402,-209.5 473,-209.5 473,-190.5 402,-190.5"/>
<text text-anchor="middle" x="437.5" y="-197.5" font-family="Helvetica,sans-Serif" font-size="10.00" fill="#000000">AESEncrypt</text>
</a>
</g>
</g>
<!-- Node482&#45;&gt;Node483 -->
<g id="edge3" class="edge">
<title>Node482&#45;&gt;Node483</title>
<path fill="none" stroke="#191970" d="M357.9078,-300.0389C360.7425,-298.5179 363.4679,-296.8428 366,-295 398.5462,-271.3141 422.9957,-228.5917 432.7995,-209.5767"/>
<polygon fill="#191970" stroke="#191970" points="356.1669,-296.9889 348.5846,-304.3888 359.1266,-303.3324 356.1669,-296.9889"/>
</g>
<!-- Node484 -->
<g id="node5" class="node">
<title>Node484</title>
<g id="a_node5"><a xlink:href="aes_tester_8c.html#a0ddf1224851353fc92bfbff6f499fa97" target="_top" xlink:title="main">
<polygon fill="#ffffff" stroke="#000000" points="537.5,-304.5 537.5,-323.5 575.5,-323.5 575.5,-304.5 537.5,-304.5"/>
<text text-anchor="middle" x="556.5" y="-311.5" font-family="Helvetica,sans-Serif" font-size="10.00" fill="#000000">main</text>
</a>
</g>
</g>
<!-- Node482&#45;&gt;Node484 -->
<g id="edge21" class="edge">
<title>Node482&#45;&gt;Node484</title>
<path fill="none" stroke="#191970" d="M376.2767,-314C430.2512,-314 503.3737,-314 537.496,-314"/>
<polygon fill="#191970" stroke="#191970" points="376.095,-310.5001 366.095,-314 376.095,-317.5001 376.095,-310.5001"/>
</g>
<!-- Node494 -->
<g id="node15" class="node">
<title>Node494</title>
<g id="a_node15"><a xlink:href="_a_e_s_8h.html#aea7dd7439aa08f23e6fecd32d4055ac3" target="_top" xlink:title="AESDecrypt &#45; Function to decrypt a single block of ciphertext passed in as parameter &#160;cipherText usin...">
<polygon fill="#ffffff" stroke="#000000" points="402,-361.5 402,-380.5 473,-380.5 473,-361.5 402,-361.5"/>
<text text-anchor="middle" x="437.5" y="-368.5" font-family="Helvetica,sans-Serif" font-size="10.00" fill="#000000">AESDecrypt</text>
</a>
</g>
</g>
<!-- Node482&#45;&gt;Node494 -->
<g id="edge14" class="edge">
<title>Node482&#45;&gt;Node494</title>
<path fill="none" stroke="#191970" d="M341.5317,-327.7574C364.6447,-338.1719 395.8013,-352.2108 416.2577,-361.4284"/>
<polygon fill="#191970" stroke="#191970" points="342.7283,-324.4577 332.1733,-323.5405 339.8526,-330.8397 342.7283,-324.4577"/>
</g>
<!-- Node483&#45;&gt;Node484 -->
<g id="edge4" class="edge">
<title>Node483&#45;&gt;Node484</title>
<path fill="none" stroke="#191970" d="M447.3863,-218.6871C459.4099,-239.8139 481.5426,-273.9939 509,-295 517.3239,-301.3682 528.0662,-305.9025 537.229,-308.9405"/>
<polygon fill="#191970" stroke="#191970" points="450.3453,-216.8047 442.4534,-209.7359 444.2146,-220.1833 450.3453,-216.8047"/>
</g>
<!-- Node485 -->
<g id="node6" class="node">
<title>Node485</title>
<g id="a_node6"><a xlink:href="cbc_8h.html#ad055b3ad2664ace8ba1ab68a481dc1b3" target="_top" xlink:title="cbcEncryptFile &#45; Function to encrypt the file with name ">
<polygon fill="#ffffff" stroke="#000000" points="515.5,-.5 515.5,-19.5 597.5,-19.5 597.5,-.5 515.5,-.5"/>
<text text-anchor="middle" x="556.5" y="-7.5" font-family="Helvetica,sans-Serif" font-size="10.00" fill="#000000">cbcEncryptFile</text>
</a>
</g>
</g>
<!-- Node483&#45;&gt;Node485 -->
<g id="edge5" class="edge">
<title>Node483&#45;&gt;Node485</title>
<path fill="none" stroke="#191970" d="M440.5791,-180.5336C447.0753,-145.6165 465.3437,-71.9836 509,-29 512.9239,-25.1365 517.7333,-22.03 522.7691,-19.5403"/>
<polygon fill="#191970" stroke="#191970" points="437.1245,-179.9714 438.8664,-190.422 444.0218,-181.1661 437.1245,-179.9714"/>
</g>
<!-- Node486 -->
<g id="node7" class="node">
<title>Node486</title>
<g id="a_node7"><a xlink:href="cbc_8h.html#a90f1f37609cf336c57cd0300282c1dac" target="_top" xlink:title="cbcEncrypt &#45; Function to encrypt the user input pointed to by ">
<polygon fill="#ffffff" stroke="#000000" points="523.5,-266.5 523.5,-285.5 589.5,-285.5 589.5,-266.5 523.5,-266.5"/>
<text text-anchor="middle" x="556.5" y="-273.5" font-family="Helvetica,sans-Serif" font-size="10.00" fill="#000000">cbcEncrypt</text>
</a>
</g>
</g>
<!-- Node483&#45;&gt;Node486 -->
<g id="edge6" class="edge">
<title>Node483&#45;&gt;Node486</title>
<path fill="none" stroke="#191970" d="M455.2076,-216.5607C469.0599,-228.8871 489.2262,-245.4998 509,-257 515.1422,-260.5722 522.0842,-263.7673 528.7263,-266.472"/>
<polygon fill="#191970" stroke="#191970" points="457.2146,-213.6554 447.4585,-209.5237 452.5086,-218.8375 457.2146,-213.6554"/>
</g>
<!-- Node487 -->
<g id="node8" class="node">
<title>Node487</title>
<g id="a_node8"><a xlink:href="cfb_8h.html#a9384de325e389ba7809b7ee98320f485" target="_top" xlink:title="cfbEncryptFile &#45; Function to encrypt the file with name ">
<polygon fill="#ffffff" stroke="#000000" points="516.5,-228.5 516.5,-247.5 596.5,-247.5 596.5,-228.5 516.5,-228.5"/>
<text text-anchor="middle" x="556.5" y="-235.5" font-family="Helvetica,sans-Serif" font-size="10.00" fill="#000000">cfbEncryptFile</text>
</a>
</g>
</g>
<!-- Node483&#45;&gt;Node487 -->
<g id="edge7" class="edge">
<title>Node483&#45;&gt;Node487</title>
<path fill="none" stroke="#191970" d="M477.2098,-212.6804C493.2886,-217.8148 511.5433,-223.6441 526.4809,-228.4141"/>
<polygon fill="#191970" stroke="#191970" points="478.1195,-209.2969 467.5287,-209.589 475.9901,-215.9652 478.1195,-209.2969"/>
</g>
<!-- Node488 -->
<g id="node9" class="node">
<title>Node488</title>
<g id="a_node9"><a xlink:href="cfb_8h.html#a6dce0b90ab3948c3df032eb61c2a64ea" target="_top" xlink:title="cfbDecryptFile &#45; Function to decrypt the file with name ">
<polygon fill="#ffffff" stroke="#000000" points="516.5,-190.5 516.5,-209.5 596.5,-209.5 596.5,-190.5 516.5,-190.5"/>
<text text-anchor="middle" x="556.5" y="-197.5" font-family="Helvetica,sans-Serif" font-size="10.00" fill="#000000">cfbDecryptFile</text>
</a>
</g>
</g>
<!-- Node483&#45;&gt;Node488 -->
<g id="edge8" class="edge">
<title>Node483&#45;&gt;Node488</title>
<path fill="none" stroke="#191970" d="M483.3494,-200C494.188,-200 505.6655,-200 516.2354,-200"/>
<polygon fill="#191970" stroke="#191970" points="483.204,-196.5001 473.2039,-200 483.2039,-203.5001 483.204,-196.5001"/>
</g>
<!-- Node489 -->
<g id="node10" class="node">
<title>Node489</title>
<g id="a_node10"><a xlink:href="cfb_8h.html#a826aec09cb2af95cb8781d2b4c211182" target="_top" xlink:title="cfbEncrypt &#45; Function to encrypt the user input pointed to by ">
<polygon fill="#ffffff" stroke="#000000" points="524.5,-152.5 524.5,-171.5 588.5,-171.5 588.5,-152.5 524.5,-152.5"/>
<text text-anchor="middle" x="556.5" y="-159.5" font-family="Helvetica,sans-Serif" font-size="10.00" fill="#000000">cfbEncrypt</text>
</a>
</g>
</g>
<!-- Node483&#45;&gt;Node489 -->
<g id="edge9" class="edge">
<title>Node483&#45;&gt;Node489</title>
<path fill="none" stroke="#191970" d="M477.2098,-187.3196C493.2886,-182.1852 511.5433,-176.3559 526.4809,-171.5859"/>
<polygon fill="#191970" stroke="#191970" points="475.9901,-184.0348 467.5287,-190.411 478.1195,-190.7031 475.9901,-184.0348"/>
</g>
<!-- Node490 -->
<g id="node11" class="node">
<title>Node490</title>
<g id="a_node11"><a xlink:href="cfb_8h.html#ad6a75d43203e367b8a83f6b7c7f506c6" target="_top" xlink:title="cfbDecrypt &#45; Function to decrypt the user input pointed to by ">
<polygon fill="#ffffff" stroke="#000000" points="524,-114.5 524,-133.5 589,-133.5 589,-114.5 524,-114.5"/>
<text text-anchor="middle" x="556.5" y="-121.5" font-family="Helvetica,sans-Serif" font-size="10.00" fill="#000000">cfbDecrypt</text>
</a>
</g>
</g>
<!-- Node483&#45;&gt;Node490 -->
<g id="edge10" class="edge">
<title>Node483&#45;&gt;Node490</title>
<path fill="none" stroke="#191970" d="M455.2076,-183.4393C469.0599,-171.1129 489.2262,-154.5002 509,-143 515.1422,-139.4278 522.0842,-136.2327 528.7263,-133.528"/>
<polygon fill="#191970" stroke="#191970" points="452.5086,-181.1625 447.4585,-190.4763 457.2146,-186.3446 452.5086,-181.1625"/>
</g>
<!-- Node491 -->
<g id="node12" class="node">
<title>Node491</title>
<g id="a_node12"><a xlink:href="ecb_8h.html#a50ddfe369298c1293b5c57662f569127" target="_top" xlink:title="ecbEcryptHelper &#45; Helper function used to encrypt the plaintext pointed to by ">
<polygon fill="#ffffff" stroke="#000000" points="512,-76.5 512,-95.5 601,-95.5 601,-76.5 512,-76.5"/>
<text text-anchor="middle" x="556.5" y="-83.5" font-family="Helvetica,sans-Serif" font-size="10.00" fill="#000000">ecbEcryptHelper</text>
</a>
</g>
</g>
<!-- Node483&#45;&gt;Node491 -->
<g id="edge11" class="edge">
<title>Node483&#45;&gt;Node491</title>
<path fill="none" stroke="#191970" d="M447.3863,-181.3129C459.4099,-160.1861 481.5426,-126.0061 509,-105 513.9379,-101.2223 519.7269,-98.0899 525.5323,-95.5324"/>
<polygon fill="#191970" stroke="#191970" points="444.2146,-179.8167 442.4534,-190.2641 450.3453,-183.1953 444.2146,-179.8167"/>
</g>
<!-- Node493 -->
<g id="node14" class="node">
<title>Node493</title>
<g id="a_node14"><a xlink:href="ecb_8h.html#ab68902caeba7880cf1be8b40e8bb9a50" target="_top" xlink:title="ecbEncryptFile &#45; Function to encrypt the file with name ">
<polygon fill="#ffffff" stroke="#000000" points="515.5,-38.5 515.5,-57.5 597.5,-57.5 597.5,-38.5 515.5,-38.5"/>
<text text-anchor="middle" x="556.5" y="-45.5" font-family="Helvetica,sans-Serif" font-size="10.00" fill="#000000">ecbEncryptFile</text>
</a>
</g>
</g>
<!-- Node483&#45;&gt;Node493 -->
<g id="edge13" class="edge">
<title>Node483&#45;&gt;Node493</title>
<path fill="none" stroke="#191970" d="M443.2192,-180.5293C452.5471,-151.9417 473.6318,-98.589 509,-67 513.2395,-63.2135 518.3281,-60.1327 523.5761,-57.6414"/>
<polygon fill="#191970" stroke="#191970" points="439.8467,-179.5878 440.2146,-190.1763 446.53,-181.6694 439.8467,-179.5878"/>
</g>
<!-- Node492 -->
<g id="node13" class="node">
<title>Node492</title>
<g id="a_node13"><a xlink:href="ecb_8h.html#aa451eb4920a712afa521f06831277731" target="_top" xlink:title="ecbEncrypt &#45; Function to encrypt the user input pointed to by ">
<polygon fill="#ffffff" stroke="#000000" points="640.5,-76.5 640.5,-95.5 706.5,-95.5 706.5,-76.5 640.5,-76.5"/>
<text text-anchor="middle" x="673.5" y="-83.5" font-family="Helvetica,sans-Serif" font-size="10.00" fill="#000000">ecbEncrypt</text>
</a>
</g>
</g>
<!-- Node491&#45;&gt;Node492 -->
<g id="edge12" class="edge">
<title>Node491&#45;&gt;Node492</title>
<path fill="none" stroke="#191970" d="M611.3035,-86C621.2224,-86 631.2836,-86 640.3404,-86"/>
<polygon fill="#191970" stroke="#191970" points="611.0665,-82.5001 601.0664,-86 611.0664,-89.5001 611.0665,-82.5001"/>
</g>
<!-- Node494&#45;&gt;Node484 -->
<g id="edge15" class="edge">
<title>Node494&#45;&gt;Node484</title>
<path fill="none" stroke="#191970" d="M463.4068,-356.3623C476.8364,-348.9977 493.6089,-340.1428 509,-333 518.1844,-328.7377 528.6083,-324.5037 537.3466,-321.1181"/>
<polygon fill="#191970" stroke="#191970" points="461.337,-353.5077 454.2862,-361.4157 464.7296,-359.6307 461.337,-353.5077"/>
</g>
<!-- Node495 -->
<g id="node16" class="node">
<title>Node495</title>
<g id="a_node16"><a xlink:href="cbc_8h.html#a9375da4cc24b1bedceb0364f2865bcc3" target="_top" xlink:title="cbcDecryptFile &#45; Function to decrypt the file with name ">
<polygon fill="#ffffff" stroke="#000000" points="515,-342.5 515,-361.5 598,-361.5 598,-342.5 515,-342.5"/>
<text text-anchor="middle" x="556.5" y="-349.5" font-family="Helvetica,sans-Serif" font-size="10.00" fill="#000000">cbcDecryptFile</text>
</a>
</g>
</g>
<!-- Node494&#45;&gt;Node495 -->
<g id="edge16" class="edge">
<title>Node494&#45;&gt;Node495</title>
<path fill="none" stroke="#191970" d="M483.3596,-363.6779C493.7618,-362.017 504.7519,-360.2623 514.9631,-358.6319"/>
<polygon fill="#191970" stroke="#191970" points="482.527,-360.2664 473.2039,-365.2994 483.6307,-367.1788 482.527,-360.2664"/>
</g>
<!-- Node496 -->
<g id="node17" class="node">
<title>Node496</title>
<g id="a_node17"><a xlink:href="cbc_8h.html#a95fbad6d45d4b793610fe663939b5f8c" target="_top" xlink:title="cbcDecrypt &#45; Function to decrypt the user input pointed to by ">
<polygon fill="#ffffff" stroke="#000000" points="523,-456.5 523,-475.5 590,-475.5 590,-456.5 523,-456.5"/>
<text text-anchor="middle" x="556.5" y="-463.5" font-family="Helvetica,sans-Serif" font-size="10.00" fill="#000000">cbcDecrypt</text>
</a>
</g>
</g>
<!-- Node494&#45;&gt;Node496 -->
<g id="edge17" class="edge">
<title>Node494&#45;&gt;Node496</title>
<path fill="none" stroke="#191970" d="M450.416,-388.6734C463.548,-405.5843 485.289,-430.8409 509,-447 514.4312,-450.7014 520.6914,-453.8505 526.8476,-456.4573"/>
<polygon fill="#191970" stroke="#191970" points="453.1944,-386.5448 444.3687,-380.6832 447.6127,-390.7692 453.1944,-386.5448"/>
</g>
<!-- Node497 -->
<g id="node18" class="node">
<title>Node497</title>
<g id="a_node18"><a xlink:href="ecb_8h.html#a9661ce321dd2649926ebadd2ab9dcd20" target="_top" xlink:title="ecbDecryptHelper &#45; Helper function used to decrypt the ciphertext pointed to by ">
<polygon fill="#ffffff" stroke="#000000" points="509,-418.5 509,-437.5 604,-437.5 604,-418.5 509,-418.5"/>
<text text-anchor="middle" x="556.5" y="-425.5" font-family="Helvetica,sans-Serif" font-size="10.00" fill="#000000">ecbDecryptHelper</text>
</a>
</g>
</g>
<!-- Node494&#45;&gt;Node497 -->
<g id="edge18" class="edge">
<title>Node494&#45;&gt;Node497</title>
<path fill="none" stroke="#191970" d="M463.4068,-385.6377C476.8364,-393.0023 493.6089,-401.8572 509,-409 516.0897,-412.2902 523.918,-415.5635 531.1394,-418.4428"/>
<polygon fill="#191970" stroke="#191970" points="464.7296,-382.3693 454.2862,-380.5843 461.337,-388.4923 464.7296,-382.3693"/>
</g>
<!-- Node499 -->
<g id="node20" class="node">
<title>Node499</title>
<g id="a_node20"><a xlink:href="ecb_8h.html#ab4c77adefd8655ebd7bc79524f958013" target="_top" xlink:title="ecbDecryptFile &#45; Function to encrypt the file with name ">
<polygon fill="#ffffff" stroke="#000000" points="515,-380.5 515,-399.5 598,-399.5 598,-380.5 515,-380.5"/>
<text text-anchor="middle" x="556.5" y="-387.5" font-family="Helvetica,sans-Serif" font-size="10.00" fill="#000000">ecbDecryptFile</text>
</a>
</g>
</g>
<!-- Node494&#45;&gt;Node499 -->
<g id="edge20" class="edge">
<title>Node494&#45;&gt;Node499</title>
<path fill="none" stroke="#191970" d="M483.3596,-378.3221C493.7618,-379.983 504.7519,-381.7377 514.9631,-383.3681"/>
<polygon fill="#191970" stroke="#191970" points="483.6307,-374.8212 473.2039,-376.7006 482.527,-381.7336 483.6307,-374.8212"/>
</g>
<!-- Node498 -->
<g id="node19" class="node">
<title>Node498</title>
<g id="a_node19"><a xlink:href="ecb_8h.html#acd982a867b70e4f75f2232c974a1e4ae" target="_top" xlink:title="ecbDecrypt &#45; Function to decrypt the user input pointed to by ">
<polygon fill="#ffffff" stroke="#000000" points="640,-418.5 640,-437.5 707,-437.5 707,-418.5 640,-418.5"/>
<text text-anchor="middle" x="673.5" y="-425.5" font-family="Helvetica,sans-Serif" font-size="10.00" fill="#000000">ecbDecrypt</text>
</a>
</g>
</g>
<!-- Node497&#45;&gt;Node498 -->
<g id="edge19" class="edge">
<title>Node497&#45;&gt;Node498</title>
<path fill="none" stroke="#191970" d="M614.3346,-428C623.1109,-428 631.9073,-428 639.9333,-428"/>
<polygon fill="#191970" stroke="#191970" points="614.0884,-424.5001 604.0884,-428 614.0883,-431.5001 614.0884,-424.5001"/>
</g>
<!-- Node500&#45;&gt;Node483 -->
<g id="edge23" class="edge">
<title>Node500&#45;&gt;Node483</title>
<path fill="none" stroke="#191970" d="M335.7263,-261.1447C361.1564,-245.8665 400.0063,-222.5258 421.6088,-209.5473"/>
<polygon fill="#191970" stroke="#191970" points="333.7908,-258.2244 327.0213,-266.3745 337.3958,-264.2247 333.7908,-258.2244"/>
</g>
<!-- Node500&#45;&gt;Node484 -->
<g id="edge24" class="edge">
<title>Node500&#45;&gt;Node484</title>
<path fill="none" stroke="#191970" d="M352.3044,-282.3933C406.0241,-290.7084 497.6692,-304.8938 537.3016,-311.0283"/>
<polygon fill="#191970" stroke="#191970" points="352.5105,-278.8836 342.0927,-280.8127 351.4397,-285.8013 352.5105,-278.8836"/>
</g>
</g>
</svg>
