<?xml version="1.0" encoding="UTF-8" standalone="no"?>
<!DOCTYPE svg PUBLIC "-//W3C//DTD SVG 1.1//EN"
 "http://www.w3.org/Graphics/SVG/1.1/DTD/svg11.dtd">
<!-- Generated by graphviz version 2.40.1 (20161225.0304)
 -->
<!-- Title: KeyScheduleCore Pages: 1 -->
<svg width="590pt" height="484pt"
 viewBox="0.00 0.00 590.00 484.00" xmlns="http://www.w3.org/2000/svg" xmlns:xlink="http://www.w3.org/1999/xlink">
<g id="graph0" class="graph" transform="scale(1 1) rotate(0) translate(4 480)">
<title>KeyScheduleCore</title>
<polygon fill="#ffffff" stroke="transparent" points="-4,4 -4,-480 586,-480 586,4 -4,4"/>
<!-- Node370 -->
<g id="node1" class="node">
<title>Node370</title>
<polygon fill="#bfbfbf" stroke="#000000" points="0,-152.5 0,-171.5 95,-171.5 95,-152.5 0,-152.5"/>
<text text-anchor="middle" x="47.5" y="-159.5" font-family="Helvetica,sans-Serif" font-size="10.00" fill="#000000">KeyScheduleCore</text>
</g>
<!-- Node371 -->
<g id="node2" class="node">
<title>Node371</title>
<g id="a_node2"><a xlink:href="_a_e_s_8h.html#a53bffc877a08f01e5fd9cf1e28298aab" target="_top" xlink:title="RijndaelKeySchedule &#45; Function that performs the Rijndael key scheduling for AES encryption. Takes in the original key passed in as parameter. ">
<polygon fill="#ffffff" stroke="#000000" points="131,-152.5 131,-171.5 241,-171.5 241,-152.5 131,-152.5"/>
<text text-anchor="middle" x="186" y="-159.5" font-family="Helvetica,sans-Serif" font-size="10.00" fill="#000000">RijndaelKeySchedule</text>
</a>
</g>
</g>
<!-- Node370&#45;&gt;Node371 -->
<g id="edge1" class="edge">
<title>Node370&#45;&gt;Node371</title>
<path fill="none" stroke="#191970" d="M105.2547,-162C113.6498,-162 122.2769,-162 130.6236,-162"/>
<polygon fill="#191970" stroke="#191970" points="105.1639,-158.5001 95.1638,-162 105.1638,-165.5001 105.1639,-158.5001"/>
</g>
<!-- Node372 -->
<g id="node3" class="node">
<title>Node372</title>
<g id="a_node3"><a xlink:href="_a_e_s_8h.html#a0ac21e951d3e46598708ab8fd8bc61c5" target="_top" xlink:title="AESEncrypt &#45; Function to encrypt a single block of plaintext passed in as parameter &#160;plainText using ...">
<polygon fill="#ffffff" stroke="#000000" points="277,-285.5 277,-304.5 348,-304.5 348,-285.5 277,-285.5"/>
<text text-anchor="middle" x="312.5" y="-292.5" font-family="Helvetica,sans-Serif" font-size="10.00" fill="#000000">AESEncrypt</text>
</a>
</g>
</g>
<!-- Node371&#45;&gt;Node372 -->
<g id="edge2" class="edge">
<title>Node371&#45;&gt;Node372</title>
<path fill="none" stroke="#191970" d="M202.2252,-179.0589C229.0363,-207.2477 281.7484,-262.6683 303.1436,-285.1628"/>
<polygon fill="#191970" stroke="#191970" points="204.5255,-176.3988 195.0976,-171.565 199.4533,-181.2231 204.5255,-176.3988"/>
</g>
<!-- Node373 -->
<g id="node4" class="node">
<title>Node373</title>
<g id="a_node4"><a xlink:href="aes_tester_8c.html#a0ddf1224851353fc92bfbff6f499fa97" target="_top" xlink:title="main">
<polygon fill="#ffffff" stroke="#000000" points="412.5,-152.5 412.5,-171.5 450.5,-171.5 450.5,-152.5 412.5,-152.5"/>
<text text-anchor="middle" x="431.5" y="-159.5" font-family="Helvetica,sans-Serif" font-size="10.00" fill="#000000">main</text>
</a>
</g>
</g>
<!-- Node371&#45;&gt;Node373 -->
<g id="edge20" class="edge">
<title>Node371&#45;&gt;Node373</title>
<path fill="none" stroke="#191970" d="M251.2767,-162C305.2512,-162 378.3737,-162 412.496,-162"/>
<polygon fill="#191970" stroke="#191970" points="251.095,-158.5001 241.095,-162 251.095,-165.5001 251.095,-158.5001"/>
</g>
<!-- Node383 -->
<g id="node14" class="node">
<title>Node383</title>
<g id="a_node14"><a xlink:href="_a_e_s_8h.html#aea7dd7439aa08f23e6fecd32d4055ac3" target="_top" xlink:title="AESDecrypt &#45; Function to decrypt a single block of ciphertext passed in as parameter &#160;cipherText usin...">
<polygon fill="#ffffff" stroke="#000000" points="277,-95.5 277,-114.5 348,-114.5 348,-95.5 277,-95.5"/>
<text text-anchor="middle" x="312.5" y="-102.5" font-family="Helvetica,sans-Serif" font-size="10.00" fill="#000000">AESDecrypt</text>
</a>
</g>
</g>
<!-- Node371&#45;&gt;Node383 -->
<g id="edge13" class="edge">
<title>Node371&#45;&gt;Node383</title>
<path fill="none" stroke="#191970" d="M216.5317,-148.2426C239.6447,-137.8281 270.8013,-123.7892 291.2577,-114.5716"/>
<polygon fill="#191970" stroke="#191970" points="214.8526,-145.1603 207.1733,-152.4595 217.7283,-151.5423 214.8526,-145.1603"/>
</g>
<!-- Node372&#45;&gt;Node373 -->
<g id="edge3" class="edge">
<title>Node372&#45;&gt;Node373</title>
<path fill="none" stroke="#191970" d="M320.018,-275.8522C330.7263,-250.8515 352.6136,-207.1992 384,-181 392.1822,-174.1701 403.1306,-169.5684 412.454,-166.6067"/>
<polygon fill="#191970" stroke="#191970" points="316.6907,-274.7403 316.118,-285.3197 323.1631,-277.4066 316.6907,-274.7403"/>
</g>
<!-- Node374 -->
<g id="node5" class="node">
<title>Node374</title>
<g id="a_node5"><a xlink:href="cbc_8h.html#ad055b3ad2664ace8ba1ab68a481dc1b3" target="_top" xlink:title="cbcEncryptFile &#45; Function to encrypt the file with name ">
<polygon fill="#ffffff" stroke="#000000" points="390.5,-304.5 390.5,-323.5 472.5,-323.5 472.5,-304.5 390.5,-304.5"/>
<text text-anchor="middle" x="431.5" y="-311.5" font-family="Helvetica,sans-Serif" font-size="10.00" fill="#000000">cbcEncryptFile</text>
</a>
</g>
</g>
<!-- Node372&#45;&gt;Node374 -->
<g id="edge4" class="edge">
<title>Node372&#45;&gt;Node374</title>
<path fill="none" stroke="#191970" d="M358.1395,-302.287C368.7511,-303.9813 379.9854,-305.775 390.3881,-307.4359"/>
<polygon fill="#191970" stroke="#191970" points="358.6307,-298.8212 348.2039,-300.7006 357.527,-305.7336 358.6307,-298.8212"/>
</g>
<!-- Node375 -->
<g id="node6" class="node">
<title>Node375</title>
<g id="a_node6"><a xlink:href="cbc_8h.html#a90f1f37609cf336c57cd0300282c1dac" target="_top" xlink:title="cbcEncrypt &#45; Function to encrypt the user input pointed to by ">
<polygon fill="#ffffff" stroke="#000000" points="398.5,-266.5 398.5,-285.5 464.5,-285.5 464.5,-266.5 398.5,-266.5"/>
<text text-anchor="middle" x="431.5" y="-273.5" font-family="Helvetica,sans-Serif" font-size="10.00" fill="#000000">cbcEncrypt</text>
</a>
</g>
</g>
<!-- Node372&#45;&gt;Node375 -->
<g id="edge5" class="edge">
<title>Node372&#45;&gt;Node375</title>
<path fill="none" stroke="#191970" d="M358.17,-287.7082C371.5157,-285.5773 385.8441,-283.2896 398.2629,-281.3068"/>
<polygon fill="#191970" stroke="#191970" points="357.527,-284.2664 348.2039,-289.2994 358.6307,-291.1788 357.527,-284.2664"/>
</g>
<!-- Node376 -->
<g id="node7" class="node">
<title>Node376</title>
<g id="a_node7"><a xlink:href="cfb_8h.html#a9384de325e389ba7809b7ee98320f485" target="_top" xlink:title="cfbEncryptFile &#45; Function to encrypt the file with name ">
<polygon fill="#ffffff" stroke="#000000" points="391.5,-228.5 391.5,-247.5 471.5,-247.5 471.5,-228.5 391.5,-228.5"/>
<text text-anchor="middle" x="431.5" y="-235.5" font-family="Helvetica,sans-Serif" font-size="10.00" fill="#000000">cfbEncryptFile</text>
</a>
</g>
</g>
<!-- Node372&#45;&gt;Node376 -->
<g id="edge6" class="edge">
<title>Node372&#45;&gt;Node376</title>
<path fill="none" stroke="#191970" d="M338.4068,-280.3623C351.8364,-272.9977 368.6089,-264.1428 384,-257 391.0897,-253.7098 398.918,-250.4365 406.1394,-247.5572"/>
<polygon fill="#191970" stroke="#191970" points="336.337,-277.5077 329.2862,-285.4157 339.7296,-283.6307 336.337,-277.5077"/>
</g>
<!-- Node377 -->
<g id="node8" class="node">
<title>Node377</title>
<g id="a_node8"><a xlink:href="cfb_8h.html#a6dce0b90ab3948c3df032eb61c2a64ea" target="_top" xlink:title="cfbDecryptFile &#45; Function to decrypt the file with name ">
<polygon fill="#ffffff" stroke="#000000" points="391.5,-190.5 391.5,-209.5 471.5,-209.5 471.5,-190.5 391.5,-190.5"/>
<text text-anchor="middle" x="431.5" y="-197.5" font-family="Helvetica,sans-Serif" font-size="10.00" fill="#000000">cfbDecryptFile</text>
</a>
</g>
</g>
<!-- Node372&#45;&gt;Node377 -->
<g id="edge7" class="edge">
<title>Node372&#45;&gt;Node377</title>
<path fill="none" stroke="#191970" d="M325.416,-277.3266C338.548,-260.4157 360.289,-235.1591 384,-219 389.4312,-215.2986 395.6914,-212.1495 401.8476,-209.5427"/>
<polygon fill="#191970" stroke="#191970" points="322.6127,-275.2308 319.3687,-285.3168 328.1944,-279.4552 322.6127,-275.2308"/>
</g>
<!-- Node378 -->
<g id="node9" class="node">
<title>Node378</title>
<g id="a_node9"><a xlink:href="cfb_8h.html#a826aec09cb2af95cb8781d2b4c211182" target="_top" xlink:title="cfbEncrypt &#45; Function to encrypt the user input pointed to by ">
<polygon fill="#ffffff" stroke="#000000" points="399.5,-456.5 399.5,-475.5 463.5,-475.5 463.5,-456.5 399.5,-456.5"/>
<text text-anchor="middle" x="431.5" y="-463.5" font-family="Helvetica,sans-Serif" font-size="10.00" fill="#000000">cfbEncrypt</text>
</a>
</g>
</g>
<!-- Node372&#45;&gt;Node378 -->
<g id="edge8" class="edge">
<title>Node372&#45;&gt;Node378</title>
<path fill="none" stroke="#191970" d="M316.7522,-314.5021C324.6554,-346.3718 344.5135,-409.7837 384,-447 388.3951,-451.1424 393.8068,-454.4248 399.3848,-457.0117"/>
<polygon fill="#191970" stroke="#191970" points="320.1306,-313.578 314.4428,-304.6394 313.315,-315.174 320.1306,-313.578"/>
</g>
<!-- Node379 -->
<g id="node10" class="node">
<title>Node379</title>
<g id="a_node10"><a xlink:href="cfb_8h.html#ad6a75d43203e367b8a83f6b7c7f506c6" target="_top" xlink:title="cfbDecrypt &#45; Function to decrypt the user input pointed to by ">
<polygon fill="#ffffff" stroke="#000000" points="399,-418.5 399,-437.5 464,-437.5 464,-418.5 399,-418.5"/>
<text text-anchor="middle" x="431.5" y="-425.5" font-family="Helvetica,sans-Serif" font-size="10.00" fill="#000000">cfbDecrypt</text>
</a>
</g>
</g>
<!-- Node372&#45;&gt;Node379 -->
<g id="edge9" class="edge">
<title>Node372&#45;&gt;Node379</title>
<path fill="none" stroke="#191970" d="M320.018,-314.1478C330.7263,-339.1485 352.6136,-382.8008 384,-409 388.5002,-412.7565 393.8372,-415.8389 399.2804,-418.3451"/>
<polygon fill="#191970" stroke="#191970" points="323.1631,-312.5934 316.118,-304.6803 316.6907,-315.2597 323.1631,-312.5934"/>
</g>
<!-- Node380 -->
<g id="node11" class="node">
<title>Node380</title>
<g id="a_node11"><a xlink:href="ecb_8h.html#a50ddfe369298c1293b5c57662f569127" target="_top" xlink:title="ecbEcryptHelper &#45; Helper function used to encrypt the plaintext pointed to by ">
<polygon fill="#ffffff" stroke="#000000" points="387,-380.5 387,-399.5 476,-399.5 476,-380.5 387,-380.5"/>
<text text-anchor="middle" x="431.5" y="-387.5" font-family="Helvetica,sans-Serif" font-size="10.00" fill="#000000">ecbEcryptHelper</text>
</a>
</g>
</g>
<!-- Node372&#45;&gt;Node380 -->
<g id="edge10" class="edge">
<title>Node372&#45;&gt;Node380</title>
<path fill="none" stroke="#191970" d="M325.416,-312.6734C338.548,-329.5843 360.289,-354.8409 384,-371 389.4312,-374.7014 395.6914,-377.8505 401.8476,-380.4573"/>
<polygon fill="#191970" stroke="#191970" points="328.1944,-310.5448 319.3687,-304.6832 322.6127,-314.7692 328.1944,-310.5448"/>
</g>
<!-- Node382 -->
<g id="node13" class="node">
<title>Node382</title>
<g id="a_node13"><a xlink:href="ecb_8h.html#ab68902caeba7880cf1be8b40e8bb9a50" target="_top" xlink:title="ecbEncryptFile &#45; Function to encrypt the file with name ">
<polygon fill="#ffffff" stroke="#000000" points="390.5,-342.5 390.5,-361.5 472.5,-361.5 472.5,-342.5 390.5,-342.5"/>
<text text-anchor="middle" x="431.5" y="-349.5" font-family="Helvetica,sans-Serif" font-size="10.00" fill="#000000">ecbEncryptFile</text>
</a>
</g>
</g>
<!-- Node372&#45;&gt;Node382 -->
<g id="edge12" class="edge">
<title>Node372&#45;&gt;Node382</title>
<path fill="none" stroke="#191970" d="M338.4068,-309.6377C351.8364,-317.0023 368.6089,-325.8572 384,-333 391.0897,-336.2902 398.918,-339.5635 406.1394,-342.4428"/>
<polygon fill="#191970" stroke="#191970" points="339.7296,-306.3693 329.2862,-304.5843 336.337,-312.4923 339.7296,-306.3693"/>
</g>
<!-- Node381 -->
<g id="node12" class="node">
<title>Node381</title>
<g id="a_node12"><a xlink:href="ecb_8h.html#aa451eb4920a712afa521f06831277731" target="_top" xlink:title="ecbEncrypt &#45; Function to encrypt the user input pointed to by ">
<polygon fill="#ffffff" stroke="#000000" points="515.5,-380.5 515.5,-399.5 581.5,-399.5 581.5,-380.5 515.5,-380.5"/>
<text text-anchor="middle" x="548.5" y="-387.5" font-family="Helvetica,sans-Serif" font-size="10.00" fill="#000000">ecbEncrypt</text>
</a>
</g>
</g>
<!-- Node380&#45;&gt;Node381 -->
<g id="edge11" class="edge">
<title>Node380&#45;&gt;Node381</title>
<path fill="none" stroke="#191970" d="M486.3035,-390C496.2224,-390 506.2836,-390 515.3404,-390"/>
<polygon fill="#191970" stroke="#191970" points="486.0665,-386.5001 476.0664,-390 486.0664,-393.5001 486.0665,-386.5001"/>
</g>
<!-- Node383&#45;&gt;Node373 -->
<g id="edge14" class="edge">
<title>Node383&#45;&gt;Node373</title>
<path fill="none" stroke="#191970" d="M338.4068,-119.6377C351.8364,-127.0023 368.6089,-135.8572 384,-143 393.1844,-147.2623 403.6083,-151.4963 412.3466,-154.8819"/>
<polygon fill="#191970" stroke="#191970" points="339.7296,-116.3693 329.2862,-114.5843 336.337,-122.4923 339.7296,-116.3693"/>
</g>
<!-- Node384 -->
<g id="node15" class="node">
<title>Node384</title>
<g id="a_node15"><a xlink:href="cbc_8h.html#a9375da4cc24b1bedceb0364f2865bcc3" target="_top" xlink:title="cbcDecryptFile &#45; Function to decrypt the file with name ">
<polygon fill="#ffffff" stroke="#000000" points="390,-76.5 390,-95.5 473,-95.5 473,-76.5 390,-76.5"/>
<text text-anchor="middle" x="431.5" y="-83.5" font-family="Helvetica,sans-Serif" font-size="10.00" fill="#000000">cbcDecryptFile</text>
</a>
</g>
</g>
<!-- Node383&#45;&gt;Node384 -->
<g id="edge15" class="edge">
<title>Node383&#45;&gt;Node384</title>
<path fill="none" stroke="#191970" d="M358.3596,-97.6779C368.7618,-96.017 379.7519,-94.2623 389.9631,-92.6319"/>
<polygon fill="#191970" stroke="#191970" points="357.527,-94.2664 348.2039,-99.2994 358.6307,-101.1788 357.527,-94.2664"/>
</g>
<!-- Node385 -->
<g id="node16" class="node">
<title>Node385</title>
<g id="a_node16"><a xlink:href="cbc_8h.html#a95fbad6d45d4b793610fe663939b5f8c" target="_top" xlink:title="cbcDecrypt &#45; Function to decrypt the user input pointed to by ">
<polygon fill="#ffffff" stroke="#000000" points="398,-38.5 398,-57.5 465,-57.5 465,-38.5 398,-38.5"/>
<text text-anchor="middle" x="431.5" y="-45.5" font-family="Helvetica,sans-Serif" font-size="10.00" fill="#000000">cbcDecrypt</text>
</a>
</g>
</g>
<!-- Node383&#45;&gt;Node385 -->
<g id="edge16" class="edge">
<title>Node383&#45;&gt;Node385</title>
<path fill="none" stroke="#191970" d="M338.4068,-90.3623C351.8364,-82.9977 368.6089,-74.1428 384,-67 391.0897,-63.7098 398.918,-60.4365 406.1394,-57.5572"/>
<polygon fill="#191970" stroke="#191970" points="336.337,-87.5077 329.2862,-95.4157 339.7296,-93.6307 336.337,-87.5077"/>
</g>
<!-- Node386 -->
<g id="node17" class="node">
<title>Node386</title>
<g id="a_node17"><a xlink:href="ecb_8h.html#a9661ce321dd2649926ebadd2ab9dcd20" target="_top" xlink:title="ecbDecryptHelper &#45; Helper function used to decrypt the ciphertext pointed to by ">
<polygon fill="#ffffff" stroke="#000000" points="384,-.5 384,-19.5 479,-19.5 479,-.5 384,-.5"/>
<text text-anchor="middle" x="431.5" y="-7.5" font-family="Helvetica,sans-Serif" font-size="10.00" fill="#000000">ecbDecryptHelper</text>
</a>
</g>
</g>
<!-- Node383&#45;&gt;Node386 -->
<g id="edge17" class="edge">
<title>Node383&#45;&gt;Node386</title>
<path fill="none" stroke="#191970" d="M325.416,-87.3266C338.548,-70.4157 360.289,-45.1591 384,-29 389.4312,-25.2986 395.6914,-22.1495 401.8476,-19.5427"/>
<polygon fill="#191970" stroke="#191970" points="322.6127,-85.2308 319.3687,-95.3168 328.1944,-89.4552 322.6127,-85.2308"/>
</g>
<!-- Node388 -->
<g id="node19" class="node">
<title>Node388</title>
<g id="a_node19"><a xlink:href="ecb_8h.html#ab4c77adefd8655ebd7bc79524f958013" target="_top" xlink:title="ecbDecryptFile &#45; Function to encrypt the file with name ">
<polygon fill="#ffffff" stroke="#000000" points="390,-114.5 390,-133.5 473,-133.5 473,-114.5 390,-114.5"/>
<text text-anchor="middle" x="431.5" y="-121.5" font-family="Helvetica,sans-Serif" font-size="10.00" fill="#000000">ecbDecryptFile</text>
</a>
</g>
</g>
<!-- Node383&#45;&gt;Node388 -->
<g id="edge19" class="edge">
<title>Node383&#45;&gt;Node388</title>
<path fill="none" stroke="#191970" d="M358.3596,-112.3221C368.7618,-113.983 379.7519,-115.7377 389.9631,-117.3681"/>
<polygon fill="#191970" stroke="#191970" points="358.6307,-108.8212 348.2039,-110.7006 357.527,-115.7336 358.6307,-108.8212"/>
</g>
<!-- Node387 -->
<g id="node18" class="node">
<title>Node387</title>
<g id="a_node18"><a xlink:href="ecb_8h.html#acd982a867b70e4f75f2232c974a1e4ae" target="_top" xlink:title="ecbDecrypt &#45; Function to decrypt the user input pointed to by ">
<polygon fill="#ffffff" stroke="#000000" points="515,-.5 515,-19.5 582,-19.5 582,-.5 515,-.5"/>
<text text-anchor="middle" x="548.5" y="-7.5" font-family="Helvetica,sans-Serif" font-size="10.00" fill="#000000">ecbDecrypt</text>
</a>
</g>
</g>
<!-- Node386&#45;&gt;Node387 -->
<g id="edge18" class="edge">
<title>Node386&#45;&gt;Node387</title>
<path fill="none" stroke="#191970" d="M489.3346,-10C498.1109,-10 506.9073,-10 514.9333,-10"/>
<polygon fill="#191970" stroke="#191970" points="489.0884,-6.5001 479.0884,-10 489.0883,-13.5001 489.0884,-6.5001"/>
</g>
</g>
</svg>
