<?xml version="1.0" encoding="UTF-8" standalone="no"?>
<!DOCTYPE svg PUBLIC "-//W3C//DTD SVG 1.1//EN"
 "http://www.w3.org/Graphics/SVG/1.1/DTD/svg11.dtd">
<!-- Generated by graphviz version 2.40.1 (20161225.0304)
 -->
<!-- Title: AESEncrypt Pages: 1 -->
<svg width="306pt" height="332pt"
 viewBox="0.00 0.00 306.00 332.00" xmlns="http://www.w3.org/2000/svg" xmlns:xlink="http://www.w3.org/1999/xlink">
<g id="graph0" class="graph" transform="scale(1 1) rotate(0) translate(4 328)">
<title>AESEncrypt</title>
<polygon fill="#ffffff" stroke="transparent" points="-4,4 -4,-328 302,-328 302,4 -4,4"/>
<!-- Node65 -->
<g id="node1" class="node">
<title>Node65</title>
<polygon fill="#bfbfbf" stroke="#000000" points="0,-152.5 0,-171.5 71,-171.5 71,-152.5 0,-152.5"/>
<text text-anchor="middle" x="35.5" y="-159.5" font-family="Helvetica,sans-Serif" font-size="10.00" fill="#000000">AESEncrypt</text>
</g>
<!-- Node66 -->
<g id="node2" class="node">
<title>Node66</title>
<g id="a_node2"><a xlink:href="aes_tester_8c.html#a0ddf1224851353fc92bfbff6f499fa97" target="_top" xlink:title="main">
<polygon fill="#ffffff" stroke="#000000" points="132.5,-304.5 132.5,-323.5 170.5,-323.5 170.5,-304.5 132.5,-304.5"/>
<text text-anchor="middle" x="151.5" y="-311.5" font-family="Helvetica,sans-Serif" font-size="10.00" fill="#000000">main</text>
</a>
</g>
</g>
<!-- Node65&#45;&gt;Node66 -->
<g id="edge1" class="edge">
<title>Node65&#45;&gt;Node66</title>
<path fill="none" stroke="#191970" d="M41.3138,-181.366C50.7619,-209.8206 71.9979,-263.0058 107,-295 114.0685,-301.4611 123.6661,-305.9355 132.1386,-308.9114"/>
<polygon fill="#191970" stroke="#191970" points="44.6281,-180.2389 38.2657,-171.7672 37.9564,-182.3575 44.6281,-180.2389"/>
</g>
<!-- Node67 -->
<g id="node3" class="node">
<title>Node67</title>
<g id="a_node3"><a xlink:href="cbc_8h.html#ad055b3ad2664ace8ba1ab68a481dc1b3" target="_top" xlink:title="cbcEncryptFile &#45; Function to encrypt the file with name ">
<polygon fill="#ffffff" stroke="#000000" points="110.5,-266.5 110.5,-285.5 192.5,-285.5 192.5,-266.5 110.5,-266.5"/>
<text text-anchor="middle" x="151.5" y="-273.5" font-family="Helvetica,sans-Serif" font-size="10.00" fill="#000000">cbcEncryptFile</text>
</a>
</g>
</g>
<!-- Node65&#45;&gt;Node67 -->
<g id="edge2" class="edge">
<title>Node65&#45;&gt;Node67</title>
<path fill="none" stroke="#191970" d="M45.4737,-180.5742C57.5784,-201.5962 79.7863,-235.6791 107,-257 111.7611,-260.7301 117.3641,-263.865 122.9588,-266.4444"/>
<polygon fill="#191970" stroke="#191970" points="48.434,-178.6967 40.503,-171.6717 42.3222,-182.1092 48.434,-178.6967"/>
</g>
<!-- Node68 -->
<g id="node4" class="node">
<title>Node68</title>
<g id="a_node4"><a xlink:href="cbc_8h.html#a90f1f37609cf336c57cd0300282c1dac" target="_top" xlink:title="cbcEncrypt &#45; Function to encrypt the user input pointed to by ">
<polygon fill="#ffffff" stroke="#000000" points="118.5,-228.5 118.5,-247.5 184.5,-247.5 184.5,-228.5 118.5,-228.5"/>
<text text-anchor="middle" x="151.5" y="-235.5" font-family="Helvetica,sans-Serif" font-size="10.00" fill="#000000">cbcEncrypt</text>
</a>
</g>
</g>
<!-- Node65&#45;&gt;Node68 -->
<g id="edge3" class="edge">
<title>Node65&#45;&gt;Node68</title>
<path fill="none" stroke="#191970" d="M53.7658,-178.855C67.6407,-191.0693 87.5856,-207.4077 107,-219 112.9143,-222.5314 119.6054,-225.7499 125.9689,-228.4936"/>
<polygon fill="#191970" stroke="#191970" points="55.7512,-175.9342 45.9702,-171.8621 51.077,-181.1449 55.7512,-175.9342"/>
</g>
<!-- Node69 -->
<g id="node5" class="node">
<title>Node69</title>
<g id="a_node5"><a xlink:href="cfb_8h.html#a9384de325e389ba7809b7ee98320f485" target="_top" xlink:title="cfbEncryptFile &#45; Function to encrypt the file with name ">
<polygon fill="#ffffff" stroke="#000000" points="111.5,-190.5 111.5,-209.5 191.5,-209.5 191.5,-190.5 111.5,-190.5"/>
<text text-anchor="middle" x="151.5" y="-197.5" font-family="Helvetica,sans-Serif" font-size="10.00" fill="#000000">cfbEncryptFile</text>
</a>
</g>
</g>
<!-- Node65&#45;&gt;Node69 -->
<g id="edge4" class="edge">
<title>Node65&#45;&gt;Node69</title>
<path fill="none" stroke="#191970" d="M74.6528,-174.8259C90.2176,-179.9247 107.8141,-185.6891 122.2377,-190.4141"/>
<polygon fill="#191970" stroke="#191970" points="75.3644,-171.3761 64.7717,-171.589 73.1852,-178.0282 75.3644,-171.3761"/>
</g>
<!-- Node70 -->
<g id="node6" class="node">
<title>Node70</title>
<g id="a_node6"><a xlink:href="cfb_8h.html#a6dce0b90ab3948c3df032eb61c2a64ea" target="_top" xlink:title="cfbDecryptFile &#45; Function to decrypt the file with name ">
<polygon fill="#ffffff" stroke="#000000" points="111.5,-152.5 111.5,-171.5 191.5,-171.5 191.5,-152.5 111.5,-152.5"/>
<text text-anchor="middle" x="151.5" y="-159.5" font-family="Helvetica,sans-Serif" font-size="10.00" fill="#000000">cfbDecryptFile</text>
</a>
</g>
</g>
<!-- Node65&#45;&gt;Node70 -->
<g id="edge5" class="edge">
<title>Node65&#45;&gt;Node70</title>
<path fill="none" stroke="#191970" d="M81.3137,-162C91.191,-162 101.562,-162 111.2099,-162"/>
<polygon fill="#191970" stroke="#191970" points="81.2504,-158.5001 71.2503,-162 81.2503,-165.5001 81.2504,-158.5001"/>
</g>
<!-- Node71 -->
<g id="node7" class="node">
<title>Node71</title>
<g id="a_node7"><a xlink:href="cfb_8h.html#a826aec09cb2af95cb8781d2b4c211182" target="_top" xlink:title="cfbEncrypt &#45; Function to encrypt the user input pointed to by ">
<polygon fill="#ffffff" stroke="#000000" points="119.5,-114.5 119.5,-133.5 183.5,-133.5 183.5,-114.5 119.5,-114.5"/>
<text text-anchor="middle" x="151.5" y="-121.5" font-family="Helvetica,sans-Serif" font-size="10.00" fill="#000000">cfbEncrypt</text>
</a>
</g>
</g>
<!-- Node65&#45;&gt;Node71 -->
<g id="edge6" class="edge">
<title>Node65&#45;&gt;Node71</title>
<path fill="none" stroke="#191970" d="M74.6528,-149.1741C90.2176,-144.0753 107.8141,-138.3109 122.2377,-133.5859"/>
<polygon fill="#191970" stroke="#191970" points="73.1852,-145.9718 64.7717,-152.411 75.3644,-152.6239 73.1852,-145.9718"/>
</g>
<!-- Node72 -->
<g id="node8" class="node">
<title>Node72</title>
<g id="a_node8"><a xlink:href="cfb_8h.html#ad6a75d43203e367b8a83f6b7c7f506c6" target="_top" xlink:title="cfbDecrypt &#45; Function to decrypt the user input pointed to by ">
<polygon fill="#ffffff" stroke="#000000" points="119,-76.5 119,-95.5 184,-95.5 184,-76.5 119,-76.5"/>
<text text-anchor="middle" x="151.5" y="-83.5" font-family="Helvetica,sans-Serif" font-size="10.00" fill="#000000">cfbDecrypt</text>
</a>
</g>
</g>
<!-- Node65&#45;&gt;Node72 -->
<g id="edge7" class="edge">
<title>Node65&#45;&gt;Node72</title>
<path fill="none" stroke="#191970" d="M53.7658,-145.145C67.6407,-132.9307 87.5856,-116.5923 107,-105 112.9143,-101.4686 119.6054,-98.2501 125.9689,-95.5064"/>
<polygon fill="#191970" stroke="#191970" points="51.077,-142.8551 45.9702,-152.1379 55.7512,-148.0658 51.077,-142.8551"/>
</g>
<!-- Node73 -->
<g id="node9" class="node">
<title>Node73</title>
<g id="a_node9"><a xlink:href="ecb_8h.html#a50ddfe369298c1293b5c57662f569127" target="_top" xlink:title="ecbEcryptHelper &#45; Helper function used to encrypt the plaintext pointed to by ">
<polygon fill="#ffffff" stroke="#000000" points="107,-38.5 107,-57.5 196,-57.5 196,-38.5 107,-38.5"/>
<text text-anchor="middle" x="151.5" y="-45.5" font-family="Helvetica,sans-Serif" font-size="10.00" fill="#000000">ecbEcryptHelper</text>
</a>
</g>
</g>
<!-- Node65&#45;&gt;Node73 -->
<g id="edge8" class="edge">
<title>Node65&#45;&gt;Node73</title>
<path fill="none" stroke="#191970" d="M45.4737,-143.4258C57.5784,-122.4038 79.7863,-88.3209 107,-67 111.7611,-63.2699 117.3641,-60.135 122.9588,-57.5556"/>
<polygon fill="#191970" stroke="#191970" points="42.3222,-141.8908 40.503,-152.3283 48.434,-145.3033 42.3222,-141.8908"/>
</g>
<!-- Node75 -->
<g id="node11" class="node">
<title>Node75</title>
<g id="a_node11"><a xlink:href="ecb_8h.html#ab68902caeba7880cf1be8b40e8bb9a50" target="_top" xlink:title="ecbEncryptFile &#45; Function to encrypt the file with name ">
<polygon fill="#ffffff" stroke="#000000" points="110.5,-.5 110.5,-19.5 192.5,-19.5 192.5,-.5 110.5,-.5"/>
<text text-anchor="middle" x="151.5" y="-7.5" font-family="Helvetica,sans-Serif" font-size="10.00" fill="#000000">ecbEncryptFile</text>
</a>
</g>
</g>
<!-- Node65&#45;&gt;Node75 -->
<g id="edge10" class="edge">
<title>Node65&#45;&gt;Node75</title>
<path fill="none" stroke="#191970" d="M41.3138,-142.634C50.7619,-114.1794 71.9979,-60.9942 107,-29 111.0923,-25.2594 116.0323,-22.1846 121.1109,-19.6811"/>
<polygon fill="#191970" stroke="#191970" points="37.9564,-141.6425 38.2657,-152.2328 44.6281,-143.7611 37.9564,-141.6425"/>
</g>
<!-- Node74 -->
<g id="node10" class="node">
<title>Node74</title>
<g id="a_node10"><a xlink:href="ecb_8h.html#aa451eb4920a712afa521f06831277731" target="_top" xlink:title="ecbEncrypt &#45; Function to encrypt the user input pointed to by ">
<polygon fill="#ffffff" stroke="#000000" points="232,-38.5 232,-57.5 298,-57.5 298,-38.5 232,-38.5"/>
<text text-anchor="middle" x="265" y="-45.5" font-family="Helvetica,sans-Serif" font-size="10.00" fill="#000000">ecbEncrypt</text>
</a>
</g>
</g>
<!-- Node73&#45;&gt;Node74 -->
<g id="edge9" class="edge">
<title>Node73&#45;&gt;Node74</title>
<path fill="none" stroke="#191970" d="M206.2228,-48C214.9711,-48 223.7838,-48 231.8278,-48"/>
<polygon fill="#191970" stroke="#191970" points="206.0325,-44.5001 196.0324,-48 206.0324,-51.5001 206.0325,-44.5001"/>
</g>
</g>
</svg>
