<?xml version="1.0" encoding="UTF-8" standalone="no"?>
<!DOCTYPE svg PUBLIC "-//W3C//DTD SVG 1.1//EN"
 "http://www.w3.org/Graphics/SVG/1.1/DTD/svg11.dtd">
<!-- Generated by graphviz version 2.40.1 (20161225.0304)
 -->
<!-- Title: getOutputFileName Pages: 1 -->
<svg width="228pt" height="218pt"
 viewBox="0.00 0.00 228.00 218.00" xmlns="http://www.w3.org/2000/svg" xmlns:xlink="http://www.w3.org/1999/xlink">
<g id="graph0" class="graph" transform="scale(1 1) rotate(0) translate(4 214)">
<title>getOutputFileName</title>
<polygon fill="#ffffff" stroke="transparent" points="-4,4 -4,-214 224,-214 224,4 -4,4"/>
<!-- Node153 -->
<g id="node1" class="node">
<title>Node153</title>
<polygon fill="#bfbfbf" stroke="#000000" points="0,-95.5 0,-114.5 101,-114.5 101,-95.5 0,-95.5"/>
<text text-anchor="middle" x="50.5" y="-102.5" font-family="Helvetica,sans-Serif" font-size="10.00" fill="#000000">getOutputFileName</text>
</g>
<!-- Node154 -->
<g id="node2" class="node">
<title>Node154</title>
<g id="a_node2"><a xlink:href="cbc_8h.html#ad055b3ad2664ace8ba1ab68a481dc1b3" target="_top" xlink:title="cbcEncryptFile &#45; Function to encrypt the file with name ">
<polygon fill="#ffffff" stroke="#000000" points="137.5,-190.5 137.5,-209.5 219.5,-209.5 219.5,-190.5 137.5,-190.5"/>
<text text-anchor="middle" x="178.5" y="-197.5" font-family="Helvetica,sans-Serif" font-size="10.00" fill="#000000">cbcEncryptFile</text>
</a>
</g>
</g>
<!-- Node153&#45;&gt;Node154 -->
<g id="edge1" class="edge">
<title>Node153&#45;&gt;Node154</title>
<path fill="none" stroke="#191970" d="M67.132,-122.2931C83.7161,-138.8573 110.4752,-163.8066 137,-181 142.4525,-184.5343 148.6698,-187.7538 154.6027,-190.4976"/>
<polygon fill="#191970" stroke="#191970" points="69.3652,-119.5728 59.8536,-114.9058 64.3788,-124.4857 69.3652,-119.5728"/>
</g>
<!-- Node155 -->
<g id="node3" class="node">
<title>Node155</title>
<g id="a_node3"><a xlink:href="cbc_8h.html#a9375da4cc24b1bedceb0364f2865bcc3" target="_top" xlink:title="cbcDecryptFile &#45; Function to decrypt the file with name ">
<polygon fill="#ffffff" stroke="#000000" points="137,-152.5 137,-171.5 220,-171.5 220,-152.5 137,-152.5"/>
<text text-anchor="middle" x="178.5" y="-159.5" font-family="Helvetica,sans-Serif" font-size="10.00" fill="#000000">cbcDecryptFile</text>
</a>
</g>
</g>
<!-- Node153&#45;&gt;Node155 -->
<g id="edge2" class="edge">
<title>Node153&#45;&gt;Node155</title>
<path fill="none" stroke="#191970" d="M81.081,-118.6181C104.4991,-129.0465 136.2144,-143.1697 157.0058,-152.4284"/>
<polygon fill="#191970" stroke="#191970" points="82.4833,-115.4113 71.9243,-114.5405 79.6357,-121.8059 82.4833,-115.4113"/>
</g>
<!-- Node156 -->
<g id="node4" class="node">
<title>Node156</title>
<g id="a_node4"><a xlink:href="cfb_8h.html#a9384de325e389ba7809b7ee98320f485" target="_top" xlink:title="cfbEncryptFile &#45; Function to encrypt the file with name ">
<polygon fill="#ffffff" stroke="#000000" points="138.5,-114.5 138.5,-133.5 218.5,-133.5 218.5,-114.5 138.5,-114.5"/>
<text text-anchor="middle" x="178.5" y="-121.5" font-family="Helvetica,sans-Serif" font-size="10.00" fill="#000000">cfbEncryptFile</text>
</a>
</g>
</g>
<!-- Node153&#45;&gt;Node156 -->
<g id="edge3" class="edge">
<title>Node153&#45;&gt;Node156</title>
<path fill="none" stroke="#191970" d="M110.9998,-113.9804C120.2017,-115.3463 129.5003,-116.7266 138.1318,-118.0078"/>
<polygon fill="#191970" stroke="#191970" points="111.4945,-110.5156 101.089,-112.5093 110.4667,-117.4397 111.4945,-110.5156"/>
</g>
<!-- Node157 -->
<g id="node5" class="node">
<title>Node157</title>
<g id="a_node5"><a xlink:href="cfb_8h.html#a6dce0b90ab3948c3df032eb61c2a64ea" target="_top" xlink:title="cfbDecryptFile &#45; Function to decrypt the file with name ">
<polygon fill="#ffffff" stroke="#000000" points="138.5,-76.5 138.5,-95.5 218.5,-95.5 218.5,-76.5 138.5,-76.5"/>
<text text-anchor="middle" x="178.5" y="-83.5" font-family="Helvetica,sans-Serif" font-size="10.00" fill="#000000">cfbDecryptFile</text>
</a>
</g>
</g>
<!-- Node153&#45;&gt;Node157 -->
<g id="edge4" class="edge">
<title>Node153&#45;&gt;Node157</title>
<path fill="none" stroke="#191970" d="M110.9998,-96.0196C120.2017,-94.6537 129.5003,-93.2734 138.1318,-91.9922"/>
<polygon fill="#191970" stroke="#191970" points="110.4667,-92.5603 101.089,-97.4907 111.4945,-99.4844 110.4667,-92.5603"/>
</g>
<!-- Node158 -->
<g id="node6" class="node">
<title>Node158</title>
<g id="a_node6"><a xlink:href="ecb_8h.html#ab68902caeba7880cf1be8b40e8bb9a50" target="_top" xlink:title="ecbEncryptFile &#45; Function to encrypt the file with name ">
<polygon fill="#ffffff" stroke="#000000" points="137.5,-38.5 137.5,-57.5 219.5,-57.5 219.5,-38.5 137.5,-38.5"/>
<text text-anchor="middle" x="178.5" y="-45.5" font-family="Helvetica,sans-Serif" font-size="10.00" fill="#000000">ecbEncryptFile</text>
</a>
</g>
</g>
<!-- Node153&#45;&gt;Node158 -->
<g id="edge5" class="edge">
<title>Node153&#45;&gt;Node158</title>
<path fill="none" stroke="#191970" d="M81.081,-91.3819C104.4991,-80.9535 136.2144,-66.8303 157.0058,-57.5716"/>
<polygon fill="#191970" stroke="#191970" points="79.6357,-88.1941 71.9243,-95.4595 82.4833,-94.5887 79.6357,-88.1941"/>
</g>
<!-- Node159 -->
<g id="node7" class="node">
<title>Node159</title>
<g id="a_node7"><a xlink:href="ecb_8h.html#ab4c77adefd8655ebd7bc79524f958013" target="_top" xlink:title="ecbDecryptFile &#45; Function to encrypt the file with name ">
<polygon fill="#ffffff" stroke="#000000" points="137,-.5 137,-19.5 220,-19.5 220,-.5 137,-.5"/>
<text text-anchor="middle" x="178.5" y="-7.5" font-family="Helvetica,sans-Serif" font-size="10.00" fill="#000000">ecbDecryptFile</text>
</a>
</g>
</g>
<!-- Node153&#45;&gt;Node159 -->
<g id="edge6" class="edge">
<title>Node153&#45;&gt;Node159</title>
<path fill="none" stroke="#191970" d="M67.132,-87.7069C83.7161,-71.1427 110.4752,-46.1934 137,-29 142.4525,-25.4657 148.6698,-22.2462 154.6027,-19.5024"/>
<polygon fill="#191970" stroke="#191970" points="64.3788,-85.5143 59.8536,-95.0942 69.3652,-90.4272 64.3788,-85.5143"/>
</g>
</g>
</svg>
