<?xml version="1.0" encoding="UTF-8" standalone="no"?>
<!DOCTYPE svg PUBLIC "-//W3C//DTD SVG 1.1//EN"
 "http://www.w3.org/Graphics/SVG/1.1/DTD/svg11.dtd">
<!-- Generated by graphviz version 2.40.1 (20161225.0304)
 -->
<!-- Title: IVHexToAscii Pages: 1 -->
<svg width="204pt" height="294pt"
 viewBox="0.00 0.00 204.00 294.00" xmlns="http://www.w3.org/2000/svg" xmlns:xlink="http://www.w3.org/1999/xlink">
<g id="graph0" class="graph" transform="scale(1 1) rotate(0) translate(4 290)">
<title>IVHexToAscii</title>
<polygon fill="#ffffff" stroke="transparent" points="-4,4 -4,-290 200,-290 200,4 -4,4"/>
<!-- Node338 -->
<g id="node1" class="node">
<title>Node338</title>
<polygon fill="#bfbfbf" stroke="#000000" points="0,-133.5 0,-152.5 77,-152.5 77,-133.5 0,-133.5"/>
<text text-anchor="middle" x="38.5" y="-140.5" font-family="Helvetica,sans-Serif" font-size="10.00" fill="#000000">IVHexToAscii</text>
</g>
<!-- Node339 -->
<g id="node2" class="node">
<title>Node339</title>
<g id="a_node2"><a xlink:href="cbc_8h.html#ad055b3ad2664ace8ba1ab68a481dc1b3" target="_top" xlink:title="cbcEncryptFile &#45; Function to encrypt the file with name ">
<polygon fill="#ffffff" stroke="#000000" points="113.5,-266.5 113.5,-285.5 195.5,-285.5 195.5,-266.5 113.5,-266.5"/>
<text text-anchor="middle" x="154.5" y="-273.5" font-family="Helvetica,sans-Serif" font-size="10.00" fill="#000000">cbcEncryptFile</text>
</a>
</g>
</g>
<!-- Node338&#45;&gt;Node339 -->
<g id="edge1" class="edge">
<title>Node338&#45;&gt;Node339</title>
<path fill="none" stroke="#191970" d="M46.7368,-161.9101C58.3411,-186.6479 81.64,-230.0095 113,-257 117.3243,-260.7218 122.4989,-263.8529 127.7034,-266.4314"/>
<polygon fill="#191970" stroke="#191970" points="49.8093,-160.2109 42.4902,-152.5505 43.4348,-163.1032 49.8093,-160.2109"/>
</g>
<!-- Node340 -->
<g id="node3" class="node">
<title>Node340</title>
<g id="a_node3"><a xlink:href="cbc_8h.html#a9375da4cc24b1bedceb0364f2865bcc3" target="_top" xlink:title="cbcDecryptFile &#45; Function to decrypt the file with name ">
<polygon fill="#ffffff" stroke="#000000" points="113,-228.5 113,-247.5 196,-247.5 196,-228.5 113,-228.5"/>
<text text-anchor="middle" x="154.5" y="-235.5" font-family="Helvetica,sans-Serif" font-size="10.00" fill="#000000">cbcDecryptFile</text>
</a>
</g>
</g>
<!-- Node338&#45;&gt;Node340 -->
<g id="edge2" class="edge">
<title>Node338&#45;&gt;Node340</title>
<path fill="none" stroke="#191970" d="M52.2886,-160.3845C66.2192,-177.0791 89.0525,-202.1785 113,-219 118.0577,-222.5527 123.886,-225.7043 129.5458,-228.3695"/>
<polygon fill="#191970" stroke="#191970" points="54.8929,-158.0401 45.8566,-152.5087 49.4712,-162.4679 54.8929,-158.0401"/>
</g>
<!-- Node341 -->
<g id="node4" class="node">
<title>Node341</title>
<g id="a_node4"><a xlink:href="cbc_8h.html#a90f1f37609cf336c57cd0300282c1dac" target="_top" xlink:title="cbcEncrypt &#45; Function to encrypt the user input pointed to by ">
<polygon fill="#ffffff" stroke="#000000" points="121.5,-190.5 121.5,-209.5 187.5,-209.5 187.5,-190.5 121.5,-190.5"/>
<text text-anchor="middle" x="154.5" y="-197.5" font-family="Helvetica,sans-Serif" font-size="10.00" fill="#000000">cbcEncrypt</text>
</a>
</g>
</g>
<!-- Node338&#45;&gt;Node341 -->
<g id="edge3" class="edge">
<title>Node338&#45;&gt;Node341</title>
<path fill="none" stroke="#191970" d="M65.8701,-157.3104C79.8929,-164.553 97.2825,-173.3977 113,-181 119.4201,-184.1053 126.4553,-187.3755 132.8796,-190.3109"/>
<polygon fill="#191970" stroke="#191970" points="67.2504,-154.0836 56.7618,-152.5873 64.028,-160.2978 67.2504,-154.0836"/>
</g>
<!-- Node342 -->
<g id="node5" class="node">
<title>Node342</title>
<g id="a_node5"><a xlink:href="cbc_8h.html#a95fbad6d45d4b793610fe663939b5f8c" target="_top" xlink:title="cbcDecrypt &#45; Function to decrypt the user input pointed to by ">
<polygon fill="#ffffff" stroke="#000000" points="121,-152.5 121,-171.5 188,-171.5 188,-152.5 121,-152.5"/>
<text text-anchor="middle" x="154.5" y="-159.5" font-family="Helvetica,sans-Serif" font-size="10.00" fill="#000000">cbcDecrypt</text>
</a>
</g>
</g>
<!-- Node338&#45;&gt;Node342 -->
<g id="edge4" class="edge">
<title>Node338&#45;&gt;Node342</title>
<path fill="none" stroke="#191970" d="M87.2776,-150.9894C98.5314,-152.8327 110.2607,-154.7539 120.7118,-156.4657"/>
<polygon fill="#191970" stroke="#191970" points="87.5606,-147.4892 77.1263,-149.3267 86.4291,-154.3972 87.5606,-147.4892"/>
</g>
<!-- Node343 -->
<g id="node6" class="node">
<title>Node343</title>
<g id="a_node6"><a xlink:href="cfb_8h.html#a9384de325e389ba7809b7ee98320f485" target="_top" xlink:title="cfbEncryptFile &#45; Function to encrypt the file with name ">
<polygon fill="#ffffff" stroke="#000000" points="114.5,-114.5 114.5,-133.5 194.5,-133.5 194.5,-114.5 114.5,-114.5"/>
<text text-anchor="middle" x="154.5" y="-121.5" font-family="Helvetica,sans-Serif" font-size="10.00" fill="#000000">cfbEncryptFile</text>
</a>
</g>
</g>
<!-- Node338&#45;&gt;Node343 -->
<g id="edge5" class="edge">
<title>Node338&#45;&gt;Node343</title>
<path fill="none" stroke="#191970" d="M87.1971,-135.0238C96.278,-133.5364 105.6713,-131.9978 114.455,-130.5591"/>
<polygon fill="#191970" stroke="#191970" points="86.4291,-131.6028 77.1263,-136.6733 87.5606,-138.5108 86.4291,-131.6028"/>
</g>
<!-- Node344 -->
<g id="node7" class="node">
<title>Node344</title>
<g id="a_node7"><a xlink:href="cfb_8h.html#a6dce0b90ab3948c3df032eb61c2a64ea" target="_top" xlink:title="cfbDecryptFile &#45; Function to decrypt the file with name ">
<polygon fill="#ffffff" stroke="#000000" points="114.5,-76.5 114.5,-95.5 194.5,-95.5 194.5,-76.5 114.5,-76.5"/>
<text text-anchor="middle" x="154.5" y="-83.5" font-family="Helvetica,sans-Serif" font-size="10.00" fill="#000000">cfbDecryptFile</text>
</a>
</g>
</g>
<!-- Node338&#45;&gt;Node344 -->
<g id="edge6" class="edge">
<title>Node338&#45;&gt;Node344</title>
<path fill="none" stroke="#191970" d="M65.8701,-128.6896C79.8929,-121.447 97.2825,-112.6023 113,-105 119.4201,-101.8947 126.4553,-98.6245 132.8796,-95.6891"/>
<polygon fill="#191970" stroke="#191970" points="64.028,-125.7022 56.7618,-133.4127 67.2504,-131.9164 64.028,-125.7022"/>
</g>
<!-- Node345 -->
<g id="node8" class="node">
<title>Node345</title>
<g id="a_node8"><a xlink:href="cfb_8h.html#a826aec09cb2af95cb8781d2b4c211182" target="_top" xlink:title="cfbEncrypt &#45; Function to encrypt the user input pointed to by ">
<polygon fill="#ffffff" stroke="#000000" points="122.5,-38.5 122.5,-57.5 186.5,-57.5 186.5,-38.5 122.5,-38.5"/>
<text text-anchor="middle" x="154.5" y="-45.5" font-family="Helvetica,sans-Serif" font-size="10.00" fill="#000000">cfbEncrypt</text>
</a>
</g>
</g>
<!-- Node338&#45;&gt;Node345 -->
<g id="edge7" class="edge">
<title>Node338&#45;&gt;Node345</title>
<path fill="none" stroke="#191970" d="M52.2886,-125.6155C66.2192,-108.9209 89.0525,-83.8215 113,-67 118.0577,-63.4473 123.886,-60.2957 129.5458,-57.6305"/>
<polygon fill="#191970" stroke="#191970" points="49.4712,-123.5321 45.8566,-133.4913 54.8929,-127.9599 49.4712,-123.5321"/>
</g>
<!-- Node346 -->
<g id="node9" class="node">
<title>Node346</title>
<g id="a_node9"><a xlink:href="cfb_8h.html#ad6a75d43203e367b8a83f6b7c7f506c6" target="_top" xlink:title="cfbDecrypt &#45; Function to decrypt the user input pointed to by ">
<polygon fill="#ffffff" stroke="#000000" points="122,-.5 122,-19.5 187,-19.5 187,-.5 122,-.5"/>
<text text-anchor="middle" x="154.5" y="-7.5" font-family="Helvetica,sans-Serif" font-size="10.00" fill="#000000">cfbDecrypt</text>
</a>
</g>
</g>
<!-- Node338&#45;&gt;Node346 -->
<g id="edge8" class="edge">
<title>Node338&#45;&gt;Node346</title>
<path fill="none" stroke="#191970" d="M46.7368,-124.0899C58.3411,-99.3521 81.64,-55.9905 113,-29 117.3243,-25.2782 122.4989,-22.1471 127.7034,-19.5686"/>
<polygon fill="#191970" stroke="#191970" points="43.4348,-122.8968 42.4902,-133.4495 49.8093,-125.7891 43.4348,-122.8968"/>
</g>
</g>
</svg>
