<?xml version="1.0" encoding="UTF-8" standalone="no"?>
<!DOCTYPE svg PUBLIC "-//W3C//DTD SVG 1.1//EN"
 "http://www.w3.org/Graphics/SVG/1.1/DTD/svg11.dtd">
<!-- Generated by graphviz version 2.40.1 (20161225.0304)
 -->
<!-- Title: keyHexToAscii Pages: 1 -->
<svg width="429pt" height="104pt"
 viewBox="0.00 0.00 429.00 104.00" xmlns="http://www.w3.org/2000/svg" xmlns:xlink="http://www.w3.org/1999/xlink">
<g id="graph0" class="graph" transform="scale(1 1) rotate(0) translate(4 100)">
<title>keyHexToAscii</title>
<polygon fill="#ffffff" stroke="transparent" points="-4,4 -4,-100 425,-100 425,4 -4,4"/>
<!-- Node347 -->
<g id="node1" class="node">
<title>Node347</title>
<polygon fill="#bfbfbf" stroke="#000000" points="0,-38.5 0,-57.5 83,-57.5 83,-38.5 0,-38.5"/>
<text text-anchor="middle" x="41.5" y="-45.5" font-family="Helvetica,sans-Serif" font-size="10.00" fill="#000000">keyHexToAscii</text>
</g>
<!-- Node348 -->
<g id="node2" class="node">
<title>Node348</title>
<g id="a_node2"><a xlink:href="_a_e_s_8c.html#a1c2a403d95a85400bbae142d48cb8c9d" target="_top" xlink:title="getNumRounds &#45; Function to return the number of rounds of AES encryption and decryption based off of ...">
<polygon fill="#ffffff" stroke="#000000" points="131.5,-76.5 131.5,-95.5 216.5,-95.5 216.5,-76.5 131.5,-76.5"/>
<text text-anchor="middle" x="174" y="-83.5" font-family="Helvetica,sans-Serif" font-size="10.00" fill="#000000">getNumRounds</text>
</a>
</g>
</g>
<!-- Node347&#45;&gt;Node348 -->
<g id="edge1" class="edge">
<title>Node347&#45;&gt;Node348</title>
<path fill="none" stroke="#191970" d="M74.9353,-57.589C91.8829,-62.4494 112.6634,-68.4091 130.8075,-73.6127"/>
<polygon fill="#191970" stroke="#191970" points="129.9979,-77.0216 140.5754,-76.4141 131.9278,-70.2928 129.9979,-77.0216"/>
</g>
<!-- Node349 -->
<g id="node3" class="node">
<title>Node349</title>
<g id="a_node3"><a xlink:href="_a_e_s_8c.html#a5d65eac115e562c64b00a43e72ee6aca" target="_top" xlink:title="getPaddedKeyLength &#45; Function to return a valid key length (in bytes) based off of the current key le...">
<polygon fill="#ffffff" stroke="#000000" points="119,-38.5 119,-57.5 229,-57.5 229,-38.5 119,-38.5"/>
<text text-anchor="middle" x="174" y="-45.5" font-family="Helvetica,sans-Serif" font-size="10.00" fill="#000000">getPaddedKeyLength</text>
</a>
</g>
</g>
<!-- Node347&#45;&gt;Node349 -->
<g id="edge2" class="edge">
<title>Node347&#45;&gt;Node349</title>
<path fill="none" stroke="#191970" d="M83.0603,-48C91.2426,-48 100.0114,-48 108.7567,-48"/>
<polygon fill="#191970" stroke="#191970" points="108.9757,-51.5001 118.9756,-48 108.9756,-44.5001 108.9757,-51.5001"/>
</g>
<!-- Node350 -->
<g id="node4" class="node">
<title>Node350</title>
<g id="a_node4"><a xlink:href="_a_e_s_8c.html#ad697cbb5d9e462b3017df1f1d939ee96" target="_top" xlink:title="hexToAsciiString &#45; Function that converts a given string of hex values into its ASCII equivalent...">
<polygon fill="#ffffff" stroke="#000000" points="128.5,-.5 128.5,-19.5 219.5,-19.5 219.5,-.5 128.5,-.5"/>
<text text-anchor="middle" x="174" y="-7.5" font-family="Helvetica,sans-Serif" font-size="10.00" fill="#000000">hexToAsciiString</text>
</a>
</g>
</g>
<!-- Node347&#45;&gt;Node350 -->
<g id="edge3" class="edge">
<title>Node347&#45;&gt;Node350</title>
<path fill="none" stroke="#191970" d="M74.9353,-38.411C91.8829,-33.5506 112.6634,-27.5909 130.8075,-22.3873"/>
<polygon fill="#191970" stroke="#191970" points="131.9278,-25.7072 140.5754,-19.5859 129.9979,-18.9784 131.9278,-25.7072"/>
</g>
<!-- Node351 -->
<g id="node5" class="node">
<title>Node351</title>
<g id="a_node5"><a xlink:href="_a_e_s_8c.html#aa177516503b10de65b504a3714073ad7" target="_top" xlink:title="hexToAscii &#45; Function that converts a given hex value to its ASCII equivalent. ">
<polygon fill="#ffffff" stroke="#000000" points="265,-.5 265,-19.5 330,-19.5 330,-.5 265,-.5"/>
<text text-anchor="middle" x="297.5" y="-7.5" font-family="Helvetica,sans-Serif" font-size="10.00" fill="#000000">hexToAscii</text>
</a>
</g>
</g>
<!-- Node350&#45;&gt;Node351 -->
<g id="edge4" class="edge">
<title>Node350&#45;&gt;Node351</title>
<path fill="none" stroke="#191970" d="M219.636,-10C231.1044,-10 243.3702,-10 254.6948,-10"/>
<polygon fill="#191970" stroke="#191970" points="254.7804,-13.5001 264.7803,-10 254.7803,-6.5001 254.7804,-13.5001"/>
</g>
<!-- Node352 -->
<g id="node6" class="node">
<title>Node352</title>
<g id="a_node6"><a xlink:href="_a_e_s_8c.html#a7e5ab2188af44718071074f450963568" target="_top" xlink:title="hexToInt &#45; Function that converts a given hex value into an integer. ">
<polygon fill="#ffffff" stroke="#000000" points="366,-.5 366,-19.5 421,-19.5 421,-.5 366,-.5"/>
<text text-anchor="middle" x="393.5" y="-7.5" font-family="Helvetica,sans-Serif" font-size="10.00" fill="#000000">hexToInt</text>
</a>
</g>
</g>
<!-- Node351&#45;&gt;Node352 -->
<g id="edge5" class="edge">
<title>Node351&#45;&gt;Node352</title>
<path fill="none" stroke="#191970" d="M330.0012,-10C338.2769,-10 347.2412,-10 355.7541,-10"/>
<polygon fill="#191970" stroke="#191970" points="355.8375,-13.5001 365.8375,-10 355.8374,-6.5001 355.8375,-13.5001"/>
</g>
</g>
</svg>
