<?xml version="1.0" encoding="UTF-8" standalone="no"?>
<!DOCTYPE svg PUBLIC "-//W3C//DTD SVG 1.1//EN"
 "http://www.w3.org/Graphics/SVG/1.1/DTD/svg11.dtd">
<!-- Generated by graphviz version 2.40.1 (20161225.0304)
 -->
<!-- Title: AESDecrypt Pages: 1 -->
<svg width="313pt" height="180pt"
 viewBox="0.00 0.00 313.00 180.00" xmlns="http://www.w3.org/2000/svg" xmlns:xlink="http://www.w3.org/1999/xlink">
<g id="graph0" class="graph" transform="scale(1 1) rotate(0) translate(4 176)">
<title>AESDecrypt</title>
<polygon fill="#ffffff" stroke="transparent" points="-4,4 -4,-176 309,-176 309,4 -4,4"/>
<!-- Node40 -->
<g id="node1" class="node">
<title>Node40</title>
<polygon fill="#bfbfbf" stroke="#000000" points="0,-76.5 0,-95.5 71,-95.5 71,-76.5 0,-76.5"/>
<text text-anchor="middle" x="35.5" y="-83.5" font-family="Helvetica,sans-Serif" font-size="10.00" fill="#000000">AESDecrypt</text>
</g>
<!-- Node41 -->
<g id="node2" class="node">
<title>Node41</title>
<g id="a_node2"><a xlink:href="aes_tester_8c.html#a0ddf1224851353fc92bfbff6f499fa97" target="_top" xlink:title="main">
<polygon fill="#ffffff" stroke="#000000" points="135.5,-152.5 135.5,-171.5 173.5,-171.5 173.5,-152.5 135.5,-152.5"/>
<text text-anchor="middle" x="154.5" y="-159.5" font-family="Helvetica,sans-Serif" font-size="10.00" fill="#000000">main</text>
</a>
</g>
</g>
<!-- Node40&#45;&gt;Node41 -->
<g id="edge1" class="edge">
<title>Node40&#45;&gt;Node41</title>
<path fill="none" stroke="#191970" d="M53.2076,-102.5607C67.0599,-114.8871 87.2262,-131.4998 107,-143 115.9062,-148.1797 126.4939,-152.5664 135.4107,-155.8153"/>
<polygon fill="#191970" stroke="#191970" points="55.2146,-99.6554 45.4585,-95.5237 50.5086,-104.8375 55.2146,-99.6554"/>
</g>
<!-- Node42 -->
<g id="node3" class="node">
<title>Node42</title>
<g id="a_node3"><a xlink:href="cbc_8h.html#a9375da4cc24b1bedceb0364f2865bcc3" target="_top" xlink:title="cbcDecryptFile &#45; Function to decrypt the file with name ">
<polygon fill="#ffffff" stroke="#000000" points="113,-114.5 113,-133.5 196,-133.5 196,-114.5 113,-114.5"/>
<text text-anchor="middle" x="154.5" y="-121.5" font-family="Helvetica,sans-Serif" font-size="10.00" fill="#000000">cbcDecryptFile</text>
</a>
</g>
</g>
<!-- Node40&#45;&gt;Node42 -->
<g id="edge2" class="edge">
<title>Node40&#45;&gt;Node42</title>
<path fill="none" stroke="#191970" d="M75.2098,-98.6804C91.2886,-103.8148 109.5433,-109.6441 124.4809,-114.4141"/>
<polygon fill="#191970" stroke="#191970" points="76.1195,-95.2969 65.5287,-95.589 73.9901,-101.9652 76.1195,-95.2969"/>
</g>
<!-- Node43 -->
<g id="node4" class="node">
<title>Node43</title>
<g id="a_node4"><a xlink:href="cbc_8h.html#a95fbad6d45d4b793610fe663939b5f8c" target="_top" xlink:title="cbcDecrypt &#45; Function to decrypt the user input pointed to by ">
<polygon fill="#ffffff" stroke="#000000" points="121,-76.5 121,-95.5 188,-95.5 188,-76.5 121,-76.5"/>
<text text-anchor="middle" x="154.5" y="-83.5" font-family="Helvetica,sans-Serif" font-size="10.00" fill="#000000">cbcDecrypt</text>
</a>
</g>
</g>
<!-- Node40&#45;&gt;Node43 -->
<g id="edge3" class="edge">
<title>Node40&#45;&gt;Node43</title>
<path fill="none" stroke="#191970" d="M81.4713,-86C94.5866,-86 108.6279,-86 120.8592,-86"/>
<polygon fill="#191970" stroke="#191970" points="81.204,-82.5001 71.2039,-86 81.2039,-89.5001 81.204,-82.5001"/>
</g>
<!-- Node44 -->
<g id="node5" class="node">
<title>Node44</title>
<g id="a_node5"><a xlink:href="ecb_8h.html#a9661ce321dd2649926ebadd2ab9dcd20" target="_top" xlink:title="ecbDecryptHelper &#45; Helper function used to decrypt the ciphertext pointed to by ">
<polygon fill="#ffffff" stroke="#000000" points="107,-38.5 107,-57.5 202,-57.5 202,-38.5 107,-38.5"/>
<text text-anchor="middle" x="154.5" y="-45.5" font-family="Helvetica,sans-Serif" font-size="10.00" fill="#000000">ecbDecryptHelper</text>
</a>
</g>
</g>
<!-- Node40&#45;&gt;Node44 -->
<g id="edge4" class="edge">
<title>Node40&#45;&gt;Node44</title>
<path fill="none" stroke="#191970" d="M75.2098,-73.3196C91.2886,-68.1852 109.5433,-62.3559 124.4809,-57.5859"/>
<polygon fill="#191970" stroke="#191970" points="73.9901,-70.0348 65.5287,-76.411 76.1195,-76.7031 73.9901,-70.0348"/>
</g>
<!-- Node46 -->
<g id="node7" class="node">
<title>Node46</title>
<g id="a_node7"><a xlink:href="ecb_8h.html#ab4c77adefd8655ebd7bc79524f958013" target="_top" xlink:title="ecbDecryptFile &#45; Function to encrypt the file with name ">
<polygon fill="#ffffff" stroke="#000000" points="113,-.5 113,-19.5 196,-19.5 196,-.5 113,-.5"/>
<text text-anchor="middle" x="154.5" y="-7.5" font-family="Helvetica,sans-Serif" font-size="10.00" fill="#000000">ecbDecryptFile</text>
</a>
</g>
</g>
<!-- Node40&#45;&gt;Node46 -->
<g id="edge6" class="edge">
<title>Node40&#45;&gt;Node46</title>
<path fill="none" stroke="#191970" d="M53.2076,-69.4393C67.0599,-57.1129 87.2262,-40.5002 107,-29 113.1422,-25.4278 120.0842,-22.2327 126.7263,-19.528"/>
<polygon fill="#191970" stroke="#191970" points="50.5086,-67.1625 45.4585,-76.4763 55.2146,-72.3446 50.5086,-67.1625"/>
</g>
<!-- Node45 -->
<g id="node6" class="node">
<title>Node45</title>
<g id="a_node6"><a xlink:href="ecb_8h.html#acd982a867b70e4f75f2232c974a1e4ae" target="_top" xlink:title="ecbDecrypt &#45; Function to decrypt the user input pointed to by ">
<polygon fill="#ffffff" stroke="#000000" points="238,-38.5 238,-57.5 305,-57.5 305,-38.5 238,-38.5"/>
<text text-anchor="middle" x="271.5" y="-45.5" font-family="Helvetica,sans-Serif" font-size="10.00" fill="#000000">ecbDecrypt</text>
</a>
</g>
</g>
<!-- Node44&#45;&gt;Node45 -->
<g id="edge5" class="edge">
<title>Node44&#45;&gt;Node45</title>
<path fill="none" stroke="#191970" d="M212.3346,-48C221.1109,-48 229.9073,-48 237.9333,-48"/>
<polygon fill="#191970" stroke="#191970" points="212.0884,-44.5001 202.0884,-48 212.0883,-51.5001 212.0884,-44.5001"/>
</g>
</g>
</svg>
