<?xml version="1.0" encoding="UTF-8" standalone="no"?>
<!DOCTYPE svg PUBLIC "-//W3C//DTD SVG 1.1//EN"
 "http://www.w3.org/Graphics/SVG/1.1/DTD/svg11.dtd">
<!-- Generated by graphviz version 2.40.1 (20161225.0304)
 -->
<!-- Title: asciiToHexString Pages: 1 -->
<svg width="219pt" height="104pt"
 viewBox="0.00 0.00 219.00 104.00" xmlns="http://www.w3.org/2000/svg" xmlns:xlink="http://www.w3.org/1999/xlink">
<g id="graph0" class="graph" transform="scale(1 1) rotate(0) translate(4 100)">
<title>asciiToHexString</title>
<polygon fill="#ffffff" stroke="transparent" points="-4,4 -4,-100 215,-100 215,4 -4,4"/>
<!-- Node77 -->
<g id="node1" class="node">
<title>Node77</title>
<polygon fill="#bfbfbf" stroke="#000000" points="0,-38.5 0,-57.5 92,-57.5 92,-38.5 0,-38.5"/>
<text text-anchor="middle" x="46" y="-45.5" font-family="Helvetica,sans-Serif" font-size="10.00" fill="#000000">asciiToHexString</text>
</g>
<!-- Node78 -->
<g id="node2" class="node">
<title>Node78</title>
<g id="a_node2"><a xlink:href="cbc_8h.html#a9375da4cc24b1bedceb0364f2865bcc3" target="_top" xlink:title="cbcDecryptFile &#45; Function to decrypt the file with name ">
<polygon fill="#ffffff" stroke="#000000" points="128,-76.5 128,-95.5 211,-95.5 211,-76.5 128,-76.5"/>
<text text-anchor="middle" x="169.5" y="-83.5" font-family="Helvetica,sans-Serif" font-size="10.00" fill="#000000">cbcDecryptFile</text>
</a>
</g>
</g>
<!-- Node77&#45;&gt;Node78 -->
<g id="edge1" class="edge">
<title>Node77&#45;&gt;Node78</title>
<path fill="none" stroke="#191970" d="M86.7397,-60.5353C103.5405,-65.7048 122.697,-71.5991 138.3457,-76.4141"/>
<polygon fill="#191970" stroke="#191970" points="87.7514,-57.1847 77.1643,-57.589 85.6927,-63.8752 87.7514,-57.1847"/>
</g>
<!-- Node79 -->
<g id="node3" class="node">
<title>Node79</title>
<g id="a_node3"><a xlink:href="cfb_8h.html#a6dce0b90ab3948c3df032eb61c2a64ea" target="_top" xlink:title="cfbDecryptFile &#45; Function to decrypt the file with name ">
<polygon fill="#ffffff" stroke="#000000" points="129.5,-38.5 129.5,-57.5 209.5,-57.5 209.5,-38.5 129.5,-38.5"/>
<text text-anchor="middle" x="169.5" y="-45.5" font-family="Helvetica,sans-Serif" font-size="10.00" fill="#000000">cfbDecryptFile</text>
</a>
</g>
</g>
<!-- Node77&#45;&gt;Node79 -->
<g id="edge2" class="edge">
<title>Node77&#45;&gt;Node79</title>
<path fill="none" stroke="#191970" d="M102.4817,-48C111.561,-48 120.7933,-48 129.3858,-48"/>
<polygon fill="#191970" stroke="#191970" points="102.3382,-44.5001 92.3382,-48 102.3382,-51.5001 102.3382,-44.5001"/>
</g>
<!-- Node80 -->
<g id="node4" class="node">
<title>Node80</title>
<g id="a_node4"><a xlink:href="ecb_8h.html#ab4c77adefd8655ebd7bc79524f958013" target="_top" xlink:title="ecbDecryptFile &#45; Function to encrypt the file with name ">
<polygon fill="#ffffff" stroke="#000000" points="128,-.5 128,-19.5 211,-19.5 211,-.5 128,-.5"/>
<text text-anchor="middle" x="169.5" y="-7.5" font-family="Helvetica,sans-Serif" font-size="10.00" fill="#000000">ecbDecryptFile</text>
</a>
</g>
</g>
<!-- Node77&#45;&gt;Node80 -->
<g id="edge3" class="edge">
<title>Node77&#45;&gt;Node80</title>
<path fill="none" stroke="#191970" d="M86.7397,-35.4647C103.5405,-30.2952 122.697,-24.4009 138.3457,-19.5859"/>
<polygon fill="#191970" stroke="#191970" points="85.6927,-32.1248 77.1643,-38.411 87.7514,-38.8153 85.6927,-32.1248"/>
</g>
</g>
</svg>
