<?xml version="1.0" encoding="UTF-8" standalone="no"?>
<!DOCTYPE svg PUBLIC "-//W3C//DTD SVG 1.1//EN"
 "http://www.w3.org/Graphics/SVG/1.1/DTD/svg11.dtd">
<!-- Generated by graphviz version 2.40.1 (20161225.0304)
 -->
<!-- Title: AES.h Pages: 1 -->
<svg width="547pt" height="196pt"
 viewBox="0.00 0.00 546.50 196.00" xmlns="http://www.w3.org/2000/svg" xmlns:xlink="http://www.w3.org/1999/xlink">
<g id="graph0" class="graph" transform="scale(1 1) rotate(0) translate(4 192)">
<title>AES.h</title>
<polygon fill="#ffffff" stroke="transparent" points="-4,4 -4,-192 542.5,-192 542.5,4 -4,4"/>
<!-- Node6 -->
<g id="node1" class="node">
<title>Node6</title>
<polygon fill="#bfbfbf" stroke="#000000" points="201.5,-168.5 201.5,-187.5 246.5,-187.5 246.5,-168.5 201.5,-168.5"/>
<text text-anchor="middle" x="224" y="-175.5" font-family="Helvetica,sans-Serif" font-size="10.00" fill="#000000">AES.h</text>
</g>
<!-- Node7 -->
<g id="node2" class="node">
<title>Node7</title>
<g id="a_node2"><a xlink:href="_a_e_s_8c.html" target="_top" xlink:title="AES encryption and decryption module implementation file. This file contains the implementation of th...">
<polygon fill="#ffffff" stroke="#000000" points="4.5,-112.5 4.5,-131.5 49.5,-131.5 49.5,-112.5 4.5,-112.5"/>
<text text-anchor="middle" x="27" y="-119.5" font-family="Helvetica,sans-Serif" font-size="10.00" fill="#000000">AES.c</text>
</a>
</g>
</g>
<!-- Node6&#45;&gt;Node7 -->
<g id="edge1" class="edge">
<title>Node6&#45;&gt;Node7</title>
<path fill="none" stroke="#191970" d="M191.579,-169.2804C158.2455,-160.2406 104.8749,-145.5591 59,-132 55.9858,-131.1091 52.8194,-130.1491 49.6991,-129.1888"/>
<polygon fill="#191970" stroke="#191970" points="190.683,-172.6637 201.2501,-171.8972 192.5114,-165.9067 190.683,-172.6637"/>
</g>
<!-- Node8 -->
<g id="node3" class="node">
<title>Node8</title>
<g id="a_node3"><a xlink:href="aes_tester_8c.html" target="_top" xlink:title="Main file. ">
<polygon fill="#ffffff" stroke="#000000" points="68,-112.5 68,-131.5 136,-131.5 136,-112.5 68,-112.5"/>
<text text-anchor="middle" x="102" y="-119.5" font-family="Helvetica,sans-Serif" font-size="10.00" fill="#000000">aesTester.c</text>
</a>
</g>
</g>
<!-- Node6&#45;&gt;Node8 -->
<g id="edge2" class="edge">
<title>Node6&#45;&gt;Node8</title>
<path fill="none" stroke="#191970" d="M193.7416,-164.1109C171.6181,-153.9559 142.1906,-140.4482 122.6989,-131.5011"/>
<polygon fill="#191970" stroke="#191970" points="192.479,-167.3824 203.0275,-168.3733 195.3993,-161.0206 192.479,-167.3824"/>
</g>
<!-- Node9 -->
<g id="node4" class="node">
<title>Node9</title>
<g id="a_node4"><a xlink:href="cbc_8h.html" target="_top" xlink:title="Cipher Block Chaining (CBC) &#45; AES Header file This file contains the function headers of the function...">
<polygon fill="#ffffff" stroke="#000000" points="154.5,-112.5 154.5,-131.5 195.5,-131.5 195.5,-112.5 154.5,-112.5"/>
<text text-anchor="middle" x="175" y="-119.5" font-family="Helvetica,sans-Serif" font-size="10.00" fill="#000000">cbc.h</text>
</a>
</g>
</g>
<!-- Node6&#45;&gt;Node9 -->
<g id="edge3" class="edge">
<title>Node6&#45;&gt;Node9</title>
<path fill="none" stroke="#191970" d="M208.6878,-160.5004C200.3553,-150.9775 190.3647,-139.5596 183.4373,-131.6427"/>
<polygon fill="#191970" stroke="#191970" points="206.2457,-163.0245 215.4649,-168.2455 211.5138,-158.415 206.2457,-163.0245"/>
</g>
<!-- Node12 -->
<g id="node7" class="node">
<title>Node12</title>
<g id="a_node7"><a xlink:href="encryption_platform_8h_source.html" target="_top" xlink:title="encryptionPlatform.h">
<polygon fill="#ffffff" stroke="#000000" points="145.5,-56.5 145.5,-75.5 252.5,-75.5 252.5,-56.5 145.5,-56.5"/>
<text text-anchor="middle" x="199" y="-63.5" font-family="Helvetica,sans-Serif" font-size="10.00" fill="#000000">encryptionPlatform.h</text>
</a>
</g>
</g>
<!-- Node6&#45;&gt;Node12 -->
<g id="edge16" class="edge">
<title>Node6&#45;&gt;Node12</title>
<path fill="none" stroke="#191970" d="M219.6694,-158.5987C214.2596,-134.363 205.2176,-93.8551 201.1261,-75.5249"/>
<polygon fill="#191970" stroke="#191970" points="216.274,-159.4536 221.8685,-168.4509 223.1058,-157.9286 216.274,-159.4536"/>
</g>
<!-- Node14 -->
<g id="node9" class="node">
<title>Node14</title>
<g id="a_node9"><a xlink:href="cfb_8h.html" target="_top" xlink:title="Cipher Feedback (CFB) &#45; AES header file This file contains the function headers of the functions used...">
<polygon fill="#ffffff" stroke="#000000" points="252,-112.5 252,-131.5 290,-131.5 290,-112.5 252,-112.5"/>
<text text-anchor="middle" x="271" y="-119.5" font-family="Helvetica,sans-Serif" font-size="10.00" fill="#000000">cfb.h</text>
</a>
</g>
</g>
<!-- Node6&#45;&gt;Node14 -->
<g id="edge8" class="edge">
<title>Node6&#45;&gt;Node14</title>
<path fill="none" stroke="#191970" d="M238.6872,-160.5004C246.6796,-150.9775 256.2625,-139.5596 262.907,-131.6427"/>
<polygon fill="#191970" stroke="#191970" points="235.9346,-158.3357 232.1868,-168.2455 241.2964,-162.8358 235.9346,-158.3357"/>
</g>
<!-- Node17 -->
<g id="node12" class="node">
<title>Node17</title>
<g id="a_node12"><a xlink:href="ecb_8h.html" target="_top" xlink:title="Electronic code book (ECB) &#45; AES header file This file contains the function headers of the functions...">
<polygon fill="#ffffff" stroke="#000000" points="308.5,-112.5 308.5,-131.5 349.5,-131.5 349.5,-112.5 308.5,-112.5"/>
<text text-anchor="middle" x="329" y="-119.5" font-family="Helvetica,sans-Serif" font-size="10.00" fill="#000000">ecb.h</text>
</a>
</g>
</g>
<!-- Node6&#45;&gt;Node17 -->
<g id="edge12" class="edge">
<title>Node6&#45;&gt;Node17</title>
<path fill="none" stroke="#191970" d="M251.2625,-163.46C270.0522,-153.4388 294.5013,-140.3993 310.92,-131.6427"/>
<polygon fill="#191970" stroke="#191970" points="249.4661,-160.4514 242.2896,-168.2455 252.7602,-166.6278 249.4661,-160.4514"/>
</g>
<!-- Node20 -->
<g id="node15" class="node">
<title>Node20</title>
<g id="a_node15"><a xlink:href="main_8c_source.html" target="_top" xlink:title="main.c">
<polygon fill="#ffffff" stroke="#000000" points="368,-112.5 368,-131.5 414,-131.5 414,-112.5 368,-112.5"/>
<text text-anchor="middle" x="391" y="-119.5" font-family="Helvetica,sans-Serif" font-size="10.00" fill="#000000">main.c</text>
</a>
</g>
</g>
<!-- Node6&#45;&gt;Node20 -->
<g id="edge17" class="edge">
<title>Node6&#45;&gt;Node20</title>
<path fill="none" stroke="#191970" d="M256.074,-167.2446C288.7695,-156.2809 338.6928,-139.5401 367.7629,-129.7921"/>
<polygon fill="#191970" stroke="#191970" points="254.8907,-163.9498 246.5224,-170.4476 257.1163,-170.5866 254.8907,-163.9498"/>
</g>
<!-- Node10 -->
<g id="node5" class="node">
<title>Node10</title>
<g id="a_node5"><a xlink:href="cbc_8c.html" target="_top" xlink:title="Cipher Block Chaining (CBC) &#45; AES Implementation file This file contains the implementation of the fu...">
<polygon fill="#ffffff" stroke="#000000" points="86.5,-56.5 86.5,-75.5 127.5,-75.5 127.5,-56.5 86.5,-56.5"/>
<text text-anchor="middle" x="107" y="-63.5" font-family="Helvetica,sans-Serif" font-size="10.00" fill="#000000">cbc.c</text>
</a>
</g>
</g>
<!-- Node9&#45;&gt;Node10 -->
<g id="edge4" class="edge">
<title>Node9&#45;&gt;Node10</title>
<path fill="none" stroke="#191970" d="M155.1404,-105.645C143.3142,-95.9058 128.7108,-83.8795 118.709,-75.6427"/>
<polygon fill="#191970" stroke="#191970" points="153.211,-108.5902 163.1553,-112.2455 157.661,-103.1867 153.211,-108.5902"/>
</g>
<!-- Node11 -->
<g id="node6" class="node">
<title>Node11</title>
<g id="a_node6"><a xlink:href="cbc_tester_8c.html" target="_top" xlink:title="Main file. ">
<polygon fill="#ffffff" stroke="#000000" points="0,-56.5 0,-75.5 68,-75.5 68,-56.5 0,-56.5"/>
<text text-anchor="middle" x="34" y="-63.5" font-family="Helvetica,sans-Serif" font-size="10.00" fill="#000000">cbcTester.c</text>
</a>
</g>
</g>
<!-- Node9&#45;&gt;Node11 -->
<g id="edge5" class="edge">
<title>Node9&#45;&gt;Node11</title>
<path fill="none" stroke="#191970" d="M145.1849,-110.1586C119.3398,-99.8938 82.4042,-85.2244 58.3152,-75.6571"/>
<polygon fill="#191970" stroke="#191970" points="143.9116,-113.4187 154.4974,-113.8571 146.4955,-106.913 143.9116,-113.4187"/>
</g>
<!-- Node9&#45;&gt;Node12 -->
<g id="edge6" class="edge">
<title>Node9&#45;&gt;Node12</title>
<path fill="none" stroke="#191970" d="M183.1241,-103.0437C187.0715,-93.8331 191.6458,-83.1598 194.8674,-75.6427"/>
<polygon fill="#191970" stroke="#191970" points="179.9027,-101.6753 179.1805,-112.2455 186.3367,-104.4328 179.9027,-101.6753"/>
</g>
<!-- Node13 -->
<g id="node8" class="node">
<title>Node13</title>
<g id="a_node8"><a xlink:href="encryption_platform_8c.html" target="_top" xlink:title="Implementation file for the cbc and cfb encryption platform. All functions, to specify key...">
<polygon fill="#ffffff" stroke="#000000" points="145.5,-.5 145.5,-19.5 252.5,-19.5 252.5,-.5 145.5,-.5"/>
<text text-anchor="middle" x="199" y="-7.5" font-family="Helvetica,sans-Serif" font-size="10.00" fill="#000000">encryptionPlatform.c</text>
</a>
</g>
</g>
<!-- Node12&#45;&gt;Node13 -->
<g id="edge7" class="edge">
<title>Node12&#45;&gt;Node13</title>
<path fill="none" stroke="#191970" d="M199,-46.1575C199,-37.155 199,-26.9199 199,-19.6427"/>
<polygon fill="#191970" stroke="#191970" points="195.5001,-46.2455 199,-56.2455 202.5001,-46.2456 195.5001,-46.2455"/>
</g>
<!-- Node14&#45;&gt;Node12 -->
<g id="edge11" class="edge">
<title>Node14&#45;&gt;Node12</title>
<path fill="none" stroke="#191970" d="M250.336,-105.928C237.7511,-96.1397 222.0908,-83.9595 211.3977,-75.6427"/>
<polygon fill="#191970" stroke="#191970" points="248.4162,-108.8688 258.4586,-112.2455 252.7138,-103.3434 248.4162,-108.8688"/>
</g>
<!-- Node15 -->
<g id="node10" class="node">
<title>Node15</title>
<g id="a_node10"><a xlink:href="cfb_8c.html" target="_top" xlink:title="Cipher Feedback (CFB) &#45; AES implementation file This file contains the implementation of the function...">
<polygon fill="#ffffff" stroke="#000000" points="355,-56.5 355,-75.5 393,-75.5 393,-56.5 355,-56.5"/>
<text text-anchor="middle" x="374" y="-63.5" font-family="Helvetica,sans-Serif" font-size="10.00" fill="#000000">cfb.c</text>
</a>
</g>
</g>
<!-- Node14&#45;&gt;Node15 -->
<g id="edge9" class="edge">
<title>Node14&#45;&gt;Node15</title>
<path fill="none" stroke="#191970" d="M297.7432,-107.46C316.175,-97.4388 340.1584,-84.3993 356.2644,-75.6427"/>
<polygon fill="#191970" stroke="#191970" points="296.0549,-104.394 288.9412,-112.2455 299.3985,-110.5438 296.0549,-104.394"/>
</g>
<!-- Node16 -->
<g id="node11" class="node">
<title>Node16</title>
<g id="a_node11"><a xlink:href="cfb_tester_8c.html" target="_top" xlink:title="Main file. ">
<polygon fill="#ffffff" stroke="#000000" points="271,-56.5 271,-75.5 337,-75.5 337,-56.5 271,-56.5"/>
<text text-anchor="middle" x="304" y="-63.5" font-family="Helvetica,sans-Serif" font-size="10.00" fill="#000000">cfbTester.c</text>
</a>
</g>
</g>
<!-- Node14&#45;&gt;Node16 -->
<g id="edge10" class="edge">
<title>Node14&#45;&gt;Node16</title>
<path fill="none" stroke="#191970" d="M281.8254,-103.6296C287.3299,-94.2887 293.7937,-83.3197 298.3177,-75.6427"/>
<polygon fill="#191970" stroke="#191970" points="278.8097,-101.8532 276.7482,-112.2455 284.8405,-105.4071 278.8097,-101.8532"/>
</g>
<!-- Node17&#45;&gt;Node12 -->
<g id="edge15" class="edge">
<title>Node17&#45;&gt;Node12</title>
<path fill="none" stroke="#191970" d="M299.1513,-109.1421C275.4127,-98.9162 242.7282,-84.8367 221.2439,-75.582"/>
<polygon fill="#191970" stroke="#191970" points="297.8323,-112.3848 308.4011,-113.1266 300.6017,-105.9559 297.8323,-112.3848"/>
</g>
<!-- Node18 -->
<g id="node13" class="node">
<title>Node18</title>
<g id="a_node13"><a xlink:href="ecb_8c.html" target="_top" xlink:title="Electronic code book (ECB) &#45; AES Implementation file This file contains the implementation of the fun...">
<polygon fill="#ffffff" stroke="#000000" points="497.5,-56.5 497.5,-75.5 538.5,-75.5 538.5,-56.5 497.5,-56.5"/>
<text text-anchor="middle" x="518" y="-63.5" font-family="Helvetica,sans-Serif" font-size="10.00" fill="#000000">ecb.c</text>
</a>
</g>
</g>
<!-- Node17&#45;&gt;Node18 -->
<g id="edge13" class="edge">
<title>Node17&#45;&gt;Node18</title>
<path fill="none" stroke="#191970" d="M359.3313,-112.0163C417.5665,-94.4227 433.9715,-92.5325 488,-76 491.0449,-75.0683 494.25,-74.0454 497.3864,-73.0206"/>
<polygon fill="#191970" stroke="#191970" points="358.158,-108.7149 349.6136,-114.9794 360.1997,-115.4105 358.158,-108.7149"/>
</g>
<!-- Node19 -->
<g id="node14" class="node">
<title>Node19</title>
<g id="a_node14"><a xlink:href="ecb_tester_8c_source.html" target="_top" xlink:title="ecbTester.c">
<polygon fill="#ffffff" stroke="#000000" points="411,-56.5 411,-75.5 479,-75.5 479,-56.5 411,-56.5"/>
<text text-anchor="middle" x="445" y="-63.5" font-family="Helvetica,sans-Serif" font-size="10.00" fill="#000000">ecbTester.c</text>
</a>
</g>
</g>
<!-- Node17&#45;&gt;Node19 -->
<g id="edge14" class="edge">
<title>Node17&#45;&gt;Node19</title>
<path fill="none" stroke="#191970" d="M358.0537,-107.9741C379.0565,-97.8348 406.8691,-84.408 425.3191,-75.5011"/>
<polygon fill="#191970" stroke="#191970" points="356.425,-104.8738 348.9411,-112.3733 359.4683,-111.1776 356.425,-104.8738"/>
</g>
</g>
</svg>
