<?xml version="1.0" encoding="UTF-8" standalone="no"?>
<!DOCTYPE svg PUBLIC "-//W3C//DTD SVG 1.1//EN"
 "http://www.w3.org/Graphics/SVG/1.1/DTD/svg11.dtd">
<!-- Generated by graphviz version 2.40.1 (20161225.0304)
 -->
<!-- Title: cbcDecryptFile Pages: 1 -->
<svg width="658pt" height="740pt"
 viewBox="0.00 0.00 658.00 740.19" xmlns="http://www.w3.org/2000/svg" xmlns:xlink="http://www.w3.org/1999/xlink">
<g id="graph0" class="graph" transform="scale(1 1) rotate(0) translate(4 736.1931)">
<title>cbcDecryptFile</title>
<polygon fill="#ffffff" stroke="transparent" points="-4,4 -4,-736.1931 654,-736.1931 654,4 -4,4"/>
<!-- Node29 -->
<g id="node1" class="node">
<title>Node29</title>
<polygon fill="#bfbfbf" stroke="#000000" points="0,-475.5 0,-494.5 83,-494.5 83,-475.5 0,-475.5"/>
<text text-anchor="middle" x="41.5" y="-482.5" font-family="Helvetica,sans-Serif" font-size="10.00" fill="#000000">cbcDecryptFile</text>
</g>
<!-- Node30 -->
<g id="node2" class="node">
<title>Node30</title>
<g id="a_node2"><a xlink:href="_a_e_s_8c.html#afba897e91364663f883cc51ed309dc92" target="_top" xlink:title="keyHexToAscii &#45; Function to convert a key from a Hex string passed in as a paramter ...">
<polygon fill="#ffffff" stroke="#000000" points="128,-646.5 128,-665.5 211,-665.5 211,-646.5 128,-646.5"/>
<text text-anchor="middle" x="169.5" y="-653.5" font-family="Helvetica,sans-Serif" font-size="10.00" fill="#000000">keyHexToAscii</text>
</a>
</g>
</g>
<!-- Node29&#45;&gt;Node30 -->
<g id="edge1" class="edge">
<title>Node29&#45;&gt;Node30</title>
<path fill="none" stroke="#191970" d="M44.1943,-494.551C51.8308,-520.0614 75.9037,-590.6572 119,-632 122.8418,-635.6855 127.3553,-638.8934 132.0763,-641.6591"/>
<polygon fill="#191970" stroke="#191970" points="130.8009,-644.9405 141.2888,-646.4422 134.0265,-638.728 130.8009,-644.9405"/>
</g>
<!-- Node31 -->
<g id="node3" class="node">
<title>Node31</title>
<g id="a_node3"><a xlink:href="_a_e_s_8c.html#a1c2a403d95a85400bbae142d48cb8c9d" target="_top" xlink:title="getNumRounds &#45; Function to return the number of rounds of AES encryption and decryption based off of ...">
<polygon fill="#ffffff" stroke="#000000" points="430,-494.5 430,-513.5 515,-513.5 515,-494.5 430,-494.5"/>
<text text-anchor="middle" x="472.5" y="-501.5" font-family="Helvetica,sans-Serif" font-size="10.00" fill="#000000">getNumRounds</text>
</a>
</g>
</g>
<!-- Node29&#45;&gt;Node31 -->
<g id="edge10" class="edge">
<title>Node29&#45;&gt;Node31</title>
<path fill="none" stroke="#191970" d="M58.0994,-494.5814C107.9823,-522.1211 260.7077,-597.2685 384,-561 410.8744,-553.0944 437.2944,-534.2209 454.1694,-520.3479"/>
<polygon fill="#191970" stroke="#191970" points="456.719,-522.7745 462.0758,-513.6336 452.1879,-517.4389 456.719,-522.7745"/>
</g>
<!-- Node32 -->
<g id="node4" class="node">
<title>Node32</title>
<g id="a_node4"><a xlink:href="_a_e_s_8c.html#a5d65eac115e562c64b00a43e72ee6aca" target="_top" xlink:title="getPaddedKeyLength &#45; Function to return a valid key length (in bytes) based off of the current key le...">
<polygon fill="#ffffff" stroke="#000000" points="265,-608.5 265,-627.5 375,-627.5 375,-608.5 265,-608.5"/>
<text text-anchor="middle" x="320" y="-615.5" font-family="Helvetica,sans-Serif" font-size="10.00" fill="#000000">getPaddedKeyLength</text>
</a>
</g>
</g>
<!-- Node29&#45;&gt;Node32 -->
<g id="edge9" class="edge">
<title>Node29&#45;&gt;Node32</title>
<path fill="none" stroke="#191970" d="M45.1375,-494.6325C53.9798,-516.567 78.8691,-570.174 119,-594 159.7591,-618.199 213.3648,-623.5607 254.9657,-623.2174"/>
<polygon fill="#191970" stroke="#191970" points="255.0667,-626.7162 264.9972,-623.0234 254.9314,-619.7175 255.0667,-626.7162"/>
</g>
<!-- Node33 -->
<g id="node5" class="node">
<title>Node33</title>
<g id="a_node5"><a xlink:href="_a_e_s_8c.html#ad697cbb5d9e462b3017df1f1d939ee96" target="_top" xlink:title="hexToAsciiString &#45; Function that converts a given string of hex values into its ASCII equivalent...">
<polygon fill="#ffffff" stroke="#000000" points="274.5,-684.5 274.5,-703.5 365.5,-703.5 365.5,-684.5 274.5,-684.5"/>
<text text-anchor="middle" x="320" y="-691.5" font-family="Helvetica,sans-Serif" font-size="10.00" fill="#000000">hexToAsciiString</text>
</a>
</g>
</g>
<!-- Node29&#45;&gt;Node33 -->
<g id="edge15" class="edge">
<title>Node29&#45;&gt;Node33</title>
<path fill="none" stroke="#191970" d="M43.2416,-494.5669C50.6977,-534.3628 81.2732,-685.977 119,-713 170.4423,-749.8471 249.2864,-725.2777 291.3041,-707.5883"/>
<polygon fill="#191970" stroke="#191970" points="292.9016,-710.7099 300.6664,-703.5017 290.1013,-704.2944 292.9016,-710.7099"/>
</g>
<!-- Node36 -->
<g id="node8" class="node">
<title>Node36</title>
<g id="a_node8"><a xlink:href="_a_e_s_8c.html#ad82d1b77336ac1292ed5a24b92380f42" target="_top" xlink:title="IVHexToAscii &#45; Function to convert a initialization vector from a Hex string passed in as a paramter...">
<polygon fill="#ffffff" stroke="#000000" points="131,-684.5 131,-703.5 208,-703.5 208,-684.5 131,-684.5"/>
<text text-anchor="middle" x="169.5" y="-691.5" font-family="Helvetica,sans-Serif" font-size="10.00" fill="#000000">IVHexToAscii</text>
</a>
</g>
</g>
<!-- Node29&#45;&gt;Node36 -->
<g id="edge7" class="edge">
<title>Node29&#45;&gt;Node36</title>
<path fill="none" stroke="#191970" d="M42.7218,-494.8022C47.0781,-525.6916 64.6133,-622.0855 119,-675 120.6093,-676.5657 122.3599,-678.0048 124.2112,-679.3272"/>
<polygon fill="#191970" stroke="#191970" points="122.4543,-682.3543 132.8479,-684.4092 126.0043,-676.3212 122.4543,-682.3543"/>
</g>
<!-- Node37 -->
<g id="node9" class="node">
<title>Node37</title>
<g id="a_node9"><a xlink:href="_a_e_s_8c.html#a0e0b199ded54d7fb53a3bda3fcc02256" target="_top" xlink:title="validateNumRounds &#45; Function that validates the number of rounds that have been passed in by the ...">
<polygon fill="#ffffff" stroke="#000000" points="420,-190.5 420,-209.5 525,-209.5 525,-190.5 420,-190.5"/>
<text text-anchor="middle" x="472.5" y="-197.5" font-family="Helvetica,sans-Serif" font-size="10.00" fill="#000000">validateNumRounds</text>
</a>
</g>
</g>
<!-- Node29&#45;&gt;Node37 -->
<g id="edge11" class="edge">
<title>Node29&#45;&gt;Node37</title>
<path fill="none" stroke="#191970" d="M44.4561,-475.165C53.7292,-444.7941 83.736,-350.0765 119,-276 156.9396,-196.3031 178.6197,-182.9659 220,-105 237.5221,-71.9861 224.4172,-48.9866 256,-29 304.0717,1.4213 339.3782,6.2879 384,-29 438.4543,-72.0637 373.8036,-129.1768 420,-181 421.1973,-182.3431 422.497,-183.5913 423.8779,-184.7514"/>
<polygon fill="#191970" stroke="#191970" points="422.2577,-187.8762 432.5282,-190.4777 426.1216,-182.0393 422.2577,-187.8762"/>
</g>
<!-- Node38 -->
<g id="node10" class="node">
<title>Node38</title>
<g id="a_node10"><a xlink:href="_a_e_s_8c.html#acc2acf0b03a8863f9290bdd36dd6f478" target="_top" xlink:title="Get the output file name from all the parameters passed in. ">
<polygon fill="#ffffff" stroke="#000000" points="119,-494.5 119,-513.5 220,-513.5 220,-494.5 119,-494.5"/>
<text text-anchor="middle" x="169.5" y="-501.5" font-family="Helvetica,sans-Serif" font-size="10.00" fill="#000000">getOutputFileName</text>
</a>
</g>
</g>
<!-- Node29&#45;&gt;Node38 -->
<g id="edge12" class="edge">
<title>Node29&#45;&gt;Node38</title>
<path fill="none" stroke="#191970" d="M83.0579,-491.1688C91.2429,-492.3837 99.9885,-493.6819 108.6568,-494.9686"/>
<polygon fill="#191970" stroke="#191970" points="108.3532,-498.4618 118.7588,-496.4681 109.3811,-491.5377 108.3532,-498.4618"/>
</g>
<!-- Node41 -->
<g id="node13" class="node">
<title>Node41</title>
<g id="a_node13"><a xlink:href="_a_e_s_8c.html#aaba2e1b9466483b3c6b8669eb42aa5ed" target="_top" xlink:title="printAESBlock &#45; Function to print a single block in hex format to the terminal. ">
<polygon fill="#ffffff" stroke="#000000" points="280,-456.5 280,-475.5 360,-475.5 360,-456.5 280,-456.5"/>
<text text-anchor="middle" x="320" y="-463.5" font-family="Helvetica,sans-Serif" font-size="10.00" fill="#000000">printAESBlock</text>
</a>
</g>
</g>
<!-- Node29&#45;&gt;Node41 -->
<g id="edge16" class="edge">
<title>Node29&#45;&gt;Node41</title>
<path fill="none" stroke="#191970" d="M83.1943,-482.1555C132.9848,-478.7587 216.2161,-473.0804 269.5763,-469.44"/>
<polygon fill="#191970" stroke="#191970" points="270.0927,-472.913 279.8313,-468.7404 269.6162,-465.9293 270.0927,-472.913"/>
</g>
<!-- Node42 -->
<g id="node14" class="node">
<title>Node42</title>
<g id="a_node14"><a xlink:href="_a_e_s_8c.html#ab51c63e6483f94f12bbc9b256374ec64" target="_top" xlink:title="AESDecrypt &#45; Function to decrypt a single block of ciphertext passed in as parameter &#160;cipherText usin...">
<polygon fill="#ffffff" stroke="#000000" points="134,-285.5 134,-304.5 205,-304.5 205,-285.5 134,-285.5"/>
<text text-anchor="middle" x="169.5" y="-292.5" font-family="Helvetica,sans-Serif" font-size="10.00" fill="#000000">AESDecrypt</text>
</a>
</g>
</g>
<!-- Node29&#45;&gt;Node42 -->
<g id="edge17" class="edge">
<title>Node29&#45;&gt;Node42</title>
<path fill="none" stroke="#191970" d="M48.0235,-475.3167C68.3041,-445.2127 130.4834,-352.9153 157.1478,-313.3353"/>
<polygon fill="#191970" stroke="#191970" points="160.1516,-315.1408 162.8361,-304.8917 154.3461,-311.2297 160.1516,-315.1408"/>
</g>
<!-- Node59 -->
<g id="node31" class="node">
<title>Node59</title>
<g id="a_node31"><a xlink:href="_a_e_s_8c.html#ab601c369ba50730fc02d03bc44aad4e0" target="_top" xlink:title="XORBlocks &#45; Function to XOR two blocks of length. ">
<polygon fill="#ffffff" stroke="#000000" points="135.5,-76.5 135.5,-95.5 203.5,-95.5 203.5,-76.5 135.5,-76.5"/>
<text text-anchor="middle" x="169.5" y="-83.5" font-family="Helvetica,sans-Serif" font-size="10.00" fill="#000000">XORBlocks</text>
</a>
</g>
</g>
<!-- Node29&#45;&gt;Node59 -->
<g id="edge41" class="edge">
<title>Node29&#45;&gt;Node59</title>
<path fill="none" stroke="#191970" d="M42.336,-475.364C47.0718,-422.7002 72.0015,-169.8776 119,-110 121.8413,-106.3801 125.362,-103.2779 129.2131,-100.6258"/>
<polygon fill="#191970" stroke="#191970" points="131.139,-103.555 138.036,-95.5124 127.6289,-97.4986 131.139,-103.555"/>
</g>
<!-- Node60 -->
<g id="node32" class="node">
<title>Node60</title>
<g id="a_node32"><a xlink:href="_a_e_s_8c.html#ac189aee6672718650020cf627d45c780" target="_top" xlink:title="Function name: asciiToHexString &#45; convert an ascii String to an ascii string. ">
<polygon fill="#ffffff" stroke="#000000" points="123.5,-38.5 123.5,-57.5 215.5,-57.5 215.5,-38.5 123.5,-38.5"/>
<text text-anchor="middle" x="169.5" y="-45.5" font-family="Helvetica,sans-Serif" font-size="10.00" fill="#000000">asciiToHexString</text>
</a>
</g>
</g>
<!-- Node29&#45;&gt;Node60 -->
<g id="edge42" class="edge">
<title>Node29&#45;&gt;Node60</title>
<path fill="none" stroke="#191970" d="M42.0281,-475.3252C45.2909,-418.8661 64.3885,-132.2156 119,-67 120.1164,-65.6669 121.3363,-64.4272 122.639,-63.2744"/>
<polygon fill="#191970" stroke="#191970" points="124.6343,-66.15 130.859,-57.5766 120.6465,-60.3969 124.6343,-66.15"/>
</g>
<!-- Node61 -->
<g id="node33" class="node">
<title>Node61</title>
<g id="a_node33"><a xlink:href="_a_e_s_8c.html#a3bf513612c15693c3b2be10b94298e05" target="_top" xlink:title="isFileTxt &#45; Function to determine if the file passed in as a paramter ">
<polygon fill="#ffffff" stroke="#000000" points="142.5,-.5 142.5,-19.5 196.5,-19.5 196.5,-.5 142.5,-.5"/>
<text text-anchor="middle" x="169.5" y="-7.5" font-family="Helvetica,sans-Serif" font-size="10.00" fill="#000000">isFileTxt</text>
</a>
</g>
</g>
<!-- Node29&#45;&gt;Node61 -->
<g id="edge43" class="edge">
<title>Node29&#45;&gt;Node61</title>
<path fill="none" stroke="#191970" d="M41.8686,-475.2401C44.3043,-415.6206 59.8597,-100.7079 119,-29 122.78,-24.4167 127.7866,-20.9382 133.18,-18.2984"/>
<polygon fill="#191970" stroke="#191970" points="134.476,-21.5497 142.4736,-14.6007 131.8881,-15.0456 134.476,-21.5497"/>
</g>
<!-- Node30&#45;&gt;Node31 -->
<g id="edge2" class="edge">
<title>Node30&#45;&gt;Node31</title>
<path fill="none" stroke="#191970" d="M211.023,-662.4024C256.7405,-667.2822 330.8045,-668.5988 384,-637 427.9611,-610.8866 454.5027,-553.4079 465.9151,-523.2825"/>
<polygon fill="#191970" stroke="#191970" points="469.3323,-524.1243 469.4393,-513.53 462.749,-521.7452 469.3323,-524.1243"/>
</g>
<!-- Node30&#45;&gt;Node32 -->
<g id="edge3" class="edge">
<title>Node30&#45;&gt;Node32</title>
<path fill="none" stroke="#191970" d="M207.4775,-646.411C227.1587,-641.4417 251.3907,-635.3233 272.3206,-630.0387"/>
<polygon fill="#191970" stroke="#191970" points="273.4567,-633.3617 282.2956,-627.5201 271.743,-626.5747 273.4567,-633.3617"/>
</g>
<!-- Node30&#45;&gt;Node33 -->
<g id="edge4" class="edge">
<title>Node30&#45;&gt;Node33</title>
<path fill="none" stroke="#191970" d="M207.4775,-665.589C227.1587,-670.5583 251.3907,-676.6767 272.3206,-681.9613"/>
<polygon fill="#191970" stroke="#191970" points="271.743,-685.4253 282.2956,-684.4799 273.4567,-678.6383 271.743,-685.4253"/>
</g>
<!-- Node34 -->
<g id="node6" class="node">
<title>Node34</title>
<g id="a_node6"><a xlink:href="_a_e_s_8c.html#aa177516503b10de65b504a3714073ad7" target="_top" xlink:title="hexToAscii &#45; Function that converts a given hex value to its ASCII equivalent. ">
<polygon fill="#ffffff" stroke="#000000" points="440,-684.5 440,-703.5 505,-703.5 505,-684.5 440,-684.5"/>
<text text-anchor="middle" x="472.5" y="-691.5" font-family="Helvetica,sans-Serif" font-size="10.00" fill="#000000">hexToAscii</text>
</a>
</g>
</g>
<!-- Node33&#45;&gt;Node34 -->
<g id="edge5" class="edge">
<title>Node33&#45;&gt;Node34</title>
<path fill="none" stroke="#191970" d="M365.755,-694C386.0764,-694 409.8576,-694 429.8093,-694"/>
<polygon fill="#191970" stroke="#191970" points="429.8551,-697.5001 439.8551,-694 429.8551,-690.5001 429.8551,-697.5001"/>
</g>
<!-- Node35 -->
<g id="node7" class="node">
<title>Node35</title>
<g id="a_node7"><a xlink:href="_a_e_s_8c.html#a7e5ab2188af44718071074f450963568" target="_top" xlink:title="hexToInt &#45; Function that converts a given hex value into an integer. ">
<polygon fill="#ffffff" stroke="#000000" points="578,-684.5 578,-703.5 633,-703.5 633,-684.5 578,-684.5"/>
<text text-anchor="middle" x="605.5" y="-691.5" font-family="Helvetica,sans-Serif" font-size="10.00" fill="#000000">hexToInt</text>
</a>
</g>
</g>
<!-- Node34&#45;&gt;Node35 -->
<g id="edge6" class="edge">
<title>Node34&#45;&gt;Node35</title>
<path fill="none" stroke="#191970" d="M505.0355,-694C523.9398,-694 547.85,-694 567.6014,-694"/>
<polygon fill="#191970" stroke="#191970" points="567.7947,-697.5001 577.7946,-694 567.7946,-690.5001 567.7947,-697.5001"/>
</g>
<!-- Node36&#45;&gt;Node33 -->
<g id="edge8" class="edge">
<title>Node36&#45;&gt;Node33</title>
<path fill="none" stroke="#191970" d="M208.2575,-694C225.3061,-694 245.6521,-694 264.2822,-694"/>
<polygon fill="#191970" stroke="#191970" points="264.4239,-697.5001 274.4238,-694 264.4238,-690.5001 264.4239,-697.5001"/>
</g>
<!-- Node39 -->
<g id="node11" class="node">
<title>Node39</title>
<g id="a_node11"><a xlink:href="_a_e_s_8c.html#a9dcad0047890de22f3d15611a10ab74f" target="_top" xlink:title="Returns the last index of &#39;/&#39; in a given path, otherwise returns &#45;1 if no &#39;/&#39; is found. ">
<polygon fill="#ffffff" stroke="#000000" points="274,-494.5 274,-513.5 366,-513.5 366,-494.5 274,-494.5"/>
<text text-anchor="middle" x="320" y="-501.5" font-family="Helvetica,sans-Serif" font-size="10.00" fill="#000000">fileNameDirIndex</text>
</a>
</g>
</g>
<!-- Node38&#45;&gt;Node39 -->
<g id="edge13" class="edge">
<title>Node38&#45;&gt;Node39</title>
<path fill="none" stroke="#191970" d="M220.033,-504C234.051,-504 249.3563,-504 263.6825,-504"/>
<polygon fill="#191970" stroke="#191970" points="263.9088,-507.5001 273.9088,-504 263.9087,-500.5001 263.9088,-507.5001"/>
</g>
<!-- Node40 -->
<g id="node12" class="node">
<title>Node40</title>
<g id="a_node12"><a xlink:href="_a_e_s_8c.html#ab066697b473ad5ce74faaceae6def5e5" target="_top" xlink:title="Removes path from the provided path to a file and returns only the file name. ">
<polygon fill="#ffffff" stroke="#000000" points="282.5,-532.5 282.5,-551.5 357.5,-551.5 357.5,-532.5 282.5,-532.5"/>
<text text-anchor="middle" x="320" y="-539.5" font-family="Helvetica,sans-Serif" font-size="10.00" fill="#000000">stripDirectory</text>
</a>
</g>
</g>
<!-- Node38&#45;&gt;Node40 -->
<g id="edge14" class="edge">
<title>Node38&#45;&gt;Node40</title>
<path fill="none" stroke="#191970" d="M207.4775,-513.589C227.1587,-518.5583 251.3907,-524.6767 272.3206,-529.9613"/>
<polygon fill="#191970" stroke="#191970" points="271.743,-533.4253 282.2956,-532.4799 273.4567,-526.6383 271.743,-533.4253"/>
</g>
<!-- Node42&#45;&gt;Node31 -->
<g id="edge19" class="edge">
<title>Node42&#45;&gt;Node31</title>
<path fill="none" stroke="#191970" d="M174.0754,-304.5912C185.0285,-326.5158 214.9311,-380.5919 256,-409 304.8047,-442.7591 330.069,-422.2406 384,-447 408.7512,-458.3631 434.6756,-475.8122 452.02,-488.4111"/>
<polygon fill="#191970" stroke="#191970" points="450.1343,-491.3696 460.2563,-494.4995 454.2954,-485.7406 450.1343,-491.3696"/>
</g>
<!-- Node42&#45;&gt;Node32 -->
<g id="edge18" class="edge">
<title>Node42&#45;&gt;Node32</title>
<path fill="none" stroke="#191970" d="M171.8931,-304.5764C182.5316,-346.7175 226.3153,-515.572 256,-561 266.6825,-577.3479 283.234,-591.9156 296.8286,-602.2314"/>
<polygon fill="#191970" stroke="#191970" points="295.1028,-605.3048 305.2438,-608.3723 299.2291,-599.6503 295.1028,-605.3048"/>
</g>
<!-- Node42&#45;&gt;Node37 -->
<g id="edge20" class="edge">
<title>Node42&#45;&gt;Node37</title>
<path fill="none" stroke="#191970" d="M176.8204,-285.4288C190.346,-268.5663 221.079,-233.9377 256,-219 304.7584,-198.1432 365.2377,-194.4612 409.8701,-195.382"/>
<polygon fill="#191970" stroke="#191970" points="409.9014,-198.8842 419.9985,-195.675 410.1039,-191.8872 409.9014,-198.8842"/>
</g>
<!-- Node42&#45;&gt;Node41 -->
<g id="edge40" class="edge">
<title>Node42&#45;&gt;Node41</title>
<path fill="none" stroke="#191970" d="M172.6363,-304.7609C181.48,-330.7922 209.0731,-402.5664 256,-442 260.8888,-446.1082 266.5503,-449.5497 272.4435,-452.4233"/>
<polygon fill="#191970" stroke="#191970" points="271.2501,-455.7206 281.8173,-456.4857 274.0336,-449.2979 271.2501,-455.7206"/>
</g>
<!-- Node43 -->
<g id="node15" class="node">
<title>Node43</title>
<g id="a_node15"><a xlink:href="_a_e_s_8c.html#ae01a1e7833d53f19b534e37ace03a691" target="_top" xlink:title="validateCipherTextLength &#45; Function that validates the length of the ciphertext. The validation is do...">
<polygon fill="#ffffff" stroke="#000000" points="256,-38.5 256,-57.5 384,-57.5 384,-38.5 256,-38.5"/>
<text text-anchor="middle" x="320" y="-45.5" font-family="Helvetica,sans-Serif" font-size="10.00" fill="#000000">validateCipherTextLength</text>
</a>
</g>
</g>
<!-- Node42&#45;&gt;Node43 -->
<g id="edge21" class="edge">
<title>Node42&#45;&gt;Node43</title>
<path fill="none" stroke="#191970" d="M172.5793,-285.4115C185.9044,-244.148 238.7044,-83.0605 256,-67 257.6907,-65.43 259.5054,-63.9893 261.4147,-62.6673"/>
<polygon fill="#191970" stroke="#191970" points="263.3484,-65.5937 270.2997,-57.598 259.8795,-59.5137 263.3484,-65.5937"/>
</g>
<!-- Node44 -->
<g id="node16" class="node">
<title>Node44</title>
<g id="a_node16"><a xlink:href="_a_e_s_8c.html#a1c1a633a58f7328faa397db9e45e7e0c" target="_top" xlink:title="constructStateArray &#45; Function to convert the state array from a flat 1D array to a multidimensional ...">
<polygon fill="#ffffff" stroke="#000000" points="268,-380.5 268,-399.5 372,-399.5 372,-380.5 268,-380.5"/>
<text text-anchor="middle" x="320" y="-387.5" font-family="Helvetica,sans-Serif" font-size="10.00" fill="#000000">constructStateArray</text>
</a>
</g>
</g>
<!-- Node42&#45;&gt;Node44 -->
<g id="edge22" class="edge">
<title>Node42&#45;&gt;Node44</title>
<path fill="none" stroke="#191970" d="M177.8333,-304.6476C192.2065,-320.703 223.2794,-352.9232 256,-371 259.9883,-373.2034 264.2609,-375.1781 268.6365,-376.9424"/>
<polygon fill="#191970" stroke="#191970" points="267.7156,-380.3322 278.3095,-380.4759 270.1175,-373.7571 267.7156,-380.3322"/>
</g>
<!-- Node45 -->
<g id="node17" class="node">
<title>Node45</title>
<g id="a_node17"><a xlink:href="_a_e_s_8c.html#ae9af90db32afa65125a7eec339ed9d58" target="_top" xlink:title="printStateArray &#45; Function to print the state array to the terminal in hex format. ">
<polygon fill="#ffffff" stroke="#000000" points="279,-342.5 279,-361.5 361,-361.5 361,-342.5 279,-342.5"/>
<text text-anchor="middle" x="320" y="-349.5" font-family="Helvetica,sans-Serif" font-size="10.00" fill="#000000">printStateArray</text>
</a>
</g>
</g>
<!-- Node42&#45;&gt;Node45 -->
<g id="edge23" class="edge">
<title>Node42&#45;&gt;Node45</title>
<path fill="none" stroke="#191970" d="M189.4815,-304.6331C206.8284,-312.7884 232.7444,-324.4779 256,-333 262.0705,-335.2246 268.5342,-337.3818 274.9314,-339.3954"/>
<polygon fill="#191970" stroke="#191970" points="274.2772,-342.8552 284.8636,-342.4304 276.3229,-336.1607 274.2772,-342.8552"/>
</g>
<!-- Node46 -->
<g id="node18" class="node">
<title>Node46</title>
<g id="a_node18"><a xlink:href="_a_e_s_8c.html#a185c827e4ccbc8e4608e83dfbf9dfc8e" target="_top" xlink:title="RijndaelKeySchedule &#45; Function that performs the Rijndael key scheduling for AES encryption. Takes in the original key passed in as parameter. ">
<polygon fill="#ffffff" stroke="#000000" points="265,-304.5 265,-323.5 375,-323.5 375,-304.5 265,-304.5"/>
<text text-anchor="middle" x="320" y="-311.5" font-family="Helvetica,sans-Serif" font-size="10.00" fill="#000000">RijndaelKeySchedule</text>
</a>
</g>
</g>
<!-- Node42&#45;&gt;Node46 -->
<g id="edge24" class="edge">
<title>Node42&#45;&gt;Node46</title>
<path fill="none" stroke="#191970" d="M205.1664,-299.5027C220.0623,-301.3833 237.851,-303.629 254.9275,-305.7849"/>
<polygon fill="#191970" stroke="#191970" points="254.5126,-309.2602 264.8723,-307.0404 255.3894,-302.3153 254.5126,-309.2602"/>
</g>
<!-- Node51 -->
<g id="node23" class="node">
<title>Node51</title>
<g id="a_node23"><a xlink:href="_a_e_s_8c.html#abe15a731f43315f6f595674d3cd62d57" target="_top" xlink:title="getRoundKey &#45; Function to extract the correct sub&#45;key to use for the appropriate round specified by ...">
<polygon fill="#ffffff" stroke="#000000" points="282,-266.5 282,-285.5 358,-285.5 358,-266.5 282,-266.5"/>
<text text-anchor="middle" x="320" y="-273.5" font-family="Helvetica,sans-Serif" font-size="10.00" fill="#000000">getRoundKey</text>
</a>
</g>
</g>
<!-- Node42&#45;&gt;Node51 -->
<g id="edge32" class="edge">
<title>Node42&#45;&gt;Node51</title>
<path fill="none" stroke="#191970" d="M205.1664,-290.4973C225.1269,-287.9773 250.282,-284.8016 271.9569,-282.0652"/>
<polygon fill="#191970" stroke="#191970" points="272.4758,-285.5276 281.9587,-280.8026 271.599,-278.5827 272.4758,-285.5276"/>
</g>
<!-- Node52 -->
<g id="node24" class="node">
<title>Node52</title>
<g id="a_node24"><a xlink:href="_a_e_s_8c.html#aef4d8fc4282e3cc21708d25c0ec9ad06" target="_top" xlink:title="AddRoundKey &#45; Function that performs the Bitwise XOR between state and key as per AES encryption...">
<polygon fill="#ffffff" stroke="#000000" points="280,-228.5 280,-247.5 360,-247.5 360,-228.5 280,-228.5"/>
<text text-anchor="middle" x="320" y="-235.5" font-family="Helvetica,sans-Serif" font-size="10.00" fill="#000000">AddRoundKey</text>
</a>
</g>
</g>
<!-- Node42&#45;&gt;Node52 -->
<g id="edge33" class="edge">
<title>Node42&#45;&gt;Node52</title>
<path fill="none" stroke="#191970" d="M189.4815,-285.3669C206.8284,-277.2116 232.7444,-265.5221 256,-257 262.0705,-254.7754 268.5342,-252.6182 274.9314,-250.6046"/>
<polygon fill="#191970" stroke="#191970" points="276.3229,-253.8393 284.8636,-247.5696 274.2772,-247.1448 276.3229,-253.8393"/>
</g>
<!-- Node53 -->
<g id="node25" class="node">
<title>Node53</title>
<g id="a_node25"><a xlink:href="_a_e_s_8c.html#a903e34d08dd07be2e2d9618d4d489ee6" target="_top" xlink:title="invShiftRows &#45; Function to shift the state array Inverse according to the AES encryption standard for...">
<polygon fill="#ffffff" stroke="#000000" points="282.5,-152.5 282.5,-171.5 357.5,-171.5 357.5,-152.5 282.5,-152.5"/>
<text text-anchor="middle" x="320" y="-159.5" font-family="Helvetica,sans-Serif" font-size="10.00" fill="#000000">invShiftRows</text>
</a>
</g>
</g>
<!-- Node42&#45;&gt;Node53 -->
<g id="edge34" class="edge">
<title>Node42&#45;&gt;Node53</title>
<path fill="none" stroke="#191970" d="M174.6752,-285.4039C186.4248,-264.4666 217.1364,-214.299 256,-186 261.6718,-181.87 268.1376,-178.3675 274.728,-175.423"/>
<polygon fill="#191970" stroke="#191970" points="276.445,-178.5035 284.395,-171.5 273.8128,-172.0172 276.445,-178.5035"/>
</g>
<!-- Node55 -->
<g id="node27" class="node">
<title>Node55</title>
<g id="a_node27"><a xlink:href="_a_e_s_8c.html#a8e72edc1f652f8626aacd2781303c86b" target="_top" xlink:title="invSubBytes &#45; Function that performs the inverse of Function subBytes ">
<polygon fill="#ffffff" stroke="#000000" points="284,-114.5 284,-133.5 356,-133.5 356,-114.5 284,-114.5"/>
<text text-anchor="middle" x="320" y="-121.5" font-family="Helvetica,sans-Serif" font-size="10.00" fill="#000000">invSubBytes</text>
</a>
</g>
</g>
<!-- Node42&#45;&gt;Node55 -->
<g id="edge36" class="edge">
<title>Node42&#45;&gt;Node55</title>
<path fill="none" stroke="#191970" d="M172.2659,-285.1142C180.3481,-258.0692 206.5376,-182.2678 256,-143 261.3671,-138.7391 267.6689,-135.4329 274.1874,-132.8676"/>
<polygon fill="#191970" stroke="#191970" points="275.4569,-136.1331 283.8091,-129.6146 273.2148,-129.5019 275.4569,-136.1331"/>
</g>
<!-- Node57 -->
<g id="node29" class="node">
<title>Node57</title>
<g id="a_node29"><a xlink:href="_a_e_s_8c.html#a9de891875f23dd3dff8fe3f8e10ba3ad" target="_top" xlink:title="invMixColumns &#45; Function that does the inverse of the Mix Column Step for AES Encryption. Performs the gallois field multiplication and the required XOR to the state passed in as a paramter ">
<polygon fill="#ffffff" stroke="#000000" points="278,-76.5 278,-95.5 362,-95.5 362,-76.5 278,-76.5"/>
<text text-anchor="middle" x="320" y="-83.5" font-family="Helvetica,sans-Serif" font-size="10.00" fill="#000000">invMixColumns</text>
</a>
</g>
</g>
<!-- Node42&#45;&gt;Node57 -->
<g id="edge38" class="edge">
<title>Node42&#45;&gt;Node57</title>
<path fill="none" stroke="#191970" d="M170.9961,-285.4469C176.3556,-254.4765 197.4888,-155.9139 256,-105 259.686,-101.7926 263.8935,-99.1263 268.3508,-96.9099"/>
<polygon fill="#191970" stroke="#191970" points="269.8952,-100.0577 277.7639,-92.9631 267.1884,-93.6022 269.8952,-100.0577"/>
</g>
<!-- Node46&#45;&gt;Node31 -->
<g id="edge25" class="edge">
<title>Node46&#45;&gt;Node31</title>
<path fill="none" stroke="#191970" d="M367.9758,-323.5098C373.7487,-325.9775 379.2658,-329.0855 384,-333 433.0493,-373.5564 458.092,-448.3725 467.7062,-484.0554"/>
<polygon fill="#191970" stroke="#191970" points="464.4255,-485.3532 470.2965,-494.1727 471.2068,-483.617 464.4255,-485.3532"/>
</g>
<!-- Node46&#45;&gt;Node37 -->
<g id="edge26" class="edge">
<title>Node46&#45;&gt;Node37</title>
<path fill="none" stroke="#191970" d="M363.6959,-304.4433C370.7649,-301.9495 377.7929,-298.8458 384,-295 416.6936,-274.7435 445.1205,-239.2875 460.4449,-217.8915"/>
<polygon fill="#191970" stroke="#191970" points="463.3312,-219.8713 466.1845,-209.6679 457.591,-215.865 463.3312,-219.8713"/>
</g>
<!-- Node47 -->
<g id="node19" class="node">
<title>Node47</title>
<g id="a_node19"><a xlink:href="_a_e_s_8c.html#af2f914cf17729a0ee89102c98b39665e" target="_top" xlink:title="KeyScheduleCore &#45; Function that performs the key schedule core for the Rijndael Key Schedule...">
<polygon fill="#ffffff" stroke="#000000" points="425,-323.5 425,-342.5 520,-342.5 520,-323.5 425,-323.5"/>
<text text-anchor="middle" x="472.5" y="-330.5" font-family="Helvetica,sans-Serif" font-size="10.00" fill="#000000">KeyScheduleCore</text>
</a>
</g>
</g>
<!-- Node46&#45;&gt;Node47 -->
<g id="edge27" class="edge">
<title>Node46&#45;&gt;Node47</title>
<path fill="none" stroke="#191970" d="M375.056,-320.8594C387.8467,-322.453 401.5018,-324.1543 414.4183,-325.7636"/>
<polygon fill="#191970" stroke="#191970" points="414.232,-329.2674 424.5881,-327.0306 415.0975,-322.3211 414.232,-329.2674"/>
</g>
<!-- Node49 -->
<g id="node21" class="node">
<title>Node49</title>
<g id="a_node21"><a xlink:href="_a_e_s_8c.html#acdf4abe2846c02b4d3e674782807fdfa" target="_top" xlink:title="getSBoxValue &#45; Function to return the sBox value passed in as a parameter ">
<polygon fill="#ffffff" stroke="#000000" points="566,-285.5 566,-304.5 645,-304.5 645,-285.5 566,-285.5"/>
<text text-anchor="middle" x="605.5" y="-292.5" font-family="Helvetica,sans-Serif" font-size="10.00" fill="#000000">getSBoxValue</text>
</a>
</g>
</g>
<!-- Node46&#45;&gt;Node49 -->
<g id="edge31" class="edge">
<title>Node46&#45;&gt;Node49</title>
<path fill="none" stroke="#191970" d="M375.0473,-310.3366C427.347,-306.8561 505.2897,-301.669 555.7608,-298.3101"/>
<polygon fill="#191970" stroke="#191970" points="556.0382,-301.7995 565.7837,-297.6431 555.5733,-294.815 556.0382,-301.7995"/>
</g>
<!-- Node48 -->
<g id="node20" class="node">
<title>Node48</title>
<g id="a_node20"><a xlink:href="_a_e_s_8c.html#ac769b0533ccecd203cc3ab64e6b2f950" target="_top" xlink:title="SingleRotateLeft &#45; Function to rotate the array passed in as a paramter. ">
<polygon fill="#ffffff" stroke="#000000" points="561,-361.5 561,-380.5 650,-380.5 650,-361.5 561,-361.5"/>
<text text-anchor="middle" x="605.5" y="-368.5" font-family="Helvetica,sans-Serif" font-size="10.00" fill="#000000">SingleRotateLeft</text>
</a>
</g>
</g>
<!-- Node47&#45;&gt;Node48 -->
<g id="edge28" class="edge">
<title>Node47&#45;&gt;Node48</title>
<path fill="none" stroke="#191970" d="M506.0615,-342.589C523.073,-347.4494 543.9319,-353.4091 562.1446,-358.6127"/>
<polygon fill="#191970" stroke="#191970" points="561.3724,-362.0321 571.9492,-361.4141 563.2955,-355.3014 561.3724,-362.0321"/>
</g>
<!-- Node47&#45;&gt;Node49 -->
<g id="edge29" class="edge">
<title>Node47&#45;&gt;Node49</title>
<path fill="none" stroke="#191970" d="M506.0615,-323.411C523.073,-318.5506 543.9319,-312.5909 562.1446,-307.3873"/>
<polygon fill="#191970" stroke="#191970" points="563.2955,-310.6986 571.9492,-304.5859 561.3724,-303.9679 563.2955,-310.6986"/>
</g>
<!-- Node50 -->
<g id="node22" class="node">
<title>Node50</title>
<g id="a_node22"><a xlink:href="_a_e_s_8c.html#a4e58d2e928429bc56387394251b8ece5" target="_top" xlink:title="getRconValue &#45; Function to return the Rcon value for the index passed in as a parameter ...">
<polygon fill="#ffffff" stroke="#000000" points="566.5,-323.5 566.5,-342.5 644.5,-342.5 644.5,-323.5 566.5,-323.5"/>
<text text-anchor="middle" x="605.5" y="-330.5" font-family="Helvetica,sans-Serif" font-size="10.00" fill="#000000">getRconValue</text>
</a>
</g>
</g>
<!-- Node47&#45;&gt;Node50 -->
<g id="edge30" class="edge">
<title>Node47&#45;&gt;Node50</title>
<path fill="none" stroke="#191970" d="M520.1404,-333C531.7856,-333 544.272,-333 556.0019,-333"/>
<polygon fill="#191970" stroke="#191970" points="556.0751,-336.5001 566.0751,-333 556.0751,-329.5001 556.0751,-336.5001"/>
</g>
<!-- Node54 -->
<g id="node26" class="node">
<title>Node54</title>
<g id="a_node26"><a xlink:href="_a_e_s_8c.html#a4fc33ada95d0d2aaea28086aefe173bb" target="_top" xlink:title="SingleRotateRight &#45; Function to rotate the array passed in as a paramter. ">
<polygon fill="#ffffff" stroke="#000000" points="424.5,-152.5 424.5,-171.5 520.5,-171.5 520.5,-152.5 424.5,-152.5"/>
<text text-anchor="middle" x="472.5" y="-159.5" font-family="Helvetica,sans-Serif" font-size="10.00" fill="#000000">SingleRotateRight</text>
</a>
</g>
</g>
<!-- Node53&#45;&gt;Node54 -->
<g id="edge35" class="edge">
<title>Node53&#45;&gt;Node54</title>
<path fill="none" stroke="#191970" d="M357.6966,-162C374.7431,-162 395.2782,-162 414.2394,-162"/>
<polygon fill="#191970" stroke="#191970" points="414.2808,-165.5001 424.2808,-162 414.2807,-158.5001 414.2808,-165.5001"/>
</g>
<!-- Node56 -->
<g id="node28" class="node">
<title>Node56</title>
<g id="a_node28"><a xlink:href="_a_e_s_8c.html#a425f9b1e2cd595f2c45f129bc5d0a6d0" target="_top" xlink:title="getInvSBox &#45; Function to return the inverse sBox value passed in as a parameter ">
<polygon fill="#ffffff" stroke="#000000" points="438.5,-114.5 438.5,-133.5 506.5,-133.5 506.5,-114.5 438.5,-114.5"/>
<text text-anchor="middle" x="472.5" y="-121.5" font-family="Helvetica,sans-Serif" font-size="10.00" fill="#000000">getInvSBox</text>
</a>
</g>
</g>
<!-- Node55&#45;&gt;Node56 -->
<g id="edge37" class="edge">
<title>Node55&#45;&gt;Node56</title>
<path fill="none" stroke="#191970" d="M356.1404,-124C377.7561,-124 405.3838,-124 428.2938,-124"/>
<polygon fill="#191970" stroke="#191970" points="428.4496,-127.5001 438.4495,-124 428.4495,-120.5001 428.4496,-127.5001"/>
</g>
<!-- Node58 -->
<g id="node30" class="node">
<title>Node58</title>
<g id="a_node30"><a xlink:href="_a_e_s_8c.html#a7dbbb13c3ab5608765b6d368eb9f4fe1" target="_top" xlink:title="galloisFieldMult &#45; Function to perform the Galois field multiplication operation required for the inv...">
<polygon fill="#ffffff" stroke="#000000" points="430.5,-76.5 430.5,-95.5 514.5,-95.5 514.5,-76.5 430.5,-76.5"/>
<text text-anchor="middle" x="472.5" y="-83.5" font-family="Helvetica,sans-Serif" font-size="10.00" fill="#000000">galloisFieldMult</text>
</a>
</g>
</g>
<!-- Node57&#45;&gt;Node58 -->
<g id="edge39" class="edge">
<title>Node57&#45;&gt;Node58</title>
<path fill="none" stroke="#191970" d="M362.075,-86C380.0022,-86 401.1073,-86 420.0383,-86"/>
<polygon fill="#191970" stroke="#191970" points="420.2979,-89.5001 430.2979,-86 420.2978,-82.5001 420.2979,-89.5001"/>
</g>
</g>
</svg>
