<?xml version="1.0" encoding="UTF-8" standalone="no"?>
<!DOCTYPE svg PUBLIC "-//W3C//DTD SVG 1.1//EN"
 "http://www.w3.org/Graphics/SVG/1.1/DTD/svg11.dtd">
<!-- Generated by graphviz version 2.40.1 (20161225.0304)
 -->
<!-- Title: cbcDecrypt Pages: 1 -->
<svg width="624pt" height="660pt"
 viewBox="0.00 0.00 624.00 660.44" xmlns="http://www.w3.org/2000/svg" xmlns:xlink="http://www.w3.org/1999/xlink">
<g id="graph0" class="graph" transform="scale(1 1) rotate(0) translate(4 656.4391)">
<title>cbcDecrypt</title>
<polygon fill="#ffffff" stroke="transparent" points="-4,4 -4,-656.4391 620,-656.4391 620,4 -4,4"/>
<!-- Node0 -->
<g id="node1" class="node">
<title>Node0</title>
<polygon fill="#bfbfbf" stroke="#000000" points="0,-494.5 0,-513.5 67,-513.5 67,-494.5 0,-494.5"/>
<text text-anchor="middle" x="33.5" y="-501.5" font-family="Helvetica,sans-Serif" font-size="10.00" fill="#000000">cbcDecrypt</text>
</g>
<!-- Node1 -->
<g id="node2" class="node">
<title>Node1</title>
<g id="a_node2"><a xlink:href="_a_e_s_8c.html#afba897e91364663f883cc51ed309dc92" target="_top" xlink:title="keyHexToAscii &#45; Function to convert a key from a Hex string passed in as a paramter ...">
<polygon fill="#ffffff" stroke="#000000" points="103,-570.5 103,-589.5 186,-589.5 186,-570.5 103,-570.5"/>
<text text-anchor="middle" x="144.5" y="-577.5" font-family="Helvetica,sans-Serif" font-size="10.00" fill="#000000">keyHexToAscii</text>
</a>
</g>
</g>
<!-- Node0&#45;&gt;Node1 -->
<g id="edge1" class="edge">
<title>Node0&#45;&gt;Node1</title>
<path fill="none" stroke="#191970" d="M45.4885,-513.653C59.097,-524.4474 82.1215,-542.2213 103,-556 107.7758,-559.1517 112.9795,-562.3416 118.0368,-565.3217"/>
<polygon fill="#191970" stroke="#191970" points="116.4463,-568.4447 126.858,-570.406 119.9419,-562.3799 116.4463,-568.4447"/>
</g>
<!-- Node2 -->
<g id="node3" class="node">
<title>Node2</title>
<g id="a_node3"><a xlink:href="_a_e_s_8c.html#a1c2a403d95a85400bbae142d48cb8c9d" target="_top" xlink:title="getNumRounds &#45; Function to return the number of rounds of AES encryption and decryption based off of ...">
<polygon fill="#ffffff" stroke="#000000" points="396,-494.5 396,-513.5 481,-513.5 481,-494.5 396,-494.5"/>
<text text-anchor="middle" x="438.5" y="-501.5" font-family="Helvetica,sans-Serif" font-size="10.00" fill="#000000">getNumRounds</text>
</a>
</g>
</g>
<!-- Node0&#45;&gt;Node2 -->
<g id="edge11" class="edge">
<title>Node0&#45;&gt;Node2</title>
<path fill="none" stroke="#191970" d="M67.3335,-504C137.87,-504 301.0872,-504 385.6207,-504"/>
<polygon fill="#191970" stroke="#191970" points="385.7751,-507.5001 395.775,-504 385.775,-500.5001 385.7751,-507.5001"/>
</g>
<!-- Node3 -->
<g id="node4" class="node">
<title>Node3</title>
<g id="a_node4"><a xlink:href="_a_e_s_8c.html#a5d65eac115e562c64b00a43e72ee6aca" target="_top" xlink:title="getPaddedKeyLength &#45; Function to return a valid key length (in bytes) based off of the current key le...">
<polygon fill="#ffffff" stroke="#000000" points="231,-532.5 231,-551.5 341,-551.5 341,-532.5 231,-532.5"/>
<text text-anchor="middle" x="286" y="-539.5" font-family="Helvetica,sans-Serif" font-size="10.00" fill="#000000">getPaddedKeyLength</text>
</a>
</g>
</g>
<!-- Node0&#45;&gt;Node3 -->
<g id="edge10" class="edge">
<title>Node0&#45;&gt;Node3</title>
<path fill="none" stroke="#191970" d="M67.35,-511.3015C78.6562,-513.6112 91.3437,-516.064 103,-518 141.8394,-524.451 185.5527,-530.2383 220.5141,-534.5129"/>
<polygon fill="#191970" stroke="#191970" points="220.2503,-538.0064 230.5985,-535.7337 221.0917,-531.0571 220.2503,-538.0064"/>
</g>
<!-- Node4 -->
<g id="node5" class="node">
<title>Node4</title>
<g id="a_node5"><a xlink:href="_a_e_s_8c.html#ad697cbb5d9e462b3017df1f1d939ee96" target="_top" xlink:title="hexToAsciiString &#45; Function that converts a given string of hex values into its ASCII equivalent...">
<polygon fill="#ffffff" stroke="#000000" points="240.5,-608.5 240.5,-627.5 331.5,-627.5 331.5,-608.5 240.5,-608.5"/>
<text text-anchor="middle" x="286" y="-615.5" font-family="Helvetica,sans-Serif" font-size="10.00" fill="#000000">hexToAsciiString</text>
</a>
</g>
</g>
<!-- Node0&#45;&gt;Node4 -->
<g id="edge9" class="edge">
<title>Node0&#45;&gt;Node4</title>
<path fill="none" stroke="#191970" d="M35.0942,-513.6816C39.9014,-539.3453 56.8733,-609.059 103,-637 150.5249,-665.788 217.9601,-646.6794 256.3031,-631.4744"/>
<polygon fill="#191970" stroke="#191970" points="257.9453,-634.5829 265.8503,-627.5286 255.2716,-628.1136 257.9453,-634.5829"/>
</g>
<!-- Node7 -->
<g id="node8" class="node">
<title>Node7</title>
<g id="a_node8"><a xlink:href="_a_e_s_8c.html#ad82d1b77336ac1292ed5a24b92380f42" target="_top" xlink:title="IVHexToAscii &#45; Function to convert a initialization vector from a Hex string passed in as a paramter...">
<polygon fill="#ffffff" stroke="#000000" points="106,-608.5 106,-627.5 183,-627.5 183,-608.5 106,-608.5"/>
<text text-anchor="middle" x="144.5" y="-615.5" font-family="Helvetica,sans-Serif" font-size="10.00" fill="#000000">IVHexToAscii</text>
</a>
</g>
</g>
<!-- Node0&#45;&gt;Node7 -->
<g id="edge7" class="edge">
<title>Node0&#45;&gt;Node7</title>
<path fill="none" stroke="#191970" d="M38.3493,-513.608C48.2075,-532.3051 72.28,-573.9403 103,-599 104.9879,-600.6216 107.1367,-602.137 109.374,-603.547"/>
<polygon fill="#191970" stroke="#191970" points="107.8413,-606.6987 118.2878,-608.4652 111.223,-600.5697 107.8413,-606.6987"/>
</g>
<!-- Node8 -->
<g id="node9" class="node">
<title>Node8</title>
<g id="a_node9"><a xlink:href="_a_e_s_8c.html#a0e0b199ded54d7fb53a3bda3fcc02256" target="_top" xlink:title="validateNumRounds &#45; Function that validates the number of rounds that have been passed in by the ...">
<polygon fill="#ffffff" stroke="#000000" points="386,-380.5 386,-399.5 491,-399.5 491,-380.5 386,-380.5"/>
<text text-anchor="middle" x="438.5" y="-387.5" font-family="Helvetica,sans-Serif" font-size="10.00" fill="#000000">validateNumRounds</text>
</a>
</g>
</g>
<!-- Node0&#45;&gt;Node8 -->
<g id="edge12" class="edge">
<title>Node0&#45;&gt;Node8</title>
<path fill="none" stroke="#191970" d="M47.8571,-494.3359C78.3675,-474.363 152.5613,-428.7556 222,-409 272.3964,-394.662 331.8233,-390.2885 375.6543,-389.288"/>
<polygon fill="#191970" stroke="#191970" points="375.9453,-392.7836 385.8825,-389.109 375.8228,-385.7846 375.9453,-392.7836"/>
</g>
<!-- Node9 -->
<g id="node10" class="node">
<title>Node9</title>
<g id="a_node10"><a xlink:href="_a_e_s_8c.html#ab51c63e6483f94f12bbc9b256374ec64" target="_top" xlink:title="AESDecrypt &#45; Function to decrypt a single block of ciphertext passed in as parameter &#160;cipherText usin...">
<polygon fill="#ffffff" stroke="#000000" points="109,-266.5 109,-285.5 180,-285.5 180,-266.5 109,-266.5"/>
<text text-anchor="middle" x="144.5" y="-273.5" font-family="Helvetica,sans-Serif" font-size="10.00" fill="#000000">AESDecrypt</text>
</a>
</g>
</g>
<!-- Node0&#45;&gt;Node9 -->
<g id="edge13" class="edge">
<title>Node0&#45;&gt;Node9</title>
<path fill="none" stroke="#191970" d="M38.1282,-494.4934C54.9122,-460.0181 112.7765,-341.1619 135.3652,-294.7634"/>
<polygon fill="#191970" stroke="#191970" points="138.6216,-296.0703 139.852,-285.5472 132.3278,-293.0062 138.6216,-296.0703"/>
</g>
<!-- Node26 -->
<g id="node27" class="node">
<title>Node26</title>
<g id="a_node27"><a xlink:href="_a_e_s_8c.html#aaba2e1b9466483b3c6b8669eb42aa5ed" target="_top" xlink:title="printAESBlock &#45; Function to print a single block in hex format to the terminal. ">
<polygon fill="#ffffff" stroke="#000000" points="246,-.5 246,-19.5 326,-19.5 326,-.5 246,-.5"/>
<text text-anchor="middle" x="286" y="-7.5" font-family="Helvetica,sans-Serif" font-size="10.00" fill="#000000">printAESBlock</text>
</a>
</g>
</g>
<!-- Node0&#45;&gt;Node26 -->
<g id="edge38" class="edge">
<title>Node0&#45;&gt;Node26</title>
<path fill="none" stroke="#191970" d="M35.1035,-494.3523C42.0658,-453.4394 70.7762,-294.6523 103,-257 129.38,-226.176 160.9859,-250.9424 186,-219 238.9904,-151.3326 164.3823,-92.7735 222,-29 226.0319,-24.5373 231.0589,-21.1031 236.5118,-18.4638"/>
<polygon fill="#191970" stroke="#191970" points="237.9681,-21.652 245.9903,-14.7314 235.4033,-15.1388 237.9681,-21.652"/>
</g>
<!-- Node27 -->
<g id="node28" class="node">
<title>Node27</title>
<g id="a_node28"><a xlink:href="_a_e_s_8c.html#ab601c369ba50730fc02d03bc44aad4e0" target="_top" xlink:title="XORBlocks &#45; Function to XOR two blocks of length. ">
<polygon fill="#ffffff" stroke="#000000" points="110.5,-190.5 110.5,-209.5 178.5,-209.5 178.5,-190.5 110.5,-190.5"/>
<text text-anchor="middle" x="144.5" y="-197.5" font-family="Helvetica,sans-Serif" font-size="10.00" fill="#000000">XORBlocks</text>
</a>
</g>
</g>
<!-- Node0&#45;&gt;Node27 -->
<g id="edge37" class="edge">
<title>Node0&#45;&gt;Node27</title>
<path fill="none" stroke="#191970" d="M34.8628,-494.3661C41.2344,-450.3902 69.2047,-268.9306 103,-224 105.4624,-220.7263 108.512,-217.8242 111.8319,-215.2719"/>
<polygon fill="#191970" stroke="#191970" points="114.0027,-218.0345 120.461,-209.6356 110.1747,-212.1739 114.0027,-218.0345"/>
</g>
<!-- Node1&#45;&gt;Node2 -->
<g id="edge2" class="edge">
<title>Node1&#45;&gt;Node2</title>
<path fill="none" stroke="#191970" d="M186.2619,-581.8699C228.6649,-582.4604 295.638,-579.7537 350,-561 376.1873,-551.9659 402.3903,-533.6467 419.4095,-520.2051"/>
<polygon fill="#191970" stroke="#191970" points="421.8682,-522.7171 427.4235,-513.6956 417.4548,-517.2837 421.8682,-522.7171"/>
</g>
<!-- Node1&#45;&gt;Node3 -->
<g id="edge3" class="edge">
<title>Node1&#45;&gt;Node3</title>
<path fill="none" stroke="#191970" d="M180.2064,-570.411C198.4727,-565.5056 220.9084,-559.4804 240.4112,-554.2429"/>
<polygon fill="#191970" stroke="#191970" points="241.555,-557.5599 250.305,-551.5859 239.7394,-550.7994 241.555,-557.5599"/>
</g>
<!-- Node1&#45;&gt;Node4 -->
<g id="edge4" class="edge">
<title>Node1&#45;&gt;Node4</title>
<path fill="none" stroke="#191970" d="M180.2064,-589.589C198.4727,-594.4944 220.9084,-600.5196 240.4112,-605.7571"/>
<polygon fill="#191970" stroke="#191970" points="239.7394,-609.2006 250.305,-608.4141 241.555,-602.4401 239.7394,-609.2006"/>
</g>
<!-- Node5 -->
<g id="node6" class="node">
<title>Node5</title>
<g id="a_node6"><a xlink:href="_a_e_s_8c.html#aa177516503b10de65b504a3714073ad7" target="_top" xlink:title="hexToAscii &#45; Function that converts a given hex value to its ASCII equivalent. ">
<polygon fill="#ffffff" stroke="#000000" points="406,-608.5 406,-627.5 471,-627.5 471,-608.5 406,-608.5"/>
<text text-anchor="middle" x="438.5" y="-615.5" font-family="Helvetica,sans-Serif" font-size="10.00" fill="#000000">hexToAscii</text>
</a>
</g>
</g>
<!-- Node4&#45;&gt;Node5 -->
<g id="edge5" class="edge">
<title>Node4&#45;&gt;Node5</title>
<path fill="none" stroke="#191970" d="M331.755,-618C352.0764,-618 375.8576,-618 395.8093,-618"/>
<polygon fill="#191970" stroke="#191970" points="395.8551,-621.5001 405.8551,-618 395.8551,-614.5001 395.8551,-621.5001"/>
</g>
<!-- Node6 -->
<g id="node7" class="node">
<title>Node6</title>
<g id="a_node7"><a xlink:href="_a_e_s_8c.html#a7e5ab2188af44718071074f450963568" target="_top" xlink:title="hexToInt &#45; Function that converts a given hex value into an integer. ">
<polygon fill="#ffffff" stroke="#000000" points="544,-608.5 544,-627.5 599,-627.5 599,-608.5 544,-608.5"/>
<text text-anchor="middle" x="571.5" y="-615.5" font-family="Helvetica,sans-Serif" font-size="10.00" fill="#000000">hexToInt</text>
</a>
</g>
</g>
<!-- Node5&#45;&gt;Node6 -->
<g id="edge6" class="edge">
<title>Node5&#45;&gt;Node6</title>
<path fill="none" stroke="#191970" d="M471.0355,-618C489.9398,-618 513.85,-618 533.6014,-618"/>
<polygon fill="#191970" stroke="#191970" points="533.7947,-621.5001 543.7946,-618 533.7946,-614.5001 533.7947,-621.5001"/>
</g>
<!-- Node7&#45;&gt;Node4 -->
<g id="edge8" class="edge">
<title>Node7&#45;&gt;Node4</title>
<path fill="none" stroke="#191970" d="M183.1655,-618C197.6643,-618 214.4437,-618 230.1889,-618"/>
<polygon fill="#191970" stroke="#191970" points="230.3521,-621.5001 240.352,-618 230.352,-614.5001 230.3521,-621.5001"/>
</g>
<!-- Node9&#45;&gt;Node2 -->
<g id="edge15" class="edge">
<title>Node9&#45;&gt;Node2</title>
<path fill="none" stroke="#191970" d="M145.9717,-285.8801C150.88,-315.2324 169.459,-402.6236 222,-447 246.5994,-467.7768 330.0461,-485.5361 385.8617,-495.4807"/>
<polygon fill="#191970" stroke="#191970" points="385.488,-498.9684 395.9418,-497.2456 386.6953,-492.0733 385.488,-498.9684"/>
</g>
<!-- Node9&#45;&gt;Node3 -->
<g id="edge14" class="edge">
<title>Node9&#45;&gt;Node3</title>
<path fill="none" stroke="#191970" d="M146.5696,-285.628C153.4429,-316.1319 177.6296,-412.5952 222,-480 233.6929,-497.7632 251.2827,-514.3272 265.0645,-525.8578"/>
<polygon fill="#191970" stroke="#191970" points="263.0966,-528.7683 273.0668,-532.3525 267.5079,-523.3331 263.0966,-528.7683"/>
</g>
<!-- Node9&#45;&gt;Node8 -->
<g id="edge16" class="edge">
<title>Node9&#45;&gt;Node8</title>
<path fill="none" stroke="#191970" d="M154.7045,-285.5069C168.7923,-298.137 195.4771,-320.3254 222,-333 271.1276,-356.4769 331.3186,-371.3283 375.7537,-379.9642"/>
<polygon fill="#191970" stroke="#191970" points="375.3619,-383.4521 385.838,-381.8703 376.662,-376.5739 375.3619,-383.4521"/>
</g>
<!-- Node10 -->
<g id="node11" class="node">
<title>Node10</title>
<g id="a_node11"><a xlink:href="_a_e_s_8c.html#ae01a1e7833d53f19b534e37ace03a691" target="_top" xlink:title="validateCipherTextLength &#45; Function that validates the length of the ciphertext. The validation is do...">
<polygon fill="#ffffff" stroke="#000000" points="222,-304.5 222,-323.5 350,-323.5 350,-304.5 222,-304.5"/>
<text text-anchor="middle" x="286" y="-311.5" font-family="Helvetica,sans-Serif" font-size="10.00" fill="#000000">validateCipherTextLength</text>
</a>
</g>
</g>
<!-- Node9&#45;&gt;Node10 -->
<g id="edge17" class="edge">
<title>Node9&#45;&gt;Node10</title>
<path fill="none" stroke="#191970" d="M180.2064,-285.589C198.4727,-290.4944 220.9084,-296.5196 240.4112,-301.7571"/>
<polygon fill="#191970" stroke="#191970" points="239.7394,-305.2006 250.305,-304.4141 241.555,-298.4401 239.7394,-305.2006"/>
</g>
<!-- Node11 -->
<g id="node12" class="node">
<title>Node11</title>
<g id="a_node12"><a xlink:href="_a_e_s_8c.html#a1c1a633a58f7328faa397db9e45e7e0c" target="_top" xlink:title="constructStateArray &#45; Function to convert the state array from a flat 1D array to a multidimensional ...">
<polygon fill="#ffffff" stroke="#000000" points="234,-190.5 234,-209.5 338,-209.5 338,-190.5 234,-190.5"/>
<text text-anchor="middle" x="286" y="-197.5" font-family="Helvetica,sans-Serif" font-size="10.00" fill="#000000">constructStateArray</text>
</a>
</g>
</g>
<!-- Node9&#45;&gt;Node11 -->
<g id="edge18" class="edge">
<title>Node9&#45;&gt;Node11</title>
<path fill="none" stroke="#191970" d="M163.2214,-266.3131C170.5501,-262.2319 178.8877,-257.2199 186,-252 203.4982,-239.1577 203.1131,-229.6956 222,-219 225.9066,-216.7877 230.0961,-214.8099 234.3937,-213.0463"/>
<polygon fill="#191970" stroke="#191970" points="235.7464,-216.2777 243.9061,-209.5197 233.3131,-209.7142 235.7464,-216.2777"/>
</g>
<!-- Node12 -->
<g id="node13" class="node">
<title>Node12</title>
<g id="a_node13"><a xlink:href="_a_e_s_8c.html#ae9af90db32afa65125a7eec339ed9d58" target="_top" xlink:title="printStateArray &#45; Function to print the state array to the terminal in hex format. ">
<polygon fill="#ffffff" stroke="#000000" points="245,-152.5 245,-171.5 327,-171.5 327,-152.5 245,-152.5"/>
<text text-anchor="middle" x="286" y="-159.5" font-family="Helvetica,sans-Serif" font-size="10.00" fill="#000000">printStateArray</text>
</a>
</g>
</g>
<!-- Node9&#45;&gt;Node12 -->
<g id="edge19" class="edge">
<title>Node9&#45;&gt;Node12</title>
<path fill="none" stroke="#191970" d="M166.433,-266.3943C173.2989,-262.6289 180.5079,-257.8032 186,-252 210.3195,-226.3034 194.8275,-203.6585 222,-181 226.0141,-177.6528 230.5998,-174.8952 235.4312,-172.6234"/>
<polygon fill="#191970" stroke="#191970" points="236.9508,-175.7854 244.9395,-168.8262 234.3546,-169.2847 236.9508,-175.7854"/>
</g>
<!-- Node13 -->
<g id="node14" class="node">
<title>Node13</title>
<g id="a_node14"><a xlink:href="_a_e_s_8c.html#a185c827e4ccbc8e4608e83dfbf9dfc8e" target="_top" xlink:title="RijndaelKeySchedule &#45; Function that performs the Rijndael key scheduling for AES encryption. Takes in the original key passed in as parameter. ">
<polygon fill="#ffffff" stroke="#000000" points="231,-418.5 231,-437.5 341,-437.5 341,-418.5 231,-418.5"/>
<text text-anchor="middle" x="286" y="-425.5" font-family="Helvetica,sans-Serif" font-size="10.00" fill="#000000">RijndaelKeySchedule</text>
</a>
</g>
</g>
<!-- Node9&#45;&gt;Node13 -->
<g id="edge20" class="edge">
<title>Node9&#45;&gt;Node13</title>
<path fill="none" stroke="#191970" d="M152.3699,-285.7072C166.0746,-302.4798 195.404,-337.7974 222,-366 236.942,-381.8446 254.8048,-399.0124 267.8573,-411.2565"/>
<polygon fill="#191970" stroke="#191970" points="265.592,-413.9297 275.2935,-418.188 270.365,-408.8092 265.592,-413.9297"/>
</g>
<!-- Node18 -->
<g id="node19" class="node">
<title>Node18</title>
<g id="a_node19"><a xlink:href="_a_e_s_8c.html#abe15a731f43315f6f595674d3cd62d57" target="_top" xlink:title="getRoundKey &#45; Function to extract the correct sub&#45;key to use for the appropriate round specified by ...">
<polygon fill="#ffffff" stroke="#000000" points="248,-114.5 248,-133.5 324,-133.5 324,-114.5 248,-114.5"/>
<text text-anchor="middle" x="286" y="-121.5" font-family="Helvetica,sans-Serif" font-size="10.00" fill="#000000">getRoundKey</text>
</a>
</g>
</g>
<!-- Node9&#45;&gt;Node18 -->
<g id="edge28" class="edge">
<title>Node9&#45;&gt;Node18</title>
<path fill="none" stroke="#191970" d="M167.8252,-266.3852C174.4505,-262.7112 181.169,-257.9408 186,-252 218.1883,-212.4175 185.3803,-178.5227 222,-143 226.6406,-138.4984 232.2975,-135.0565 238.3075,-132.4261"/>
<polygon fill="#191970" stroke="#191970" points="239.7426,-135.6287 247.947,-128.9251 237.3529,-129.0492 239.7426,-135.6287"/>
</g>
<!-- Node19 -->
<g id="node20" class="node">
<title>Node19</title>
<g id="a_node20"><a xlink:href="_a_e_s_8c.html#aef4d8fc4282e3cc21708d25c0ec9ad06" target="_top" xlink:title="AddRoundKey &#45; Function that performs the Bitwise XOR between state and key as per AES encryption...">
<polygon fill="#ffffff" stroke="#000000" points="246,-76.5 246,-95.5 326,-95.5 326,-76.5 246,-76.5"/>
<text text-anchor="middle" x="286" y="-83.5" font-family="Helvetica,sans-Serif" font-size="10.00" fill="#000000">AddRoundKey</text>
</a>
</g>
</g>
<!-- Node9&#45;&gt;Node19 -->
<g id="edge29" class="edge">
<title>Node9&#45;&gt;Node19</title>
<path fill="none" stroke="#191970" d="M168.5508,-266.3733C175.0435,-262.7389 181.5067,-257.9933 186,-252 226.3488,-198.1816 175.6024,-153.7002 222,-105 226.0974,-100.6993 231.1192,-97.3591 236.5311,-94.7671"/>
<polygon fill="#191970" stroke="#191970" points="237.8899,-97.9937 245.9129,-91.074 235.3259,-91.4802 237.8899,-97.9937"/>
</g>
<!-- Node20 -->
<g id="node21" class="node">
<title>Node20</title>
<g id="a_node21"><a xlink:href="_a_e_s_8c.html#a903e34d08dd07be2e2d9618d4d489ee6" target="_top" xlink:title="invShiftRows &#45; Function to shift the state array Inverse according to the AES encryption standard for...">
<polygon fill="#ffffff" stroke="#000000" points="248.5,-266.5 248.5,-285.5 323.5,-285.5 323.5,-266.5 248.5,-266.5"/>
<text text-anchor="middle" x="286" y="-273.5" font-family="Helvetica,sans-Serif" font-size="10.00" fill="#000000">invShiftRows</text>
</a>
</g>
</g>
<!-- Node9&#45;&gt;Node20 -->
<g id="edge30" class="edge">
<title>Node9&#45;&gt;Node20</title>
<path fill="none" stroke="#191970" d="M180.2064,-276C197.7525,-276 219.1457,-276 238.0911,-276"/>
<polygon fill="#191970" stroke="#191970" points="238.3245,-279.5001 248.3245,-276 238.3245,-272.5001 238.3245,-279.5001"/>
</g>
<!-- Node22 -->
<g id="node23" class="node">
<title>Node22</title>
<g id="a_node23"><a xlink:href="_a_e_s_8c.html#a8e72edc1f652f8626aacd2781303c86b" target="_top" xlink:title="invSubBytes &#45; Function that performs the inverse of Function subBytes ">
<polygon fill="#ffffff" stroke="#000000" points="250,-228.5 250,-247.5 322,-247.5 322,-228.5 250,-228.5"/>
<text text-anchor="middle" x="286" y="-235.5" font-family="Helvetica,sans-Serif" font-size="10.00" fill="#000000">invSubBytes</text>
</a>
</g>
</g>
<!-- Node9&#45;&gt;Node22 -->
<g id="edge32" class="edge">
<title>Node9&#45;&gt;Node22</title>
<path fill="none" stroke="#191970" d="M180.2064,-266.411C198.4727,-261.5056 220.9084,-255.4804 240.4112,-250.2429"/>
<polygon fill="#191970" stroke="#191970" points="241.555,-253.5599 250.305,-247.5859 239.7394,-246.7994 241.555,-253.5599"/>
</g>
<!-- Node24 -->
<g id="node25" class="node">
<title>Node24</title>
<g id="a_node25"><a xlink:href="_a_e_s_8c.html#a9de891875f23dd3dff8fe3f8e10ba3ad" target="_top" xlink:title="invMixColumns &#45; Function that does the inverse of the Mix Column Step for AES Encryption. Performs the gallois field multiplication and the required XOR to the state passed in as a paramter ">
<polygon fill="#ffffff" stroke="#000000" points="244,-38.5 244,-57.5 328,-57.5 328,-38.5 244,-38.5"/>
<text text-anchor="middle" x="286" y="-45.5" font-family="Helvetica,sans-Serif" font-size="10.00" fill="#000000">invMixColumns</text>
</a>
</g>
</g>
<!-- Node9&#45;&gt;Node24 -->
<g id="edge34" class="edge">
<title>Node9&#45;&gt;Node24</title>
<path fill="none" stroke="#191970" d="M169.1669,-266.2633C175.5159,-262.6635 181.7484,-257.9638 186,-252 234.6247,-183.7935 165.692,-129.0153 222,-67 225.5134,-63.1305 229.7748,-60.0347 234.4117,-57.56"/>
<polygon fill="#191970" stroke="#191970" points="235.917,-60.7222 243.6936,-53.5267 233.1272,-54.3021 235.917,-60.7222"/>
</g>
<!-- Node9&#45;&gt;Node26 -->
<g id="edge36" class="edge">
<title>Node9&#45;&gt;Node26</title>
<path fill="none" stroke="#191970" d="M169.2914,-266.3506C175.6424,-262.7521 181.8447,-258.0314 186,-252 242.9571,-169.3265 155.7162,-104.402 222,-29 225.9709,-24.4829 230.9615,-21.0163 236.3953,-18.3601"/>
<polygon fill="#191970" stroke="#191970" points="237.8485,-21.5491 245.8567,-14.6123 235.2705,-15.0411 237.8485,-21.5491"/>
</g>
<!-- Node13&#45;&gt;Node2 -->
<g id="edge21" class="edge">
<title>Node13&#45;&gt;Node2</title>
<path fill="none" stroke="#191970" d="M317.1194,-437.5383C327.8521,-441.3775 339.7465,-446.2658 350,-452 367.6913,-461.8936 368.6658,-469.4933 386,-480 392.0461,-483.6647 398.7469,-487.1322 405.2822,-490.2329"/>
<polygon fill="#191970" stroke="#191970" points="404.092,-493.5366 414.6435,-494.4935 406.9918,-487.1654 404.092,-493.5366"/>
</g>
<!-- Node13&#45;&gt;Node8 -->
<g id="edge22" class="edge">
<title>Node13&#45;&gt;Node8</title>
<path fill="none" stroke="#191970" d="M324.4822,-418.411C344.5156,-413.4191 369.2023,-407.2676 390.476,-401.9666"/>
<polygon fill="#191970" stroke="#191970" points="391.4375,-405.3341 400.2945,-399.5201 389.745,-398.5418 391.4375,-405.3341"/>
</g>
<!-- Node14 -->
<g id="node15" class="node">
<title>Node14</title>
<g id="a_node15"><a xlink:href="_a_e_s_8c.html#af2f914cf17729a0ee89102c98b39665e" target="_top" xlink:title="KeyScheduleCore &#45; Function that performs the key schedule core for the Rijndael Key Schedule...">
<polygon fill="#ffffff" stroke="#000000" points="391,-418.5 391,-437.5 486,-437.5 486,-418.5 391,-418.5"/>
<text text-anchor="middle" x="438.5" y="-425.5" font-family="Helvetica,sans-Serif" font-size="10.00" fill="#000000">KeyScheduleCore</text>
</a>
</g>
</g>
<!-- Node13&#45;&gt;Node14 -->
<g id="edge23" class="edge">
<title>Node13&#45;&gt;Node14</title>
<path fill="none" stroke="#191970" d="M341.056,-428C353.8467,-428 367.5018,-428 380.4183,-428"/>
<polygon fill="#191970" stroke="#191970" points="380.5881,-431.5001 390.5881,-428 380.588,-424.5001 380.5881,-431.5001"/>
</g>
<!-- Node16 -->
<g id="node17" class="node">
<title>Node16</title>
<g id="a_node17"><a xlink:href="_a_e_s_8c.html#acdf4abe2846c02b4d3e674782807fdfa" target="_top" xlink:title="getSBoxValue &#45; Function to return the sBox value passed in as a parameter ">
<polygon fill="#ffffff" stroke="#000000" points="532,-456.5 532,-475.5 611,-475.5 611,-456.5 532,-456.5"/>
<text text-anchor="middle" x="571.5" y="-463.5" font-family="Helvetica,sans-Serif" font-size="10.00" fill="#000000">getSBoxValue</text>
</a>
</g>
</g>
<!-- Node13&#45;&gt;Node16 -->
<g id="edge27" class="edge">
<title>Node13&#45;&gt;Node16</title>
<path fill="none" stroke="#191970" d="M331.6613,-437.5288C348.6656,-440.852 368.1638,-444.397 386,-447 431.8249,-453.6876 484.3587,-458.834 521.7949,-462.0734"/>
<polygon fill="#191970" stroke="#191970" points="521.6746,-465.5757 531.9354,-462.9362 522.2682,-458.6009 521.6746,-465.5757"/>
</g>
<!-- Node15 -->
<g id="node16" class="node">
<title>Node15</title>
<g id="a_node16"><a xlink:href="_a_e_s_8c.html#ac769b0533ccecd203cc3ab64e6b2f950" target="_top" xlink:title="SingleRotateLeft &#45; Function to rotate the array passed in as a paramter. ">
<polygon fill="#ffffff" stroke="#000000" points="527,-380.5 527,-399.5 616,-399.5 616,-380.5 527,-380.5"/>
<text text-anchor="middle" x="571.5" y="-387.5" font-family="Helvetica,sans-Serif" font-size="10.00" fill="#000000">SingleRotateLeft</text>
</a>
</g>
</g>
<!-- Node14&#45;&gt;Node15 -->
<g id="edge24" class="edge">
<title>Node14&#45;&gt;Node15</title>
<path fill="none" stroke="#191970" d="M472.0615,-418.411C489.073,-413.5506 509.9319,-407.5909 528.1446,-402.3873"/>
<polygon fill="#191970" stroke="#191970" points="529.2955,-405.6986 537.9492,-399.5859 527.3724,-398.9679 529.2955,-405.6986"/>
</g>
<!-- Node14&#45;&gt;Node16 -->
<g id="edge25" class="edge">
<title>Node14&#45;&gt;Node16</title>
<path fill="none" stroke="#191970" d="M472.0615,-437.589C489.073,-442.4494 509.9319,-448.4091 528.1446,-453.6127"/>
<polygon fill="#191970" stroke="#191970" points="527.3724,-457.0321 537.9492,-456.4141 529.2955,-450.3014 527.3724,-457.0321"/>
</g>
<!-- Node17 -->
<g id="node18" class="node">
<title>Node17</title>
<g id="a_node18"><a xlink:href="_a_e_s_8c.html#a4e58d2e928429bc56387394251b8ece5" target="_top" xlink:title="getRconValue &#45; Function to return the Rcon value for the index passed in as a parameter ...">
<polygon fill="#ffffff" stroke="#000000" points="532.5,-418.5 532.5,-437.5 610.5,-437.5 610.5,-418.5 532.5,-418.5"/>
<text text-anchor="middle" x="571.5" y="-425.5" font-family="Helvetica,sans-Serif" font-size="10.00" fill="#000000">getRconValue</text>
</a>
</g>
</g>
<!-- Node14&#45;&gt;Node17 -->
<g id="edge26" class="edge">
<title>Node14&#45;&gt;Node17</title>
<path fill="none" stroke="#191970" d="M486.1404,-428C497.7856,-428 510.272,-428 522.0019,-428"/>
<polygon fill="#191970" stroke="#191970" points="522.0751,-431.5001 532.0751,-428 522.0751,-424.5001 522.0751,-431.5001"/>
</g>
<!-- Node21 -->
<g id="node22" class="node">
<title>Node21</title>
<g id="a_node22"><a xlink:href="_a_e_s_8c.html#a4fc33ada95d0d2aaea28086aefe173bb" target="_top" xlink:title="SingleRotateRight &#45; Function to rotate the array passed in as a paramter. ">
<polygon fill="#ffffff" stroke="#000000" points="390.5,-266.5 390.5,-285.5 486.5,-285.5 486.5,-266.5 390.5,-266.5"/>
<text text-anchor="middle" x="438.5" y="-273.5" font-family="Helvetica,sans-Serif" font-size="10.00" fill="#000000">SingleRotateRight</text>
</a>
</g>
</g>
<!-- Node20&#45;&gt;Node21 -->
<g id="edge31" class="edge">
<title>Node20&#45;&gt;Node21</title>
<path fill="none" stroke="#191970" d="M323.6966,-276C340.7431,-276 361.2782,-276 380.2394,-276"/>
<polygon fill="#191970" stroke="#191970" points="380.2808,-279.5001 390.2808,-276 380.2807,-272.5001 380.2808,-279.5001"/>
</g>
<!-- Node23 -->
<g id="node24" class="node">
<title>Node23</title>
<g id="a_node24"><a xlink:href="_a_e_s_8c.html#a425f9b1e2cd595f2c45f129bc5d0a6d0" target="_top" xlink:title="getInvSBox &#45; Function to return the inverse sBox value passed in as a parameter ">
<polygon fill="#ffffff" stroke="#000000" points="404.5,-228.5 404.5,-247.5 472.5,-247.5 472.5,-228.5 404.5,-228.5"/>
<text text-anchor="middle" x="438.5" y="-235.5" font-family="Helvetica,sans-Serif" font-size="10.00" fill="#000000">getInvSBox</text>
</a>
</g>
</g>
<!-- Node22&#45;&gt;Node23 -->
<g id="edge33" class="edge">
<title>Node22&#45;&gt;Node23</title>
<path fill="none" stroke="#191970" d="M322.1404,-238C343.7561,-238 371.3838,-238 394.2938,-238"/>
<polygon fill="#191970" stroke="#191970" points="394.4496,-241.5001 404.4495,-238 394.4495,-234.5001 394.4496,-241.5001"/>
</g>
<!-- Node25 -->
<g id="node26" class="node">
<title>Node25</title>
<g id="a_node26"><a xlink:href="_a_e_s_8c.html#a7dbbb13c3ab5608765b6d368eb9f4fe1" target="_top" xlink:title="galloisFieldMult &#45; Function to perform the Galois field multiplication operation required for the inv...">
<polygon fill="#ffffff" stroke="#000000" points="396.5,-38.5 396.5,-57.5 480.5,-57.5 480.5,-38.5 396.5,-38.5"/>
<text text-anchor="middle" x="438.5" y="-45.5" font-family="Helvetica,sans-Serif" font-size="10.00" fill="#000000">galloisFieldMult</text>
</a>
</g>
</g>
<!-- Node24&#45;&gt;Node25 -->
<g id="edge35" class="edge">
<title>Node24&#45;&gt;Node25</title>
<path fill="none" stroke="#191970" d="M328.075,-48C346.0022,-48 367.1073,-48 386.0383,-48"/>
<polygon fill="#191970" stroke="#191970" points="386.2979,-51.5001 396.2979,-48 386.2978,-44.5001 386.2979,-51.5001"/>
</g>
</g>
</svg>
