<?xml version="1.0" encoding="UTF-8" standalone="no"?>
<!DOCTYPE svg PUBLIC "-//W3C//DTD SVG 1.1//EN"
 "http://www.w3.org/Graphics/SVG/1.1/DTD/svg11.dtd">
<!-- Generated by graphviz version 2.40.1 (20161225.0304)
 -->
<!-- Title: cbcTester.c Pages: 1 -->
<svg width="330pt" height="196pt"
 viewBox="0.00 0.00 329.50 196.00" xmlns="http://www.w3.org/2000/svg" xmlns:xlink="http://www.w3.org/1999/xlink">
<g id="graph0" class="graph" transform="scale(1 1) rotate(0) translate(4 192)">
<title>cbcTester.c</title>
<polygon fill="#ffffff" stroke="transparent" points="-4,4 -4,-192 325.5,-192 325.5,4 -4,4"/>
<!-- Node0 -->
<g id="node1" class="node">
<title>Node0</title>
<polygon fill="#bfbfbf" stroke="#000000" points="122,-168.5 122,-187.5 190,-187.5 190,-168.5 122,-168.5"/>
<text text-anchor="middle" x="156" y="-175.5" font-family="Helvetica,sans-Serif" font-size="10.00" fill="#000000">cbcTester.c</text>
</g>
<!-- Node1 -->
<g id="node2" class="node">
<title>Node1</title>
<g id="a_node2"><a xlink:href="cbc_8h.html" target="_top" xlink:title="Cipher Block Chaining (CBC) &#45; AES Header file This file contains the function headers of the function...">
<polygon fill="#ffffff" stroke="#000000" points="135.5,-112.5 135.5,-131.5 176.5,-131.5 176.5,-112.5 135.5,-112.5"/>
<text text-anchor="middle" x="156" y="-119.5" font-family="Helvetica,sans-Serif" font-size="10.00" fill="#000000">cbc.h</text>
</a>
</g>
</g>
<!-- Node0&#45;&gt;Node1 -->
<g id="edge1" class="edge">
<title>Node0&#45;&gt;Node1</title>
<path fill="none" stroke="#191970" d="M156,-168.2455C156,-160.9382 156,-150.6944 156,-141.7046"/>
<polygon fill="#191970" stroke="#191970" points="159.5001,-141.6426 156,-131.6427 152.5001,-141.6427 159.5001,-141.6426"/>
</g>
<!-- Node2 -->
<g id="node3" class="node">
<title>Node2</title>
<g id="a_node3"><a xlink:href="_a_e_s_8h.html" target="_top" xlink:title="AES encryption and decryption module header file. This file contains the function headers for the fun...">
<polygon fill="#ffffff" stroke="#000000" points="133.5,-56.5 133.5,-75.5 178.5,-75.5 178.5,-56.5 133.5,-56.5"/>
<text text-anchor="middle" x="156" y="-63.5" font-family="Helvetica,sans-Serif" font-size="10.00" fill="#000000">AES.h</text>
</a>
</g>
</g>
<!-- Node1&#45;&gt;Node2 -->
<g id="edge2" class="edge">
<title>Node1&#45;&gt;Node2</title>
<path fill="none" stroke="#191970" d="M156,-112.2455C156,-104.9382 156,-94.6944 156,-85.7046"/>
<polygon fill="#191970" stroke="#191970" points="159.5001,-85.6426 156,-75.6427 152.5001,-85.6427 159.5001,-85.6426"/>
</g>
<!-- Node3 -->
<g id="node4" class="node">
<title>Node3</title>
<polygon fill="#ffffff" stroke="#bfbfbf" points="0,-.5 0,-19.5 46,-19.5 46,-.5 0,-.5"/>
<text text-anchor="middle" x="23" y="-7.5" font-family="Helvetica,sans-Serif" font-size="10.00" fill="#000000">stdio.h</text>
</g>
<!-- Node1&#45;&gt;Node3 -->
<g id="edge8" class="edge">
<title>Node1&#45;&gt;Node3</title>
<path fill="none" stroke="#191970" d="M144.6605,-112.4509C121.8888,-93.2747 70.3768,-49.8962 42.2361,-26.1988"/>
<polygon fill="#191970" stroke="#191970" points="44.2144,-23.2891 34.3108,-19.5249 39.7055,-28.6435 44.2144,-23.2891"/>
</g>
<!-- Node5 -->
<g id="node6" class="node">
<title>Node5</title>
<polygon fill="#ffffff" stroke="#bfbfbf" points="272.5,-.5 272.5,-19.5 321.5,-19.5 321.5,-.5 272.5,-.5"/>
<text text-anchor="middle" x="297" y="-7.5" font-family="Helvetica,sans-Serif" font-size="10.00" fill="#000000">string.h</text>
</g>
<!-- Node1&#45;&gt;Node5 -->
<g id="edge9" class="edge">
<title>Node1&#45;&gt;Node5</title>
<path fill="none" stroke="#191970" d="M168.0216,-112.4509C192.2671,-93.1921 247.2448,-49.5218 276.9912,-25.8935"/>
<polygon fill="#191970" stroke="#191970" points="279.3555,-28.4854 285.0088,-19.5249 275.0016,-23.0041 279.3555,-28.4854"/>
</g>
<!-- Node2&#45;&gt;Node3 -->
<g id="edge3" class="edge">
<title>Node2&#45;&gt;Node3</title>
<path fill="none" stroke="#191970" d="M133.4384,-56.5004C111.9429,-47.4496 79.3611,-33.731 55.1514,-23.5374"/>
<polygon fill="#191970" stroke="#191970" points="56.2469,-20.2011 45.6723,-19.5462 53.5305,-26.6526 56.2469,-20.2011"/>
</g>
<!-- Node4 -->
<g id="node5" class="node">
<title>Node4</title>
<polygon fill="#ffffff" stroke="#bfbfbf" points="64.5,-.5 64.5,-19.5 113.5,-19.5 113.5,-.5 64.5,-.5"/>
<text text-anchor="middle" x="89" y="-7.5" font-family="Helvetica,sans-Serif" font-size="10.00" fill="#000000">stdint.h</text>
</g>
<!-- Node2&#45;&gt;Node4 -->
<g id="edge4" class="edge">
<title>Node2&#45;&gt;Node4</title>
<path fill="none" stroke="#191970" d="M144.3295,-56.2455C134.4339,-47.9746 120.0373,-35.9416 108.4099,-26.2232"/>
<polygon fill="#191970" stroke="#191970" points="110.4542,-23.3703 100.5368,-19.6427 105.965,-28.7413 110.4542,-23.3703"/>
</g>
<!-- Node2&#45;&gt;Node5 -->
<g id="edge5" class="edge">
<title>Node2&#45;&gt;Node5</title>
<path fill="none" stroke="#191970" d="M178.6541,-57.0026C201.5714,-47.9007 237.2603,-33.7264 263.4573,-23.3219"/>
<polygon fill="#191970" stroke="#191970" points="264.9845,-26.4814 272.9864,-19.5373 262.4007,-19.9757 264.9845,-26.4814"/>
</g>
<!-- Node6 -->
<g id="node7" class="node">
<title>Node6</title>
<polygon fill="#ffffff" stroke="#bfbfbf" points="132,-.5 132,-19.5 180,-19.5 180,-.5 132,-.5"/>
<text text-anchor="middle" x="156" y="-7.5" font-family="Helvetica,sans-Serif" font-size="10.00" fill="#000000">stdlib.h</text>
</g>
<!-- Node2&#45;&gt;Node6 -->
<g id="edge6" class="edge">
<title>Node2&#45;&gt;Node6</title>
<path fill="none" stroke="#191970" d="M156,-56.2455C156,-48.9382 156,-38.6944 156,-29.7046"/>
<polygon fill="#191970" stroke="#191970" points="159.5001,-29.6426 156,-19.6427 152.5001,-29.6427 159.5001,-29.6426"/>
</g>
<!-- Node7 -->
<g id="node8" class="node">
<title>Node7</title>
<polygon fill="#ffffff" stroke="#bfbfbf" points="198,-.5 198,-19.5 254,-19.5 254,-.5 198,-.5"/>
<text text-anchor="middle" x="226" y="-7.5" font-family="Helvetica,sans-Serif" font-size="10.00" fill="#000000">stdbool.h</text>
</g>
<!-- Node2&#45;&gt;Node7 -->
<g id="edge7" class="edge">
<title>Node2&#45;&gt;Node7</title>
<path fill="none" stroke="#191970" d="M168.1931,-56.2455C178.6321,-47.8943 193.8655,-35.7076 206.074,-25.9408"/>
<polygon fill="#191970" stroke="#191970" points="208.3244,-28.6227 213.9467,-19.6427 203.9515,-23.1566 208.3244,-28.6227"/>
</g>
</g>
</svg>
