<?xml version="1.0" encoding="UTF-8" standalone="no"?>
<!DOCTYPE svg PUBLIC "-//W3C//DTD SVG 1.1//EN"
 "http://www.w3.org/Graphics/SVG/1.1/DTD/svg11.dtd">
<!-- Generated by graphviz version 2.40.1 (20161225.0304)
 -->
<!-- Title: cbcEncrypt Pages: 1 -->
<svg width="616pt" height="627pt"
 viewBox="0.00 0.00 616.00 626.94" xmlns="http://www.w3.org/2000/svg" xmlns:xlink="http://www.w3.org/1999/xlink">
<g id="graph0" class="graph" transform="scale(1 1) rotate(0) translate(4 622.9371)">
<title>cbcEncrypt</title>
<polygon fill="#ffffff" stroke="transparent" points="-4,4 -4,-622.9371 612,-622.9371 612,4 -4,4"/>
<!-- Node63 -->
<g id="node1" class="node">
<title>Node63</title>
<polygon fill="#bfbfbf" stroke="#000000" points="0,-447.4371 0,-466.4371 66,-466.4371 66,-447.4371 0,-447.4371"/>
<text text-anchor="middle" x="33" y="-454.4371" font-family="Helvetica,sans-Serif" font-size="10.00" fill="#000000">cbcEncrypt</text>
</g>
<!-- Node64 -->
<g id="node2" class="node">
<title>Node64</title>
<g id="a_node2"><a xlink:href="_a_e_s_8c.html#afba897e91364663f883cc51ed309dc92" target="_top" xlink:title="keyHexToAscii &#45; Function to convert a key from a Hex string passed in as a paramter ...">
<polygon fill="#ffffff" stroke="#000000" points="102,-523.4371 102,-542.4371 185,-542.4371 185,-523.4371 102,-523.4371"/>
<text text-anchor="middle" x="143.5" y="-530.4371" font-family="Helvetica,sans-Serif" font-size="10.00" fill="#000000">keyHexToAscii</text>
</a>
</g>
</g>
<!-- Node63&#45;&gt;Node64 -->
<g id="edge1" class="edge">
<title>Node63&#45;&gt;Node64</title>
<path fill="none" stroke="#191970" d="M44.891,-466.6003C58.3916,-477.4037 81.2415,-495.1859 102,-508.9371 106.7703,-512.0971 111.9715,-515.2908 117.028,-518.2721"/>
<polygon fill="#191970" stroke="#191970" points="115.4376,-521.3951 125.8494,-523.356 118.933,-515.3302 115.4376,-521.3951"/>
</g>
<!-- Node65 -->
<g id="node3" class="node">
<title>Node65</title>
<g id="a_node3"><a xlink:href="_a_e_s_8c.html#a1c2a403d95a85400bbae142d48cb8c9d" target="_top" xlink:title="getNumRounds &#45; Function to return the number of rounds of AES encryption and decryption based off of ...">
<polygon fill="#ffffff" stroke="#000000" points="388,-409.4371 388,-428.4371 473,-428.4371 473,-409.4371 388,-409.4371"/>
<text text-anchor="middle" x="430.5" y="-416.4371" font-family="Helvetica,sans-Serif" font-size="10.00" fill="#000000">getNumRounds</text>
</a>
</g>
</g>
<!-- Node63&#45;&gt;Node65 -->
<g id="edge11" class="edge">
<title>Node63&#45;&gt;Node65</title>
<path fill="none" stroke="#191970" d="M66.0868,-456.5283C122.8099,-455.4653 242.1607,-451.6448 342,-437.9371 355.0217,-436.1492 368.9816,-433.5014 381.8765,-430.7465"/>
<polygon fill="#191970" stroke="#191970" points="382.9378,-434.0967 391.9514,-428.5285 381.4328,-427.2604 382.9378,-434.0967"/>
</g>
<!-- Node66 -->
<g id="node4" class="node">
<title>Node66</title>
<g id="a_node4"><a xlink:href="_a_e_s_8c.html#a5d65eac115e562c64b00a43e72ee6aca" target="_top" xlink:title="getPaddedKeyLength &#45; Function to return a valid key length (in bytes) based off of the current key le...">
<polygon fill="#ffffff" stroke="#000000" points="226.5,-485.4371 226.5,-504.4371 336.5,-504.4371 336.5,-485.4371 226.5,-485.4371"/>
<text text-anchor="middle" x="281.5" y="-492.4371" font-family="Helvetica,sans-Serif" font-size="10.00" fill="#000000">getPaddedKeyLength</text>
</a>
</g>
</g>
<!-- Node63&#45;&gt;Node66 -->
<g id="edge10" class="edge">
<title>Node63&#45;&gt;Node66</title>
<path fill="none" stroke="#191970" d="M66.2568,-464.1556C77.5694,-466.4855 90.3075,-468.9715 102,-470.9371 139.6523,-477.2666 181.9742,-482.9917 216.0629,-487.2615"/>
<polygon fill="#191970" stroke="#191970" points="216.0088,-490.7815 226.3636,-488.5389 216.8704,-483.8347 216.0088,-490.7815"/>
</g>
<!-- Node67 -->
<g id="node5" class="node">
<title>Node67</title>
<g id="a_node5"><a xlink:href="_a_e_s_8c.html#ad697cbb5d9e462b3017df1f1d939ee96" target="_top" xlink:title="hexToAsciiString &#45; Function that converts a given string of hex values into its ASCII equivalent...">
<polygon fill="#ffffff" stroke="#000000" points="236,-561.4371 236,-580.4371 327,-580.4371 327,-561.4371 236,-561.4371"/>
<text text-anchor="middle" x="281.5" y="-568.4371" font-family="Helvetica,sans-Serif" font-size="10.00" fill="#000000">hexToAsciiString</text>
</a>
</g>
</g>
<!-- Node63&#45;&gt;Node67 -->
<g id="edge9" class="edge">
<title>Node63&#45;&gt;Node67</title>
<path fill="none" stroke="#191970" d="M36.7654,-466.5473C45.1137,-486.4181 67.2318,-531.8431 102,-551.9371 139.3244,-573.5084 188.3683,-577.3827 225.7582,-576.3507"/>
<polygon fill="#191970" stroke="#191970" points="226.1242,-579.8389 235.9756,-575.9401 225.8431,-572.8445 226.1242,-579.8389"/>
</g>
<!-- Node70 -->
<g id="node8" class="node">
<title>Node70</title>
<g id="a_node8"><a xlink:href="_a_e_s_8c.html#ad82d1b77336ac1292ed5a24b92380f42" target="_top" xlink:title="IVHexToAscii &#45; Function to convert a initialization vector from a Hex string passed in as a paramter...">
<polygon fill="#ffffff" stroke="#000000" points="105,-599.4371 105,-618.4371 182,-618.4371 182,-599.4371 105,-599.4371"/>
<text text-anchor="middle" x="143.5" y="-606.4371" font-family="Helvetica,sans-Serif" font-size="10.00" fill="#000000">IVHexToAscii</text>
</a>
</g>
</g>
<!-- Node63&#45;&gt;Node70 -->
<g id="edge7" class="edge">
<title>Node63&#45;&gt;Node70</title>
<path fill="none" stroke="#191970" d="M36.1744,-466.7355C44.0559,-489.8034 66.484,-548.3425 102,-584.9371 105.2171,-588.2518 108.9898,-591.2574 112.926,-593.932"/>
<polygon fill="#191970" stroke="#191970" points="111.2913,-597.0345 121.6519,-599.25 114.9343,-591.0571 111.2913,-597.0345"/>
</g>
<!-- Node71 -->
<g id="node9" class="node">
<title>Node71</title>
<g id="a_node9"><a xlink:href="_a_e_s_8c.html#a0e0b199ded54d7fb53a3bda3fcc02256" target="_top" xlink:title="validateNumRounds &#45; Function that validates the number of rounds that have been passed in by the ...">
<polygon fill="#ffffff" stroke="#000000" points="378,-143.4371 378,-162.4371 483,-162.4371 483,-143.4371 378,-143.4371"/>
<text text-anchor="middle" x="430.5" y="-150.4371" font-family="Helvetica,sans-Serif" font-size="10.00" fill="#000000">validateNumRounds</text>
</a>
</g>
</g>
<!-- Node63&#45;&gt;Node71 -->
<g id="edge12" class="edge">
<title>Node63&#45;&gt;Node71</title>
<path fill="none" stroke="#191970" d="M33.3419,-447.2842C35.8903,-392.072 56.7763,-115.4097 221,-19.9371 267.492,7.0914 294.9023,6.0217 342,-19.9371 368.241,-34.4003 361.4815,-51.9387 378,-76.9371 391.1784,-96.8807 406.8097,-119.3664 417.5694,-134.672"/>
<polygon fill="#191970" stroke="#191970" points="414.9505,-137.0315 423.5737,-143.1871 420.6713,-132.9975 414.9505,-137.0315"/>
</g>
<!-- Node72 -->
<g id="node10" class="node">
<title>Node72</title>
<g id="a_node10"><a xlink:href="_a_e_s_8c.html#ab601c369ba50730fc02d03bc44aad4e0" target="_top" xlink:title="XORBlocks &#45; Function to XOR two blocks of length. ">
<polygon fill="#ffffff" stroke="#000000" points="109.5,-371.4371 109.5,-390.4371 177.5,-390.4371 177.5,-371.4371 109.5,-371.4371"/>
<text text-anchor="middle" x="143.5" y="-378.4371" font-family="Helvetica,sans-Serif" font-size="10.00" fill="#000000">XORBlocks</text>
</a>
</g>
</g>
<!-- Node63&#45;&gt;Node72 -->
<g id="edge13" class="edge">
<title>Node63&#45;&gt;Node72</title>
<path fill="none" stroke="#191970" d="M44.891,-447.2739C58.3916,-436.4704 81.2415,-418.6883 102,-404.9371 106.7703,-401.7771 111.9715,-398.5834 117.028,-395.6021"/>
<polygon fill="#191970" stroke="#191970" points="118.933,-398.5439 125.8494,-390.5181 115.4376,-392.479 118.933,-398.5439"/>
</g>
<!-- Node73 -->
<g id="node11" class="node">
<title>Node73</title>
<g id="a_node11"><a xlink:href="_a_e_s_8c.html#aaba2e1b9466483b3c6b8669eb42aa5ed" target="_top" xlink:title="printAESBlock &#45; Function to print a single block in hex format to the terminal. ">
<polygon fill="#ffffff" stroke="#000000" points="241.5,-409.4371 241.5,-428.4371 321.5,-428.4371 321.5,-409.4371 241.5,-409.4371"/>
<text text-anchor="middle" x="281.5" y="-416.4371" font-family="Helvetica,sans-Serif" font-size="10.00" fill="#000000">printAESBlock</text>
</a>
</g>
</g>
<!-- Node63&#45;&gt;Node73 -->
<g id="edge14" class="edge">
<title>Node63&#45;&gt;Node73</title>
<path fill="none" stroke="#191970" d="M66.2568,-449.7185C77.5694,-447.3887 90.3075,-444.9027 102,-442.9371 145.4585,-435.6314 195.1379,-429.1311 231.1985,-424.7443"/>
<polygon fill="#191970" stroke="#191970" points="231.9505,-428.1791 241.4601,-423.5083 231.1133,-421.2294 231.9505,-428.1791"/>
</g>
<!-- Node74 -->
<g id="node12" class="node">
<title>Node74</title>
<g id="a_node12"><a xlink:href="_a_e_s_8c.html#a41cef4df290905c4d632ce1357d0a9bd" target="_top" xlink:title="AESEncrypt &#45; Function to encrypt a single block of plaintext passed in as parameter &#160;plainText using ...">
<polygon fill="#ffffff" stroke="#000000" points="108,-238.4371 108,-257.4371 179,-257.4371 179,-238.4371 108,-238.4371"/>
<text text-anchor="middle" x="143.5" y="-245.4371" font-family="Helvetica,sans-Serif" font-size="10.00" fill="#000000">AESEncrypt</text>
</a>
</g>
</g>
<!-- Node63&#45;&gt;Node74 -->
<g id="edge15" class="edge">
<title>Node63&#45;&gt;Node74</title>
<path fill="none" stroke="#191970" d="M38.0351,-447.4137C55.0771,-415.1804 110.7964,-309.7928 133.6178,-266.6283"/>
<polygon fill="#191970" stroke="#191970" points="136.8554,-267.9928 138.4353,-257.5164 130.6671,-264.7209 136.8554,-267.9928"/>
</g>
<!-- Node64&#45;&gt;Node65 -->
<g id="edge2" class="edge">
<title>Node64&#45;&gt;Node65</title>
<path fill="none" stroke="#191970" d="M185.3481,-537.2601C227.2014,-539.7318 292.3206,-538.4342 342,-513.9371 376.8484,-496.7532 404.8919,-459.6387 419.4947,-437.2248"/>
<polygon fill="#191970" stroke="#191970" points="422.546,-438.9474 424.9108,-428.6198 416.6218,-435.2186 422.546,-438.9474"/>
</g>
<!-- Node64&#45;&gt;Node66 -->
<g id="edge3" class="edge">
<title>Node64&#45;&gt;Node66</title>
<path fill="none" stroke="#191970" d="M178.3232,-523.3481C196.1377,-518.4426 218.0184,-512.4175 237.0389,-507.18"/>
<polygon fill="#191970" stroke="#191970" points="237.976,-510.5523 246.6879,-504.523 236.1175,-503.8035 237.976,-510.5523"/>
</g>
<!-- Node64&#45;&gt;Node67 -->
<g id="edge4" class="edge">
<title>Node64&#45;&gt;Node67</title>
<path fill="none" stroke="#191970" d="M178.3232,-542.5261C196.1377,-547.4315 218.0184,-553.4566 237.0389,-558.6942"/>
<polygon fill="#191970" stroke="#191970" points="236.1175,-562.0707 246.6879,-561.3511 237.976,-555.3218 236.1175,-562.0707"/>
</g>
<!-- Node68 -->
<g id="node6" class="node">
<title>Node68</title>
<g id="a_node6"><a xlink:href="_a_e_s_8c.html#aa177516503b10de65b504a3714073ad7" target="_top" xlink:title="hexToAscii &#45; Function that converts a given hex value to its ASCII equivalent. ">
<polygon fill="#ffffff" stroke="#000000" points="398,-561.4371 398,-580.4371 463,-580.4371 463,-561.4371 398,-561.4371"/>
<text text-anchor="middle" x="430.5" y="-568.4371" font-family="Helvetica,sans-Serif" font-size="10.00" fill="#000000">hexToAscii</text>
</a>
</g>
</g>
<!-- Node67&#45;&gt;Node68 -->
<g id="edge5" class="edge">
<title>Node67&#45;&gt;Node68</title>
<path fill="none" stroke="#191970" d="M327.0145,-570.9371C346.2224,-570.9371 368.4758,-570.9371 387.4138,-570.9371"/>
<polygon fill="#191970" stroke="#191970" points="387.5534,-574.4372 397.5534,-570.9371 387.5533,-567.4372 387.5534,-574.4372"/>
</g>
<!-- Node69 -->
<g id="node7" class="node">
<title>Node69</title>
<g id="a_node7"><a xlink:href="_a_e_s_8c.html#a7e5ab2188af44718071074f450963568" target="_top" xlink:title="hexToInt &#45; Function that converts a given hex value into an integer. ">
<polygon fill="#ffffff" stroke="#000000" points="536,-561.4371 536,-580.4371 591,-580.4371 591,-561.4371 536,-561.4371"/>
<text text-anchor="middle" x="563.5" y="-568.4371" font-family="Helvetica,sans-Serif" font-size="10.00" fill="#000000">hexToInt</text>
</a>
</g>
</g>
<!-- Node68&#45;&gt;Node69 -->
<g id="edge6" class="edge">
<title>Node68&#45;&gt;Node69</title>
<path fill="none" stroke="#191970" d="M463.0355,-570.9371C481.9398,-570.9371 505.85,-570.9371 525.6014,-570.9371"/>
<polygon fill="#191970" stroke="#191970" points="525.7947,-574.4372 535.7946,-570.9371 525.7946,-567.4372 525.7947,-574.4372"/>
</g>
<!-- Node70&#45;&gt;Node67 -->
<g id="edge8" class="edge">
<title>Node70&#45;&gt;Node67</title>
<path fill="none" stroke="#191970" d="M178.3232,-599.3481C196.1377,-594.4426 218.0184,-588.4175 237.0389,-583.18"/>
<polygon fill="#191970" stroke="#191970" points="237.976,-586.5523 246.6879,-580.523 236.1175,-579.8035 237.976,-586.5523"/>
</g>
<!-- Node74&#45;&gt;Node65 -->
<g id="edge17" class="edge">
<title>Node74&#45;&gt;Node65</title>
<path fill="none" stroke="#191970" d="M148.8039,-257.571C159.8062,-276.7079 186.9496,-319.7461 221,-343.9371 268.7245,-377.8428 333.3577,-397.8879 378.1585,-408.6012"/>
<polygon fill="#191970" stroke="#191970" points="377.4353,-412.0263 387.9672,-410.8738 379.0153,-405.2069 377.4353,-412.0263"/>
</g>
<!-- Node74&#45;&gt;Node66 -->
<g id="edge16" class="edge">
<title>Node74&#45;&gt;Node66</title>
<path fill="none" stroke="#191970" d="M146.8256,-257.6031C158.6528,-291.7063 199.1356,-406.0626 221,-437.9371 231.8479,-453.7514 247.7363,-468.5069 260.5089,-479.0414"/>
<polygon fill="#191970" stroke="#191970" points="258.3715,-481.8136 268.3681,-485.3232 262.742,-476.3456 258.3715,-481.8136"/>
</g>
<!-- Node74&#45;&gt;Node71 -->
<g id="edge18" class="edge">
<title>Node74&#45;&gt;Node71</title>
<path fill="none" stroke="#191970" d="M149.817,-238.3832C161.5518,-221.5483 188.4998,-186.9619 221,-171.9371 266.8807,-150.7264 324.3869,-146.8969 367.5374,-147.8543"/>
<polygon fill="#191970" stroke="#191970" points="367.5205,-151.3554 377.6252,-148.1704 367.7398,-144.3589 367.5205,-151.3554"/>
</g>
<!-- Node74&#45;&gt;Node73 -->
<g id="edge37" class="edge">
<title>Node74&#45;&gt;Node73</title>
<path fill="none" stroke="#191970" d="M146.047,-257.6469C153.3177,-283.5514 176.5631,-355.0387 221,-394.9371 225.4168,-398.9028 230.5684,-402.2515 235.9673,-405.0695"/>
<polygon fill="#191970" stroke="#191970" points="234.6539,-408.318 245.2006,-409.3262 237.5845,-401.961 234.6539,-408.318"/>
</g>
<!-- Node75 -->
<g id="node13" class="node">
<title>Node75</title>
<g id="a_node13"><a xlink:href="_a_e_s_8c.html#acefcd728377e1e14187fa8fcd20f4064" target="_top" xlink:title="validatePlainTextLength &#45; Function that validates the length of the plaintext. The validation is done...">
<polygon fill="#ffffff" stroke="#000000" points="221,-105.4371 221,-124.4371 342,-124.4371 342,-105.4371 221,-105.4371"/>
<text text-anchor="middle" x="281.5" y="-112.4371" font-family="Helvetica,sans-Serif" font-size="10.00" fill="#000000">validatePlainTextLength</text>
</a>
</g>
</g>
<!-- Node74&#45;&gt;Node75 -->
<g id="edge19" class="edge">
<title>Node74&#45;&gt;Node75</title>
<path fill="none" stroke="#191970" d="M147.9084,-238.3737C157.9801,-217.5016 184.6447,-167.456 221,-138.9371 226.1344,-134.9094 232.031,-131.4776 238.0848,-128.5778"/>
<polygon fill="#191970" stroke="#191970" points="239.8483,-131.6286 247.6401,-124.4496 237.0721,-125.2026 239.8483,-131.6286"/>
</g>
<!-- Node76 -->
<g id="node14" class="node">
<title>Node76</title>
<g id="a_node14"><a xlink:href="_a_e_s_8c.html#a1c1a633a58f7328faa397db9e45e7e0c" target="_top" xlink:title="constructStateArray &#45; Function to convert the state array from a flat 1D array to a multidimensional ...">
<polygon fill="#ffffff" stroke="#000000" points="229.5,-67.4371 229.5,-86.4371 333.5,-86.4371 333.5,-67.4371 229.5,-67.4371"/>
<text text-anchor="middle" x="281.5" y="-74.4371" font-family="Helvetica,sans-Serif" font-size="10.00" fill="#000000">constructStateArray</text>
</a>
</g>
</g>
<!-- Node74&#45;&gt;Node76 -->
<g id="edge20" class="edge">
<title>Node74&#45;&gt;Node76</title>
<path fill="none" stroke="#191970" d="M145.6896,-238.1048C152.1933,-211.1967 173.9479,-135.7128 221,-95.9371 223.0231,-94.2269 225.2004,-92.6703 227.485,-91.2535"/>
<polygon fill="#191970" stroke="#191970" points="229.4676,-94.1678 236.7298,-86.4534 226.2419,-87.9553 229.4676,-94.1678"/>
</g>
<!-- Node77 -->
<g id="node15" class="node">
<title>Node77</title>
<g id="a_node15"><a xlink:href="_a_e_s_8c.html#ae9af90db32afa65125a7eec339ed9d58" target="_top" xlink:title="printStateArray &#45; Function to print the state array to the terminal in hex format. ">
<polygon fill="#ffffff" stroke="#000000" points="240.5,-29.4371 240.5,-48.4371 322.5,-48.4371 322.5,-29.4371 240.5,-29.4371"/>
<text text-anchor="middle" x="281.5" y="-36.4371" font-family="Helvetica,sans-Serif" font-size="10.00" fill="#000000">printStateArray</text>
</a>
</g>
</g>
<!-- Node74&#45;&gt;Node77 -->
<g id="edge21" class="edge">
<title>Node74&#45;&gt;Node77</title>
<path fill="none" stroke="#191970" d="M144.5992,-238.0053C148.5914,-206.7311 165.1645,-109.3205 221,-57.9371 224.0126,-55.1647 227.4265,-52.7969 231.0617,-50.7746"/>
<polygon fill="#191970" stroke="#191970" points="232.848,-53.8044 240.4509,-46.4256 229.9059,-47.4527 232.848,-53.8044"/>
</g>
<!-- Node78 -->
<g id="node16" class="node">
<title>Node78</title>
<g id="a_node16"><a xlink:href="_a_e_s_8c.html#a185c827e4ccbc8e4608e83dfbf9dfc8e" target="_top" xlink:title="RijndaelKeySchedule &#45; Function that performs the Rijndael key scheduling for AES encryption. Takes in the original key passed in as parameter. ">
<polygon fill="#ffffff" stroke="#000000" points="226.5,-219.4371 226.5,-238.4371 336.5,-238.4371 336.5,-219.4371 226.5,-219.4371"/>
<text text-anchor="middle" x="281.5" y="-226.4371" font-family="Helvetica,sans-Serif" font-size="10.00" fill="#000000">RijndaelKeySchedule</text>
</a>
</g>
</g>
<!-- Node74&#45;&gt;Node78 -->
<g id="edge22" class="edge">
<title>Node74&#45;&gt;Node78</title>
<path fill="none" stroke="#191970" d="M179.0384,-243.0441C190.3811,-241.4824 203.3155,-239.7016 216.0857,-237.9434"/>
<polygon fill="#191970" stroke="#191970" points="216.8292,-241.3741 226.2583,-236.5428 215.8744,-234.4395 216.8292,-241.3741"/>
</g>
<!-- Node83 -->
<g id="node21" class="node">
<title>Node83</title>
<g id="a_node21"><a xlink:href="_a_e_s_8c.html#abe15a731f43315f6f595674d3cd62d57" target="_top" xlink:title="getRoundKey &#45; Function to extract the correct sub&#45;key to use for the appropriate round specified by ...">
<polygon fill="#ffffff" stroke="#000000" points="243.5,-295.4371 243.5,-314.4371 319.5,-314.4371 319.5,-295.4371 243.5,-295.4371"/>
<text text-anchor="middle" x="281.5" y="-302.4371" font-family="Helvetica,sans-Serif" font-size="10.00" fill="#000000">getRoundKey</text>
</a>
</g>
</g>
<!-- Node74&#45;&gt;Node83 -->
<g id="edge30" class="edge">
<title>Node74&#45;&gt;Node83</title>
<path fill="none" stroke="#191970" d="M161.0066,-257.472C176.4923,-265.6746 199.848,-277.4866 221,-285.9371 226.5016,-288.135 232.3635,-290.2485 238.1911,-292.2158"/>
<polygon fill="#191970" stroke="#191970" points="237.3044,-295.6079 247.8967,-295.3779 239.4728,-288.9522 237.3044,-295.6079"/>
</g>
<!-- Node84 -->
<g id="node22" class="node">
<title>Node84</title>
<g id="a_node22"><a xlink:href="_a_e_s_8c.html#aef4d8fc4282e3cc21708d25c0ec9ad06" target="_top" xlink:title="AddRoundKey &#45; Function that performs the Bitwise XOR between state and key as per AES encryption...">
<polygon fill="#ffffff" stroke="#000000" points="241.5,-257.4371 241.5,-276.4371 321.5,-276.4371 321.5,-257.4371 241.5,-257.4371"/>
<text text-anchor="middle" x="281.5" y="-264.4371" font-family="Helvetica,sans-Serif" font-size="10.00" fill="#000000">AddRoundKey</text>
</a>
</g>
</g>
<!-- Node74&#45;&gt;Node84 -->
<g id="edge31" class="edge">
<title>Node74&#45;&gt;Node84</title>
<path fill="none" stroke="#191970" d="M179.0384,-252.83C194.9269,-255.0176 213.9386,-257.6351 231.2472,-260.0182"/>
<polygon fill="#191970" stroke="#191970" points="230.821,-263.4925 241.205,-261.3892 231.7759,-256.5579 230.821,-263.4925"/>
</g>
<!-- Node85 -->
<g id="node23" class="node">
<title>Node85</title>
<g id="a_node23"><a xlink:href="_a_e_s_8c.html#aec40f89d2cbf831fd0d5d5f1bfa616f5" target="_top" xlink:title="subBytes &#45; Function that performs the sub byte operation where each value is replaced by the s box va...">
<polygon fill="#ffffff" stroke="#000000" points="401.5,-305.4371 401.5,-324.4371 459.5,-324.4371 459.5,-305.4371 401.5,-305.4371"/>
<text text-anchor="middle" x="430.5" y="-312.4371" font-family="Helvetica,sans-Serif" font-size="10.00" fill="#000000">subBytes</text>
</a>
</g>
</g>
<!-- Node74&#45;&gt;Node85 -->
<g id="edge32" class="edge">
<title>Node74&#45;&gt;Node85</title>
<path fill="none" stroke="#191970" d="M149.5073,-257.5153C160.9385,-274.7191 187.6794,-310.3256 221,-323.9371 276.8485,-346.7512 348.1792,-336.2579 391.5461,-326.0187"/>
<polygon fill="#191970" stroke="#191970" points="392.5472,-329.3766 401.4145,-323.5783 390.8667,-322.5813 392.5472,-329.3766"/>
</g>
<!-- Node86 -->
<g id="node24" class="node">
<title>Node86</title>
<g id="a_node24"><a xlink:href="_a_e_s_8c.html#abeb4dba64fcf4d07eac178e732ca6aa8" target="_top" xlink:title="ShiftRows &#45; Function to shift the state array according to the AES encryption standard for 128 &#45; bits...">
<polygon fill="#ffffff" stroke="#000000" points="399.5,-48.4371 399.5,-67.4371 461.5,-67.4371 461.5,-48.4371 399.5,-48.4371"/>
<text text-anchor="middle" x="430.5" y="-55.4371" font-family="Helvetica,sans-Serif" font-size="10.00" fill="#000000">ShiftRows</text>
</a>
</g>
</g>
<!-- Node74&#45;&gt;Node86 -->
<g id="edge34" class="edge">
<title>Node74&#45;&gt;Node86</title>
<path fill="none" stroke="#191970" d="M145.2416,-238.3701C152.6977,-198.5743 183.2732,-46.96 221,-19.9371 277.8744,20.8009 365.1573,-19.4641 406.8028,-43.2283"/>
<polygon fill="#191970" stroke="#191970" points="405.2728,-46.3886 415.6681,-48.4351 408.8179,-40.3527 405.2728,-46.3886"/>
</g>
<!-- Node87 -->
<g id="node25" class="node">
<title>Node87</title>
<g id="a_node25"><a xlink:href="_a_e_s_8c.html#aca09b30896a351db6587639a1cc1bf0d" target="_top" xlink:title="mixColumns &#45; Function that performs the MixColumns step of AES as specified by AES encryption...">
<polygon fill="#ffffff" stroke="#000000" points="246,-181.4371 246,-200.4371 317,-200.4371 317,-181.4371 246,-181.4371"/>
<text text-anchor="middle" x="281.5" y="-188.4371" font-family="Helvetica,sans-Serif" font-size="10.00" fill="#000000">mixColumns</text>
</a>
</g>
</g>
<!-- Node74&#45;&gt;Node87 -->
<g id="edge36" class="edge">
<title>Node74&#45;&gt;Node87</title>
<path fill="none" stroke="#191970" d="M161.0066,-238.4022C176.4923,-230.1996 199.848,-218.3875 221,-209.9371 226.5016,-207.7391 232.3635,-205.6257 238.1911,-203.6584"/>
<polygon fill="#191970" stroke="#191970" points="239.4728,-206.9219 247.8967,-200.4962 237.3044,-200.2662 239.4728,-206.9219"/>
</g>
<!-- Node78&#45;&gt;Node65 -->
<g id="edge23" class="edge">
<title>Node78&#45;&gt;Node65</title>
<path fill="none" stroke="#191970" d="M327.4668,-238.5554C332.7619,-241.0055 337.7698,-244.0798 342,-247.9371 372.618,-275.8562 359.0546,-297.0859 378,-333.9371 390.312,-357.8854 406.9991,-384.048 418.2268,-400.9316"/>
<polygon fill="#191970" stroke="#191970" points="415.3571,-402.9364 423.8402,-409.2837 421.1669,-399.0317 415.3571,-402.9364"/>
</g>
<!-- Node78&#45;&gt;Node71 -->
<g id="edge24" class="edge">
<title>Node78&#45;&gt;Node71</title>
<path fill="none" stroke="#191970" d="M317.6138,-219.336C325.7922,-216.6866 334.324,-213.5344 342,-209.9371 366.5203,-198.4459 392.304,-181.1616 409.6742,-168.6397"/>
<polygon fill="#191970" stroke="#191970" points="411.9431,-171.3163 417.9396,-162.5817 407.8049,-165.6704 411.9431,-171.3163"/>
</g>
<!-- Node79 -->
<g id="node17" class="node">
<title>Node79</title>
<g id="a_node17"><a xlink:href="_a_e_s_8c.html#af2f914cf17729a0ee89102c98b39665e" target="_top" xlink:title="KeyScheduleCore &#45; Function that performs the key schedule core for the Rijndael Key Schedule...">
<polygon fill="#ffffff" stroke="#000000" points="383,-200.4371 383,-219.4371 478,-219.4371 478,-200.4371 383,-200.4371"/>
<text text-anchor="middle" x="430.5" y="-207.4371" font-family="Helvetica,sans-Serif" font-size="10.00" fill="#000000">KeyScheduleCore</text>
</a>
</g>
</g>
<!-- Node78&#45;&gt;Node79 -->
<g id="edge25" class="edge">
<title>Node78&#45;&gt;Node79</title>
<path fill="none" stroke="#191970" d="M336.5588,-221.9162C348.2282,-220.4281 360.5818,-218.8528 372.3614,-217.3507"/>
<polygon fill="#191970" stroke="#191970" points="373.0568,-220.7905 382.5337,-216.0536 372.1713,-213.8467 373.0568,-220.7905"/>
</g>
<!-- Node81 -->
<g id="node19" class="node">
<title>Node81</title>
<g id="a_node19"><a xlink:href="_a_e_s_8c.html#acdf4abe2846c02b4d3e674782807fdfa" target="_top" xlink:title="getSBoxValue &#45; Function to return the sBox value passed in as a parameter ">
<polygon fill="#ffffff" stroke="#000000" points="524,-238.4371 524,-257.4371 603,-257.4371 603,-238.4371 524,-238.4371"/>
<text text-anchor="middle" x="563.5" y="-245.4371" font-family="Helvetica,sans-Serif" font-size="10.00" fill="#000000">getSBoxValue</text>
</a>
</g>
</g>
<!-- Node78&#45;&gt;Node81 -->
<g id="edge29" class="edge">
<title>Node78&#45;&gt;Node81</title>
<path fill="none" stroke="#191970" d="M336.5419,-232.6456C387.8695,-236.1038 463.7719,-241.2178 513.4315,-244.5637"/>
<polygon fill="#191970" stroke="#191970" points="513.399,-248.0693 523.6117,-245.2496 513.8696,-241.0852 513.399,-248.0693"/>
</g>
<!-- Node80 -->
<g id="node18" class="node">
<title>Node80</title>
<g id="a_node18"><a xlink:href="_a_e_s_8c.html#ac769b0533ccecd203cc3ab64e6b2f950" target="_top" xlink:title="SingleRotateLeft &#45; Function to rotate the array passed in as a paramter. ">
<polygon fill="#ffffff" stroke="#000000" points="519,-86.4371 519,-105.4371 608,-105.4371 608,-86.4371 519,-86.4371"/>
<text text-anchor="middle" x="563.5" y="-93.4371" font-family="Helvetica,sans-Serif" font-size="10.00" fill="#000000">SingleRotateLeft</text>
</a>
</g>
</g>
<!-- Node79&#45;&gt;Node80 -->
<g id="edge26" class="edge">
<title>Node79&#45;&gt;Node80</title>
<path fill="none" stroke="#191970" d="M444.6878,-200.4146C455.469,-193.0021 470.5204,-182.2703 483,-171.9371 505.9439,-152.9393 530.6117,-129.0889 546.5067,-113.2246"/>
<polygon fill="#191970" stroke="#191970" points="549.3949,-115.2837 553.9635,-105.7245 544.4309,-110.3483 549.3949,-115.2837"/>
</g>
<!-- Node79&#45;&gt;Node81 -->
<g id="edge27" class="edge">
<title>Node79&#45;&gt;Node81</title>
<path fill="none" stroke="#191970" d="M464.0615,-219.5261C481.073,-224.3865 501.9319,-230.3462 520.1446,-235.5498"/>
<polygon fill="#191970" stroke="#191970" points="519.3724,-238.9692 529.9492,-238.3511 521.2955,-232.2385 519.3724,-238.9692"/>
</g>
<!-- Node82 -->
<g id="node20" class="node">
<title>Node82</title>
<g id="a_node20"><a xlink:href="_a_e_s_8c.html#a4e58d2e928429bc56387394251b8ece5" target="_top" xlink:title="getRconValue &#45; Function to return the Rcon value for the index passed in as a parameter ...">
<polygon fill="#ffffff" stroke="#000000" points="524.5,-200.4371 524.5,-219.4371 602.5,-219.4371 602.5,-200.4371 524.5,-200.4371"/>
<text text-anchor="middle" x="563.5" y="-207.4371" font-family="Helvetica,sans-Serif" font-size="10.00" fill="#000000">getRconValue</text>
</a>
</g>
</g>
<!-- Node79&#45;&gt;Node82 -->
<g id="edge28" class="edge">
<title>Node79&#45;&gt;Node82</title>
<path fill="none" stroke="#191970" d="M478.1404,-209.9371C489.7856,-209.9371 502.272,-209.9371 514.0019,-209.9371"/>
<polygon fill="#191970" stroke="#191970" points="514.0751,-213.4372 524.0751,-209.9371 514.0751,-206.4372 514.0751,-213.4372"/>
</g>
<!-- Node85&#45;&gt;Node81 -->
<g id="edge33" class="edge">
<title>Node85&#45;&gt;Node81</title>
<path fill="none" stroke="#191970" d="M449.5557,-305.3376C471.9748,-294.0437 509.4054,-275.1877 535.2132,-262.1868"/>
<polygon fill="#191970" stroke="#191970" points="537.1235,-265.1435 544.4797,-257.5187 533.9742,-258.892 537.1235,-265.1435"/>
</g>
<!-- Node86&#45;&gt;Node80 -->
<g id="edge35" class="edge">
<title>Node86&#45;&gt;Node80</title>
<path fill="none" stroke="#191970" d="M461.6826,-66.8464C479.205,-71.8528 501.336,-78.1759 520.4857,-83.6473"/>
<polygon fill="#191970" stroke="#191970" points="519.6111,-87.0374 530.1879,-86.4193 521.5342,-80.3067 519.6111,-87.0374"/>
</g>
</g>
</svg>
