<?xml version="1.0" encoding="UTF-8" standalone="no"?>
<!DOCTYPE svg PUBLIC "-//W3C//DTD SVG 1.1//EN"
 "http://www.w3.org/Graphics/SVG/1.1/DTD/svg11.dtd">
<!-- Generated by graphviz version 2.40.1 (20161225.0304)
 -->
<!-- Title: cfbDecrypt Pages: 1 -->
<svg width="615pt" height="697pt"
 viewBox="0.00 0.00 615.00 697.20" xmlns="http://www.w3.org/2000/svg" xmlns:xlink="http://www.w3.org/1999/xlink">
<g id="graph0" class="graph" transform="scale(1 1) rotate(0) translate(4 693.2015)">
<title>cfbDecrypt</title>
<polygon fill="#ffffff" stroke="transparent" points="-4,4 -4,-693.2015 611,-693.2015 611,4 -4,4"/>
<!-- Node0 -->
<g id="node1" class="node">
<title>Node0</title>
<polygon fill="#bfbfbf" stroke="#000000" points="0,-551.5 0,-570.5 65,-570.5 65,-551.5 0,-551.5"/>
<text text-anchor="middle" x="32.5" y="-558.5" font-family="Helvetica,sans-Serif" font-size="10.00" fill="#000000">cfbDecrypt</text>
</g>
<!-- Node1 -->
<g id="node2" class="node">
<title>Node1</title>
<g id="a_node2"><a xlink:href="_a_e_s_8c.html#afba897e91364663f883cc51ed309dc92" target="_top" xlink:title="keyHexToAscii &#45; Function to convert a key from a Hex string passed in as a paramter ...">
<polygon fill="#ffffff" stroke="#000000" points="101,-570.5 101,-589.5 184,-589.5 184,-570.5 101,-570.5"/>
<text text-anchor="middle" x="142.5" y="-577.5" font-family="Helvetica,sans-Serif" font-size="10.00" fill="#000000">keyHexToAscii</text>
</a>
</g>
</g>
<!-- Node0&#45;&gt;Node1 -->
<g id="edge1" class="edge">
<title>Node0&#45;&gt;Node1</title>
<path fill="none" stroke="#191970" d="M65.2058,-566.6492C73.2171,-568.0329 81.988,-569.5479 90.6541,-571.0448"/>
<polygon fill="#191970" stroke="#191970" points="90.2776,-574.5315 100.7274,-572.7847 91.4691,-567.6337 90.2776,-574.5315"/>
</g>
<!-- Node2 -->
<g id="node3" class="node">
<title>Node2</title>
<g id="a_node3"><a xlink:href="_a_e_s_8c.html#a1c2a403d95a85400bbae142d48cb8c9d" target="_top" xlink:title="getNumRounds &#45; Function to return the number of rounds of AES encryption and decryption based off of ...">
<polygon fill="#ffffff" stroke="#000000" points="387,-532.5 387,-551.5 472,-551.5 472,-532.5 387,-532.5"/>
<text text-anchor="middle" x="429.5" y="-539.5" font-family="Helvetica,sans-Serif" font-size="10.00" fill="#000000">getNumRounds</text>
</a>
</g>
</g>
<!-- Node0&#45;&gt;Node2 -->
<g id="edge11" class="edge">
<title>Node0&#45;&gt;Node2</title>
<path fill="none" stroke="#191970" d="M45.2868,-570.7235C58.4431,-580.0675 79.9345,-593.5483 101,-599 204.5547,-625.7995 237.7568,-608.9755 341,-581 362.5399,-575.1634 385.5694,-564.8745 402.7353,-556.3298"/>
<polygon fill="#191970" stroke="#191970" points="404.7922,-559.2097 412.1092,-551.5473 401.6109,-552.9743 404.7922,-559.2097"/>
</g>
<!-- Node3 -->
<g id="node4" class="node">
<title>Node3</title>
<g id="a_node4"><a xlink:href="_a_e_s_8c.html#a5d65eac115e562c64b00a43e72ee6aca" target="_top" xlink:title="getPaddedKeyLength &#45; Function to return a valid key length (in bytes) based off of the current key le...">
<polygon fill="#ffffff" stroke="#000000" points="225.5,-532.5 225.5,-551.5 335.5,-551.5 335.5,-532.5 225.5,-532.5"/>
<text text-anchor="middle" x="280.5" y="-539.5" font-family="Helvetica,sans-Serif" font-size="10.00" fill="#000000">getPaddedKeyLength</text>
</a>
</g>
</g>
<!-- Node0&#45;&gt;Node3 -->
<g id="edge10" class="edge">
<title>Node0&#45;&gt;Node3</title>
<path fill="none" stroke="#191970" d="M65.1767,-558.4965C103.243,-555.5802 167.0747,-550.6898 215.3805,-546.989"/>
<polygon fill="#191970" stroke="#191970" points="215.7345,-550.4722 225.4379,-546.2185 215.1997,-543.4927 215.7345,-550.4722"/>
</g>
<!-- Node4 -->
<g id="node5" class="node">
<title>Node4</title>
<g id="a_node5"><a xlink:href="_a_e_s_8c.html#ad697cbb5d9e462b3017df1f1d939ee96" target="_top" xlink:title="hexToAsciiString &#45; Function that converts a given string of hex values into its ASCII equivalent...">
<polygon fill="#ffffff" stroke="#000000" points="235,-646.5 235,-665.5 326,-665.5 326,-646.5 235,-646.5"/>
<text text-anchor="middle" x="280.5" y="-653.5" font-family="Helvetica,sans-Serif" font-size="10.00" fill="#000000">hexToAsciiString</text>
</a>
</g>
</g>
<!-- Node0&#45;&gt;Node4 -->
<g id="edge9" class="edge">
<title>Node0&#45;&gt;Node4</title>
<path fill="none" stroke="#191970" d="M34.8467,-570.6677C41.0353,-593.76 60.2043,-651.9192 101,-675 147.9449,-701.5598 212.9054,-683.8164 250.4352,-669.3373"/>
<polygon fill="#191970" stroke="#191970" points="251.8352,-672.5467 259.8068,-665.5678 249.223,-666.0523 251.8352,-672.5467"/>
</g>
<!-- Node7 -->
<g id="node8" class="node">
<title>Node7</title>
<g id="a_node8"><a xlink:href="_a_e_s_8c.html#ad82d1b77336ac1292ed5a24b92380f42" target="_top" xlink:title="IVHexToAscii &#45; Function to convert a initialization vector from a Hex string passed in as a paramter...">
<polygon fill="#ffffff" stroke="#000000" points="104,-646.5 104,-665.5 181,-665.5 181,-646.5 104,-646.5"/>
<text text-anchor="middle" x="142.5" y="-653.5" font-family="Helvetica,sans-Serif" font-size="10.00" fill="#000000">IVHexToAscii</text>
</a>
</g>
</g>
<!-- Node0&#45;&gt;Node7 -->
<g id="edge7" class="edge">
<title>Node0&#45;&gt;Node7</title>
<path fill="none" stroke="#191970" d="M40.2072,-570.5534C52.1831,-585.0105 76.4468,-612.7934 101,-632 105.1546,-635.2499 109.7955,-638.3615 114.4273,-641.2042"/>
<polygon fill="#191970" stroke="#191970" points="112.7895,-644.3006 123.193,-646.305 116.3101,-638.2503 112.7895,-644.3006"/>
</g>
<!-- Node8 -->
<g id="node9" class="node">
<title>Node8</title>
<g id="a_node9"><a xlink:href="_a_e_s_8c.html#a0e0b199ded54d7fb53a3bda3fcc02256" target="_top" xlink:title="validateNumRounds &#45; Function that validates the number of rounds that have been passed in by the ...">
<polygon fill="#ffffff" stroke="#000000" points="377,-76.5 377,-95.5 482,-95.5 482,-76.5 377,-76.5"/>
<text text-anchor="middle" x="429.5" y="-83.5" font-family="Helvetica,sans-Serif" font-size="10.00" fill="#000000">validateNumRounds</text>
</a>
</g>
</g>
<!-- Node0&#45;&gt;Node8 -->
<g id="edge12" class="edge">
<title>Node0&#45;&gt;Node8</title>
<path fill="none" stroke="#191970" d="M34.5855,-551.1864C48.4792,-486.8591 129.8508,-126.3329 220,-70 274.9584,-35.6573 354.5353,-56.6874 398.0916,-72.7743"/>
<polygon fill="#191970" stroke="#191970" points="396.9955,-76.1024 407.5857,-76.415 399.5019,-69.5665 396.9955,-76.1024"/>
</g>
<!-- Node9 -->
<g id="node10" class="node">
<title>Node9</title>
<g id="a_node10"><a xlink:href="_a_e_s_8c.html#a41cef4df290905c4d632ce1357d0a9bd" target="_top" xlink:title="AESEncrypt &#45; Function to encrypt a single block of plaintext passed in as parameter &#160;plainText using ...">
<polygon fill="#ffffff" stroke="#000000" points="107,-323.5 107,-342.5 178,-342.5 178,-323.5 107,-323.5"/>
<text text-anchor="middle" x="142.5" y="-330.5" font-family="Helvetica,sans-Serif" font-size="10.00" fill="#000000">AESEncrypt</text>
</a>
</g>
</g>
<!-- Node0&#45;&gt;Node9 -->
<g id="edge13" class="edge">
<title>Node0&#45;&gt;Node9</title>
<path fill="none" stroke="#191970" d="M37.0865,-551.4934C53.7193,-517.0181 111.0622,-398.1619 133.4475,-351.7634"/>
<polygon fill="#191970" stroke="#191970" points="136.7009,-353.0746 137.8939,-342.5472 130.3963,-350.0329 136.7009,-353.0746"/>
</g>
<!-- Node24 -->
<g id="node25" class="node">
<title>Node24</title>
<g id="a_node25"><a xlink:href="_a_e_s_8c.html#ab601c369ba50730fc02d03bc44aad4e0" target="_top" xlink:title="XORBlocks &#45; Function to XOR two blocks of length. ">
<polygon fill="#ffffff" stroke="#000000" points="108.5,-.5 108.5,-19.5 176.5,-19.5 176.5,-.5 108.5,-.5"/>
<text text-anchor="middle" x="142.5" y="-7.5" font-family="Helvetica,sans-Serif" font-size="10.00" fill="#000000">XORBlocks</text>
</a>
</g>
</g>
<!-- Node0&#45;&gt;Node24 -->
<g id="edge36" class="edge">
<title>Node0&#45;&gt;Node24</title>
<path fill="none" stroke="#191970" d="M32.6159,-551.1686C33.5444,-486.6302 41.3897,-123.4419 101,-34 103.2213,-30.667 106.0741,-27.739 109.2424,-25.1815"/>
<polygon fill="#191970" stroke="#191970" points="111.244,-28.0532 117.588,-19.5677 107.337,-22.245 111.244,-28.0532"/>
</g>
<!-- Node1&#45;&gt;Node2 -->
<g id="edge2" class="edge">
<title>Node1&#45;&gt;Node2</title>
<path fill="none" stroke="#191970" d="M184.1144,-577.4276C224.3991,-574.6053 287.1153,-569.3343 341,-561 353.6218,-559.0478 367.1493,-556.4201 379.7353,-553.7427"/>
<polygon fill="#191970" stroke="#191970" points="380.5654,-557.144 389.5919,-551.5966 379.0762,-550.3042 380.5654,-557.144"/>
</g>
<!-- Node1&#45;&gt;Node3 -->
<g id="edge3" class="edge">
<title>Node1&#45;&gt;Node3</title>
<path fill="none" stroke="#191970" d="M177.3232,-570.411C195.1377,-565.5056 217.0184,-559.4804 236.0389,-554.2429"/>
<polygon fill="#191970" stroke="#191970" points="236.976,-557.6152 245.6879,-551.5859 235.1175,-550.8664 236.976,-557.6152"/>
</g>
<!-- Node1&#45;&gt;Node4 -->
<g id="edge4" class="edge">
<title>Node1&#45;&gt;Node4</title>
<path fill="none" stroke="#191970" d="M159.9778,-589.6255C183.7231,-602.7025 226.3816,-626.1957 254.0559,-641.4366"/>
<polygon fill="#191970" stroke="#191970" points="252.7162,-644.6944 263.1641,-646.4527 256.0931,-638.5628 252.7162,-644.6944"/>
</g>
<!-- Node5 -->
<g id="node6" class="node">
<title>Node5</title>
<g id="a_node6"><a xlink:href="_a_e_s_8c.html#aa177516503b10de65b504a3714073ad7" target="_top" xlink:title="hexToAscii &#45; Function that converts a given hex value to its ASCII equivalent. ">
<polygon fill="#ffffff" stroke="#000000" points="397,-646.5 397,-665.5 462,-665.5 462,-646.5 397,-646.5"/>
<text text-anchor="middle" x="429.5" y="-653.5" font-family="Helvetica,sans-Serif" font-size="10.00" fill="#000000">hexToAscii</text>
</a>
</g>
</g>
<!-- Node4&#45;&gt;Node5 -->
<g id="edge5" class="edge">
<title>Node4&#45;&gt;Node5</title>
<path fill="none" stroke="#191970" d="M326.0145,-656C345.2224,-656 367.4758,-656 386.4138,-656"/>
<polygon fill="#191970" stroke="#191970" points="386.5534,-659.5001 396.5534,-656 386.5533,-652.5001 386.5534,-659.5001"/>
</g>
<!-- Node6 -->
<g id="node7" class="node">
<title>Node6</title>
<g id="a_node7"><a xlink:href="_a_e_s_8c.html#a7e5ab2188af44718071074f450963568" target="_top" xlink:title="hexToInt &#45; Function that converts a given hex value into an integer. ">
<polygon fill="#ffffff" stroke="#000000" points="535,-646.5 535,-665.5 590,-665.5 590,-646.5 535,-646.5"/>
<text text-anchor="middle" x="562.5" y="-653.5" font-family="Helvetica,sans-Serif" font-size="10.00" fill="#000000">hexToInt</text>
</a>
</g>
</g>
<!-- Node5&#45;&gt;Node6 -->
<g id="edge6" class="edge">
<title>Node5&#45;&gt;Node6</title>
<path fill="none" stroke="#191970" d="M462.0355,-656C480.9398,-656 504.85,-656 524.6014,-656"/>
<polygon fill="#191970" stroke="#191970" points="524.7947,-659.5001 534.7946,-656 524.7946,-652.5001 524.7947,-659.5001"/>
</g>
<!-- Node7&#45;&gt;Node4 -->
<g id="edge8" class="edge">
<title>Node7&#45;&gt;Node4</title>
<path fill="none" stroke="#191970" d="M181.3079,-656C194.6512,-656 209.8708,-656 224.3141,-656"/>
<polygon fill="#191970" stroke="#191970" points="224.6559,-659.5001 234.6558,-656 224.6558,-652.5001 224.6559,-659.5001"/>
</g>
<!-- Node9&#45;&gt;Node2 -->
<g id="edge15" class="edge">
<title>Node9&#45;&gt;Node2</title>
<path fill="none" stroke="#191970" d="M144.5196,-342.5407C150.7044,-369.3519 171.9582,-445.9541 220,-485 232.3394,-495.0288 319.431,-516.6011 377.3705,-530.1423"/>
<polygon fill="#191970" stroke="#191970" points="376.5804,-533.5519 387.1133,-532.408 378.166,-526.7338 376.5804,-533.5519"/>
</g>
<!-- Node9&#45;&gt;Node3 -->
<g id="edge14" class="edge">
<title>Node9&#45;&gt;Node3</title>
<path fill="none" stroke="#191970" d="M143.8438,-342.5084C148.5625,-372.4786 167.0553,-466.0547 220,-518 223.9825,-521.9074 228.6794,-525.2003 233.6669,-527.9704"/>
<polygon fill="#191970" stroke="#191970" points="232.3396,-531.2161 242.8667,-532.4118 235.3829,-524.9122 232.3396,-531.2161"/>
</g>
<!-- Node9&#45;&gt;Node8 -->
<g id="edge16" class="edge">
<title>Node9&#45;&gt;Node8</title>
<path fill="none" stroke="#191970" d="M144.3608,-323.2537C152.1744,-283.4061 183.6155,-133.6362 220,-105 262.0219,-71.9269 324.512,-70.4719 370.308,-75.2854"/>
<polygon fill="#191970" stroke="#191970" points="370.0552,-78.7798 380.3961,-76.4742 370.8744,-71.8279 370.0552,-78.7798"/>
</g>
<!-- Node10 -->
<g id="node11" class="node">
<title>Node10</title>
<g id="a_node11"><a xlink:href="_a_e_s_8c.html#acefcd728377e1e14187fa8fcd20f4064" target="_top" xlink:title="validatePlainTextLength &#45; Function that validates the length of the plaintext. The validation is done...">
<polygon fill="#ffffff" stroke="#000000" points="220,-456.5 220,-475.5 341,-475.5 341,-456.5 220,-456.5"/>
<text text-anchor="middle" x="280.5" y="-463.5" font-family="Helvetica,sans-Serif" font-size="10.00" fill="#000000">validatePlainTextLength</text>
</a>
</g>
</g>
<!-- Node9&#45;&gt;Node10 -->
<g id="edge17" class="edge">
<title>Node9&#45;&gt;Node10</title>
<path fill="none" stroke="#191970" d="M146.3479,-342.5523C155.6326,-364.395 181.3882,-418.3108 220,-447 222.5254,-448.8764 225.241,-450.5707 228.0727,-452.1001"/>
<polygon fill="#191970" stroke="#191970" points="226.8781,-455.4044 237.4218,-456.4446 229.8281,-449.0563 226.8781,-455.4044"/>
</g>
<!-- Node11 -->
<g id="node12" class="node">
<title>Node11</title>
<g id="a_node12"><a xlink:href="_a_e_s_8c.html#a1c1a633a58f7328faa397db9e45e7e0c" target="_top" xlink:title="constructStateArray &#45; Function to convert the state array from a flat 1D array to a multidimensional ...">
<polygon fill="#ffffff" stroke="#000000" points="228.5,-418.5 228.5,-437.5 332.5,-437.5 332.5,-418.5 228.5,-418.5"/>
<text text-anchor="middle" x="280.5" y="-425.5" font-family="Helvetica,sans-Serif" font-size="10.00" fill="#000000">constructStateArray</text>
</a>
</g>
</g>
<!-- Node9&#45;&gt;Node11 -->
<g id="edge18" class="edge">
<title>Node9&#45;&gt;Node11</title>
<path fill="none" stroke="#191970" d="M149.7679,-342.6389C162.3534,-358.6814 189.7738,-390.8831 220,-409 223.46,-411.0738 227.1689,-412.9432 230.9846,-414.6242"/>
<polygon fill="#191970" stroke="#191970" points="230.0218,-418.007 240.6084,-418.4239 232.5924,-411.4961 230.0218,-418.007"/>
</g>
<!-- Node12 -->
<g id="node13" class="node">
<title>Node12</title>
<g id="a_node13"><a xlink:href="_a_e_s_8c.html#ae9af90db32afa65125a7eec339ed9d58" target="_top" xlink:title="printStateArray &#45; Function to print the state array to the terminal in hex format. ">
<polygon fill="#ffffff" stroke="#000000" points="239.5,-380.5 239.5,-399.5 321.5,-399.5 321.5,-380.5 239.5,-380.5"/>
<text text-anchor="middle" x="280.5" y="-387.5" font-family="Helvetica,sans-Serif" font-size="10.00" fill="#000000">printStateArray</text>
</a>
</g>
</g>
<!-- Node9&#45;&gt;Node12 -->
<g id="edge19" class="edge">
<title>Node9&#45;&gt;Node12</title>
<path fill="none" stroke="#191970" d="M160.0066,-342.5349C175.4923,-350.7375 198.848,-362.5495 220,-371 225.5016,-373.1979 231.3635,-375.3114 237.1911,-377.2787"/>
<polygon fill="#191970" stroke="#191970" points="236.3044,-380.6708 246.8967,-380.4408 238.4728,-374.0152 236.3044,-380.6708"/>
</g>
<!-- Node13 -->
<g id="node14" class="node">
<title>Node13</title>
<g id="a_node14"><a xlink:href="_a_e_s_8c.html#a185c827e4ccbc8e4608e83dfbf9dfc8e" target="_top" xlink:title="RijndaelKeySchedule &#45; Function that performs the Rijndael key scheduling for AES encryption. Takes in the original key passed in as parameter. ">
<polygon fill="#ffffff" stroke="#000000" points="225.5,-228.5 225.5,-247.5 335.5,-247.5 335.5,-228.5 225.5,-228.5"/>
<text text-anchor="middle" x="280.5" y="-235.5" font-family="Helvetica,sans-Serif" font-size="10.00" fill="#000000">RijndaelKeySchedule</text>
</a>
</g>
</g>
<!-- Node9&#45;&gt;Node13 -->
<g id="edge20" class="edge">
<title>Node9&#45;&gt;Node13</title>
<path fill="none" stroke="#191970" d="M149.7679,-323.3611C162.3534,-307.3186 189.7738,-275.1169 220,-257 223.46,-254.9262 227.1689,-253.0568 230.9846,-251.3758"/>
<polygon fill="#191970" stroke="#191970" points="232.5924,-254.5039 240.6084,-247.5761 230.0218,-247.993 232.5924,-254.5039"/>
</g>
<!-- Node18 -->
<g id="node19" class="node">
<title>Node18</title>
<g id="a_node19"><a xlink:href="_a_e_s_8c.html#abe15a731f43315f6f595674d3cd62d57" target="_top" xlink:title="getRoundKey &#45; Function to extract the correct sub&#45;key to use for the appropriate round specified by ...">
<polygon fill="#ffffff" stroke="#000000" points="242.5,-342.5 242.5,-361.5 318.5,-361.5 318.5,-342.5 242.5,-342.5"/>
<text text-anchor="middle" x="280.5" y="-349.5" font-family="Helvetica,sans-Serif" font-size="10.00" fill="#000000">getRoundKey</text>
</a>
</g>
</g>
<!-- Node9&#45;&gt;Node18 -->
<g id="edge28" class="edge">
<title>Node9&#45;&gt;Node18</title>
<path fill="none" stroke="#191970" d="M178.0384,-337.893C194.4609,-340.154 214.2202,-342.8745 231.9867,-345.3206"/>
<polygon fill="#191970" stroke="#191970" points="231.7928,-348.8269 242.1767,-346.7236 232.7476,-341.8923 231.7928,-348.8269"/>
</g>
<!-- Node19 -->
<g id="node20" class="node">
<title>Node19</title>
<g id="a_node20"><a xlink:href="_a_e_s_8c.html#aef4d8fc4282e3cc21708d25c0ec9ad06" target="_top" xlink:title="AddRoundKey &#45; Function that performs the Bitwise XOR between state and key as per AES encryption...">
<polygon fill="#ffffff" stroke="#000000" points="240.5,-266.5 240.5,-285.5 320.5,-285.5 320.5,-266.5 240.5,-266.5"/>
<text text-anchor="middle" x="280.5" y="-273.5" font-family="Helvetica,sans-Serif" font-size="10.00" fill="#000000">AddRoundKey</text>
</a>
</g>
</g>
<!-- Node9&#45;&gt;Node19 -->
<g id="edge29" class="edge">
<title>Node9&#45;&gt;Node19</title>
<path fill="none" stroke="#191970" d="M164.4865,-323.4656C179.9675,-316.7947 201.2,-307.7301 220,-300 228.5803,-296.472 237.8797,-292.7384 246.5544,-289.294"/>
<polygon fill="#191970" stroke="#191970" points="247.9992,-292.4865 256.0115,-285.5544 245.4251,-285.9769 247.9992,-292.4865"/>
</g>
<!-- Node20 -->
<g id="node21" class="node">
<title>Node20</title>
<g id="a_node21"><a xlink:href="_a_e_s_8c.html#aec40f89d2cbf831fd0d5d5f1bfa616f5" target="_top" xlink:title="subBytes &#45; Function that performs the sub byte operation where each value is replaced by the s box va...">
<polygon fill="#ffffff" stroke="#000000" points="400.5,-190.5 400.5,-209.5 458.5,-209.5 458.5,-190.5 400.5,-190.5"/>
<text text-anchor="middle" x="429.5" y="-197.5" font-family="Helvetica,sans-Serif" font-size="10.00" fill="#000000">subBytes</text>
</a>
</g>
</g>
<!-- Node9&#45;&gt;Node20 -->
<g id="edge30" class="edge">
<title>Node9&#45;&gt;Node20</title>
<path fill="none" stroke="#191970" d="M145.8294,-323.1966C154.172,-300.3256 178.3408,-243.5261 220,-219 272.5903,-188.0384 345.788,-189.4016 390.2825,-194.0817"/>
<polygon fill="#191970" stroke="#191970" points="390.068,-197.5802 400.4048,-195.2563 390.8749,-190.6269 390.068,-197.5802"/>
</g>
<!-- Node21 -->
<g id="node22" class="node">
<title>Node21</title>
<g id="a_node22"><a xlink:href="_a_e_s_8c.html#abeb4dba64fcf4d07eac178e732ca6aa8" target="_top" xlink:title="ShiftRows &#45; Function to shift the state array according to the AES encryption standard for 128 &#45; bits...">
<polygon fill="#ffffff" stroke="#000000" points="398.5,-304.5 398.5,-323.5 460.5,-323.5 460.5,-304.5 398.5,-304.5"/>
<text text-anchor="middle" x="429.5" y="-311.5" font-family="Helvetica,sans-Serif" font-size="10.00" fill="#000000">ShiftRows</text>
</a>
</g>
</g>
<!-- Node9&#45;&gt;Node21 -->
<g id="edge32" class="edge">
<title>Node9&#45;&gt;Node21</title>
<path fill="none" stroke="#191970" d="M178.2685,-330.6321C231.5988,-327.1015 331.7114,-320.4738 388.1234,-316.7392"/>
<polygon fill="#191970" stroke="#191970" points="388.3802,-320.23 398.1271,-316.077 387.9177,-313.2453 388.3802,-320.23"/>
</g>
<!-- Node22 -->
<g id="node23" class="node">
<title>Node22</title>
<g id="a_node23"><a xlink:href="_a_e_s_8c.html#aca09b30896a351db6587639a1cc1bf0d" target="_top" xlink:title="mixColumns &#45; Function that performs the MixColumns step of AES as specified by AES encryption...">
<polygon fill="#ffffff" stroke="#000000" points="245,-152.5 245,-171.5 316,-171.5 316,-152.5 245,-152.5"/>
<text text-anchor="middle" x="280.5" y="-159.5" font-family="Helvetica,sans-Serif" font-size="10.00" fill="#000000">mixColumns</text>
</a>
</g>
</g>
<!-- Node9&#45;&gt;Node22 -->
<g id="edge34" class="edge">
<title>Node9&#45;&gt;Node22</title>
<path fill="none" stroke="#191970" d="M145.047,-323.2902C152.3177,-297.3857 175.5631,-225.8984 220,-186 224.5245,-181.9376 229.8202,-178.5226 235.3628,-175.6623"/>
<polygon fill="#191970" stroke="#191970" points="237.1775,-178.682 244.8313,-171.356 234.2795,-172.3101 237.1775,-178.682"/>
</g>
<!-- Node23 -->
<g id="node24" class="node">
<title>Node23</title>
<g id="a_node24"><a xlink:href="_a_e_s_8c.html#aaba2e1b9466483b3c6b8669eb42aa5ed" target="_top" xlink:title="printAESBlock &#45; Function to print a single block in hex format to the terminal. ">
<polygon fill="#ffffff" stroke="#000000" points="240.5,-114.5 240.5,-133.5 320.5,-133.5 320.5,-114.5 240.5,-114.5"/>
<text text-anchor="middle" x="280.5" y="-121.5" font-family="Helvetica,sans-Serif" font-size="10.00" fill="#000000">printAESBlock</text>
</a>
</g>
</g>
<!-- Node9&#45;&gt;Node23 -->
<g id="edge35" class="edge">
<title>Node9&#45;&gt;Node23</title>
<path fill="none" stroke="#191970" d="M143.5992,-323.0682C147.5914,-291.7941 164.1645,-194.3834 220,-143 223.3252,-139.9399 227.1395,-137.3727 231.2005,-135.2189"/>
<polygon fill="#191970" stroke="#191970" points="232.6746,-138.3939 240.3908,-131.1336 229.8312,-131.9974 232.6746,-138.3939"/>
</g>
<!-- Node13&#45;&gt;Node2 -->
<g id="edge21" class="edge">
<title>Node13&#45;&gt;Node2</title>
<path fill="none" stroke="#191970" d="M327.4288,-247.5355C332.4379,-250.0009 337.1139,-253.1014 341,-257 360.4977,-276.5604 408.9132,-461.2584 424.547,-522.4296"/>
<polygon fill="#191970" stroke="#191970" points="421.2124,-523.5183 427.0704,-532.3464 427.9963,-521.7921 421.2124,-523.5183"/>
</g>
<!-- Node13&#45;&gt;Node8 -->
<g id="edge22" class="edge">
<title>Node13&#45;&gt;Node8</title>
<path fill="none" stroke="#191970" d="M291.412,-228.117C303.6849,-216.9105 324.1088,-197.9865 341,-181 367.3056,-154.5459 396.5887,-122.5895 414.004,-103.3027"/>
<polygon fill="#191970" stroke="#191970" points="416.8197,-105.4061 420.9076,-95.6317 411.6165,-100.7235 416.8197,-105.4061"/>
</g>
<!-- Node14 -->
<g id="node15" class="node">
<title>Node14</title>
<g id="a_node15"><a xlink:href="_a_e_s_8c.html#af2f914cf17729a0ee89102c98b39665e" target="_top" xlink:title="KeyScheduleCore &#45; Function that performs the key schedule core for the Rijndael Key Schedule...">
<polygon fill="#ffffff" stroke="#000000" points="382,-266.5 382,-285.5 477,-285.5 477,-266.5 382,-266.5"/>
<text text-anchor="middle" x="429.5" y="-273.5" font-family="Helvetica,sans-Serif" font-size="10.00" fill="#000000">KeyScheduleCore</text>
</a>
</g>
</g>
<!-- Node13&#45;&gt;Node14 -->
<g id="edge23" class="edge">
<title>Node13&#45;&gt;Node14</title>
<path fill="none" stroke="#191970" d="M318.099,-247.589C337.584,-252.5583 361.5745,-258.6767 382.2958,-263.9613"/>
<polygon fill="#191970" stroke="#191970" points="381.6166,-267.4001 392.1714,-266.4799 383.3465,-260.6172 381.6166,-267.4001"/>
</g>
<!-- Node16 -->
<g id="node17" class="node">
<title>Node16</title>
<g id="a_node17"><a xlink:href="_a_e_s_8c.html#acdf4abe2846c02b4d3e674782807fdfa" target="_top" xlink:title="getSBoxValue &#45; Function to return the sBox value passed in as a parameter ">
<polygon fill="#ffffff" stroke="#000000" points="523,-228.5 523,-247.5 602,-247.5 602,-228.5 523,-228.5"/>
<text text-anchor="middle" x="562.5" y="-235.5" font-family="Helvetica,sans-Serif" font-size="10.00" fill="#000000">getSBoxValue</text>
</a>
</g>
</g>
<!-- Node13&#45;&gt;Node16 -->
<g id="edge27" class="edge">
<title>Node13&#45;&gt;Node16</title>
<path fill="none" stroke="#191970" d="M335.5419,-238C386.8695,-238 462.7719,-238 512.4315,-238"/>
<polygon fill="#191970" stroke="#191970" points="512.6117,-241.5001 522.6117,-238 512.6116,-234.5001 512.6117,-241.5001"/>
</g>
<!-- Node15 -->
<g id="node16" class="node">
<title>Node15</title>
<g id="a_node16"><a xlink:href="_a_e_s_8c.html#ac769b0533ccecd203cc3ab64e6b2f950" target="_top" xlink:title="SingleRotateLeft &#45; Function to rotate the array passed in as a paramter. ">
<polygon fill="#ffffff" stroke="#000000" points="518,-304.5 518,-323.5 607,-323.5 607,-304.5 518,-304.5"/>
<text text-anchor="middle" x="562.5" y="-311.5" font-family="Helvetica,sans-Serif" font-size="10.00" fill="#000000">SingleRotateLeft</text>
</a>
</g>
</g>
<!-- Node14&#45;&gt;Node15 -->
<g id="edge24" class="edge">
<title>Node14&#45;&gt;Node15</title>
<path fill="none" stroke="#191970" d="M463.0615,-285.589C480.073,-290.4494 500.9319,-296.4091 519.1446,-301.6127"/>
<polygon fill="#191970" stroke="#191970" points="518.3724,-305.0321 528.9492,-304.4141 520.2955,-298.3014 518.3724,-305.0321"/>
</g>
<!-- Node14&#45;&gt;Node16 -->
<g id="edge25" class="edge">
<title>Node14&#45;&gt;Node16</title>
<path fill="none" stroke="#191970" d="M463.0615,-266.411C480.073,-261.5506 500.9319,-255.5909 519.1446,-250.3873"/>
<polygon fill="#191970" stroke="#191970" points="520.2955,-253.6986 528.9492,-247.5859 518.3724,-246.9679 520.2955,-253.6986"/>
</g>
<!-- Node17 -->
<g id="node18" class="node">
<title>Node17</title>
<g id="a_node18"><a xlink:href="_a_e_s_8c.html#a4e58d2e928429bc56387394251b8ece5" target="_top" xlink:title="getRconValue &#45; Function to return the Rcon value for the index passed in as a parameter ...">
<polygon fill="#ffffff" stroke="#000000" points="523.5,-266.5 523.5,-285.5 601.5,-285.5 601.5,-266.5 523.5,-266.5"/>
<text text-anchor="middle" x="562.5" y="-273.5" font-family="Helvetica,sans-Serif" font-size="10.00" fill="#000000">getRconValue</text>
</a>
</g>
</g>
<!-- Node14&#45;&gt;Node17 -->
<g id="edge26" class="edge">
<title>Node14&#45;&gt;Node17</title>
<path fill="none" stroke="#191970" d="M477.1404,-276C488.7856,-276 501.272,-276 513.0019,-276"/>
<polygon fill="#191970" stroke="#191970" points="513.0751,-279.5001 523.0751,-276 513.0751,-272.5001 513.0751,-279.5001"/>
</g>
<!-- Node20&#45;&gt;Node16 -->
<g id="edge31" class="edge">
<title>Node20&#45;&gt;Node16</title>
<path fill="none" stroke="#191970" d="M458.6874,-208.3393C476.4802,-213.4229 499.542,-220.012 519.4087,-225.6882"/>
<polygon fill="#191970" stroke="#191970" points="518.587,-229.0934 529.1637,-228.4754 520.5101,-222.3627 518.587,-229.0934"/>
</g>
<!-- Node21&#45;&gt;Node15 -->
<g id="edge33" class="edge">
<title>Node21&#45;&gt;Node15</title>
<path fill="none" stroke="#191970" d="M460.6826,-314C474.6647,-314 491.5814,-314 507.5762,-314"/>
<polygon fill="#191970" stroke="#191970" points="507.9138,-317.5001 517.9138,-314 507.9138,-310.5001 507.9138,-317.5001"/>
</g>
</g>
</svg>
