<?xml version="1.0" encoding="UTF-8" standalone="no"?>
<!DOCTYPE svg PUBLIC "-//W3C//DTD SVG 1.1//EN"
 "http://www.w3.org/Graphics/SVG/1.1/DTD/svg11.dtd">
<!-- Generated by graphviz version 2.40.1 (20161225.0304)
 -->
<!-- Title: cfbDecryptFile Pages: 1 -->
<svg width="648pt" height="713pt"
 viewBox="0.00 0.00 648.00 712.78" xmlns="http://www.w3.org/2000/svg" xmlns:xlink="http://www.w3.org/1999/xlink">
<g id="graph0" class="graph" transform="scale(1 1) rotate(0) translate(4 708.7754)">
<title>cfbDecryptFile</title>
<polygon fill="#ffffff" stroke="transparent" points="-4,4 -4,-708.7754 644,-708.7754 644,4 -4,4"/>
<!-- Node26 -->
<g id="node1" class="node">
<title>Node26</title>
<polygon fill="#bfbfbf" stroke="#000000" points="0,-475.5 0,-494.5 80,-494.5 80,-475.5 0,-475.5"/>
<text text-anchor="middle" x="40" y="-482.5" font-family="Helvetica,sans-Serif" font-size="10.00" fill="#000000">cfbDecryptFile</text>
</g>
<!-- Node27 -->
<g id="node2" class="node">
<title>Node27</title>
<g id="a_node2"><a xlink:href="_a_e_s_8c.html#afba897e91364663f883cc51ed309dc92" target="_top" xlink:title="keyHexToAscii &#45; Function to convert a key from a Hex string passed in as a paramter ...">
<polygon fill="#ffffff" stroke="#000000" points="125,-608.5 125,-627.5 208,-627.5 208,-608.5 125,-608.5"/>
<text text-anchor="middle" x="166.5" y="-615.5" font-family="Helvetica,sans-Serif" font-size="10.00" fill="#000000">keyHexToAscii</text>
</a>
</g>
</g>
<!-- Node26&#45;&gt;Node27 -->
<g id="edge1" class="edge">
<title>Node26&#45;&gt;Node27</title>
<path fill="none" stroke="#191970" d="M44.5685,-494.7035C54.7432,-515.4178 81.1461,-564.4766 116,-594 120.3516,-597.6861 125.3655,-600.9443 130.5086,-603.7769"/>
<polygon fill="#191970" stroke="#191970" points="129.2808,-607.076 139.7905,-608.4164 132.4106,-600.8146 129.2808,-607.076"/>
</g>
<!-- Node28 -->
<g id="node3" class="node">
<title>Node28</title>
<g id="a_node3"><a xlink:href="_a_e_s_8c.html#a1c2a403d95a85400bbae142d48cb8c9d" target="_top" xlink:title="getNumRounds &#45; Function to return the number of rounds of AES encryption and decryption based off of ...">
<polygon fill="#ffffff" stroke="#000000" points="420,-456.5 420,-475.5 505,-475.5 505,-456.5 420,-456.5"/>
<text text-anchor="middle" x="462.5" y="-463.5" font-family="Helvetica,sans-Serif" font-size="10.00" fill="#000000">getNumRounds</text>
</a>
</g>
</g>
<!-- Node26&#45;&gt;Node28 -->
<g id="edge10" class="edge">
<title>Node26&#45;&gt;Node28</title>
<path fill="none" stroke="#191970" d="M80.0355,-488.1242C142.9116,-492.3292 268.5258,-497.8954 374,-485 387.5488,-483.3435 402.0917,-480.6238 415.3944,-477.7531"/>
<polygon fill="#191970" stroke="#191970" points="416.2916,-481.139 425.2883,-475.5434 414.7658,-474.3073 416.2916,-481.139"/>
</g>
<!-- Node29 -->
<g id="node4" class="node">
<title>Node29</title>
<g id="a_node4"><a xlink:href="_a_e_s_8c.html#a5d65eac115e562c64b00a43e72ee6aca" target="_top" xlink:title="getPaddedKeyLength &#45; Function to return a valid key length (in bytes) based off of the current key le...">
<polygon fill="#ffffff" stroke="#000000" points="258.5,-608.5 258.5,-627.5 368.5,-627.5 368.5,-608.5 258.5,-608.5"/>
<text text-anchor="middle" x="313.5" y="-615.5" font-family="Helvetica,sans-Serif" font-size="10.00" fill="#000000">getPaddedKeyLength</text>
</a>
</g>
</g>
<!-- Node26&#45;&gt;Node29 -->
<g id="edge9" class="edge">
<title>Node26&#45;&gt;Node29</title>
<path fill="none" stroke="#191970" d="M47.0381,-494.7219C59.2486,-510.8869 85.9498,-543.2642 116,-561 140.5838,-575.5095 211.5697,-594.1442 261.3624,-606.082"/>
<polygon fill="#191970" stroke="#191970" points="260.7914,-609.5438 271.3297,-608.4505 262.4098,-602.7334 260.7914,-609.5438"/>
</g>
<!-- Node30 -->
<g id="node5" class="node">
<title>Node30</title>
<g id="a_node5"><a xlink:href="_a_e_s_8c.html#ad697cbb5d9e462b3017df1f1d939ee96" target="_top" xlink:title="hexToAsciiString &#45; Function that converts a given string of hex values into its ASCII equivalent...">
<polygon fill="#ffffff" stroke="#000000" points="268,-684.5 268,-703.5 359,-703.5 359,-684.5 268,-684.5"/>
<text text-anchor="middle" x="313.5" y="-691.5" font-family="Helvetica,sans-Serif" font-size="10.00" fill="#000000">hexToAsciiString</text>
</a>
</g>
</g>
<!-- Node26&#45;&gt;Node30 -->
<g id="edge39" class="edge">
<title>Node26&#45;&gt;Node30</title>
<path fill="none" stroke="#191970" d="M40.5202,-494.5347C42.8152,-526.3138 54.8749,-629.1946 116,-675 156.321,-705.2154 215.0437,-707.1049 257.9755,-703.1736"/>
<polygon fill="#191970" stroke="#191970" points="258.3971,-706.6487 267.9788,-702.1274 257.669,-699.6866 258.3971,-706.6487"/>
</g>
<!-- Node33 -->
<g id="node8" class="node">
<title>Node33</title>
<g id="a_node8"><a xlink:href="_a_e_s_8c.html#ad82d1b77336ac1292ed5a24b92380f42" target="_top" xlink:title="IVHexToAscii &#45; Function to convert a initialization vector from a Hex string passed in as a paramter...">
<polygon fill="#ffffff" stroke="#000000" points="128,-646.5 128,-665.5 205,-665.5 205,-646.5 128,-646.5"/>
<text text-anchor="middle" x="166.5" y="-653.5" font-family="Helvetica,sans-Serif" font-size="10.00" fill="#000000">IVHexToAscii</text>
</a>
</g>
</g>
<!-- Node26&#45;&gt;Node33 -->
<g id="edge7" class="edge">
<title>Node26&#45;&gt;Node33</title>
<path fill="none" stroke="#191970" d="M42.2058,-494.6943C48.7334,-521.2497 70.414,-595.9159 116,-637 117.7244,-638.5541 119.5881,-639.9853 121.5481,-641.303"/>
<polygon fill="#191970" stroke="#191970" points="120.1879,-644.5525 130.6238,-646.381 123.6059,-638.4437 120.1879,-644.5525"/>
</g>
<!-- Node34 -->
<g id="node9" class="node">
<title>Node34</title>
<g id="a_node9"><a xlink:href="_a_e_s_8c.html#a0e0b199ded54d7fb53a3bda3fcc02256" target="_top" xlink:title="validateNumRounds &#45; Function that validates the number of rounds that have been passed in by the ...">
<polygon fill="#ffffff" stroke="#000000" points="410,-152.5 410,-171.5 515,-171.5 515,-152.5 410,-152.5"/>
<text text-anchor="middle" x="462.5" y="-159.5" font-family="Helvetica,sans-Serif" font-size="10.00" fill="#000000">validateNumRounds</text>
</a>
</g>
</g>
<!-- Node26&#45;&gt;Node34 -->
<g id="edge11" class="edge">
<title>Node26&#45;&gt;Node34</title>
<path fill="none" stroke="#191970" d="M42.714,-475.0855C51.2754,-444.4856 79.3323,-349.179 116,-276 128.4389,-251.1754 228.5699,-80.1969 253,-67 300.3156,-41.4405 324.6879,-45.5438 374,-67 375.2,-67.5221 421.267,-117.3184 446.4483,-144.5965"/>
<polygon fill="#191970" stroke="#191970" points="444.166,-147.2843 453.5199,-152.2597 449.3104,-142.5371 444.166,-147.2843"/>
</g>
<!-- Node35 -->
<g id="node10" class="node">
<title>Node35</title>
<g id="a_node10"><a xlink:href="_a_e_s_8c.html#acc2acf0b03a8863f9290bdd36dd6f478" target="_top" xlink:title="Get the output file name from all the parameters passed in. ">
<polygon fill="#ffffff" stroke="#000000" points="116,-532.5 116,-551.5 217,-551.5 217,-532.5 116,-532.5"/>
<text text-anchor="middle" x="166.5" y="-539.5" font-family="Helvetica,sans-Serif" font-size="10.00" fill="#000000">getOutputFileName</text>
</a>
</g>
</g>
<!-- Node26&#45;&gt;Node35 -->
<g id="edge12" class="edge">
<title>Node26&#45;&gt;Node35</title>
<path fill="none" stroke="#191970" d="M61.1733,-494.5405C81.6055,-503.7472 112.7591,-517.7847 135.8902,-528.2074"/>
<polygon fill="#191970" stroke="#191970" points="134.7026,-531.5112 145.2577,-532.4284 137.5783,-525.1291 134.7026,-531.5112"/>
</g>
<!-- Node38 -->
<g id="node13" class="node">
<title>Node38</title>
<g id="a_node13"><a xlink:href="_a_e_s_8c.html#aaba2e1b9466483b3c6b8669eb42aa5ed" target="_top" xlink:title="printAESBlock &#45; Function to print a single block in hex format to the terminal. ">
<polygon fill="#ffffff" stroke="#000000" points="273.5,-456.5 273.5,-475.5 353.5,-475.5 353.5,-456.5 273.5,-456.5"/>
<text text-anchor="middle" x="313.5" y="-463.5" font-family="Helvetica,sans-Serif" font-size="10.00" fill="#000000">printAESBlock</text>
</a>
</g>
</g>
<!-- Node26&#45;&gt;Node38 -->
<g id="edge15" class="edge">
<title>Node26&#45;&gt;Node38</title>
<path fill="none" stroke="#191970" d="M80.0622,-482.2169C128.6081,-478.8444 210.4376,-473.1597 263.187,-469.4952"/>
<polygon fill="#191970" stroke="#191970" points="263.5973,-472.9753 273.3307,-468.7906 263.1121,-465.9921 263.5973,-472.9753"/>
</g>
<!-- Node39 -->
<g id="node14" class="node">
<title>Node39</title>
<g id="a_node14"><a xlink:href="_a_e_s_8c.html#a41cef4df290905c4d632ce1357d0a9bd" target="_top" xlink:title="AESEncrypt &#45; Function to encrypt a single block of plaintext passed in as parameter &#160;plainText using ...">
<polygon fill="#ffffff" stroke="#000000" points="131,-285.5 131,-304.5 202,-304.5 202,-285.5 131,-285.5"/>
<text text-anchor="middle" x="166.5" y="-292.5" font-family="Helvetica,sans-Serif" font-size="10.00" fill="#000000">AESEncrypt</text>
</a>
</g>
</g>
<!-- Node26&#45;&gt;Node39 -->
<g id="edge16" class="edge">
<title>Node26&#45;&gt;Node39</title>
<path fill="none" stroke="#191970" d="M46.4471,-475.3167C66.4899,-445.2127 127.9406,-352.9153 154.2926,-313.3353"/>
<polygon fill="#191970" stroke="#191970" points="157.2856,-315.1553 159.9142,-304.8917 151.4589,-311.2759 157.2856,-315.1553"/>
</g>
<!-- Node53 -->
<g id="node28" class="node">
<title>Node53</title>
<g id="a_node28"><a xlink:href="_a_e_s_8c.html#ab601c369ba50730fc02d03bc44aad4e0" target="_top" xlink:title="XORBlocks &#45; Function to XOR two blocks of length. ">
<polygon fill="#ffffff" stroke="#000000" points="132.5,-76.5 132.5,-95.5 200.5,-95.5 200.5,-76.5 132.5,-76.5"/>
<text text-anchor="middle" x="166.5" y="-83.5" font-family="Helvetica,sans-Serif" font-size="10.00" fill="#000000">XORBlocks</text>
</a>
</g>
</g>
<!-- Node26&#45;&gt;Node53 -->
<g id="edge40" class="edge">
<title>Node26&#45;&gt;Node53</title>
<path fill="none" stroke="#191970" d="M40.7945,-475.3654C45.3041,-422.7093 69.1533,-169.9206 116,-110 118.7998,-106.4189 122.265,-103.3449 126.0586,-100.7122"/>
<polygon fill="#191970" stroke="#191970" points="127.8894,-103.6962 134.7569,-95.6285 124.3573,-97.6526 127.8894,-103.6962"/>
</g>
<!-- Node54 -->
<g id="node29" class="node">
<title>Node54</title>
<g id="a_node29"><a xlink:href="_a_e_s_8c.html#ac189aee6672718650020cf627d45c780" target="_top" xlink:title="Function name: asciiToHexString &#45; convert an ascii String to an ascii string. ">
<polygon fill="#ffffff" stroke="#000000" points="120.5,-38.5 120.5,-57.5 212.5,-57.5 212.5,-38.5 120.5,-38.5"/>
<text text-anchor="middle" x="166.5" y="-45.5" font-family="Helvetica,sans-Serif" font-size="10.00" fill="#000000">asciiToHexString</text>
</a>
</g>
</g>
<!-- Node26&#45;&gt;Node54 -->
<g id="edge41" class="edge">
<title>Node26&#45;&gt;Node54</title>
<path fill="none" stroke="#191970" d="M40.4908,-475.3268C43.5364,-418.8767 61.5365,-132.2687 116,-67 117.0128,-65.7863 118.1114,-64.6501 119.2803,-63.5863"/>
<polygon fill="#191970" stroke="#191970" points="121.6774,-66.1796 127.8464,-57.566 117.6524,-60.4525 121.6774,-66.1796"/>
</g>
<!-- Node55 -->
<g id="node30" class="node">
<title>Node55</title>
<g id="a_node30"><a xlink:href="_a_e_s_8c.html#a3bf513612c15693c3b2be10b94298e05" target="_top" xlink:title="isFileTxt &#45; Function to determine if the file passed in as a paramter ">
<polygon fill="#ffffff" stroke="#000000" points="139.5,-.5 139.5,-19.5 193.5,-19.5 193.5,-.5 139.5,-.5"/>
<text text-anchor="middle" x="166.5" y="-7.5" font-family="Helvetica,sans-Serif" font-size="10.00" fill="#000000">isFileTxt</text>
</a>
</g>
</g>
<!-- Node26&#45;&gt;Node55 -->
<g id="edge42" class="edge">
<title>Node26&#45;&gt;Node55</title>
<path fill="none" stroke="#191970" d="M40.334,-475.2417C42.559,-415.6313 57.0063,-100.7638 116,-29 119.7727,-24.4107 124.7755,-20.9291 130.1675,-18.2882"/>
<polygon fill="#191970" stroke="#191970" points="131.4634,-21.5395 139.4606,-14.59 128.8752,-15.0356 131.4634,-21.5395"/>
</g>
<!-- Node27&#45;&gt;Node28 -->
<g id="edge2" class="edge">
<title>Node27&#45;&gt;Node28</title>
<path fill="none" stroke="#191970" d="M201.5666,-627.5083C217.1835,-631.273 235.8801,-635.1419 253,-637 306.4638,-642.8026 328.058,-664.9532 374,-637 429.1242,-603.4599 451.4354,-523.2766 459.0762,-485.8603"/>
<polygon fill="#191970" stroke="#191970" points="462.5746,-486.1969 460.9965,-475.7203 455.6968,-484.8943 462.5746,-486.1969"/>
</g>
<!-- Node27&#45;&gt;Node29 -->
<g id="edge3" class="edge">
<title>Node27&#45;&gt;Node29</title>
<path fill="none" stroke="#191970" d="M208.2311,-618C220.6769,-618 234.6277,-618 248.2006,-618"/>
<polygon fill="#191970" stroke="#191970" points="248.4752,-621.5001 258.4752,-618 248.4751,-614.5001 248.4752,-621.5001"/>
</g>
<!-- Node27&#45;&gt;Node30 -->
<g id="edge4" class="edge">
<title>Node27&#45;&gt;Node30</title>
<path fill="none" stroke="#191970" d="M197.5591,-627.548C204.2008,-630.1689 211.0139,-633.3225 217,-637 235.4939,-648.3616 234.6079,-658.4742 253,-670 259.3853,-674.0015 266.5494,-677.5468 273.6532,-680.6022"/>
<polygon fill="#191970" stroke="#191970" points="272.6407,-683.9677 283.224,-684.4616 275.2586,-677.4756 272.6407,-683.9677"/>
</g>
<!-- Node31 -->
<g id="node6" class="node">
<title>Node31</title>
<g id="a_node6"><a xlink:href="_a_e_s_8c.html#aa177516503b10de65b504a3714073ad7" target="_top" xlink:title="hexToAscii &#45; Function that converts a given hex value to its ASCII equivalent. ">
<polygon fill="#ffffff" stroke="#000000" points="430,-684.5 430,-703.5 495,-703.5 495,-684.5 430,-684.5"/>
<text text-anchor="middle" x="462.5" y="-691.5" font-family="Helvetica,sans-Serif" font-size="10.00" fill="#000000">hexToAscii</text>
</a>
</g>
</g>
<!-- Node30&#45;&gt;Node31 -->
<g id="edge5" class="edge">
<title>Node30&#45;&gt;Node31</title>
<path fill="none" stroke="#191970" d="M359.0145,-694C378.2224,-694 400.4758,-694 419.4138,-694"/>
<polygon fill="#191970" stroke="#191970" points="419.5534,-697.5001 429.5534,-694 419.5533,-690.5001 419.5534,-697.5001"/>
</g>
<!-- Node32 -->
<g id="node7" class="node">
<title>Node32</title>
<g id="a_node7"><a xlink:href="_a_e_s_8c.html#a7e5ab2188af44718071074f450963568" target="_top" xlink:title="hexToInt &#45; Function that converts a given hex value into an integer. ">
<polygon fill="#ffffff" stroke="#000000" points="568,-684.5 568,-703.5 623,-703.5 623,-684.5 568,-684.5"/>
<text text-anchor="middle" x="595.5" y="-691.5" font-family="Helvetica,sans-Serif" font-size="10.00" fill="#000000">hexToInt</text>
</a>
</g>
</g>
<!-- Node31&#45;&gt;Node32 -->
<g id="edge6" class="edge">
<title>Node31&#45;&gt;Node32</title>
<path fill="none" stroke="#191970" d="M495.0355,-694C513.9398,-694 537.85,-694 557.6014,-694"/>
<polygon fill="#191970" stroke="#191970" points="557.7947,-697.5001 567.7946,-694 557.7946,-690.5001 557.7947,-697.5001"/>
</g>
<!-- Node33&#45;&gt;Node30 -->
<g id="edge8" class="edge">
<title>Node33&#45;&gt;Node30</title>
<path fill="none" stroke="#191970" d="M203.5943,-665.589C222.8178,-670.5583 246.4863,-676.6767 266.9294,-681.9613"/>
<polygon fill="#191970" stroke="#191970" points="266.1147,-685.3657 276.6724,-684.4799 267.8667,-678.5885 266.1147,-685.3657"/>
</g>
<!-- Node36 -->
<g id="node11" class="node">
<title>Node36</title>
<g id="a_node11"><a xlink:href="_a_e_s_8c.html#a9dcad0047890de22f3d15611a10ab74f" target="_top" xlink:title="Returns the last index of &#39;/&#39; in a given path, otherwise returns &#45;1 if no &#39;/&#39; is found. ">
<polygon fill="#ffffff" stroke="#000000" points="267.5,-532.5 267.5,-551.5 359.5,-551.5 359.5,-532.5 267.5,-532.5"/>
<text text-anchor="middle" x="313.5" y="-539.5" font-family="Helvetica,sans-Serif" font-size="10.00" fill="#000000">fileNameDirIndex</text>
</a>
</g>
</g>
<!-- Node35&#45;&gt;Node36 -->
<g id="edge13" class="edge">
<title>Node35&#45;&gt;Node36</title>
<path fill="none" stroke="#191970" d="M217.0891,-542C229.9333,-542 243.8148,-542 256.9349,-542"/>
<polygon fill="#191970" stroke="#191970" points="257.2594,-545.5001 267.2594,-542 257.2593,-538.5001 257.2594,-545.5001"/>
</g>
<!-- Node37 -->
<g id="node12" class="node">
<title>Node37</title>
<g id="a_node12"><a xlink:href="_a_e_s_8c.html#ab066697b473ad5ce74faaceae6def5e5" target="_top" xlink:title="Removes path from the provided path to a file and returns only the file name. ">
<polygon fill="#ffffff" stroke="#000000" points="276,-570.5 276,-589.5 351,-589.5 351,-570.5 276,-570.5"/>
<text text-anchor="middle" x="313.5" y="-577.5" font-family="Helvetica,sans-Serif" font-size="10.00" fill="#000000">stripDirectory</text>
</a>
</g>
</g>
<!-- Node35&#45;&gt;Node37 -->
<g id="edge14" class="edge">
<title>Node35&#45;&gt;Node37</title>
<path fill="none" stroke="#191970" d="M203.5943,-551.589C222.8178,-556.5583 246.4863,-562.6767 266.9294,-567.9613"/>
<polygon fill="#191970" stroke="#191970" points="266.1147,-571.3657 276.6724,-570.4799 267.8667,-564.5885 266.1147,-571.3657"/>
</g>
<!-- Node39&#45;&gt;Node28 -->
<g id="edge18" class="edge">
<title>Node39&#45;&gt;Node28</title>
<path fill="none" stroke="#191970" d="M171.0307,-304.6567C181.8897,-326.719 211.6079,-381.0648 253,-409 266.2634,-417.9514 354.1045,-440.1059 411.7532,-454.0101"/>
<polygon fill="#191970" stroke="#191970" points="411.247,-457.488 421.7879,-456.4207 412.8821,-450.6816 411.247,-457.488"/>
</g>
<!-- Node39&#45;&gt;Node29 -->
<g id="edge17" class="edge">
<title>Node39&#45;&gt;Node29</title>
<path fill="none" stroke="#191970" d="M168.6682,-304.6328C179.8411,-353.9401 231.2329,-576.6352 253,-599 254.4109,-600.4497 255.931,-601.7891 257.5373,-603.0267"/>
<polygon fill="#191970" stroke="#191970" points="255.8413,-606.0936 266.1811,-608.4045 259.5392,-600.15 255.8413,-606.0936"/>
</g>
<!-- Node39&#45;&gt;Node34 -->
<g id="edge19" class="edge">
<title>Node39&#45;&gt;Node34</title>
<path fill="none" stroke="#191970" d="M170.5634,-285.17C180.6253,-262.2417 209.1053,-205.3271 253,-181 297.5063,-156.3339 355.6242,-152.8891 399.3538,-154.8724"/>
<polygon fill="#191970" stroke="#191970" points="399.3988,-158.3804 409.5791,-155.4459 399.7909,-151.3913 399.3988,-158.3804"/>
</g>
<!-- Node39&#45;&gt;Node38 -->
<g id="edge38" class="edge">
<title>Node39&#45;&gt;Node38</title>
<path fill="none" stroke="#191970" d="M169.6774,-304.7124C178.6233,-330.6233 206.4475,-402.1251 253,-442 257.6181,-445.9557 262.968,-449.3088 268.538,-452.138"/>
<polygon fill="#191970" stroke="#191970" points="267.4744,-455.4977 278.0292,-456.4183 270.3522,-449.1166 267.4744,-455.4977"/>
</g>
<!-- Node40 -->
<g id="node15" class="node">
<title>Node40</title>
<g id="a_node15"><a xlink:href="_a_e_s_8c.html#acefcd728377e1e14187fa8fcd20f4064" target="_top" xlink:title="validatePlainTextLength &#45; Function that validates the length of the plaintext. The validation is done...">
<polygon fill="#ffffff" stroke="#000000" points="253,-304.5 253,-323.5 374,-323.5 374,-304.5 253,-304.5"/>
<text text-anchor="middle" x="313.5" y="-311.5" font-family="Helvetica,sans-Serif" font-size="10.00" fill="#000000">validatePlainTextLength</text>
</a>
</g>
</g>
<!-- Node39&#45;&gt;Node40 -->
<g id="edge20" class="edge">
<title>Node39&#45;&gt;Node40</title>
<path fill="none" stroke="#191970" d="M202.0846,-299.5994C214.3237,-301.1813 228.4944,-303.0129 242.5411,-304.8284"/>
<polygon fill="#191970" stroke="#191970" points="242.3519,-308.333 252.7181,-306.1438 243.2492,-301.3908 242.3519,-308.333"/>
</g>
<!-- Node41 -->
<g id="node16" class="node">
<title>Node41</title>
<g id="a_node16"><a xlink:href="_a_e_s_8c.html#a1c1a633a58f7328faa397db9e45e7e0c" target="_top" xlink:title="constructStateArray &#45; Function to convert the state array from a flat 1D array to a multidimensional ...">
<polygon fill="#ffffff" stroke="#000000" points="261.5,-228.5 261.5,-247.5 365.5,-247.5 365.5,-228.5 261.5,-228.5"/>
<text text-anchor="middle" x="313.5" y="-235.5" font-family="Helvetica,sans-Serif" font-size="10.00" fill="#000000">constructStateArray</text>
</a>
</g>
</g>
<!-- Node39&#45;&gt;Node41 -->
<g id="edge21" class="edge">
<title>Node39&#45;&gt;Node41</title>
<path fill="none" stroke="#191970" d="M186.5156,-285.459C203.8839,-277.3612 229.8121,-265.7045 253,-257 258.8846,-254.791 265.1537,-252.6222 271.343,-250.5857"/>
<polygon fill="#191970" stroke="#191970" points="272.4841,-253.8954 280.9366,-247.5074 270.3454,-247.2301 272.4841,-253.8954"/>
</g>
<!-- Node42 -->
<g id="node17" class="node">
<title>Node42</title>
<g id="a_node17"><a xlink:href="_a_e_s_8c.html#ae9af90db32afa65125a7eec339ed9d58" target="_top" xlink:title="printStateArray &#45; Function to print the state array to the terminal in hex format. ">
<polygon fill="#ffffff" stroke="#000000" points="272.5,-190.5 272.5,-209.5 354.5,-209.5 354.5,-190.5 272.5,-190.5"/>
<text text-anchor="middle" x="313.5" y="-197.5" font-family="Helvetica,sans-Serif" font-size="10.00" fill="#000000">printStateArray</text>
</a>
</g>
</g>
<!-- Node39&#45;&gt;Node42 -->
<g id="edge22" class="edge">
<title>Node39&#45;&gt;Node42</title>
<path fill="none" stroke="#191970" d="M174.8645,-285.4083C189.2835,-269.4352 220.4224,-237.3333 253,-219 256.8827,-216.815 261.0497,-214.846 265.3141,-213.0793"/>
<polygon fill="#191970" stroke="#191970" points="266.6096,-216.3315 274.7327,-209.5296 264.1408,-209.7812 266.6096,-216.3315"/>
</g>
<!-- Node43 -->
<g id="node18" class="node">
<title>Node43</title>
<g id="a_node18"><a xlink:href="_a_e_s_8c.html#a185c827e4ccbc8e4608e83dfbf9dfc8e" target="_top" xlink:title="RijndaelKeySchedule &#45; Function that performs the Rijndael key scheduling for AES encryption. Takes in the original key passed in as parameter. ">
<polygon fill="#ffffff" stroke="#000000" points="258.5,-266.5 258.5,-285.5 368.5,-285.5 368.5,-266.5 258.5,-266.5"/>
<text text-anchor="middle" x="313.5" y="-273.5" font-family="Helvetica,sans-Serif" font-size="10.00" fill="#000000">RijndaelKeySchedule</text>
</a>
</g>
</g>
<!-- Node39&#45;&gt;Node43 -->
<g id="edge23" class="edge">
<title>Node39&#45;&gt;Node43</title>
<path fill="none" stroke="#191970" d="M202.0846,-290.4006C215.9554,-288.6078 232.3071,-286.4943 248.1478,-284.4469"/>
<polygon fill="#191970" stroke="#191970" points="248.9835,-287.8681 258.4523,-283.115 248.0861,-280.9258 248.9835,-287.8681"/>
</g>
<!-- Node48 -->
<g id="node23" class="node">
<title>Node48</title>
<g id="a_node23"><a xlink:href="_a_e_s_8c.html#abe15a731f43315f6f595674d3cd62d57" target="_top" xlink:title="getRoundKey &#45; Function to extract the correct sub&#45;key to use for the appropriate round specified by ...">
<polygon fill="#ffffff" stroke="#000000" points="275.5,-114.5 275.5,-133.5 351.5,-133.5 351.5,-114.5 275.5,-114.5"/>
<text text-anchor="middle" x="313.5" y="-121.5" font-family="Helvetica,sans-Serif" font-size="10.00" fill="#000000">getRoundKey</text>
</a>
</g>
</g>
<!-- Node39&#45;&gt;Node48 -->
<g id="edge31" class="edge">
<title>Node39&#45;&gt;Node48</title>
<path fill="none" stroke="#191970" d="M169.6774,-285.2876C178.6233,-259.3767 206.4475,-187.8749 253,-148 257.6181,-144.0443 262.968,-140.6912 268.538,-137.862"/>
<polygon fill="#191970" stroke="#191970" points="270.3522,-140.8834 278.0292,-133.5817 267.4744,-134.5023 270.3522,-140.8834"/>
</g>
<!-- Node49 -->
<g id="node24" class="node">
<title>Node49</title>
<g id="a_node24"><a xlink:href="_a_e_s_8c.html#aef4d8fc4282e3cc21708d25c0ec9ad06" target="_top" xlink:title="AddRoundKey &#45; Function that performs the Bitwise XOR between state and key as per AES encryption...">
<polygon fill="#ffffff" stroke="#000000" points="273.5,-76.5 273.5,-95.5 353.5,-95.5 353.5,-76.5 273.5,-76.5"/>
<text text-anchor="middle" x="313.5" y="-83.5" font-family="Helvetica,sans-Serif" font-size="10.00" fill="#000000">AddRoundKey</text>
</a>
</g>
</g>
<!-- Node39&#45;&gt;Node49 -->
<g id="edge32" class="edge">
<title>Node39&#45;&gt;Node49</title>
<path fill="none" stroke="#191970" d="M168.0286,-285.4839C173.4874,-254.6268 194.8905,-156.3719 253,-105 256.2477,-102.1288 259.9276,-99.6914 263.83,-97.6222"/>
<polygon fill="#191970" stroke="#191970" points="265.5291,-100.697 273.2404,-93.4315 262.6814,-94.3024 265.5291,-100.697"/>
</g>
<!-- Node50 -->
<g id="node25" class="node">
<title>Node50</title>
<g id="a_node25"><a xlink:href="_a_e_s_8c.html#aec40f89d2cbf831fd0d5d5f1bfa616f5" target="_top" xlink:title="subBytes &#45; Function that performs the sub byte operation where each value is replaced by the s box va...">
<polygon fill="#ffffff" stroke="#000000" points="433.5,-323.5 433.5,-342.5 491.5,-342.5 491.5,-323.5 433.5,-323.5"/>
<text text-anchor="middle" x="462.5" y="-330.5" font-family="Helvetica,sans-Serif" font-size="10.00" fill="#000000">subBytes</text>
</a>
</g>
</g>
<!-- Node39&#45;&gt;Node50 -->
<g id="edge33" class="edge">
<title>Node39&#45;&gt;Node50</title>
<path fill="none" stroke="#191970" d="M182.7178,-304.5732C199.6057,-313.9426 227.1554,-327.5734 253,-333 311.2457,-345.2298 380.6255,-341.8253 423.1086,-337.7764"/>
<polygon fill="#191970" stroke="#191970" points="423.7109,-341.2333 433.3068,-336.7422 423.0046,-334.269 423.7109,-341.2333"/>
</g>
<!-- Node51 -->
<g id="node26" class="node">
<title>Node51</title>
<g id="a_node26"><a xlink:href="_a_e_s_8c.html#abeb4dba64fcf4d07eac178e732ca6aa8" target="_top" xlink:title="ShiftRows &#45; Function to shift the state array according to the AES encryption standard for 128 &#45; bits...">
<polygon fill="#ffffff" stroke="#000000" points="431.5,-76.5 431.5,-95.5 493.5,-95.5 493.5,-76.5 431.5,-76.5"/>
<text text-anchor="middle" x="462.5" y="-83.5" font-family="Helvetica,sans-Serif" font-size="10.00" fill="#000000">ShiftRows</text>
</a>
</g>
</g>
<!-- Node39&#45;&gt;Node51 -->
<g id="edge35" class="edge">
<title>Node39&#45;&gt;Node51</title>
<path fill="none" stroke="#191970" d="M168.6254,-285.4156C177.6774,-245.5495 214.3237,-93.6929 253,-67 307.3761,-29.4717 389.5214,-54.4722 433.0338,-72.3678"/>
<polygon fill="#191970" stroke="#191970" points="431.8956,-75.6873 442.4673,-76.3875 434.6397,-69.2475 431.8956,-75.6873"/>
</g>
<!-- Node52 -->
<g id="node27" class="node">
<title>Node52</title>
<g id="a_node27"><a xlink:href="_a_e_s_8c.html#aca09b30896a351db6587639a1cc1bf0d" target="_top" xlink:title="mixColumns &#45; Function that performs the MixColumns step of AES as specified by AES encryption...">
<polygon fill="#ffffff" stroke="#000000" points="278,-380.5 278,-399.5 349,-399.5 349,-380.5 278,-380.5"/>
<text text-anchor="middle" x="313.5" y="-387.5" font-family="Helvetica,sans-Serif" font-size="10.00" fill="#000000">mixColumns</text>
</a>
</g>
</g>
<!-- Node39&#45;&gt;Node52 -->
<g id="edge37" class="edge">
<title>Node39&#45;&gt;Node52</title>
<path fill="none" stroke="#191970" d="M176.1173,-304.6243C191.3288,-319.425 222.3685,-347.9504 253,-366 259.6261,-369.9044 267.0054,-373.4292 274.269,-376.5002"/>
<polygon fill="#191970" stroke="#191970" points="273.4358,-379.9365 284.0205,-380.3997 276.035,-373.4368 273.4358,-379.9365"/>
</g>
<!-- Node43&#45;&gt;Node28 -->
<g id="edge24" class="edge">
<title>Node43&#45;&gt;Node28</title>
<path fill="none" stroke="#191970" d="M358.2483,-285.5423C363.9274,-288.0066 369.364,-291.105 374,-295 386.827,-305.7768 433.8353,-404.5372 453.6251,-446.8746"/>
<polygon fill="#191970" stroke="#191970" points="450.5347,-448.5292 457.9307,-456.1154 456.8797,-445.5728 450.5347,-448.5292"/>
</g>
<!-- Node43&#45;&gt;Node34 -->
<g id="edge25" class="edge">
<title>Node43&#45;&gt;Node34</title>
<path fill="none" stroke="#191970" d="M354.1709,-266.4263C361.0671,-263.92 367.9467,-260.8166 374,-257 406.5335,-236.4873 435.0137,-201.1166 450.3915,-179.806"/>
<polygon fill="#191970" stroke="#191970" points="453.2607,-181.8104 456.1533,-171.618 447.536,-177.7819 453.2607,-181.8104"/>
</g>
<!-- Node44 -->
<g id="node19" class="node">
<title>Node44</title>
<g id="a_node19"><a xlink:href="_a_e_s_8c.html#af2f914cf17729a0ee89102c98b39665e" target="_top" xlink:title="KeyScheduleCore &#45; Function that performs the key schedule core for the Rijndael Key Schedule...">
<polygon fill="#ffffff" stroke="#000000" points="415,-238.5 415,-257.5 510,-257.5 510,-238.5 415,-238.5"/>
<text text-anchor="middle" x="462.5" y="-245.5" font-family="Helvetica,sans-Serif" font-size="10.00" fill="#000000">KeyScheduleCore</text>
</a>
</g>
</g>
<!-- Node43&#45;&gt;Node44 -->
<g id="edge26" class="edge">
<title>Node43&#45;&gt;Node44</title>
<path fill="none" stroke="#191970" d="M364.3606,-266.4423C377.3936,-263.9931 391.5035,-261.3416 404.8516,-258.8333"/>
<polygon fill="#191970" stroke="#191970" points="405.6986,-262.2354 414.8801,-256.9487 404.4057,-255.3559 405.6986,-262.2354"/>
</g>
<!-- Node46 -->
<g id="node21" class="node">
<title>Node46</title>
<g id="a_node21"><a xlink:href="_a_e_s_8c.html#acdf4abe2846c02b4d3e674782807fdfa" target="_top" xlink:title="getSBoxValue &#45; Function to return the sBox value passed in as a parameter ">
<polygon fill="#ffffff" stroke="#000000" points="556,-276.5 556,-295.5 635,-295.5 635,-276.5 556,-276.5"/>
<text text-anchor="middle" x="595.5" y="-283.5" font-family="Helvetica,sans-Serif" font-size="10.00" fill="#000000">getSBoxValue</text>
</a>
</g>
</g>
<!-- Node43&#45;&gt;Node46 -->
<g id="edge30" class="edge">
<title>Node43&#45;&gt;Node46</title>
<path fill="none" stroke="#191970" d="M368.5419,-277.9518C419.8695,-279.772 495.7719,-282.4635 545.4315,-284.2245"/>
<polygon fill="#191970" stroke="#191970" points="545.4939,-287.7288 555.6117,-284.5855 545.742,-280.7332 545.4939,-287.7288"/>
</g>
<!-- Node45 -->
<g id="node20" class="node">
<title>Node45</title>
<g id="a_node20"><a xlink:href="_a_e_s_8c.html#ac769b0533ccecd203cc3ab64e6b2f950" target="_top" xlink:title="SingleRotateLeft &#45; Function to rotate the array passed in as a paramter. ">
<polygon fill="#ffffff" stroke="#000000" points="551,-133.5 551,-152.5 640,-152.5 640,-133.5 551,-133.5"/>
<text text-anchor="middle" x="595.5" y="-140.5" font-family="Helvetica,sans-Serif" font-size="10.00" fill="#000000">SingleRotateLeft</text>
</a>
</g>
</g>
<!-- Node44&#45;&gt;Node45 -->
<g id="edge27" class="edge">
<title>Node44&#45;&gt;Node45</title>
<path fill="none" stroke="#191970" d="M474.7739,-238.3101C497.7356,-220.1824 547.386,-180.9847 575.3329,-158.9214"/>
<polygon fill="#191970" stroke="#191970" points="577.5757,-161.6101 583.2557,-152.6665 573.2381,-156.1159 577.5757,-161.6101"/>
</g>
<!-- Node44&#45;&gt;Node46 -->
<g id="edge28" class="edge">
<title>Node44&#45;&gt;Node46</title>
<path fill="none" stroke="#191970" d="M496.0615,-257.589C513.073,-262.4494 533.9319,-268.4091 552.1446,-273.6127"/>
<polygon fill="#191970" stroke="#191970" points="551.3724,-277.0321 561.9492,-276.4141 553.2955,-270.3014 551.3724,-277.0321"/>
</g>
<!-- Node47 -->
<g id="node22" class="node">
<title>Node47</title>
<g id="a_node22"><a xlink:href="_a_e_s_8c.html#a4e58d2e928429bc56387394251b8ece5" target="_top" xlink:title="getRconValue &#45; Function to return the Rcon value for the index passed in as a parameter ...">
<polygon fill="#ffffff" stroke="#000000" points="556.5,-238.5 556.5,-257.5 634.5,-257.5 634.5,-238.5 556.5,-238.5"/>
<text text-anchor="middle" x="595.5" y="-245.5" font-family="Helvetica,sans-Serif" font-size="10.00" fill="#000000">getRconValue</text>
</a>
</g>
</g>
<!-- Node44&#45;&gt;Node47 -->
<g id="edge29" class="edge">
<title>Node44&#45;&gt;Node47</title>
<path fill="none" stroke="#191970" d="M510.1404,-248C521.7856,-248 534.272,-248 546.0019,-248"/>
<polygon fill="#191970" stroke="#191970" points="546.0751,-251.5001 556.0751,-248 546.0751,-244.5001 546.0751,-251.5001"/>
</g>
<!-- Node50&#45;&gt;Node46 -->
<g id="edge34" class="edge">
<title>Node50&#45;&gt;Node46</title>
<path fill="none" stroke="#191970" d="M489.4145,-323.4888C509.2932,-316.4641 536.5917,-306.8172 558.5185,-299.0687"/>
<polygon fill="#191970" stroke="#191970" points="559.9066,-302.2903 568.169,-295.6583 557.5742,-295.6903 559.9066,-302.2903"/>
</g>
<!-- Node51&#45;&gt;Node45 -->
<g id="edge36" class="edge">
<title>Node51&#45;&gt;Node45</title>
<path fill="none" stroke="#191970" d="M484.7612,-95.5405C506.4352,-104.8294 539.5835,-119.0358 563.9667,-129.4857"/>
<polygon fill="#191970" stroke="#191970" points="562.596,-132.7061 573.1662,-133.4284 565.3534,-126.2721 562.596,-132.7061"/>
</g>
</g>
</svg>
