<?xml version="1.0" encoding="UTF-8" standalone="no"?>
<!DOCTYPE svg PUBLIC "-//W3C//DTD SVG 1.1//EN"
 "http://www.w3.org/Graphics/SVG/1.1/DTD/svg11.dtd">
<!-- Generated by graphviz version 2.40.1 (20161225.0304)
 -->
<!-- Title: cfb.h Pages: 1 -->
<svg width="256pt" height="140pt"
 viewBox="0.00 0.00 255.50 140.00" xmlns="http://www.w3.org/2000/svg" xmlns:xlink="http://www.w3.org/1999/xlink">
<g id="graph0" class="graph" transform="scale(1 1) rotate(0) translate(4 136)">
<title>cfb.h</title>
<polygon fill="#ffffff" stroke="transparent" points="-4,4 -4,-136 251.5,-136 251.5,4 -4,4"/>
<!-- Node7 -->
<g id="node1" class="node">
<title>Node7</title>
<polygon fill="#bfbfbf" stroke="#000000" points="70,-112.5 70,-131.5 108,-131.5 108,-112.5 70,-112.5"/>
<text text-anchor="middle" x="89" y="-119.5" font-family="Helvetica,sans-Serif" font-size="10.00" fill="#000000">cfb.h</text>
</g>
<!-- Node8 -->
<g id="node2" class="node">
<title>Node8</title>
<g id="a_node2"><a xlink:href="cfb_8c.html" target="_top" xlink:title="Cipher Feedback (CFB) &#45; AES implementation file This file contains the implementation of the function...">
<polygon fill="#ffffff" stroke="#000000" points="0,-56.5 0,-75.5 38,-75.5 38,-56.5 0,-56.5"/>
<text text-anchor="middle" x="19" y="-63.5" font-family="Helvetica,sans-Serif" font-size="10.00" fill="#000000">cfb.c</text>
</a>
</g>
</g>
<!-- Node7&#45;&gt;Node8 -->
<g id="edge1" class="edge">
<title>Node7&#45;&gt;Node8</title>
<path fill="none" stroke="#191970" d="M68.91,-105.928C56.6747,-96.1397 41.4493,-83.9595 31.0533,-75.6427"/>
<polygon fill="#191970" stroke="#191970" points="66.8118,-108.7316 76.8069,-112.2455 71.1847,-103.2655 66.8118,-108.7316"/>
</g>
<!-- Node9 -->
<g id="node3" class="node">
<title>Node9</title>
<g id="a_node3"><a xlink:href="cfb_tester_8c.html" target="_top" xlink:title="Main file. ">
<polygon fill="#ffffff" stroke="#000000" points="56,-56.5 56,-75.5 122,-75.5 122,-56.5 56,-56.5"/>
<text text-anchor="middle" x="89" y="-63.5" font-family="Helvetica,sans-Serif" font-size="10.00" fill="#000000">cfbTester.c</text>
</a>
</g>
</g>
<!-- Node7&#45;&gt;Node9 -->
<g id="edge2" class="edge">
<title>Node7&#45;&gt;Node9</title>
<path fill="none" stroke="#191970" d="M89,-102.1575C89,-93.155 89,-82.9199 89,-75.6427"/>
<polygon fill="#191970" stroke="#191970" points="85.5001,-102.2455 89,-112.2455 92.5001,-102.2456 85.5001,-102.2455"/>
</g>
<!-- Node10 -->
<g id="node4" class="node">
<title>Node10</title>
<g id="a_node4"><a xlink:href="encryption_platform_8h_source.html" target="_top" xlink:title="encryptionPlatform.h">
<polygon fill="#ffffff" stroke="#000000" points="140.5,-56.5 140.5,-75.5 247.5,-75.5 247.5,-56.5 140.5,-56.5"/>
<text text-anchor="middle" x="194" y="-63.5" font-family="Helvetica,sans-Serif" font-size="10.00" fill="#000000">encryptionPlatform.h</text>
</a>
</g>
</g>
<!-- Node7&#45;&gt;Node10 -->
<g id="edge3" class="edge">
<title>Node7&#45;&gt;Node10</title>
<path fill="none" stroke="#191970" d="M116.2625,-107.46C135.0522,-97.4388 159.5013,-84.3993 175.92,-75.6427"/>
<polygon fill="#191970" stroke="#191970" points="114.4661,-104.4514 107.2896,-112.2455 117.7602,-110.6278 114.4661,-104.4514"/>
</g>
<!-- Node11 -->
<g id="node5" class="node">
<title>Node11</title>
<g id="a_node5"><a xlink:href="encryption_platform_8c.html" target="_top" xlink:title="Implementation file for the cbc and cfb encryption platform. All functions, to specify key...">
<polygon fill="#ffffff" stroke="#000000" points="140.5,-.5 140.5,-19.5 247.5,-19.5 247.5,-.5 140.5,-.5"/>
<text text-anchor="middle" x="194" y="-7.5" font-family="Helvetica,sans-Serif" font-size="10.00" fill="#000000">encryptionPlatform.c</text>
</a>
</g>
</g>
<!-- Node10&#45;&gt;Node11 -->
<g id="edge4" class="edge">
<title>Node10&#45;&gt;Node11</title>
<path fill="none" stroke="#191970" d="M194,-46.1575C194,-37.155 194,-26.9199 194,-19.6427"/>
<polygon fill="#191970" stroke="#191970" points="190.5001,-46.2455 194,-56.2455 197.5001,-46.2456 190.5001,-46.2455"/>
</g>
</g>
</svg>
