<?xml version="1.0" encoding="UTF-8" standalone="no"?>
<!DOCTYPE svg PUBLIC "-//W3C//DTD SVG 1.1//EN"
 "http://www.w3.org/Graphics/SVG/1.1/DTD/svg11.dtd">
<!-- Generated by graphviz version 2.40.1 (20161225.0304)
 -->
<!-- Title: cfb.h Pages: 1 -->
<svg width="329pt" height="140pt"
 viewBox="0.00 0.00 329.00 140.00" xmlns="http://www.w3.org/2000/svg" xmlns:xlink="http://www.w3.org/1999/xlink">
<g id="graph0" class="graph" transform="scale(1 1) rotate(0) translate(4 136)">
<title>cfb.h</title>
<polygon fill="#ffffff" stroke="transparent" points="-4,4 -4,-136 325,-136 325,4 -4,4"/>
<!-- Node0 -->
<g id="node1" class="node">
<title>Node0</title>
<polygon fill="#bfbfbf" stroke="#000000" points="137,-112.5 137,-131.5 175,-131.5 175,-112.5 137,-112.5"/>
<text text-anchor="middle" x="156" y="-119.5" font-family="Helvetica,sans-Serif" font-size="10.00" fill="#000000">cfb.h</text>
</g>
<!-- Node1 -->
<g id="node2" class="node">
<title>Node1</title>
<g id="a_node2"><a xlink:href="_a_e_s_8h.html" target="_top" xlink:title="AES encryption and decryption module header file. This file contains the function headers for the fun...">
<polygon fill="#ffffff" stroke="#000000" points="133.5,-56.5 133.5,-75.5 178.5,-75.5 178.5,-56.5 133.5,-56.5"/>
<text text-anchor="middle" x="156" y="-63.5" font-family="Helvetica,sans-Serif" font-size="10.00" fill="#000000">AES.h</text>
</a>
</g>
</g>
<!-- Node0&#45;&gt;Node1 -->
<g id="edge1" class="edge">
<title>Node0&#45;&gt;Node1</title>
<path fill="none" stroke="#191970" d="M156,-112.2455C156,-104.9382 156,-94.6944 156,-85.7046"/>
<polygon fill="#191970" stroke="#191970" points="159.5001,-85.6426 156,-75.6427 152.5001,-85.6427 159.5001,-85.6426"/>
</g>
<!-- Node2 -->
<g id="node3" class="node">
<title>Node2</title>
<polygon fill="#ffffff" stroke="#bfbfbf" points="0,-.5 0,-19.5 46,-19.5 46,-.5 0,-.5"/>
<text text-anchor="middle" x="23" y="-7.5" font-family="Helvetica,sans-Serif" font-size="10.00" fill="#000000">stdio.h</text>
</g>
<!-- Node1&#45;&gt;Node2 -->
<g id="edge2" class="edge">
<title>Node1&#45;&gt;Node2</title>
<path fill="none" stroke="#191970" d="M133.4384,-56.5004C111.9429,-47.4496 79.3611,-33.731 55.1514,-23.5374"/>
<polygon fill="#191970" stroke="#191970" points="56.2469,-20.2011 45.6723,-19.5462 53.5305,-26.6526 56.2469,-20.2011"/>
</g>
<!-- Node3 -->
<g id="node4" class="node">
<title>Node3</title>
<polygon fill="#ffffff" stroke="#bfbfbf" points="64.5,-.5 64.5,-19.5 113.5,-19.5 113.5,-.5 64.5,-.5"/>
<text text-anchor="middle" x="89" y="-7.5" font-family="Helvetica,sans-Serif" font-size="10.00" fill="#000000">stdint.h</text>
</g>
<!-- Node1&#45;&gt;Node3 -->
<g id="edge3" class="edge">
<title>Node1&#45;&gt;Node3</title>
<path fill="none" stroke="#191970" d="M144.3295,-56.2455C134.4339,-47.9746 120.0373,-35.9416 108.4099,-26.2232"/>
<polygon fill="#191970" stroke="#191970" points="110.4542,-23.3703 100.5368,-19.6427 105.965,-28.7413 110.4542,-23.3703"/>
</g>
<!-- Node4 -->
<g id="node5" class="node">
<title>Node4</title>
<polygon fill="#ffffff" stroke="#bfbfbf" points="131.5,-.5 131.5,-19.5 180.5,-19.5 180.5,-.5 131.5,-.5"/>
<text text-anchor="middle" x="156" y="-7.5" font-family="Helvetica,sans-Serif" font-size="10.00" fill="#000000">string.h</text>
</g>
<!-- Node1&#45;&gt;Node4 -->
<g id="edge4" class="edge">
<title>Node1&#45;&gt;Node4</title>
<path fill="none" stroke="#191970" d="M156,-56.2455C156,-48.9382 156,-38.6944 156,-29.7046"/>
<polygon fill="#191970" stroke="#191970" points="159.5001,-29.6426 156,-19.6427 152.5001,-29.6427 159.5001,-29.6426"/>
</g>
<!-- Node5 -->
<g id="node6" class="node">
<title>Node5</title>
<polygon fill="#ffffff" stroke="#bfbfbf" points="199,-.5 199,-19.5 247,-19.5 247,-.5 199,-.5"/>
<text text-anchor="middle" x="223" y="-7.5" font-family="Helvetica,sans-Serif" font-size="10.00" fill="#000000">stdlib.h</text>
</g>
<!-- Node1&#45;&gt;Node5 -->
<g id="edge5" class="edge">
<title>Node1&#45;&gt;Node5</title>
<path fill="none" stroke="#191970" d="M167.6705,-56.2455C177.5661,-47.9746 191.9627,-35.9416 203.5901,-26.2232"/>
<polygon fill="#191970" stroke="#191970" points="206.035,-28.7413 211.4632,-19.6427 201.5458,-23.3703 206.035,-28.7413"/>
</g>
<!-- Node6 -->
<g id="node7" class="node">
<title>Node6</title>
<polygon fill="#ffffff" stroke="#bfbfbf" points="265,-.5 265,-19.5 321,-19.5 321,-.5 265,-.5"/>
<text text-anchor="middle" x="293" y="-7.5" font-family="Helvetica,sans-Serif" font-size="10.00" fill="#000000">stdbool.h</text>
</g>
<!-- Node1&#45;&gt;Node6 -->
<g id="edge6" class="edge">
<title>Node1&#45;&gt;Node6</title>
<path fill="none" stroke="#191970" d="M178.6228,-56.7527C200.7636,-47.7025 234.7391,-33.8147 259.913,-23.5246"/>
<polygon fill="#191970" stroke="#191970" points="261.4923,-26.6603 269.4245,-19.6367 258.8436,-20.1807 261.4923,-26.6603"/>
</g>
</g>
</svg>
