<?xml version="1.0" encoding="UTF-8" standalone="no"?>
<!DOCTYPE svg PUBLIC "-//W3C//DTD SVG 1.1//EN"
 "http://www.w3.org/Graphics/SVG/1.1/DTD/svg11.dtd">
<!-- Generated by graphviz version 2.40.1 (20161225.0304)
 -->
<!-- Title: ecbEncrypt Pages: 1 -->
<svg width="749pt" height="674pt"
 viewBox="0.00 0.00 749.00 674.00" xmlns="http://www.w3.org/2000/svg" xmlns:xlink="http://www.w3.org/1999/xlink">
<g id="graph0" class="graph" transform="scale(1 1) rotate(0) translate(4 670)">
<title>ecbEncrypt</title>
<polygon fill="#ffffff" stroke="transparent" points="-4,4 -4,-670 745,-670 745,4 -4,4"/>
<!-- Node105 -->
<g id="node1" class="node">
<title>Node105</title>
<polygon fill="#bfbfbf" stroke="#000000" points="0,-513.5 0,-532.5 66,-532.5 66,-513.5 0,-513.5"/>
<text text-anchor="middle" x="33" y="-520.5" font-family="Helvetica,sans-Serif" font-size="10.00" fill="#000000">ecbEncrypt</text>
</g>
<!-- Node106 -->
<g id="node2" class="node">
<title>Node106</title>
<g id="a_node2"><a xlink:href="_a_e_s_8c.html#ad697cbb5d9e462b3017df1f1d939ee96" target="_top" xlink:title="hexToAsciiString &#45; Function that converts a given string of hex values into its ASCII equivalent...">
<polygon fill="#ffffff" stroke="#000000" points="227,-646.5 227,-665.5 318,-665.5 318,-646.5 227,-646.5"/>
<text text-anchor="middle" x="272.5" y="-653.5" font-family="Helvetica,sans-Serif" font-size="10.00" fill="#000000">hexToAsciiString</text>
</a>
</g>
</g>
<!-- Node105&#45;&gt;Node106 -->
<g id="edge1" class="edge">
<title>Node105&#45;&gt;Node106</title>
<path fill="none" stroke="#191970" d="M38.064,-532.5218C47.9415,-550.1623 71.508,-587.9496 102,-608 136.3769,-630.605 181.3916,-642.6927 216.5352,-649.082"/>
<polygon fill="#191970" stroke="#191970" points="216.1867,-652.5733 226.6342,-650.8122 217.3688,-645.6738 216.1867,-652.5733"/>
</g>
<!-- Node109 -->
<g id="node5" class="node">
<title>Node109</title>
<g id="a_node5"><a xlink:href="_a_e_s_8c.html#afba897e91364663f883cc51ed309dc92" target="_top" xlink:title="keyHexToAscii &#45; Function to convert a key from a Hex string passed in as a paramter ...">
<polygon fill="#ffffff" stroke="#000000" points="105,-579.5 105,-598.5 188,-598.5 188,-579.5 105,-579.5"/>
<text text-anchor="middle" x="146.5" y="-586.5" font-family="Helvetica,sans-Serif" font-size="10.00" fill="#000000">keyHexToAscii</text>
</a>
</g>
</g>
<!-- Node105&#45;&gt;Node109 -->
<g id="edge4" class="edge">
<title>Node105&#45;&gt;Node109</title>
<path fill="none" stroke="#191970" d="M49.7473,-532.7385C68.6319,-543.7199 99.5409,-561.6934 121.3332,-574.3656"/>
<polygon fill="#191970" stroke="#191970" points="119.6489,-577.4348 130.053,-579.4361 123.1677,-571.3835 119.6489,-577.4348"/>
</g>
<!-- Node110 -->
<g id="node6" class="node">
<title>Node110</title>
<g id="a_node6"><a xlink:href="_a_e_s_8c.html#a1c2a403d95a85400bbae142d48cb8c9d" target="_top" xlink:title="getNumRounds &#45; Function to return the number of rounds of AES encryption and decryption based off of ...">
<polygon fill="#ffffff" stroke="#000000" points="521,-456.5 521,-475.5 606,-475.5 606,-456.5 521,-456.5"/>
<text text-anchor="middle" x="563.5" y="-463.5" font-family="Helvetica,sans-Serif" font-size="10.00" fill="#000000">getNumRounds</text>
</a>
</g>
</g>
<!-- Node105&#45;&gt;Node110 -->
<g id="edge9" class="edge">
<title>Node105&#45;&gt;Node110</title>
<path fill="none" stroke="#191970" d="M66.067,-520.4646C139.6839,-514.6708 322.6174,-499.4474 475,-480 486.5765,-478.5226 498.9685,-476.7087 510.7038,-474.8825"/>
<polygon fill="#191970" stroke="#191970" points="511.4809,-478.3032 520.8107,-473.2826 510.3864,-471.3893 511.4809,-478.3032"/>
</g>
<!-- Node111 -->
<g id="node7" class="node">
<title>Node111</title>
<g id="a_node7"><a xlink:href="_a_e_s_8c.html#a5d65eac115e562c64b00a43e72ee6aca" target="_top" xlink:title="getPaddedKeyLength &#45; Function to return a valid key length (in bytes) based off of the current key le...">
<polygon fill="#ffffff" stroke="#000000" points="359.5,-532.5 359.5,-551.5 469.5,-551.5 469.5,-532.5 359.5,-532.5"/>
<text text-anchor="middle" x="414.5" y="-539.5" font-family="Helvetica,sans-Serif" font-size="10.00" fill="#000000">getPaddedKeyLength</text>
</a>
</g>
</g>
<!-- Node105&#45;&gt;Node111 -->
<g id="edge8" class="edge">
<title>Node105&#45;&gt;Node111</title>
<path fill="none" stroke="#191970" d="M66.1882,-524.6529C129.1209,-527.7871 266.8413,-534.6461 349.0006,-538.7379"/>
<polygon fill="#191970" stroke="#191970" points="349.0655,-542.2454 359.2273,-539.2472 349.4138,-535.2541 349.0655,-542.2454"/>
</g>
<!-- Node112 -->
<g id="node8" class="node">
<title>Node112</title>
<g id="a_node8"><a xlink:href="_a_e_s_8c.html#a0e0b199ded54d7fb53a3bda3fcc02256" target="_top" xlink:title="validateNumRounds &#45; Function that validates the number of rounds that have been passed in by the ...">
<polygon fill="#ffffff" stroke="#000000" points="511,-152.5 511,-171.5 616,-171.5 616,-152.5 511,-152.5"/>
<text text-anchor="middle" x="563.5" y="-159.5" font-family="Helvetica,sans-Serif" font-size="10.00" fill="#000000">validateNumRounds</text>
</a>
</g>
</g>
<!-- Node105&#45;&gt;Node112 -->
<g id="edge10" class="edge">
<title>Node105&#45;&gt;Node112</title>
<path fill="none" stroke="#191970" d="M66.2513,-514.642C168.4167,-488.9342 471.1077,-412.551 475,-409 543.2378,-346.745 558.9002,-228.1383 562.4632,-181.5146"/>
<polygon fill="#191970" stroke="#191970" points="565.9565,-181.7301 563.1204,-171.5219 558.9716,-181.2706 565.9565,-181.7301"/>
</g>
<!-- Node113 -->
<g id="node9" class="node">
<title>Node113</title>
<g id="a_node9"><a xlink:href="ecb_8c.html#a50ddfe369298c1293b5c57662f569127" target="_top" xlink:title="ecbEcryptHelper &#45; Helper function used to encrypt the plaintext pointed to by ">
<polygon fill="#ffffff" stroke="#000000" points="102,-228.5 102,-247.5 191,-247.5 191,-228.5 102,-228.5"/>
<text text-anchor="middle" x="146.5" y="-235.5" font-family="Helvetica,sans-Serif" font-size="10.00" fill="#000000">ecbEcryptHelper</text>
</a>
</g>
</g>
<!-- Node105&#45;&gt;Node113 -->
<g id="edge11" class="edge">
<title>Node105&#45;&gt;Node113</title>
<path fill="none" stroke="#191970" d="M36.9069,-513.1897C53.3127,-471.9945 116.8008,-312.575 138.8802,-257.1334"/>
<polygon fill="#191970" stroke="#191970" points="142.1612,-258.3544 142.6095,-247.7691 135.658,-255.7645 142.1612,-258.3544"/>
</g>
<!-- Node107 -->
<g id="node3" class="node">
<title>Node107</title>
<g id="a_node3"><a xlink:href="_a_e_s_8c.html#aa177516503b10de65b504a3714073ad7" target="_top" xlink:title="hexToAscii &#45; Function that converts a given hex value to its ASCII equivalent. ">
<polygon fill="#ffffff" stroke="#000000" points="382,-646.5 382,-665.5 447,-665.5 447,-646.5 382,-646.5"/>
<text text-anchor="middle" x="414.5" y="-653.5" font-family="Helvetica,sans-Serif" font-size="10.00" fill="#000000">hexToAscii</text>
</a>
</g>
</g>
<!-- Node106&#45;&gt;Node107 -->
<g id="edge2" class="edge">
<title>Node106&#45;&gt;Node107</title>
<path fill="none" stroke="#191970" d="M318.2113,-656C335.3995,-656 354.8622,-656 371.769,-656"/>
<polygon fill="#191970" stroke="#191970" points="371.9224,-659.5001 381.9223,-656 371.9223,-652.5001 371.9224,-659.5001"/>
</g>
<!-- Node108 -->
<g id="node4" class="node">
<title>Node108</title>
<g id="a_node4"><a xlink:href="_a_e_s_8c.html#a7e5ab2188af44718071074f450963568" target="_top" xlink:title="hexToInt &#45; Function that converts a given hex value into an integer. ">
<polygon fill="#ffffff" stroke="#000000" points="536,-646.5 536,-665.5 591,-665.5 591,-646.5 536,-646.5"/>
<text text-anchor="middle" x="563.5" y="-653.5" font-family="Helvetica,sans-Serif" font-size="10.00" fill="#000000">hexToInt</text>
</a>
</g>
</g>
<!-- Node107&#45;&gt;Node108 -->
<g id="edge3" class="edge">
<title>Node107&#45;&gt;Node108</title>
<path fill="none" stroke="#191970" d="M447.1987,-656C470.3316,-656 501.4148,-656 525.627,-656"/>
<polygon fill="#191970" stroke="#191970" points="525.8765,-659.5001 535.8765,-656 525.8765,-652.5001 525.8765,-659.5001"/>
</g>
<!-- Node109&#45;&gt;Node106 -->
<g id="edge7" class="edge">
<title>Node109&#45;&gt;Node106</title>
<path fill="none" stroke="#191970" d="M164.3905,-598.5908C180.6942,-607.3228 205.4475,-620.5597 227,-632 232.9015,-635.1326 239.2395,-638.4839 245.255,-641.6586"/>
<polygon fill="#191970" stroke="#191970" points="243.8549,-644.8771 254.3331,-646.4452 247.1198,-638.6851 243.8549,-644.8771"/>
</g>
<!-- Node109&#45;&gt;Node110 -->
<g id="edge5" class="edge">
<title>Node109&#45;&gt;Node110</title>
<path fill="none" stroke="#191970" d="M188.0934,-594.9941C253.1941,-602.3617 381.3865,-608.6255 475,-561 509.6308,-543.3817 537.7497,-506.4179 552.425,-484.1487"/>
<polygon fill="#191970" stroke="#191970" points="555.448,-485.9177 557.8712,-475.6036 549.545,-482.1554 555.448,-485.9177"/>
</g>
<!-- Node109&#45;&gt;Node111 -->
<g id="edge6" class="edge">
<title>Node109&#45;&gt;Node111</title>
<path fill="none" stroke="#191970" d="M188.081,-581.7078C231.4085,-574.1093 299.8701,-562.103 350.1783,-553.2803"/>
<polygon fill="#191970" stroke="#191970" points="351.0583,-556.6795 360.3034,-551.5046 349.8491,-549.7847 351.0583,-556.6795"/>
</g>
<!-- Node114 -->
<g id="node10" class="node">
<title>Node114</title>
<g id="a_node10"><a xlink:href="_a_e_s_8c.html#a41cef4df290905c4d632ce1357d0a9bd" target="_top" xlink:title="AESEncrypt &#45; Function to encrypt a single block of plaintext passed in as parameter &#160;plainText using ...">
<polygon fill="#ffffff" stroke="#000000" points="237,-228.5 237,-247.5 308,-247.5 308,-228.5 237,-228.5"/>
<text text-anchor="middle" x="272.5" y="-235.5" font-family="Helvetica,sans-Serif" font-size="10.00" fill="#000000">AESEncrypt</text>
</a>
</g>
</g>
<!-- Node113&#45;&gt;Node114 -->
<g id="edge12" class="edge">
<title>Node113&#45;&gt;Node114</title>
<path fill="none" stroke="#191970" d="M191.2777,-238C202.7587,-238 215.1232,-238 226.6572,-238"/>
<polygon fill="#191970" stroke="#191970" points="226.967,-241.5001 236.967,-238 226.9669,-234.5001 226.967,-241.5001"/>
</g>
<!-- Node128 -->
<g id="node24" class="node">
<title>Node128</title>
<g id="a_node24"><a xlink:href="_a_e_s_8c.html#aaba2e1b9466483b3c6b8669eb42aa5ed" target="_top" xlink:title="printAESBlock &#45; Function to print a single block in hex format to the terminal. ">
<polygon fill="#ffffff" stroke="#000000" points="374.5,-.5 374.5,-19.5 454.5,-19.5 454.5,-.5 374.5,-.5"/>
<text text-anchor="middle" x="414.5" y="-7.5" font-family="Helvetica,sans-Serif" font-size="10.00" fill="#000000">printAESBlock</text>
</a>
</g>
</g>
<!-- Node113&#45;&gt;Node128 -->
<g id="edge35" class="edge">
<title>Node113&#45;&gt;Node128</title>
<path fill="none" stroke="#191970" d="M153.0738,-228.1903C176.2369,-194.4199 257.8691,-81.9811 354,-26 357.3887,-24.0266 361.0245,-22.2916 364.7704,-20.7671"/>
<polygon fill="#191970" stroke="#191970" points="365.9861,-24.0495 374.2302,-17.3948 363.6356,-17.4559 365.9861,-24.0495"/>
</g>
<!-- Node114&#45;&gt;Node110 -->
<g id="edge14" class="edge">
<title>Node114&#45;&gt;Node110</title>
<path fill="none" stroke="#191970" d="M274.2325,-247.8703C279.9102,-277.1952 300.7411,-364.5179 354,-409 398.3789,-446.0654 464.7952,-459.1769 510.9042,-463.7329"/>
<polygon fill="#191970" stroke="#191970" points="510.7294,-467.231 520.9991,-464.6264 511.3467,-460.2583 510.7294,-467.231"/>
</g>
<!-- Node114&#45;&gt;Node111 -->
<g id="edge13" class="edge">
<title>Node114&#45;&gt;Node111</title>
<path fill="none" stroke="#191970" d="M275.7007,-247.5935C285.7173,-277.2201 317.9542,-369.626 354,-442 368.7706,-471.657 389.3114,-504.1636 402.2529,-523.8199"/>
<polygon fill="#191970" stroke="#191970" points="399.4854,-525.9791 407.9369,-532.3684 405.3144,-522.1032 399.4854,-525.9791"/>
</g>
<!-- Node114&#45;&gt;Node112 -->
<g id="edge15" class="edge">
<title>Node114&#45;&gt;Node112</title>
<path fill="none" stroke="#191970" d="M282.5479,-228.288C297.0073,-214.9859 325.1331,-191.5497 354,-181 401.0582,-163.8022 457.8445,-159.5803 500.4183,-159.3658"/>
<polygon fill="#191970" stroke="#191970" points="500.6378,-162.8662 510.6459,-159.3895 500.6541,-155.8662 500.6378,-162.8662"/>
</g>
<!-- Node115 -->
<g id="node11" class="node">
<title>Node115</title>
<g id="a_node11"><a xlink:href="_a_e_s_8c.html#acefcd728377e1e14187fa8fcd20f4064" target="_top" xlink:title="validatePlainTextLength &#45; Function that validates the length of the plaintext. The validation is done...">
<polygon fill="#ffffff" stroke="#000000" points="354,-380.5 354,-399.5 475,-399.5 475,-380.5 354,-380.5"/>
<text text-anchor="middle" x="414.5" y="-387.5" font-family="Helvetica,sans-Serif" font-size="10.00" fill="#000000">validatePlainTextLength</text>
</a>
</g>
</g>
<!-- Node114&#45;&gt;Node115 -->
<g id="edge16" class="edge">
<title>Node114&#45;&gt;Node115</title>
<path fill="none" stroke="#191970" d="M275.704,-247.6659C284.3001,-272.1054 310.2341,-336.8459 354,-371 356.319,-372.8097 358.8129,-374.4486 361.4201,-375.9326"/>
<polygon fill="#191970" stroke="#191970" points="360.1061,-379.1854 370.6305,-380.4049 363.1637,-372.8885 360.1061,-379.1854"/>
</g>
<!-- Node116 -->
<g id="node12" class="node">
<title>Node116</title>
<g id="a_node12"><a xlink:href="_a_e_s_8c.html#a1c1a633a58f7328faa397db9e45e7e0c" target="_top" xlink:title="constructStateArray &#45; Function to convert the state array from a flat 1D array to a multidimensional ...">
<polygon fill="#ffffff" stroke="#000000" points="362.5,-342.5 362.5,-361.5 466.5,-361.5 466.5,-342.5 362.5,-342.5"/>
<text text-anchor="middle" x="414.5" y="-349.5" font-family="Helvetica,sans-Serif" font-size="10.00" fill="#000000">constructStateArray</text>
</a>
</g>
</g>
<!-- Node114&#45;&gt;Node116 -->
<g id="edge17" class="edge">
<title>Node114&#45;&gt;Node116</title>
<path fill="none" stroke="#191970" d="M278.1514,-247.6374C289.8541,-266.7617 318.6252,-309.6707 354,-333 357.076,-335.0286 360.3817,-336.8515 363.8046,-338.4878"/>
<polygon fill="#191970" stroke="#191970" points="362.4875,-341.7308 373.0614,-342.3967 365.2106,-335.2822 362.4875,-341.7308"/>
</g>
<!-- Node117 -->
<g id="node13" class="node">
<title>Node117</title>
<g id="a_node13"><a xlink:href="_a_e_s_8c.html#ae9af90db32afa65125a7eec339ed9d58" target="_top" xlink:title="printStateArray &#45; Function to print the state array to the terminal in hex format. ">
<polygon fill="#ffffff" stroke="#000000" points="373.5,-304.5 373.5,-323.5 455.5,-323.5 455.5,-304.5 373.5,-304.5"/>
<text text-anchor="middle" x="414.5" y="-311.5" font-family="Helvetica,sans-Serif" font-size="10.00" fill="#000000">printStateArray</text>
</a>
</g>
</g>
<!-- Node114&#45;&gt;Node117 -->
<g id="edge18" class="edge">
<title>Node114&#45;&gt;Node117</title>
<path fill="none" stroke="#191970" d="M283.6717,-247.5013C298.7586,-259.9212 326.8886,-281.6586 354,-295 358.3988,-297.1646 363.0979,-299.1511 367.8597,-300.9559"/>
<polygon fill="#191970" stroke="#191970" points="367.0512,-304.3819 377.646,-304.4042 369.3776,-297.7797 367.0512,-304.3819"/>
</g>
<!-- Node118 -->
<g id="node14" class="node">
<title>Node118</title>
<g id="a_node14"><a xlink:href="_a_e_s_8c.html#a185c827e4ccbc8e4608e83dfbf9dfc8e" target="_top" xlink:title="RijndaelKeySchedule &#45; Function that performs the Rijndael key scheduling for AES encryption. Takes in the original key passed in as parameter. ">
<polygon fill="#ffffff" stroke="#000000" points="359.5,-114.5 359.5,-133.5 469.5,-133.5 469.5,-114.5 359.5,-114.5"/>
<text text-anchor="middle" x="414.5" y="-121.5" font-family="Helvetica,sans-Serif" font-size="10.00" fill="#000000">RijndaelKeySchedule</text>
</a>
</g>
</g>
<!-- Node114&#45;&gt;Node118 -->
<g id="edge19" class="edge">
<title>Node114&#45;&gt;Node118</title>
<path fill="none" stroke="#191970" d="M278.9983,-228.2616C291.5267,-210.156 320.7409,-171.0621 354,-148 359.8022,-143.9767 366.3762,-140.4877 372.9997,-137.5117"/>
<polygon fill="#191970" stroke="#191970" points="374.7532,-140.574 382.6551,-133.5163 372.0767,-134.1059 374.7532,-140.574"/>
</g>
<!-- Node123 -->
<g id="node19" class="node">
<title>Node123</title>
<g id="a_node19"><a xlink:href="_a_e_s_8c.html#abe15a731f43315f6f595674d3cd62d57" target="_top" xlink:title="getRoundKey &#45; Function to extract the correct sub&#45;key to use for the appropriate round specified by ...">
<polygon fill="#ffffff" stroke="#000000" points="376.5,-266.5 376.5,-285.5 452.5,-285.5 452.5,-266.5 376.5,-266.5"/>
<text text-anchor="middle" x="414.5" y="-273.5" font-family="Helvetica,sans-Serif" font-size="10.00" fill="#000000">getRoundKey</text>
</a>
</g>
</g>
<!-- Node114&#45;&gt;Node123 -->
<g id="edge27" class="edge">
<title>Node114&#45;&gt;Node123</title>
<path fill="none" stroke="#191970" d="M308.3326,-247.589C326.6634,-252.4944 349.1784,-258.5196 368.7501,-263.7571"/>
<polygon fill="#191970" stroke="#191970" points="368.114,-267.2099 378.6789,-266.4141 369.9236,-260.4479 368.114,-267.2099"/>
</g>
<!-- Node124 -->
<g id="node20" class="node">
<title>Node124</title>
<g id="a_node20"><a xlink:href="_a_e_s_8c.html#aef4d8fc4282e3cc21708d25c0ec9ad06" target="_top" xlink:title="AddRoundKey &#45; Function that performs the Bitwise XOR between state and key as per AES encryption...">
<polygon fill="#ffffff" stroke="#000000" points="374.5,-228.5 374.5,-247.5 454.5,-247.5 454.5,-228.5 374.5,-228.5"/>
<text text-anchor="middle" x="414.5" y="-235.5" font-family="Helvetica,sans-Serif" font-size="10.00" fill="#000000">AddRoundKey</text>
</a>
</g>
</g>
<!-- Node114&#45;&gt;Node124 -->
<g id="edge28" class="edge">
<title>Node114&#45;&gt;Node124</title>
<path fill="none" stroke="#191970" d="M308.3326,-238C325.3168,-238 345.8929,-238 364.3918,-238"/>
<polygon fill="#191970" stroke="#191970" points="364.4194,-241.5001 374.4193,-238 364.4193,-234.5001 364.4194,-241.5001"/>
</g>
<!-- Node125 -->
<g id="node21" class="node">
<title>Node125</title>
<g id="a_node21"><a xlink:href="_a_e_s_8c.html#aec40f89d2cbf831fd0d5d5f1bfa616f5" target="_top" xlink:title="subBytes &#45; Function that performs the sub byte operation where each value is replaced by the s box va...">
<polygon fill="#ffffff" stroke="#000000" points="534.5,-76.5 534.5,-95.5 592.5,-95.5 592.5,-76.5 534.5,-76.5"/>
<text text-anchor="middle" x="563.5" y="-83.5" font-family="Helvetica,sans-Serif" font-size="10.00" fill="#000000">subBytes</text>
</a>
</g>
</g>
<!-- Node114&#45;&gt;Node125 -->
<g id="edge29" class="edge">
<title>Node114&#45;&gt;Node125</title>
<path fill="none" stroke="#191970" d="M275.0806,-228.4979C282.4834,-203.2799 306.3789,-134.574 354,-105 405.8436,-72.8037 479.2693,-74.544 524.0123,-79.635"/>
<polygon fill="#191970" stroke="#191970" points="523.8373,-83.1403 534.1943,-80.9083 524.706,-76.1944 523.8373,-83.1403"/>
</g>
<!-- Node126 -->
<g id="node22" class="node">
<title>Node126</title>
<g id="a_node22"><a xlink:href="_a_e_s_8c.html#abeb4dba64fcf4d07eac178e732ca6aa8" target="_top" xlink:title="ShiftRows &#45; Function to shift the state array according to the AES encryption standard for 128 &#45; bits...">
<polygon fill="#ffffff" stroke="#000000" points="532.5,-.5 532.5,-19.5 594.5,-19.5 594.5,-.5 532.5,-.5"/>
<text text-anchor="middle" x="563.5" y="-7.5" font-family="Helvetica,sans-Serif" font-size="10.00" fill="#000000">ShiftRows</text>
</a>
</g>
</g>
<!-- Node114&#45;&gt;Node126 -->
<g id="edge31" class="edge">
<title>Node114&#45;&gt;Node126</title>
<path fill="none" stroke="#191970" d="M276.0839,-228.3657C288.1152,-196.4853 327.7764,-95.1804 354,-73 379.5401,-51.3977 469.1206,-29.6962 522.5203,-18.2596"/>
<polygon fill="#191970" stroke="#191970" points="523.3069,-21.6707 532.3673,-16.179 521.8597,-14.8219 523.3069,-21.6707"/>
</g>
<!-- Node127 -->
<g id="node23" class="node">
<title>Node127</title>
<g id="a_node23"><a xlink:href="_a_e_s_8c.html#aca09b30896a351db6587639a1cc1bf0d" target="_top" xlink:title="mixColumns &#45; Function that performs the MixColumns step of AES as specified by AES encryption...">
<polygon fill="#ffffff" stroke="#000000" points="379,-190.5 379,-209.5 450,-209.5 450,-190.5 379,-190.5"/>
<text text-anchor="middle" x="414.5" y="-197.5" font-family="Helvetica,sans-Serif" font-size="10.00" fill="#000000">mixColumns</text>
</a>
</g>
</g>
<!-- Node114&#45;&gt;Node127 -->
<g id="edge33" class="edge">
<title>Node114&#45;&gt;Node127</title>
<path fill="none" stroke="#191970" d="M308.3326,-228.411C326.6634,-223.5056 349.1784,-217.4804 368.7501,-212.2429"/>
<polygon fill="#191970" stroke="#191970" points="369.9236,-215.5521 378.6789,-209.5859 368.114,-208.7901 369.9236,-215.5521"/>
</g>
<!-- Node114&#45;&gt;Node128 -->
<g id="edge34" class="edge">
<title>Node114&#45;&gt;Node128</title>
<path fill="none" stroke="#191970" d="M276.2327,-228.3584C291.7157,-188.4036 350.2536,-37.7373 354,-34 357.9499,-30.0597 362.6267,-26.7465 367.6031,-23.9652"/>
<polygon fill="#191970" stroke="#191970" points="369.319,-27.023 376.7919,-19.5125 366.2665,-20.7236 369.319,-27.023"/>
</g>
<!-- Node118&#45;&gt;Node110 -->
<g id="edge20" class="edge">
<title>Node118&#45;&gt;Node110</title>
<path fill="none" stroke="#191970" d="M428.2275,-133.5807C441.9385,-143.8282 462.6954,-161.2921 475,-181 530.8847,-270.5087 553.8641,-397.9884 560.9235,-446.364"/>
<polygon fill="#191970" stroke="#191970" points="557.477,-446.9915 562.3231,-456.4131 564.4101,-446.0258 557.477,-446.9915"/>
</g>
<!-- Node118&#45;&gt;Node112 -->
<g id="edge21" class="edge">
<title>Node118&#45;&gt;Node112</title>
<path fill="none" stroke="#191970" d="M452.099,-133.589C471.584,-138.5583 495.5745,-144.6767 516.2958,-149.9613"/>
<polygon fill="#191970" stroke="#191970" points="515.6166,-153.4001 526.1714,-152.4799 517.3465,-146.6172 515.6166,-153.4001"/>
</g>
<!-- Node119 -->
<g id="node15" class="node">
<title>Node119</title>
<g id="a_node15"><a xlink:href="_a_e_s_8c.html#af2f914cf17729a0ee89102c98b39665e" target="_top" xlink:title="KeyScheduleCore &#45; Function that performs the key schedule core for the Rijndael Key Schedule...">
<polygon fill="#ffffff" stroke="#000000" points="516,-38.5 516,-57.5 611,-57.5 611,-38.5 516,-38.5"/>
<text text-anchor="middle" x="563.5" y="-45.5" font-family="Helvetica,sans-Serif" font-size="10.00" fill="#000000">KeyScheduleCore</text>
</a>
</g>
</g>
<!-- Node118&#45;&gt;Node119 -->
<g id="edge22" class="edge">
<title>Node118&#45;&gt;Node119</title>
<path fill="none" stroke="#191970" d="M428.7514,-114.4354C447.1853,-102.3357 480.5498,-81.3498 511,-67 515.3732,-64.9391 520.0351,-62.9601 524.7072,-61.1092"/>
<polygon fill="#191970" stroke="#191970" points="526.1107,-64.3204 534.2225,-57.505 523.631,-57.7742 526.1107,-64.3204"/>
</g>
<!-- Node121 -->
<g id="node17" class="node">
<title>Node121</title>
<g id="a_node17"><a xlink:href="_a_e_s_8c.html#acdf4abe2846c02b4d3e674782807fdfa" target="_top" xlink:title="getSBoxValue &#45; Function to return the sBox value passed in as a parameter ">
<polygon fill="#ffffff" stroke="#000000" points="657,-76.5 657,-95.5 736,-95.5 736,-76.5 657,-76.5"/>
<text text-anchor="middle" x="696.5" y="-83.5" font-family="Helvetica,sans-Serif" font-size="10.00" fill="#000000">getSBoxValue</text>
</a>
</g>
</g>
<!-- Node118&#45;&gt;Node121 -->
<g id="edge26" class="edge">
<title>Node118&#45;&gt;Node121</title>
<path fill="none" stroke="#191970" d="M469.9262,-120.8366C510.5514,-118.0179 566.9382,-113.0636 616,-105 627.2825,-103.1457 639.3343,-100.6067 650.5854,-97.9885"/>
<polygon fill="#191970" stroke="#191970" points="651.7378,-101.3116 660.6478,-95.579 650.1076,-94.504 651.7378,-101.3116"/>
</g>
<!-- Node120 -->
<g id="node16" class="node">
<title>Node120</title>
<g id="a_node16"><a xlink:href="_a_e_s_8c.html#ac769b0533ccecd203cc3ab64e6b2f950" target="_top" xlink:title="SingleRotateLeft &#45; Function to rotate the array passed in as a paramter. ">
<polygon fill="#ffffff" stroke="#000000" points="652,-.5 652,-19.5 741,-19.5 741,-.5 652,-.5"/>
<text text-anchor="middle" x="696.5" y="-7.5" font-family="Helvetica,sans-Serif" font-size="10.00" fill="#000000">SingleRotateLeft</text>
</a>
</g>
</g>
<!-- Node119&#45;&gt;Node120 -->
<g id="edge23" class="edge">
<title>Node119&#45;&gt;Node120</title>
<path fill="none" stroke="#191970" d="M597.0615,-38.411C614.073,-33.5506 634.9319,-27.5909 653.1446,-22.3873"/>
<polygon fill="#191970" stroke="#191970" points="654.2955,-25.6986 662.9492,-19.5859 652.3724,-18.9679 654.2955,-25.6986"/>
</g>
<!-- Node119&#45;&gt;Node121 -->
<g id="edge24" class="edge">
<title>Node119&#45;&gt;Node121</title>
<path fill="none" stroke="#191970" d="M597.0615,-57.589C614.073,-62.4494 634.9319,-68.4091 653.1446,-73.6127"/>
<polygon fill="#191970" stroke="#191970" points="652.3724,-77.0321 662.9492,-76.4141 654.2955,-70.3014 652.3724,-77.0321"/>
</g>
<!-- Node122 -->
<g id="node18" class="node">
<title>Node122</title>
<g id="a_node18"><a xlink:href="_a_e_s_8c.html#a4e58d2e928429bc56387394251b8ece5" target="_top" xlink:title="getRconValue &#45; Function to return the Rcon value for the index passed in as a parameter ...">
<polygon fill="#ffffff" stroke="#000000" points="657.5,-38.5 657.5,-57.5 735.5,-57.5 735.5,-38.5 657.5,-38.5"/>
<text text-anchor="middle" x="696.5" y="-45.5" font-family="Helvetica,sans-Serif" font-size="10.00" fill="#000000">getRconValue</text>
</a>
</g>
</g>
<!-- Node119&#45;&gt;Node122 -->
<g id="edge25" class="edge">
<title>Node119&#45;&gt;Node122</title>
<path fill="none" stroke="#191970" d="M611.1404,-48C622.7856,-48 635.272,-48 647.0019,-48"/>
<polygon fill="#191970" stroke="#191970" points="647.0751,-51.5001 657.0751,-48 647.0751,-44.5001 647.0751,-51.5001"/>
</g>
<!-- Node125&#45;&gt;Node121 -->
<g id="edge30" class="edge">
<title>Node125&#45;&gt;Node121</title>
<path fill="none" stroke="#191970" d="M592.6874,-86C608.4855,-86 628.4374,-86 646.6186,-86"/>
<polygon fill="#191970" stroke="#191970" points="646.7856,-89.5001 656.7856,-86 646.7856,-82.5001 646.7856,-89.5001"/>
</g>
<!-- Node126&#45;&gt;Node120 -->
<g id="edge32" class="edge">
<title>Node126&#45;&gt;Node120</title>
<path fill="none" stroke="#191970" d="M594.6826,-10C608.6647,-10 625.5814,-10 641.5762,-10"/>
<polygon fill="#191970" stroke="#191970" points="641.9138,-13.5001 651.9138,-10 641.9138,-6.5001 641.9138,-13.5001"/>
</g>
</g>
</svg>
