<?xml version="1.0" encoding="UTF-8" standalone="no"?>
<!DOCTYPE svg PUBLIC "-//W3C//DTD SVG 1.1//EN"
 "http://www.w3.org/Graphics/SVG/1.1/DTD/svg11.dtd">
<!-- Generated by graphviz version 2.40.1 (20161225.0304)
 -->
<!-- Title: ecbDecryptHelper Pages: 1 -->
<svg width="640pt" height="484pt"
 viewBox="0.00 0.00 640.00 484.00" xmlns="http://www.w3.org/2000/svg" xmlns:xlink="http://www.w3.org/1999/xlink">
<g id="graph0" class="graph" transform="scale(1 1) rotate(0) translate(4 480)">
<title>ecbDecryptHelper</title>
<polygon fill="#ffffff" stroke="transparent" points="-4,4 -4,-480 636,-480 636,4 -4,4"/>
<!-- Node60 -->
<g id="node1" class="node">
<title>Node60</title>
<polygon fill="#bfbfbf" stroke="#000000" points="0,-114.5 0,-133.5 95,-133.5 95,-114.5 0,-114.5"/>
<text text-anchor="middle" x="47.5" y="-121.5" font-family="Helvetica,sans-Serif" font-size="10.00" fill="#000000">ecbDecryptHelper</text>
</g>
<!-- Node61 -->
<g id="node2" class="node">
<title>Node61</title>
<g id="a_node2"><a xlink:href="_a_e_s_8c.html#ab51c63e6483f94f12bbc9b256374ec64" target="_top" xlink:title="AESDecrypt &#45; Function to decrypt a single block of ciphertext passed in as parameter &#160;cipherText usin...">
<polygon fill="#ffffff" stroke="#000000" points="131,-209.5 131,-228.5 202,-228.5 202,-209.5 131,-209.5"/>
<text text-anchor="middle" x="166.5" y="-216.5" font-family="Helvetica,sans-Serif" font-size="10.00" fill="#000000">AESDecrypt</text>
</a>
</g>
</g>
<!-- Node60&#45;&gt;Node61 -->
<g id="edge1" class="edge">
<title>Node60&#45;&gt;Node61</title>
<path fill="none" stroke="#191970" d="M59.7869,-133.8089C80.2913,-150.1779 121.6734,-183.214 146.4481,-202.9922"/>
<polygon fill="#191970" stroke="#191970" points="144.4584,-205.8823 154.4572,-209.386 148.8257,-200.4117 144.4584,-205.8823"/>
</g>
<!-- Node81 -->
<g id="node22" class="node">
<title>Node81</title>
<g id="a_node22"><a xlink:href="_a_e_s_8c.html#aaba2e1b9466483b3c6b8669eb42aa5ed" target="_top" xlink:title="printAESBlock &#45; Function to print a single block in hex format to the terminal. ">
<polygon fill="#ffffff" stroke="#000000" points="262,-.5 262,-19.5 342,-19.5 342,-.5 262,-.5"/>
<text text-anchor="middle" x="302" y="-7.5" font-family="Helvetica,sans-Serif" font-size="10.00" fill="#000000">printAESBlock</text>
</a>
</g>
</g>
<!-- Node60&#45;&gt;Node81 -->
<g id="edge25" class="edge">
<title>Node60&#45;&gt;Node81</title>
<path fill="none" stroke="#191970" d="M64.1238,-114.4683C96.6789,-96.0845 171.4728,-55.2324 238,-29 243.8023,-26.7121 249.9932,-24.5465 256.1529,-22.5529"/>
<polygon fill="#191970" stroke="#191970" points="257.2373,-25.8811 265.7464,-19.5688 255.1581,-19.197 257.2373,-25.8811"/>
</g>
<!-- Node62 -->
<g id="node3" class="node">
<title>Node62</title>
<g id="a_node3"><a xlink:href="_a_e_s_8c.html#a5d65eac115e562c64b00a43e72ee6aca" target="_top" xlink:title="getPaddedKeyLength &#45; Function to return a valid key length (in bytes) based off of the current key le...">
<polygon fill="#ffffff" stroke="#000000" points="247,-342.5 247,-361.5 357,-361.5 357,-342.5 247,-342.5"/>
<text text-anchor="middle" x="302" y="-349.5" font-family="Helvetica,sans-Serif" font-size="10.00" fill="#000000">getPaddedKeyLength</text>
</a>
</g>
</g>
<!-- Node61&#45;&gt;Node62 -->
<g id="edge2" class="edge">
<title>Node61&#45;&gt;Node62</title>
<path fill="none" stroke="#191970" d="M170.3241,-228.6218C179.1315,-249.6104 202.8254,-299.8739 238,-328 243.109,-332.0852 248.9853,-335.5239 255.0615,-338.4051"/>
<polygon fill="#191970" stroke="#191970" points="254.1199,-341.8073 264.693,-342.4866 256.8512,-335.3622 254.1199,-341.8073"/>
</g>
<!-- Node63 -->
<g id="node4" class="node">
<title>Node63</title>
<g id="a_node4"><a xlink:href="_a_e_s_8c.html#a1c2a403d95a85400bbae142d48cb8c9d" target="_top" xlink:title="getNumRounds &#45; Function to return the number of rounds of AES encryption and decryption based off of ...">
<polygon fill="#ffffff" stroke="#000000" points="412,-304.5 412,-323.5 497,-323.5 497,-304.5 412,-304.5"/>
<text text-anchor="middle" x="454.5" y="-311.5" font-family="Helvetica,sans-Serif" font-size="10.00" fill="#000000">getNumRounds</text>
</a>
</g>
</g>
<!-- Node61&#45;&gt;Node63 -->
<g id="edge3" class="edge">
<title>Node61&#45;&gt;Node63</title>
<path fill="none" stroke="#191970" d="M174.608,-228.6919C186.8079,-242.5563 211.3161,-267.7284 238,-280 290.2729,-304.0396 356.334,-311.5422 401.6541,-313.6567"/>
<polygon fill="#191970" stroke="#191970" points="401.7209,-317.1619 411.8508,-314.058 401.9962,-310.1674 401.7209,-317.1619"/>
</g>
<!-- Node64 -->
<g id="node5" class="node">
<title>Node64</title>
<g id="a_node5"><a xlink:href="_a_e_s_8c.html#a0e0b199ded54d7fb53a3bda3fcc02256" target="_top" xlink:title="validateNumRounds &#45; Function that validates the number of rounds that have been passed in by the ...">
<polygon fill="#ffffff" stroke="#000000" points="402,-266.5 402,-285.5 507,-285.5 507,-266.5 402,-266.5"/>
<text text-anchor="middle" x="454.5" y="-273.5" font-family="Helvetica,sans-Serif" font-size="10.00" fill="#000000">validateNumRounds</text>
</a>
</g>
</g>
<!-- Node61&#45;&gt;Node64 -->
<g id="edge4" class="edge">
<title>Node61&#45;&gt;Node64</title>
<path fill="none" stroke="#191970" d="M180.5494,-228.6689C194.4596,-237.6947 216.7042,-250.691 238,-257 288.2381,-271.8834 347.6784,-276.2106 391.5548,-277.0545"/>
<polygon fill="#191970" stroke="#191970" points="391.7478,-280.5574 401.7945,-277.194 391.8431,-273.558 391.7478,-280.5574"/>
</g>
<!-- Node65 -->
<g id="node6" class="node">
<title>Node65</title>
<g id="a_node6"><a xlink:href="_a_e_s_8c.html#ae01a1e7833d53f19b534e37ace03a691" target="_top" xlink:title="validateCipherTextLength &#45; Function that validates the length of the ciphertext. The validation is do...">
<polygon fill="#ffffff" stroke="#000000" points="238,-190.5 238,-209.5 366,-209.5 366,-190.5 238,-190.5"/>
<text text-anchor="middle" x="302" y="-197.5" font-family="Helvetica,sans-Serif" font-size="10.00" fill="#000000">validateCipherTextLength</text>
</a>
</g>
</g>
<!-- Node61&#45;&gt;Node65 -->
<g id="edge5" class="edge">
<title>Node61&#45;&gt;Node65</title>
<path fill="none" stroke="#191970" d="M202.101,-214.008C210.0769,-212.8896 218.8266,-211.6627 227.7278,-210.4145"/>
<polygon fill="#191970" stroke="#191970" points="228.3918,-213.8558 237.8089,-209.001 227.4197,-206.9236 228.3918,-213.8558"/>
</g>
<!-- Node66 -->
<g id="node7" class="node">
<title>Node66</title>
<g id="a_node7"><a xlink:href="_a_e_s_8c.html#a1c1a633a58f7328faa397db9e45e7e0c" target="_top" xlink:title="constructStateArray &#45; Function to convert the state array from a flat 1D array to a multidimensional ...">
<polygon fill="#ffffff" stroke="#000000" points="250,-152.5 250,-171.5 354,-171.5 354,-152.5 250,-152.5"/>
<text text-anchor="middle" x="302" y="-159.5" font-family="Helvetica,sans-Serif" font-size="10.00" fill="#000000">constructStateArray</text>
</a>
</g>
</g>
<!-- Node61&#45;&gt;Node66 -->
<g id="edge6" class="edge">
<title>Node61&#45;&gt;Node66</title>
<path fill="none" stroke="#191970" d="M182.243,-209.4527C196.4437,-201.13 218.0953,-189.1481 238,-181 243.566,-178.7215 249.5052,-176.5861 255.4374,-174.6293"/>
<polygon fill="#191970" stroke="#191970" points="256.859,-177.8512 265.3474,-171.5112 254.758,-171.174 256.859,-177.8512"/>
</g>
<!-- Node67 -->
<g id="node8" class="node">
<title>Node67</title>
<g id="a_node8"><a xlink:href="_a_e_s_8c.html#ae9af90db32afa65125a7eec339ed9d58" target="_top" xlink:title="printStateArray &#45; Function to print the state array to the terminal in hex format. ">
<polygon fill="#ffffff" stroke="#000000" points="261,-114.5 261,-133.5 343,-133.5 343,-114.5 261,-114.5"/>
<text text-anchor="middle" x="302" y="-121.5" font-family="Helvetica,sans-Serif" font-size="10.00" fill="#000000">printStateArray</text>
</a>
</g>
</g>
<!-- Node61&#45;&gt;Node67 -->
<g id="edge7" class="edge">
<title>Node61&#45;&gt;Node67</title>
<path fill="none" stroke="#191970" d="M172.9972,-209.2859C184.3017,-193.1324 209.1593,-160.7715 238,-143 242.1012,-140.4729 246.5576,-138.2655 251.1459,-136.3407"/>
<polygon fill="#191970" stroke="#191970" points="252.5379,-139.5569 260.6775,-132.7746 250.085,-133.0007 252.5379,-139.5569"/>
</g>
<!-- Node68 -->
<g id="node9" class="node">
<title>Node68</title>
<g id="a_node9"><a xlink:href="_a_e_s_8c.html#a185c827e4ccbc8e4608e83dfbf9dfc8e" target="_top" xlink:title="RijndaelKeySchedule &#45; Function that performs the Rijndael key scheduling for AES encryption. Takes in the original key passed in as parameter. ">
<polygon fill="#ffffff" stroke="#000000" points="247,-228.5 247,-247.5 357,-247.5 357,-228.5 247,-228.5"/>
<text text-anchor="middle" x="302" y="-235.5" font-family="Helvetica,sans-Serif" font-size="10.00" fill="#000000">RijndaelKeySchedule</text>
</a>
</g>
</g>
<!-- Node61&#45;&gt;Node68 -->
<g id="edge8" class="edge">
<title>Node61&#45;&gt;Node68</title>
<path fill="none" stroke="#191970" d="M202.101,-223.992C212.8213,-225.4952 224.9395,-227.1945 236.9447,-228.8779"/>
<polygon fill="#191970" stroke="#191970" points="236.5802,-232.3609 246.9694,-230.2835 237.5523,-225.4287 236.5802,-232.3609"/>
</g>
<!-- Node73 -->
<g id="node14" class="node">
<title>Node73</title>
<g id="a_node14"><a xlink:href="_a_e_s_8c.html#abe15a731f43315f6f595674d3cd62d57" target="_top" xlink:title="getRoundKey &#45; Function to extract the correct sub&#45;key to use for the appropriate round specified by ...">
<polygon fill="#ffffff" stroke="#000000" points="264,-76.5 264,-95.5 340,-95.5 340,-76.5 264,-76.5"/>
<text text-anchor="middle" x="302" y="-83.5" font-family="Helvetica,sans-Serif" font-size="10.00" fill="#000000">getRoundKey</text>
</a>
</g>
</g>
<!-- Node61&#45;&gt;Node73 -->
<g id="edge16" class="edge">
<title>Node61&#45;&gt;Node73</title>
<path fill="none" stroke="#191970" d="M171.4242,-209.3182C184.217,-184.5031 218.8379,-119.5551 238,-105 242.8485,-101.3172 248.402,-98.3458 254.1671,-95.9489"/>
<polygon fill="#191970" stroke="#191970" points="255.7478,-99.1005 263.9818,-92.4332 253.3872,-92.5105 255.7478,-99.1005"/>
</g>
<!-- Node74 -->
<g id="node15" class="node">
<title>Node74</title>
<g id="a_node15"><a xlink:href="_a_e_s_8c.html#aef4d8fc4282e3cc21708d25c0ec9ad06" target="_top" xlink:title="AddRoundKey &#45; Function that performs the Bitwise XOR between state and key as per AES encryption...">
<polygon fill="#ffffff" stroke="#000000" points="262,-38.5 262,-57.5 342,-57.5 342,-38.5 262,-38.5"/>
<text text-anchor="middle" x="302" y="-45.5" font-family="Helvetica,sans-Serif" font-size="10.00" fill="#000000">AddRoundKey</text>
</a>
</g>
</g>
<!-- Node61&#45;&gt;Node74 -->
<g id="edge17" class="edge">
<title>Node61&#45;&gt;Node74</title>
<path fill="none" stroke="#191970" d="M169.8803,-209.2885C180.5888,-179.0258 214.4436,-87.2413 238,-67 242.2306,-63.3648 247.1323,-60.4249 252.3034,-58.0473"/>
<polygon fill="#191970" stroke="#191970" points="253.765,-61.2343 261.8152,-54.3463 251.2267,-54.7107 253.765,-61.2343"/>
</g>
<!-- Node75 -->
<g id="node16" class="node">
<title>Node75</title>
<g id="a_node16"><a xlink:href="_a_e_s_8c.html#a903e34d08dd07be2e2d9618d4d489ee6" target="_top" xlink:title="invShiftRows &#45; Function to shift the state array Inverse according to the AES encryption standard for...">
<polygon fill="#ffffff" stroke="#000000" points="264.5,-456.5 264.5,-475.5 339.5,-475.5 339.5,-456.5 264.5,-456.5"/>
<text text-anchor="middle" x="302" y="-463.5" font-family="Helvetica,sans-Serif" font-size="10.00" fill="#000000">invShiftRows</text>
</a>
</g>
</g>
<!-- Node61&#45;&gt;Node75 -->
<g id="edge18" class="edge">
<title>Node61&#45;&gt;Node75</title>
<path fill="none" stroke="#191970" d="M168.2621,-228.5501C175.6499,-267.6232 205.2655,-414.7624 238,-447 242.6607,-451.5899 248.3769,-455.0795 254.4568,-457.7308"/>
<polygon fill="#191970" stroke="#191970" points="253.6163,-461.1482 264.2107,-461.2449 255.9889,-454.5625 253.6163,-461.1482"/>
</g>
<!-- Node77 -->
<g id="node18" class="node">
<title>Node77</title>
<g id="a_node18"><a xlink:href="_a_e_s_8c.html#a8e72edc1f652f8626aacd2781303c86b" target="_top" xlink:title="invSubBytes &#45; Function that performs the inverse of Function subBytes ">
<polygon fill="#ffffff" stroke="#000000" points="266,-418.5 266,-437.5 338,-437.5 338,-418.5 266,-418.5"/>
<text text-anchor="middle" x="302" y="-425.5" font-family="Helvetica,sans-Serif" font-size="10.00" fill="#000000">invSubBytes</text>
</a>
</g>
</g>
<!-- Node61&#45;&gt;Node77 -->
<g id="edge20" class="edge">
<title>Node61&#45;&gt;Node77</title>
<path fill="none" stroke="#191970" d="M167.1847,-228.5141C169.9239,-259.3652 182.7999,-357.6036 238,-409 243.1294,-413.7759 249.4064,-417.3557 256.0026,-420.038"/>
<polygon fill="#191970" stroke="#191970" points="255.2045,-423.4631 265.7988,-423.3604 257.4528,-416.8339 255.2045,-423.4631"/>
</g>
<!-- Node79 -->
<g id="node20" class="node">
<title>Node79</title>
<g id="a_node20"><a xlink:href="_a_e_s_8c.html#a9de891875f23dd3dff8fe3f8e10ba3ad" target="_top" xlink:title="invMixColumns &#45; Function that does the inverse of the Mix Column Step for AES Encryption. Performs the gallois field multiplication and the required XOR to the state passed in as a paramter ">
<polygon fill="#ffffff" stroke="#000000" points="260,-380.5 260,-399.5 344,-399.5 344,-380.5 260,-380.5"/>
<text text-anchor="middle" x="302" y="-387.5" font-family="Helvetica,sans-Serif" font-size="10.00" fill="#000000">invMixColumns</text>
</a>
</g>
</g>
<!-- Node61&#45;&gt;Node79 -->
<g id="edge22" class="edge">
<title>Node61&#45;&gt;Node79</title>
<path fill="none" stroke="#191970" d="M168.2461,-228.8579C173.5462,-255.8317 191.9931,-331.4678 238,-371 241.7059,-374.1844 245.9268,-376.8352 250.3925,-379.0419"/>
<polygon fill="#191970" stroke="#191970" points="249.2399,-382.3534 259.8165,-382.9761 251.9368,-375.8937 249.2399,-382.3534"/>
</g>
<!-- Node61&#45;&gt;Node81 -->
<g id="edge24" class="edge">
<title>Node61&#45;&gt;Node81</title>
<path fill="none" stroke="#191970" d="M169.9233,-209.1766C183.2004,-171.1774 230.9065,-35.6047 238,-29 242.1353,-25.1496 247.0165,-22.0767 252.2096,-19.6248"/>
<polygon fill="#191970" stroke="#191970" points="253.778,-22.7688 261.8001,-15.8481 251.2131,-16.2556 253.778,-22.7688"/>
</g>
<!-- Node68&#45;&gt;Node63 -->
<g id="edge9" class="edge">
<title>Node68&#45;&gt;Node63</title>
<path fill="none" stroke="#191970" d="M316.8215,-247.5188C335.9803,-259.57 370.6143,-280.5049 402,-295 406.389,-297.027 411.0605,-298.9853 415.7379,-300.8249"/>
<polygon fill="#191970" stroke="#191970" points="414.6668,-304.1615 425.2585,-304.4178 417.1383,-297.6124 414.6668,-304.1615"/>
</g>
<!-- Node68&#45;&gt;Node64 -->
<g id="edge10" class="edge">
<title>Node68&#45;&gt;Node64</title>
<path fill="none" stroke="#191970" d="M340.4822,-247.589C360.5156,-252.5809 385.2023,-258.7324 406.476,-264.0334"/>
<polygon fill="#191970" stroke="#191970" points="405.745,-267.4582 416.2945,-266.4799 407.4375,-260.6659 405.745,-267.4582"/>
</g>
<!-- Node69 -->
<g id="node10" class="node">
<title>Node69</title>
<g id="a_node10"><a xlink:href="_a_e_s_8c.html#af2f914cf17729a0ee89102c98b39665e" target="_top" xlink:title="KeyScheduleCore &#45; Function that performs the key schedule core for the Rijndael Key Schedule...">
<polygon fill="#ffffff" stroke="#000000" points="407,-228.5 407,-247.5 502,-247.5 502,-228.5 407,-228.5"/>
<text text-anchor="middle" x="454.5" y="-235.5" font-family="Helvetica,sans-Serif" font-size="10.00" fill="#000000">KeyScheduleCore</text>
</a>
</g>
</g>
<!-- Node68&#45;&gt;Node69 -->
<g id="edge11" class="edge">
<title>Node68&#45;&gt;Node69</title>
<path fill="none" stroke="#191970" d="M357.056,-238C369.8467,-238 383.5018,-238 396.4183,-238"/>
<polygon fill="#191970" stroke="#191970" points="396.5881,-241.5001 406.5881,-238 396.588,-234.5001 396.5881,-241.5001"/>
</g>
<!-- Node71 -->
<g id="node12" class="node">
<title>Node71</title>
<g id="a_node12"><a xlink:href="_a_e_s_8c.html#acdf4abe2846c02b4d3e674782807fdfa" target="_top" xlink:title="getSBoxValue &#45; Function to return the sBox value passed in as a parameter ">
<polygon fill="#ffffff" stroke="#000000" points="548,-190.5 548,-209.5 627,-209.5 627,-190.5 548,-190.5"/>
<text text-anchor="middle" x="587.5" y="-197.5" font-family="Helvetica,sans-Serif" font-size="10.00" fill="#000000">getSBoxValue</text>
</a>
</g>
</g>
<!-- Node68&#45;&gt;Node71 -->
<g id="edge15" class="edge">
<title>Node68&#45;&gt;Node71</title>
<path fill="none" stroke="#191970" d="M347.6613,-228.4712C364.6656,-225.148 384.1638,-221.603 402,-219 447.8249,-212.3124 500.3587,-207.166 537.7949,-203.9266"/>
<polygon fill="#191970" stroke="#191970" points="538.2682,-207.3991 547.9354,-203.0638 537.6746,-200.4243 538.2682,-207.3991"/>
</g>
<!-- Node70 -->
<g id="node11" class="node">
<title>Node70</title>
<g id="a_node11"><a xlink:href="_a_e_s_8c.html#ac769b0533ccecd203cc3ab64e6b2f950" target="_top" xlink:title="SingleRotateLeft &#45; Function to rotate the array passed in as a paramter. ">
<polygon fill="#ffffff" stroke="#000000" points="543,-228.5 543,-247.5 632,-247.5 632,-228.5 543,-228.5"/>
<text text-anchor="middle" x="587.5" y="-235.5" font-family="Helvetica,sans-Serif" font-size="10.00" fill="#000000">SingleRotateLeft</text>
</a>
</g>
</g>
<!-- Node69&#45;&gt;Node70 -->
<g id="edge12" class="edge">
<title>Node69&#45;&gt;Node70</title>
<path fill="none" stroke="#191970" d="M502.1404,-238C512.0911,-238 522.6559,-238 532.8382,-238"/>
<polygon fill="#191970" stroke="#191970" points="532.856,-241.5001 542.856,-238 532.8559,-234.5001 532.856,-241.5001"/>
</g>
<!-- Node69&#45;&gt;Node71 -->
<g id="edge13" class="edge">
<title>Node69&#45;&gt;Node71</title>
<path fill="none" stroke="#191970" d="M488.0615,-228.411C505.073,-223.5506 525.9319,-217.5909 544.1446,-212.3873"/>
<polygon fill="#191970" stroke="#191970" points="545.2955,-215.6986 553.9492,-209.5859 543.3724,-208.9679 545.2955,-215.6986"/>
</g>
<!-- Node72 -->
<g id="node13" class="node">
<title>Node72</title>
<g id="a_node13"><a xlink:href="_a_e_s_8c.html#a4e58d2e928429bc56387394251b8ece5" target="_top" xlink:title="getRconValue &#45; Function to return the Rcon value for the index passed in as a parameter ...">
<polygon fill="#ffffff" stroke="#000000" points="548.5,-266.5 548.5,-285.5 626.5,-285.5 626.5,-266.5 548.5,-266.5"/>
<text text-anchor="middle" x="587.5" y="-273.5" font-family="Helvetica,sans-Serif" font-size="10.00" fill="#000000">getRconValue</text>
</a>
</g>
</g>
<!-- Node69&#45;&gt;Node72 -->
<g id="edge14" class="edge">
<title>Node69&#45;&gt;Node72</title>
<path fill="none" stroke="#191970" d="M488.0615,-247.589C505.073,-252.4494 525.9319,-258.4091 544.1446,-263.6127"/>
<polygon fill="#191970" stroke="#191970" points="543.3724,-267.0321 553.9492,-266.4141 545.2955,-260.3014 543.3724,-267.0321"/>
</g>
<!-- Node76 -->
<g id="node17" class="node">
<title>Node76</title>
<g id="a_node17"><a xlink:href="_a_e_s_8c.html#a4fc33ada95d0d2aaea28086aefe173bb" target="_top" xlink:title="SingleRotateRight &#45; Function to rotate the array passed in as a paramter. ">
<polygon fill="#ffffff" stroke="#000000" points="406.5,-456.5 406.5,-475.5 502.5,-475.5 502.5,-456.5 406.5,-456.5"/>
<text text-anchor="middle" x="454.5" y="-463.5" font-family="Helvetica,sans-Serif" font-size="10.00" fill="#000000">SingleRotateRight</text>
</a>
</g>
</g>
<!-- Node75&#45;&gt;Node76 -->
<g id="edge19" class="edge">
<title>Node75&#45;&gt;Node76</title>
<path fill="none" stroke="#191970" d="M339.6966,-466C356.7431,-466 377.2782,-466 396.2394,-466"/>
<polygon fill="#191970" stroke="#191970" points="396.2808,-469.5001 406.2808,-466 396.2807,-462.5001 396.2808,-469.5001"/>
</g>
<!-- Node78 -->
<g id="node19" class="node">
<title>Node78</title>
<g id="a_node19"><a xlink:href="_a_e_s_8c.html#a425f9b1e2cd595f2c45f129bc5d0a6d0" target="_top" xlink:title="getInvSBox &#45; Function to return the inverse sBox value passed in as a parameter ">
<polygon fill="#ffffff" stroke="#000000" points="420.5,-418.5 420.5,-437.5 488.5,-437.5 488.5,-418.5 420.5,-418.5"/>
<text text-anchor="middle" x="454.5" y="-425.5" font-family="Helvetica,sans-Serif" font-size="10.00" fill="#000000">getInvSBox</text>
</a>
</g>
</g>
<!-- Node77&#45;&gt;Node78 -->
<g id="edge21" class="edge">
<title>Node77&#45;&gt;Node78</title>
<path fill="none" stroke="#191970" d="M338.1404,-428C359.7561,-428 387.3838,-428 410.2938,-428"/>
<polygon fill="#191970" stroke="#191970" points="410.4496,-431.5001 420.4495,-428 410.4495,-424.5001 410.4496,-431.5001"/>
</g>
<!-- Node80 -->
<g id="node21" class="node">
<title>Node80</title>
<g id="a_node21"><a xlink:href="_a_e_s_8c.html#a7dbbb13c3ab5608765b6d368eb9f4fe1" target="_top" xlink:title="galloisFieldMult &#45; Function to perform the Galois field multiplication operation required for the inv...">
<polygon fill="#ffffff" stroke="#000000" points="412.5,-380.5 412.5,-399.5 496.5,-399.5 496.5,-380.5 412.5,-380.5"/>
<text text-anchor="middle" x="454.5" y="-387.5" font-family="Helvetica,sans-Serif" font-size="10.00" fill="#000000">galloisFieldMult</text>
</a>
</g>
</g>
<!-- Node79&#45;&gt;Node80 -->
<g id="edge23" class="edge">
<title>Node79&#45;&gt;Node80</title>
<path fill="none" stroke="#191970" d="M344.075,-390C362.0022,-390 383.1073,-390 402.0383,-390"/>
<polygon fill="#191970" stroke="#191970" points="402.2979,-393.5001 412.2979,-390 402.2978,-386.5001 402.2979,-393.5001"/>
</g>
</g>
</svg>
