<?xml version="1.0" encoding="UTF-8" standalone="no"?>
<!DOCTYPE svg PUBLIC "-//W3C//DTD SVG 1.1//EN"
 "http://www.w3.org/Graphics/SVG/1.1/DTD/svg11.dtd">
<!-- Generated by graphviz version 2.40.1 (20161225.0304)
 -->
<!-- Title: ecbDecrypt Pages: 1 -->
<svg width="763pt" height="636pt"
 viewBox="0.00 0.00 763.00 636.00" xmlns="http://www.w3.org/2000/svg" xmlns:xlink="http://www.w3.org/1999/xlink">
<g id="graph0" class="graph" transform="scale(1 1) rotate(0) translate(4 632)">
<title>ecbDecrypt</title>
<polygon fill="#ffffff" stroke="transparent" points="-4,4 -4,-632 759,-632 759,4 -4,4"/>
<!-- Node0 -->
<g id="node1" class="node">
<title>Node0</title>
<polygon fill="#bfbfbf" stroke="#000000" points="0,-494.5 0,-513.5 67,-513.5 67,-494.5 0,-494.5"/>
<text text-anchor="middle" x="33.5" y="-501.5" font-family="Helvetica,sans-Serif" font-size="10.00" fill="#000000">ecbDecrypt</text>
</g>
<!-- Node1 -->
<g id="node2" class="node">
<title>Node1</title>
<g id="a_node2"><a xlink:href="_a_e_s_8c.html#ad697cbb5d9e462b3017df1f1d939ee96" target="_top" xlink:title="hexToAsciiString &#45; Function that converts a given string of hex values into its ASCII equivalent...">
<polygon fill="#ffffff" stroke="#000000" points="234,-608.5 234,-627.5 325,-627.5 325,-608.5 234,-608.5"/>
<text text-anchor="middle" x="279.5" y="-615.5" font-family="Helvetica,sans-Serif" font-size="10.00" fill="#000000">hexToAsciiString</text>
</a>
</g>
</g>
<!-- Node0&#45;&gt;Node1 -->
<g id="edge1" class="edge">
<title>Node0&#45;&gt;Node1</title>
<path fill="none" stroke="#191970" d="M37.7809,-513.6129C46.7925,-532.5984 69.6728,-574.7324 103,-594 139.4625,-615.0802 187.0841,-620.5234 223.671,-621.0013"/>
<polygon fill="#191970" stroke="#191970" points="223.6751,-624.5012 233.6793,-621.0133 223.6835,-617.5012 223.6751,-624.5012"/>
</g>
<!-- Node4 -->
<g id="node5" class="node">
<title>Node4</title>
<g id="a_node5"><a xlink:href="_a_e_s_8c.html#afba897e91364663f883cc51ed309dc92" target="_top" xlink:title="keyHexToAscii &#45; Function to convert a key from a Hex string passed in as a paramter ...">
<polygon fill="#ffffff" stroke="#000000" points="109,-513.5 109,-532.5 192,-532.5 192,-513.5 109,-513.5"/>
<text text-anchor="middle" x="150.5" y="-520.5" font-family="Helvetica,sans-Serif" font-size="10.00" fill="#000000">keyHexToAscii</text>
</a>
</g>
</g>
<!-- Node0&#45;&gt;Node4 -->
<g id="edge4" class="edge">
<title>Node0&#45;&gt;Node4</title>
<path fill="none" stroke="#191970" d="M67.0275,-509.4446C76.8525,-511.0402 87.8345,-512.8235 98.5224,-514.5592"/>
<polygon fill="#191970" stroke="#191970" points="98.2003,-518.0527 108.6321,-516.2009 99.3224,-511.1432 98.2003,-518.0527"/>
</g>
<!-- Node5 -->
<g id="node6" class="node">
<title>Node5</title>
<g id="a_node6"><a xlink:href="_a_e_s_8c.html#a1c2a403d95a85400bbae142d48cb8c9d" target="_top" xlink:title="getNumRounds &#45; Function to return the number of rounds of AES encryption and decryption based off of ...">
<polygon fill="#ffffff" stroke="#000000" points="535,-513.5 535,-532.5 620,-532.5 620,-513.5 535,-513.5"/>
<text text-anchor="middle" x="577.5" y="-520.5" font-family="Helvetica,sans-Serif" font-size="10.00" fill="#000000">getNumRounds</text>
</a>
</g>
</g>
<!-- Node0&#45;&gt;Node5 -->
<g id="edge9" class="edge">
<title>Node0&#45;&gt;Node5</title>
<path fill="none" stroke="#191970" d="M46.4968,-513.7253C59.8632,-523.0707 81.6822,-536.5526 103,-542 252.8295,-580.286 437.837,-552.2667 526.0345,-534.5527"/>
<polygon fill="#191970" stroke="#191970" points="526.953,-537.9374 536.0472,-532.5019 525.5483,-531.0797 526.953,-537.9374"/>
</g>
<!-- Node6 -->
<g id="node7" class="node">
<title>Node6</title>
<g id="a_node7"><a xlink:href="_a_e_s_8c.html#a5d65eac115e562c64b00a43e72ee6aca" target="_top" xlink:title="getPaddedKeyLength &#45; Function to return a valid key length (in bytes) based off of the current key le...">
<polygon fill="#ffffff" stroke="#000000" points="370,-494.5 370,-513.5 480,-513.5 480,-494.5 370,-494.5"/>
<text text-anchor="middle" x="425" y="-501.5" font-family="Helvetica,sans-Serif" font-size="10.00" fill="#000000">getPaddedKeyLength</text>
</a>
</g>
</g>
<!-- Node0&#45;&gt;Node6 -->
<g id="edge8" class="edge">
<title>Node0&#45;&gt;Node6</title>
<path fill="none" stroke="#191970" d="M67.2179,-504C132.117,-504 275.4125,-504 359.6396,-504"/>
<polygon fill="#191970" stroke="#191970" points="359.8604,-507.5001 369.8604,-504 359.8604,-500.5001 359.8604,-507.5001"/>
</g>
<!-- Node7 -->
<g id="node8" class="node">
<title>Node7</title>
<g id="a_node8"><a xlink:href="_a_e_s_8c.html#a0e0b199ded54d7fb53a3bda3fcc02256" target="_top" xlink:title="validateNumRounds &#45; Function that validates the number of rounds that have been passed in by the ...">
<polygon fill="#ffffff" stroke="#000000" points="525,-380.5 525,-399.5 630,-399.5 630,-380.5 525,-380.5"/>
<text text-anchor="middle" x="577.5" y="-387.5" font-family="Helvetica,sans-Serif" font-size="10.00" fill="#000000">validateNumRounds</text>
</a>
</g>
</g>
<!-- Node0&#45;&gt;Node7 -->
<g id="edge10" class="edge">
<title>Node0&#45;&gt;Node7</title>
<path fill="none" stroke="#191970" d="M59.8197,-494.4564C114.8912,-474.9151 246.6527,-430.3908 361,-409 412.1596,-399.4296 471.0451,-394.6564 514.4769,-392.2893"/>
<polygon fill="#191970" stroke="#191970" points="514.8067,-395.7771 524.6126,-391.7652 514.4451,-388.7864 514.8067,-395.7771"/>
</g>
<!-- Node8 -->
<g id="node9" class="node">
<title>Node8</title>
<g id="a_node9"><a xlink:href="ecb_8c.html#a9661ce321dd2649926ebadd2ab9dcd20" target="_top" xlink:title="ecbDecryptHelper &#45; Helper function used to decrypt the ciphertext pointed to by ">
<polygon fill="#ffffff" stroke="#000000" points="103,-228.5 103,-247.5 198,-247.5 198,-228.5 103,-228.5"/>
<text text-anchor="middle" x="150.5" y="-235.5" font-family="Helvetica,sans-Serif" font-size="10.00" fill="#000000">ecbDecryptHelper</text>
</a>
</g>
</g>
<!-- Node0&#45;&gt;Node8 -->
<g id="edge11" class="edge">
<title>Node0&#45;&gt;Node8</title>
<path fill="none" stroke="#191970" d="M37.8029,-494.2175C55.0051,-455.1081 119.0163,-309.5783 142.1179,-257.0566"/>
<polygon fill="#191970" stroke="#191970" points="145.4589,-258.1538 146.2814,-247.591 139.0513,-255.3354 145.4589,-258.1538"/>
</g>
<!-- Node2 -->
<g id="node3" class="node">
<title>Node2</title>
<g id="a_node3"><a xlink:href="_a_e_s_8c.html#aa177516503b10de65b504a3714073ad7" target="_top" xlink:title="hexToAscii &#45; Function that converts a given hex value to its ASCII equivalent. ">
<polygon fill="#ffffff" stroke="#000000" points="392.5,-608.5 392.5,-627.5 457.5,-627.5 457.5,-608.5 392.5,-608.5"/>
<text text-anchor="middle" x="425" y="-615.5" font-family="Helvetica,sans-Serif" font-size="10.00" fill="#000000">hexToAscii</text>
</a>
</g>
</g>
<!-- Node1&#45;&gt;Node2 -->
<g id="edge2" class="edge">
<title>Node1&#45;&gt;Node2</title>
<path fill="none" stroke="#191970" d="M325.1379,-618C343.3908,-618 364.3008,-618 382.2548,-618"/>
<polygon fill="#191970" stroke="#191970" points="382.4418,-621.5001 392.4418,-618 382.4418,-614.5001 382.4418,-621.5001"/>
</g>
<!-- Node3 -->
<g id="node4" class="node">
<title>Node3</title>
<g id="a_node4"><a xlink:href="_a_e_s_8c.html#a7e5ab2188af44718071074f450963568" target="_top" xlink:title="hexToInt &#45; Function that converts a given hex value into an integer. ">
<polygon fill="#ffffff" stroke="#000000" points="550,-608.5 550,-627.5 605,-627.5 605,-608.5 550,-608.5"/>
<text text-anchor="middle" x="577.5" y="-615.5" font-family="Helvetica,sans-Serif" font-size="10.00" fill="#000000">hexToInt</text>
</a>
</g>
</g>
<!-- Node2&#45;&gt;Node3 -->
<g id="edge3" class="edge">
<title>Node2&#45;&gt;Node3</title>
<path fill="none" stroke="#191970" d="M457.7151,-618C481.7608,-618 514.4932,-618 539.6651,-618"/>
<polygon fill="#191970" stroke="#191970" points="539.9428,-621.5001 549.9427,-618 539.9427,-614.5001 539.9428,-621.5001"/>
</g>
<!-- Node4&#45;&gt;Node1 -->
<g id="edge7" class="edge">
<title>Node4&#45;&gt;Node1</title>
<path fill="none" stroke="#191970" d="M163.8194,-532.8089C186.144,-549.2494 231.2987,-582.5029 258.1139,-602.2505"/>
<polygon fill="#191970" stroke="#191970" points="256.3176,-605.2743 266.4452,-608.386 260.4685,-599.6378 256.3176,-605.2743"/>
</g>
<!-- Node4&#45;&gt;Node5 -->
<g id="edge5" class="edge">
<title>Node4&#45;&gt;Node5</title>
<path fill="none" stroke="#191970" d="M192.101,-525.9823C205.4725,-526.8093 220.355,-527.5918 234,-528 336.8482,-531.0765 457.0772,-527.7357 524.5522,-525.2297"/>
<polygon fill="#191970" stroke="#191970" points="525.0579,-528.7131 534.9178,-524.8358 524.7921,-521.7182 525.0579,-528.7131"/>
</g>
<!-- Node4&#45;&gt;Node6 -->
<g id="edge6" class="edge">
<title>Node4&#45;&gt;Node6</title>
<path fill="none" stroke="#191970" d="M192.1906,-520.1143C236.6227,-517.0389 307.5798,-512.1274 359.4909,-508.5343"/>
<polygon fill="#191970" stroke="#191970" points="359.8713,-512.0165 369.6057,-507.8342 359.3879,-505.0332 359.8713,-512.0165"/>
</g>
<!-- Node9 -->
<g id="node10" class="node">
<title>Node9</title>
<g id="a_node10"><a xlink:href="_a_e_s_8c.html#ab51c63e6483f94f12bbc9b256374ec64" target="_top" xlink:title="AESDecrypt &#45; Function to decrypt a single block of ciphertext passed in as parameter &#160;cipherText usin...">
<polygon fill="#ffffff" stroke="#000000" points="244,-228.5 244,-247.5 315,-247.5 315,-228.5 244,-228.5"/>
<text text-anchor="middle" x="279.5" y="-235.5" font-family="Helvetica,sans-Serif" font-size="10.00" fill="#000000">AESDecrypt</text>
</a>
</g>
</g>
<!-- Node8&#45;&gt;Node9 -->
<g id="edge12" class="edge">
<title>Node8&#45;&gt;Node9</title>
<path fill="none" stroke="#191970" d="M198.1683,-238C209.7079,-238 222.0204,-238 233.4823,-238"/>
<polygon fill="#191970" stroke="#191970" points="233.7229,-241.5001 243.7229,-238 233.7229,-234.5001 233.7229,-241.5001"/>
</g>
<!-- Node26 -->
<g id="node27" class="node">
<title>Node26</title>
<g id="a_node27"><a xlink:href="_a_e_s_8c.html#aaba2e1b9466483b3c6b8669eb42aa5ed" target="_top" xlink:title="printAESBlock &#45; Function to print a single block in hex format to the terminal. ">
<polygon fill="#ffffff" stroke="#000000" points="385,-.5 385,-19.5 465,-19.5 465,-.5 385,-.5"/>
<text text-anchor="middle" x="425" y="-7.5" font-family="Helvetica,sans-Serif" font-size="10.00" fill="#000000">printAESBlock</text>
</a>
</g>
</g>
<!-- Node8&#45;&gt;Node26 -->
<g id="edge36" class="edge">
<title>Node8&#45;&gt;Node26</title>
<path fill="none" stroke="#191970" d="M157.3035,-228.4422C181.2413,-195.5191 265.3175,-85.733 361,-29 365.4349,-26.3704 370.2611,-24.081 375.2085,-22.0929"/>
<polygon fill="#191970" stroke="#191970" points="376.5833,-25.3178 384.8013,-18.6309 374.207,-18.7334 376.5833,-25.3178"/>
</g>
<!-- Node9&#45;&gt;Node5 -->
<g id="edge14" class="edge">
<title>Node9&#45;&gt;Node5</title>
<path fill="none" stroke="#191970" d="M280.3132,-247.5414C283.633,-280.4106 299.0928,-390.0421 361,-447 404.6711,-487.1798 433.1957,-464.8143 489,-485 508.8478,-492.1794 530.639,-501.5175 547.6317,-509.14"/>
<polygon fill="#191970" stroke="#191970" points="546.4782,-512.4599 557.0312,-513.4004 549.3681,-506.0842 546.4782,-512.4599"/>
</g>
<!-- Node9&#45;&gt;Node6 -->
<g id="edge13" class="edge">
<title>Node9&#45;&gt;Node6</title>
<path fill="none" stroke="#191970" d="M279.9142,-247.8203C281.9587,-283.8825 293.8307,-410.5125 361,-480 364.8145,-483.9461 369.3396,-487.2497 374.1941,-490.0142"/>
<polygon fill="#191970" stroke="#191970" points="372.6856,-493.1726 383.2055,-494.4303 375.766,-486.8868 372.6856,-493.1726"/>
</g>
<!-- Node9&#45;&gt;Node7 -->
<g id="edge15" class="edge">
<title>Node9&#45;&gt;Node7</title>
<path fill="none" stroke="#191970" d="M285.06,-247.7797C296.5983,-267.1597 325.0884,-310.5059 361,-333 386.9703,-349.2671 463.0886,-367.1206 517.7235,-378.4343"/>
<polygon fill="#191970" stroke="#191970" points="517.1591,-381.8913 527.658,-380.4689 518.5636,-375.0337 517.1591,-381.8913"/>
</g>
<!-- Node10 -->
<g id="node11" class="node">
<title>Node10</title>
<g id="a_node11"><a xlink:href="_a_e_s_8c.html#ae01a1e7833d53f19b534e37ace03a691" target="_top" xlink:title="validateCipherTextLength &#45; Function that validates the length of the ciphertext. The validation is do...">
<polygon fill="#ffffff" stroke="#000000" points="361,-304.5 361,-323.5 489,-323.5 489,-304.5 361,-304.5"/>
<text text-anchor="middle" x="425" y="-311.5" font-family="Helvetica,sans-Serif" font-size="10.00" fill="#000000">validateCipherTextLength</text>
</a>
</g>
</g>
<!-- Node9&#45;&gt;Node10 -->
<g id="edge16" class="edge">
<title>Node9&#45;&gt;Node10</title>
<path fill="none" stroke="#191970" d="M290.6405,-247.5653C305.6928,-260.0563 333.7846,-281.8719 361,-295 365.7075,-297.2708 370.7423,-299.3311 375.8431,-301.1847"/>
<polygon fill="#191970" stroke="#191970" points="375.0708,-304.6177 385.6649,-304.4953 377.3067,-297.9844 375.0708,-304.6177"/>
</g>
<!-- Node11 -->
<g id="node12" class="node">
<title>Node11</title>
<g id="a_node12"><a xlink:href="_a_e_s_8c.html#a1c1a633a58f7328faa397db9e45e7e0c" target="_top" xlink:title="constructStateArray &#45; Function to convert the state array from a flat 1D array to a multidimensional ...">
<polygon fill="#ffffff" stroke="#000000" points="373,-266.5 373,-285.5 477,-285.5 477,-266.5 373,-266.5"/>
<text text-anchor="middle" x="425" y="-273.5" font-family="Helvetica,sans-Serif" font-size="10.00" fill="#000000">constructStateArray</text>
</a>
</g>
</g>
<!-- Node9&#45;&gt;Node11 -->
<g id="edge17" class="edge">
<title>Node9&#45;&gt;Node11</title>
<path fill="none" stroke="#191970" d="M315.0933,-247.2958C334.2528,-252.2997 358.1124,-258.5311 378.7003,-263.908"/>
<polygon fill="#191970" stroke="#191970" points="377.9495,-267.3292 388.5094,-266.4698 379.7184,-260.5564 377.9495,-267.3292"/>
</g>
<!-- Node12 -->
<g id="node13" class="node">
<title>Node12</title>
<g id="a_node13"><a xlink:href="_a_e_s_8c.html#ae9af90db32afa65125a7eec339ed9d58" target="_top" xlink:title="printStateArray &#45; Function to print the state array to the terminal in hex format. ">
<polygon fill="#ffffff" stroke="#000000" points="384,-228.5 384,-247.5 466,-247.5 466,-228.5 384,-228.5"/>
<text text-anchor="middle" x="425" y="-235.5" font-family="Helvetica,sans-Serif" font-size="10.00" fill="#000000">printStateArray</text>
</a>
</g>
</g>
<!-- Node9&#45;&gt;Node12 -->
<g id="edge18" class="edge">
<title>Node9&#45;&gt;Node12</title>
<path fill="none" stroke="#191970" d="M315.0933,-238C332.7079,-238 354.2951,-238 373.6604,-238"/>
<polygon fill="#191970" stroke="#191970" points="373.8503,-241.5001 383.8503,-238 373.8503,-234.5001 373.8503,-241.5001"/>
</g>
<!-- Node13 -->
<g id="node14" class="node">
<title>Node13</title>
<g id="a_node14"><a xlink:href="_a_e_s_8c.html#a185c827e4ccbc8e4608e83dfbf9dfc8e" target="_top" xlink:title="RijndaelKeySchedule &#45; Function that performs the Rijndael key scheduling for AES encryption. Takes in the original key passed in as parameter. ">
<polygon fill="#ffffff" stroke="#000000" points="370,-418.5 370,-437.5 480,-437.5 480,-418.5 370,-418.5"/>
<text text-anchor="middle" x="425" y="-425.5" font-family="Helvetica,sans-Serif" font-size="10.00" fill="#000000">RijndaelKeySchedule</text>
</a>
</g>
</g>
<!-- Node9&#45;&gt;Node13 -->
<g id="edge19" class="edge">
<title>Node9&#45;&gt;Node13</title>
<path fill="none" stroke="#191970" d="M284.5351,-247.5035C296.3779,-269.4589 327.5343,-324.9634 361,-366 374.6021,-382.6793 392.322,-399.5411 405.6667,-411.4608"/>
<polygon fill="#191970" stroke="#191970" points="403.512,-414.2267 413.3343,-418.1981 408.1324,-408.9682 403.512,-414.2267"/>
</g>
<!-- Node18 -->
<g id="node19" class="node">
<title>Node18</title>
<g id="a_node19"><a xlink:href="_a_e_s_8c.html#abe15a731f43315f6f595674d3cd62d57" target="_top" xlink:title="getRoundKey &#45; Function to extract the correct sub&#45;key to use for the appropriate round specified by ...">
<polygon fill="#ffffff" stroke="#000000" points="387,-190.5 387,-209.5 463,-209.5 463,-190.5 387,-190.5"/>
<text text-anchor="middle" x="425" y="-197.5" font-family="Helvetica,sans-Serif" font-size="10.00" fill="#000000">getRoundKey</text>
</a>
</g>
</g>
<!-- Node9&#45;&gt;Node18 -->
<g id="edge27" class="edge">
<title>Node9&#45;&gt;Node18</title>
<path fill="none" stroke="#191970" d="M315.0933,-228.7042C334.2528,-223.7003 358.1124,-217.4689 378.7003,-212.092"/>
<polygon fill="#191970" stroke="#191970" points="379.7184,-215.4436 388.5094,-209.5302 377.9495,-208.6708 379.7184,-215.4436"/>
</g>
<!-- Node19 -->
<g id="node20" class="node">
<title>Node19</title>
<g id="a_node20"><a xlink:href="_a_e_s_8c.html#aef4d8fc4282e3cc21708d25c0ec9ad06" target="_top" xlink:title="AddRoundKey &#45; Function that performs the Bitwise XOR between state and key as per AES encryption...">
<polygon fill="#ffffff" stroke="#000000" points="385,-152.5 385,-171.5 465,-171.5 465,-152.5 385,-152.5"/>
<text text-anchor="middle" x="425" y="-159.5" font-family="Helvetica,sans-Serif" font-size="10.00" fill="#000000">AddRoundKey</text>
</a>
</g>
</g>
<!-- Node9&#45;&gt;Node19 -->
<g id="edge28" class="edge">
<title>Node9&#45;&gt;Node19</title>
<path fill="none" stroke="#191970" d="M290.6405,-228.4347C305.6928,-215.9437 333.7846,-194.1281 361,-181 365.7075,-178.7292 370.7423,-176.6689 375.8431,-174.8153"/>
<polygon fill="#191970" stroke="#191970" points="377.3067,-178.0156 385.6649,-171.5047 375.0708,-171.3823 377.3067,-178.0156"/>
</g>
<!-- Node20 -->
<g id="node21" class="node">
<title>Node20</title>
<g id="a_node21"><a xlink:href="_a_e_s_8c.html#a903e34d08dd07be2e2d9618d4d489ee6" target="_top" xlink:title="invShiftRows &#45; Function to shift the state array Inverse according to the AES encryption standard for...">
<polygon fill="#ffffff" stroke="#000000" points="387.5,-114.5 387.5,-133.5 462.5,-133.5 462.5,-114.5 387.5,-114.5"/>
<text text-anchor="middle" x="425" y="-121.5" font-family="Helvetica,sans-Serif" font-size="10.00" fill="#000000">invShiftRows</text>
</a>
</g>
</g>
<!-- Node9&#45;&gt;Node20 -->
<g id="edge29" class="edge">
<title>Node9&#45;&gt;Node20</title>
<path fill="none" stroke="#191970" d="M285.1204,-228.3151C296.7673,-209.1056 325.4431,-166.0507 361,-143 366.0467,-139.7284 371.6769,-137.0024 377.4469,-134.7353"/>
<polygon fill="#191970" stroke="#191970" points="378.9165,-137.9299 387.2109,-131.3379 376.6161,-131.3187 378.9165,-137.9299"/>
</g>
<!-- Node22 -->
<g id="node23" class="node">
<title>Node22</title>
<g id="a_node23"><a xlink:href="_a_e_s_8c.html#a8e72edc1f652f8626aacd2781303c86b" target="_top" xlink:title="invSubBytes &#45; Function that performs the inverse of Function subBytes ">
<polygon fill="#ffffff" stroke="#000000" points="389,-76.5 389,-95.5 461,-95.5 461,-76.5 389,-76.5"/>
<text text-anchor="middle" x="425" y="-83.5" font-family="Helvetica,sans-Serif" font-size="10.00" fill="#000000">invSubBytes</text>
</a>
</g>
</g>
<!-- Node9&#45;&gt;Node22 -->
<g id="edge31" class="edge">
<title>Node9&#45;&gt;Node22</title>
<path fill="none" stroke="#191970" d="M282.6722,-228.2931C291.1937,-203.7572 316.9672,-138.8093 361,-105 366.4354,-100.8266 372.774,-97.5674 379.3086,-95.0229"/>
<polygon fill="#191970" stroke="#191970" points="380.5782,-98.2886 388.9404,-91.7828 378.3463,-91.6539 380.5782,-98.2886"/>
</g>
<!-- Node24 -->
<g id="node25" class="node">
<title>Node24</title>
<g id="a_node25"><a xlink:href="_a_e_s_8c.html#a9de891875f23dd3dff8fe3f8e10ba3ad" target="_top" xlink:title="invMixColumns &#45; Function that does the inverse of the Mix Column Step for AES Encryption. Performs the gallois field multiplication and the required XOR to the state passed in as a paramter ">
<polygon fill="#ffffff" stroke="#000000" points="383,-38.5 383,-57.5 467,-57.5 467,-38.5 383,-38.5"/>
<text text-anchor="middle" x="425" y="-45.5" font-family="Helvetica,sans-Serif" font-size="10.00" fill="#000000">invMixColumns</text>
</a>
</g>
</g>
<!-- Node9&#45;&gt;Node24 -->
<g id="edge33" class="edge">
<title>Node9&#45;&gt;Node24</title>
<path fill="none" stroke="#191970" d="M282.8701,-228.4706C294.5423,-195.9496 334.0025,-90.0793 361,-67 364.714,-63.8251 368.9403,-61.1805 373.4094,-58.9779"/>
<polygon fill="#191970" stroke="#191970" points="374.9536,-62.1262 382.8378,-55.0487 372.2608,-55.6648 374.9536,-62.1262"/>
</g>
<!-- Node9&#45;&gt;Node26 -->
<g id="edge35" class="edge">
<title>Node9&#45;&gt;Node26</title>
<path fill="none" stroke="#191970" d="M283.2192,-228.294C298.9129,-187.3596 359.0072,-30.8335 361,-29 365.1581,-25.1743 370.0535,-22.1166 375.2544,-19.6732"/>
<polygon fill="#191970" stroke="#191970" points="376.8235,-22.8174 384.8531,-15.9053 374.2656,-16.3014 376.8235,-22.8174"/>
</g>
<!-- Node13&#45;&gt;Node5 -->
<g id="edge20" class="edge">
<title>Node13&#45;&gt;Node5</title>
<path fill="none" stroke="#191970" d="M457.6995,-437.5419C468.1006,-441.279 479.3913,-446.1041 489,-452 507.5001,-463.3516 508.1807,-471.2806 525,-485 534.5145,-492.7609 545.4571,-500.8102 554.8814,-507.4917"/>
<polygon fill="#191970" stroke="#191970" points="553.1564,-510.5566 563.3557,-513.4246 557.1711,-504.8222 553.1564,-510.5566"/>
</g>
<!-- Node13&#45;&gt;Node7 -->
<g id="edge21" class="edge">
<title>Node13&#45;&gt;Node7</title>
<path fill="none" stroke="#191970" d="M463.4822,-418.411C483.5156,-413.4191 508.2023,-407.2676 529.476,-401.9666"/>
<polygon fill="#191970" stroke="#191970" points="530.4375,-405.3341 539.2945,-399.5201 528.745,-398.5418 530.4375,-405.3341"/>
</g>
<!-- Node14 -->
<g id="node15" class="node">
<title>Node14</title>
<g id="a_node15"><a xlink:href="_a_e_s_8c.html#af2f914cf17729a0ee89102c98b39665e" target="_top" xlink:title="KeyScheduleCore &#45; Function that performs the key schedule core for the Rijndael Key Schedule...">
<polygon fill="#ffffff" stroke="#000000" points="530,-456.5 530,-475.5 625,-475.5 625,-456.5 530,-456.5"/>
<text text-anchor="middle" x="577.5" y="-463.5" font-family="Helvetica,sans-Serif" font-size="10.00" fill="#000000">KeyScheduleCore</text>
</a>
</g>
</g>
<!-- Node13&#45;&gt;Node14 -->
<g id="edge22" class="edge">
<title>Node13&#45;&gt;Node14</title>
<path fill="none" stroke="#191970" d="M463.4822,-437.589C483.5156,-442.5809 508.2023,-448.7324 529.476,-454.0334"/>
<polygon fill="#191970" stroke="#191970" points="528.745,-457.4582 539.2945,-456.4799 530.4375,-450.6659 528.745,-457.4582"/>
</g>
<!-- Node16 -->
<g id="node17" class="node">
<title>Node16</title>
<g id="a_node17"><a xlink:href="_a_e_s_8c.html#acdf4abe2846c02b4d3e674782807fdfa" target="_top" xlink:title="getSBoxValue &#45; Function to return the sBox value passed in as a parameter ">
<polygon fill="#ffffff" stroke="#000000" points="671,-418.5 671,-437.5 750,-437.5 750,-418.5 671,-418.5"/>
<text text-anchor="middle" x="710.5" y="-425.5" font-family="Helvetica,sans-Serif" font-size="10.00" fill="#000000">getSBoxValue</text>
</a>
</g>
</g>
<!-- Node13&#45;&gt;Node16 -->
<g id="edge26" class="edge">
<title>Node13&#45;&gt;Node16</title>
<path fill="none" stroke="#191970" d="M480.0473,-428C532.347,-428 610.2897,-428 660.7608,-428"/>
<polygon fill="#191970" stroke="#191970" points="660.7837,-431.5001 670.7837,-428 660.7837,-424.5001 660.7837,-431.5001"/>
</g>
<!-- Node15 -->
<g id="node16" class="node">
<title>Node15</title>
<g id="a_node16"><a xlink:href="_a_e_s_8c.html#ac769b0533ccecd203cc3ab64e6b2f950" target="_top" xlink:title="SingleRotateLeft &#45; Function to rotate the array passed in as a paramter. ">
<polygon fill="#ffffff" stroke="#000000" points="666,-494.5 666,-513.5 755,-513.5 755,-494.5 666,-494.5"/>
<text text-anchor="middle" x="710.5" y="-501.5" font-family="Helvetica,sans-Serif" font-size="10.00" fill="#000000">SingleRotateLeft</text>
</a>
</g>
</g>
<!-- Node14&#45;&gt;Node15 -->
<g id="edge23" class="edge">
<title>Node14&#45;&gt;Node15</title>
<path fill="none" stroke="#191970" d="M611.0615,-475.589C628.073,-480.4494 648.9319,-486.4091 667.1446,-491.6127"/>
<polygon fill="#191970" stroke="#191970" points="666.3724,-495.0321 676.9492,-494.4141 668.2955,-488.3014 666.3724,-495.0321"/>
</g>
<!-- Node14&#45;&gt;Node16 -->
<g id="edge24" class="edge">
<title>Node14&#45;&gt;Node16</title>
<path fill="none" stroke="#191970" d="M611.0615,-456.411C628.073,-451.5506 648.9319,-445.5909 667.1446,-440.3873"/>
<polygon fill="#191970" stroke="#191970" points="668.2955,-443.6986 676.9492,-437.5859 666.3724,-436.9679 668.2955,-443.6986"/>
</g>
<!-- Node17 -->
<g id="node18" class="node">
<title>Node17</title>
<g id="a_node18"><a xlink:href="_a_e_s_8c.html#a4e58d2e928429bc56387394251b8ece5" target="_top" xlink:title="getRconValue &#45; Function to return the Rcon value for the index passed in as a parameter ...">
<polygon fill="#ffffff" stroke="#000000" points="671.5,-456.5 671.5,-475.5 749.5,-475.5 749.5,-456.5 671.5,-456.5"/>
<text text-anchor="middle" x="710.5" y="-463.5" font-family="Helvetica,sans-Serif" font-size="10.00" fill="#000000">getRconValue</text>
</a>
</g>
</g>
<!-- Node14&#45;&gt;Node17 -->
<g id="edge25" class="edge">
<title>Node14&#45;&gt;Node17</title>
<path fill="none" stroke="#191970" d="M625.1404,-466C636.7856,-466 649.272,-466 661.0019,-466"/>
<polygon fill="#191970" stroke="#191970" points="661.0751,-469.5001 671.0751,-466 661.0751,-462.5001 661.0751,-469.5001"/>
</g>
<!-- Node21 -->
<g id="node22" class="node">
<title>Node21</title>
<g id="a_node22"><a xlink:href="_a_e_s_8c.html#a4fc33ada95d0d2aaea28086aefe173bb" target="_top" xlink:title="SingleRotateRight &#45; Function to rotate the array passed in as a paramter. ">
<polygon fill="#ffffff" stroke="#000000" points="529.5,-114.5 529.5,-133.5 625.5,-133.5 625.5,-114.5 529.5,-114.5"/>
<text text-anchor="middle" x="577.5" y="-121.5" font-family="Helvetica,sans-Serif" font-size="10.00" fill="#000000">SingleRotateRight</text>
</a>
</g>
</g>
<!-- Node20&#45;&gt;Node21 -->
<g id="edge30" class="edge">
<title>Node20&#45;&gt;Node21</title>
<path fill="none" stroke="#191970" d="M462.6966,-124C479.7431,-124 500.2782,-124 519.2394,-124"/>
<polygon fill="#191970" stroke="#191970" points="519.2808,-127.5001 529.2808,-124 519.2807,-120.5001 519.2808,-127.5001"/>
</g>
<!-- Node23 -->
<g id="node24" class="node">
<title>Node23</title>
<g id="a_node24"><a xlink:href="_a_e_s_8c.html#a425f9b1e2cd595f2c45f129bc5d0a6d0" target="_top" xlink:title="getInvSBox &#45; Function to return the inverse sBox value passed in as a parameter ">
<polygon fill="#ffffff" stroke="#000000" points="543.5,-76.5 543.5,-95.5 611.5,-95.5 611.5,-76.5 543.5,-76.5"/>
<text text-anchor="middle" x="577.5" y="-83.5" font-family="Helvetica,sans-Serif" font-size="10.00" fill="#000000">getInvSBox</text>
</a>
</g>
</g>
<!-- Node22&#45;&gt;Node23 -->
<g id="edge32" class="edge">
<title>Node22&#45;&gt;Node23</title>
<path fill="none" stroke="#191970" d="M461.1404,-86C482.7561,-86 510.3838,-86 533.2938,-86"/>
<polygon fill="#191970" stroke="#191970" points="533.4496,-89.5001 543.4495,-86 533.4495,-82.5001 533.4496,-89.5001"/>
</g>
<!-- Node25 -->
<g id="node26" class="node">
<title>Node25</title>
<g id="a_node26"><a xlink:href="_a_e_s_8c.html#a7dbbb13c3ab5608765b6d368eb9f4fe1" target="_top" xlink:title="galloisFieldMult &#45; Function to perform the Galois field multiplication operation required for the inv...">
<polygon fill="#ffffff" stroke="#000000" points="535.5,-38.5 535.5,-57.5 619.5,-57.5 619.5,-38.5 535.5,-38.5"/>
<text text-anchor="middle" x="577.5" y="-45.5" font-family="Helvetica,sans-Serif" font-size="10.00" fill="#000000">galloisFieldMult</text>
</a>
</g>
</g>
<!-- Node24&#45;&gt;Node25 -->
<g id="edge34" class="edge">
<title>Node24&#45;&gt;Node25</title>
<path fill="none" stroke="#191970" d="M467.075,-48C485.0022,-48 506.1073,-48 525.0383,-48"/>
<polygon fill="#191970" stroke="#191970" points="525.2979,-51.5001 535.2979,-48 525.2978,-44.5001 525.2979,-51.5001"/>
</g>
</g>
</svg>
