<?xml version="1.0" encoding="UTF-8" standalone="no"?>
<!DOCTYPE svg PUBLIC "-//W3C//DTD SVG 1.1//EN"
 "http://www.w3.org/Graphics/SVG/1.1/DTD/svg11.dtd">
<!-- Generated by graphviz version 2.40.1 (20161225.0304)
 -->
<!-- Title: ecbDecryptFile Pages: 1 -->
<svg width="658pt" height="751pt"
 viewBox="0.00 0.00 658.00 751.44" xmlns="http://www.w3.org/2000/svg" xmlns:xlink="http://www.w3.org/1999/xlink">
<g id="graph0" class="graph" transform="scale(1 1) rotate(0) translate(4 747.4429)">
<title>ecbDecryptFile</title>
<polygon fill="#ffffff" stroke="transparent" points="-4,4 -4,-747.4429 654,-747.4429 654,4 -4,4"/>
<!-- Node28 -->
<g id="node1" class="node">
<title>Node28</title>
<polygon fill="#bfbfbf" stroke="#000000" points="0,-285.5 0,-304.5 83,-304.5 83,-285.5 0,-285.5"/>
<text text-anchor="middle" x="41.5" y="-292.5" font-family="Helvetica,sans-Serif" font-size="10.00" fill="#000000">ecbDecryptFile</text>
</g>
<!-- Node29 -->
<g id="node2" class="node">
<title>Node29</title>
<g id="a_node2"><a xlink:href="_a_e_s_8c.html#afba897e91364663f883cc51ed309dc92" target="_top" xlink:title="keyHexToAscii &#45; Function to convert a key from a Hex string passed in as a paramter ...">
<polygon fill="#ffffff" stroke="#000000" points="128,-646.5 128,-665.5 211,-665.5 211,-646.5 128,-646.5"/>
<text text-anchor="middle" x="169.5" y="-653.5" font-family="Helvetica,sans-Serif" font-size="10.00" fill="#000000">keyHexToAscii</text>
</a>
</g>
</g>
<!-- Node28&#45;&gt;Node29 -->
<g id="edge1" class="edge">
<title>Node28&#45;&gt;Node29</title>
<path fill="none" stroke="#191970" d="M44.5583,-304.8328C54.6229,-337.046 87.8511,-442.2534 119,-528 133.2028,-567.0973 151.448,-612.2263 161.6659,-637.0939"/>
<polygon fill="#191970" stroke="#191970" points="158.4697,-638.5242 165.5182,-646.4342 164.9409,-635.8551 158.4697,-638.5242"/>
</g>
<!-- Node30 -->
<g id="node3" class="node">
<title>Node30</title>
<g id="a_node3"><a xlink:href="_a_e_s_8c.html#a1c2a403d95a85400bbae142d48cb8c9d" target="_top" xlink:title="getNumRounds &#45; Function to return the number of rounds of AES encryption and decryption based off of ...">
<polygon fill="#ffffff" stroke="#000000" points="430,-608.5 430,-627.5 515,-627.5 515,-608.5 430,-608.5"/>
<text text-anchor="middle" x="472.5" y="-615.5" font-family="Helvetica,sans-Serif" font-size="10.00" fill="#000000">getNumRounds</text>
</a>
</g>
</g>
<!-- Node28&#45;&gt;Node30 -->
<g id="edge8" class="edge">
<title>Node28&#45;&gt;Node30</title>
<path fill="none" stroke="#191970" d="M41.8957,-304.8017C44.3252,-359.4825 59.1576,-626.1305 119,-675 146.8837,-697.7709 353.0763,-665.2992 384,-657 405.554,-651.2155 428.5829,-640.9245 445.745,-632.3659"/>
<polygon fill="#191970" stroke="#191970" points="447.8063,-635.243 455.1164,-627.5741 444.6194,-629.0105 447.8063,-635.243"/>
</g>
<!-- Node31 -->
<g id="node4" class="node">
<title>Node31</title>
<g id="a_node4"><a xlink:href="_a_e_s_8c.html#a5d65eac115e562c64b00a43e72ee6aca" target="_top" xlink:title="getPaddedKeyLength &#45; Function to return a valid key length (in bytes) based off of the current key le...">
<polygon fill="#ffffff" stroke="#000000" points="265,-608.5 265,-627.5 375,-627.5 375,-608.5 265,-608.5"/>
<text text-anchor="middle" x="320" y="-615.5" font-family="Helvetica,sans-Serif" font-size="10.00" fill="#000000">getPaddedKeyLength</text>
</a>
</g>
</g>
<!-- Node28&#45;&gt;Node31 -->
<g id="edge7" class="edge">
<title>Node28&#45;&gt;Node31</title>
<path fill="none" stroke="#191970" d="M45.8004,-304.5081C64.633,-345.1404 143.9233,-506.0791 256,-593 261.8324,-597.5233 268.5843,-601.3206 275.4703,-604.4784"/>
<polygon fill="#191970" stroke="#191970" points="274.293,-607.7795 284.8699,-608.3965 276.9863,-601.3184 274.293,-607.7795"/>
</g>
<!-- Node32 -->
<g id="node5" class="node">
<title>Node32</title>
<g id="a_node5"><a xlink:href="_a_e_s_8c.html#ad697cbb5d9e462b3017df1f1d939ee96" target="_top" xlink:title="hexToAsciiString &#45; Function that converts a given string of hex values into its ASCII equivalent...">
<polygon fill="#ffffff" stroke="#000000" points="274.5,-722.5 274.5,-741.5 365.5,-741.5 365.5,-722.5 274.5,-722.5"/>
<text text-anchor="middle" x="320" y="-729.5" font-family="Helvetica,sans-Serif" font-size="10.00" fill="#000000">hexToAsciiString</text>
</a>
</g>
</g>
<!-- Node28&#45;&gt;Node32 -->
<g id="edge13" class="edge">
<title>Node28&#45;&gt;Node32</title>
<path fill="none" stroke="#191970" d="M41.826,-304.7673C43.9384,-361.7368 57.5998,-650.5617 119,-708 157.2149,-743.749 218.9755,-746.031 263.9626,-741.6835"/>
<polygon fill="#191970" stroke="#191970" points="264.5951,-745.1351 274.151,-740.5596 263.8275,-738.1773 264.5951,-745.1351"/>
</g>
<!-- Node35 -->
<g id="node8" class="node">
<title>Node35</title>
<g id="a_node8"><a xlink:href="_a_e_s_8c.html#a0e0b199ded54d7fb53a3bda3fcc02256" target="_top" xlink:title="validateNumRounds &#45; Function that validates the number of rounds that have been passed in by the ...">
<polygon fill="#ffffff" stroke="#000000" points="420,-304.5 420,-323.5 525,-323.5 525,-304.5 420,-304.5"/>
<text text-anchor="middle" x="472.5" y="-311.5" font-family="Helvetica,sans-Serif" font-size="10.00" fill="#000000">validateNumRounds</text>
</a>
</g>
</g>
<!-- Node28&#45;&gt;Node35 -->
<g id="edge9" class="edge">
<title>Node28&#45;&gt;Node35</title>
<path fill="none" stroke="#191970" d="M46.2948,-285.2738C56.7419,-265.0419 83.4978,-218.1369 119,-192 215.4542,-120.9897 282.7895,-78.9508 384,-143 415.5828,-162.9866 402.9526,-185.7385 420,-219 433.8331,-245.9901 451.0235,-276.5924 461.8822,-295.597"/>
<polygon fill="#191970" stroke="#191970" points="458.9193,-297.466 466.9322,-304.3975 464.9908,-293.982 458.9193,-297.466"/>
</g>
<!-- Node36 -->
<g id="node9" class="node">
<title>Node36</title>
<g id="a_node9"><a xlink:href="_a_e_s_8c.html#acc2acf0b03a8863f9290bdd36dd6f478" target="_top" xlink:title="Get the output file name from all the parameters passed in. ">
<polygon fill="#ffffff" stroke="#000000" points="119,-76.5 119,-95.5 220,-95.5 220,-76.5 119,-76.5"/>
<text text-anchor="middle" x="169.5" y="-83.5" font-family="Helvetica,sans-Serif" font-size="10.00" fill="#000000">getOutputFileName</text>
</a>
</g>
</g>
<!-- Node28&#45;&gt;Node36 -->
<g id="edge10" class="edge">
<title>Node28&#45;&gt;Node36</title>
<path fill="none" stroke="#191970" d="M43.0649,-285.2169C48.3331,-255.2317 68.0383,-163.4119 119,-110 122.5526,-106.2766 126.7995,-103.0661 131.3009,-100.3158"/>
<polygon fill="#191970" stroke="#191970" points="132.988,-103.3827 140.1551,-95.5799 129.6864,-97.2101 132.988,-103.3827"/>
</g>
<!-- Node39 -->
<g id="node12" class="node">
<title>Node39</title>
<g id="a_node12"><a xlink:href="_a_e_s_8c.html#aaba2e1b9466483b3c6b8669eb42aa5ed" target="_top" xlink:title="printAESBlock &#45; Function to print a single block in hex format to the terminal. ">
<polygon fill="#ffffff" stroke="#000000" points="280,-152.5 280,-171.5 360,-171.5 360,-152.5 280,-152.5"/>
<text text-anchor="middle" x="320" y="-159.5" font-family="Helvetica,sans-Serif" font-size="10.00" fill="#000000">printAESBlock</text>
</a>
</g>
</g>
<!-- Node28&#45;&gt;Node39 -->
<g id="edge14" class="edge">
<title>Node28&#45;&gt;Node39</title>
<path fill="none" stroke="#191970" d="M56.8549,-285.45C91.3644,-264.3017 178.1376,-212.8734 256,-181 261.566,-178.7215 267.5052,-176.5861 273.4374,-174.6293"/>
<polygon fill="#191970" stroke="#191970" points="274.859,-177.8512 283.3474,-171.5112 272.758,-171.174 274.859,-177.8512"/>
</g>
<!-- Node40 -->
<g id="node13" class="node">
<title>Node40</title>
<g id="a_node13"><a xlink:href="_a_e_s_8c.html#ab51c63e6483f94f12bbc9b256374ec64" target="_top" xlink:title="AESDecrypt &#45; Function to decrypt a single block of ciphertext passed in as parameter &#160;cipherText usin...">
<polygon fill="#ffffff" stroke="#000000" points="134,-361.5 134,-380.5 205,-380.5 205,-361.5 134,-361.5"/>
<text text-anchor="middle" x="169.5" y="-368.5" font-family="Helvetica,sans-Serif" font-size="10.00" fill="#000000">AESDecrypt</text>
</a>
</g>
</g>
<!-- Node28&#45;&gt;Node40 -->
<g id="edge15" class="edge">
<title>Node28&#45;&gt;Node40</title>
<path fill="none" stroke="#191970" d="M57.7113,-304.6255C79.6397,-317.6454 118.958,-340.9907 144.635,-356.2364"/>
<polygon fill="#191970" stroke="#191970" points="143.0349,-359.3568 153.4203,-361.4527 146.6087,-353.3378 143.0349,-359.3568"/>
</g>
<!-- Node57 -->
<g id="node30" class="node">
<title>Node57</title>
<g id="a_node30"><a xlink:href="_a_e_s_8c.html#ac189aee6672718650020cf627d45c780" target="_top" xlink:title="Function name: asciiToHexString &#45; convert an ascii String to an ascii string. ">
<polygon fill="#ffffff" stroke="#000000" points="123.5,-38.5 123.5,-57.5 215.5,-57.5 215.5,-38.5 123.5,-38.5"/>
<text text-anchor="middle" x="169.5" y="-45.5" font-family="Helvetica,sans-Serif" font-size="10.00" fill="#000000">asciiToHexString</text>
</a>
</g>
</g>
<!-- Node28&#45;&gt;Node57 -->
<g id="edge39" class="edge">
<title>Node28&#45;&gt;Node57</title>
<path fill="none" stroke="#191970" d="M41.9539,-285.2754C44.0859,-250.6808 55.8905,-132.1748 119,-67 120.4173,-65.5363 121.9583,-64.1842 123.5917,-62.9353"/>
<polygon fill="#191970" stroke="#191970" points="125.711,-65.7404 132.3846,-57.5115 122.036,-59.7826 125.711,-65.7404"/>
</g>
<!-- Node58 -->
<g id="node31" class="node">
<title>Node58</title>
<g id="a_node31"><a xlink:href="_a_e_s_8c.html#a3bf513612c15693c3b2be10b94298e05" target="_top" xlink:title="isFileTxt &#45; Function to determine if the file passed in as a paramter ">
<polygon fill="#ffffff" stroke="#000000" points="142.5,-.5 142.5,-19.5 196.5,-19.5 196.5,-.5 142.5,-.5"/>
<text text-anchor="middle" x="169.5" y="-7.5" font-family="Helvetica,sans-Serif" font-size="10.00" fill="#000000">isFileTxt</text>
</a>
</g>
</g>
<!-- Node28&#45;&gt;Node58 -->
<g id="edge40" class="edge">
<title>Node28&#45;&gt;Node58</title>
<path fill="none" stroke="#191970" d="M43.1139,-285.4228C50.511,-242.5362 82.3878,-68.5199 119,-29 122.8594,-24.834 127.7231,-21.5756 132.8988,-19.0286"/>
<polygon fill="#191970" stroke="#191970" points="134.4541,-22.1747 142.4028,-15.1698 131.8207,-15.6889 134.4541,-22.1747"/>
</g>
<!-- Node29&#45;&gt;Node30 -->
<g id="edge2" class="edge">
<title>Node29&#45;&gt;Node30</title>
<path fill="none" stroke="#191970" d="M211.2022,-653.8306C254.557,-651.2191 324.2998,-646.0175 384,-637 396.7512,-635.074 410.4214,-632.4304 423.1112,-629.7272"/>
<polygon fill="#191970" stroke="#191970" points="424.0183,-633.1116 433.0416,-627.559 422.5251,-626.2727 424.0183,-633.1116"/>
</g>
<!-- Node29&#45;&gt;Node31 -->
<g id="edge3" class="edge">
<title>Node29&#45;&gt;Node31</title>
<path fill="none" stroke="#191970" d="M207.4775,-646.411C227.1587,-641.4417 251.3907,-635.3233 272.3206,-630.0387"/>
<polygon fill="#191970" stroke="#191970" points="273.4567,-633.3617 282.2956,-627.5201 271.743,-626.5747 273.4567,-633.3617"/>
</g>
<!-- Node29&#45;&gt;Node32 -->
<g id="edge4" class="edge">
<title>Node29&#45;&gt;Node32</title>
<path fill="none" stroke="#191970" d="M188.5609,-665.6255C214.6832,-678.8168 261.7938,-702.6068 291.9476,-717.834"/>
<polygon fill="#191970" stroke="#191970" points="290.5897,-721.0692 301.0938,-722.4527 293.7451,-714.8207 290.5897,-721.0692"/>
</g>
<!-- Node33 -->
<g id="node6" class="node">
<title>Node33</title>
<g id="a_node6"><a xlink:href="_a_e_s_8c.html#aa177516503b10de65b504a3714073ad7" target="_top" xlink:title="hexToAscii &#45; Function that converts a given hex value to its ASCII equivalent. ">
<polygon fill="#ffffff" stroke="#000000" points="440,-722.5 440,-741.5 505,-741.5 505,-722.5 440,-722.5"/>
<text text-anchor="middle" x="472.5" y="-729.5" font-family="Helvetica,sans-Serif" font-size="10.00" fill="#000000">hexToAscii</text>
</a>
</g>
</g>
<!-- Node32&#45;&gt;Node33 -->
<g id="edge5" class="edge">
<title>Node32&#45;&gt;Node33</title>
<path fill="none" stroke="#191970" d="M365.755,-732C386.0764,-732 409.8576,-732 429.8093,-732"/>
<polygon fill="#191970" stroke="#191970" points="429.8551,-735.5001 439.8551,-732 429.8551,-728.5001 429.8551,-735.5001"/>
</g>
<!-- Node34 -->
<g id="node7" class="node">
<title>Node34</title>
<g id="a_node7"><a xlink:href="_a_e_s_8c.html#a7e5ab2188af44718071074f450963568" target="_top" xlink:title="hexToInt &#45; Function that converts a given hex value into an integer. ">
<polygon fill="#ffffff" stroke="#000000" points="578,-722.5 578,-741.5 633,-741.5 633,-722.5 578,-722.5"/>
<text text-anchor="middle" x="605.5" y="-729.5" font-family="Helvetica,sans-Serif" font-size="10.00" fill="#000000">hexToInt</text>
</a>
</g>
</g>
<!-- Node33&#45;&gt;Node34 -->
<g id="edge6" class="edge">
<title>Node33&#45;&gt;Node34</title>
<path fill="none" stroke="#191970" d="M505.0355,-732C523.9398,-732 547.85,-732 567.6014,-732"/>
<polygon fill="#191970" stroke="#191970" points="567.7947,-735.5001 577.7946,-732 567.7946,-728.5001 567.7947,-735.5001"/>
</g>
<!-- Node37 -->
<g id="node10" class="node">
<title>Node37</title>
<g id="a_node10"><a xlink:href="_a_e_s_8c.html#a9dcad0047890de22f3d15611a10ab74f" target="_top" xlink:title="Returns the last index of &#39;/&#39; in a given path, otherwise returns &#45;1 if no &#39;/&#39; is found. ">
<polygon fill="#ffffff" stroke="#000000" points="274,-38.5 274,-57.5 366,-57.5 366,-38.5 274,-38.5"/>
<text text-anchor="middle" x="320" y="-45.5" font-family="Helvetica,sans-Serif" font-size="10.00" fill="#000000">fileNameDirIndex</text>
</a>
</g>
</g>
<!-- Node36&#45;&gt;Node37 -->
<g id="edge11" class="edge">
<title>Node36&#45;&gt;Node37</title>
<path fill="none" stroke="#191970" d="M207.4775,-76.411C227.1587,-71.4417 251.3907,-65.3233 272.3206,-60.0387"/>
<polygon fill="#191970" stroke="#191970" points="273.4567,-63.3617 282.2956,-57.5201 271.743,-56.5747 273.4567,-63.3617"/>
</g>
<!-- Node38 -->
<g id="node11" class="node">
<title>Node38</title>
<g id="a_node11"><a xlink:href="_a_e_s_8c.html#ab066697b473ad5ce74faaceae6def5e5" target="_top" xlink:title="Removes path from the provided path to a file and returns only the file name. ">
<polygon fill="#ffffff" stroke="#000000" points="282.5,-76.5 282.5,-95.5 357.5,-95.5 357.5,-76.5 282.5,-76.5"/>
<text text-anchor="middle" x="320" y="-83.5" font-family="Helvetica,sans-Serif" font-size="10.00" fill="#000000">stripDirectory</text>
</a>
</g>
</g>
<!-- Node36&#45;&gt;Node38 -->
<g id="edge12" class="edge">
<title>Node36&#45;&gt;Node38</title>
<path fill="none" stroke="#191970" d="M220.033,-86C236.8637,-86 255.5501,-86 272.1695,-86"/>
<polygon fill="#191970" stroke="#191970" points="272.2153,-89.5001 282.2152,-86 272.2152,-82.5001 272.2153,-89.5001"/>
</g>
<!-- Node40&#45;&gt;Node30 -->
<g id="edge17" class="edge">
<title>Node40&#45;&gt;Node30</title>
<path fill="none" stroke="#191970" d="M173.3465,-380.704C188.0717,-417.6615 240.7947,-548.1796 256,-561 268.6054,-571.6282 359.6173,-593.2094 419.5578,-606.5544"/>
<polygon fill="#191970" stroke="#191970" points="419.1074,-610.0393 429.6276,-608.784 420.6207,-603.2049 419.1074,-610.0393"/>
</g>
<!-- Node40&#45;&gt;Node31 -->
<g id="edge16" class="edge">
<title>Node40&#45;&gt;Node31</title>
<path fill="none" stroke="#191970" d="M173.3255,-380.7C181.7887,-402.1749 202.7177,-455.3682 220,-500 236.1542,-541.7184 224.2561,-562.4768 256,-594 259.947,-597.9195 264.5943,-601.2084 269.5532,-603.966"/>
<polygon fill="#191970" stroke="#191970" points="268.2024,-607.2 278.7316,-608.3777 271.2349,-600.891 268.2024,-607.2"/>
</g>
<!-- Node40&#45;&gt;Node35 -->
<g id="edge18" class="edge">
<title>Node40&#45;&gt;Node35</title>
<path fill="none" stroke="#191970" d="M186.786,-361.3843C203.8288,-352.398 230.8943,-339.4301 256,-333 306.5888,-320.0432 365.7583,-315.5428 409.4436,-314.1422"/>
<polygon fill="#191970" stroke="#191970" points="409.739,-317.6355 419.6392,-313.8624 409.5469,-310.6381 409.739,-317.6355"/>
</g>
<!-- Node40&#45;&gt;Node39 -->
<g id="edge38" class="edge">
<title>Node40&#45;&gt;Node39</title>
<path fill="none" stroke="#191970" d="M173.5941,-361.4306C189.7368,-323.7771 248.464,-187.5575 256,-181 260.2079,-177.3385 265.0954,-174.3822 270.2584,-171.9953"/>
<polygon fill="#191970" stroke="#191970" points="271.7198,-175.1821 279.7619,-168.2846 269.1737,-168.6615 271.7198,-175.1821"/>
</g>
<!-- Node41 -->
<g id="node14" class="node">
<title>Node41</title>
<g id="a_node14"><a xlink:href="_a_e_s_8c.html#ae01a1e7833d53f19b534e37ace03a691" target="_top" xlink:title="validateCipherTextLength &#45; Function that validates the length of the ciphertext. The validation is do...">
<polygon fill="#ffffff" stroke="#000000" points="256,-456.5 256,-475.5 384,-475.5 384,-456.5 256,-456.5"/>
<text text-anchor="middle" x="320" y="-463.5" font-family="Helvetica,sans-Serif" font-size="10.00" fill="#000000">validateCipherTextLength</text>
</a>
</g>
</g>
<!-- Node40&#45;&gt;Node41 -->
<g id="edge19" class="edge">
<title>Node40&#45;&gt;Node41</title>
<path fill="none" stroke="#191970" d="M177.8333,-380.6476C192.2065,-396.703 223.2794,-428.9232 256,-447 259.9883,-449.2034 264.2609,-451.1781 268.6365,-452.9424"/>
<polygon fill="#191970" stroke="#191970" points="267.7156,-456.3322 278.3095,-456.4759 270.1175,-449.7571 267.7156,-456.3322"/>
</g>
<!-- Node42 -->
<g id="node15" class="node">
<title>Node42</title>
<g id="a_node15"><a xlink:href="_a_e_s_8c.html#a1c1a633a58f7328faa397db9e45e7e0c" target="_top" xlink:title="constructStateArray &#45; Function to convert the state array from a flat 1D array to a multidimensional ...">
<polygon fill="#ffffff" stroke="#000000" points="268,-380.5 268,-399.5 372,-399.5 372,-380.5 268,-380.5"/>
<text text-anchor="middle" x="320" y="-387.5" font-family="Helvetica,sans-Serif" font-size="10.00" fill="#000000">constructStateArray</text>
</a>
</g>
</g>
<!-- Node40&#45;&gt;Node42 -->
<g id="edge20" class="edge">
<title>Node40&#45;&gt;Node42</title>
<path fill="none" stroke="#191970" d="M205.1664,-375.5027C220.8619,-377.4842 239.7692,-379.8712 257.6708,-382.1312"/>
<polygon fill="#191970" stroke="#191970" points="257.4136,-385.6264 267.7732,-383.4066 258.2904,-378.6815 257.4136,-385.6264"/>
</g>
<!-- Node43 -->
<g id="node16" class="node">
<title>Node43</title>
<g id="a_node16"><a xlink:href="_a_e_s_8c.html#ae9af90db32afa65125a7eec339ed9d58" target="_top" xlink:title="printStateArray &#45; Function to print the state array to the terminal in hex format. ">
<polygon fill="#ffffff" stroke="#000000" points="279,-342.5 279,-361.5 361,-361.5 361,-342.5 279,-342.5"/>
<text text-anchor="middle" x="320" y="-349.5" font-family="Helvetica,sans-Serif" font-size="10.00" fill="#000000">printStateArray</text>
</a>
</g>
</g>
<!-- Node40&#45;&gt;Node43 -->
<g id="edge21" class="edge">
<title>Node40&#45;&gt;Node43</title>
<path fill="none" stroke="#191970" d="M205.1664,-366.4973C224.1402,-364.1019 247.8077,-361.114 268.7181,-358.4741"/>
<polygon fill="#191970" stroke="#191970" points="269.2462,-361.9353 278.7291,-357.2103 268.3694,-354.9905 269.2462,-361.9353"/>
</g>
<!-- Node44 -->
<g id="node17" class="node">
<title>Node44</title>
<g id="a_node17"><a xlink:href="_a_e_s_8c.html#a185c827e4ccbc8e4608e83dfbf9dfc8e" target="_top" xlink:title="RijndaelKeySchedule &#45; Function that performs the Rijndael key scheduling for AES encryption. Takes in the original key passed in as parameter. ">
<polygon fill="#ffffff" stroke="#000000" points="265,-418.5 265,-437.5 375,-437.5 375,-418.5 265,-418.5"/>
<text text-anchor="middle" x="320" y="-425.5" font-family="Helvetica,sans-Serif" font-size="10.00" fill="#000000">RijndaelKeySchedule</text>
</a>
</g>
</g>
<!-- Node40&#45;&gt;Node44 -->
<g id="edge22" class="edge">
<title>Node40&#45;&gt;Node44</title>
<path fill="none" stroke="#191970" d="M189.4815,-380.6331C206.8284,-388.7884 232.7444,-400.4779 256,-409 262.0705,-411.2246 268.5342,-413.3818 274.9314,-415.3954"/>
<polygon fill="#191970" stroke="#191970" points="274.2772,-418.8552 284.8636,-418.4304 276.3229,-412.1607 274.2772,-418.8552"/>
</g>
<!-- Node49 -->
<g id="node22" class="node">
<title>Node49</title>
<g id="a_node22"><a xlink:href="_a_e_s_8c.html#abe15a731f43315f6f595674d3cd62d57" target="_top" xlink:title="getRoundKey &#45; Function to extract the correct sub&#45;key to use for the appropriate round specified by ...">
<polygon fill="#ffffff" stroke="#000000" points="282,-266.5 282,-285.5 358,-285.5 358,-266.5 282,-266.5"/>
<text text-anchor="middle" x="320" y="-273.5" font-family="Helvetica,sans-Serif" font-size="10.00" fill="#000000">getRoundKey</text>
</a>
</g>
</g>
<!-- Node40&#45;&gt;Node49 -->
<g id="edge30" class="edge">
<title>Node40&#45;&gt;Node49</title>
<path fill="none" stroke="#191970" d="M179.0761,-361.305C194.2324,-346.4096 225.1994,-317.7596 256,-300 263.1624,-295.8702 271.1666,-292.2106 279.0239,-289.0712"/>
<polygon fill="#191970" stroke="#191970" points="280.351,-292.3114 288.4688,-285.5032 277.8772,-285.7631 280.351,-292.3114"/>
</g>
<!-- Node50 -->
<g id="node23" class="node">
<title>Node50</title>
<g id="a_node23"><a xlink:href="_a_e_s_8c.html#aef4d8fc4282e3cc21708d25c0ec9ad06" target="_top" xlink:title="AddRoundKey &#45; Function that performs the Bitwise XOR between state and key as per AES encryption...">
<polygon fill="#ffffff" stroke="#000000" points="280,-228.5 280,-247.5 360,-247.5 360,-228.5 280,-228.5"/>
<text text-anchor="middle" x="320" y="-235.5" font-family="Helvetica,sans-Serif" font-size="10.00" fill="#000000">AddRoundKey</text>
</a>
</g>
</g>
<!-- Node40&#45;&gt;Node50 -->
<g id="edge31" class="edge">
<title>Node40&#45;&gt;Node50</title>
<path fill="none" stroke="#191970" d="M174.0754,-361.4088C185.0285,-339.4842 214.9311,-285.4081 256,-257 260.4682,-253.9093 265.4459,-251.3134 270.5966,-249.1347"/>
<polygon fill="#191970" stroke="#191970" points="271.8277,-252.4112 279.9822,-245.647 269.3893,-245.8495 271.8277,-252.4112"/>
</g>
<!-- Node51 -->
<g id="node24" class="node">
<title>Node51</title>
<g id="a_node24"><a xlink:href="_a_e_s_8c.html#a903e34d08dd07be2e2d9618d4d489ee6" target="_top" xlink:title="invShiftRows &#45; Function to shift the state array Inverse according to the AES encryption standard for...">
<polygon fill="#ffffff" stroke="#000000" points="282.5,-532.5 282.5,-551.5 357.5,-551.5 357.5,-532.5 282.5,-532.5"/>
<text text-anchor="middle" x="320" y="-539.5" font-family="Helvetica,sans-Serif" font-size="10.00" fill="#000000">invShiftRows</text>
</a>
</g>
</g>
<!-- Node40&#45;&gt;Node51 -->
<g id="edge32" class="edge">
<title>Node40&#45;&gt;Node51</title>
<path fill="none" stroke="#191970" d="M172.2659,-380.8858C180.3481,-407.9308 206.5376,-483.7322 256,-523 261.004,-526.9726 266.8205,-530.1154 272.8676,-532.6015"/>
<polygon fill="#191970" stroke="#191970" points="271.8815,-535.965 282.4763,-535.9925 274.2111,-529.364 271.8815,-535.965"/>
</g>
<!-- Node53 -->
<g id="node26" class="node">
<title>Node53</title>
<g id="a_node26"><a xlink:href="_a_e_s_8c.html#a8e72edc1f652f8626aacd2781303c86b" target="_top" xlink:title="invSubBytes &#45; Function that performs the inverse of Function subBytes ">
<polygon fill="#ffffff" stroke="#000000" points="284,-494.5 284,-513.5 356,-513.5 356,-494.5 284,-494.5"/>
<text text-anchor="middle" x="320" y="-501.5" font-family="Helvetica,sans-Serif" font-size="10.00" fill="#000000">invSubBytes</text>
</a>
</g>
</g>
<!-- Node40&#45;&gt;Node53 -->
<g id="edge34" class="edge">
<title>Node40&#45;&gt;Node53</title>
<path fill="none" stroke="#191970" d="M174.0754,-380.5912C185.0285,-402.5158 214.9311,-456.5919 256,-485 261.5719,-488.8542 267.9359,-491.9388 274.4399,-494.4045"/>
<polygon fill="#191970" stroke="#191970" points="273.3995,-497.747 283.9932,-497.5915 275.6148,-491.1067 273.3995,-497.747"/>
</g>
<!-- Node55 -->
<g id="node28" class="node">
<title>Node55</title>
<g id="a_node28"><a xlink:href="_a_e_s_8c.html#a9de891875f23dd3dff8fe3f8e10ba3ad" target="_top" xlink:title="invMixColumns &#45; Function that does the inverse of the Mix Column Step for AES Encryption. Performs the gallois field multiplication and the required XOR to the state passed in as a paramter ">
<polygon fill="#ffffff" stroke="#000000" points="278,-190.5 278,-209.5 362,-209.5 362,-190.5 278,-190.5"/>
<text text-anchor="middle" x="320" y="-197.5" font-family="Helvetica,sans-Serif" font-size="10.00" fill="#000000">invMixColumns</text>
</a>
</g>
</g>
<!-- Node40&#45;&gt;Node55 -->
<g id="edge36" class="edge">
<title>Node40&#45;&gt;Node55</title>
<path fill="none" stroke="#191970" d="M172.2659,-361.1142C180.3481,-334.0692 206.5376,-258.2678 256,-219 259.7729,-216.0048 264.0076,-213.4813 268.4548,-211.3553"/>
<polygon fill="#191970" stroke="#191970" points="269.8751,-214.5559 277.8018,-207.526 267.2213,-208.0784 269.8751,-214.5559"/>
</g>
<!-- Node44&#45;&gt;Node30 -->
<g id="edge23" class="edge">
<title>Node44&#45;&gt;Node30</title>
<path fill="none" stroke="#191970" d="M370.2357,-437.5232C375.3024,-439.9949 380.0322,-443.1002 384,-447 421.8941,-484.2444 393.3644,-515.0255 420,-561 428.7919,-576.1753 442.2432,-590.6758 453.3288,-601.2537"/>
<polygon fill="#191970" stroke="#191970" points="451.1573,-604.0122 460.8823,-608.2164 455.9017,-598.8652 451.1573,-604.0122"/>
</g>
<!-- Node44&#45;&gt;Node35 -->
<g id="edge24" class="edge">
<title>Node44&#45;&gt;Node35</title>
<path fill="none" stroke="#191970" d="M363.6959,-418.4433C370.7649,-415.9495 377.7929,-412.8458 384,-409 416.6936,-388.7435 445.1205,-353.2875 460.4449,-331.8915"/>
<polygon fill="#191970" stroke="#191970" points="463.3312,-333.8713 466.1845,-323.6679 457.591,-329.865 463.3312,-333.8713"/>
</g>
<!-- Node45 -->
<g id="node18" class="node">
<title>Node45</title>
<g id="a_node18"><a xlink:href="_a_e_s_8c.html#af2f914cf17729a0ee89102c98b39665e" target="_top" xlink:title="KeyScheduleCore &#45; Function that performs the key schedule core for the Rijndael Key Schedule...">
<polygon fill="#ffffff" stroke="#000000" points="425,-399.5 425,-418.5 520,-418.5 520,-399.5 425,-399.5"/>
<text text-anchor="middle" x="472.5" y="-406.5" font-family="Helvetica,sans-Serif" font-size="10.00" fill="#000000">KeyScheduleCore</text>
</a>
</g>
</g>
<!-- Node44&#45;&gt;Node45 -->
<g id="edge25" class="edge">
<title>Node44&#45;&gt;Node45</title>
<path fill="none" stroke="#191970" d="M375.056,-421.1406C387.8467,-419.547 401.5018,-417.8457 414.4183,-416.2364"/>
<polygon fill="#191970" stroke="#191970" points="415.0975,-419.6789 424.5881,-414.9694 414.232,-412.7326 415.0975,-419.6789"/>
</g>
<!-- Node47 -->
<g id="node20" class="node">
<title>Node47</title>
<g id="a_node20"><a xlink:href="_a_e_s_8c.html#acdf4abe2846c02b4d3e674782807fdfa" target="_top" xlink:title="getSBoxValue &#45; Function to return the sBox value passed in as a parameter ">
<polygon fill="#ffffff" stroke="#000000" points="566,-437.5 566,-456.5 645,-456.5 645,-437.5 566,-437.5"/>
<text text-anchor="middle" x="605.5" y="-444.5" font-family="Helvetica,sans-Serif" font-size="10.00" fill="#000000">getSBoxValue</text>
</a>
</g>
</g>
<!-- Node44&#45;&gt;Node47 -->
<g id="edge29" class="edge">
<title>Node44&#45;&gt;Node47</title>
<path fill="none" stroke="#191970" d="M375.0473,-431.6634C427.347,-435.1439 505.2897,-440.331 555.7608,-443.6899"/>
<polygon fill="#191970" stroke="#191970" points="555.5733,-447.185 565.7837,-444.3569 556.0382,-440.2005 555.5733,-447.185"/>
</g>
<!-- Node46 -->
<g id="node19" class="node">
<title>Node46</title>
<g id="a_node19"><a xlink:href="_a_e_s_8c.html#ac769b0533ccecd203cc3ab64e6b2f950" target="_top" xlink:title="SingleRotateLeft &#45; Function to rotate the array passed in as a paramter. ">
<polygon fill="#ffffff" stroke="#000000" points="561,-399.5 561,-418.5 650,-418.5 650,-399.5 561,-399.5"/>
<text text-anchor="middle" x="605.5" y="-406.5" font-family="Helvetica,sans-Serif" font-size="10.00" fill="#000000">SingleRotateLeft</text>
</a>
</g>
</g>
<!-- Node45&#45;&gt;Node46 -->
<g id="edge26" class="edge">
<title>Node45&#45;&gt;Node46</title>
<path fill="none" stroke="#191970" d="M520.1404,-409C530.0911,-409 540.6559,-409 550.8382,-409"/>
<polygon fill="#191970" stroke="#191970" points="550.856,-412.5001 560.856,-409 550.8559,-405.5001 550.856,-412.5001"/>
</g>
<!-- Node45&#45;&gt;Node47 -->
<g id="edge27" class="edge">
<title>Node45&#45;&gt;Node47</title>
<path fill="none" stroke="#191970" d="M506.0615,-418.589C523.073,-423.4494 543.9319,-429.4091 562.1446,-434.6127"/>
<polygon fill="#191970" stroke="#191970" points="561.3724,-438.0321 571.9492,-437.4141 563.2955,-431.3014 561.3724,-438.0321"/>
</g>
<!-- Node48 -->
<g id="node21" class="node">
<title>Node48</title>
<g id="a_node21"><a xlink:href="_a_e_s_8c.html#a4e58d2e928429bc56387394251b8ece5" target="_top" xlink:title="getRconValue &#45; Function to return the Rcon value for the index passed in as a parameter ...">
<polygon fill="#ffffff" stroke="#000000" points="566.5,-361.5 566.5,-380.5 644.5,-380.5 644.5,-361.5 566.5,-361.5"/>
<text text-anchor="middle" x="605.5" y="-368.5" font-family="Helvetica,sans-Serif" font-size="10.00" fill="#000000">getRconValue</text>
</a>
</g>
</g>
<!-- Node45&#45;&gt;Node48 -->
<g id="edge28" class="edge">
<title>Node45&#45;&gt;Node48</title>
<path fill="none" stroke="#191970" d="M506.0615,-399.411C523.073,-394.5506 543.9319,-388.5909 562.1446,-383.3873"/>
<polygon fill="#191970" stroke="#191970" points="563.2955,-386.6986 571.9492,-380.5859 561.3724,-379.9679 563.2955,-386.6986"/>
</g>
<!-- Node52 -->
<g id="node25" class="node">
<title>Node52</title>
<g id="a_node25"><a xlink:href="_a_e_s_8c.html#a4fc33ada95d0d2aaea28086aefe173bb" target="_top" xlink:title="SingleRotateRight &#45; Function to rotate the array passed in as a paramter. ">
<polygon fill="#ffffff" stroke="#000000" points="424.5,-532.5 424.5,-551.5 520.5,-551.5 520.5,-532.5 424.5,-532.5"/>
<text text-anchor="middle" x="472.5" y="-539.5" font-family="Helvetica,sans-Serif" font-size="10.00" fill="#000000">SingleRotateRight</text>
</a>
</g>
</g>
<!-- Node51&#45;&gt;Node52 -->
<g id="edge33" class="edge">
<title>Node51&#45;&gt;Node52</title>
<path fill="none" stroke="#191970" d="M357.6966,-542C374.7431,-542 395.2782,-542 414.2394,-542"/>
<polygon fill="#191970" stroke="#191970" points="414.2808,-545.5001 424.2808,-542 414.2807,-538.5001 414.2808,-545.5001"/>
</g>
<!-- Node54 -->
<g id="node27" class="node">
<title>Node54</title>
<g id="a_node27"><a xlink:href="_a_e_s_8c.html#a425f9b1e2cd595f2c45f129bc5d0a6d0" target="_top" xlink:title="getInvSBox &#45; Function to return the inverse sBox value passed in as a parameter ">
<polygon fill="#ffffff" stroke="#000000" points="438.5,-494.5 438.5,-513.5 506.5,-513.5 506.5,-494.5 438.5,-494.5"/>
<text text-anchor="middle" x="472.5" y="-501.5" font-family="Helvetica,sans-Serif" font-size="10.00" fill="#000000">getInvSBox</text>
</a>
</g>
</g>
<!-- Node53&#45;&gt;Node54 -->
<g id="edge35" class="edge">
<title>Node53&#45;&gt;Node54</title>
<path fill="none" stroke="#191970" d="M356.1404,-504C377.7561,-504 405.3838,-504 428.2938,-504"/>
<polygon fill="#191970" stroke="#191970" points="428.4496,-507.5001 438.4495,-504 428.4495,-500.5001 428.4496,-507.5001"/>
</g>
<!-- Node56 -->
<g id="node29" class="node">
<title>Node56</title>
<g id="a_node29"><a xlink:href="_a_e_s_8c.html#a7dbbb13c3ab5608765b6d368eb9f4fe1" target="_top" xlink:title="galloisFieldMult &#45; Function to perform the Galois field multiplication operation required for the inv...">
<polygon fill="#ffffff" stroke="#000000" points="430.5,-190.5 430.5,-209.5 514.5,-209.5 514.5,-190.5 430.5,-190.5"/>
<text text-anchor="middle" x="472.5" y="-197.5" font-family="Helvetica,sans-Serif" font-size="10.00" fill="#000000">galloisFieldMult</text>
</a>
</g>
</g>
<!-- Node55&#45;&gt;Node56 -->
<g id="edge37" class="edge">
<title>Node55&#45;&gt;Node56</title>
<path fill="none" stroke="#191970" d="M362.075,-200C380.0022,-200 401.1073,-200 420.0383,-200"/>
<polygon fill="#191970" stroke="#191970" points="420.2979,-203.5001 430.2979,-200 420.2978,-196.5001 420.2979,-203.5001"/>
</g>
</g>
</svg>
