<?xml version="1.0" encoding="UTF-8" standalone="no"?>
<!DOCTYPE svg PUBLIC "-//W3C//DTD SVG 1.1//EN"
 "http://www.w3.org/Graphics/SVG/1.1/DTD/svg11.dtd">
<!-- Generated by graphviz version 2.40.1 (20161225.0304)
 -->
<!-- Title: getRconValue Pages: 1 -->
<svg width="704pt" height="484pt"
 viewBox="0.00 0.00 704.00 484.00" xmlns="http://www.w3.org/2000/svg" xmlns:xlink="http://www.w3.org/1999/xlink">
<g id="graph0" class="graph" transform="scale(1 1) rotate(0) translate(4 480)">
<title>getRconValue</title>
<polygon fill="#ffffff" stroke="transparent" points="-4,4 -4,-480 700,-480 700,4 -4,4"/>
<!-- Node181 -->
<g id="node1" class="node">
<title>Node181</title>
<polygon fill="#bfbfbf" stroke="#000000" points="0,-152.5 0,-171.5 78,-171.5 78,-152.5 0,-152.5"/>
<text text-anchor="middle" x="39" y="-159.5" font-family="Helvetica,sans-Serif" font-size="10.00" fill="#000000">getRconValue</text>
</g>
<!-- Node182 -->
<g id="node2" class="node">
<title>Node182</title>
<g id="a_node2"><a xlink:href="$_a_e_s_8h.html#a4d8c6f749326403dce59fae3f81cd120" xlink:title="KeyScheduleCore &#45; Function that performs the key schedule core for the Rijndael Key Schedule...">
<polygon fill="#ffffff" stroke="#000000" points="114,-152.5 114,-171.5 209,-171.5 209,-152.5 114,-152.5"/>
<text text-anchor="middle" x="161.5" y="-159.5" font-family="Helvetica,sans-Serif" font-size="10.00" fill="#000000">KeyScheduleCore</text>
</a>
</g>
</g>
<!-- Node181&#45;&gt;Node182 -->
<g id="edge1" class="edge">
<title>Node181&#45;&gt;Node182</title>
<path fill="none" stroke="#191970" d="M88.1817,-162C96.6161,-162 105.3684,-162 113.7642,-162"/>
<polygon fill="#191970" stroke="#191970" points="88.0966,-158.5001 78.0966,-162 88.0965,-165.5001 88.0966,-158.5001"/>
</g>
<!-- Node183 -->
<g id="node3" class="node">
<title>Node183</title>
<g id="a_node3"><a xlink:href="$_a_e_s_8h.html#a53bffc877a08f01e5fd9cf1e28298aab" xlink:title="RijndaelKeySchedule &#45; Function that performs the Rijndael key scheduling for AES encryption. Takes in the original key passed in as parameter. ">
<polygon fill="#ffffff" stroke="#000000" points="245,-152.5 245,-171.5 355,-171.5 355,-152.5 245,-152.5"/>
<text text-anchor="middle" x="300" y="-159.5" font-family="Helvetica,sans-Serif" font-size="10.00" fill="#000000">RijndaelKeySchedule</text>
</a>
</g>
</g>
<!-- Node182&#45;&gt;Node183 -->
<g id="edge2" class="edge">
<title>Node182&#45;&gt;Node183</title>
<path fill="none" stroke="#191970" d="M219.2547,-162C227.6498,-162 236.2769,-162 244.6236,-162"/>
<polygon fill="#191970" stroke="#191970" points="219.1639,-158.5001 209.1638,-162 219.1638,-165.5001 219.1639,-158.5001"/>
</g>
<!-- Node184 -->
<g id="node4" class="node">
<title>Node184</title>
<g id="a_node4"><a xlink:href="$_a_e_s_8h.html#a0ac21e951d3e46598708ab8fd8bc61c5" xlink:title="AESEncrypt &#45; Function to encrypt a single block of plaintext passed in as parameter &#160;plainText using ...">
<polygon fill="#ffffff" stroke="#000000" points="391,-285.5 391,-304.5 462,-304.5 462,-285.5 391,-285.5"/>
<text text-anchor="middle" x="426.5" y="-292.5" font-family="Helvetica,sans-Serif" font-size="10.00" fill="#000000">AESEncrypt</text>
</a>
</g>
</g>
<!-- Node183&#45;&gt;Node184 -->
<g id="edge3" class="edge">
<title>Node183&#45;&gt;Node184</title>
<path fill="none" stroke="#191970" d="M316.2252,-179.0589C343.0363,-207.2477 395.7484,-262.6683 417.1436,-285.1628"/>
<polygon fill="#191970" stroke="#191970" points="318.5255,-176.3988 309.0976,-171.565 313.4533,-181.2231 318.5255,-176.3988"/>
</g>
<!-- Node185 -->
<g id="node5" class="node">
<title>Node185</title>
<g id="a_node5"><a xlink:href="$aes_tester_8c.html#a0ddf1224851353fc92bfbff6f499fa97" xlink:title="main">
<polygon fill="#ffffff" stroke="#000000" points="526.5,-152.5 526.5,-171.5 564.5,-171.5 564.5,-152.5 526.5,-152.5"/>
<text text-anchor="middle" x="545.5" y="-159.5" font-family="Helvetica,sans-Serif" font-size="10.00" fill="#000000">main</text>
</a>
</g>
</g>
<!-- Node183&#45;&gt;Node185 -->
<g id="edge21" class="edge">
<title>Node183&#45;&gt;Node185</title>
<path fill="none" stroke="#191970" d="M365.2767,-162C419.2512,-162 492.3737,-162 526.496,-162"/>
<polygon fill="#191970" stroke="#191970" points="365.095,-158.5001 355.095,-162 365.095,-165.5001 365.095,-158.5001"/>
</g>
<!-- Node195 -->
<g id="node15" class="node">
<title>Node195</title>
<g id="a_node15"><a xlink:href="$_a_e_s_8h.html#aea7dd7439aa08f23e6fecd32d4055ac3" xlink:title="AESDecrypt &#45; Function to decrypt a single block of ciphertext passed in as parameter &#160;cipherText usin...">
<polygon fill="#ffffff" stroke="#000000" points="391,-95.5 391,-114.5 462,-114.5 462,-95.5 391,-95.5"/>
<text text-anchor="middle" x="426.5" y="-102.5" font-family="Helvetica,sans-Serif" font-size="10.00" fill="#000000">AESDecrypt</text>
</a>
</g>
</g>
<!-- Node183&#45;&gt;Node195 -->
<g id="edge14" class="edge">
<title>Node183&#45;&gt;Node195</title>
<path fill="none" stroke="#191970" d="M330.5317,-148.2426C353.6447,-137.8281 384.8013,-123.7892 405.2577,-114.5716"/>
<polygon fill="#191970" stroke="#191970" points="328.8526,-145.1603 321.1733,-152.4595 331.7283,-151.5423 328.8526,-145.1603"/>
</g>
<!-- Node184&#45;&gt;Node185 -->
<g id="edge4" class="edge">
<title>Node184&#45;&gt;Node185</title>
<path fill="none" stroke="#191970" d="M434.018,-275.8522C444.7263,-250.8515 466.6136,-207.1992 498,-181 506.1822,-174.1701 517.1306,-169.5684 526.454,-166.6067"/>
<polygon fill="#191970" stroke="#191970" points="430.6907,-274.7403 430.118,-285.3197 437.1631,-277.4066 430.6907,-274.7403"/>
</g>
<!-- Node186 -->
<g id="node6" class="node">
<title>Node186</title>
<g id="a_node6"><a xlink:href="$cbc_8h.html#ad055b3ad2664ace8ba1ab68a481dc1b3" xlink:title="cbcEncryptFile &#45; Function to encrypt the file with name ">
<polygon fill="#ffffff" stroke="#000000" points="504.5,-304.5 504.5,-323.5 586.5,-323.5 586.5,-304.5 504.5,-304.5"/>
<text text-anchor="middle" x="545.5" y="-311.5" font-family="Helvetica,sans-Serif" font-size="10.00" fill="#000000">cbcEncryptFile</text>
</a>
</g>
</g>
<!-- Node184&#45;&gt;Node186 -->
<g id="edge5" class="edge">
<title>Node184&#45;&gt;Node186</title>
<path fill="none" stroke="#191970" d="M472.1395,-302.287C482.7511,-303.9813 493.9854,-305.775 504.3881,-307.4359"/>
<polygon fill="#191970" stroke="#191970" points="472.6307,-298.8212 462.2039,-300.7006 471.527,-305.7336 472.6307,-298.8212"/>
</g>
<!-- Node187 -->
<g id="node7" class="node">
<title>Node187</title>
<g id="a_node7"><a xlink:href="$cbc_8h.html#a90f1f37609cf336c57cd0300282c1dac" xlink:title="cbcEncrypt &#45; Function to encrypt the user input pointed to by ">
<polygon fill="#ffffff" stroke="#000000" points="512.5,-266.5 512.5,-285.5 578.5,-285.5 578.5,-266.5 512.5,-266.5"/>
<text text-anchor="middle" x="545.5" y="-273.5" font-family="Helvetica,sans-Serif" font-size="10.00" fill="#000000">cbcEncrypt</text>
</a>
</g>
</g>
<!-- Node184&#45;&gt;Node187 -->
<g id="edge6" class="edge">
<title>Node184&#45;&gt;Node187</title>
<path fill="none" stroke="#191970" d="M472.17,-287.7082C485.5157,-285.5773 499.8441,-283.2896 512.2629,-281.3068"/>
<polygon fill="#191970" stroke="#191970" points="471.527,-284.2664 462.2039,-289.2994 472.6307,-291.1788 471.527,-284.2664"/>
</g>
<!-- Node188 -->
<g id="node8" class="node">
<title>Node188</title>
<g id="a_node8"><a xlink:href="$cfb_8h.html#a9384de325e389ba7809b7ee98320f485" xlink:title="cfbEncryptFile &#45; Function to encrypt the file with name ">
<polygon fill="#ffffff" stroke="#000000" points="505.5,-228.5 505.5,-247.5 585.5,-247.5 585.5,-228.5 505.5,-228.5"/>
<text text-anchor="middle" x="545.5" y="-235.5" font-family="Helvetica,sans-Serif" font-size="10.00" fill="#000000">cfbEncryptFile</text>
</a>
</g>
</g>
<!-- Node184&#45;&gt;Node188 -->
<g id="edge7" class="edge">
<title>Node184&#45;&gt;Node188</title>
<path fill="none" stroke="#191970" d="M452.4068,-280.3623C465.8364,-272.9977 482.6089,-264.1428 498,-257 505.0897,-253.7098 512.918,-250.4365 520.1394,-247.5572"/>
<polygon fill="#191970" stroke="#191970" points="450.337,-277.5077 443.2862,-285.4157 453.7296,-283.6307 450.337,-277.5077"/>
</g>
<!-- Node189 -->
<g id="node9" class="node">
<title>Node189</title>
<g id="a_node9"><a xlink:href="$cfb_8h.html#a6dce0b90ab3948c3df032eb61c2a64ea" xlink:title="cfbDecryptFile &#45; Function to decrypt the file with name ">
<polygon fill="#ffffff" stroke="#000000" points="505.5,-190.5 505.5,-209.5 585.5,-209.5 585.5,-190.5 505.5,-190.5"/>
<text text-anchor="middle" x="545.5" y="-197.5" font-family="Helvetica,sans-Serif" font-size="10.00" fill="#000000">cfbDecryptFile</text>
</a>
</g>
</g>
<!-- Node184&#45;&gt;Node189 -->
<g id="edge8" class="edge">
<title>Node184&#45;&gt;Node189</title>
<path fill="none" stroke="#191970" d="M439.416,-277.3266C452.548,-260.4157 474.289,-235.1591 498,-219 503.4312,-215.2986 509.6914,-212.1495 515.8476,-209.5427"/>
<polygon fill="#191970" stroke="#191970" points="436.6127,-275.2308 433.3687,-285.3168 442.1944,-279.4552 436.6127,-275.2308"/>
</g>
<!-- Node190 -->
<g id="node10" class="node">
<title>Node190</title>
<g id="a_node10"><a xlink:href="$cfb_8h.html#a826aec09cb2af95cb8781d2b4c211182" xlink:title="cfbEncrypt &#45; Function to encrypt the user input pointed to by ">
<polygon fill="#ffffff" stroke="#000000" points="513.5,-456.5 513.5,-475.5 577.5,-475.5 577.5,-456.5 513.5,-456.5"/>
<text text-anchor="middle" x="545.5" y="-463.5" font-family="Helvetica,sans-Serif" font-size="10.00" fill="#000000">cfbEncrypt</text>
</a>
</g>
</g>
<!-- Node184&#45;&gt;Node190 -->
<g id="edge9" class="edge">
<title>Node184&#45;&gt;Node190</title>
<path fill="none" stroke="#191970" d="M430.7522,-314.5021C438.6554,-346.3718 458.5135,-409.7837 498,-447 502.3951,-451.1424 507.8068,-454.4248 513.3848,-457.0117"/>
<polygon fill="#191970" stroke="#191970" points="434.1306,-313.578 428.4428,-304.6394 427.315,-315.174 434.1306,-313.578"/>
</g>
<!-- Node191 -->
<g id="node11" class="node">
<title>Node191</title>
<g id="a_node11"><a xlink:href="$cfb_8h.html#ad6a75d43203e367b8a83f6b7c7f506c6" xlink:title="cfbDecrypt &#45; Function to decrypt the user input pointed to by ">
<polygon fill="#ffffff" stroke="#000000" points="513,-418.5 513,-437.5 578,-437.5 578,-418.5 513,-418.5"/>
<text text-anchor="middle" x="545.5" y="-425.5" font-family="Helvetica,sans-Serif" font-size="10.00" fill="#000000">cfbDecrypt</text>
</a>
</g>
</g>
<!-- Node184&#45;&gt;Node191 -->
<g id="edge10" class="edge">
<title>Node184&#45;&gt;Node191</title>
<path fill="none" stroke="#191970" d="M434.018,-314.1478C444.7263,-339.1485 466.6136,-382.8008 498,-409 502.5002,-412.7565 507.8372,-415.8389 513.2804,-418.3451"/>
<polygon fill="#191970" stroke="#191970" points="437.1631,-312.5934 430.118,-304.6803 430.6907,-315.2597 437.1631,-312.5934"/>
</g>
<!-- Node192 -->
<g id="node12" class="node">
<title>Node192</title>
<g id="a_node12"><a xlink:href="$ecb_8h.html#a50ddfe369298c1293b5c57662f569127" xlink:title="ecbEcryptHelper &#45; Helper function used to encrypt the plaintext pointed to by ">
<polygon fill="#ffffff" stroke="#000000" points="501,-380.5 501,-399.5 590,-399.5 590,-380.5 501,-380.5"/>
<text text-anchor="middle" x="545.5" y="-387.5" font-family="Helvetica,sans-Serif" font-size="10.00" fill="#000000">ecbEcryptHelper</text>
</a>
</g>
</g>
<!-- Node184&#45;&gt;Node192 -->
<g id="edge11" class="edge">
<title>Node184&#45;&gt;Node192</title>
<path fill="none" stroke="#191970" d="M439.416,-312.6734C452.548,-329.5843 474.289,-354.8409 498,-371 503.4312,-374.7014 509.6914,-377.8505 515.8476,-380.4573"/>
<polygon fill="#191970" stroke="#191970" points="442.1944,-310.5448 433.3687,-304.6832 436.6127,-314.7692 442.1944,-310.5448"/>
</g>
<!-- Node194 -->
<g id="node14" class="node">
<title>Node194</title>
<g id="a_node14"><a xlink:href="$ecb_8h.html#ab68902caeba7880cf1be8b40e8bb9a50" xlink:title="ecbEncryptFile &#45; Function to encrypt the file with name ">
<polygon fill="#ffffff" stroke="#000000" points="504.5,-342.5 504.5,-361.5 586.5,-361.5 586.5,-342.5 504.5,-342.5"/>
<text text-anchor="middle" x="545.5" y="-349.5" font-family="Helvetica,sans-Serif" font-size="10.00" fill="#000000">ecbEncryptFile</text>
</a>
</g>
</g>
<!-- Node184&#45;&gt;Node194 -->
<g id="edge13" class="edge">
<title>Node184&#45;&gt;Node194</title>
<path fill="none" stroke="#191970" d="M452.4068,-309.6377C465.8364,-317.0023 482.6089,-325.8572 498,-333 505.0897,-336.2902 512.918,-339.5635 520.1394,-342.4428"/>
<polygon fill="#191970" stroke="#191970" points="453.7296,-306.3693 443.2862,-304.5843 450.337,-312.4923 453.7296,-306.3693"/>
</g>
<!-- Node193 -->
<g id="node13" class="node">
<title>Node193</title>
<g id="a_node13"><a xlink:href="$ecb_8h.html#aa451eb4920a712afa521f06831277731" xlink:title="ecbEncrypt &#45; Function to encrypt the user input pointed to by ">
<polygon fill="#ffffff" stroke="#000000" points="629.5,-380.5 629.5,-399.5 695.5,-399.5 695.5,-380.5 629.5,-380.5"/>
<text text-anchor="middle" x="662.5" y="-387.5" font-family="Helvetica,sans-Serif" font-size="10.00" fill="#000000">ecbEncrypt</text>
</a>
</g>
</g>
<!-- Node192&#45;&gt;Node193 -->
<g id="edge12" class="edge">
<title>Node192&#45;&gt;Node193</title>
<path fill="none" stroke="#191970" d="M600.3035,-390C610.2224,-390 620.2836,-390 629.3404,-390"/>
<polygon fill="#191970" stroke="#191970" points="600.0665,-386.5001 590.0664,-390 600.0664,-393.5001 600.0665,-386.5001"/>
</g>
<!-- Node195&#45;&gt;Node185 -->
<g id="edge15" class="edge">
<title>Node195&#45;&gt;Node185</title>
<path fill="none" stroke="#191970" d="M452.4068,-119.6377C465.8364,-127.0023 482.6089,-135.8572 498,-143 507.1844,-147.2623 517.6083,-151.4963 526.3466,-154.8819"/>
<polygon fill="#191970" stroke="#191970" points="453.7296,-116.3693 443.2862,-114.5843 450.337,-122.4923 453.7296,-116.3693"/>
</g>
<!-- Node196 -->
<g id="node16" class="node">
<title>Node196</title>
<g id="a_node16"><a xlink:href="$cbc_8h.html#a9375da4cc24b1bedceb0364f2865bcc3" xlink:title="cbcDecryptFile &#45; Function to decrypt the file with name ">
<polygon fill="#ffffff" stroke="#000000" points="504,-76.5 504,-95.5 587,-95.5 587,-76.5 504,-76.5"/>
<text text-anchor="middle" x="545.5" y="-83.5" font-family="Helvetica,sans-Serif" font-size="10.00" fill="#000000">cbcDecryptFile</text>
</a>
</g>
</g>
<!-- Node195&#45;&gt;Node196 -->
<g id="edge16" class="edge">
<title>Node195&#45;&gt;Node196</title>
<path fill="none" stroke="#191970" d="M472.3596,-97.6779C482.7618,-96.017 493.7519,-94.2623 503.9631,-92.6319"/>
<polygon fill="#191970" stroke="#191970" points="471.527,-94.2664 462.2039,-99.2994 472.6307,-101.1788 471.527,-94.2664"/>
</g>
<!-- Node197 -->
<g id="node17" class="node">
<title>Node197</title>
<g id="a_node17"><a xlink:href="$cbc_8h.html#a95fbad6d45d4b793610fe663939b5f8c" xlink:title="cbcDecrypt &#45; Function to decrypt the user input pointed to by ">
<polygon fill="#ffffff" stroke="#000000" points="512,-38.5 512,-57.5 579,-57.5 579,-38.5 512,-38.5"/>
<text text-anchor="middle" x="545.5" y="-45.5" font-family="Helvetica,sans-Serif" font-size="10.00" fill="#000000">cbcDecrypt</text>
</a>
</g>
</g>
<!-- Node195&#45;&gt;Node197 -->
<g id="edge17" class="edge">
<title>Node195&#45;&gt;Node197</title>
<path fill="none" stroke="#191970" d="M452.4068,-90.3623C465.8364,-82.9977 482.6089,-74.1428 498,-67 505.0897,-63.7098 512.918,-60.4365 520.1394,-57.5572"/>
<polygon fill="#191970" stroke="#191970" points="450.337,-87.5077 443.2862,-95.4157 453.7296,-93.6307 450.337,-87.5077"/>
</g>
<!-- Node198 -->
<g id="node18" class="node">
<title>Node198</title>
<g id="a_node18"><a xlink:href="$ecb_8h.html#a9661ce321dd2649926ebadd2ab9dcd20" xlink:title="ecbDecryptHelper &#45; Helper function used to decrypt the ciphertext pointed to by ">
<polygon fill="#ffffff" stroke="#000000" points="498,-.5 498,-19.5 593,-19.5 593,-.5 498,-.5"/>
<text text-anchor="middle" x="545.5" y="-7.5" font-family="Helvetica,sans-Serif" font-size="10.00" fill="#000000">ecbDecryptHelper</text>
</a>
</g>
</g>
<!-- Node195&#45;&gt;Node198 -->
<g id="edge18" class="edge">
<title>Node195&#45;&gt;Node198</title>
<path fill="none" stroke="#191970" d="M439.416,-87.3266C452.548,-70.4157 474.289,-45.1591 498,-29 503.4312,-25.2986 509.6914,-22.1495 515.8476,-19.5427"/>
<polygon fill="#191970" stroke="#191970" points="436.6127,-85.2308 433.3687,-95.3168 442.1944,-89.4552 436.6127,-85.2308"/>
</g>
<!-- Node200 -->
<g id="node20" class="node">
<title>Node200</title>
<g id="a_node20"><a xlink:href="$ecb_8h.html#ab4c77adefd8655ebd7bc79524f958013" xlink:title="ecbDecryptFile &#45; Function to encrypt the file with name ">
<polygon fill="#ffffff" stroke="#000000" points="504,-114.5 504,-133.5 587,-133.5 587,-114.5 504,-114.5"/>
<text text-anchor="middle" x="545.5" y="-121.5" font-family="Helvetica,sans-Serif" font-size="10.00" fill="#000000">ecbDecryptFile</text>
</a>
</g>
</g>
<!-- Node195&#45;&gt;Node200 -->
<g id="edge20" class="edge">
<title>Node195&#45;&gt;Node200</title>
<path fill="none" stroke="#191970" d="M472.3596,-112.3221C482.7618,-113.983 493.7519,-115.7377 503.9631,-117.3681"/>
<polygon fill="#191970" stroke="#191970" points="472.6307,-108.8212 462.2039,-110.7006 471.527,-115.7336 472.6307,-108.8212"/>
</g>
<!-- Node199 -->
<g id="node19" class="node">
<title>Node199</title>
<g id="a_node19"><a xlink:href="$ecb_8h.html#acd982a867b70e4f75f2232c974a1e4ae" xlink:title="ecbDecrypt &#45; Function to decrypt the user input pointed to by ">
<polygon fill="#ffffff" stroke="#000000" points="629,-.5 629,-19.5 696,-19.5 696,-.5 629,-.5"/>
<text text-anchor="middle" x="662.5" y="-7.5" font-family="Helvetica,sans-Serif" font-size="10.00" fill="#000000">ecbDecrypt</text>
</a>
</g>
</g>
<!-- Node198&#45;&gt;Node199 -->
<g id="edge19" class="edge">
<title>Node198&#45;&gt;Node199</title>
<path fill="none" stroke="#191970" d="M603.3346,-10C612.1109,-10 620.9073,-10 628.9333,-10"/>
<polygon fill="#191970" stroke="#191970" points="603.0884,-6.5001 593.0884,-10 603.0883,-13.5001 603.0884,-6.5001"/>
</g>
</g>
</svg>
