<?xml version="1.0" encoding="UTF-8" standalone="no"?>
<!DOCTYPE svg PUBLIC "-//W3C//DTD SVG 1.1//EN"
 "http://www.w3.org/Graphics/SVG/1.1/DTD/svg11.dtd">
<!-- Generated by graphviz version 2.40.1 (20161225.0304)
 -->
<!-- Title: RijndaelKeySchedule Pages: 1 -->
<svg width="384pt" height="142pt"
 viewBox="0.00 0.00 384.00 142.00" xmlns="http://www.w3.org/2000/svg" xmlns:xlink="http://www.w3.org/1999/xlink">
<g id="graph0" class="graph" transform="scale(1 1) rotate(0) translate(4 138)">
<title>RijndaelKeySchedule</title>
<polygon fill="#ffffff" stroke="transparent" points="-4,4 -4,-138 380,-138 380,4 -4,4"/>
<!-- Node440 -->
<g id="node1" class="node">
<title>Node440</title>
<polygon fill="#bfbfbf" stroke="#000000" points="0,-57.5 0,-76.5 110,-76.5 110,-57.5 0,-57.5"/>
<text text-anchor="middle" x="55" y="-64.5" font-family="Helvetica,sans-Serif" font-size="10.00" fill="#000000">RijndaelKeySchedule</text>
</g>
<!-- Node441 -->
<g id="node2" class="node">
<title>Node441</title>
<g id="a_node2"><a xlink:href="$_a_e_s_8c.html#a1c2a403d95a85400bbae142d48cb8c9d" xlink:title="getNumRounds &#45; Function to return the number of rounds of AES encryption and decryption based off of ...">
<polygon fill="#ffffff" stroke="#000000" points="156,-114.5 156,-133.5 241,-133.5 241,-114.5 156,-114.5"/>
<text text-anchor="middle" x="198.5" y="-121.5" font-family="Helvetica,sans-Serif" font-size="10.00" fill="#000000">getNumRounds</text>
</a>
</g>
</g>
<!-- Node440&#45;&gt;Node441 -->
<g id="edge1" class="edge">
<title>Node440&#45;&gt;Node441</title>
<path fill="none" stroke="#191970" d="M76.9452,-76.514C95.3021,-84.3878 122.2294,-95.7418 146,-105 151.1371,-107.0008 156.5829,-109.0504 161.9467,-111.0283"/>
<polygon fill="#191970" stroke="#191970" points="160.8346,-114.3482 171.4286,-114.4852 163.2324,-107.7716 160.8346,-114.3482"/>
</g>
<!-- Node442 -->
<g id="node3" class="node">
<title>Node442</title>
<g id="a_node3"><a xlink:href="$_a_e_s_8c.html#a0e0b199ded54d7fb53a3bda3fcc02256" xlink:title="validateNumRounds &#45; Function that validates the number of rounds that have been passed in by the ...">
<polygon fill="#ffffff" stroke="#000000" points="146,-76.5 146,-95.5 251,-95.5 251,-76.5 146,-76.5"/>
<text text-anchor="middle" x="198.5" y="-83.5" font-family="Helvetica,sans-Serif" font-size="10.00" fill="#000000">validateNumRounds</text>
</a>
</g>
</g>
<!-- Node440&#45;&gt;Node442 -->
<g id="edge2" class="edge">
<title>Node440&#45;&gt;Node442</title>
<path fill="none" stroke="#191970" d="M110.0704,-74.2916C118.4782,-75.4048 127.2094,-76.5608 135.7668,-77.6939"/>
<polygon fill="#191970" stroke="#191970" points="135.3298,-81.1665 145.7027,-79.0094 136.2486,-74.227 135.3298,-81.1665"/>
</g>
<!-- Node443 -->
<g id="node4" class="node">
<title>Node443</title>
<g id="a_node4"><a xlink:href="$_a_e_s_8c.html#af2f914cf17729a0ee89102c98b39665e" xlink:title="KeyScheduleCore &#45; Function that performs the key schedule core for the Rijndael Key Schedule...">
<polygon fill="#ffffff" stroke="#000000" points="151,-38.5 151,-57.5 246,-57.5 246,-38.5 151,-38.5"/>
<text text-anchor="middle" x="198.5" y="-45.5" font-family="Helvetica,sans-Serif" font-size="10.00" fill="#000000">KeyScheduleCore</text>
</a>
</g>
</g>
<!-- Node440&#45;&gt;Node443 -->
<g id="edge3" class="edge">
<title>Node440&#45;&gt;Node443</title>
<path fill="none" stroke="#191970" d="M110.0704,-59.7084C120.1479,-58.3741 130.69,-56.9783 140.8405,-55.6344"/>
<polygon fill="#191970" stroke="#191970" points="141.3747,-59.0943 150.8287,-54.3119 140.4558,-52.1548 141.3747,-59.0943"/>
</g>
<!-- Node445 -->
<g id="node6" class="node">
<title>Node445</title>
<g id="a_node6"><a xlink:href="$_a_e_s_8c.html#acdf4abe2846c02b4d3e674782807fdfa" xlink:title="getSBoxValue &#45; Function to return the sBox value passed in as a parameter ">
<polygon fill="#ffffff" stroke="#000000" points="292,-.5 292,-19.5 371,-19.5 371,-.5 292,-.5"/>
<text text-anchor="middle" x="331.5" y="-7.5" font-family="Helvetica,sans-Serif" font-size="10.00" fill="#000000">getSBoxValue</text>
</a>
</g>
</g>
<!-- Node440&#45;&gt;Node445 -->
<g id="edge7" class="edge">
<title>Node440&#45;&gt;Node445</title>
<path fill="none" stroke="#191970" d="M73.2706,-57.486C91.2633,-48.5752 119.7823,-35.6615 146,-29 191.0275,-17.5591 243.8651,-12.9746 281.6066,-11.1546"/>
<polygon fill="#191970" stroke="#191970" points="281.9933,-14.6412 291.8323,-10.7111 281.69,-7.6478 281.9933,-14.6412"/>
</g>
<!-- Node444 -->
<g id="node5" class="node">
<title>Node444</title>
<g id="a_node5"><a xlink:href="$_a_e_s_8c.html#ac769b0533ccecd203cc3ab64e6b2f950" xlink:title="SingleRotateLeft &#45; Function to rotate the array passed in as a paramter. ">
<polygon fill="#ffffff" stroke="#000000" points="287,-76.5 287,-95.5 376,-95.5 376,-76.5 287,-76.5"/>
<text text-anchor="middle" x="331.5" y="-83.5" font-family="Helvetica,sans-Serif" font-size="10.00" fill="#000000">SingleRotateLeft</text>
</a>
</g>
</g>
<!-- Node443&#45;&gt;Node444 -->
<g id="edge4" class="edge">
<title>Node443&#45;&gt;Node444</title>
<path fill="none" stroke="#191970" d="M232.0615,-57.589C249.073,-62.4494 269.9319,-68.4091 288.1446,-73.6127"/>
<polygon fill="#191970" stroke="#191970" points="287.3724,-77.0321 297.9492,-76.4141 289.2955,-70.3014 287.3724,-77.0321"/>
</g>
<!-- Node443&#45;&gt;Node445 -->
<g id="edge5" class="edge">
<title>Node443&#45;&gt;Node445</title>
<path fill="none" stroke="#191970" d="M232.0615,-38.411C249.073,-33.5506 269.9319,-27.5909 288.1446,-22.3873"/>
<polygon fill="#191970" stroke="#191970" points="289.2955,-25.6986 297.9492,-19.5859 287.3724,-18.9679 289.2955,-25.6986"/>
</g>
<!-- Node446 -->
<g id="node7" class="node">
<title>Node446</title>
<g id="a_node7"><a xlink:href="$_a_e_s_8c.html#a4e58d2e928429bc56387394251b8ece5" xlink:title="getRconValue &#45; Function to return the Rcon value for the index passed in as a parameter ...">
<polygon fill="#ffffff" stroke="#000000" points="292.5,-38.5 292.5,-57.5 370.5,-57.5 370.5,-38.5 292.5,-38.5"/>
<text text-anchor="middle" x="331.5" y="-45.5" font-family="Helvetica,sans-Serif" font-size="10.00" fill="#000000">getRconValue</text>
</a>
</g>
</g>
<!-- Node443&#45;&gt;Node446 -->
<g id="edge6" class="edge">
<title>Node443&#45;&gt;Node446</title>
<path fill="none" stroke="#191970" d="M246.1404,-48C257.7856,-48 270.272,-48 282.0019,-48"/>
<polygon fill="#191970" stroke="#191970" points="282.0751,-51.5001 292.0751,-48 282.0751,-44.5001 282.0751,-51.5001"/>
</g>
</g>
</svg>
