<?xml version="1.0" encoding="UTF-8" standalone="no"?>
<!DOCTYPE svg PUBLIC "-//W3C//DTD SVG 1.1//EN"
 "http://www.w3.org/Graphics/SVG/1.1/DTD/svg11.dtd">
<!-- Generated by graphviz version 2.40.1 (20161225.0304)
 -->
<!-- Title: KeyScheduleCore Pages: 1 -->
<svg width="228pt" height="104pt"
 viewBox="0.00 0.00 228.00 104.00" xmlns="http://www.w3.org/2000/svg" xmlns:xlink="http://www.w3.org/1999/xlink">
<g id="graph0" class="graph" transform="scale(1 1) rotate(0) translate(4 100)">
<title>KeyScheduleCore</title>
<polygon fill="#ffffff" stroke="transparent" points="-4,4 -4,-100 224,-100 224,4 -4,4"/>
<!-- Node366 -->
<g id="node1" class="node">
<title>Node366</title>
<polygon fill="#bfbfbf" stroke="#000000" points="0,-38.5 0,-57.5 95,-57.5 95,-38.5 0,-38.5"/>
<text text-anchor="middle" x="47.5" y="-45.5" font-family="Helvetica,sans-Serif" font-size="10.00" fill="#000000">KeyScheduleCore</text>
</g>
<!-- Node367 -->
<g id="node2" class="node">
<title>Node367</title>
<g id="a_node2"><a xlink:href="$_a_e_s_8c.html#ac769b0533ccecd203cc3ab64e6b2f950" xlink:title="SingleRotateLeft &#45; Function to rotate the array passed in as a paramter. ">
<polygon fill="#ffffff" stroke="#000000" points="131,-76.5 131,-95.5 220,-95.5 220,-76.5 131,-76.5"/>
<text text-anchor="middle" x="175.5" y="-83.5" font-family="Helvetica,sans-Serif" font-size="10.00" fill="#000000">SingleRotateLeft</text>
</a>
</g>
</g>
<!-- Node366&#45;&gt;Node367 -->
<g id="edge1" class="edge">
<title>Node366&#45;&gt;Node367</title>
<path fill="none" stroke="#191970" d="M79.7998,-57.589C96.0202,-62.4044 115.8751,-68.2988 133.2869,-73.468"/>
<polygon fill="#191970" stroke="#191970" points="132.6279,-76.9233 143.2105,-76.4141 134.6202,-70.2127 132.6279,-76.9233"/>
</g>
<!-- Node368 -->
<g id="node3" class="node">
<title>Node368</title>
<g id="a_node3"><a xlink:href="$_a_e_s_8c.html#acdf4abe2846c02b4d3e674782807fdfa" xlink:title="getSBoxValue &#45; Function to return the sBox value passed in as a parameter ">
<polygon fill="#ffffff" stroke="#000000" points="136,-38.5 136,-57.5 215,-57.5 215,-38.5 136,-38.5"/>
<text text-anchor="middle" x="175.5" y="-45.5" font-family="Helvetica,sans-Serif" font-size="10.00" fill="#000000">getSBoxValue</text>
</a>
</g>
</g>
<!-- Node366&#45;&gt;Node368 -->
<g id="edge2" class="edge">
<title>Node366&#45;&gt;Node368</title>
<path fill="none" stroke="#191970" d="M95.1625,-48C105.0802,-48 115.5588,-48 125.5561,-48"/>
<polygon fill="#191970" stroke="#191970" points="125.7564,-51.5001 135.7563,-48 125.7563,-44.5001 125.7564,-51.5001"/>
</g>
<!-- Node369 -->
<g id="node4" class="node">
<title>Node369</title>
<g id="a_node4"><a xlink:href="$_a_e_s_8c.html#a4e58d2e928429bc56387394251b8ece5" xlink:title="getRconValue &#45; Function to return the Rcon value for the index passed in as a parameter ...">
<polygon fill="#ffffff" stroke="#000000" points="136.5,-.5 136.5,-19.5 214.5,-19.5 214.5,-.5 136.5,-.5"/>
<text text-anchor="middle" x="175.5" y="-7.5" font-family="Helvetica,sans-Serif" font-size="10.00" fill="#000000">getRconValue</text>
</a>
</g>
</g>
<!-- Node366&#45;&gt;Node369 -->
<g id="edge3" class="edge">
<title>Node366&#45;&gt;Node369</title>
<path fill="none" stroke="#191970" d="M79.7998,-38.411C96.0202,-33.5956 115.8751,-27.7012 133.2869,-22.532"/>
<polygon fill="#191970" stroke="#191970" points="134.6202,-25.7873 143.2105,-19.5859 132.6279,-19.0767 134.6202,-25.7873"/>
</g>
</g>
</svg>
