<?xml version="1.0" encoding="UTF-8" standalone="no"?>
<!DOCTYPE svg PUBLIC "-//W3C//DTD SVG 1.1//EN"
 "http://www.w3.org/Graphics/SVG/1.1/DTD/svg11.dtd">
<!-- Generated by graphviz version 2.40.1 (20161225.0304)
 -->
<!-- Title: SingleRotateRight Pages: 1 -->
<svg width="556pt" height="180pt"
 viewBox="0.00 0.00 556.00 180.00" xmlns="http://www.w3.org/2000/svg" xmlns:xlink="http://www.w3.org/1999/xlink">
<g id="graph0" class="graph" transform="scale(1 1) rotate(0) translate(4 176)">
<title>SingleRotateRight</title>
<polygon fill="#ffffff" stroke="transparent" points="-4,4 -4,-176 552,-176 552,4 -4,4"/>
<!-- Node502 -->
<g id="node1" class="node">
<title>Node502</title>
<polygon fill="#bfbfbf" stroke="#000000" points="0,-113.5 0,-132.5 96,-132.5 96,-113.5 0,-113.5"/>
<text text-anchor="middle" x="48" y="-120.5" font-family="Helvetica,sans-Serif" font-size="10.00" fill="#000000">SingleRotateRight</text>
</g>
<!-- Node503 -->
<g id="node2" class="node">
<title>Node503</title>
<g id="a_node2"><a xlink:href="$_a_e_s_8h.html#a0b8bd9c3f028f65310f63598410d816b" xlink:title="invShiftRows &#45; Function to shift the state array Inverse according to the AES encryption standard for...">
<polygon fill="#ffffff" stroke="#000000" points="132,-113.5 132,-132.5 207,-132.5 207,-113.5 132,-113.5"/>
<text text-anchor="middle" x="169.5" y="-120.5" font-family="Helvetica,sans-Serif" font-size="10.00" fill="#000000">invShiftRows</text>
</a>
</g>
</g>
<!-- Node502&#45;&gt;Node503 -->
<g id="edge1" class="edge">
<title>Node502&#45;&gt;Node503</title>
<path fill="none" stroke="#191970" d="M106.2134,-123C114.9613,-123 123.7794,-123 131.9406,-123"/>
<polygon fill="#191970" stroke="#191970" points="106.0201,-119.5001 96.02,-123 106.02,-126.5001 106.0201,-119.5001"/>
</g>
<!-- Node504 -->
<g id="node3" class="node">
<title>Node504</title>
<g id="a_node3"><a xlink:href="$_a_e_s_8h.html#aea7dd7439aa08f23e6fecd32d4055ac3" xlink:title="AESDecrypt &#45; Function to decrypt a single block of ciphertext passed in as parameter &#160;cipherText usin...">
<polygon fill="#ffffff" stroke="#000000" points="243,-85.5 243,-104.5 314,-104.5 314,-85.5 243,-85.5"/>
<text text-anchor="middle" x="278.5" y="-92.5" font-family="Helvetica,sans-Serif" font-size="10.00" fill="#000000">AESDecrypt</text>
</a>
</g>
</g>
<!-- Node503&#45;&gt;Node504 -->
<g id="edge2" class="edge">
<title>Node503&#45;&gt;Node504</title>
<path fill="none" stroke="#191970" d="M216.5349,-110.9176C225.3858,-108.644 234.5044,-106.3016 242.9331,-104.1365"/>
<polygon fill="#191970" stroke="#191970" points="215.5215,-107.5643 206.7068,-113.4423 217.2631,-114.3441 215.5215,-107.5643"/>
</g>
<!-- Node505 -->
<g id="node4" class="node">
<title>Node505</title>
<g id="a_node4"><a xlink:href="$aes_tester_8c.html#a0ddf1224851353fc92bfbff6f499fa97" xlink:title="main">
<polygon fill="#ffffff" stroke="#000000" points="378.5,-152.5 378.5,-171.5 416.5,-171.5 416.5,-152.5 378.5,-152.5"/>
<text text-anchor="middle" x="397.5" y="-159.5" font-family="Helvetica,sans-Serif" font-size="10.00" fill="#000000">main</text>
</a>
</g>
</g>
<!-- Node503&#45;&gt;Node505 -->
<g id="edge9" class="edge">
<title>Node503&#45;&gt;Node505</title>
<path fill="none" stroke="#191970" d="M217.0788,-131.1385C267.026,-139.6821 343.0959,-152.694 378.34,-158.7226"/>
<polygon fill="#191970" stroke="#191970" points="217.5965,-127.6763 207.1496,-129.4401 216.4163,-134.5761 217.5965,-127.6763"/>
</g>
<!-- Node504&#45;&gt;Node505 -->
<g id="edge3" class="edge">
<title>Node504&#45;&gt;Node505</title>
<path fill="none" stroke="#191970" d="M299.25,-110.638C313.1461,-120.6749 332.1055,-133.5501 350,-143 358.9535,-147.7282 369.3521,-152.0131 378.1334,-155.3119"/>
<polygon fill="#191970" stroke="#191970" points="301.0439,-107.613 290.9116,-104.5167 296.9015,-113.2558 301.0439,-107.613"/>
</g>
<!-- Node506 -->
<g id="node5" class="node">
<title>Node506</title>
<g id="a_node5"><a xlink:href="$cbc_8h.html#a9375da4cc24b1bedceb0364f2865bcc3" xlink:title="cbcDecryptFile &#45; Function to decrypt the file with name ">
<polygon fill="#ffffff" stroke="#000000" points="356,-114.5 356,-133.5 439,-133.5 439,-114.5 356,-114.5"/>
<text text-anchor="middle" x="397.5" y="-121.5" font-family="Helvetica,sans-Serif" font-size="10.00" fill="#000000">cbcDecryptFile</text>
</a>
</g>
</g>
<!-- Node504&#45;&gt;Node506 -->
<g id="edge4" class="edge">
<title>Node504&#45;&gt;Node506</title>
<path fill="none" stroke="#191970" d="M323.9738,-106.0819C335.3554,-108.8555 347.4631,-111.8061 358.4989,-114.4955"/>
<polygon fill="#191970" stroke="#191970" points="324.7483,-102.6682 314.2039,-103.701 323.0909,-109.4692 324.7483,-102.6682"/>
</g>
<!-- Node507 -->
<g id="node6" class="node">
<title>Node507</title>
<g id="a_node6"><a xlink:href="$cbc_8h.html#a95fbad6d45d4b793610fe663939b5f8c" xlink:title="cbcDecrypt &#45; Function to decrypt the user input pointed to by ">
<polygon fill="#ffffff" stroke="#000000" points="364,-76.5 364,-95.5 431,-95.5 431,-76.5 364,-76.5"/>
<text text-anchor="middle" x="397.5" y="-83.5" font-family="Helvetica,sans-Serif" font-size="10.00" fill="#000000">cbcDecrypt</text>
</a>
</g>
</g>
<!-- Node504&#45;&gt;Node507 -->
<g id="edge5" class="edge">
<title>Node504&#45;&gt;Node507</title>
<path fill="none" stroke="#191970" d="M324.4713,-91.5232C337.5866,-90.5313 351.6279,-89.4693 363.8592,-88.5443"/>
<polygon fill="#191970" stroke="#191970" points="323.9115,-88.0554 314.2039,-92.2997 324.4394,-95.0355 323.9115,-88.0554"/>
</g>
<!-- Node508 -->
<g id="node7" class="node">
<title>Node508</title>
<g id="a_node7"><a xlink:href="$ecb_8h.html#a9661ce321dd2649926ebadd2ab9dcd20" xlink:title="ecbDecryptHelper &#45; Helper function used to decrypt the ciphertext pointed to by ">
<polygon fill="#ffffff" stroke="#000000" points="350,-38.5 350,-57.5 445,-57.5 445,-38.5 350,-38.5"/>
<text text-anchor="middle" x="397.5" y="-45.5" font-family="Helvetica,sans-Serif" font-size="10.00" fill="#000000">ecbDecryptHelper</text>
</a>
</g>
</g>
<!-- Node504&#45;&gt;Node508 -->
<g id="edge6" class="edge">
<title>Node504&#45;&gt;Node508</title>
<path fill="none" stroke="#191970" d="M311.9747,-81.7789C331.3899,-74.1107 355.4095,-64.624 373.0459,-57.6583"/>
<polygon fill="#191970" stroke="#191970" points="310.5966,-78.56 302.5814,-85.4888 313.168,-85.0706 310.5966,-78.56"/>
</g>
<!-- Node510 -->
<g id="node9" class="node">
<title>Node510</title>
<g id="a_node9"><a xlink:href="$ecb_8h.html#ab4c77adefd8655ebd7bc79524f958013" xlink:title="ecbDecryptFile &#45; Function to encrypt the file with name ">
<polygon fill="#ffffff" stroke="#000000" points="356,-.5 356,-19.5 439,-19.5 439,-.5 356,-.5"/>
<text text-anchor="middle" x="397.5" y="-7.5" font-family="Helvetica,sans-Serif" font-size="10.00" fill="#000000">ecbDecryptFile</text>
</a>
</g>
</g>
<!-- Node504&#45;&gt;Node510 -->
<g id="edge8" class="edge">
<title>Node504&#45;&gt;Node510</title>
<path fill="none" stroke="#191970" d="M293.9746,-77.5158C307.5759,-62.9858 328.5037,-42.566 350,-29 355.7085,-25.3975 362.2139,-22.2594 368.54,-19.6275"/>
<polygon fill="#191970" stroke="#191970" points="291.0281,-75.5517 286.8641,-85.294 296.1946,-80.2747 291.0281,-75.5517"/>
</g>
<!-- Node509 -->
<g id="node8" class="node">
<title>Node509</title>
<g id="a_node8"><a xlink:href="$ecb_8h.html#acd982a867b70e4f75f2232c974a1e4ae" xlink:title="ecbDecrypt &#45; Function to decrypt the user input pointed to by ">
<polygon fill="#ffffff" stroke="#000000" points="481,-38.5 481,-57.5 548,-57.5 548,-38.5 481,-38.5"/>
<text text-anchor="middle" x="514.5" y="-45.5" font-family="Helvetica,sans-Serif" font-size="10.00" fill="#000000">ecbDecrypt</text>
</a>
</g>
</g>
<!-- Node508&#45;&gt;Node509 -->
<g id="edge7" class="edge">
<title>Node508&#45;&gt;Node509</title>
<path fill="none" stroke="#191970" d="M455.3346,-48C464.1109,-48 472.9073,-48 480.9333,-48"/>
<polygon fill="#191970" stroke="#191970" points="455.0884,-44.5001 445.0884,-48 455.0883,-51.5001 455.0884,-44.5001"/>
</g>
</g>
</svg>
