<?xml version="1.0" encoding="UTF-8" standalone="no"?>
<!DOCTYPE svg PUBLIC "-//W3C//DTD SVG 1.1//EN"
 "http://www.w3.org/Graphics/SVG/1.1/DTD/svg11.dtd">
<!-- Generated by graphviz version 2.40.1 (20161225.0304)
 -->
<!-- Title: validateCipherTextLength Pages: 1 -->
<svg width="477pt" height="180pt"
 viewBox="0.00 0.00 477.00 180.00" xmlns="http://www.w3.org/2000/svg" xmlns:xlink="http://www.w3.org/1999/xlink">
<g id="graph0" class="graph" transform="scale(1 1) rotate(0) translate(4 176)">
<title>validateCipherTextLength</title>
<polygon fill="#ffffff" stroke="transparent" points="-4,4 -4,-176 473,-176 473,4 -4,4"/>
<!-- Node535 -->
<g id="node1" class="node">
<title>Node535</title>
<polygon fill="#bfbfbf" stroke="#000000" points="0,-76.5 0,-95.5 128,-95.5 128,-76.5 0,-76.5"/>
<text text-anchor="middle" x="64" y="-83.5" font-family="Helvetica,sans-Serif" font-size="10.00" fill="#000000">validateCipherTextLength</text>
</g>
<!-- Node536 -->
<g id="node2" class="node">
<title>Node536</title>
<g id="a_node2"><a xlink:href="$_a_e_s_8h.html#aea7dd7439aa08f23e6fecd32d4055ac3" xlink:title="AESDecrypt &#45; Function to decrypt a single block of ciphertext passed in as parameter &#160;cipherText usin...">
<polygon fill="#ffffff" stroke="#000000" points="164,-76.5 164,-95.5 235,-95.5 235,-76.5 164,-76.5"/>
<text text-anchor="middle" x="199.5" y="-83.5" font-family="Helvetica,sans-Serif" font-size="10.00" fill="#000000">AESDecrypt</text>
</a>
</g>
</g>
<!-- Node535&#45;&gt;Node536 -->
<g id="edge1" class="edge">
<title>Node535&#45;&gt;Node536</title>
<path fill="none" stroke="#191970" d="M138.2809,-86C147.2008,-86 155.9682,-86 163.9571,-86"/>
<polygon fill="#191970" stroke="#191970" points="138.1788,-82.5001 128.1787,-86 138.1787,-89.5001 138.1788,-82.5001"/>
</g>
<!-- Node537 -->
<g id="node3" class="node">
<title>Node537</title>
<g id="a_node3"><a xlink:href="$aes_tester_8c.html#a0ddf1224851353fc92bfbff6f499fa97" xlink:title="main">
<polygon fill="#ffffff" stroke="#000000" points="299.5,-152.5 299.5,-171.5 337.5,-171.5 337.5,-152.5 299.5,-152.5"/>
<text text-anchor="middle" x="318.5" y="-159.5" font-family="Helvetica,sans-Serif" font-size="10.00" fill="#000000">main</text>
</a>
</g>
</g>
<!-- Node536&#45;&gt;Node537 -->
<g id="edge2" class="edge">
<title>Node536&#45;&gt;Node537</title>
<path fill="none" stroke="#191970" d="M217.2076,-102.5607C231.0599,-114.8871 251.2262,-131.4998 271,-143 279.9062,-148.1797 290.4939,-152.5664 299.4107,-155.8153"/>
<polygon fill="#191970" stroke="#191970" points="219.2146,-99.6554 209.4585,-95.5237 214.5086,-104.8375 219.2146,-99.6554"/>
</g>
<!-- Node538 -->
<g id="node4" class="node">
<title>Node538</title>
<g id="a_node4"><a xlink:href="$cbc_8h.html#a9375da4cc24b1bedceb0364f2865bcc3" xlink:title="cbcDecryptFile &#45; Function to decrypt the file with name ">
<polygon fill="#ffffff" stroke="#000000" points="277,-114.5 277,-133.5 360,-133.5 360,-114.5 277,-114.5"/>
<text text-anchor="middle" x="318.5" y="-121.5" font-family="Helvetica,sans-Serif" font-size="10.00" fill="#000000">cbcDecryptFile</text>
</a>
</g>
</g>
<!-- Node536&#45;&gt;Node538 -->
<g id="edge3" class="edge">
<title>Node536&#45;&gt;Node538</title>
<path fill="none" stroke="#191970" d="M239.2098,-98.6804C255.2886,-103.8148 273.5433,-109.6441 288.4809,-114.4141"/>
<polygon fill="#191970" stroke="#191970" points="240.1195,-95.2969 229.5287,-95.589 237.9901,-101.9652 240.1195,-95.2969"/>
</g>
<!-- Node539 -->
<g id="node5" class="node">
<title>Node539</title>
<g id="a_node5"><a xlink:href="$cbc_8h.html#a95fbad6d45d4b793610fe663939b5f8c" xlink:title="cbcDecrypt &#45; Function to decrypt the user input pointed to by ">
<polygon fill="#ffffff" stroke="#000000" points="285,-76.5 285,-95.5 352,-95.5 352,-76.5 285,-76.5"/>
<text text-anchor="middle" x="318.5" y="-83.5" font-family="Helvetica,sans-Serif" font-size="10.00" fill="#000000">cbcDecrypt</text>
</a>
</g>
</g>
<!-- Node536&#45;&gt;Node539 -->
<g id="edge4" class="edge">
<title>Node536&#45;&gt;Node539</title>
<path fill="none" stroke="#191970" d="M245.4713,-86C258.5866,-86 272.6279,-86 284.8592,-86"/>
<polygon fill="#191970" stroke="#191970" points="245.204,-82.5001 235.2039,-86 245.2039,-89.5001 245.204,-82.5001"/>
</g>
<!-- Node540 -->
<g id="node6" class="node">
<title>Node540</title>
<g id="a_node6"><a xlink:href="$ecb_8h.html#a9661ce321dd2649926ebadd2ab9dcd20" xlink:title="ecbDecryptHelper &#45; Helper function used to decrypt the ciphertext pointed to by ">
<polygon fill="#ffffff" stroke="#000000" points="271,-38.5 271,-57.5 366,-57.5 366,-38.5 271,-38.5"/>
<text text-anchor="middle" x="318.5" y="-45.5" font-family="Helvetica,sans-Serif" font-size="10.00" fill="#000000">ecbDecryptHelper</text>
</a>
</g>
</g>
<!-- Node536&#45;&gt;Node540 -->
<g id="edge5" class="edge">
<title>Node536&#45;&gt;Node540</title>
<path fill="none" stroke="#191970" d="M239.2098,-73.3196C255.2886,-68.1852 273.5433,-62.3559 288.4809,-57.5859"/>
<polygon fill="#191970" stroke="#191970" points="237.9901,-70.0348 229.5287,-76.411 240.1195,-76.7031 237.9901,-70.0348"/>
</g>
<!-- Node542 -->
<g id="node8" class="node">
<title>Node542</title>
<g id="a_node8"><a xlink:href="$ecb_8h.html#ab4c77adefd8655ebd7bc79524f958013" xlink:title="ecbDecryptFile &#45; Function to encrypt the file with name ">
<polygon fill="#ffffff" stroke="#000000" points="277,-.5 277,-19.5 360,-19.5 360,-.5 277,-.5"/>
<text text-anchor="middle" x="318.5" y="-7.5" font-family="Helvetica,sans-Serif" font-size="10.00" fill="#000000">ecbDecryptFile</text>
</a>
</g>
</g>
<!-- Node536&#45;&gt;Node542 -->
<g id="edge7" class="edge">
<title>Node536&#45;&gt;Node542</title>
<path fill="none" stroke="#191970" d="M217.2076,-69.4393C231.0599,-57.1129 251.2262,-40.5002 271,-29 277.1422,-25.4278 284.0842,-22.2327 290.7263,-19.528"/>
<polygon fill="#191970" stroke="#191970" points="214.5086,-67.1625 209.4585,-76.4763 219.2146,-72.3446 214.5086,-67.1625"/>
</g>
<!-- Node541 -->
<g id="node7" class="node">
<title>Node541</title>
<g id="a_node7"><a xlink:href="$ecb_8h.html#acd982a867b70e4f75f2232c974a1e4ae" xlink:title="ecbDecrypt &#45; Function to decrypt the user input pointed to by ">
<polygon fill="#ffffff" stroke="#000000" points="402,-38.5 402,-57.5 469,-57.5 469,-38.5 402,-38.5"/>
<text text-anchor="middle" x="435.5" y="-45.5" font-family="Helvetica,sans-Serif" font-size="10.00" fill="#000000">ecbDecrypt</text>
</a>
</g>
</g>
<!-- Node540&#45;&gt;Node541 -->
<g id="edge6" class="edge">
<title>Node540&#45;&gt;Node541</title>
<path fill="none" stroke="#191970" d="M376.3346,-48C385.1109,-48 393.9073,-48 401.9333,-48"/>
<polygon fill="#191970" stroke="#191970" points="376.0884,-44.5001 366.0884,-48 376.0883,-51.5001 376.0884,-44.5001"/>
</g>
</g>
</svg>
