<?xml version="1.0" encoding="UTF-8" standalone="no"?>
<!DOCTYPE svg PUBLIC "-//W3C//DTD SVG 1.1//EN"
 "http://www.w3.org/Graphics/SVG/1.1/DTD/svg11.dtd">
<!-- Generated by graphviz version 2.40.1 (20161225.0304)
 -->
<!-- Title: stripDirectory Pages: 1 -->
<svg width="339pt" height="218pt"
 viewBox="0.00 0.00 339.00 218.00" xmlns="http://www.w3.org/2000/svg" xmlns:xlink="http://www.w3.org/1999/xlink">
<g id="graph0" class="graph" transform="scale(1 1) rotate(0) translate(4 214)">
<title>stripDirectory</title>
<polygon fill="#ffffff" stroke="transparent" points="-4,4 -4,-214 335,-214 335,4 -4,4"/>
<!-- Node512 -->
<g id="node1" class="node">
<title>Node512</title>
<polygon fill="#bfbfbf" stroke="#000000" points="0,-95.5 0,-114.5 75,-114.5 75,-95.5 0,-95.5"/>
<text text-anchor="middle" x="37.5" y="-102.5" font-family="Helvetica,sans-Serif" font-size="10.00" fill="#000000">stripDirectory</text>
</g>
<!-- Node513 -->
<g id="node2" class="node">
<title>Node513</title>
<g id="a_node2"><a xlink:href="$_a_e_s_8h.html#ac206e95e4e98f7a5a92b046ad726f622" xlink:title="Get the output file name from all the parameters passed in. ">
<polygon fill="#ffffff" stroke="#000000" points="111,-95.5 111,-114.5 212,-114.5 212,-95.5 111,-95.5"/>
<text text-anchor="middle" x="161.5" y="-102.5" font-family="Helvetica,sans-Serif" font-size="10.00" fill="#000000">getOutputFileName</text>
</a>
</g>
</g>
<!-- Node512&#45;&gt;Node513 -->
<g id="edge1" class="edge">
<title>Node512&#45;&gt;Node513</title>
<path fill="none" stroke="#191970" d="M85.0838,-105C93.5071,-105 102.3063,-105 110.8115,-105"/>
<polygon fill="#191970" stroke="#191970" points="85.0406,-101.5001 75.0406,-105 85.0406,-108.5001 85.0406,-101.5001"/>
</g>
<!-- Node514 -->
<g id="node3" class="node">
<title>Node514</title>
<g id="a_node3"><a xlink:href="$cbc_8h.html#ad055b3ad2664ace8ba1ab68a481dc1b3" xlink:title="cbcEncryptFile &#45; Function to encrypt the file with name ">
<polygon fill="#ffffff" stroke="#000000" points="248.5,-190.5 248.5,-209.5 330.5,-209.5 330.5,-190.5 248.5,-190.5"/>
<text text-anchor="middle" x="289.5" y="-197.5" font-family="Helvetica,sans-Serif" font-size="10.00" fill="#000000">cbcEncryptFile</text>
</a>
</g>
</g>
<!-- Node513&#45;&gt;Node514 -->
<g id="edge2" class="edge">
<title>Node513&#45;&gt;Node514</title>
<path fill="none" stroke="#191970" d="M178.132,-122.2931C194.7161,-138.8573 221.4752,-163.8066 248,-181 253.4525,-184.5343 259.6698,-187.7538 265.6027,-190.4976"/>
<polygon fill="#191970" stroke="#191970" points="180.3652,-119.5728 170.8536,-114.9058 175.3788,-124.4857 180.3652,-119.5728"/>
</g>
<!-- Node515 -->
<g id="node4" class="node">
<title>Node515</title>
<g id="a_node4"><a xlink:href="$cbc_8h.html#a9375da4cc24b1bedceb0364f2865bcc3" xlink:title="cbcDecryptFile &#45; Function to decrypt the file with name ">
<polygon fill="#ffffff" stroke="#000000" points="248,-152.5 248,-171.5 331,-171.5 331,-152.5 248,-152.5"/>
<text text-anchor="middle" x="289.5" y="-159.5" font-family="Helvetica,sans-Serif" font-size="10.00" fill="#000000">cbcDecryptFile</text>
</a>
</g>
</g>
<!-- Node513&#45;&gt;Node515 -->
<g id="edge3" class="edge">
<title>Node513&#45;&gt;Node515</title>
<path fill="none" stroke="#191970" d="M192.081,-118.6181C215.4991,-129.0465 247.2144,-143.1697 268.0058,-152.4284"/>
<polygon fill="#191970" stroke="#191970" points="193.4833,-115.4113 182.9243,-114.5405 190.6357,-121.8059 193.4833,-115.4113"/>
</g>
<!-- Node516 -->
<g id="node5" class="node">
<title>Node516</title>
<g id="a_node5"><a xlink:href="$cfb_8h.html#a9384de325e389ba7809b7ee98320f485" xlink:title="cfbEncryptFile &#45; Function to encrypt the file with name ">
<polygon fill="#ffffff" stroke="#000000" points="249.5,-114.5 249.5,-133.5 329.5,-133.5 329.5,-114.5 249.5,-114.5"/>
<text text-anchor="middle" x="289.5" y="-121.5" font-family="Helvetica,sans-Serif" font-size="10.00" fill="#000000">cfbEncryptFile</text>
</a>
</g>
</g>
<!-- Node513&#45;&gt;Node516 -->
<g id="edge4" class="edge">
<title>Node513&#45;&gt;Node516</title>
<path fill="none" stroke="#191970" d="M221.9998,-113.9804C231.2017,-115.3463 240.5003,-116.7266 249.1318,-118.0078"/>
<polygon fill="#191970" stroke="#191970" points="222.4945,-110.5156 212.089,-112.5093 221.4667,-117.4397 222.4945,-110.5156"/>
</g>
<!-- Node517 -->
<g id="node6" class="node">
<title>Node517</title>
<g id="a_node6"><a xlink:href="$cfb_8h.html#a6dce0b90ab3948c3df032eb61c2a64ea" xlink:title="cfbDecryptFile &#45; Function to decrypt the file with name ">
<polygon fill="#ffffff" stroke="#000000" points="249.5,-76.5 249.5,-95.5 329.5,-95.5 329.5,-76.5 249.5,-76.5"/>
<text text-anchor="middle" x="289.5" y="-83.5" font-family="Helvetica,sans-Serif" font-size="10.00" fill="#000000">cfbDecryptFile</text>
</a>
</g>
</g>
<!-- Node513&#45;&gt;Node517 -->
<g id="edge5" class="edge">
<title>Node513&#45;&gt;Node517</title>
<path fill="none" stroke="#191970" d="M221.9998,-96.0196C231.2017,-94.6537 240.5003,-93.2734 249.1318,-91.9922"/>
<polygon fill="#191970" stroke="#191970" points="221.4667,-92.5603 212.089,-97.4907 222.4945,-99.4844 221.4667,-92.5603"/>
</g>
<!-- Node518 -->
<g id="node7" class="node">
<title>Node518</title>
<g id="a_node7"><a xlink:href="$ecb_8h.html#ab68902caeba7880cf1be8b40e8bb9a50" xlink:title="ecbEncryptFile &#45; Function to encrypt the file with name ">
<polygon fill="#ffffff" stroke="#000000" points="248.5,-38.5 248.5,-57.5 330.5,-57.5 330.5,-38.5 248.5,-38.5"/>
<text text-anchor="middle" x="289.5" y="-45.5" font-family="Helvetica,sans-Serif" font-size="10.00" fill="#000000">ecbEncryptFile</text>
</a>
</g>
</g>
<!-- Node513&#45;&gt;Node518 -->
<g id="edge6" class="edge">
<title>Node513&#45;&gt;Node518</title>
<path fill="none" stroke="#191970" d="M192.081,-91.3819C215.4991,-80.9535 247.2144,-66.8303 268.0058,-57.5716"/>
<polygon fill="#191970" stroke="#191970" points="190.6357,-88.1941 182.9243,-95.4595 193.4833,-94.5887 190.6357,-88.1941"/>
</g>
<!-- Node519 -->
<g id="node8" class="node">
<title>Node519</title>
<g id="a_node8"><a xlink:href="$ecb_8h.html#ab4c77adefd8655ebd7bc79524f958013" xlink:title="ecbDecryptFile &#45; Function to encrypt the file with name ">
<polygon fill="#ffffff" stroke="#000000" points="248,-.5 248,-19.5 331,-19.5 331,-.5 248,-.5"/>
<text text-anchor="middle" x="289.5" y="-7.5" font-family="Helvetica,sans-Serif" font-size="10.00" fill="#000000">ecbDecryptFile</text>
</a>
</g>
</g>
<!-- Node513&#45;&gt;Node519 -->
<g id="edge7" class="edge">
<title>Node513&#45;&gt;Node519</title>
<path fill="none" stroke="#191970" d="M178.132,-87.7069C194.7161,-71.1427 221.4752,-46.1934 248,-29 253.4525,-25.4657 259.6698,-22.2462 265.6027,-19.5024"/>
<polygon fill="#191970" stroke="#191970" points="175.3788,-85.5143 170.8536,-95.0942 180.3652,-90.4272 175.3788,-85.5143"/>
</g>
</g>
</svg>
