<?xml version="1.0" encoding="UTF-8" standalone="no"?>
<!DOCTYPE svg PUBLIC "-//W3C//DTD SVG 1.1//EN"
 "http://www.w3.org/Graphics/SVG/1.1/DTD/svg11.dtd">
<!-- Generated by graphviz version 2.40.1 (20161225.0304)
 -->
<!-- Title: getNumRounds Pages: 1 -->
<svg width="592pt" height="683pt"
 viewBox="0.00 0.00 592.00 682.92" xmlns="http://www.w3.org/2000/svg" xmlns:xlink="http://www.w3.org/1999/xlink">
<g id="graph0" class="graph" transform="scale(1 1) rotate(0) translate(4 678.9221)">
<title>getNumRounds</title>
<polygon fill="#ffffff" stroke="transparent" points="-4,4 -4,-678.9221 588,-678.9221 588,4 -4,4"/>
<!-- Node130 -->
<g id="node1" class="node">
<title>Node130</title>
<polygon fill="#bfbfbf" stroke="#000000" points="0,-317.0872 0,-336.0872 85,-336.0872 85,-317.0872 0,-317.0872"/>
<text text-anchor="middle" x="42.5" y="-324.0872" font-family="Helvetica,sans-Serif" font-size="10.00" fill="#000000">getNumRounds</text>
</g>
<!-- Node131 -->
<g id="node2" class="node">
<title>Node131</title>
<g id="a_node2"><a xlink:href="$_a_e_s_8h.html#a0ac21e951d3e46598708ab8fd8bc61c5" xlink:title="AESEncrypt &#45; Function to encrypt a single block of plaintext passed in as parameter &#160;plainText using ...">
<polygon fill="#ffffff" stroke="#000000" points="273,-431.0872 273,-450.0872 344,-450.0872 344,-431.0872 273,-431.0872"/>
<text text-anchor="middle" x="308.5" y="-438.0872" font-family="Helvetica,sans-Serif" font-size="10.00" fill="#000000">AESEncrypt</text>
</a>
</g>
</g>
<!-- Node130&#45;&gt;Node131 -->
<g id="edge1" class="edge">
<title>Node130&#45;&gt;Node131</title>
<path fill="none" stroke="#191970" d="M52.8036,-344.9492C65.7512,-366.1065 90.0719,-400.0736 121,-416.5872 168.9115,-442.1687 233.2391,-444.7047 272.733,-443.3008"/>
<polygon fill="#191970" stroke="#191970" points="55.7636,-343.078 47.6722,-336.2384 49.7323,-346.631 55.7636,-343.078"/>
</g>
<!-- Node132 -->
<g id="node3" class="node">
<title>Node132</title>
<g id="a_node3"><a xlink:href="$aes_tester_8c.html#a0ddf1224851353fc92bfbff6f499fa97" xlink:title="main">
<polygon fill="#ffffff" stroke="#000000" points="414.5,-203.0872 414.5,-222.0872 452.5,-222.0872 452.5,-203.0872 414.5,-203.0872"/>
<text text-anchor="middle" x="433.5" y="-210.0872" font-family="Helvetica,sans-Serif" font-size="10.00" fill="#000000">main</text>
</a>
</g>
</g>
<!-- Node130&#45;&gt;Node132 -->
<g id="edge36" class="edge">
<title>Node130&#45;&gt;Node132</title>
<path fill="none" stroke="#191970" d="M51.799,-307.8471C64.1486,-285.2486 88.2735,-248.2304 121,-231.5872 221.046,-180.7081 363.0238,-199.5486 414.1887,-208.7368"/>
<polygon fill="#191970" stroke="#191970" points="48.6389,-306.337 47.1003,-316.8196 54.8401,-309.5845 48.6389,-306.337"/>
</g>
<!-- Node133 -->
<g id="node4" class="node">
<title>Node133</title>
<g id="a_node4"><a xlink:href="$cbc_8h.html#ad055b3ad2664ace8ba1ab68a481dc1b3" xlink:title="cbcEncryptFile &#45; Function to encrypt the file with name ">
<polygon fill="#ffffff" stroke="#000000" points="392.5,-583.0872 392.5,-602.0872 474.5,-602.0872 474.5,-583.0872 392.5,-583.0872"/>
<text text-anchor="middle" x="433.5" y="-590.0872" font-family="Helvetica,sans-Serif" font-size="10.00" fill="#000000">cbcEncryptFile</text>
</a>
</g>
</g>
<!-- Node130&#45;&gt;Node133 -->
<g id="edge37" class="edge">
<title>Node130&#45;&gt;Node133</title>
<path fill="none" stroke="#191970" d="M43.368,-346.5058C46.3962,-390.0624 59.9888,-494.1455 121,-547.5872 197.2792,-614.4025 326.5086,-608.1493 392.3232,-599.5412"/>
<polygon fill="#191970" stroke="#191970" points="46.8528,-346.1402 42.783,-336.3583 39.8644,-346.5432 46.8528,-346.1402"/>
</g>
<!-- Node134 -->
<g id="node5" class="node">
<title>Node134</title>
<g id="a_node5"><a xlink:href="$cbc_8h.html#a90f1f37609cf336c57cd0300282c1dac" xlink:title="cbcEncrypt &#45; Function to encrypt the user input pointed to by ">
<polygon fill="#ffffff" stroke="#000000" points="400.5,-545.0872 400.5,-564.0872 466.5,-564.0872 466.5,-545.0872 400.5,-545.0872"/>
<text text-anchor="middle" x="433.5" y="-552.0872" font-family="Helvetica,sans-Serif" font-size="10.00" fill="#000000">cbcEncrypt</text>
</a>
</g>
</g>
<!-- Node130&#45;&gt;Node134 -->
<g id="edge39" class="edge">
<title>Node130&#45;&gt;Node134</title>
<path fill="none" stroke="#191970" d="M44.964,-346.8394C50.7615,-385.1884 68.948,-468.3385 121,-510.5872 202.8888,-577.0532 338.3225,-568.4396 400.4719,-560.077"/>
<polygon fill="#191970" stroke="#191970" points="48.3681,-345.9014 43.5388,-336.4712 41.4333,-346.8547 48.3681,-345.9014"/>
</g>
<!-- Node135 -->
<g id="node6" class="node">
<title>Node135</title>
<g id="a_node6"><a xlink:href="$cfb_8h.html#a9384de325e389ba7809b7ee98320f485" xlink:title="cfbEncryptFile &#45; Function to encrypt the file with name ">
<polygon fill="#ffffff" stroke="#000000" points="393.5,-507.0872 393.5,-526.0872 473.5,-526.0872 473.5,-507.0872 393.5,-507.0872"/>
<text text-anchor="middle" x="433.5" y="-514.0872" font-family="Helvetica,sans-Serif" font-size="10.00" fill="#000000">cfbEncryptFile</text>
</a>
</g>
</g>
<!-- Node130&#45;&gt;Node135 -->
<g id="edge41" class="edge">
<title>Node130&#45;&gt;Node135</title>
<path fill="none" stroke="#191970" d="M46.8956,-346.2492C55.2688,-378.8022 76.7579,-443.4821 121,-475.5872 202.8194,-534.9609 329.3007,-529.9907 393.3675,-522.6248"/>
<polygon fill="#191970" stroke="#191970" points="50.214,-345.0802 44.4651,-336.1807 43.4095,-346.7228 50.214,-345.0802"/>
</g>
<!-- Node136 -->
<g id="node7" class="node">
<title>Node136</title>
<g id="a_node7"><a xlink:href="$cfb_8h.html#a6dce0b90ab3948c3df032eb61c2a64ea" xlink:title="cfbDecryptFile &#45; Function to decrypt the file with name ">
<polygon fill="#ffffff" stroke="#000000" points="393.5,-469.0872 393.5,-488.0872 473.5,-488.0872 473.5,-469.0872 393.5,-469.0872"/>
<text text-anchor="middle" x="433.5" y="-476.0872" font-family="Helvetica,sans-Serif" font-size="10.00" fill="#000000">cfbDecryptFile</text>
</a>
</g>
</g>
<!-- Node130&#45;&gt;Node136 -->
<g id="edge42" class="edge">
<title>Node130&#45;&gt;Node136</title>
<path fill="none" stroke="#191970" d="M49.3377,-345.7117C60.0514,-372.6013 83.5299,-420.8357 121,-443.5872 206.7455,-495.6508 330.3989,-491.0066 393.3657,-484.2382"/>
<polygon fill="#191970" stroke="#191970" points="52.564,-344.3485 45.7431,-336.2414 46.0196,-346.8326 52.564,-344.3485"/>
</g>
<!-- Node137 -->
<g id="node8" class="node">
<title>Node137</title>
<g id="a_node8"><a xlink:href="$cfb_8h.html#a826aec09cb2af95cb8781d2b4c211182" xlink:title="cfbEncrypt &#45; Function to encrypt the user input pointed to by ">
<polygon fill="#ffffff" stroke="#000000" points="401.5,-393.0872 401.5,-412.0872 465.5,-412.0872 465.5,-393.0872 401.5,-393.0872"/>
<text text-anchor="middle" x="433.5" y="-400.0872" font-family="Helvetica,sans-Serif" font-size="10.00" fill="#000000">cfbEncrypt</text>
</a>
</g>
</g>
<!-- Node130&#45;&gt;Node137 -->
<g id="edge43" class="edge">
<title>Node130&#45;&gt;Node137</title>
<path fill="none" stroke="#191970" d="M70.4251,-340.4291C85.1423,-347.1795 103.6892,-354.8457 121,-359.5872 221.0923,-387.0029 344.2345,-397.3922 401.4567,-400.9398"/>
<polygon fill="#191970" stroke="#191970" points="71.897,-337.2536 61.3582,-336.1652 68.9181,-343.5881 71.897,-337.2536"/>
</g>
<!-- Node138 -->
<g id="node9" class="node">
<title>Node138</title>
<g id="a_node9"><a xlink:href="$cfb_8h.html#ad6a75d43203e367b8a83f6b7c7f506c6" xlink:title="cfbDecrypt &#45; Function to decrypt the user input pointed to by ">
<polygon fill="#ffffff" stroke="#000000" points="401,-355.0872 401,-374.0872 466,-374.0872 466,-355.0872 401,-355.0872"/>
<text text-anchor="middle" x="433.5" y="-362.0872" font-family="Helvetica,sans-Serif" font-size="10.00" fill="#000000">cfbDecrypt</text>
</a>
</g>
</g>
<!-- Node130&#45;&gt;Node138 -->
<g id="edge44" class="edge">
<title>Node130&#45;&gt;Node138</title>
<path fill="none" stroke="#191970" d="M95.1318,-336.7192C103.7539,-338.1642 112.6101,-339.5196 121,-340.5872 222.4786,-353.5002 343.4438,-360.3906 400.5466,-363.14"/>
<polygon fill="#191970" stroke="#191970" points="95.61,-333.25 85.1596,-334.9936 94.4164,-340.1475 95.61,-333.25"/>
</g>
<!-- Node140 -->
<g id="node11" class="node">
<title>Node140</title>
<g id="a_node11"><a xlink:href="$ecb_8h.html#aa451eb4920a712afa521f06831277731" xlink:title="ecbEncrypt &#45; Function to encrypt the user input pointed to by ">
<polygon fill="#ffffff" stroke="#000000" points="517.5,-431.0872 517.5,-450.0872 583.5,-450.0872 583.5,-431.0872 517.5,-431.0872"/>
<text text-anchor="middle" x="550.5" y="-438.0872" font-family="Helvetica,sans-Serif" font-size="10.00" fill="#000000">ecbEncrypt</text>
</a>
</g>
</g>
<!-- Node130&#45;&gt;Node140 -->
<g id="edge45" class="edge">
<title>Node130&#45;&gt;Node140</title>
<path fill="none" stroke="#191970" d="M45.8567,-346.4818C55.4958,-401.2596 84.8957,-552.4305 121,-585.5872 239.1523,-694.0932 349.6484,-703.6757 481,-611.5872 536.8903,-572.4033 547.8888,-480.0447 550.0068,-450.1234"/>
<polygon fill="#191970" stroke="#191970" points="49.2549,-345.5918 44.1045,-336.3331 42.357,-346.7828 49.2549,-345.5918"/>
</g>
<!-- Node141 -->
<g id="node12" class="node">
<title>Node141</title>
<g id="a_node12"><a xlink:href="$ecb_8h.html#ab68902caeba7880cf1be8b40e8bb9a50" xlink:title="ecbEncryptFile &#45; Function to encrypt the file with name ">
<polygon fill="#ffffff" stroke="#000000" points="392.5,-279.0872 392.5,-298.0872 474.5,-298.0872 474.5,-279.0872 392.5,-279.0872"/>
<text text-anchor="middle" x="433.5" y="-286.0872" font-family="Helvetica,sans-Serif" font-size="10.00" fill="#000000">ecbEncryptFile</text>
</a>
</g>
</g>
<!-- Node130&#45;&gt;Node141 -->
<g id="edge47" class="edge">
<title>Node130&#45;&gt;Node141</title>
<path fill="none" stroke="#191970" d="M95.2848,-321.4572C174.139,-313.7936 321.0443,-299.5164 392.4376,-292.5779"/>
<polygon fill="#191970" stroke="#191970" points="94.7027,-317.9972 85.0882,-322.4482 95.3799,-324.9644 94.7027,-317.9972"/>
</g>
<!-- Node142 -->
<g id="node13" class="node">
<title>Node142</title>
<g id="a_node13"><a xlink:href="$_a_e_s_8h.html#aea7dd7439aa08f23e6fecd32d4055ac3" xlink:title="AESDecrypt &#45; Function to decrypt a single block of ciphertext passed in as parameter &#160;cipherText usin...">
<polygon fill="#ffffff" stroke="#000000" points="273,-127.0872 273,-146.0872 344,-146.0872 344,-127.0872 273,-127.0872"/>
<text text-anchor="middle" x="308.5" y="-134.0872" font-family="Helvetica,sans-Serif" font-size="10.00" fill="#000000">AESDecrypt</text>
</a>
</g>
</g>
<!-- Node130&#45;&gt;Node142 -->
<g id="edge12" class="edge">
<title>Node130&#45;&gt;Node142</title>
<path fill="none" stroke="#191970" d="M45.553,-307.0032C52.2245,-271.396 71.658,-196.4264 121,-160.5872 165.4755,-128.2826 232.0202,-127.9771 272.7144,-131.6266"/>
<polygon fill="#191970" stroke="#191970" points="42.0655,-306.6317 43.8137,-317.0814 48.9635,-307.8223 42.0655,-306.6317"/>
</g>
<!-- Node143 -->
<g id="node14" class="node">
<title>Node143</title>
<g id="a_node14"><a xlink:href="$cbc_8h.html#a9375da4cc24b1bedceb0364f2865bcc3" xlink:title="cbcDecryptFile &#45; Function to decrypt the file with name ">
<polygon fill="#ffffff" stroke="#000000" points="392,-165.0872 392,-184.0872 475,-184.0872 475,-165.0872 392,-165.0872"/>
<text text-anchor="middle" x="433.5" y="-172.0872" font-family="Helvetica,sans-Serif" font-size="10.00" fill="#000000">cbcDecryptFile</text>
</a>
</g>
</g>
<!-- Node130&#45;&gt;Node143 -->
<g id="edge38" class="edge">
<title>Node130&#45;&gt;Node143</title>
<path fill="none" stroke="#191970" d="M48.0768,-307.0439C57.6256,-277.5774 80.1441,-222.5687 121,-197.5872 205.7012,-145.7963 328.4536,-156.159 391.9583,-166.3786"/>
<polygon fill="#191970" stroke="#191970" points="44.6186,-306.3843 45.041,-316.9707 51.3125,-308.4315 44.6186,-306.3843"/>
</g>
<!-- Node144 -->
<g id="node15" class="node">
<title>Node144</title>
<g id="a_node15"><a xlink:href="$cbc_8h.html#a95fbad6d45d4b793610fe663939b5f8c" xlink:title="cbcDecrypt &#45; Function to decrypt the user input pointed to by ">
<polygon fill="#ffffff" stroke="#000000" points="400,-127.0872 400,-146.0872 467,-146.0872 467,-127.0872 400,-127.0872"/>
<text text-anchor="middle" x="433.5" y="-134.0872" font-family="Helvetica,sans-Serif" font-size="10.00" fill="#000000">cbcDecrypt</text>
</a>
</g>
</g>
<!-- Node130&#45;&gt;Node144 -->
<g id="edge40" class="edge">
<title>Node130&#45;&gt;Node144</title>
<path fill="none" stroke="#191970" d="M43.5384,-306.6533C46.8956,-264.9883 61.0862,-168.9602 121,-125.5872 210.2669,-60.9647 354.4619,-105.7462 410.3415,-127.0584"/>
<polygon fill="#191970" stroke="#191970" points="40.03,-306.6617 42.8498,-316.8744 47.0142,-307.1323 40.03,-306.6617"/>
</g>
<!-- Node146 -->
<g id="node17" class="node">
<title>Node146</title>
<g id="a_node17"><a xlink:href="$ecb_8h.html#acd982a867b70e4f75f2232c974a1e4ae" xlink:title="ecbDecrypt &#45; Function to decrypt the user input pointed to by ">
<polygon fill="#ffffff" stroke="#000000" points="517,-51.0872 517,-70.0872 584,-70.0872 584,-51.0872 517,-51.0872"/>
<text text-anchor="middle" x="550.5" y="-58.0872" font-family="Helvetica,sans-Serif" font-size="10.00" fill="#000000">ecbDecrypt</text>
</a>
</g>
</g>
<!-- Node130&#45;&gt;Node146 -->
<g id="edge46" class="edge">
<title>Node130&#45;&gt;Node146</title>
<path fill="none" stroke="#191970" d="M45.0767,-306.8741C53.0695,-249.0663 79.4316,-82.0096 121,-49.5872 245.3946,47.4376 457.4061,-23.364 527.3544,-50.9104"/>
<polygon fill="#191970" stroke="#191970" points="41.5916,-306.5287 43.724,-316.9067 48.5289,-307.4641 41.5916,-306.5287"/>
</g>
<!-- Node147 -->
<g id="node18" class="node">
<title>Node147</title>
<g id="a_node18"><a xlink:href="$ecb_8h.html#ab4c77adefd8655ebd7bc79524f958013" xlink:title="ecbDecryptFile &#45; Function to encrypt the file with name ">
<polygon fill="#ffffff" stroke="#000000" points="392,-89.0872 392,-108.0872 475,-108.0872 475,-89.0872 392,-89.0872"/>
<text text-anchor="middle" x="433.5" y="-96.0872" font-family="Helvetica,sans-Serif" font-size="10.00" fill="#000000">ecbDecryptFile</text>
</a>
</g>
</g>
<!-- Node130&#45;&gt;Node147 -->
<g id="edge48" class="edge">
<title>Node130&#45;&gt;Node147</title>
<path fill="none" stroke="#191970" d="M45.9624,-306.8052C55.5788,-254.3921 84.3368,-114.1353 121,-87.5872 210.2592,-22.954 354.4587,-67.7418 410.3405,-89.057"/>
<polygon fill="#191970" stroke="#191970" points="42.4824,-306.3829 44.1592,-316.8442 49.3721,-307.6205 42.4824,-306.3829"/>
</g>
<!-- Node148 -->
<g id="node19" class="node">
<title>Node148</title>
<g id="a_node19"><a xlink:href="$_a_e_s_8h.html#a53bffc877a08f01e5fd9cf1e28298aab" xlink:title="RijndaelKeySchedule &#45; Function that performs the Rijndael key scheduling for AES encryption. Takes in the original key passed in as parameter. ">
<polygon fill="#ffffff" stroke="#000000" points="121,-241.0872 121,-260.0872 231,-260.0872 231,-241.0872 121,-241.0872"/>
<text text-anchor="middle" x="176" y="-248.0872" font-family="Helvetica,sans-Serif" font-size="10.00" fill="#000000">RijndaelKeySchedule</text>
</a>
</g>
</g>
<!-- Node130&#45;&gt;Node148 -->
<g id="edge19" class="edge">
<title>Node130&#45;&gt;Node148</title>
<path fill="none" stroke="#191970" d="M63.7188,-311.0719C79.1689,-300.1416 100.8335,-285.5586 121,-274.5872 130.792,-269.2599 142.0069,-264.1931 151.7446,-260.0998"/>
<polygon fill="#191970" stroke="#191970" points="61.4909,-308.3625 55.3985,-317.0305 65.5666,-314.0536 61.4909,-308.3625"/>
</g>
<!-- Node149 -->
<g id="node20" class="node">
<title>Node149</title>
<g id="a_node20"><a xlink:href="$_a_e_s_8h.html#afba897e91364663f883cc51ed309dc92" xlink:title="keyHexToAscii &#45; Function to convert a key from a Hex string passed in as a paramter ...">
<polygon fill="#ffffff" stroke="#000000" points="267,-317.0872 267,-336.0872 350,-336.0872 350,-317.0872 267,-317.0872"/>
<text text-anchor="middle" x="308.5" y="-324.0872" font-family="Helvetica,sans-Serif" font-size="10.00" fill="#000000">keyHexToAscii</text>
</a>
</g>
</g>
<!-- Node130&#45;&gt;Node149 -->
<g id="edge23" class="edge">
<title>Node130&#45;&gt;Node149</title>
<path fill="none" stroke="#191970" d="M95.2756,-326.5872C145.6138,-326.5872 220.4306,-326.5872 266.7456,-326.5872"/>
<polygon fill="#191970" stroke="#191970" points="95.2375,-323.0873 85.2375,-326.5872 95.2375,-330.0873 95.2375,-323.0873"/>
</g>
<!-- Node131&#45;&gt;Node132 -->
<g id="edge2" class="edge">
<title>Node131&#45;&gt;Node132</title>
<path fill="none" stroke="#191970" d="M316.7473,-421.6305C334.8897,-380.043 377.3394,-283.3971 386,-269.5872 397.224,-251.6898 413.5613,-233.3306 423.8541,-222.4464"/>
<polygon fill="#191970" stroke="#191970" points="313.4797,-420.3677 312.6939,-430.9334 319.897,-423.1639 313.4797,-420.3677"/>
</g>
<!-- Node131&#45;&gt;Node133 -->
<g id="edge3" class="edge">
<title>Node131&#45;&gt;Node133</title>
<path fill="none" stroke="#191970" d="M315.1469,-460.0605C325.8271,-488.6516 349.3976,-542.0086 386,-573.5872 390.4384,-577.4164 395.7455,-580.5341 401.1783,-583.0526"/>
<polygon fill="#191970" stroke="#191970" points="318.3566,-458.6424 311.6844,-450.4124 311.768,-461.0069 318.3566,-458.6424"/>
</g>
<!-- Node131&#45;&gt;Node134 -->
<g id="edge4" class="edge">
<title>Node131&#45;&gt;Node134</title>
<path fill="none" stroke="#191970" d="M319.4049,-458.9542C332.7417,-480.0252 357.1396,-514.3893 386,-535.5872 391.0108,-539.2676 396.8329,-542.3559 402.6478,-544.9007"/>
<polygon fill="#191970" stroke="#191970" points="322.3022,-456.9842 314.0792,-450.3034 316.3413,-460.654 322.3022,-456.9842"/>
</g>
<!-- Node131&#45;&gt;Node135 -->
<g id="edge5" class="edge">
<title>Node131&#45;&gt;Node135</title>
<path fill="none" stroke="#191970" d="M327.7569,-456.904C342.8968,-469.1855 364.8882,-485.8521 386,-497.5872 392.2105,-501.0393 399.1781,-504.1893 405.8231,-506.8889"/>
<polygon fill="#191970" stroke="#191970" points="329.6337,-453.915 319.693,-450.2501 325.1786,-459.3142 329.6337,-453.915"/>
</g>
<!-- Node131&#45;&gt;Node136 -->
<g id="edge6" class="edge">
<title>Node131&#45;&gt;Node136</title>
<path fill="none" stroke="#191970" d="M349.7345,-453.1225C366.7393,-458.2919 386.1286,-464.1863 401.9673,-469.0012"/>
<polygon fill="#191970" stroke="#191970" points="350.6285,-449.7361 340.0428,-450.1762 348.5924,-456.4335 350.6285,-449.7361"/>
</g>
<!-- Node131&#45;&gt;Node137 -->
<g id="edge7" class="edge">
<title>Node131&#45;&gt;Node137</title>
<path fill="none" stroke="#191970" d="M349.7345,-428.0519C366.7393,-422.8824 386.1286,-416.9881 401.9673,-412.1731"/>
<polygon fill="#191970" stroke="#191970" points="348.5924,-424.7408 340.0428,-430.9982 350.6285,-431.4382 348.5924,-424.7408"/>
</g>
<!-- Node131&#45;&gt;Node138 -->
<g id="edge8" class="edge">
<title>Node131&#45;&gt;Node138</title>
<path fill="none" stroke="#191970" d="M327.7569,-424.2703C342.8968,-411.9889 364.8882,-395.3223 386,-383.5872 392.2105,-380.1351 399.1781,-376.985 405.8231,-374.2854"/>
<polygon fill="#191970" stroke="#191970" points="325.1786,-421.8601 319.693,-430.9243 329.6337,-427.2594 325.1786,-421.8601"/>
</g>
<!-- Node139 -->
<g id="node10" class="node">
<title>Node139</title>
<g id="a_node10"><a xlink:href="$ecb_8h.html#a50ddfe369298c1293b5c57662f569127" xlink:title="ecbEcryptHelper &#45; Helper function used to encrypt the plaintext pointed to by ">
<polygon fill="#ffffff" stroke="#000000" points="389,-431.0872 389,-450.0872 478,-450.0872 478,-431.0872 389,-431.0872"/>
<text text-anchor="middle" x="433.5" y="-438.0872" font-family="Helvetica,sans-Serif" font-size="10.00" fill="#000000">ecbEcryptHelper</text>
</a>
</g>
</g>
<!-- Node131&#45;&gt;Node139 -->
<g id="edge9" class="edge">
<title>Node131&#45;&gt;Node139</title>
<path fill="none" stroke="#191970" d="M354.3681,-440.5872C365.5958,-440.5872 377.5957,-440.5872 388.7693,-440.5872"/>
<polygon fill="#191970" stroke="#191970" points="354.32,-437.0873 344.32,-440.5872 354.3199,-444.0873 354.32,-437.0873"/>
</g>
<!-- Node131&#45;&gt;Node141 -->
<g id="edge11" class="edge">
<title>Node131&#45;&gt;Node141</title>
<path fill="none" stroke="#191970" d="M322.7581,-422.9976C338.2644,-403.8944 363.8068,-372.5035 386,-345.5872 399.7672,-328.89 415.9215,-309.56 425.4008,-298.2437"/>
<polygon fill="#191970" stroke="#191970" points="319.97,-420.8789 316.3879,-430.8498 325.4061,-425.289 319.97,-420.8789"/>
</g>
<!-- Node139&#45;&gt;Node140 -->
<g id="edge10" class="edge">
<title>Node139&#45;&gt;Node140</title>
<path fill="none" stroke="#191970" d="M488.3035,-440.5872C498.2224,-440.5872 508.2836,-440.5872 517.3404,-440.5872"/>
<polygon fill="#191970" stroke="#191970" points="488.0665,-437.0873 478.0664,-440.5872 488.0664,-444.0873 488.0665,-437.0873"/>
</g>
<!-- Node142&#45;&gt;Node132 -->
<g id="edge13" class="edge">
<title>Node142&#45;&gt;Node132</title>
<path fill="none" stroke="#191970" d="M327.7569,-152.904C342.8968,-165.1855 364.8882,-181.8521 386,-193.5872 395.0052,-198.5927 405.6022,-202.9631 414.4995,-206.2462"/>
<polygon fill="#191970" stroke="#191970" points="329.6337,-149.915 319.693,-146.2501 325.1786,-155.3142 329.6337,-149.915"/>
</g>
<!-- Node142&#45;&gt;Node143 -->
<g id="edge14" class="edge">
<title>Node142&#45;&gt;Node143</title>
<path fill="none" stroke="#191970" d="M349.7345,-149.1225C366.7393,-154.2919 386.1286,-160.1863 401.9673,-165.0012"/>
<polygon fill="#191970" stroke="#191970" points="350.6285,-145.7361 340.0428,-146.1762 348.5924,-152.4335 350.6285,-145.7361"/>
</g>
<!-- Node142&#45;&gt;Node144 -->
<g id="edge15" class="edge">
<title>Node142&#45;&gt;Node144</title>
<path fill="none" stroke="#191970" d="M354.4541,-136.5872C369.4773,-136.5872 385.8749,-136.5872 399.8211,-136.5872"/>
<polygon fill="#191970" stroke="#191970" points="354.32,-133.0873 344.32,-136.5872 354.3199,-140.0873 354.32,-133.0873"/>
</g>
<!-- Node145 -->
<g id="node16" class="node">
<title>Node145</title>
<g id="a_node16"><a xlink:href="$ecb_8h.html#a9661ce321dd2649926ebadd2ab9dcd20" xlink:title="ecbDecryptHelper &#45; Helper function used to decrypt the ciphertext pointed to by ">
<polygon fill="#ffffff" stroke="#000000" points="386,-51.0872 386,-70.0872 481,-70.0872 481,-51.0872 386,-51.0872"/>
<text text-anchor="middle" x="433.5" y="-58.0872" font-family="Helvetica,sans-Serif" font-size="10.00" fill="#000000">ecbDecryptHelper</text>
</a>
</g>
</g>
<!-- Node142&#45;&gt;Node145 -->
<g id="edge16" class="edge">
<title>Node142&#45;&gt;Node145</title>
<path fill="none" stroke="#191970" d="M327.7569,-120.2703C342.8968,-107.9889 364.8882,-91.3223 386,-79.5872 392.2105,-76.1351 399.1781,-72.985 405.8231,-70.2854"/>
<polygon fill="#191970" stroke="#191970" points="325.1786,-117.8601 319.693,-126.9243 329.6337,-123.2594 325.1786,-117.8601"/>
</g>
<!-- Node142&#45;&gt;Node147 -->
<g id="edge18" class="edge">
<title>Node142&#45;&gt;Node147</title>
<path fill="none" stroke="#191970" d="M349.7345,-124.0519C366.7393,-118.8824 386.1286,-112.9881 401.9673,-108.1731"/>
<polygon fill="#191970" stroke="#191970" points="348.5924,-120.7408 340.0428,-126.9982 350.6285,-127.4382 348.5924,-120.7408"/>
</g>
<!-- Node145&#45;&gt;Node146 -->
<g id="edge17" class="edge">
<title>Node145&#45;&gt;Node146</title>
<path fill="none" stroke="#191970" d="M491.3346,-60.5872C500.1109,-60.5872 508.9073,-60.5872 516.9333,-60.5872"/>
<polygon fill="#191970" stroke="#191970" points="491.0884,-57.0873 481.0884,-60.5872 491.0883,-64.0873 491.0884,-57.0873"/>
</g>
<!-- Node148&#45;&gt;Node131 -->
<g id="edge20" class="edge">
<title>Node148&#45;&gt;Node131</title>
<path fill="none" stroke="#191970" d="M188.5969,-268.6506C216.0295,-307.988 280.4096,-400.3066 301.6019,-430.6955"/>
<polygon fill="#191970" stroke="#191970" points="191.3439,-266.4709 182.7529,-260.2705 185.6022,-270.475 191.3439,-266.4709"/>
</g>
<!-- Node148&#45;&gt;Node132 -->
<g id="edge22" class="edge">
<title>Node148&#45;&gt;Node132</title>
<path fill="none" stroke="#191970" d="M241.6219,-241.994C274.2382,-237.6064 314.2309,-232.0514 350,-226.5872 372.0861,-223.2132 397.3819,-218.9103 414.2898,-215.971"/>
<polygon fill="#191970" stroke="#191970" points="240.7527,-238.5791 231.306,-243.376 241.6822,-245.5171 240.7527,-238.5791"/>
</g>
<!-- Node148&#45;&gt;Node142 -->
<g id="edge21" class="edge">
<title>Node148&#45;&gt;Node142</title>
<path fill="none" stroke="#191970" d="M195.1992,-234.0687C223.2536,-209.9312 274.5697,-165.7801 297.2317,-146.2821"/>
<polygon fill="#191970" stroke="#191970" points="192.5946,-231.6924 187.2969,-240.8676 197.1601,-236.9987 192.5946,-231.6924"/>
</g>
<!-- Node149&#45;&gt;Node133 -->
<g id="edge24" class="edge">
<title>Node149&#45;&gt;Node133</title>
<path fill="none" stroke="#191970" d="M317.8942,-345.3494C327.0614,-364.234 340.9176,-394.3815 350,-421.5872 371.984,-487.4389 340.6719,-521.0028 386,-573.5872 389.3634,-577.489 393.641,-580.5981 398.2459,-583.0734"/>
<polygon fill="#191970" stroke="#191970" points="321.0169,-343.7681 313.4608,-336.3413 314.7363,-346.8591 321.0169,-343.7681"/>
</g>
<!-- Node149&#45;&gt;Node134 -->
<g id="edge26" class="edge">
<title>Node149&#45;&gt;Node134</title>
<path fill="none" stroke="#191970" d="M317.4523,-345.4605C326.2944,-364.4576 339.9197,-394.7143 350,-421.5872 368.6611,-471.3353 349.8571,-496.6411 386,-535.5872 389.9875,-539.884 395.0762,-543.2281 400.4332,-545.8252"/>
<polygon fill="#191970" stroke="#191970" points="320.5029,-343.7225 313.0849,-336.1579 314.1665,-346.6974 320.5029,-343.7225"/>
</g>
<!-- Node149&#45;&gt;Node135 -->
<g id="edge28" class="edge">
<title>Node149&#45;&gt;Node135</title>
<path fill="none" stroke="#191970" d="M317.0453,-345.9413C336.5749,-390.106 383.0281,-494.7462 386,-497.5872 389.9805,-501.3924 394.819,-504.4689 399.8665,-506.9464"/>
<polygon fill="#191970" stroke="#191970" points="320.147,-344.3011 312.9037,-336.569 313.7443,-347.1305 320.147,-344.3011"/>
</g>
<!-- Node149&#45;&gt;Node136 -->
<g id="edge29" class="edge">
<title>Node149&#45;&gt;Node136</title>
<path fill="none" stroke="#191970" d="M315.1469,-346.0605C325.8271,-374.6516 349.3976,-428.0086 386,-459.5872 390.4384,-463.4164 395.7455,-466.5341 401.1783,-469.0526"/>
<polygon fill="#191970" stroke="#191970" points="318.3566,-344.6424 311.6844,-336.4124 311.768,-347.0069 318.3566,-344.6424"/>
</g>
<!-- Node149&#45;&gt;Node137 -->
<g id="edge30" class="edge">
<title>Node149&#45;&gt;Node137</title>
<path fill="none" stroke="#191970" d="M327.7569,-342.904C342.8968,-355.1855 364.8882,-371.8521 386,-383.5872 392.2105,-387.0393 399.1781,-390.1893 405.8231,-392.8889"/>
<polygon fill="#191970" stroke="#191970" points="329.6337,-339.915 319.693,-336.2501 325.1786,-345.3142 329.6337,-339.915"/>
</g>
<!-- Node149&#45;&gt;Node138 -->
<g id="edge31" class="edge">
<title>Node149&#45;&gt;Node138</title>
<path fill="none" stroke="#191970" d="M349.7345,-339.1225C366.7393,-344.2919 386.1286,-350.1863 401.9673,-355.0012"/>
<polygon fill="#191970" stroke="#191970" points="350.6285,-335.7361 340.0428,-336.1762 348.5924,-342.4335 350.6285,-335.7361"/>
</g>
<!-- Node149&#45;&gt;Node140 -->
<g id="edge32" class="edge">
<title>Node149&#45;&gt;Node140</title>
<path fill="none" stroke="#191970" d="M360.3923,-321.7391C396.5216,-320.7791 444.5643,-324.5098 481,-345.5872 515.8473,-365.7456 538.2188,-411.1359 546.6797,-430.9872"/>
<polygon fill="#191970" stroke="#191970" points="359.9175,-318.2551 350.064,-322.1483 360.1947,-325.2496 359.9175,-318.2551"/>
</g>
<!-- Node149&#45;&gt;Node141 -->
<g id="edge34" class="edge">
<title>Node149&#45;&gt;Node141</title>
<path fill="none" stroke="#191970" d="M349.7345,-314.0519C366.7393,-308.8824 386.1286,-302.9881 401.9673,-298.1731"/>
<polygon fill="#191970" stroke="#191970" points="348.5924,-310.7408 340.0428,-316.9982 350.6285,-317.4382 348.5924,-310.7408"/>
</g>
<!-- Node149&#45;&gt;Node143 -->
<g id="edge25" class="edge">
<title>Node149&#45;&gt;Node143</title>
<path fill="none" stroke="#191970" d="M315.1469,-307.1138C325.8271,-278.5227 349.3976,-225.1658 386,-193.5872 390.4384,-189.7579 395.7455,-186.6403 401.1783,-184.1218"/>
<polygon fill="#191970" stroke="#191970" points="311.768,-306.1675 311.6844,-316.762 318.3566,-308.532 311.768,-306.1675"/>
</g>
<!-- Node149&#45;&gt;Node144 -->
<g id="edge27" class="edge">
<title>Node149&#45;&gt;Node144</title>
<path fill="none" stroke="#191970" d="M312.3226,-307.1009C320.1407,-272.1519 341.1421,-198.4697 386,-155.5872 389.9805,-151.782 394.819,-148.7055 399.8665,-146.2279"/>
<polygon fill="#191970" stroke="#191970" points="308.8741,-306.4916 310.2339,-316.9988 315.7233,-307.937 308.8741,-306.4916"/>
</g>
<!-- Node149&#45;&gt;Node146 -->
<g id="edge33" class="edge">
<title>Node149&#45;&gt;Node146</title>
<path fill="none" stroke="#191970" d="M327.7569,-310.2703C342.8968,-297.9889 364.8882,-281.3223 386,-269.5872 425.747,-247.4936 448.7557,-263.6536 481,-231.5872 528.9443,-183.9074 545.0693,-98.6582 549.2568,-70.161"/>
<polygon fill="#191970" stroke="#191970" points="325.1786,-307.8601 319.693,-316.9243 329.6337,-313.2594 325.1786,-307.8601"/>
</g>
<!-- Node149&#45;&gt;Node147 -->
<g id="edge35" class="edge">
<title>Node149&#45;&gt;Node147</title>
<path fill="none" stroke="#191970" d="M310.509,-306.8035C315.6592,-266.058 332.9103,-172.0434 386,-117.5872 389.72,-113.7714 394.3056,-110.7005 399.1465,-108.2351"/>
<polygon fill="#191970" stroke="#191970" points="307.0242,-306.4714 309.3575,-316.8061 313.9783,-307.272 307.0242,-306.4714"/>
</g>
</g>
</svg>
