<?xml version="1.0" encoding="UTF-8" standalone="no"?>
<!DOCTYPE svg PUBLIC "-//W3C//DTD SVG 1.1//EN"
 "http://www.w3.org/Graphics/SVG/1.1/DTD/svg11.dtd">
<!-- Generated by graphviz version 2.40.1 (20161225.0304)
 -->
<!-- Title: getRoundKey Pages: 1 -->
<svg width="425pt" height="484pt"
 viewBox="0.00 0.00 425.00 484.00" xmlns="http://www.w3.org/2000/svg" xmlns:xlink="http://www.w3.org/1999/xlink">
<g id="graph0" class="graph" transform="scale(1 1) rotate(0) translate(4 480)">
<title>getRoundKey</title>
<polygon fill="#ffffff" stroke="transparent" points="-4,4 -4,-480 421,-480 421,4 -4,4"/>
<!-- Node202 -->
<g id="node1" class="node">
<title>Node202</title>
<polygon fill="#bfbfbf" stroke="#000000" points="0,-171.5 0,-190.5 76,-190.5 76,-171.5 0,-171.5"/>
<text text-anchor="middle" x="38" y="-178.5" font-family="Helvetica,sans-Serif" font-size="10.00" fill="#000000">getRoundKey</text>
</g>
<!-- Node203 -->
<g id="node2" class="node">
<title>Node203</title>
<g id="a_node2"><a xlink:href="$_a_e_s_8h.html#a0ac21e951d3e46598708ab8fd8bc61c5" xlink:title="AESEncrypt &#45; Function to encrypt a single block of plaintext passed in as parameter &#160;plainText using ...">
<polygon fill="#ffffff" stroke="#000000" points="112,-285.5 112,-304.5 183,-304.5 183,-285.5 112,-285.5"/>
<text text-anchor="middle" x="147.5" y="-292.5" font-family="Helvetica,sans-Serif" font-size="10.00" fill="#000000">AESEncrypt</text>
</a>
</g>
</g>
<!-- Node202&#45;&gt;Node203 -->
<g id="edge1" class="edge">
<title>Node202&#45;&gt;Node203</title>
<path fill="none" stroke="#191970" d="M54.4703,-198.1472C77.7805,-222.4153 119.6209,-265.9752 138.1877,-285.305"/>
<polygon fill="#191970" stroke="#191970" points="56.7874,-195.507 47.3359,-190.7196 51.739,-200.3561 56.7874,-195.507"/>
</g>
<!-- Node214 -->
<g id="node13" class="node">
<title>Node214</title>
<g id="a_node13"><a xlink:href="$_a_e_s_8h.html#aea7dd7439aa08f23e6fecd32d4055ac3" xlink:title="AESDecrypt &#45; Function to decrypt a single block of ciphertext passed in as parameter &#160;cipherText usin...">
<polygon fill="#ffffff" stroke="#000000" points="112,-95.5 112,-114.5 183,-114.5 183,-95.5 112,-95.5"/>
<text text-anchor="middle" x="147.5" y="-102.5" font-family="Helvetica,sans-Serif" font-size="10.00" fill="#000000">AESDecrypt</text>
</a>
</g>
</g>
<!-- Node202&#45;&gt;Node214 -->
<g id="edge12" class="edge">
<title>Node202&#45;&gt;Node214</title>
<path fill="none" stroke="#191970" d="M60.2783,-165.5374C82.2984,-150.2541 115.2911,-127.3551 133.7444,-114.5473"/>
<polygon fill="#191970" stroke="#191970" points="58.0878,-162.7973 51.8683,-171.3745 62.0791,-168.548 58.0878,-162.7973"/>
</g>
<!-- Node204 -->
<g id="node3" class="node">
<title>Node204</title>
<g id="a_node3"><a xlink:href="$aes_tester_8c.html#a0ddf1224851353fc92bfbff6f499fa97" xlink:title="main">
<polygon fill="#ffffff" stroke="#000000" points="247.5,-152.5 247.5,-171.5 285.5,-171.5 285.5,-152.5 247.5,-152.5"/>
<text text-anchor="middle" x="266.5" y="-159.5" font-family="Helvetica,sans-Serif" font-size="10.00" fill="#000000">main</text>
</a>
</g>
</g>
<!-- Node203&#45;&gt;Node204 -->
<g id="edge2" class="edge">
<title>Node203&#45;&gt;Node204</title>
<path fill="none" stroke="#191970" d="M155.018,-275.8522C165.7263,-250.8515 187.6136,-207.1992 219,-181 227.1822,-174.1701 238.1306,-169.5684 247.454,-166.6067"/>
<polygon fill="#191970" stroke="#191970" points="151.6907,-274.7403 151.118,-285.3197 158.1631,-277.4066 151.6907,-274.7403"/>
</g>
<!-- Node205 -->
<g id="node4" class="node">
<title>Node205</title>
<g id="a_node4"><a xlink:href="$cbc_8h.html#ad055b3ad2664ace8ba1ab68a481dc1b3" xlink:title="cbcEncryptFile &#45; Function to encrypt the file with name ">
<polygon fill="#ffffff" stroke="#000000" points="225.5,-456.5 225.5,-475.5 307.5,-475.5 307.5,-456.5 225.5,-456.5"/>
<text text-anchor="middle" x="266.5" y="-463.5" font-family="Helvetica,sans-Serif" font-size="10.00" fill="#000000">cbcEncryptFile</text>
</a>
</g>
</g>
<!-- Node203&#45;&gt;Node205 -->
<g id="edge3" class="edge">
<title>Node203&#45;&gt;Node205</title>
<path fill="none" stroke="#191970" d="M151.7522,-314.5021C159.6554,-346.3718 179.5135,-409.7837 219,-447 223.0073,-450.7769 227.8597,-453.8388 232.9128,-456.3106"/>
<polygon fill="#191970" stroke="#191970" points="155.1306,-313.578 149.4428,-304.6394 148.315,-315.174 155.1306,-313.578"/>
</g>
<!-- Node206 -->
<g id="node5" class="node">
<title>Node206</title>
<g id="a_node5"><a xlink:href="$cbc_8h.html#a90f1f37609cf336c57cd0300282c1dac" xlink:title="cbcEncrypt &#45; Function to encrypt the user input pointed to by ">
<polygon fill="#ffffff" stroke="#000000" points="233.5,-418.5 233.5,-437.5 299.5,-437.5 299.5,-418.5 233.5,-418.5"/>
<text text-anchor="middle" x="266.5" y="-425.5" font-family="Helvetica,sans-Serif" font-size="10.00" fill="#000000">cbcEncrypt</text>
</a>
</g>
</g>
<!-- Node203&#45;&gt;Node206 -->
<g id="edge4" class="edge">
<title>Node203&#45;&gt;Node206</title>
<path fill="none" stroke="#191970" d="M155.018,-314.1478C165.7263,-339.1485 187.6136,-382.8008 219,-409 223.5002,-412.7565 228.8372,-415.8389 234.2804,-418.3451"/>
<polygon fill="#191970" stroke="#191970" points="158.1631,-312.5934 151.118,-304.6803 151.6907,-315.2597 158.1631,-312.5934"/>
</g>
<!-- Node207 -->
<g id="node6" class="node">
<title>Node207</title>
<g id="a_node6"><a xlink:href="$cfb_8h.html#a9384de325e389ba7809b7ee98320f485" xlink:title="cfbEncryptFile &#45; Function to encrypt the file with name ">
<polygon fill="#ffffff" stroke="#000000" points="226.5,-380.5 226.5,-399.5 306.5,-399.5 306.5,-380.5 226.5,-380.5"/>
<text text-anchor="middle" x="266.5" y="-387.5" font-family="Helvetica,sans-Serif" font-size="10.00" fill="#000000">cfbEncryptFile</text>
</a>
</g>
</g>
<!-- Node203&#45;&gt;Node207 -->
<g id="edge5" class="edge">
<title>Node203&#45;&gt;Node207</title>
<path fill="none" stroke="#191970" d="M160.416,-312.6734C173.548,-329.5843 195.289,-354.8409 219,-371 224.4312,-374.7014 230.6914,-377.8505 236.8476,-380.4573"/>
<polygon fill="#191970" stroke="#191970" points="163.1944,-310.5448 154.3687,-304.6832 157.6127,-314.7692 163.1944,-310.5448"/>
</g>
<!-- Node208 -->
<g id="node7" class="node">
<title>Node208</title>
<g id="a_node7"><a xlink:href="$cfb_8h.html#a6dce0b90ab3948c3df032eb61c2a64ea" xlink:title="cfbDecryptFile &#45; Function to decrypt the file with name ">
<polygon fill="#ffffff" stroke="#000000" points="226.5,-342.5 226.5,-361.5 306.5,-361.5 306.5,-342.5 226.5,-342.5"/>
<text text-anchor="middle" x="266.5" y="-349.5" font-family="Helvetica,sans-Serif" font-size="10.00" fill="#000000">cfbDecryptFile</text>
</a>
</g>
</g>
<!-- Node203&#45;&gt;Node208 -->
<g id="edge6" class="edge">
<title>Node203&#45;&gt;Node208</title>
<path fill="none" stroke="#191970" d="M173.4068,-309.6377C186.8364,-317.0023 203.6089,-325.8572 219,-333 226.0897,-336.2902 233.918,-339.5635 241.1394,-342.4428"/>
<polygon fill="#191970" stroke="#191970" points="174.7296,-306.3693 164.2862,-304.5843 171.337,-312.4923 174.7296,-306.3693"/>
</g>
<!-- Node209 -->
<g id="node8" class="node">
<title>Node209</title>
<g id="a_node8"><a xlink:href="$cfb_8h.html#a826aec09cb2af95cb8781d2b4c211182" xlink:title="cfbEncrypt &#45; Function to encrypt the user input pointed to by ">
<polygon fill="#ffffff" stroke="#000000" points="234.5,-304.5 234.5,-323.5 298.5,-323.5 298.5,-304.5 234.5,-304.5"/>
<text text-anchor="middle" x="266.5" y="-311.5" font-family="Helvetica,sans-Serif" font-size="10.00" fill="#000000">cfbEncrypt</text>
</a>
</g>
</g>
<!-- Node203&#45;&gt;Node209 -->
<g id="edge7" class="edge">
<title>Node203&#45;&gt;Node209</title>
<path fill="none" stroke="#191970" d="M193.4341,-302.334C207.1381,-304.522 221.8562,-306.872 234.4659,-308.8853"/>
<polygon fill="#191970" stroke="#191970" points="193.6307,-298.8212 183.2039,-300.7006 192.527,-305.7336 193.6307,-298.8212"/>
</g>
<!-- Node210 -->
<g id="node9" class="node">
<title>Node210</title>
<g id="a_node9"><a xlink:href="$cfb_8h.html#ad6a75d43203e367b8a83f6b7c7f506c6" xlink:title="cfbDecrypt &#45; Function to decrypt the user input pointed to by ">
<polygon fill="#ffffff" stroke="#000000" points="234,-266.5 234,-285.5 299,-285.5 299,-266.5 234,-266.5"/>
<text text-anchor="middle" x="266.5" y="-273.5" font-family="Helvetica,sans-Serif" font-size="10.00" fill="#000000">cfbDecrypt</text>
</a>
</g>
</g>
<!-- Node203&#45;&gt;Node210 -->
<g id="edge8" class="edge">
<title>Node203&#45;&gt;Node210</title>
<path fill="none" stroke="#191970" d="M193.258,-287.6941C206.7231,-285.5442 221.1814,-283.2357 233.6653,-281.2425"/>
<polygon fill="#191970" stroke="#191970" points="192.527,-284.2664 183.2039,-289.2994 193.6307,-291.1788 192.527,-284.2664"/>
</g>
<!-- Node211 -->
<g id="node10" class="node">
<title>Node211</title>
<g id="a_node10"><a xlink:href="$ecb_8h.html#a50ddfe369298c1293b5c57662f569127" xlink:title="ecbEcryptHelper &#45; Helper function used to encrypt the plaintext pointed to by ">
<polygon fill="#ffffff" stroke="#000000" points="222,-228.5 222,-247.5 311,-247.5 311,-228.5 222,-228.5"/>
<text text-anchor="middle" x="266.5" y="-235.5" font-family="Helvetica,sans-Serif" font-size="10.00" fill="#000000">ecbEcryptHelper</text>
</a>
</g>
</g>
<!-- Node203&#45;&gt;Node211 -->
<g id="edge9" class="edge">
<title>Node203&#45;&gt;Node211</title>
<path fill="none" stroke="#191970" d="M173.4068,-280.3623C186.8364,-272.9977 203.6089,-264.1428 219,-257 226.0897,-253.7098 233.918,-250.4365 241.1394,-247.5572"/>
<polygon fill="#191970" stroke="#191970" points="171.337,-277.5077 164.2862,-285.4157 174.7296,-283.6307 171.337,-277.5077"/>
</g>
<!-- Node213 -->
<g id="node12" class="node">
<title>Node213</title>
<g id="a_node12"><a xlink:href="$ecb_8h.html#ab68902caeba7880cf1be8b40e8bb9a50" xlink:title="ecbEncryptFile &#45; Function to encrypt the file with name ">
<polygon fill="#ffffff" stroke="#000000" points="225.5,-190.5 225.5,-209.5 307.5,-209.5 307.5,-190.5 225.5,-190.5"/>
<text text-anchor="middle" x="266.5" y="-197.5" font-family="Helvetica,sans-Serif" font-size="10.00" fill="#000000">ecbEncryptFile</text>
</a>
</g>
</g>
<!-- Node203&#45;&gt;Node213 -->
<g id="edge11" class="edge">
<title>Node203&#45;&gt;Node213</title>
<path fill="none" stroke="#191970" d="M160.416,-277.3266C173.548,-260.4157 195.289,-235.1591 219,-219 224.4312,-215.2986 230.6914,-212.1495 236.8476,-209.5427"/>
<polygon fill="#191970" stroke="#191970" points="157.6127,-275.2308 154.3687,-285.3168 163.1944,-279.4552 157.6127,-275.2308"/>
</g>
<!-- Node212 -->
<g id="node11" class="node">
<title>Node212</title>
<g id="a_node11"><a xlink:href="$ecb_8h.html#aa451eb4920a712afa521f06831277731" xlink:title="ecbEncrypt &#45; Function to encrypt the user input pointed to by ">
<polygon fill="#ffffff" stroke="#000000" points="350.5,-228.5 350.5,-247.5 416.5,-247.5 416.5,-228.5 350.5,-228.5"/>
<text text-anchor="middle" x="383.5" y="-235.5" font-family="Helvetica,sans-Serif" font-size="10.00" fill="#000000">ecbEncrypt</text>
</a>
</g>
</g>
<!-- Node211&#45;&gt;Node212 -->
<g id="edge10" class="edge">
<title>Node211&#45;&gt;Node212</title>
<path fill="none" stroke="#191970" d="M321.3035,-238C331.2224,-238 341.2836,-238 350.3404,-238"/>
<polygon fill="#191970" stroke="#191970" points="321.0665,-234.5001 311.0664,-238 321.0664,-241.5001 321.0665,-234.5001"/>
</g>
<!-- Node214&#45;&gt;Node204 -->
<g id="edge13" class="edge">
<title>Node214&#45;&gt;Node204</title>
<path fill="none" stroke="#191970" d="M173.4068,-119.6377C186.8364,-127.0023 203.6089,-135.8572 219,-143 228.1844,-147.2623 238.6083,-151.4963 247.3466,-154.8819"/>
<polygon fill="#191970" stroke="#191970" points="174.7296,-116.3693 164.2862,-114.5843 171.337,-122.4923 174.7296,-116.3693"/>
</g>
<!-- Node215 -->
<g id="node14" class="node">
<title>Node215</title>
<g id="a_node14"><a xlink:href="$cbc_8h.html#a9375da4cc24b1bedceb0364f2865bcc3" xlink:title="cbcDecryptFile &#45; Function to decrypt the file with name ">
<polygon fill="#ffffff" stroke="#000000" points="225,-114.5 225,-133.5 308,-133.5 308,-114.5 225,-114.5"/>
<text text-anchor="middle" x="266.5" y="-121.5" font-family="Helvetica,sans-Serif" font-size="10.00" fill="#000000">cbcDecryptFile</text>
</a>
</g>
</g>
<!-- Node214&#45;&gt;Node215 -->
<g id="edge14" class="edge">
<title>Node214&#45;&gt;Node215</title>
<path fill="none" stroke="#191970" d="M193.3596,-112.3221C203.7618,-113.983 214.7519,-115.7377 224.9631,-117.3681"/>
<polygon fill="#191970" stroke="#191970" points="193.6307,-108.8212 183.2039,-110.7006 192.527,-115.7336 193.6307,-108.8212"/>
</g>
<!-- Node216 -->
<g id="node15" class="node">
<title>Node216</title>
<g id="a_node15"><a xlink:href="$cbc_8h.html#a95fbad6d45d4b793610fe663939b5f8c" xlink:title="cbcDecrypt &#45; Function to decrypt the user input pointed to by ">
<polygon fill="#ffffff" stroke="#000000" points="233,-76.5 233,-95.5 300,-95.5 300,-76.5 233,-76.5"/>
<text text-anchor="middle" x="266.5" y="-83.5" font-family="Helvetica,sans-Serif" font-size="10.00" fill="#000000">cbcDecrypt</text>
</a>
</g>
</g>
<!-- Node214&#45;&gt;Node216 -->
<g id="edge15" class="edge">
<title>Node214&#45;&gt;Node216</title>
<path fill="none" stroke="#191970" d="M193.082,-97.7222C206.3084,-95.6104 220.5068,-93.3434 232.8592,-91.3712"/>
<polygon fill="#191970" stroke="#191970" points="192.527,-94.2664 183.2039,-99.2994 193.6307,-101.1788 192.527,-94.2664"/>
</g>
<!-- Node217 -->
<g id="node16" class="node">
<title>Node217</title>
<g id="a_node16"><a xlink:href="$ecb_8h.html#a9661ce321dd2649926ebadd2ab9dcd20" xlink:title="ecbDecryptHelper &#45; Helper function used to decrypt the ciphertext pointed to by ">
<polygon fill="#ffffff" stroke="#000000" points="219,-38.5 219,-57.5 314,-57.5 314,-38.5 219,-38.5"/>
<text text-anchor="middle" x="266.5" y="-45.5" font-family="Helvetica,sans-Serif" font-size="10.00" fill="#000000">ecbDecryptHelper</text>
</a>
</g>
</g>
<!-- Node214&#45;&gt;Node217 -->
<g id="edge16" class="edge">
<title>Node214&#45;&gt;Node217</title>
<path fill="none" stroke="#191970" d="M173.4068,-90.3623C186.8364,-82.9977 203.6089,-74.1428 219,-67 226.0897,-63.7098 233.918,-60.4365 241.1394,-57.5572"/>
<polygon fill="#191970" stroke="#191970" points="171.337,-87.5077 164.2862,-95.4157 174.7296,-93.6307 171.337,-87.5077"/>
</g>
<!-- Node219 -->
<g id="node18" class="node">
<title>Node219</title>
<g id="a_node18"><a xlink:href="$ecb_8h.html#ab4c77adefd8655ebd7bc79524f958013" xlink:title="ecbDecryptFile &#45; Function to encrypt the file with name ">
<polygon fill="#ffffff" stroke="#000000" points="225,-.5 225,-19.5 308,-19.5 308,-.5 225,-.5"/>
<text text-anchor="middle" x="266.5" y="-7.5" font-family="Helvetica,sans-Serif" font-size="10.00" fill="#000000">ecbDecryptFile</text>
</a>
</g>
</g>
<!-- Node214&#45;&gt;Node219 -->
<g id="edge18" class="edge">
<title>Node214&#45;&gt;Node219</title>
<path fill="none" stroke="#191970" d="M160.416,-87.3266C173.548,-70.4157 195.289,-45.1591 219,-29 224.4312,-25.2986 230.6914,-22.1495 236.8476,-19.5427"/>
<polygon fill="#191970" stroke="#191970" points="157.6127,-85.2308 154.3687,-95.3168 163.1944,-89.4552 157.6127,-85.2308"/>
</g>
<!-- Node218 -->
<g id="node17" class="node">
<title>Node218</title>
<g id="a_node17"><a xlink:href="$ecb_8h.html#acd982a867b70e4f75f2232c974a1e4ae" xlink:title="ecbDecrypt &#45; Function to decrypt the user input pointed to by ">
<polygon fill="#ffffff" stroke="#000000" points="350,-38.5 350,-57.5 417,-57.5 417,-38.5 350,-38.5"/>
<text text-anchor="middle" x="383.5" y="-45.5" font-family="Helvetica,sans-Serif" font-size="10.00" fill="#000000">ecbDecrypt</text>
</a>
</g>
</g>
<!-- Node217&#45;&gt;Node218 -->
<g id="edge17" class="edge">
<title>Node217&#45;&gt;Node218</title>
<path fill="none" stroke="#191970" d="M324.3346,-48C333.1109,-48 341.9073,-48 349.9333,-48"/>
<polygon fill="#191970" stroke="#191970" points="324.0884,-44.5001 314.0884,-48 324.0883,-51.5001 324.0884,-44.5001"/>
</g>
</g>
</svg>
