<?xml version="1.0" encoding="UTF-8" standalone="no"?>
<!DOCTYPE svg PUBLIC "-//W3C//DTD SVG 1.1//EN"
 "http://www.w3.org/Graphics/SVG/1.1/DTD/svg11.dtd">
<!-- Generated by graphviz version 2.40.1 (20161225.0304)
 -->
<!-- Title: hexToAsciiString Pages: 1 -->
<svg width="337pt" height="522pt"
 viewBox="0.00 0.00 337.00 522.00" xmlns="http://www.w3.org/2000/svg" xmlns:xlink="http://www.w3.org/1999/xlink">
<g id="graph0" class="graph" transform="scale(1 1) rotate(0) translate(4 518)">
<title>hexToAsciiString</title>
<polygon fill="#ffffff" stroke="transparent" points="-4,4 -4,-518 333,-518 333,4 -4,4"/>
<!-- Node264 -->
<g id="node1" class="node">
<title>Node264</title>
<polygon fill="#bfbfbf" stroke="#000000" points="0,-266.5 0,-285.5 91,-285.5 91,-266.5 0,-266.5"/>
<text text-anchor="middle" x="45.5" y="-273.5" font-family="Helvetica,sans-Serif" font-size="10.00" fill="#000000">hexToAsciiString</text>
</g>
<!-- Node265 -->
<g id="node2" class="node">
<title>Node265</title>
<g id="a_node2"><a xlink:href="$_a_e_s_8h.html#afba897e91364663f883cc51ed309dc92" xlink:title="keyHexToAscii &#45; Function to convert a key from a Hex string passed in as a paramter ...">
<polygon fill="#ffffff" stroke="#000000" points="127,-266.5 127,-285.5 210,-285.5 210,-266.5 127,-266.5"/>
<text text-anchor="middle" x="168.5" y="-273.5" font-family="Helvetica,sans-Serif" font-size="10.00" fill="#000000">keyHexToAscii</text>
</a>
</g>
</g>
<!-- Node264&#45;&gt;Node265 -->
<g id="edge1" class="edge">
<title>Node264&#45;&gt;Node265</title>
<path fill="none" stroke="#191970" d="M101.5267,-276C110.0029,-276 118.6189,-276 126.7237,-276"/>
<polygon fill="#191970" stroke="#191970" points="101.3007,-272.5001 91.3007,-276 101.3006,-279.5001 101.3007,-272.5001"/>
</g>
<!-- Node266 -->
<g id="node3" class="node">
<title>Node266</title>
<g id="a_node3"><a xlink:href="$cbc_8h.html#ad055b3ad2664ace8ba1ab68a481dc1b3" xlink:title="cbcEncryptFile &#45; Function to encrypt the file with name ">
<polygon fill="#ffffff" stroke="#000000" points="246.5,-494.5 246.5,-513.5 328.5,-513.5 328.5,-494.5 246.5,-494.5"/>
<text text-anchor="middle" x="287.5" y="-501.5" font-family="Helvetica,sans-Serif" font-size="10.00" fill="#000000">cbcEncryptFile</text>
</a>
</g>
</g>
<!-- Node264&#45;&gt;Node266 -->
<g id="edge24" class="edge">
<title>Node264&#45;&gt;Node266</title>
<path fill="none" stroke="#191970" d="M47.4182,-295.7588C52.4707,-336.278 69.9693,-428.8417 127,-475 160.5654,-502.1664 211.0961,-507.2576 246.4685,-506.9338"/>
<polygon fill="#191970" stroke="#191970" points="50.8933,-295.3399 46.3007,-285.7923 43.9369,-296.12 50.8933,-295.3399"/>
</g>
<!-- Node267 -->
<g id="node4" class="node">
<title>Node267</title>
<g id="a_node4"><a xlink:href="$cbc_8h.html#a9375da4cc24b1bedceb0364f2865bcc3" xlink:title="cbcDecryptFile &#45; Function to decrypt the file with name ">
<polygon fill="#ffffff" stroke="#000000" points="246,-456.5 246,-475.5 329,-475.5 329,-456.5 246,-456.5"/>
<text text-anchor="middle" x="287.5" y="-463.5" font-family="Helvetica,sans-Serif" font-size="10.00" fill="#000000">cbcDecryptFile</text>
</a>
</g>
</g>
<!-- Node264&#45;&gt;Node267 -->
<g id="edge25" class="edge">
<title>Node264&#45;&gt;Node267</title>
<path fill="none" stroke="#191970" d="M48.3282,-295.65C54.8091,-332.7673 74.4464,-412.7934 127,-450 161.3964,-474.3518 210.8214,-475.601 245.7168,-472.4949"/>
<polygon fill="#191970" stroke="#191970" points="51.7565,-294.9231 46.7174,-285.6033 44.8447,-296.0313 51.7565,-294.9231"/>
</g>
<!-- Node268 -->
<g id="node5" class="node">
<title>Node268</title>
<g id="a_node5"><a xlink:href="$cbc_8h.html#a90f1f37609cf336c57cd0300282c1dac" xlink:title="cbcEncrypt &#45; Function to encrypt the user input pointed to by ">
<polygon fill="#ffffff" stroke="#000000" points="254.5,-418.5 254.5,-437.5 320.5,-437.5 320.5,-418.5 254.5,-418.5"/>
<text text-anchor="middle" x="287.5" y="-425.5" font-family="Helvetica,sans-Serif" font-size="10.00" fill="#000000">cbcEncrypt</text>
</a>
</g>
</g>
<!-- Node264&#45;&gt;Node268 -->
<g id="edge26" class="edge">
<title>Node264&#45;&gt;Node268</title>
<path fill="none" stroke="#191970" d="M49.3877,-295.9907C57.2338,-330.178 78.5248,-398.9879 127,-428 165.853,-451.2533 220.0508,-444.9858 254.4577,-437.3057"/>
<polygon fill="#191970" stroke="#191970" points="52.7301,-294.8823 47.2224,-285.8316 45.8839,-296.3415 52.7301,-294.8823"/>
</g>
<!-- Node269 -->
<g id="node6" class="node">
<title>Node269</title>
<g id="a_node6"><a xlink:href="$cbc_8h.html#a95fbad6d45d4b793610fe663939b5f8c" xlink:title="cbcDecrypt &#45; Function to decrypt the user input pointed to by ">
<polygon fill="#ffffff" stroke="#000000" points="254,-380.5 254,-399.5 321,-399.5 321,-380.5 254,-380.5"/>
<text text-anchor="middle" x="287.5" y="-387.5" font-family="Helvetica,sans-Serif" font-size="10.00" fill="#000000">cbcDecrypt</text>
</a>
</g>
</g>
<!-- Node264&#45;&gt;Node269 -->
<g id="edge27" class="edge">
<title>Node264&#45;&gt;Node269</title>
<path fill="none" stroke="#191970" d="M50.8414,-295.6862C60.3522,-326.3696 83.4401,-384.6049 127,-409 172.1682,-434.2958 235.5965,-413.2612 267.5037,-399.5382"/>
<polygon fill="#191970" stroke="#191970" points="54.1007,-294.3609 47.939,-285.7421 47.3811,-296.3222 54.1007,-294.3609"/>
</g>
<!-- Node270 -->
<g id="node7" class="node">
<title>Node270</title>
<g id="a_node7"><a xlink:href="$cfb_8h.html#a9384de325e389ba7809b7ee98320f485" xlink:title="cfbEncryptFile &#45; Function to encrypt the file with name ">
<polygon fill="#ffffff" stroke="#000000" points="247.5,-342.5 247.5,-361.5 327.5,-361.5 327.5,-342.5 247.5,-342.5"/>
<text text-anchor="middle" x="287.5" y="-349.5" font-family="Helvetica,sans-Serif" font-size="10.00" fill="#000000">cfbEncryptFile</text>
</a>
</g>
</g>
<!-- Node264&#45;&gt;Node270 -->
<g id="edge28" class="edge">
<title>Node264&#45;&gt;Node270</title>
<path fill="none" stroke="#191970" d="M72.265,-290.1678C87.898,-298.0113 108.1929,-307.4658 127,-314 167.0324,-327.9085 214.421,-338.436 247.2802,-344.8431"/>
<polygon fill="#191970" stroke="#191970" points="73.6865,-286.9637 63.1887,-285.5327 70.5028,-293.1979 73.6865,-286.9637"/>
</g>
<!-- Node271 -->
<g id="node8" class="node">
<title>Node271</title>
<g id="a_node8"><a xlink:href="$cfb_8h.html#a6dce0b90ab3948c3df032eb61c2a64ea" xlink:title="cfbDecryptFile &#45; Function to decrypt the file with name ">
<polygon fill="#ffffff" stroke="#000000" points="247.5,-304.5 247.5,-323.5 327.5,-323.5 327.5,-304.5 247.5,-304.5"/>
<text text-anchor="middle" x="287.5" y="-311.5" font-family="Helvetica,sans-Serif" font-size="10.00" fill="#000000">cfbDecryptFile</text>
</a>
</g>
</g>
<!-- Node264&#45;&gt;Node271 -->
<g id="edge29" class="edge">
<title>Node264&#45;&gt;Node271</title>
<path fill="none" stroke="#191970" d="M92.6825,-287.9377C103.8826,-290.5106 115.8242,-293.0421 127,-295 167.7663,-302.1421 214.8377,-307.3615 247.4151,-310.5029"/>
<polygon fill="#191970" stroke="#191970" points="93.184,-284.4602 82.6483,-285.5784 91.5818,-291.2744 93.184,-284.4602"/>
</g>
<!-- Node272 -->
<g id="node9" class="node">
<title>Node272</title>
<g id="a_node9"><a xlink:href="$cfb_8h.html#a826aec09cb2af95cb8781d2b4c211182" xlink:title="cfbEncrypt &#45; Function to encrypt the user input pointed to by ">
<polygon fill="#ffffff" stroke="#000000" points="255.5,-266.5 255.5,-285.5 319.5,-285.5 319.5,-266.5 255.5,-266.5"/>
<text text-anchor="middle" x="287.5" y="-273.5" font-family="Helvetica,sans-Serif" font-size="10.00" fill="#000000">cfbEncrypt</text>
</a>
</g>
</g>
<!-- Node264&#45;&gt;Node272 -->
<g id="edge30" class="edge">
<title>Node264&#45;&gt;Node272</title>
<path fill="none" stroke="#191970" d="M88.5306,-264.0297C100.8534,-261.132 114.3706,-258.4527 127,-257 163.6473,-252.7847 173.3773,-252.5763 210,-257 225.4037,-258.8606 242.1632,-262.7299 256.1437,-266.4942"/>
<polygon fill="#191970" stroke="#191970" points="87.382,-260.7077 78.5062,-266.493 89.0525,-267.5055 87.382,-260.7077"/>
</g>
<!-- Node273 -->
<g id="node10" class="node">
<title>Node273</title>
<g id="a_node10"><a xlink:href="$cfb_8h.html#ad6a75d43203e367b8a83f6b7c7f506c6" xlink:title="cfbDecrypt &#45; Function to decrypt the user input pointed to by ">
<polygon fill="#ffffff" stroke="#000000" points="255,-228.5 255,-247.5 320,-247.5 320,-228.5 255,-228.5"/>
<text text-anchor="middle" x="287.5" y="-235.5" font-family="Helvetica,sans-Serif" font-size="10.00" fill="#000000">cfbDecrypt</text>
</a>
</g>
</g>
<!-- Node264&#45;&gt;Node273 -->
<g id="edge31" class="edge">
<title>Node264&#45;&gt;Node273</title>
<path fill="none" stroke="#191970" d="M78.5726,-262.9429C93.1889,-257.7235 110.72,-252.2014 127,-249 170.7111,-240.4044 222.2582,-238.2496 254.9087,-237.8466"/>
<polygon fill="#191970" stroke="#191970" points="77.147,-259.7379 68.9705,-266.4757 79.5641,-266.3074 77.147,-259.7379"/>
</g>
<!-- Node274 -->
<g id="node11" class="node">
<title>Node274</title>
<g id="a_node11"><a xlink:href="$ecb_8h.html#aa451eb4920a712afa521f06831277731" xlink:title="ecbEncrypt &#45; Function to encrypt the user input pointed to by ">
<polygon fill="#ffffff" stroke="#000000" points="254.5,-188.5 254.5,-207.5 320.5,-207.5 320.5,-188.5 254.5,-188.5"/>
<text text-anchor="middle" x="287.5" y="-195.5" font-family="Helvetica,sans-Serif" font-size="10.00" fill="#000000">ecbEncrypt</text>
</a>
</g>
</g>
<!-- Node264&#45;&gt;Node274 -->
<g id="edge32" class="edge">
<title>Node264&#45;&gt;Node274</title>
<path fill="none" stroke="#191970" d="M70.6163,-261.3912C86.385,-252.7228 107.383,-242.0794 127,-235 169.767,-219.5662 221.3235,-209.0311 254.2535,-203.2632"/>
<polygon fill="#191970" stroke="#191970" points="68.544,-258.5404 61.5329,-266.4837 71.9672,-264.6463 68.544,-258.5404"/>
</g>
<!-- Node275 -->
<g id="node12" class="node">
<title>Node275</title>
<g id="a_node12"><a xlink:href="$ecb_8h.html#acd982a867b70e4f75f2232c974a1e4ae" xlink:title="ecbDecrypt &#45; Function to decrypt the user input pointed to by ">
<polygon fill="#ffffff" stroke="#000000" points="254,-145.5 254,-164.5 321,-164.5 321,-145.5 254,-145.5"/>
<text text-anchor="middle" x="287.5" y="-152.5" font-family="Helvetica,sans-Serif" font-size="10.00" fill="#000000">ecbDecrypt</text>
</a>
</g>
</g>
<!-- Node264&#45;&gt;Node275 -->
<g id="edge33" class="edge">
<title>Node264&#45;&gt;Node275</title>
<path fill="none" stroke="#191970" d="M61.8934,-259.0716C77.4266,-243.87 102.0349,-221.871 127,-208 167.9135,-185.2679 220.149,-170.2882 253.7162,-162.225"/>
<polygon fill="#191970" stroke="#191970" points="59.2392,-256.776 54.6438,-266.3223 64.1894,-261.7253 59.2392,-256.776"/>
</g>
<!-- Node276 -->
<g id="node13" class="node">
<title>Node276</title>
<g id="a_node13"><a xlink:href="$ecb_8h.html#ab68902caeba7880cf1be8b40e8bb9a50" xlink:title="ecbEncryptFile &#45; Function to encrypt the file with name ">
<polygon fill="#ffffff" stroke="#000000" points="246.5,-98.5 246.5,-117.5 328.5,-117.5 328.5,-98.5 246.5,-98.5"/>
<text text-anchor="middle" x="287.5" y="-105.5" font-family="Helvetica,sans-Serif" font-size="10.00" fill="#000000">ecbEncryptFile</text>
</a>
</g>
</g>
<!-- Node264&#45;&gt;Node276 -->
<g id="edge34" class="edge">
<title>Node264&#45;&gt;Node276</title>
<path fill="none" stroke="#191970" d="M55.4449,-257.4822C68.8493,-234.1164 94.7895,-194.0815 127,-170 162.8864,-143.1703 211.8217,-126.4956 246.1937,-117.2868"/>
<polygon fill="#191970" stroke="#191970" points="52.2968,-255.9415 50.486,-266.3805 58.4114,-259.3492 52.2968,-255.9415"/>
</g>
<!-- Node277 -->
<g id="node14" class="node">
<title>Node277</title>
<g id="a_node14"><a xlink:href="$ecb_8h.html#ab4c77adefd8655ebd7bc79524f958013" xlink:title="ecbDecryptFile &#45; Function to encrypt the file with name ">
<polygon fill="#ffffff" stroke="#000000" points="246,-41.5 246,-60.5 329,-60.5 329,-41.5 246,-41.5"/>
<text text-anchor="middle" x="287.5" y="-48.5" font-family="Helvetica,sans-Serif" font-size="10.00" fill="#000000">ecbDecryptFile</text>
</a>
</g>
</g>
<!-- Node264&#45;&gt;Node277 -->
<g id="edge35" class="edge">
<title>Node264&#45;&gt;Node277</title>
<path fill="none" stroke="#191970" d="M51.3207,-256.693C61.7318,-225.1041 86.3401,-162.0874 127,-124 162.0749,-91.1442 214.4945,-71.1318 249.7923,-60.5671"/>
<polygon fill="#191970" stroke="#191970" points="47.9091,-255.8733 48.2273,-266.4633 54.5826,-257.9863 47.9091,-255.8733"/>
</g>
<!-- Node278 -->
<g id="node15" class="node">
<title>Node278</title>
<g id="a_node15"><a xlink:href="$_a_e_s_8h.html#ad82d1b77336ac1292ed5a24b92380f42" xlink:title="IVHexToAscii &#45; Function to convert a initialization vector from a Hex string passed in as a paramter...">
<polygon fill="#ffffff" stroke="#000000" points="130,-380.5 130,-399.5 207,-399.5 207,-380.5 130,-380.5"/>
<text text-anchor="middle" x="168.5" y="-387.5" font-family="Helvetica,sans-Serif" font-size="10.00" fill="#000000">IVHexToAscii</text>
</a>
</g>
</g>
<!-- Node264&#45;&gt;Node278 -->
<g id="edge14" class="edge">
<title>Node264&#45;&gt;Node278</title>
<path fill="none" stroke="#191970" d="M58.6449,-293.5234C73.7104,-312.8327 99.8431,-344.0563 127,-366 133.7326,-371.4402 141.8441,-376.4212 149.103,-380.4182"/>
<polygon fill="#191970" stroke="#191970" points="61.4027,-291.368 52.5377,-285.566 55.8496,-295.6299 61.4027,-291.368"/>
</g>
<!-- Node279 -->
<g id="node16" class="node">
<title>Node279</title>
<g id="a_node16"><a xlink:href="$aes_tester_8c.html#a0ddf1224851353fc92bfbff6f499fa97" xlink:title="main">
<polygon fill="#ffffff" stroke="#000000" points="149.5,-.5 149.5,-19.5 187.5,-19.5 187.5,-.5 149.5,-.5"/>
<text text-anchor="middle" x="168.5" y="-7.5" font-family="Helvetica,sans-Serif" font-size="10.00" fill="#000000">main</text>
</a>
</g>
</g>
<!-- Node264&#45;&gt;Node279 -->
<g id="edge23" class="edge">
<title>Node264&#45;&gt;Node279</title>
<path fill="none" stroke="#191970" d="M47.464,-255.9257C52.7631,-211.3182 70.9645,-102.4974 127,-34 132.9023,-26.785 141.5835,-21.2894 149.4823,-17.3897"/>
<polygon fill="#191970" stroke="#191970" points="43.9652,-255.7249 46.357,-266.0462 50.9237,-256.486 43.9652,-255.7249"/>
</g>
<!-- Node265&#45;&gt;Node266 -->
<g id="edge2" class="edge">
<title>Node265&#45;&gt;Node266</title>
<path fill="none" stroke="#191970" d="M177.4523,-294.8733C186.2944,-313.8704 199.9197,-344.1271 210,-371 228.6611,-420.7481 210.8188,-445.183 246,-485 249.358,-488.8004 253.6307,-491.8881 258.1509,-494.382"/>
<polygon fill="#191970" stroke="#191970" points="180.5029,-293.1354 173.0849,-285.5707 174.1665,-296.1102 180.5029,-293.1354"/>
</g>
<!-- Node265&#45;&gt;Node267 -->
<g id="edge3" class="edge">
<title>Node265&#45;&gt;Node267</title>
<path fill="none" stroke="#191970" d="M177.0547,-295.3445C196.6046,-339.4885 243.0984,-444.0873 246,-447 249.8029,-450.8174 254.5136,-453.9474 259.3815,-456.4858"/>
<polygon fill="#191970" stroke="#191970" points="180.1565,-293.7047 172.9087,-285.9768 173.7554,-296.5377 180.1565,-293.7047"/>
</g>
<!-- Node265&#45;&gt;Node268 -->
<g id="edge4" class="edge">
<title>Node265&#45;&gt;Node268</title>
<path fill="none" stroke="#191970" d="M175.3488,-295.245C186.286,-323.5455 210.1796,-376.537 246,-409 250.1101,-412.7249 255.0754,-415.8333 260.1208,-418.3839"/>
<polygon fill="#191970" stroke="#191970" points="178.5645,-293.8507 171.7936,-285.7017 172.0049,-296.2945 178.5645,-293.8507"/>
</g>
<!-- Node265&#45;&gt;Node269 -->
<g id="edge5" class="edge">
<title>Node265&#45;&gt;Node269</title>
<path fill="none" stroke="#191970" d="M179.5904,-294.1208C193.1025,-314.9591 217.6658,-349.1038 246,-371 250.7652,-374.6825 256.3587,-377.8531 261.8686,-380.4911"/>
<polygon fill="#191970" stroke="#191970" points="182.4889,-292.1557 174.186,-285.5745 176.5726,-295.8971 182.4889,-292.1557"/>
</g>
<!-- Node265&#45;&gt;Node270 -->
<g id="edge6" class="edge">
<title>Node265&#45;&gt;Node270</title>
<path fill="none" stroke="#191970" d="M188.188,-292.2368C203.4063,-304.3445 225.3013,-320.8237 246,-333 251.7371,-336.375 258.1774,-339.5808 264.2417,-342.365"/>
<polygon fill="#191970" stroke="#191970" points="190.0395,-289.2335 180.0588,-285.6787 185.6442,-294.6817 190.0395,-289.2335"/>
</g>
<!-- Node265&#45;&gt;Node271 -->
<g id="edge7" class="edge">
<title>Node265&#45;&gt;Node271</title>
<path fill="none" stroke="#191970" d="M208.2098,-288.6804C224.2886,-293.8148 242.5433,-299.6441 257.4809,-304.4141"/>
<polygon fill="#191970" stroke="#191970" points="209.1195,-285.2969 198.5287,-285.589 206.9901,-291.9652 209.1195,-285.2969"/>
</g>
<!-- Node265&#45;&gt;Node272 -->
<g id="edge8" class="edge">
<title>Node265&#45;&gt;Node272</title>
<path fill="none" stroke="#191970" d="M220.4378,-276C232.3547,-276 244.6829,-276 255.4683,-276"/>
<polygon fill="#191970" stroke="#191970" points="220.1205,-272.5001 210.1204,-276 220.1204,-279.5001 220.1205,-272.5001"/>
</g>
<!-- Node265&#45;&gt;Node273 -->
<g id="edge9" class="edge">
<title>Node265&#45;&gt;Node273</title>
<path fill="none" stroke="#191970" d="M208.2098,-263.3196C224.2886,-258.1852 242.5433,-252.3559 257.4809,-247.5859"/>
<polygon fill="#191970" stroke="#191970" points="206.9901,-260.0348 198.5287,-266.411 209.1195,-266.7031 206.9901,-260.0348"/>
</g>
<!-- Node265&#45;&gt;Node274 -->
<g id="edge10" class="edge">
<title>Node265&#45;&gt;Node274</title>
<path fill="none" stroke="#191970" d="M188.3275,-259.9952C203.6185,-248.0083 225.5434,-231.5787 246,-219 252.6033,-214.9396 260.0901,-210.9714 266.8691,-207.5972"/>
<polygon fill="#191970" stroke="#191970" points="185.8139,-257.5215 180.1523,-266.4768 190.1627,-263.0067 185.8139,-257.5215"/>
</g>
<!-- Node265&#45;&gt;Node275 -->
<g id="edge11" class="edge">
<title>Node265&#45;&gt;Node275</title>
<path fill="none" stroke="#191970" d="M179.8885,-257.9541C193.6821,-237.1081 218.5112,-202.6515 246,-179 252.4352,-173.4631 260.3306,-168.5284 267.501,-164.5949"/>
<polygon fill="#191970" stroke="#191970" points="176.8601,-256.1915 174.3575,-266.4865 182.7339,-259.9991 176.8601,-256.1915"/>
</g>
<!-- Node265&#45;&gt;Node276 -->
<g id="edge12" class="edge">
<title>Node265&#45;&gt;Node276</title>
<path fill="none" stroke="#191970" d="M175.683,-256.8684C187.1734,-228.1298 211.9126,-173.2259 246,-136 252.6913,-128.6926 261.6528,-122.3408 269.5356,-117.5427"/>
<polygon fill="#191970" stroke="#191970" points="172.42,-255.6026 172.0564,-266.1912 178.9437,-258.1404 172.42,-255.6026"/>
</g>
<!-- Node265&#45;&gt;Node277 -->
<g id="edge13" class="edge">
<title>Node265&#45;&gt;Node277</title>
<path fill="none" stroke="#191970" d="M175.1919,-256.9668C190.011,-215.3588 225.8728,-117.7276 246,-89 253.7356,-77.959 265.1907,-67.7792 274.1073,-60.7405"/>
<polygon fill="#191970" stroke="#191970" points="171.8632,-255.8818 171.8246,-266.4766 178.4618,-258.2184 171.8632,-255.8818"/>
</g>
<!-- Node278&#45;&gt;Node266 -->
<g id="edge15" class="edge">
<title>Node278&#45;&gt;Node266</title>
<path fill="none" stroke="#191970" d="M179.5904,-408.1208C193.1025,-428.9591 217.6658,-463.1038 246,-485 250.7652,-488.6825 256.3587,-491.8531 261.8686,-494.4911"/>
<polygon fill="#191970" stroke="#191970" points="182.4889,-406.1557 174.186,-399.5745 176.5726,-409.8971 182.4889,-406.1557"/>
</g>
<!-- Node278&#45;&gt;Node267 -->
<g id="edge16" class="edge">
<title>Node278&#45;&gt;Node267</title>
<path fill="none" stroke="#191970" d="M188.188,-406.2368C203.4063,-418.3445 225.3013,-434.8237 246,-447 251.7371,-450.375 258.1774,-453.5808 264.2417,-456.365"/>
<polygon fill="#191970" stroke="#191970" points="190.0395,-403.2335 180.0588,-399.6787 185.6442,-408.6817 190.0395,-403.2335"/>
</g>
<!-- Node278&#45;&gt;Node268 -->
<g id="edge17" class="edge">
<title>Node278&#45;&gt;Node268</title>
<path fill="none" stroke="#191970" d="M208.2098,-402.6804C224.2886,-407.8148 242.5433,-413.6441 257.4809,-418.4141"/>
<polygon fill="#191970" stroke="#191970" points="209.1195,-399.2969 198.5287,-399.589 206.9901,-405.9652 209.1195,-399.2969"/>
</g>
<!-- Node278&#45;&gt;Node269 -->
<g id="edge18" class="edge">
<title>Node278&#45;&gt;Node269</title>
<path fill="none" stroke="#191970" d="M217.2682,-390C229.565,-390 242.4943,-390 253.8604,-390"/>
<polygon fill="#191970" stroke="#191970" points="217.1359,-386.5001 207.1359,-390 217.1359,-393.5001 217.1359,-386.5001"/>
</g>
<!-- Node278&#45;&gt;Node270 -->
<g id="edge19" class="edge">
<title>Node278&#45;&gt;Node270</title>
<path fill="none" stroke="#191970" d="M208.2098,-377.3196C224.2886,-372.1852 242.5433,-366.3559 257.4809,-361.5859"/>
<polygon fill="#191970" stroke="#191970" points="206.9901,-374.0348 198.5287,-380.411 209.1195,-380.7031 206.9901,-374.0348"/>
</g>
<!-- Node278&#45;&gt;Node271 -->
<g id="edge20" class="edge">
<title>Node278&#45;&gt;Node271</title>
<path fill="none" stroke="#191970" d="M188.188,-373.7632C203.4063,-361.6555 225.3013,-345.1763 246,-333 251.7371,-329.625 258.1774,-326.4192 264.2417,-323.635"/>
<polygon fill="#191970" stroke="#191970" points="185.6442,-371.3183 180.0588,-380.3213 190.0395,-376.7665 185.6442,-371.3183"/>
</g>
<!-- Node278&#45;&gt;Node272 -->
<g id="edge21" class="edge">
<title>Node278&#45;&gt;Node272</title>
<path fill="none" stroke="#191970" d="M179.5904,-371.8792C193.1025,-351.0409 217.6658,-316.8962 246,-295 250.7652,-291.3175 256.3587,-288.1469 261.8686,-285.5089"/>
<polygon fill="#191970" stroke="#191970" points="176.5726,-370.1029 174.186,-380.4255 182.4889,-373.8443 176.5726,-370.1029"/>
</g>
<!-- Node278&#45;&gt;Node273 -->
<g id="edge22" class="edge">
<title>Node278&#45;&gt;Node273</title>
<path fill="none" stroke="#191970" d="M175.3488,-370.755C186.286,-342.4545 210.1796,-289.463 246,-257 250.1101,-253.2751 255.0754,-250.1667 260.1208,-247.6161"/>
<polygon fill="#191970" stroke="#191970" points="172.0049,-369.7055 171.7936,-380.2983 178.5645,-372.1493 172.0049,-369.7055"/>
</g>
</g>
</svg>
