<?xml version="1.0" encoding="UTF-8" standalone="no"?>
<!DOCTYPE svg PUBLIC "-//W3C//DTD SVG 1.1//EN"
 "http://www.w3.org/Graphics/SVG/1.1/DTD/svg11.dtd">
<!-- Generated by graphviz version 2.40.1 (20161225.0304)
 -->
<!-- Title: subBytes Pages: 1 -->
<svg width="400pt" height="332pt"
 viewBox="0.00 0.00 400.00 332.00" xmlns="http://www.w3.org/2000/svg" xmlns:xlink="http://www.w3.org/1999/xlink">
<g id="graph0" class="graph" transform="scale(1 1) rotate(0) translate(4 328)">
<title>subBytes</title>
<polygon fill="#ffffff" stroke="transparent" points="-4,4 -4,-328 396,-328 396,4 -4,4"/>
<!-- Node522 -->
<g id="node1" class="node">
<title>Node522</title>
<polygon fill="#bfbfbf" stroke="#000000" points="0,-218.5 0,-237.5 58,-237.5 58,-218.5 0,-218.5"/>
<text text-anchor="middle" x="29" y="-225.5" font-family="Helvetica,sans-Serif" font-size="10.00" fill="#000000">subBytes</text>
</g>
<!-- Node523 -->
<g id="node2" class="node">
<title>Node523</title>
<g id="a_node2"><a xlink:href="$_a_e_s_8h.html#a0ac21e951d3e46598708ab8fd8bc61c5" xlink:title="AESEncrypt &#45; Function to encrypt a single block of plaintext passed in as parameter &#160;plainText using ...">
<polygon fill="#ffffff" stroke="#000000" points="94,-171.5 94,-190.5 165,-190.5 165,-171.5 94,-171.5"/>
<text text-anchor="middle" x="129.5" y="-178.5" font-family="Helvetica,sans-Serif" font-size="10.00" fill="#000000">AESEncrypt</text>
</a>
</g>
</g>
<!-- Node522&#45;&gt;Node523 -->
<g id="edge1" class="edge">
<title>Node522&#45;&gt;Node523</title>
<path fill="none" stroke="#191970" d="M58.3997,-214.2509C74.591,-206.6788 94.293,-197.465 108.8476,-190.6583"/>
<polygon fill="#191970" stroke="#191970" points="56.9133,-211.0821 49.3377,-218.4888 59.8788,-217.423 56.9133,-211.0821"/>
</g>
<!-- Node524 -->
<g id="node3" class="node">
<title>Node524</title>
<g id="a_node3"><a xlink:href="$aes_tester_8c.html#a0ddf1224851353fc92bfbff6f499fa97" xlink:title="main">
<polygon fill="#ffffff" stroke="#000000" points="226.5,-304.5 226.5,-323.5 264.5,-323.5 264.5,-304.5 226.5,-304.5"/>
<text text-anchor="middle" x="245.5" y="-311.5" font-family="Helvetica,sans-Serif" font-size="10.00" fill="#000000">main</text>
</a>
</g>
</g>
<!-- Node522&#45;&gt;Node524 -->
<g id="edge12" class="edge">
<title>Node522&#45;&gt;Node524</title>
<path fill="none" stroke="#191970" d="M62.523,-241.3163C108.5233,-259.5889 189.6848,-291.8286 226.4502,-306.4329"/>
<polygon fill="#191970" stroke="#191970" points="63.5822,-237.9711 52.9965,-237.5321 60.998,-244.4766 63.5822,-237.9711"/>
</g>
<!-- Node523&#45;&gt;Node524 -->
<g id="edge2" class="edge">
<title>Node523&#45;&gt;Node524</title>
<path fill="none" stroke="#191970" d="M137.1092,-200.0397C147.9185,-224.921 169.9174,-268.4411 201,-295 208.2807,-301.221 217.9015,-305.6692 226.3345,-308.6899"/>
<polygon fill="#191970" stroke="#191970" points="140.2569,-198.495 133.1678,-190.6213 133.7995,-201.1973 140.2569,-198.495"/>
</g>
<!-- Node525 -->
<g id="node4" class="node">
<title>Node525</title>
<g id="a_node4"><a xlink:href="$cbc_8h.html#ad055b3ad2664ace8ba1ab68a481dc1b3" xlink:title="cbcEncryptFile &#45; Function to encrypt the file with name ">
<polygon fill="#ffffff" stroke="#000000" points="204.5,-266.5 204.5,-285.5 286.5,-285.5 286.5,-266.5 204.5,-266.5"/>
<text text-anchor="middle" x="245.5" y="-273.5" font-family="Helvetica,sans-Serif" font-size="10.00" fill="#000000">cbcEncryptFile</text>
</a>
</g>
</g>
<!-- Node523&#45;&gt;Node525 -->
<g id="edge3" class="edge">
<title>Node523&#45;&gt;Node525</title>
<path fill="none" stroke="#191970" d="M142.4978,-198.5548C155.6911,-215.3769 177.4766,-240.569 201,-257 206.2339,-260.6559 212.2822,-263.8157 218.2,-266.4517"/>
<polygon fill="#191970" stroke="#191970" points="145.2754,-196.4252 136.4181,-190.6116 139.7168,-200.6798 145.2754,-196.4252"/>
</g>
<!-- Node526 -->
<g id="node5" class="node">
<title>Node526</title>
<g id="a_node5"><a xlink:href="$cbc_8h.html#a90f1f37609cf336c57cd0300282c1dac" xlink:title="cbcEncrypt &#45; Function to encrypt the user input pointed to by ">
<polygon fill="#ffffff" stroke="#000000" points="212.5,-228.5 212.5,-247.5 278.5,-247.5 278.5,-228.5 212.5,-228.5"/>
<text text-anchor="middle" x="245.5" y="-235.5" font-family="Helvetica,sans-Serif" font-size="10.00" fill="#000000">cbcEncrypt</text>
</a>
</g>
</g>
<!-- Node523&#45;&gt;Node526 -->
<g id="edge4" class="edge">
<title>Node523&#45;&gt;Node526</title>
<path fill="none" stroke="#191970" d="M155.7459,-195.6363C169.148,-202.9336 185.7943,-211.7293 201,-219 207.6692,-222.1889 215.0116,-225.4306 221.7764,-228.3119"/>
<polygon fill="#191970" stroke="#191970" points="157.0779,-192.3748 146.6276,-190.6308 153.7094,-198.511 157.0779,-192.3748"/>
</g>
<!-- Node527 -->
<g id="node6" class="node">
<title>Node527</title>
<g id="a_node6"><a xlink:href="$cfb_8h.html#a9384de325e389ba7809b7ee98320f485" xlink:title="cfbEncryptFile &#45; Function to encrypt the file with name ">
<polygon fill="#ffffff" stroke="#000000" points="205.5,-190.5 205.5,-209.5 285.5,-209.5 285.5,-190.5 205.5,-190.5"/>
<text text-anchor="middle" x="245.5" y="-197.5" font-family="Helvetica,sans-Serif" font-size="10.00" fill="#000000">cfbEncryptFile</text>
</a>
</g>
</g>
<!-- Node523&#45;&gt;Node527 -->
<g id="edge5" class="edge">
<title>Node523&#45;&gt;Node527</title>
<path fill="none" stroke="#191970" d="M175.3137,-188.504C185.191,-190.1218 195.562,-191.8205 205.2099,-193.4008"/>
<polygon fill="#191970" stroke="#191970" points="175.6846,-185.0182 165.2503,-186.8557 174.5531,-191.9261 175.6846,-185.0182"/>
</g>
<!-- Node528 -->
<g id="node7" class="node">
<title>Node528</title>
<g id="a_node7"><a xlink:href="$cfb_8h.html#a6dce0b90ab3948c3df032eb61c2a64ea" xlink:title="cfbDecryptFile &#45; Function to decrypt the file with name ">
<polygon fill="#ffffff" stroke="#000000" points="205.5,-152.5 205.5,-171.5 285.5,-171.5 285.5,-152.5 205.5,-152.5"/>
<text text-anchor="middle" x="245.5" y="-159.5" font-family="Helvetica,sans-Serif" font-size="10.00" fill="#000000">cfbDecryptFile</text>
</a>
</g>
</g>
<!-- Node523&#45;&gt;Node528 -->
<g id="edge6" class="edge">
<title>Node523&#45;&gt;Node528</title>
<path fill="none" stroke="#191970" d="M175.3137,-173.496C185.191,-171.8782 195.562,-170.1795 205.2099,-168.5992"/>
<polygon fill="#191970" stroke="#191970" points="174.5531,-170.0739 165.2503,-175.1443 175.6846,-176.9818 174.5531,-170.0739"/>
</g>
<!-- Node529 -->
<g id="node8" class="node">
<title>Node529</title>
<g id="a_node8"><a xlink:href="$cfb_8h.html#a826aec09cb2af95cb8781d2b4c211182" xlink:title="cfbEncrypt &#45; Function to encrypt the user input pointed to by ">
<polygon fill="#ffffff" stroke="#000000" points="213.5,-114.5 213.5,-133.5 277.5,-133.5 277.5,-114.5 213.5,-114.5"/>
<text text-anchor="middle" x="245.5" y="-121.5" font-family="Helvetica,sans-Serif" font-size="10.00" fill="#000000">cfbEncrypt</text>
</a>
</g>
</g>
<!-- Node523&#45;&gt;Node529 -->
<g id="edge7" class="edge">
<title>Node523&#45;&gt;Node529</title>
<path fill="none" stroke="#191970" d="M155.7459,-166.3637C169.148,-159.0664 185.7943,-150.2707 201,-143 207.6692,-139.8111 215.0116,-136.5694 221.7764,-133.6881"/>
<polygon fill="#191970" stroke="#191970" points="153.7094,-163.489 146.6276,-171.3692 157.0779,-169.6252 153.7094,-163.489"/>
</g>
<!-- Node530 -->
<g id="node9" class="node">
<title>Node530</title>
<g id="a_node9"><a xlink:href="$cfb_8h.html#ad6a75d43203e367b8a83f6b7c7f506c6" xlink:title="cfbDecrypt &#45; Function to decrypt the user input pointed to by ">
<polygon fill="#ffffff" stroke="#000000" points="213,-76.5 213,-95.5 278,-95.5 278,-76.5 213,-76.5"/>
<text text-anchor="middle" x="245.5" y="-83.5" font-family="Helvetica,sans-Serif" font-size="10.00" fill="#000000">cfbDecrypt</text>
</a>
</g>
</g>
<!-- Node523&#45;&gt;Node530 -->
<g id="edge8" class="edge">
<title>Node523&#45;&gt;Node530</title>
<path fill="none" stroke="#191970" d="M142.4978,-163.4452C155.6911,-146.6231 177.4766,-121.431 201,-105 206.2339,-101.3441 212.2822,-98.1843 218.2,-95.5483"/>
<polygon fill="#191970" stroke="#191970" points="139.7168,-161.3202 136.4181,-171.3884 145.2754,-165.5748 139.7168,-161.3202"/>
</g>
<!-- Node531 -->
<g id="node10" class="node">
<title>Node531</title>
<g id="a_node10"><a xlink:href="$ecb_8h.html#a50ddfe369298c1293b5c57662f569127" xlink:title="ecbEcryptHelper &#45; Helper function used to encrypt the plaintext pointed to by ">
<polygon fill="#ffffff" stroke="#000000" points="201,-38.5 201,-57.5 290,-57.5 290,-38.5 201,-38.5"/>
<text text-anchor="middle" x="245.5" y="-45.5" font-family="Helvetica,sans-Serif" font-size="10.00" fill="#000000">ecbEcryptHelper</text>
</a>
</g>
</g>
<!-- Node523&#45;&gt;Node531 -->
<g id="edge9" class="edge">
<title>Node523&#45;&gt;Node531</title>
<path fill="none" stroke="#191970" d="M137.1092,-161.9603C147.9185,-137.079 169.9174,-93.5589 201,-67 205.3428,-63.2892 210.5183,-60.2092 215.7777,-57.6867"/>
<polygon fill="#191970" stroke="#191970" points="133.7995,-160.8027 133.1678,-171.3787 140.2569,-163.505 133.7995,-160.8027"/>
</g>
<!-- Node533 -->
<g id="node12" class="node">
<title>Node533</title>
<g id="a_node12"><a xlink:href="$ecb_8h.html#ab68902caeba7880cf1be8b40e8bb9a50" xlink:title="ecbEncryptFile &#45; Function to encrypt the file with name ">
<polygon fill="#ffffff" stroke="#000000" points="204.5,-.5 204.5,-19.5 286.5,-19.5 286.5,-.5 204.5,-.5"/>
<text text-anchor="middle" x="245.5" y="-7.5" font-family="Helvetica,sans-Serif" font-size="10.00" fill="#000000">ecbEncryptFile</text>
</a>
</g>
</g>
<!-- Node523&#45;&gt;Node533 -->
<g id="edge11" class="edge">
<title>Node523&#45;&gt;Node533</title>
<path fill="none" stroke="#191970" d="M133.8488,-161.5992C141.891,-129.8752 161.9447,-66.6684 201,-29 204.9906,-25.1511 209.8814,-22.0239 214.9429,-19.5021"/>
<polygon fill="#191970" stroke="#191970" points="130.4237,-160.8732 131.4936,-171.4139 137.2304,-162.5067 130.4237,-160.8732"/>
</g>
<!-- Node532 -->
<g id="node11" class="node">
<title>Node532</title>
<g id="a_node11"><a xlink:href="$ecb_8h.html#aa451eb4920a712afa521f06831277731" xlink:title="ecbEncrypt &#45; Function to encrypt the user input pointed to by ">
<polygon fill="#ffffff" stroke="#000000" points="326,-38.5 326,-57.5 392,-57.5 392,-38.5 326,-38.5"/>
<text text-anchor="middle" x="359" y="-45.5" font-family="Helvetica,sans-Serif" font-size="10.00" fill="#000000">ecbEncrypt</text>
</a>
</g>
</g>
<!-- Node531&#45;&gt;Node532 -->
<g id="edge10" class="edge">
<title>Node531&#45;&gt;Node532</title>
<path fill="none" stroke="#191970" d="M300.2228,-48C308.9711,-48 317.7838,-48 325.8278,-48"/>
<polygon fill="#191970" stroke="#191970" points="300.0325,-44.5001 290.0324,-48 300.0324,-51.5001 300.0325,-44.5001"/>
</g>
</g>
</svg>
