<?xml version="1.0" encoding="UTF-8" standalone="no"?>
<!DOCTYPE svg PUBLIC "-//W3C//DTD SVG 1.1//EN"
 "http://www.w3.org/Graphics/SVG/1.1/DTD/svg11.dtd">
<!-- Generated by graphviz version 2.40.1 (20161225.0304)
 -->
<!-- Title: RijndaelKeySchedule Pages: 1 -->
<svg width="459pt" height="484pt"
 viewBox="0.00 0.00 459.00 484.00" xmlns="http://www.w3.org/2000/svg" xmlns:xlink="http://www.w3.org/1999/xlink">
<g id="graph0" class="graph" transform="scale(1 1) rotate(0) translate(4 480)">
<title>RijndaelKeySchedule</title>
<polygon fill="#ffffff" stroke="transparent" points="-4,4 -4,-480 455,-480 455,4 -4,4"/>
<!-- Node447 -->
<g id="node1" class="node">
<title>Node447</title>
<polygon fill="#bfbfbf" stroke="#000000" points="0,-152.5 0,-171.5 110,-171.5 110,-152.5 0,-152.5"/>
<text text-anchor="middle" x="55" y="-159.5" font-family="Helvetica,sans-Serif" font-size="10.00" fill="#000000">RijndaelKeySchedule</text>
</g>
<!-- Node448 -->
<g id="node2" class="node">
<title>Node448</title>
<g id="a_node2"><a xlink:href="$_a_e_s_8h.html#a0ac21e951d3e46598708ab8fd8bc61c5" xlink:title="AESEncrypt &#45; Function to encrypt a single block of plaintext passed in as parameter &#160;plainText using ...">
<polygon fill="#ffffff" stroke="#000000" points="146,-285.5 146,-304.5 217,-304.5 217,-285.5 146,-285.5"/>
<text text-anchor="middle" x="181.5" y="-292.5" font-family="Helvetica,sans-Serif" font-size="10.00" fill="#000000">AESEncrypt</text>
</a>
</g>
</g>
<!-- Node447&#45;&gt;Node448 -->
<g id="edge1" class="edge">
<title>Node447&#45;&gt;Node448</title>
<path fill="none" stroke="#191970" d="M71.2252,-179.0589C98.0363,-207.2477 150.7484,-262.6683 172.1436,-285.1628"/>
<polygon fill="#191970" stroke="#191970" points="73.5255,-176.3988 64.0976,-171.565 68.4533,-181.2231 73.5255,-176.3988"/>
</g>
<!-- Node449 -->
<g id="node3" class="node">
<title>Node449</title>
<g id="a_node3"><a xlink:href="$aes_tester_8c.html#a0ddf1224851353fc92bfbff6f499fa97" xlink:title="main">
<polygon fill="#ffffff" stroke="#000000" points="281.5,-152.5 281.5,-171.5 319.5,-171.5 319.5,-152.5 281.5,-152.5"/>
<text text-anchor="middle" x="300.5" y="-159.5" font-family="Helvetica,sans-Serif" font-size="10.00" fill="#000000">main</text>
</a>
</g>
</g>
<!-- Node447&#45;&gt;Node449 -->
<g id="edge19" class="edge">
<title>Node447&#45;&gt;Node449</title>
<path fill="none" stroke="#191970" d="M120.2767,-162C174.2512,-162 247.3737,-162 281.496,-162"/>
<polygon fill="#191970" stroke="#191970" points="120.095,-158.5001 110.095,-162 120.095,-165.5001 120.095,-158.5001"/>
</g>
<!-- Node459 -->
<g id="node13" class="node">
<title>Node459</title>
<g id="a_node13"><a xlink:href="$_a_e_s_8h.html#aea7dd7439aa08f23e6fecd32d4055ac3" xlink:title="AESDecrypt &#45; Function to decrypt a single block of ciphertext passed in as parameter &#160;cipherText usin...">
<polygon fill="#ffffff" stroke="#000000" points="146,-95.5 146,-114.5 217,-114.5 217,-95.5 146,-95.5"/>
<text text-anchor="middle" x="181.5" y="-102.5" font-family="Helvetica,sans-Serif" font-size="10.00" fill="#000000">AESDecrypt</text>
</a>
</g>
</g>
<!-- Node447&#45;&gt;Node459 -->
<g id="edge12" class="edge">
<title>Node447&#45;&gt;Node459</title>
<path fill="none" stroke="#191970" d="M85.5317,-148.2426C108.6447,-137.8281 139.8013,-123.7892 160.2577,-114.5716"/>
<polygon fill="#191970" stroke="#191970" points="83.8526,-145.1603 76.1733,-152.4595 86.7283,-151.5423 83.8526,-145.1603"/>
</g>
<!-- Node448&#45;&gt;Node449 -->
<g id="edge2" class="edge">
<title>Node448&#45;&gt;Node449</title>
<path fill="none" stroke="#191970" d="M189.018,-275.8522C199.7263,-250.8515 221.6136,-207.1992 253,-181 261.1822,-174.1701 272.1306,-169.5684 281.454,-166.6067"/>
<polygon fill="#191970" stroke="#191970" points="185.6907,-274.7403 185.118,-285.3197 192.1631,-277.4066 185.6907,-274.7403"/>
</g>
<!-- Node450 -->
<g id="node4" class="node">
<title>Node450</title>
<g id="a_node4"><a xlink:href="$cbc_8h.html#ad055b3ad2664ace8ba1ab68a481dc1b3" xlink:title="cbcEncryptFile &#45; Function to encrypt the file with name ">
<polygon fill="#ffffff" stroke="#000000" points="259.5,-304.5 259.5,-323.5 341.5,-323.5 341.5,-304.5 259.5,-304.5"/>
<text text-anchor="middle" x="300.5" y="-311.5" font-family="Helvetica,sans-Serif" font-size="10.00" fill="#000000">cbcEncryptFile</text>
</a>
</g>
</g>
<!-- Node448&#45;&gt;Node450 -->
<g id="edge3" class="edge">
<title>Node448&#45;&gt;Node450</title>
<path fill="none" stroke="#191970" d="M227.1395,-302.287C237.7511,-303.9813 248.9854,-305.775 259.3881,-307.4359"/>
<polygon fill="#191970" stroke="#191970" points="227.6307,-298.8212 217.2039,-300.7006 226.527,-305.7336 227.6307,-298.8212"/>
</g>
<!-- Node451 -->
<g id="node5" class="node">
<title>Node451</title>
<g id="a_node5"><a xlink:href="$cbc_8h.html#a90f1f37609cf336c57cd0300282c1dac" xlink:title="cbcEncrypt &#45; Function to encrypt the user input pointed to by ">
<polygon fill="#ffffff" stroke="#000000" points="267.5,-266.5 267.5,-285.5 333.5,-285.5 333.5,-266.5 267.5,-266.5"/>
<text text-anchor="middle" x="300.5" y="-273.5" font-family="Helvetica,sans-Serif" font-size="10.00" fill="#000000">cbcEncrypt</text>
</a>
</g>
</g>
<!-- Node448&#45;&gt;Node451 -->
<g id="edge4" class="edge">
<title>Node448&#45;&gt;Node451</title>
<path fill="none" stroke="#191970" d="M227.17,-287.7082C240.5157,-285.5773 254.8441,-283.2896 267.2629,-281.3068"/>
<polygon fill="#191970" stroke="#191970" points="226.527,-284.2664 217.2039,-289.2994 227.6307,-291.1788 226.527,-284.2664"/>
</g>
<!-- Node452 -->
<g id="node6" class="node">
<title>Node452</title>
<g id="a_node6"><a xlink:href="$cfb_8h.html#a9384de325e389ba7809b7ee98320f485" xlink:title="cfbEncryptFile &#45; Function to encrypt the file with name ">
<polygon fill="#ffffff" stroke="#000000" points="260.5,-228.5 260.5,-247.5 340.5,-247.5 340.5,-228.5 260.5,-228.5"/>
<text text-anchor="middle" x="300.5" y="-235.5" font-family="Helvetica,sans-Serif" font-size="10.00" fill="#000000">cfbEncryptFile</text>
</a>
</g>
</g>
<!-- Node448&#45;&gt;Node452 -->
<g id="edge5" class="edge">
<title>Node448&#45;&gt;Node452</title>
<path fill="none" stroke="#191970" d="M207.4068,-280.3623C220.8364,-272.9977 237.6089,-264.1428 253,-257 260.0897,-253.7098 267.918,-250.4365 275.1394,-247.5572"/>
<polygon fill="#191970" stroke="#191970" points="205.337,-277.5077 198.2862,-285.4157 208.7296,-283.6307 205.337,-277.5077"/>
</g>
<!-- Node453 -->
<g id="node7" class="node">
<title>Node453</title>
<g id="a_node7"><a xlink:href="$cfb_8h.html#a6dce0b90ab3948c3df032eb61c2a64ea" xlink:title="cfbDecryptFile &#45; Function to decrypt the file with name ">
<polygon fill="#ffffff" stroke="#000000" points="260.5,-190.5 260.5,-209.5 340.5,-209.5 340.5,-190.5 260.5,-190.5"/>
<text text-anchor="middle" x="300.5" y="-197.5" font-family="Helvetica,sans-Serif" font-size="10.00" fill="#000000">cfbDecryptFile</text>
</a>
</g>
</g>
<!-- Node448&#45;&gt;Node453 -->
<g id="edge6" class="edge">
<title>Node448&#45;&gt;Node453</title>
<path fill="none" stroke="#191970" d="M194.416,-277.3266C207.548,-260.4157 229.289,-235.1591 253,-219 258.4312,-215.2986 264.6914,-212.1495 270.8476,-209.5427"/>
<polygon fill="#191970" stroke="#191970" points="191.6127,-275.2308 188.3687,-285.3168 197.1944,-279.4552 191.6127,-275.2308"/>
</g>
<!-- Node454 -->
<g id="node8" class="node">
<title>Node454</title>
<g id="a_node8"><a xlink:href="$cfb_8h.html#a826aec09cb2af95cb8781d2b4c211182" xlink:title="cfbEncrypt &#45; Function to encrypt the user input pointed to by ">
<polygon fill="#ffffff" stroke="#000000" points="268.5,-456.5 268.5,-475.5 332.5,-475.5 332.5,-456.5 268.5,-456.5"/>
<text text-anchor="middle" x="300.5" y="-463.5" font-family="Helvetica,sans-Serif" font-size="10.00" fill="#000000">cfbEncrypt</text>
</a>
</g>
</g>
<!-- Node448&#45;&gt;Node454 -->
<g id="edge7" class="edge">
<title>Node448&#45;&gt;Node454</title>
<path fill="none" stroke="#191970" d="M185.7522,-314.5021C193.6554,-346.3718 213.5135,-409.7837 253,-447 257.3951,-451.1424 262.8068,-454.4248 268.3848,-457.0117"/>
<polygon fill="#191970" stroke="#191970" points="189.1306,-313.578 183.4428,-304.6394 182.315,-315.174 189.1306,-313.578"/>
</g>
<!-- Node455 -->
<g id="node9" class="node">
<title>Node455</title>
<g id="a_node9"><a xlink:href="$cfb_8h.html#ad6a75d43203e367b8a83f6b7c7f506c6" xlink:title="cfbDecrypt &#45; Function to decrypt the user input pointed to by ">
<polygon fill="#ffffff" stroke="#000000" points="268,-418.5 268,-437.5 333,-437.5 333,-418.5 268,-418.5"/>
<text text-anchor="middle" x="300.5" y="-425.5" font-family="Helvetica,sans-Serif" font-size="10.00" fill="#000000">cfbDecrypt</text>
</a>
</g>
</g>
<!-- Node448&#45;&gt;Node455 -->
<g id="edge8" class="edge">
<title>Node448&#45;&gt;Node455</title>
<path fill="none" stroke="#191970" d="M189.018,-314.1478C199.7263,-339.1485 221.6136,-382.8008 253,-409 257.5002,-412.7565 262.8372,-415.8389 268.2804,-418.3451"/>
<polygon fill="#191970" stroke="#191970" points="192.1631,-312.5934 185.118,-304.6803 185.6907,-315.2597 192.1631,-312.5934"/>
</g>
<!-- Node456 -->
<g id="node10" class="node">
<title>Node456</title>
<g id="a_node10"><a xlink:href="$ecb_8h.html#a50ddfe369298c1293b5c57662f569127" xlink:title="ecbEcryptHelper &#45; Helper function used to encrypt the plaintext pointed to by ">
<polygon fill="#ffffff" stroke="#000000" points="256,-380.5 256,-399.5 345,-399.5 345,-380.5 256,-380.5"/>
<text text-anchor="middle" x="300.5" y="-387.5" font-family="Helvetica,sans-Serif" font-size="10.00" fill="#000000">ecbEcryptHelper</text>
</a>
</g>
</g>
<!-- Node448&#45;&gt;Node456 -->
<g id="edge9" class="edge">
<title>Node448&#45;&gt;Node456</title>
<path fill="none" stroke="#191970" d="M194.416,-312.6734C207.548,-329.5843 229.289,-354.8409 253,-371 258.4312,-374.7014 264.6914,-377.8505 270.8476,-380.4573"/>
<polygon fill="#191970" stroke="#191970" points="197.1944,-310.5448 188.3687,-304.6832 191.6127,-314.7692 197.1944,-310.5448"/>
</g>
<!-- Node458 -->
<g id="node12" class="node">
<title>Node458</title>
<g id="a_node12"><a xlink:href="$ecb_8h.html#ab68902caeba7880cf1be8b40e8bb9a50" xlink:title="ecbEncryptFile &#45; Function to encrypt the file with name ">
<polygon fill="#ffffff" stroke="#000000" points="259.5,-342.5 259.5,-361.5 341.5,-361.5 341.5,-342.5 259.5,-342.5"/>
<text text-anchor="middle" x="300.5" y="-349.5" font-family="Helvetica,sans-Serif" font-size="10.00" fill="#000000">ecbEncryptFile</text>
</a>
</g>
</g>
<!-- Node448&#45;&gt;Node458 -->
<g id="edge11" class="edge">
<title>Node448&#45;&gt;Node458</title>
<path fill="none" stroke="#191970" d="M207.4068,-309.6377C220.8364,-317.0023 237.6089,-325.8572 253,-333 260.0897,-336.2902 267.918,-339.5635 275.1394,-342.4428"/>
<polygon fill="#191970" stroke="#191970" points="208.7296,-306.3693 198.2862,-304.5843 205.337,-312.4923 208.7296,-306.3693"/>
</g>
<!-- Node457 -->
<g id="node11" class="node">
<title>Node457</title>
<g id="a_node11"><a xlink:href="$ecb_8h.html#aa451eb4920a712afa521f06831277731" xlink:title="ecbEncrypt &#45; Function to encrypt the user input pointed to by ">
<polygon fill="#ffffff" stroke="#000000" points="384.5,-380.5 384.5,-399.5 450.5,-399.5 450.5,-380.5 384.5,-380.5"/>
<text text-anchor="middle" x="417.5" y="-387.5" font-family="Helvetica,sans-Serif" font-size="10.00" fill="#000000">ecbEncrypt</text>
</a>
</g>
</g>
<!-- Node456&#45;&gt;Node457 -->
<g id="edge10" class="edge">
<title>Node456&#45;&gt;Node457</title>
<path fill="none" stroke="#191970" d="M355.3035,-390C365.2224,-390 375.2836,-390 384.3404,-390"/>
<polygon fill="#191970" stroke="#191970" points="355.0665,-386.5001 345.0664,-390 355.0664,-393.5001 355.0665,-386.5001"/>
</g>
<!-- Node459&#45;&gt;Node449 -->
<g id="edge13" class="edge">
<title>Node459&#45;&gt;Node449</title>
<path fill="none" stroke="#191970" d="M207.4068,-119.6377C220.8364,-127.0023 237.6089,-135.8572 253,-143 262.1844,-147.2623 272.6083,-151.4963 281.3466,-154.8819"/>
<polygon fill="#191970" stroke="#191970" points="208.7296,-116.3693 198.2862,-114.5843 205.337,-122.4923 208.7296,-116.3693"/>
</g>
<!-- Node460 -->
<g id="node14" class="node">
<title>Node460</title>
<g id="a_node14"><a xlink:href="$cbc_8h.html#a9375da4cc24b1bedceb0364f2865bcc3" xlink:title="cbcDecryptFile &#45; Function to decrypt the file with name ">
<polygon fill="#ffffff" stroke="#000000" points="259,-76.5 259,-95.5 342,-95.5 342,-76.5 259,-76.5"/>
<text text-anchor="middle" x="300.5" y="-83.5" font-family="Helvetica,sans-Serif" font-size="10.00" fill="#000000">cbcDecryptFile</text>
</a>
</g>
</g>
<!-- Node459&#45;&gt;Node460 -->
<g id="edge14" class="edge">
<title>Node459&#45;&gt;Node460</title>
<path fill="none" stroke="#191970" d="M227.3596,-97.6779C237.7618,-96.017 248.7519,-94.2623 258.9631,-92.6319"/>
<polygon fill="#191970" stroke="#191970" points="226.527,-94.2664 217.2039,-99.2994 227.6307,-101.1788 226.527,-94.2664"/>
</g>
<!-- Node461 -->
<g id="node15" class="node">
<title>Node461</title>
<g id="a_node15"><a xlink:href="$cbc_8h.html#a95fbad6d45d4b793610fe663939b5f8c" xlink:title="cbcDecrypt &#45; Function to decrypt the user input pointed to by ">
<polygon fill="#ffffff" stroke="#000000" points="267,-38.5 267,-57.5 334,-57.5 334,-38.5 267,-38.5"/>
<text text-anchor="middle" x="300.5" y="-45.5" font-family="Helvetica,sans-Serif" font-size="10.00" fill="#000000">cbcDecrypt</text>
</a>
</g>
</g>
<!-- Node459&#45;&gt;Node461 -->
<g id="edge15" class="edge">
<title>Node459&#45;&gt;Node461</title>
<path fill="none" stroke="#191970" d="M207.4068,-90.3623C220.8364,-82.9977 237.6089,-74.1428 253,-67 260.0897,-63.7098 267.918,-60.4365 275.1394,-57.5572"/>
<polygon fill="#191970" stroke="#191970" points="205.337,-87.5077 198.2862,-95.4157 208.7296,-93.6307 205.337,-87.5077"/>
</g>
<!-- Node462 -->
<g id="node16" class="node">
<title>Node462</title>
<g id="a_node16"><a xlink:href="$ecb_8h.html#a9661ce321dd2649926ebadd2ab9dcd20" xlink:title="ecbDecryptHelper &#45; Helper function used to decrypt the ciphertext pointed to by ">
<polygon fill="#ffffff" stroke="#000000" points="253,-.5 253,-19.5 348,-19.5 348,-.5 253,-.5"/>
<text text-anchor="middle" x="300.5" y="-7.5" font-family="Helvetica,sans-Serif" font-size="10.00" fill="#000000">ecbDecryptHelper</text>
</a>
</g>
</g>
<!-- Node459&#45;&gt;Node462 -->
<g id="edge16" class="edge">
<title>Node459&#45;&gt;Node462</title>
<path fill="none" stroke="#191970" d="M194.416,-87.3266C207.548,-70.4157 229.289,-45.1591 253,-29 258.4312,-25.2986 264.6914,-22.1495 270.8476,-19.5427"/>
<polygon fill="#191970" stroke="#191970" points="191.6127,-85.2308 188.3687,-95.3168 197.1944,-89.4552 191.6127,-85.2308"/>
</g>
<!-- Node464 -->
<g id="node18" class="node">
<title>Node464</title>
<g id="a_node18"><a xlink:href="$ecb_8h.html#ab4c77adefd8655ebd7bc79524f958013" xlink:title="ecbDecryptFile &#45; Function to encrypt the file with name ">
<polygon fill="#ffffff" stroke="#000000" points="259,-114.5 259,-133.5 342,-133.5 342,-114.5 259,-114.5"/>
<text text-anchor="middle" x="300.5" y="-121.5" font-family="Helvetica,sans-Serif" font-size="10.00" fill="#000000">ecbDecryptFile</text>
</a>
</g>
</g>
<!-- Node459&#45;&gt;Node464 -->
<g id="edge18" class="edge">
<title>Node459&#45;&gt;Node464</title>
<path fill="none" stroke="#191970" d="M227.3596,-112.3221C237.7618,-113.983 248.7519,-115.7377 258.9631,-117.3681"/>
<polygon fill="#191970" stroke="#191970" points="227.6307,-108.8212 217.2039,-110.7006 226.527,-115.7336 227.6307,-108.8212"/>
</g>
<!-- Node463 -->
<g id="node17" class="node">
<title>Node463</title>
<g id="a_node17"><a xlink:href="$ecb_8h.html#acd982a867b70e4f75f2232c974a1e4ae" xlink:title="ecbDecrypt &#45; Function to decrypt the user input pointed to by ">
<polygon fill="#ffffff" stroke="#000000" points="384,-.5 384,-19.5 451,-19.5 451,-.5 384,-.5"/>
<text text-anchor="middle" x="417.5" y="-7.5" font-family="Helvetica,sans-Serif" font-size="10.00" fill="#000000">ecbDecrypt</text>
</a>
</g>
</g>
<!-- Node462&#45;&gt;Node463 -->
<g id="edge17" class="edge">
<title>Node462&#45;&gt;Node463</title>
<path fill="none" stroke="#191970" d="M358.3346,-10C367.1109,-10 375.9073,-10 383.9333,-10"/>
<polygon fill="#191970" stroke="#191970" points="358.0884,-6.5001 348.0884,-10 358.0883,-13.5001 358.0884,-6.5001"/>
</g>
</g>
</svg>
