<?xml version="1.0" encoding="UTF-8" standalone="no"?>
<!DOCTYPE svg PUBLIC "-//W3C//DTD SVG 1.1//EN"
 "http://www.w3.org/Graphics/SVG/1.1/DTD/svg11.dtd">
<!-- Generated by graphviz version 2.40.1 (20161225.0304)
 -->
<!-- Title: getPaddedKeyLength Pages: 1 -->
<svg width="471pt" height="638pt"
 viewBox="0.00 0.00 471.00 638.08" xmlns="http://www.w3.org/2000/svg" xmlns:xlink="http://www.w3.org/1999/xlink">
<g id="graph0" class="graph" transform="scale(1 1) rotate(0) translate(4 634.0796)">
<title>getPaddedKeyLength</title>
<polygon fill="#ffffff" stroke="transparent" points="-4,4 -4,-634.0796 467,-634.0796 467,4 -4,4"/>
<!-- Node161 -->
<g id="node1" class="node">
<title>Node161</title>
<polygon fill="#bfbfbf" stroke="#000000" points="0,-334.5796 0,-353.5796 110,-353.5796 110,-334.5796 0,-334.5796"/>
<text text-anchor="middle" x="55" y="-341.5796" font-family="Helvetica,sans-Serif" font-size="10.00" fill="#000000">getPaddedKeyLength</text>
</g>
<!-- Node162 -->
<g id="node2" class="node">
<title>Node162</title>
<g id="a_node2"><a xlink:href="$_a_e_s_8h.html#a0ac21e951d3e46598708ab8fd8bc61c5" xlink:title="AESEncrypt &#45; Function to encrypt a single block of plaintext passed in as parameter &#160;plainText using ...">
<polygon fill="#ffffff" stroke="#000000" points="152,-486.5796 152,-505.5796 223,-505.5796 223,-486.5796 152,-486.5796"/>
<text text-anchor="middle" x="187.5" y="-493.5796" font-family="Helvetica,sans-Serif" font-size="10.00" fill="#000000">AESEncrypt</text>
</a>
</g>
</g>
<!-- Node161&#45;&gt;Node162 -->
<g id="edge1" class="edge">
<title>Node161&#45;&gt;Node162</title>
<path fill="none" stroke="#191970" d="M64.9215,-362.8835C79.76,-389.6694 109.887,-439.2015 146,-472.0796 152.1544,-477.6827 159.8331,-482.5705 166.9061,-486.4468"/>
<polygon fill="#191970" stroke="#191970" points="67.8466,-360.9353 60.0025,-353.8135 61.6933,-364.2725 67.8466,-360.9353"/>
</g>
<!-- Node164 -->
<g id="node4" class="node">
<title>Node164</title>
<g id="a_node4"><a xlink:href="$cbc_8h.html#ad055b3ad2664ace8ba1ab68a481dc1b3" xlink:title="cbcEncryptFile &#45; Function to encrypt the file with name ">
<polygon fill="#ffffff" stroke="#000000" points="271.5,-572.5796 271.5,-591.5796 353.5,-591.5796 353.5,-572.5796 271.5,-572.5796"/>
<text text-anchor="middle" x="312.5" y="-579.5796" font-family="Helvetica,sans-Serif" font-size="10.00" fill="#000000">cbcEncryptFile</text>
</a>
</g>
</g>
<!-- Node161&#45;&gt;Node164 -->
<g id="edge32" class="edge">
<title>Node161&#45;&gt;Node164</title>
<path fill="none" stroke="#191970" d="M58.0986,-363.6549C65.5288,-403.831 88.2301,-495.7879 146,-543.0796 181.493,-572.1349 234.7893,-580.3246 271.4721,-582.2512"/>
<polygon fill="#191970" stroke="#191970" points="61.5434,-363.0343 56.3915,-353.7764 54.6456,-364.2264 61.5434,-363.0343"/>
</g>
<!-- Node165 -->
<g id="node5" class="node">
<title>Node165</title>
<g id="a_node5"><a xlink:href="$cbc_8h.html#a90f1f37609cf336c57cd0300282c1dac" xlink:title="cbcEncrypt &#45; Function to encrypt the user input pointed to by ">
<polygon fill="#ffffff" stroke="#000000" points="279.5,-458.5796 279.5,-477.5796 345.5,-477.5796 345.5,-458.5796 279.5,-458.5796"/>
<text text-anchor="middle" x="312.5" y="-465.5796" font-family="Helvetica,sans-Serif" font-size="10.00" fill="#000000">cbcEncrypt</text>
</a>
</g>
</g>
<!-- Node161&#45;&gt;Node165 -->
<g id="edge34" class="edge">
<title>Node161&#45;&gt;Node165</title>
<path fill="none" stroke="#191970" d="M73.9033,-360.3414C91.5946,-374.9192 119.2409,-396.1027 146,-410.0796 189.9535,-433.0375 244.9535,-450.1655 279.4181,-459.6485"/>
<polygon fill="#191970" stroke="#191970" points="75.9792,-357.5146 66.0658,-353.7762 71.4842,-362.8807 75.9792,-357.5146"/>
</g>
<!-- Node166 -->
<g id="node6" class="node">
<title>Node166</title>
<g id="a_node6"><a xlink:href="$cfb_8h.html#a9384de325e389ba7809b7ee98320f485" xlink:title="cfbEncryptFile &#45; Function to encrypt the file with name ">
<polygon fill="#ffffff" stroke="#000000" points="272.5,-610.5796 272.5,-629.5796 352.5,-629.5796 352.5,-610.5796 272.5,-610.5796"/>
<text text-anchor="middle" x="312.5" y="-617.5796" font-family="Helvetica,sans-Serif" font-size="10.00" fill="#000000">cfbEncryptFile</text>
</a>
</g>
</g>
<!-- Node161&#45;&gt;Node166 -->
<g id="edge36" class="edge">
<title>Node161&#45;&gt;Node166</title>
<path fill="none" stroke="#191970" d="M56.9916,-363.574C62.5524,-407.6548 82.2884,-515.6212 146,-573.0796 180.9072,-604.5607 235.3596,-615.1162 272.4146,-618.5657"/>
<polygon fill="#191970" stroke="#191970" points="60.463,-363.1241 55.8419,-353.5901 53.5089,-363.9249 60.463,-363.1241"/>
</g>
<!-- Node167 -->
<g id="node7" class="node">
<title>Node167</title>
<g id="a_node7"><a xlink:href="$cfb_8h.html#a6dce0b90ab3948c3df032eb61c2a64ea" xlink:title="cfbDecryptFile &#45; Function to decrypt the file with name ">
<polygon fill="#ffffff" stroke="#000000" points="272.5,-534.5796 272.5,-553.5796 352.5,-553.5796 352.5,-534.5796 272.5,-534.5796"/>
<text text-anchor="middle" x="312.5" y="-541.5796" font-family="Helvetica,sans-Serif" font-size="10.00" fill="#000000">cfbDecryptFile</text>
</a>
</g>
</g>
<!-- Node161&#45;&gt;Node167 -->
<g id="edge37" class="edge">
<title>Node161&#45;&gt;Node167</title>
<path fill="none" stroke="#191970" d="M59.3975,-363.6235C68.6382,-399.8472 93.6825,-477.1663 146,-515.0796 182.8261,-541.7667 236.0957,-546.7685 272.3966,-546.5614"/>
<polygon fill="#191970" stroke="#191970" points="62.7728,-362.6899 57.0244,-353.7901 55.9682,-364.3322 62.7728,-362.6899"/>
</g>
<!-- Node168 -->
<g id="node8" class="node">
<title>Node168</title>
<g id="a_node8"><a xlink:href="$cfb_8h.html#a826aec09cb2af95cb8781d2b4c211182" xlink:title="cfbEncrypt &#45; Function to encrypt the user input pointed to by ">
<polygon fill="#ffffff" stroke="#000000" points="280.5,-420.5796 280.5,-439.5796 344.5,-439.5796 344.5,-420.5796 280.5,-420.5796"/>
<text text-anchor="middle" x="312.5" y="-427.5796" font-family="Helvetica,sans-Serif" font-size="10.00" fill="#000000">cfbEncrypt</text>
</a>
</g>
</g>
<!-- Node161&#45;&gt;Node168 -->
<g id="edge38" class="edge">
<title>Node161&#45;&gt;Node168</title>
<path fill="none" stroke="#191970" d="M83.755,-357.9973C101.449,-366.2388 124.7364,-376.5137 146,-384.0796 191.9126,-400.416 246.6251,-414.5475 280.4664,-422.6909"/>
<polygon fill="#191970" stroke="#191970" points="85.0867,-354.7557 74.5489,-353.6581 82.1022,-361.0876 85.0867,-354.7557"/>
</g>
<!-- Node169 -->
<g id="node9" class="node">
<title>Node169</title>
<g id="a_node9"><a xlink:href="$cfb_8h.html#ad6a75d43203e367b8a83f6b7c7f506c6" xlink:title="cfbDecrypt &#45; Function to decrypt the user input pointed to by ">
<polygon fill="#ffffff" stroke="#000000" points="280,-268.5796 280,-287.5796 345,-287.5796 345,-268.5796 280,-268.5796"/>
<text text-anchor="middle" x="312.5" y="-275.5796" font-family="Helvetica,sans-Serif" font-size="10.00" fill="#000000">cfbDecrypt</text>
</a>
</g>
</g>
<!-- Node161&#45;&gt;Node169 -->
<g id="edge39" class="edge">
<title>Node161&#45;&gt;Node169</title>
<path fill="none" stroke="#191970" d="M102.0568,-332.0184C153.5829,-318.8118 234.8508,-297.9819 279.8293,-286.4535"/>
<polygon fill="#191970" stroke="#191970" points="100.9856,-328.6798 92.1677,-334.5531 102.7236,-335.4606 100.9856,-328.6798"/>
</g>
<!-- Node171 -->
<g id="node11" class="node">
<title>Node171</title>
<g id="a_node11"><a xlink:href="$ecb_8h.html#aa451eb4920a712afa521f06831277731" xlink:title="ecbEncrypt &#45; Function to encrypt the user input pointed to by ">
<polygon fill="#ffffff" stroke="#000000" points="396.5,-344.5796 396.5,-363.5796 462.5,-363.5796 462.5,-344.5796 396.5,-344.5796"/>
<text text-anchor="middle" x="429.5" y="-351.5796" font-family="Helvetica,sans-Serif" font-size="10.00" fill="#000000">ecbEncrypt</text>
</a>
</g>
</g>
<!-- Node161&#45;&gt;Node171 -->
<g id="edge40" class="edge">
<title>Node161&#45;&gt;Node171</title>
<path fill="none" stroke="#191970" d="M75.4368,-328.5768C126.0062,-292.2472 260.1163,-208.393 360,-259.0796 396.0823,-277.3898 417.9251,-324.2059 425.9705,-344.4796"/>
<polygon fill="#191970" stroke="#191970" points="73.2568,-325.835 67.257,-334.5672 77.3928,-331.4825 73.2568,-325.835"/>
</g>
<!-- Node172 -->
<g id="node12" class="node">
<title>Node172</title>
<g id="a_node12"><a xlink:href="$ecb_8h.html#ab68902caeba7880cf1be8b40e8bb9a50" xlink:title="ecbEncryptFile &#45; Function to encrypt the file with name ">
<polygon fill="#ffffff" stroke="#000000" points="271.5,-382.5796 271.5,-401.5796 353.5,-401.5796 353.5,-382.5796 271.5,-382.5796"/>
<text text-anchor="middle" x="312.5" y="-389.5796" font-family="Helvetica,sans-Serif" font-size="10.00" fill="#000000">ecbEncryptFile</text>
</a>
</g>
</g>
<!-- Node161&#45;&gt;Node172 -->
<g id="edge42" class="edge">
<title>Node161&#45;&gt;Node172</title>
<path fill="none" stroke="#191970" d="M109.3156,-355.7298C121.3782,-358.2307 134.1114,-360.8038 146,-363.0796 188.6509,-371.2442 237.6357,-379.6611 271.3758,-385.3097"/>
<polygon fill="#191970" stroke="#191970" points="109.8784,-352.2719 99.3741,-353.6542 108.4477,-359.1242 109.8784,-352.2719"/>
</g>
<!-- Node173 -->
<g id="node13" class="node">
<title>Node173</title>
<g id="a_node13"><a xlink:href="$_a_e_s_8h.html#aea7dd7439aa08f23e6fecd32d4055ac3" xlink:title="AESDecrypt &#45; Function to decrypt a single block of ciphertext passed in as parameter &#160;cipherText usin...">
<polygon fill="#ffffff" stroke="#000000" points="152,-133.5796 152,-152.5796 223,-152.5796 223,-133.5796 152,-133.5796"/>
<text text-anchor="middle" x="187.5" y="-140.5796" font-family="Helvetica,sans-Serif" font-size="10.00" fill="#000000">AESDecrypt</text>
</a>
</g>
</g>
<!-- Node161&#45;&gt;Node173 -->
<g id="edge12" class="edge">
<title>Node161&#45;&gt;Node173</title>
<path fill="none" stroke="#191970" d="M61.3236,-324.4379C73.2744,-289.7396 101.9914,-216.7654 146,-169.0796 151.9968,-162.5817 159.9703,-157.0724 167.3248,-152.8208"/>
<polygon fill="#191970" stroke="#191970" points="57.8852,-323.6843 58.0345,-334.2781 64.5242,-325.9034 57.8852,-323.6843"/>
</g>
<!-- Node174 -->
<g id="node14" class="node">
<title>Node174</title>
<g id="a_node14"><a xlink:href="$cbc_8h.html#a9375da4cc24b1bedceb0364f2865bcc3" xlink:title="cbcDecryptFile &#45; Function to decrypt the file with name ">
<polygon fill="#ffffff" stroke="#000000" points="271,-154.5796 271,-173.5796 354,-173.5796 354,-154.5796 271,-154.5796"/>
<text text-anchor="middle" x="312.5" y="-161.5796" font-family="Helvetica,sans-Serif" font-size="10.00" fill="#000000">cbcDecryptFile</text>
</a>
</g>
</g>
<!-- Node161&#45;&gt;Node174 -->
<g id="edge33" class="edge">
<title>Node161&#45;&gt;Node174</title>
<path fill="none" stroke="#191970" d="M65.0086,-325.2597C79.6007,-299.4881 109.0472,-253.3161 146,-226.0796 183.6168,-198.3537 235.0228,-181.7301 270.7229,-172.7785"/>
<polygon fill="#191970" stroke="#191970" points="61.7592,-323.9045 60,-334.3523 67.8906,-327.2819 61.7592,-323.9045"/>
</g>
<!-- Node175 -->
<g id="node15" class="node">
<title>Node175</title>
<g id="a_node15"><a xlink:href="$cbc_8h.html#a95fbad6d45d4b793610fe663939b5f8c" xlink:title="cbcDecrypt &#45; Function to decrypt the user input pointed to by ">
<polygon fill="#ffffff" stroke="#000000" points="279,-40.5796 279,-59.5796 346,-59.5796 346,-40.5796 279,-40.5796"/>
<text text-anchor="middle" x="312.5" y="-47.5796" font-family="Helvetica,sans-Serif" font-size="10.00" fill="#000000">cbcDecrypt</text>
</a>
</g>
</g>
<!-- Node161&#45;&gt;Node175 -->
<g id="edge35" class="edge">
<title>Node161&#45;&gt;Node175</title>
<path fill="none" stroke="#191970" d="M55.8041,-324.2648C58.8898,-275.8748 73.8154,-150.9774 146,-87.0796 182.8062,-54.4988 241.8878,-48.6138 278.8805,-48.5028"/>
<polygon fill="#191970" stroke="#191970" points="52.3034,-324.1849 55.2668,-334.3569 59.2936,-324.5571 52.3034,-324.1849"/>
</g>
<!-- Node177 -->
<g id="node17" class="node">
<title>Node177</title>
<g id="a_node17"><a xlink:href="$ecb_8h.html#acd982a867b70e4f75f2232c974a1e4ae" xlink:title="ecbDecrypt &#45; Function to decrypt the user input pointed to by ">
<polygon fill="#ffffff" stroke="#000000" points="396,-116.5796 396,-135.5796 463,-135.5796 463,-116.5796 396,-116.5796"/>
<text text-anchor="middle" x="429.5" y="-123.5796" font-family="Helvetica,sans-Serif" font-size="10.00" fill="#000000">ecbDecrypt</text>
</a>
</g>
</g>
<!-- Node161&#45;&gt;Node177 -->
<g id="edge41" class="edge">
<title>Node161&#45;&gt;Node177</title>
<path fill="none" stroke="#191970" d="M58.2784,-324.4849C68.6917,-264.662 102.8829,-86.2039 146,-49.0796 218.3303,13.1976 274.885,12.1125 360,-31.0796 396.0823,-49.3898 417.9251,-96.2059 425.9705,-116.4796"/>
<polygon fill="#191970" stroke="#191970" points="54.8009,-324.0567 56.5653,-334.5035 61.7008,-325.2365 54.8009,-324.0567"/>
</g>
<!-- Node178 -->
<g id="node18" class="node">
<title>Node178</title>
<g id="a_node18"><a xlink:href="$ecb_8h.html#ab4c77adefd8655ebd7bc79524f958013" xlink:title="ecbDecryptFile &#45; Function to encrypt the file with name ">
<polygon fill="#ffffff" stroke="#000000" points="271,-78.5796 271,-97.5796 354,-97.5796 354,-78.5796 271,-78.5796"/>
<text text-anchor="middle" x="312.5" y="-85.5796" font-family="Helvetica,sans-Serif" font-size="10.00" fill="#000000">ecbDecryptFile</text>
</a>
</g>
</g>
<!-- Node161&#45;&gt;Node178 -->
<g id="edge43" class="edge">
<title>Node161&#45;&gt;Node178</title>
<path fill="none" stroke="#191970" d="M57.1182,-324.1883C62.8577,-280.7028 82.8027,-176.854 146,-124.0796 180.9582,-94.887 234.1099,-87.7892 270.9155,-86.7675"/>
<polygon fill="#191970" stroke="#191970" points="53.6188,-323.9739 55.8991,-334.3204 60.5687,-324.8102 53.6188,-323.9739"/>
</g>
<!-- Node179 -->
<g id="node19" class="node">
<title>Node179</title>
<g id="a_node19"><a xlink:href="$_a_e_s_8h.html#afba897e91364663f883cc51ed309dc92" xlink:title="keyHexToAscii &#45; Function to convert a key from a Hex string passed in as a paramter ...">
<polygon fill="#ffffff" stroke="#000000" points="146,-334.5796 146,-353.5796 229,-353.5796 229,-334.5796 146,-334.5796"/>
<text text-anchor="middle" x="187.5" y="-341.5796" font-family="Helvetica,sans-Serif" font-size="10.00" fill="#000000">keyHexToAscii</text>
</a>
</g>
</g>
<!-- Node161&#45;&gt;Node179 -->
<g id="edge19" class="edge">
<title>Node161&#45;&gt;Node179</title>
<path fill="none" stroke="#191970" d="M120.2024,-344.0796C128.8986,-344.0796 137.6189,-344.0796 145.7637,-344.0796"/>
<polygon fill="#191970" stroke="#191970" points="120.0409,-340.5797 110.0408,-344.0796 120.0408,-347.5797 120.0409,-340.5797"/>
</g>
<!-- Node163 -->
<g id="node3" class="node">
<title>Node163</title>
<g id="a_node3"><a xlink:href="$aes_tester_8c.html#a0ddf1224851353fc92bfbff6f499fa97" xlink:title="main">
<polygon fill="#ffffff" stroke="#000000" points="293.5,-192.5796 293.5,-211.5796 331.5,-211.5796 331.5,-192.5796 293.5,-192.5796"/>
<text text-anchor="middle" x="312.5" y="-199.5796" font-family="Helvetica,sans-Serif" font-size="10.00" fill="#000000">main</text>
</a>
</g>
</g>
<!-- Node162&#45;&gt;Node163 -->
<g id="edge2" class="edge">
<title>Node162&#45;&gt;Node163</title>
<path fill="none" stroke="#191970" d="M193.5747,-476.8362C210.8721,-422.1331 259.4983,-269.0226 265,-259.0796 275.228,-240.595 291.8454,-222.401 302.4682,-211.7113"/>
<polygon fill="#191970" stroke="#191970" points="190.2306,-475.8033 190.555,-486.3932 196.9053,-477.9124 190.2306,-475.8033"/>
</g>
<!-- Node162&#45;&gt;Node164 -->
<g id="edge3" class="edge">
<title>Node162&#45;&gt;Node164</title>
<path fill="none" stroke="#191970" d="M204.0816,-513.3461C218.952,-528.0751 241.9247,-549.0371 265,-563.0796 270.9181,-566.6811 277.6395,-569.8517 284.1253,-572.5198"/>
<polygon fill="#191970" stroke="#191970" points="206.2254,-510.5364 196.7047,-505.8881 201.2487,-515.4591 206.2254,-510.5364"/>
</g>
<!-- Node162&#45;&gt;Node165 -->
<g id="edge4" class="edge">
<title>Node162&#45;&gt;Node165</title>
<path fill="none" stroke="#191970" d="M233.1033,-485.8645C248.3743,-482.4438 265.1004,-478.6971 279.246,-475.5285"/>
<polygon fill="#191970" stroke="#191970" points="232.3131,-482.4547 223.32,-488.0559 233.8432,-489.2854 232.3131,-482.4547"/>
</g>
<!-- Node162&#45;&gt;Node166 -->
<g id="edge5" class="edge">
<title>Node162&#45;&gt;Node166</title>
<path fill="none" stroke="#191970" d="M196.9901,-514.6885C209.6414,-537.8295 234.0745,-577.1904 265,-601.0796 269.7796,-604.7718 275.3715,-607.843 281.0069,-610.3628"/>
<polygon fill="#191970" stroke="#191970" points="199.94,-512.7803 192.1648,-505.5834 193.7549,-516.0582 199.94,-512.7803"/>
</g>
<!-- Node162&#45;&gt;Node167 -->
<g id="edge6" class="edge">
<title>Node162&#45;&gt;Node167</title>
<path fill="none" stroke="#191970" d="M221.9295,-509.3006C242.7189,-517.2837 268.7384,-527.2752 287.5481,-534.4981"/>
<polygon fill="#191970" stroke="#191970" points="223.0853,-505.9952 212.4952,-505.6778 220.5759,-512.53 223.0853,-505.9952"/>
</g>
<!-- Node162&#45;&gt;Node168 -->
<g id="edge7" class="edge">
<title>Node162&#45;&gt;Node168</title>
<path fill="none" stroke="#191970" d="M210.3401,-480.8588C225.4838,-471.113 245.9938,-458.5632 265,-449.0796 271.6758,-445.7486 279.0847,-442.5578 286.0269,-439.774"/>
<polygon fill="#191970" stroke="#191970" points="208.1326,-478.1197 201.6659,-486.5121 211.9547,-483.9842 208.1326,-478.1197"/>
</g>
<!-- Node162&#45;&gt;Node169 -->
<g id="edge8" class="edge">
<title>Node162&#45;&gt;Node169</title>
<path fill="none" stroke="#191970" d="M198.1331,-477.5355C223.6953,-432.9549 287.8916,-320.9966 307.0315,-287.6167"/>
<polygon fill="#191970" stroke="#191970" points="194.9704,-476.015 193.0324,-486.4311 201.043,-479.497 194.9704,-476.015"/>
</g>
<!-- Node170 -->
<g id="node10" class="node">
<title>Node170</title>
<g id="a_node10"><a xlink:href="$ecb_8h.html#a50ddfe369298c1293b5c57662f569127" xlink:title="ecbEcryptHelper &#45; Helper function used to encrypt the plaintext pointed to by ">
<polygon fill="#ffffff" stroke="#000000" points="268,-496.5796 268,-515.5796 357,-515.5796 357,-496.5796 268,-496.5796"/>
<text text-anchor="middle" x="312.5" y="-503.5796" font-family="Helvetica,sans-Serif" font-size="10.00" fill="#000000">ecbEcryptHelper</text>
</a>
</g>
</g>
<!-- Node162&#45;&gt;Node170 -->
<g id="edge9" class="edge">
<title>Node162&#45;&gt;Node170</title>
<path fill="none" stroke="#191970" d="M233.3681,-499.7491C244.5958,-500.6473 256.5957,-501.6073 267.7693,-502.5012"/>
<polygon fill="#191970" stroke="#191970" points="233.5673,-496.2539 223.32,-498.9452 233.009,-503.2316 233.5673,-496.2539"/>
</g>
<!-- Node162&#45;&gt;Node172 -->
<g id="edge11" class="edge">
<title>Node162&#45;&gt;Node172</title>
<path fill="none" stroke="#191970" d="M200.0876,-478.0153C214.0586,-459.1121 238.1993,-429.6525 265,-411.0796 270.2561,-407.4371 276.313,-404.3406 282.3044,-401.7711"/>
<polygon fill="#191970" stroke="#191970" points="197.086,-476.1939 194.0789,-486.3531 202.765,-480.2865 197.086,-476.1939"/>
</g>
<!-- Node170&#45;&gt;Node171 -->
<g id="edge10" class="edge">
<title>Node170&#45;&gt;Node171</title>
<path fill="none" stroke="#191970" d="M354.4809,-491.3772C356.4315,-490.0578 358.2867,-488.628 360,-487.0796 399.4307,-451.4439 420.1519,-388.1463 426.943,-363.902"/>
<polygon fill="#191970" stroke="#191970" points="352.4416,-488.5096 345.4615,-496.48 355.8886,-494.6021 352.4416,-488.5096"/>
</g>
<!-- Node173&#45;&gt;Node163 -->
<g id="edge13" class="edge">
<title>Node173&#45;&gt;Node163</title>
<path fill="none" stroke="#191970" d="M213.9077,-157.5089C228.7501,-165.4156 247.7145,-175.1837 265,-183.0796 274.2099,-187.2866 284.6366,-191.5145 293.3701,-194.9104"/>
<polygon fill="#191970" stroke="#191970" points="215.2741,-154.2699 204.8085,-152.6202 211.9611,-160.4363 215.2741,-154.2699"/>
</g>
<!-- Node173&#45;&gt;Node174 -->
<g id="edge14" class="edge">
<title>Node173&#45;&gt;Node174</title>
<path fill="none" stroke="#191970" d="M233.3825,-150.7879C245.6754,-152.8531 258.8931,-155.0737 270.9379,-157.0972"/>
<polygon fill="#191970" stroke="#191970" points="233.7617,-147.3026 223.32,-149.0974 232.6019,-154.2059 233.7617,-147.3026"/>
</g>
<!-- Node173&#45;&gt;Node175 -->
<g id="edge15" class="edge">
<title>Node173&#45;&gt;Node175</title>
<path fill="none" stroke="#191970" d="M202.3712,-125.4275C216.9437,-109.0325 240.4814,-84.8438 265,-69.0796 270.6778,-65.429 277.1709,-62.2714 283.4946,-59.6358"/>
<polygon fill="#191970" stroke="#191970" points="199.5296,-123.3614 195.6102,-133.2047 204.8124,-127.954 199.5296,-123.3614"/>
</g>
<!-- Node176 -->
<g id="node16" class="node">
<title>Node176</title>
<g id="a_node16"><a xlink:href="$ecb_8h.html#a9661ce321dd2649926ebadd2ab9dcd20" xlink:title="ecbDecryptHelper &#45; Helper function used to decrypt the ciphertext pointed to by ">
<polygon fill="#ffffff" stroke="#000000" points="265,-116.5796 265,-135.5796 360,-135.5796 360,-116.5796 265,-116.5796"/>
<text text-anchor="middle" x="312.5" y="-123.5796" font-family="Helvetica,sans-Serif" font-size="10.00" fill="#000000">ecbDecryptHelper</text>
</a>
</g>
</g>
<!-- Node173&#45;&gt;Node176 -->
<g id="edge16" class="edge">
<title>Node173&#45;&gt;Node176</title>
<path fill="none" stroke="#191970" d="M233.2536,-136.8571C243.4454,-135.471 254.2786,-133.9977 264.5557,-132.6"/>
<polygon fill="#191970" stroke="#191970" points="232.7571,-133.3923 223.32,-138.2081 233.7005,-140.3285 232.7571,-133.3923"/>
</g>
<!-- Node173&#45;&gt;Node178 -->
<g id="edge18" class="edge">
<title>Node173&#45;&gt;Node178</title>
<path fill="none" stroke="#191970" d="M216.8402,-128.9928C231.2636,-122.1854 248.9543,-114.0094 265,-107.0796 272.3385,-103.9103 280.3879,-100.6211 287.7414,-97.688"/>
<polygon fill="#191970" stroke="#191970" points="214.9711,-126.0057 207.4372,-133.4549 217.9722,-132.3297 214.9711,-126.0057"/>
</g>
<!-- Node176&#45;&gt;Node177 -->
<g id="edge17" class="edge">
<title>Node176&#45;&gt;Node177</title>
<path fill="none" stroke="#191970" d="M370.3346,-126.0796C379.1109,-126.0796 387.9073,-126.0796 395.9333,-126.0796"/>
<polygon fill="#191970" stroke="#191970" points="370.0884,-122.5797 360.0884,-126.0796 370.0883,-129.5797 370.0884,-122.5797"/>
</g>
<!-- Node179&#45;&gt;Node164 -->
<g id="edge20" class="edge">
<title>Node179&#45;&gt;Node164</title>
<path fill="none" stroke="#191970" d="M193.3814,-363.5531C208.8651,-414.3569 250.5549,-548.0391 265,-563.0796 268.6914,-566.9231 273.2617,-570.0087 278.0961,-572.4805"/>
<polygon fill="#191970" stroke="#191970" points="196.6711,-362.3405 190.4175,-353.7881 189.9729,-364.3736 196.6711,-362.3405"/>
</g>
<!-- Node179&#45;&gt;Node165 -->
<g id="edge22" class="edge">
<title>Node179&#45;&gt;Node165</title>
<path fill="none" stroke="#191970" d="M196.9901,-362.6885C209.6414,-385.8295 234.0745,-425.1904 265,-449.0796 269.7796,-452.7718 275.3715,-455.843 281.0069,-458.3628"/>
<polygon fill="#191970" stroke="#191970" points="199.94,-360.7803 192.1648,-353.5834 193.7549,-364.0582 199.94,-360.7803"/>
</g>
<!-- Node179&#45;&gt;Node166 -->
<g id="edge24" class="edge">
<title>Node179&#45;&gt;Node166</title>
<path fill="none" stroke="#191970" d="M193.669,-363.4256C201.8831,-389.2798 216.7942,-436.5482 229,-477.0796 245.5476,-532.0288 226.4567,-558.5632 265,-601.0796 268.4599,-604.8962 272.7903,-607.9587 277.419,-610.4128"/>
<polygon fill="#191970" stroke="#191970" points="196.954,-362.206 190.5862,-353.7383 190.2836,-364.3288 196.954,-362.206"/>
</g>
<!-- Node179&#45;&gt;Node167 -->
<g id="edge25" class="edge">
<title>Node179&#45;&gt;Node167</title>
<path fill="none" stroke="#191970" d="M190.7899,-363.6932C197.8985,-400.2409 218.0063,-479.2028 265,-525.0796 268.9404,-528.9263 273.7582,-532.0242 278.7974,-534.5104"/>
<polygon fill="#191970" stroke="#191970" points="194.2224,-363.0062 188.9857,-353.796 187.3359,-364.2616 194.2224,-363.0062"/>
</g>
<!-- Node179&#45;&gt;Node168 -->
<g id="edge26" class="edge">
<title>Node179&#45;&gt;Node168</title>
<path fill="none" stroke="#191970" d="M204.0816,-361.3461C218.952,-376.0751 241.9247,-397.0371 265,-411.0796 270.9181,-414.6811 277.6395,-417.8517 284.1253,-420.5198"/>
<polygon fill="#191970" stroke="#191970" points="206.2254,-358.5364 196.7047,-353.8881 201.2487,-363.4591 206.2254,-358.5364"/>
</g>
<!-- Node179&#45;&gt;Node169 -->
<g id="edge27" class="edge">
<title>Node179&#45;&gt;Node169</title>
<path fill="none" stroke="#191970" d="M214.1171,-329.4098C229.024,-321.2558 247.9832,-310.9873 265,-302.0796 274.168,-297.2805 284.4058,-292.0869 293.0225,-287.7625"/>
<polygon fill="#191970" stroke="#191970" points="212.0528,-326.5501 204.9675,-334.4272 215.4186,-332.6878 212.0528,-326.5501"/>
</g>
<!-- Node179&#45;&gt;Node171 -->
<g id="edge28" class="edge">
<title>Node179&#45;&gt;Node171</title>
<path fill="none" stroke="#191970" d="M239.1878,-346.2155C286.6758,-348.1778 355.655,-351.0282 396.214,-352.7042"/>
<polygon fill="#191970" stroke="#191970" points="239.2373,-342.7146 229.1013,-345.7987 238.9482,-349.7087 239.2373,-342.7146"/>
</g>
<!-- Node179&#45;&gt;Node172 -->
<g id="edge30" class="edge">
<title>Node179&#45;&gt;Node172</title>
<path fill="none" stroke="#191970" d="M221.9295,-357.3006C242.7189,-365.2837 268.7384,-375.2752 287.5481,-382.4981"/>
<polygon fill="#191970" stroke="#191970" points="223.0853,-353.9952 212.4952,-353.6778 220.5759,-360.53 223.0853,-353.9952"/>
</g>
<!-- Node179&#45;&gt;Node174 -->
<g id="edge21" class="edge">
<title>Node179&#45;&gt;Node174</title>
<path fill="none" stroke="#191970" d="M192.0094,-324.3412C200.6151,-290.8928 222.4326,-222.8417 265,-183.0796 269.0242,-179.3206 273.8852,-176.268 278.9418,-173.8"/>
<polygon fill="#191970" stroke="#191970" points="188.5578,-323.7224 189.5866,-334.2672 195.3581,-325.3824 188.5578,-323.7224"/>
</g>
<!-- Node179&#45;&gt;Node175 -->
<g id="edge23" class="edge">
<title>Node179&#45;&gt;Node175</title>
<path fill="none" stroke="#191970" d="M191.9617,-324.5003C205.6837,-264.9162 247.3934,-88.6553 265,-69.0796 268.8013,-64.8532 273.6706,-61.5526 278.8365,-58.9789"/>
<polygon fill="#191970" stroke="#191970" points="188.4939,-323.9644 189.6713,-334.4936 195.317,-325.5282 188.4939,-323.9644"/>
</g>
<!-- Node179&#45;&gt;Node177 -->
<g id="edge29" class="edge">
<title>Node179&#45;&gt;Node177</title>
<path fill="none" stroke="#191970" d="M239.566,-341.8683C277.1388,-337.6772 326.8822,-326.443 360,-297.0796 410.5939,-252.2213 425.0008,-165.1425 428.5024,-135.915"/>
<polygon fill="#191970" stroke="#191970" points="238.9261,-338.4141 229.3152,-342.8728 239.6089,-345.3807 238.9261,-338.4141"/>
</g>
<!-- Node179&#45;&gt;Node178 -->
<g id="edge31" class="edge">
<title>Node179&#45;&gt;Node178</title>
<path fill="none" stroke="#191970" d="M191.6609,-324.5003C202.7845,-273.756 234.4457,-139.6698 265,-107.0796 268.6448,-103.1919 273.1904,-100.0829 278.0143,-97.601"/>
<polygon fill="#191970" stroke="#191970" points="188.1905,-323.9899 189.4988,-334.5036 195.0325,-325.4687 188.1905,-323.9899"/>
</g>
</g>
</svg>
