<?xml version="1.0" encoding="UTF-8" standalone="no"?>
<!DOCTYPE svg PUBLIC "-//W3C//DTD SVG 1.1//EN"
 "http://www.w3.org/Graphics/SVG/1.1/DTD/svg11.dtd">
<!-- Generated by graphviz version 2.40.1 (20161225.0304)
 -->
<!-- Title: invMixColumns Pages: 1 -->
<svg width="433pt" height="180pt"
 viewBox="0.00 0.00 433.00 180.00" xmlns="http://www.w3.org/2000/svg" xmlns:xlink="http://www.w3.org/1999/xlink">
<g id="graph0" class="graph" transform="scale(1 1) rotate(0) translate(4 176)">
<title>invMixColumns</title>
<polygon fill="#ffffff" stroke="transparent" points="-4,4 -4,-176 429,-176 429,4 -4,4"/>
<!-- Node301 -->
<g id="node1" class="node">
<title>Node301</title>
<polygon fill="#bfbfbf" stroke="#000000" points="0,-113.5 0,-132.5 84,-132.5 84,-113.5 0,-113.5"/>
<text text-anchor="middle" x="42" y="-120.5" font-family="Helvetica,sans-Serif" font-size="10.00" fill="#000000">invMixColumns</text>
</g>
<!-- Node302 -->
<g id="node2" class="node">
<title>Node302</title>
<g id="a_node2"><a xlink:href="$_a_e_s_8h.html#aea7dd7439aa08f23e6fecd32d4055ac3" xlink:title="AESDecrypt &#45; Function to decrypt a single block of ciphertext passed in as parameter &#160;cipherText usin...">
<polygon fill="#ffffff" stroke="#000000" points="120,-85.5 120,-104.5 191,-104.5 191,-85.5 120,-85.5"/>
<text text-anchor="middle" x="155.5" y="-92.5" font-family="Helvetica,sans-Serif" font-size="10.00" fill="#000000">AESDecrypt</text>
</a>
</g>
</g>
<!-- Node301&#45;&gt;Node302 -->
<g id="edge1" class="edge">
<title>Node301&#45;&gt;Node302</title>
<path fill="none" stroke="#191970" d="M90.4856,-111.0388C100.3888,-108.5957 110.635,-106.068 119.9831,-103.7619"/>
<polygon fill="#191970" stroke="#191970" points="89.6134,-107.6489 80.7428,-113.4423 91.2901,-114.4452 89.6134,-107.6489"/>
</g>
<!-- Node303 -->
<g id="node3" class="node">
<title>Node303</title>
<g id="a_node3"><a xlink:href="$aes_tester_8c.html#a0ddf1224851353fc92bfbff6f499fa97" xlink:title="main">
<polygon fill="#ffffff" stroke="#000000" points="255.5,-152.5 255.5,-171.5 293.5,-171.5 293.5,-152.5 255.5,-152.5"/>
<text text-anchor="middle" x="274.5" y="-159.5" font-family="Helvetica,sans-Serif" font-size="10.00" fill="#000000">main</text>
</a>
</g>
</g>
<!-- Node301&#45;&gt;Node303 -->
<g id="edge8" class="edge">
<title>Node301&#45;&gt;Node303</title>
<path fill="none" stroke="#191970" d="M93.9845,-131.72C145.0934,-140.2931 220.3694,-152.92 255.3407,-158.7862"/>
<polygon fill="#191970" stroke="#191970" points="94.5452,-128.2652 84.104,-130.0626 93.3872,-135.1688 94.5452,-128.2652"/>
</g>
<!-- Node302&#45;&gt;Node303 -->
<g id="edge2" class="edge">
<title>Node302&#45;&gt;Node303</title>
<path fill="none" stroke="#191970" d="M176.25,-110.638C190.1461,-120.6749 209.1055,-133.5501 227,-143 235.9535,-147.7282 246.3521,-152.0131 255.1334,-155.3119"/>
<polygon fill="#191970" stroke="#191970" points="178.0439,-107.613 167.9116,-104.5167 173.9015,-113.2558 178.0439,-107.613"/>
</g>
<!-- Node304 -->
<g id="node4" class="node">
<title>Node304</title>
<g id="a_node4"><a xlink:href="$cbc_8h.html#a9375da4cc24b1bedceb0364f2865bcc3" xlink:title="cbcDecryptFile &#45; Function to decrypt the file with name ">
<polygon fill="#ffffff" stroke="#000000" points="233,-114.5 233,-133.5 316,-133.5 316,-114.5 233,-114.5"/>
<text text-anchor="middle" x="274.5" y="-121.5" font-family="Helvetica,sans-Serif" font-size="10.00" fill="#000000">cbcDecryptFile</text>
</a>
</g>
</g>
<!-- Node302&#45;&gt;Node304 -->
<g id="edge3" class="edge">
<title>Node302&#45;&gt;Node304</title>
<path fill="none" stroke="#191970" d="M200.9738,-106.0819C212.3554,-108.8555 224.4631,-111.8061 235.4989,-114.4955"/>
<polygon fill="#191970" stroke="#191970" points="201.7483,-102.6682 191.2039,-103.701 200.0909,-109.4692 201.7483,-102.6682"/>
</g>
<!-- Node305 -->
<g id="node5" class="node">
<title>Node305</title>
<g id="a_node5"><a xlink:href="$cbc_8h.html#a95fbad6d45d4b793610fe663939b5f8c" xlink:title="cbcDecrypt &#45; Function to decrypt the user input pointed to by ">
<polygon fill="#ffffff" stroke="#000000" points="241,-76.5 241,-95.5 308,-95.5 308,-76.5 241,-76.5"/>
<text text-anchor="middle" x="274.5" y="-83.5" font-family="Helvetica,sans-Serif" font-size="10.00" fill="#000000">cbcDecrypt</text>
</a>
</g>
</g>
<!-- Node302&#45;&gt;Node305 -->
<g id="edge4" class="edge">
<title>Node302&#45;&gt;Node305</title>
<path fill="none" stroke="#191970" d="M201.4713,-91.5232C214.5866,-90.5313 228.6279,-89.4693 240.8592,-88.5443"/>
<polygon fill="#191970" stroke="#191970" points="200.9115,-88.0554 191.2039,-92.2997 201.4394,-95.0355 200.9115,-88.0554"/>
</g>
<!-- Node306 -->
<g id="node6" class="node">
<title>Node306</title>
<g id="a_node6"><a xlink:href="$ecb_8h.html#a9661ce321dd2649926ebadd2ab9dcd20" xlink:title="ecbDecryptHelper &#45; Helper function used to decrypt the ciphertext pointed to by ">
<polygon fill="#ffffff" stroke="#000000" points="227,-38.5 227,-57.5 322,-57.5 322,-38.5 227,-38.5"/>
<text text-anchor="middle" x="274.5" y="-45.5" font-family="Helvetica,sans-Serif" font-size="10.00" fill="#000000">ecbDecryptHelper</text>
</a>
</g>
</g>
<!-- Node302&#45;&gt;Node306 -->
<g id="edge5" class="edge">
<title>Node302&#45;&gt;Node306</title>
<path fill="none" stroke="#191970" d="M188.9747,-81.7789C208.3899,-74.1107 232.4095,-64.624 250.0459,-57.6583"/>
<polygon fill="#191970" stroke="#191970" points="187.5966,-78.56 179.5814,-85.4888 190.168,-85.0706 187.5966,-78.56"/>
</g>
<!-- Node308 -->
<g id="node8" class="node">
<title>Node308</title>
<g id="a_node8"><a xlink:href="$ecb_8h.html#ab4c77adefd8655ebd7bc79524f958013" xlink:title="ecbDecryptFile &#45; Function to encrypt the file with name ">
<polygon fill="#ffffff" stroke="#000000" points="233,-.5 233,-19.5 316,-19.5 316,-.5 233,-.5"/>
<text text-anchor="middle" x="274.5" y="-7.5" font-family="Helvetica,sans-Serif" font-size="10.00" fill="#000000">ecbDecryptFile</text>
</a>
</g>
</g>
<!-- Node302&#45;&gt;Node308 -->
<g id="edge7" class="edge">
<title>Node302&#45;&gt;Node308</title>
<path fill="none" stroke="#191970" d="M170.9746,-77.5158C184.5759,-62.9858 205.5037,-42.566 227,-29 232.7085,-25.3975 239.2139,-22.2594 245.54,-19.6275"/>
<polygon fill="#191970" stroke="#191970" points="168.0281,-75.5517 163.8641,-85.294 173.1946,-80.2747 168.0281,-75.5517"/>
</g>
<!-- Node307 -->
<g id="node7" class="node">
<title>Node307</title>
<g id="a_node7"><a xlink:href="$ecb_8h.html#acd982a867b70e4f75f2232c974a1e4ae" xlink:title="ecbDecrypt &#45; Function to decrypt the user input pointed to by ">
<polygon fill="#ffffff" stroke="#000000" points="358,-38.5 358,-57.5 425,-57.5 425,-38.5 358,-38.5"/>
<text text-anchor="middle" x="391.5" y="-45.5" font-family="Helvetica,sans-Serif" font-size="10.00" fill="#000000">ecbDecrypt</text>
</a>
</g>
</g>
<!-- Node306&#45;&gt;Node307 -->
<g id="edge6" class="edge">
<title>Node306&#45;&gt;Node307</title>
<path fill="none" stroke="#191970" d="M332.3346,-48C341.1109,-48 349.9073,-48 357.9333,-48"/>
<polygon fill="#191970" stroke="#191970" points="332.0884,-44.5001 322.0884,-48 332.0883,-51.5001 332.0884,-44.5001"/>
</g>
</g>
</svg>
