<?xml version="1.0" encoding="UTF-8" standalone="no"?>
<!DOCTYPE svg PUBLIC "-//W3C//DTD SVG 1.1//EN"
 "http://www.w3.org/Graphics/SVG/1.1/DTD/svg11.dtd">
<!-- Generated by graphviz version 2.40.1 (20161225.0304)
 -->
<!-- Title: constructStateArray Pages: 1 -->
<svg width="453pt" height="484pt"
 viewBox="0.00 0.00 453.00 484.00" xmlns="http://www.w3.org/2000/svg" xmlns:xlink="http://www.w3.org/1999/xlink">
<g id="graph0" class="graph" transform="scale(1 1) rotate(0) translate(4 480)">
<title>constructStateArray</title>
<polygon fill="#ffffff" stroke="transparent" points="-4,4 -4,-480 449,-480 449,4 -4,4"/>
<!-- Node82 -->
<g id="node1" class="node">
<title>Node82</title>
<polygon fill="#bfbfbf" stroke="#000000" points="0,-171.5 0,-190.5 104,-190.5 104,-171.5 0,-171.5"/>
<text text-anchor="middle" x="52" y="-178.5" font-family="Helvetica,sans-Serif" font-size="10.00" fill="#000000">constructStateArray</text>
</g>
<!-- Node83 -->
<g id="node2" class="node">
<title>Node83</title>
<g id="a_node2"><a xlink:href="$_a_e_s_8h.html#a0ac21e951d3e46598708ab8fd8bc61c5" xlink:title="AESEncrypt &#45; Function to encrypt a single block of plaintext passed in as parameter &#160;plainText using ...">
<polygon fill="#ffffff" stroke="#000000" points="140,-285.5 140,-304.5 211,-304.5 211,-285.5 140,-285.5"/>
<text text-anchor="middle" x="175.5" y="-292.5" font-family="Helvetica,sans-Serif" font-size="10.00" fill="#000000">AESEncrypt</text>
</a>
</g>
</g>
<!-- Node82&#45;&gt;Node83 -->
<g id="edge1" class="edge">
<title>Node82&#45;&gt;Node83</title>
<path fill="none" stroke="#191970" d="M69.8951,-197.5185C96.0439,-221.6559 143.8744,-265.8071 164.9971,-285.305"/>
<polygon fill="#191970" stroke="#191970" points="72.2516,-194.9306 62.5295,-190.7196 67.5036,-200.0742 72.2516,-194.9306"/>
</g>
<!-- Node94 -->
<g id="node13" class="node">
<title>Node94</title>
<g id="a_node13"><a xlink:href="$_a_e_s_8h.html#aea7dd7439aa08f23e6fecd32d4055ac3" xlink:title="AESDecrypt &#45; Function to decrypt a single block of ciphertext passed in as parameter &#160;cipherText usin...">
<polygon fill="#ffffff" stroke="#000000" points="140,-95.5 140,-114.5 211,-114.5 211,-95.5 140,-95.5"/>
<text text-anchor="middle" x="175.5" y="-102.5" font-family="Helvetica,sans-Serif" font-size="10.00" fill="#000000">AESDecrypt</text>
</a>
</g>
</g>
<!-- Node82&#45;&gt;Node94 -->
<g id="edge12" class="edge">
<title>Node82&#45;&gt;Node94</title>
<path fill="none" stroke="#191970" d="M76.4673,-165.9432C101.2993,-150.662 138.988,-127.4689 159.9856,-114.5473"/>
<polygon fill="#191970" stroke="#191970" points="74.3236,-163.1527 67.6414,-171.3745 77.9923,-169.1143 74.3236,-163.1527"/>
</g>
<!-- Node84 -->
<g id="node3" class="node">
<title>Node84</title>
<g id="a_node3"><a xlink:href="$aes_tester_8c.html#a0ddf1224851353fc92bfbff6f499fa97" xlink:title="main">
<polygon fill="#ffffff" stroke="#000000" points="275.5,-152.5 275.5,-171.5 313.5,-171.5 313.5,-152.5 275.5,-152.5"/>
<text text-anchor="middle" x="294.5" y="-159.5" font-family="Helvetica,sans-Serif" font-size="10.00" fill="#000000">main</text>
</a>
</g>
</g>
<!-- Node83&#45;&gt;Node84 -->
<g id="edge2" class="edge">
<title>Node83&#45;&gt;Node84</title>
<path fill="none" stroke="#191970" d="M183.018,-275.8522C193.7263,-250.8515 215.6136,-207.1992 247,-181 255.1822,-174.1701 266.1306,-169.5684 275.454,-166.6067"/>
<polygon fill="#191970" stroke="#191970" points="179.6907,-274.7403 179.118,-285.3197 186.1631,-277.4066 179.6907,-274.7403"/>
</g>
<!-- Node85 -->
<g id="node4" class="node">
<title>Node85</title>
<g id="a_node4"><a xlink:href="$cbc_8h.html#ad055b3ad2664ace8ba1ab68a481dc1b3" xlink:title="cbcEncryptFile &#45; Function to encrypt the file with name ">
<polygon fill="#ffffff" stroke="#000000" points="253.5,-456.5 253.5,-475.5 335.5,-475.5 335.5,-456.5 253.5,-456.5"/>
<text text-anchor="middle" x="294.5" y="-463.5" font-family="Helvetica,sans-Serif" font-size="10.00" fill="#000000">cbcEncryptFile</text>
</a>
</g>
</g>
<!-- Node83&#45;&gt;Node85 -->
<g id="edge3" class="edge">
<title>Node83&#45;&gt;Node85</title>
<path fill="none" stroke="#191970" d="M179.7522,-314.5021C187.6554,-346.3718 207.5135,-409.7837 247,-447 251.0073,-450.7769 255.8597,-453.8388 260.9128,-456.3106"/>
<polygon fill="#191970" stroke="#191970" points="183.1306,-313.578 177.4428,-304.6394 176.315,-315.174 183.1306,-313.578"/>
</g>
<!-- Node86 -->
<g id="node5" class="node">
<title>Node86</title>
<g id="a_node5"><a xlink:href="$cbc_8h.html#a90f1f37609cf336c57cd0300282c1dac" xlink:title="cbcEncrypt &#45; Function to encrypt the user input pointed to by ">
<polygon fill="#ffffff" stroke="#000000" points="261.5,-418.5 261.5,-437.5 327.5,-437.5 327.5,-418.5 261.5,-418.5"/>
<text text-anchor="middle" x="294.5" y="-425.5" font-family="Helvetica,sans-Serif" font-size="10.00" fill="#000000">cbcEncrypt</text>
</a>
</g>
</g>
<!-- Node83&#45;&gt;Node86 -->
<g id="edge4" class="edge">
<title>Node83&#45;&gt;Node86</title>
<path fill="none" stroke="#191970" d="M183.018,-314.1478C193.7263,-339.1485 215.6136,-382.8008 247,-409 251.5002,-412.7565 256.8372,-415.8389 262.2804,-418.3451"/>
<polygon fill="#191970" stroke="#191970" points="186.1631,-312.5934 179.118,-304.6803 179.6907,-315.2597 186.1631,-312.5934"/>
</g>
<!-- Node87 -->
<g id="node6" class="node">
<title>Node87</title>
<g id="a_node6"><a xlink:href="$cfb_8h.html#a9384de325e389ba7809b7ee98320f485" xlink:title="cfbEncryptFile &#45; Function to encrypt the file with name ">
<polygon fill="#ffffff" stroke="#000000" points="254.5,-380.5 254.5,-399.5 334.5,-399.5 334.5,-380.5 254.5,-380.5"/>
<text text-anchor="middle" x="294.5" y="-387.5" font-family="Helvetica,sans-Serif" font-size="10.00" fill="#000000">cfbEncryptFile</text>
</a>
</g>
</g>
<!-- Node83&#45;&gt;Node87 -->
<g id="edge5" class="edge">
<title>Node83&#45;&gt;Node87</title>
<path fill="none" stroke="#191970" d="M188.416,-312.6734C201.548,-329.5843 223.289,-354.8409 247,-371 252.4312,-374.7014 258.6914,-377.8505 264.8476,-380.4573"/>
<polygon fill="#191970" stroke="#191970" points="191.1944,-310.5448 182.3687,-304.6832 185.6127,-314.7692 191.1944,-310.5448"/>
</g>
<!-- Node88 -->
<g id="node7" class="node">
<title>Node88</title>
<g id="a_node7"><a xlink:href="$cfb_8h.html#a6dce0b90ab3948c3df032eb61c2a64ea" xlink:title="cfbDecryptFile &#45; Function to decrypt the file with name ">
<polygon fill="#ffffff" stroke="#000000" points="254.5,-342.5 254.5,-361.5 334.5,-361.5 334.5,-342.5 254.5,-342.5"/>
<text text-anchor="middle" x="294.5" y="-349.5" font-family="Helvetica,sans-Serif" font-size="10.00" fill="#000000">cfbDecryptFile</text>
</a>
</g>
</g>
<!-- Node83&#45;&gt;Node88 -->
<g id="edge6" class="edge">
<title>Node83&#45;&gt;Node88</title>
<path fill="none" stroke="#191970" d="M201.4068,-309.6377C214.8364,-317.0023 231.6089,-325.8572 247,-333 254.0897,-336.2902 261.918,-339.5635 269.1394,-342.4428"/>
<polygon fill="#191970" stroke="#191970" points="202.7296,-306.3693 192.2862,-304.5843 199.337,-312.4923 202.7296,-306.3693"/>
</g>
<!-- Node89 -->
<g id="node8" class="node">
<title>Node89</title>
<g id="a_node8"><a xlink:href="$cfb_8h.html#a826aec09cb2af95cb8781d2b4c211182" xlink:title="cfbEncrypt &#45; Function to encrypt the user input pointed to by ">
<polygon fill="#ffffff" stroke="#000000" points="262.5,-304.5 262.5,-323.5 326.5,-323.5 326.5,-304.5 262.5,-304.5"/>
<text text-anchor="middle" x="294.5" y="-311.5" font-family="Helvetica,sans-Serif" font-size="10.00" fill="#000000">cfbEncrypt</text>
</a>
</g>
</g>
<!-- Node83&#45;&gt;Node89 -->
<g id="edge7" class="edge">
<title>Node83&#45;&gt;Node89</title>
<path fill="none" stroke="#191970" d="M221.4341,-302.334C235.1381,-304.522 249.8562,-306.872 262.4659,-308.8853"/>
<polygon fill="#191970" stroke="#191970" points="221.6307,-298.8212 211.2039,-300.7006 220.527,-305.7336 221.6307,-298.8212"/>
</g>
<!-- Node90 -->
<g id="node9" class="node">
<title>Node90</title>
<g id="a_node9"><a xlink:href="$cfb_8h.html#ad6a75d43203e367b8a83f6b7c7f506c6" xlink:title="cfbDecrypt &#45; Function to decrypt the user input pointed to by ">
<polygon fill="#ffffff" stroke="#000000" points="262,-266.5 262,-285.5 327,-285.5 327,-266.5 262,-266.5"/>
<text text-anchor="middle" x="294.5" y="-273.5" font-family="Helvetica,sans-Serif" font-size="10.00" fill="#000000">cfbDecrypt</text>
</a>
</g>
</g>
<!-- Node83&#45;&gt;Node90 -->
<g id="edge8" class="edge">
<title>Node83&#45;&gt;Node90</title>
<path fill="none" stroke="#191970" d="M221.258,-287.6941C234.7231,-285.5442 249.1814,-283.2357 261.6653,-281.2425"/>
<polygon fill="#191970" stroke="#191970" points="220.527,-284.2664 211.2039,-289.2994 221.6307,-291.1788 220.527,-284.2664"/>
</g>
<!-- Node91 -->
<g id="node10" class="node">
<title>Node91</title>
<g id="a_node10"><a xlink:href="$ecb_8h.html#a50ddfe369298c1293b5c57662f569127" xlink:title="ecbEcryptHelper &#45; Helper function used to encrypt the plaintext pointed to by ">
<polygon fill="#ffffff" stroke="#000000" points="250,-228.5 250,-247.5 339,-247.5 339,-228.5 250,-228.5"/>
<text text-anchor="middle" x="294.5" y="-235.5" font-family="Helvetica,sans-Serif" font-size="10.00" fill="#000000">ecbEcryptHelper</text>
</a>
</g>
</g>
<!-- Node83&#45;&gt;Node91 -->
<g id="edge9" class="edge">
<title>Node83&#45;&gt;Node91</title>
<path fill="none" stroke="#191970" d="M201.4068,-280.3623C214.8364,-272.9977 231.6089,-264.1428 247,-257 254.0897,-253.7098 261.918,-250.4365 269.1394,-247.5572"/>
<polygon fill="#191970" stroke="#191970" points="199.337,-277.5077 192.2862,-285.4157 202.7296,-283.6307 199.337,-277.5077"/>
</g>
<!-- Node93 -->
<g id="node12" class="node">
<title>Node93</title>
<g id="a_node12"><a xlink:href="$ecb_8h.html#ab68902caeba7880cf1be8b40e8bb9a50" xlink:title="ecbEncryptFile &#45; Function to encrypt the file with name ">
<polygon fill="#ffffff" stroke="#000000" points="253.5,-190.5 253.5,-209.5 335.5,-209.5 335.5,-190.5 253.5,-190.5"/>
<text text-anchor="middle" x="294.5" y="-197.5" font-family="Helvetica,sans-Serif" font-size="10.00" fill="#000000">ecbEncryptFile</text>
</a>
</g>
</g>
<!-- Node83&#45;&gt;Node93 -->
<g id="edge11" class="edge">
<title>Node83&#45;&gt;Node93</title>
<path fill="none" stroke="#191970" d="M188.416,-277.3266C201.548,-260.4157 223.289,-235.1591 247,-219 252.4312,-215.2986 258.6914,-212.1495 264.8476,-209.5427"/>
<polygon fill="#191970" stroke="#191970" points="185.6127,-275.2308 182.3687,-285.3168 191.1944,-279.4552 185.6127,-275.2308"/>
</g>
<!-- Node92 -->
<g id="node11" class="node">
<title>Node92</title>
<g id="a_node11"><a xlink:href="$ecb_8h.html#aa451eb4920a712afa521f06831277731" xlink:title="ecbEncrypt &#45; Function to encrypt the user input pointed to by ">
<polygon fill="#ffffff" stroke="#000000" points="378.5,-228.5 378.5,-247.5 444.5,-247.5 444.5,-228.5 378.5,-228.5"/>
<text text-anchor="middle" x="411.5" y="-235.5" font-family="Helvetica,sans-Serif" font-size="10.00" fill="#000000">ecbEncrypt</text>
</a>
</g>
</g>
<!-- Node91&#45;&gt;Node92 -->
<g id="edge10" class="edge">
<title>Node91&#45;&gt;Node92</title>
<path fill="none" stroke="#191970" d="M349.3035,-238C359.2224,-238 369.2836,-238 378.3404,-238"/>
<polygon fill="#191970" stroke="#191970" points="349.0665,-234.5001 339.0664,-238 349.0664,-241.5001 349.0665,-234.5001"/>
</g>
<!-- Node94&#45;&gt;Node84 -->
<g id="edge13" class="edge">
<title>Node94&#45;&gt;Node84</title>
<path fill="none" stroke="#191970" d="M201.4068,-119.6377C214.8364,-127.0023 231.6089,-135.8572 247,-143 256.1844,-147.2623 266.6083,-151.4963 275.3466,-154.8819"/>
<polygon fill="#191970" stroke="#191970" points="202.7296,-116.3693 192.2862,-114.5843 199.337,-122.4923 202.7296,-116.3693"/>
</g>
<!-- Node95 -->
<g id="node14" class="node">
<title>Node95</title>
<g id="a_node14"><a xlink:href="$cbc_8h.html#a9375da4cc24b1bedceb0364f2865bcc3" xlink:title="cbcDecryptFile &#45; Function to decrypt the file with name ">
<polygon fill="#ffffff" stroke="#000000" points="253,-114.5 253,-133.5 336,-133.5 336,-114.5 253,-114.5"/>
<text text-anchor="middle" x="294.5" y="-121.5" font-family="Helvetica,sans-Serif" font-size="10.00" fill="#000000">cbcDecryptFile</text>
</a>
</g>
</g>
<!-- Node94&#45;&gt;Node95 -->
<g id="edge14" class="edge">
<title>Node94&#45;&gt;Node95</title>
<path fill="none" stroke="#191970" d="M221.3596,-112.3221C231.7618,-113.983 242.7519,-115.7377 252.9631,-117.3681"/>
<polygon fill="#191970" stroke="#191970" points="221.6307,-108.8212 211.2039,-110.7006 220.527,-115.7336 221.6307,-108.8212"/>
</g>
<!-- Node96 -->
<g id="node15" class="node">
<title>Node96</title>
<g id="a_node15"><a xlink:href="$cbc_8h.html#a95fbad6d45d4b793610fe663939b5f8c" xlink:title="cbcDecrypt &#45; Function to decrypt the user input pointed to by ">
<polygon fill="#ffffff" stroke="#000000" points="261,-76.5 261,-95.5 328,-95.5 328,-76.5 261,-76.5"/>
<text text-anchor="middle" x="294.5" y="-83.5" font-family="Helvetica,sans-Serif" font-size="10.00" fill="#000000">cbcDecrypt</text>
</a>
</g>
</g>
<!-- Node94&#45;&gt;Node96 -->
<g id="edge15" class="edge">
<title>Node94&#45;&gt;Node96</title>
<path fill="none" stroke="#191970" d="M221.082,-97.7222C234.3084,-95.6104 248.5068,-93.3434 260.8592,-91.3712"/>
<polygon fill="#191970" stroke="#191970" points="220.527,-94.2664 211.2039,-99.2994 221.6307,-101.1788 220.527,-94.2664"/>
</g>
<!-- Node97 -->
<g id="node16" class="node">
<title>Node97</title>
<g id="a_node16"><a xlink:href="$ecb_8h.html#a9661ce321dd2649926ebadd2ab9dcd20" xlink:title="ecbDecryptHelper &#45; Helper function used to decrypt the ciphertext pointed to by ">
<polygon fill="#ffffff" stroke="#000000" points="247,-38.5 247,-57.5 342,-57.5 342,-38.5 247,-38.5"/>
<text text-anchor="middle" x="294.5" y="-45.5" font-family="Helvetica,sans-Serif" font-size="10.00" fill="#000000">ecbDecryptHelper</text>
</a>
</g>
</g>
<!-- Node94&#45;&gt;Node97 -->
<g id="edge16" class="edge">
<title>Node94&#45;&gt;Node97</title>
<path fill="none" stroke="#191970" d="M201.4068,-90.3623C214.8364,-82.9977 231.6089,-74.1428 247,-67 254.0897,-63.7098 261.918,-60.4365 269.1394,-57.5572"/>
<polygon fill="#191970" stroke="#191970" points="199.337,-87.5077 192.2862,-95.4157 202.7296,-93.6307 199.337,-87.5077"/>
</g>
<!-- Node99 -->
<g id="node18" class="node">
<title>Node99</title>
<g id="a_node18"><a xlink:href="$ecb_8h.html#ab4c77adefd8655ebd7bc79524f958013" xlink:title="ecbDecryptFile &#45; Function to encrypt the file with name ">
<polygon fill="#ffffff" stroke="#000000" points="253,-.5 253,-19.5 336,-19.5 336,-.5 253,-.5"/>
<text text-anchor="middle" x="294.5" y="-7.5" font-family="Helvetica,sans-Serif" font-size="10.00" fill="#000000">ecbDecryptFile</text>
</a>
</g>
</g>
<!-- Node94&#45;&gt;Node99 -->
<g id="edge18" class="edge">
<title>Node94&#45;&gt;Node99</title>
<path fill="none" stroke="#191970" d="M188.416,-87.3266C201.548,-70.4157 223.289,-45.1591 247,-29 252.4312,-25.2986 258.6914,-22.1495 264.8476,-19.5427"/>
<polygon fill="#191970" stroke="#191970" points="185.6127,-85.2308 182.3687,-95.3168 191.1944,-89.4552 185.6127,-85.2308"/>
</g>
<!-- Node98 -->
<g id="node17" class="node">
<title>Node98</title>
<g id="a_node17"><a xlink:href="$ecb_8h.html#acd982a867b70e4f75f2232c974a1e4ae" xlink:title="ecbDecrypt &#45; Function to decrypt the user input pointed to by ">
<polygon fill="#ffffff" stroke="#000000" points="378,-38.5 378,-57.5 445,-57.5 445,-38.5 378,-38.5"/>
<text text-anchor="middle" x="411.5" y="-45.5" font-family="Helvetica,sans-Serif" font-size="10.00" fill="#000000">ecbDecrypt</text>
</a>
</g>
</g>
<!-- Node97&#45;&gt;Node98 -->
<g id="edge17" class="edge">
<title>Node97&#45;&gt;Node98</title>
<path fill="none" stroke="#191970" d="M352.3346,-48C361.1109,-48 369.9073,-48 377.9333,-48"/>
<polygon fill="#191970" stroke="#191970" points="352.0884,-44.5001 342.0884,-48 352.0883,-51.5001 352.0884,-44.5001"/>
</g>
</g>
</svg>
