<?xml version="1.0" encoding="UTF-8" standalone="no"?>
<!DOCTYPE svg PUBLIC "-//W3C//DTD SVG 1.1//EN"
 "http://www.w3.org/Graphics/SVG/1.1/DTD/svg11.dtd">
<!-- Generated by graphviz version 2.40.1 (20161225.0304)
 -->
<!-- Title: galloisFieldMult Pages: 1 -->
<svg width="553pt" height="180pt"
 viewBox="0.00 0.00 553.00 180.00" xmlns="http://www.w3.org/2000/svg" xmlns:xlink="http://www.w3.org/1999/xlink">
<g id="graph0" class="graph" transform="scale(1 1) rotate(0) translate(4 176)">
<title>galloisFieldMult</title>
<polygon fill="#ffffff" stroke="transparent" points="-4,4 -4,-176 549,-176 549,4 -4,4"/>
<!-- Node110 -->
<g id="node1" class="node">
<title>Node110</title>
<polygon fill="#bfbfbf" stroke="#000000" points="0,-113.5 0,-132.5 84,-132.5 84,-113.5 0,-113.5"/>
<text text-anchor="middle" x="42" y="-120.5" font-family="Helvetica,sans-Serif" font-size="10.00" fill="#000000">galloisFieldMult</text>
</g>
<!-- Node111 -->
<g id="node2" class="node">
<title>Node111</title>
<g id="a_node2"><a xlink:href="$_a_e_s_8h.html#a15e43c925ddfb0fcc1e4a6138962ce68" xlink:title="invMixColumns &#45; Function that does the inverse of the Mix Column Step for AES Encryption. Performs the gallois field multiplication and the required XOR to the state passed in as a paramter ">
<polygon fill="#ffffff" stroke="#000000" points="120,-113.5 120,-132.5 204,-132.5 204,-113.5 120,-113.5"/>
<text text-anchor="middle" x="162" y="-120.5" font-family="Helvetica,sans-Serif" font-size="10.00" fill="#000000">invMixColumns</text>
</a>
</g>
</g>
<!-- Node110&#45;&gt;Node111 -->
<g id="edge1" class="edge">
<title>Node110&#45;&gt;Node111</title>
<path fill="none" stroke="#191970" d="M94.447,-123C102.8793,-123 111.5138,-123 119.6701,-123"/>
<polygon fill="#191970" stroke="#191970" points="94.3075,-119.5001 84.3075,-123 94.3075,-126.5001 94.3075,-119.5001"/>
</g>
<!-- Node112 -->
<g id="node3" class="node">
<title>Node112</title>
<g id="a_node3"><a xlink:href="$_a_e_s_8h.html#aea7dd7439aa08f23e6fecd32d4055ac3" xlink:title="AESDecrypt &#45; Function to decrypt a single block of ciphertext passed in as parameter &#160;cipherText usin...">
<polygon fill="#ffffff" stroke="#000000" points="240,-85.5 240,-104.5 311,-104.5 311,-85.5 240,-85.5"/>
<text text-anchor="middle" x="275.5" y="-92.5" font-family="Helvetica,sans-Serif" font-size="10.00" fill="#000000">AESDecrypt</text>
</a>
</g>
</g>
<!-- Node111&#45;&gt;Node112 -->
<g id="edge2" class="edge">
<title>Node111&#45;&gt;Node112</title>
<path fill="none" stroke="#191970" d="M210.4856,-111.0388C220.3888,-108.5957 230.635,-106.068 239.9831,-103.7619"/>
<polygon fill="#191970" stroke="#191970" points="209.6134,-107.6489 200.7428,-113.4423 211.2901,-114.4452 209.6134,-107.6489"/>
</g>
<!-- Node113 -->
<g id="node4" class="node">
<title>Node113</title>
<g id="a_node4"><a xlink:href="$aes_tester_8c.html#a0ddf1224851353fc92bfbff6f499fa97" xlink:title="main">
<polygon fill="#ffffff" stroke="#000000" points="375.5,-152.5 375.5,-171.5 413.5,-171.5 413.5,-152.5 375.5,-152.5"/>
<text text-anchor="middle" x="394.5" y="-159.5" font-family="Helvetica,sans-Serif" font-size="10.00" fill="#000000">main</text>
</a>
</g>
</g>
<!-- Node111&#45;&gt;Node113 -->
<g id="edge9" class="edge">
<title>Node111&#45;&gt;Node113</title>
<path fill="none" stroke="#191970" d="M213.9845,-131.72C265.0934,-140.2931 340.3694,-152.92 375.3407,-158.7862"/>
<polygon fill="#191970" stroke="#191970" points="214.5452,-128.2652 204.104,-130.0626 213.3872,-135.1688 214.5452,-128.2652"/>
</g>
<!-- Node112&#45;&gt;Node113 -->
<g id="edge3" class="edge">
<title>Node112&#45;&gt;Node113</title>
<path fill="none" stroke="#191970" d="M296.25,-110.638C310.1461,-120.6749 329.1055,-133.5501 347,-143 355.9535,-147.7282 366.3521,-152.0131 375.1334,-155.3119"/>
<polygon fill="#191970" stroke="#191970" points="298.0439,-107.613 287.9116,-104.5167 293.9015,-113.2558 298.0439,-107.613"/>
</g>
<!-- Node114 -->
<g id="node5" class="node">
<title>Node114</title>
<g id="a_node5"><a xlink:href="$cbc_8h.html#a9375da4cc24b1bedceb0364f2865bcc3" xlink:title="cbcDecryptFile &#45; Function to decrypt the file with name ">
<polygon fill="#ffffff" stroke="#000000" points="353,-114.5 353,-133.5 436,-133.5 436,-114.5 353,-114.5"/>
<text text-anchor="middle" x="394.5" y="-121.5" font-family="Helvetica,sans-Serif" font-size="10.00" fill="#000000">cbcDecryptFile</text>
</a>
</g>
</g>
<!-- Node112&#45;&gt;Node114 -->
<g id="edge4" class="edge">
<title>Node112&#45;&gt;Node114</title>
<path fill="none" stroke="#191970" d="M320.9738,-106.0819C332.3554,-108.8555 344.4631,-111.8061 355.4989,-114.4955"/>
<polygon fill="#191970" stroke="#191970" points="321.7483,-102.6682 311.2039,-103.701 320.0909,-109.4692 321.7483,-102.6682"/>
</g>
<!-- Node115 -->
<g id="node6" class="node">
<title>Node115</title>
<g id="a_node6"><a xlink:href="$cbc_8h.html#a95fbad6d45d4b793610fe663939b5f8c" xlink:title="cbcDecrypt &#45; Function to decrypt the user input pointed to by ">
<polygon fill="#ffffff" stroke="#000000" points="361,-76.5 361,-95.5 428,-95.5 428,-76.5 361,-76.5"/>
<text text-anchor="middle" x="394.5" y="-83.5" font-family="Helvetica,sans-Serif" font-size="10.00" fill="#000000">cbcDecrypt</text>
</a>
</g>
</g>
<!-- Node112&#45;&gt;Node115 -->
<g id="edge5" class="edge">
<title>Node112&#45;&gt;Node115</title>
<path fill="none" stroke="#191970" d="M321.4713,-91.5232C334.5866,-90.5313 348.6279,-89.4693 360.8592,-88.5443"/>
<polygon fill="#191970" stroke="#191970" points="320.9115,-88.0554 311.2039,-92.2997 321.4394,-95.0355 320.9115,-88.0554"/>
</g>
<!-- Node116 -->
<g id="node7" class="node">
<title>Node116</title>
<g id="a_node7"><a xlink:href="$ecb_8h.html#a9661ce321dd2649926ebadd2ab9dcd20" xlink:title="ecbDecryptHelper &#45; Helper function used to decrypt the ciphertext pointed to by ">
<polygon fill="#ffffff" stroke="#000000" points="347,-38.5 347,-57.5 442,-57.5 442,-38.5 347,-38.5"/>
<text text-anchor="middle" x="394.5" y="-45.5" font-family="Helvetica,sans-Serif" font-size="10.00" fill="#000000">ecbDecryptHelper</text>
</a>
</g>
</g>
<!-- Node112&#45;&gt;Node116 -->
<g id="edge6" class="edge">
<title>Node112&#45;&gt;Node116</title>
<path fill="none" stroke="#191970" d="M308.9747,-81.7789C328.3899,-74.1107 352.4095,-64.624 370.0459,-57.6583"/>
<polygon fill="#191970" stroke="#191970" points="307.5966,-78.56 299.5814,-85.4888 310.168,-85.0706 307.5966,-78.56"/>
</g>
<!-- Node118 -->
<g id="node9" class="node">
<title>Node118</title>
<g id="a_node9"><a xlink:href="$ecb_8h.html#ab4c77adefd8655ebd7bc79524f958013" xlink:title="ecbDecryptFile &#45; Function to encrypt the file with name ">
<polygon fill="#ffffff" stroke="#000000" points="353,-.5 353,-19.5 436,-19.5 436,-.5 353,-.5"/>
<text text-anchor="middle" x="394.5" y="-7.5" font-family="Helvetica,sans-Serif" font-size="10.00" fill="#000000">ecbDecryptFile</text>
</a>
</g>
</g>
<!-- Node112&#45;&gt;Node118 -->
<g id="edge8" class="edge">
<title>Node112&#45;&gt;Node118</title>
<path fill="none" stroke="#191970" d="M290.9746,-77.5158C304.5759,-62.9858 325.5037,-42.566 347,-29 352.7085,-25.3975 359.2139,-22.2594 365.54,-19.6275"/>
<polygon fill="#191970" stroke="#191970" points="288.0281,-75.5517 283.8641,-85.294 293.1946,-80.2747 288.0281,-75.5517"/>
</g>
<!-- Node117 -->
<g id="node8" class="node">
<title>Node117</title>
<g id="a_node8"><a xlink:href="$ecb_8h.html#acd982a867b70e4f75f2232c974a1e4ae" xlink:title="ecbDecrypt &#45; Function to decrypt the user input pointed to by ">
<polygon fill="#ffffff" stroke="#000000" points="478,-38.5 478,-57.5 545,-57.5 545,-38.5 478,-38.5"/>
<text text-anchor="middle" x="511.5" y="-45.5" font-family="Helvetica,sans-Serif" font-size="10.00" fill="#000000">ecbDecrypt</text>
</a>
</g>
</g>
<!-- Node116&#45;&gt;Node117 -->
<g id="edge7" class="edge">
<title>Node116&#45;&gt;Node117</title>
<path fill="none" stroke="#191970" d="M452.3346,-48C461.1109,-48 469.9073,-48 477.9333,-48"/>
<polygon fill="#191970" stroke="#191970" points="452.0884,-44.5001 442.0884,-48 452.0883,-51.5001 452.0884,-44.5001"/>
</g>
</g>
</svg>
