<?xml version="1.0" encoding="UTF-8" standalone="no"?>
<!DOCTYPE svg PUBLIC "-//W3C//DTD SVG 1.1//EN"
 "http://www.w3.org/Graphics/SVG/1.1/DTD/svg11.dtd">
<!-- Generated by graphviz version 2.40.1 (20161225.0304)
 -->
<!-- Title: isFileTxt Pages: 1 -->
<svg width="181pt" height="104pt"
 viewBox="0.00 0.00 181.00 104.00" xmlns="http://www.w3.org/2000/svg" xmlns:xlink="http://www.w3.org/1999/xlink">
<g id="graph0" class="graph" transform="scale(1 1) rotate(0) translate(4 100)">
<title>isFileTxt</title>
<polygon fill="#ffffff" stroke="transparent" points="-4,4 -4,-100 177,-100 177,4 -4,4"/>
<!-- Node330 -->
<g id="node1" class="node">
<title>Node330</title>
<polygon fill="#bfbfbf" stroke="#000000" points="0,-38.5 0,-57.5 54,-57.5 54,-38.5 0,-38.5"/>
<text text-anchor="middle" x="27" y="-45.5" font-family="Helvetica,sans-Serif" font-size="10.00" fill="#000000">isFileTxt</text>
</g>
<!-- Node331 -->
<g id="node2" class="node">
<title>Node331</title>
<g id="a_node2"><a xlink:href="$cbc_8h.html#a9375da4cc24b1bedceb0364f2865bcc3" xlink:title="cbcDecryptFile &#45; Function to decrypt the file with name ">
<polygon fill="#ffffff" stroke="#000000" points="90,-76.5 90,-95.5 173,-95.5 173,-76.5 90,-76.5"/>
<text text-anchor="middle" x="131.5" y="-83.5" font-family="Helvetica,sans-Serif" font-size="10.00" fill="#000000">cbcDecryptFile</text>
</a>
</g>
</g>
<!-- Node330&#45;&gt;Node331 -->
<g id="edge1" class="edge">
<title>Node330&#45;&gt;Node331</title>
<path fill="none" stroke="#191970" d="M63.0745,-61.118C76.8959,-66.1439 92.3925,-71.7791 105.1387,-76.4141"/>
<polygon fill="#191970" stroke="#191970" points="63.9638,-57.7172 53.3698,-57.589 61.5716,-64.2958 63.9638,-57.7172"/>
</g>
<!-- Node332 -->
<g id="node3" class="node">
<title>Node332</title>
<g id="a_node3"><a xlink:href="$cfb_8h.html#a6dce0b90ab3948c3df032eb61c2a64ea" xlink:title="cfbDecryptFile &#45; Function to decrypt the file with name ">
<polygon fill="#ffffff" stroke="#000000" points="91.5,-38.5 91.5,-57.5 171.5,-57.5 171.5,-38.5 91.5,-38.5"/>
<text text-anchor="middle" x="131.5" y="-45.5" font-family="Helvetica,sans-Serif" font-size="10.00" fill="#000000">cfbDecryptFile</text>
</a>
</g>
</g>
<!-- Node330&#45;&gt;Node332 -->
<g id="edge2" class="edge">
<title>Node330&#45;&gt;Node332</title>
<path fill="none" stroke="#191970" d="M64.2005,-48C73.0373,-48 82.5019,-48 91.4594,-48"/>
<polygon fill="#191970" stroke="#191970" points="64.1834,-44.5001 54.1833,-48 64.1833,-51.5001 64.1834,-44.5001"/>
</g>
<!-- Node333 -->
<g id="node4" class="node">
<title>Node333</title>
<g id="a_node4"><a xlink:href="$ecb_8h.html#ab4c77adefd8655ebd7bc79524f958013" xlink:title="ecbDecryptFile &#45; Function to encrypt the file with name ">
<polygon fill="#ffffff" stroke="#000000" points="90,-.5 90,-19.5 173,-19.5 173,-.5 90,-.5"/>
<text text-anchor="middle" x="131.5" y="-7.5" font-family="Helvetica,sans-Serif" font-size="10.00" fill="#000000">ecbDecryptFile</text>
</a>
</g>
</g>
<!-- Node330&#45;&gt;Node333 -->
<g id="edge3" class="edge">
<title>Node330&#45;&gt;Node333</title>
<path fill="none" stroke="#191970" d="M63.0745,-34.882C76.8959,-29.8561 92.3925,-24.2209 105.1387,-19.5859"/>
<polygon fill="#191970" stroke="#191970" points="61.5716,-31.7042 53.3698,-38.411 63.9638,-38.2828 61.5716,-31.7042"/>
</g>
</g>
</svg>
