<?xml version="1.0" encoding="UTF-8" standalone="no"?>
<!DOCTYPE svg PUBLIC "-//W3C//DTD SVG 1.1//EN"
 "http://www.w3.org/Graphics/SVG/1.1/DTD/svg11.dtd">
<!-- Generated by graphviz version 2.40.1 (20161225.0304)
 -->
<!-- Title: validateNumRounds Pages: 1 -->
<svg width="600pt" height="581pt"
 viewBox="0.00 0.00 600.00 580.69" xmlns="http://www.w3.org/2000/svg" xmlns:xlink="http://www.w3.org/1999/xlink">
<g id="graph0" class="graph" transform="scale(1 1) rotate(0) translate(4 576.6882)">
<title>validateNumRounds</title>
<polygon fill="#ffffff" stroke="transparent" points="-4,4 -4,-576.6882 596,-576.6882 596,4 -4,4"/>
<!-- Node544 -->
<g id="node1" class="node">
<title>Node544</title>
<polygon fill="#bfbfbf" stroke="#000000" points="0,-275.5567 0,-294.5567 105,-294.5567 105,-275.5567 0,-275.5567"/>
<text text-anchor="middle" x="52.5" y="-282.5567" font-family="Helvetica,sans-Serif" font-size="10.00" fill="#000000">validateNumRounds</text>
</g>
<!-- Node545 -->
<g id="node2" class="node">
<title>Node545</title>
<g id="a_node2"><a xlink:href="$_a_e_s_8h.html#a0ac21e951d3e46598708ab8fd8bc61c5" xlink:title="AESEncrypt &#45; Function to encrypt a single block of plaintext passed in as parameter &#160;plainText using ...">
<polygon fill="#ffffff" stroke="#000000" points="287,-199.5567 287,-218.5567 358,-218.5567 358,-199.5567 287,-199.5567"/>
<text text-anchor="middle" x="322.5" y="-206.5567" font-family="Helvetica,sans-Serif" font-size="10.00" fill="#000000">AESEncrypt</text>
</a>
</g>
</g>
<!-- Node544&#45;&gt;Node545 -->
<g id="edge1" class="edge">
<title>Node544&#45;&gt;Node545</title>
<path fill="none" stroke="#191970" d="M73.385,-269.5165C90.6138,-257.5289 116.1748,-241.5974 141,-233.0567 189.6903,-216.3057 249.4389,-211.1443 286.7521,-209.6125"/>
<polygon fill="#191970" stroke="#191970" points="71.2926,-266.7098 65.1831,-275.3656 75.357,-272.409 71.2926,-266.7098"/>
</g>
<!-- Node547 -->
<g id="node4" class="node">
<title>Node547</title>
<g id="a_node4"><a xlink:href="$cbc_8h.html#ad055b3ad2664ace8ba1ab68a481dc1b3" xlink:title="cbcEncryptFile &#45; Function to encrypt the file with name ">
<polygon fill="#ffffff" stroke="#000000" points="400.5,-275.5567 400.5,-294.5567 482.5,-294.5567 482.5,-275.5567 400.5,-275.5567"/>
<text text-anchor="middle" x="441.5" y="-282.5567" font-family="Helvetica,sans-Serif" font-size="10.00" fill="#000000">cbcEncryptFile</text>
</a>
</g>
</g>
<!-- Node544&#45;&gt;Node547 -->
<g id="edge23" class="edge">
<title>Node544&#45;&gt;Node547</title>
<path fill="none" stroke="#191970" d="M115.8363,-285.0567C196.1539,-285.0567 332.3484,-285.0567 400.3336,-285.0567"/>
<polygon fill="#191970" stroke="#191970" points="115.3671,-281.5568 105.3671,-285.0567 115.3671,-288.5568 115.3671,-281.5568"/>
</g>
<!-- Node548 -->
<g id="node5" class="node">
<title>Node548</title>
<g id="a_node5"><a xlink:href="$cbc_8h.html#a90f1f37609cf336c57cd0300282c1dac" xlink:title="cbcEncrypt &#45; Function to encrypt the user input pointed to by ">
<polygon fill="#ffffff" stroke="#000000" points="408.5,-237.5567 408.5,-256.5567 474.5,-256.5567 474.5,-237.5567 408.5,-237.5567"/>
<text text-anchor="middle" x="441.5" y="-244.5567" font-family="Helvetica,sans-Serif" font-size="10.00" fill="#000000">cbcEncrypt</text>
</a>
</g>
</g>
<!-- Node544&#45;&gt;Node548 -->
<g id="edge25" class="edge">
<title>Node544&#45;&gt;Node548</title>
<path fill="none" stroke="#191970" d="M115.4995,-278.9025C199.101,-270.7358 343.6672,-256.6137 408.44,-250.2863"/>
<polygon fill="#191970" stroke="#191970" points="114.9794,-275.4366 105.3671,-279.8923 115.66,-282.4034 114.9794,-275.4366"/>
</g>
<!-- Node549 -->
<g id="node6" class="node">
<title>Node549</title>
<g id="a_node6"><a xlink:href="$cfb_8h.html#a9384de325e389ba7809b7ee98320f485" xlink:title="cfbEncryptFile &#45; Function to encrypt the file with name ">
<polygon fill="#ffffff" stroke="#000000" points="401.5,-161.5567 401.5,-180.5567 481.5,-180.5567 481.5,-161.5567 401.5,-161.5567"/>
<text text-anchor="middle" x="441.5" y="-168.5567" font-family="Helvetica,sans-Serif" font-size="10.00" fill="#000000">cfbEncryptFile</text>
</a>
</g>
</g>
<!-- Node544&#45;&gt;Node549 -->
<g id="edge27" class="edge">
<title>Node544&#45;&gt;Node549</title>
<path fill="none" stroke="#191970" d="M66.9656,-267.3998C82.9963,-249.1889 110.6274,-221.5965 141,-208.0567 227.6575,-169.4258 341.5035,-166.8765 401.1175,-168.7329"/>
<polygon fill="#191970" stroke="#191970" points="63.8961,-265.6049 60.0666,-275.4834 69.2206,-270.1491 63.8961,-265.6049"/>
</g>
<!-- Node550 -->
<g id="node7" class="node">
<title>Node550</title>
<g id="a_node7"><a xlink:href="$cfb_8h.html#a6dce0b90ab3948c3df032eb61c2a64ea" xlink:title="cfbDecryptFile &#45; Function to decrypt the file with name ">
<polygon fill="#ffffff" stroke="#000000" points="401.5,-123.5567 401.5,-142.5567 481.5,-142.5567 481.5,-123.5567 401.5,-123.5567"/>
<text text-anchor="middle" x="441.5" y="-130.5567" font-family="Helvetica,sans-Serif" font-size="10.00" fill="#000000">cfbDecryptFile</text>
</a>
</g>
</g>
<!-- Node544&#45;&gt;Node550 -->
<g id="edge28" class="edge">
<title>Node544&#45;&gt;Node550</title>
<path fill="none" stroke="#191970" d="M61.6439,-266.2184C75.1436,-240.6449 102.9747,-195.6599 141,-174.0567 224.207,-126.7846 340.7319,-125.9694 401.3259,-129.4732"/>
<polygon fill="#191970" stroke="#191970" points="58.4506,-264.7764 57.0352,-275.2763 64.6895,-267.9508 58.4506,-264.7764"/>
</g>
<!-- Node551 -->
<g id="node8" class="node">
<title>Node551</title>
<g id="a_node8"><a xlink:href="$cfb_8h.html#a826aec09cb2af95cb8781d2b4c211182" xlink:title="cfbEncrypt &#45; Function to encrypt the user input pointed to by ">
<polygon fill="#ffffff" stroke="#000000" points="409.5,-85.5567 409.5,-104.5567 473.5,-104.5567 473.5,-85.5567 409.5,-85.5567"/>
<text text-anchor="middle" x="441.5" y="-92.5567" font-family="Helvetica,sans-Serif" font-size="10.00" fill="#000000">cfbEncrypt</text>
</a>
</g>
</g>
<!-- Node544&#45;&gt;Node551 -->
<g id="edge29" class="edge">
<title>Node544&#45;&gt;Node551</title>
<path fill="none" stroke="#191970" d="M57.8702,-265.3101C68.0288,-232.0862 93.4267,-165.5571 141,-134.0567 224.7795,-78.5828 350.8194,-84.1768 409.4229,-90.5938"/>
<polygon fill="#191970" stroke="#191970" points="54.4254,-264.6226 54.9994,-275.2019 61.148,-266.5738 54.4254,-264.6226"/>
</g>
<!-- Node552 -->
<g id="node9" class="node">
<title>Node552</title>
<g id="a_node9"><a xlink:href="$cfb_8h.html#ad6a75d43203e367b8a83f6b7c7f506c6" xlink:title="cfbDecrypt &#45; Function to decrypt the user input pointed to by ">
<polygon fill="#ffffff" stroke="#000000" points="409,-47.5567 409,-66.5567 474,-66.5567 474,-47.5567 409,-47.5567"/>
<text text-anchor="middle" x="441.5" y="-54.5567" font-family="Helvetica,sans-Serif" font-size="10.00" fill="#000000">cfbDecrypt</text>
</a>
</g>
</g>
<!-- Node544&#45;&gt;Node552 -->
<g id="edge30" class="edge">
<title>Node544&#45;&gt;Node552</title>
<path fill="none" stroke="#191970" d="M55.0309,-265.313C61.3548,-224.894 81.8372,-132.9277 141,-90.0567 222.173,-31.2366 349.4958,-41.8175 408.9188,-50.9826"/>
<polygon fill="#191970" stroke="#191970" points="51.5592,-264.8667 53.6024,-275.2627 58.4882,-265.8617 51.5592,-264.8667"/>
</g>
<!-- Node554 -->
<g id="node11" class="node">
<title>Node554</title>
<g id="a_node11"><a xlink:href="$ecb_8h.html#aa451eb4920a712afa521f06831277731" xlink:title="ecbEncrypt &#45; Function to encrypt the user input pointed to by ">
<polygon fill="#ffffff" stroke="#000000" points="525.5,-256.5567 525.5,-275.5567 591.5,-275.5567 591.5,-256.5567 525.5,-256.5567"/>
<text text-anchor="middle" x="558.5" y="-263.5567" font-family="Helvetica,sans-Serif" font-size="10.00" fill="#000000">ecbEncrypt</text>
</a>
</g>
</g>
<!-- Node544&#45;&gt;Node554 -->
<g id="edge31" class="edge">
<title>Node544&#45;&gt;Node554</title>
<path fill="none" stroke="#191970" d="M103.1851,-296.6386C185.5719,-313.3963 353.0167,-338.8046 489,-304.0567 510.3178,-298.6094 532.1368,-285.1275 545.5032,-275.7821"/>
<polygon fill="#191970" stroke="#191970" points="103.8314,-293.1983 93.3286,-294.592 102.4082,-300.0521 103.8314,-293.1983"/>
</g>
<!-- Node555 -->
<g id="node12" class="node">
<title>Node555</title>
<g id="a_node12"><a xlink:href="$ecb_8h.html#ab68902caeba7880cf1be8b40e8bb9a50" xlink:title="ecbEncryptFile &#45; Function to encrypt the file with name ">
<polygon fill="#ffffff" stroke="#000000" points="400.5,-9.5567 400.5,-28.5567 482.5,-28.5567 482.5,-9.5567 400.5,-9.5567"/>
<text text-anchor="middle" x="441.5" y="-16.5567" font-family="Helvetica,sans-Serif" font-size="10.00" fill="#000000">ecbEncryptFile</text>
</a>
</g>
</g>
<!-- Node544&#45;&gt;Node555 -->
<g id="edge33" class="edge">
<title>Node544&#45;&gt;Node555</title>
<path fill="none" stroke="#191970" d="M56.9189,-265.3295C69.0506,-213.0415 104.4112,-72.9823 141,-45.0567 217.0721,13.0034 337.6701,1.4189 400.4561,-9.9641"/>
<polygon fill="#191970" stroke="#191970" points="53.4464,-264.8146 54.6323,-275.3428 60.2708,-266.373 53.4464,-264.8146"/>
</g>
<!-- Node556 -->
<g id="node13" class="node">
<title>Node556</title>
<g id="a_node13"><a xlink:href="$_a_e_s_8h.html#aea7dd7439aa08f23e6fecd32d4055ac3" xlink:title="AESDecrypt &#45; Function to decrypt a single block of ciphertext passed in as parameter &#160;cipherText usin...">
<polygon fill="#ffffff" stroke="#000000" points="287,-427.5567 287,-446.5567 358,-446.5567 358,-427.5567 287,-427.5567"/>
<text text-anchor="middle" x="322.5" y="-434.5567" font-family="Helvetica,sans-Serif" font-size="10.00" fill="#000000">AESDecrypt</text>
</a>
</g>
</g>
<!-- Node544&#45;&gt;Node556 -->
<g id="edge12" class="edge">
<title>Node544&#45;&gt;Node556</title>
<path fill="none" stroke="#191970" d="M59.7778,-304.2554C71.8435,-333.193 98.9136,-387.3306 141,-413.0567 185.747,-440.4092 248.2111,-442.4727 286.9651,-440.4836"/>
<polygon fill="#191970" stroke="#191970" points="62.9733,-302.82 56.0114,-294.8337 56.4734,-305.4184 62.9733,-302.82"/>
</g>
<!-- Node557 -->
<g id="node14" class="node">
<title>Node557</title>
<g id="a_node14"><a xlink:href="$cbc_8h.html#a9375da4cc24b1bedceb0364f2865bcc3" xlink:title="cbcDecryptFile &#45; Function to decrypt the file with name ">
<polygon fill="#ffffff" stroke="#000000" points="400,-503.5567 400,-522.5567 483,-522.5567 483,-503.5567 400,-503.5567"/>
<text text-anchor="middle" x="441.5" y="-510.5567" font-family="Helvetica,sans-Serif" font-size="10.00" fill="#000000">cbcDecryptFile</text>
</a>
</g>
</g>
<!-- Node544&#45;&gt;Node557 -->
<g id="edge24" class="edge">
<title>Node544&#45;&gt;Node557</title>
<path fill="none" stroke="#191970" d="M55.6682,-304.8751C63.0186,-343.8841 85.0732,-430.5227 141,-473.0567 217.2426,-531.0416 336.9601,-526.7965 399.8012,-519.4973"/>
<polygon fill="#191970" stroke="#191970" points="59.0768,-304.0491 53.9028,-294.8036 52.182,-305.2577 59.0768,-304.0491"/>
</g>
<!-- Node558 -->
<g id="node15" class="node">
<title>Node558</title>
<g id="a_node15"><a xlink:href="$cbc_8h.html#a95fbad6d45d4b793610fe663939b5f8c" xlink:title="cbcDecrypt &#45; Function to decrypt the user input pointed to by ">
<polygon fill="#ffffff" stroke="#000000" points="408,-465.5567 408,-484.5567 475,-484.5567 475,-465.5567 408,-465.5567"/>
<text text-anchor="middle" x="441.5" y="-472.5567" font-family="Helvetica,sans-Serif" font-size="10.00" fill="#000000">cbcDecrypt</text>
</a>
</g>
</g>
<!-- Node544&#45;&gt;Node558 -->
<g id="edge26" class="edge">
<title>Node544&#45;&gt;Node558</title>
<path fill="none" stroke="#191970" d="M57.397,-304.4506C67.0572,-338.3107 92.0127,-407.6828 141,-440.0567 223.8172,-494.7876 348.1399,-487.782 407.5424,-480.3661"/>
<polygon fill="#191970" stroke="#191970" points="60.7756,-303.5366 54.7869,-294.7968 54.0182,-305.3637 60.7756,-303.5366"/>
</g>
<!-- Node560 -->
<g id="node17" class="node">
<title>Node560</title>
<g id="a_node17"><a xlink:href="$ecb_8h.html#acd982a867b70e4f75f2232c974a1e4ae" xlink:title="ecbDecrypt &#45; Function to decrypt the user input pointed to by ">
<polygon fill="#ffffff" stroke="#000000" points="525,-484.5567 525,-503.5567 592,-503.5567 592,-484.5567 525,-484.5567"/>
<text text-anchor="middle" x="558.5" y="-491.5567" font-family="Helvetica,sans-Serif" font-size="10.00" fill="#000000">ecbDecrypt</text>
</a>
</g>
</g>
<!-- Node544&#45;&gt;Node560 -->
<g id="edge32" class="edge">
<title>Node544&#45;&gt;Node560</title>
<path fill="none" stroke="#191970" d="M54.1651,-305.0263C58.9715,-349.1145 76.9379,-455.0503 141,-508.0567 260.447,-606.8898 339.3957,-572.7274 489,-532.0567 510.2322,-526.2847 532.0726,-512.8839 545.4671,-503.6451"/>
<polygon fill="#191970" stroke="#191970" points="57.641,-304.6078 53.1874,-294.9945 50.674,-305.2869 57.641,-304.6078"/>
</g>
<!-- Node561 -->
<g id="node18" class="node">
<title>Node561</title>
<g id="a_node18"><a xlink:href="$ecb_8h.html#ab4c77adefd8655ebd7bc79524f958013" xlink:title="ecbDecryptFile &#45; Function to encrypt the file with name ">
<polygon fill="#ffffff" stroke="#000000" points="400,-389.5567 400,-408.5567 483,-408.5567 483,-389.5567 400,-389.5567"/>
<text text-anchor="middle" x="441.5" y="-396.5567" font-family="Helvetica,sans-Serif" font-size="10.00" fill="#000000">ecbDecryptFile</text>
</a>
</g>
</g>
<!-- Node544&#45;&gt;Node561 -->
<g id="edge34" class="edge">
<title>Node544&#45;&gt;Node561</title>
<path fill="none" stroke="#191970" d="M63.418,-303.5252C77.9299,-326.1274 105.8788,-363.4375 141,-380.0567 225.8159,-420.1912 339.4292,-413.3846 399.757,-405.7326"/>
<polygon fill="#191970" stroke="#191970" points="66.2809,-301.5005 58.0395,-294.8423 60.33,-305.1866 66.2809,-301.5005"/>
</g>
<!-- Node562 -->
<g id="node19" class="node">
<title>Node562</title>
<g id="a_node19"><a xlink:href="$_a_e_s_8h.html#a53bffc877a08f01e5fd9cf1e28298aab" xlink:title="RijndaelKeySchedule &#45; Function that performs the Rijndael key scheduling for AES encryption. Takes in the original key passed in as parameter. ">
<polygon fill="#ffffff" stroke="#000000" points="141,-351.5567 141,-370.5567 251,-370.5567 251,-351.5567 141,-351.5567"/>
<text text-anchor="middle" x="196" y="-358.5567" font-family="Helvetica,sans-Serif" font-size="10.00" fill="#000000">RijndaelKeySchedule</text>
</a>
</g>
</g>
<!-- Node544&#45;&gt;Node562 -->
<g id="edge19" class="edge">
<title>Node544&#45;&gt;Node562</title>
<path fill="none" stroke="#191970" d="M76.514,-300.2237C94.0719,-311.0505 118.6278,-325.6546 141,-337.0567 151.1175,-342.2132 162.5903,-347.3296 172.43,-351.5052"/>
<polygon fill="#191970" stroke="#191970" points="77.8782,-296.9504 67.5379,-294.6417 74.1815,-302.8948 77.8782,-296.9504"/>
</g>
<!-- Node546 -->
<g id="node3" class="node">
<title>Node546</title>
<g id="a_node3"><a xlink:href="$aes_tester_8c.html#a0ddf1224851353fc92bfbff6f499fa97" xlink:title="main">
<polygon fill="#ffffff" stroke="#000000" points="422.5,-351.5567 422.5,-370.5567 460.5,-370.5567 460.5,-351.5567 422.5,-351.5567"/>
<text text-anchor="middle" x="441.5" y="-358.5567" font-family="Helvetica,sans-Serif" font-size="10.00" fill="#000000">main</text>
</a>
</g>
</g>
<!-- Node545&#45;&gt;Node546 -->
<g id="edge2" class="edge">
<title>Node545&#45;&gt;Node546</title>
<path fill="none" stroke="#191970" d="M335.4148,-226.7564C349.5405,-245.987 372.9755,-277.517 394,-304.0567 407.438,-321.0199 423.6952,-340.2667 433.2841,-351.4945"/>
<polygon fill="#191970" stroke="#191970" points="338.1833,-224.613 329.4505,-218.6139 332.5361,-228.7494 338.1833,-224.613"/>
</g>
<!-- Node545&#45;&gt;Node547 -->
<g id="edge3" class="edge">
<title>Node545&#45;&gt;Node547</title>
<path fill="none" stroke="#191970" d="M340.2076,-225.6174C354.0599,-237.9439 374.2262,-254.5566 394,-266.0567 400.1422,-269.6289 407.0842,-272.824 413.7263,-275.5288"/>
<polygon fill="#191970" stroke="#191970" points="342.2146,-222.7121 332.4585,-218.5804 337.5086,-227.8943 342.2146,-222.7121"/>
</g>
<!-- Node545&#45;&gt;Node548 -->
<g id="edge4" class="edge">
<title>Node545&#45;&gt;Node548</title>
<path fill="none" stroke="#191970" d="M362.2098,-221.7372C378.2886,-226.8716 396.5433,-232.7008 411.4809,-237.4708"/>
<polygon fill="#191970" stroke="#191970" points="363.1195,-218.3536 352.5287,-218.6457 360.9901,-225.0219 363.1195,-218.3536"/>
</g>
<!-- Node545&#45;&gt;Node549 -->
<g id="edge5" class="edge">
<title>Node545&#45;&gt;Node549</title>
<path fill="none" stroke="#191970" d="M362.2098,-196.3763C378.2886,-191.2419 396.5433,-185.4127 411.4809,-180.6427"/>
<polygon fill="#191970" stroke="#191970" points="360.9901,-193.0916 352.5287,-199.4677 363.1195,-199.7599 360.9901,-193.0916"/>
</g>
<!-- Node545&#45;&gt;Node550 -->
<g id="edge6" class="edge">
<title>Node545&#45;&gt;Node550</title>
<path fill="none" stroke="#191970" d="M340.2076,-192.4961C354.0599,-180.1696 374.2262,-163.5569 394,-152.0567 400.1422,-148.4845 407.0842,-145.2895 413.7263,-142.5847"/>
<polygon fill="#191970" stroke="#191970" points="337.5086,-190.2192 332.4585,-199.5331 342.2146,-195.4013 337.5086,-190.2192"/>
</g>
<!-- Node545&#45;&gt;Node551 -->
<g id="edge7" class="edge">
<title>Node545&#45;&gt;Node551</title>
<path fill="none" stroke="#191970" d="M332.3863,-190.3696C344.4099,-169.2429 366.5426,-135.0629 394,-114.0567 398.9379,-110.279 404.7269,-107.1466 410.5323,-104.5892"/>
<polygon fill="#191970" stroke="#191970" points="329.2146,-188.8734 327.4534,-199.3209 335.3453,-192.252 329.2146,-188.8734"/>
</g>
<!-- Node545&#45;&gt;Node552 -->
<g id="edge8" class="edge">
<title>Node545&#45;&gt;Node552</title>
<path fill="none" stroke="#191970" d="M328.2192,-189.5861C337.5471,-160.9984 358.6318,-107.6458 394,-76.0567 398.2395,-72.2702 403.3281,-69.1894 408.5761,-66.6982"/>
<polygon fill="#191970" stroke="#191970" points="324.8467,-188.6446 325.2146,-199.233 331.53,-190.7262 324.8467,-188.6446"/>
</g>
<!-- Node553 -->
<g id="node10" class="node">
<title>Node553</title>
<g id="a_node10"><a xlink:href="$ecb_8h.html#a50ddfe369298c1293b5c57662f569127" xlink:title="ecbEcryptHelper &#45; Helper function used to encrypt the plaintext pointed to by ">
<polygon fill="#ffffff" stroke="#000000" points="397,-199.5567 397,-218.5567 486,-218.5567 486,-199.5567 397,-199.5567"/>
<text text-anchor="middle" x="441.5" y="-206.5567" font-family="Helvetica,sans-Serif" font-size="10.00" fill="#000000">ecbEcryptHelper</text>
</a>
</g>
</g>
<!-- Node545&#45;&gt;Node553 -->
<g id="edge9" class="edge">
<title>Node545&#45;&gt;Node553</title>
<path fill="none" stroke="#191970" d="M368.5052,-209.0567C377.8525,-209.0567 387.6688,-209.0567 396.964,-209.0567"/>
<polygon fill="#191970" stroke="#191970" points="368.204,-205.5568 358.2039,-209.0567 368.2039,-212.5568 368.204,-205.5568"/>
</g>
<!-- Node545&#45;&gt;Node555 -->
<g id="edge11" class="edge">
<title>Node545&#45;&gt;Node555</title>
<path fill="none" stroke="#191970" d="M325.5791,-189.5904C332.0753,-154.6733 350.3437,-81.0403 394,-38.0567 397.9239,-34.1933 402.7333,-31.0867 407.7691,-28.5971"/>
<polygon fill="#191970" stroke="#191970" points="322.1245,-189.0281 323.8664,-199.4788 329.0218,-190.2228 322.1245,-189.0281"/>
</g>
<!-- Node553&#45;&gt;Node554 -->
<g id="edge10" class="edge">
<title>Node553&#45;&gt;Node554</title>
<path fill="none" stroke="#191970" d="M476.245,-222.3934C480.5738,-224.2192 484.9126,-226.1303 489,-228.0567 507.6591,-236.8509 528.313,-248.3857 542.218,-256.4302"/>
<polygon fill="#191970" stroke="#191970" points="477.4664,-219.1115 466.8859,-218.5598 474.813,-225.5891 477.4664,-219.1115"/>
</g>
<!-- Node556&#45;&gt;Node546 -->
<g id="edge13" class="edge">
<title>Node556&#45;&gt;Node546</title>
<path fill="none" stroke="#191970" d="M340.2076,-420.4961C354.0599,-408.1696 374.2262,-391.5569 394,-380.0567 402.9062,-374.877 413.4939,-370.4903 422.4107,-367.2415"/>
<polygon fill="#191970" stroke="#191970" points="337.5086,-418.2192 332.4585,-427.5331 342.2146,-423.4013 337.5086,-418.2192"/>
</g>
<!-- Node556&#45;&gt;Node557 -->
<g id="edge14" class="edge">
<title>Node556&#45;&gt;Node557</title>
<path fill="none" stroke="#191970" d="M340.2076,-453.6174C354.0599,-465.9439 374.2262,-482.5566 394,-494.0567 400.1422,-497.6289 407.0842,-500.824 413.7263,-503.5288"/>
<polygon fill="#191970" stroke="#191970" points="342.2146,-450.7121 332.4585,-446.5804 337.5086,-455.8943 342.2146,-450.7121"/>
</g>
<!-- Node556&#45;&gt;Node558 -->
<g id="edge15" class="edge">
<title>Node556&#45;&gt;Node558</title>
<path fill="none" stroke="#191970" d="M362.2098,-449.7372C378.2886,-454.8716 396.5433,-460.7008 411.4809,-465.4708"/>
<polygon fill="#191970" stroke="#191970" points="363.1195,-446.3536 352.5287,-446.6457 360.9901,-453.0219 363.1195,-446.3536"/>
</g>
<!-- Node559 -->
<g id="node16" class="node">
<title>Node559</title>
<g id="a_node16"><a xlink:href="$ecb_8h.html#a9661ce321dd2649926ebadd2ab9dcd20" xlink:title="ecbDecryptHelper &#45; Helper function used to decrypt the ciphertext pointed to by ">
<polygon fill="#ffffff" stroke="#000000" points="394,-427.5567 394,-446.5567 489,-446.5567 489,-427.5567 394,-427.5567"/>
<text text-anchor="middle" x="441.5" y="-434.5567" font-family="Helvetica,sans-Serif" font-size="10.00" fill="#000000">ecbDecryptHelper</text>
</a>
</g>
</g>
<!-- Node556&#45;&gt;Node559 -->
<g id="edge16" class="edge">
<title>Node556&#45;&gt;Node559</title>
<path fill="none" stroke="#191970" d="M368.2309,-437.0567C376.6494,-437.0567 385.457,-437.0567 393.9283,-437.0567"/>
<polygon fill="#191970" stroke="#191970" points="368.204,-433.5568 358.2039,-437.0567 368.2039,-440.5568 368.204,-433.5568"/>
</g>
<!-- Node556&#45;&gt;Node561 -->
<g id="edge18" class="edge">
<title>Node556&#45;&gt;Node561</title>
<path fill="none" stroke="#191970" d="M362.2098,-424.3763C378.2886,-419.2419 396.5433,-413.4127 411.4809,-408.6427"/>
<polygon fill="#191970" stroke="#191970" points="360.9901,-421.0916 352.5287,-427.4677 363.1195,-427.7599 360.9901,-421.0916"/>
</g>
<!-- Node559&#45;&gt;Node560 -->
<g id="edge17" class="edge">
<title>Node559&#45;&gt;Node560</title>
<path fill="none" stroke="#191970" d="M476.245,-450.3934C480.5738,-452.2192 484.9126,-454.1303 489,-456.0567 507.6591,-464.8509 528.313,-476.3857 542.218,-484.4302"/>
<polygon fill="#191970" stroke="#191970" points="477.4664,-447.1115 466.8859,-446.5598 474.813,-453.5891 477.4664,-447.1115"/>
</g>
<!-- Node562&#45;&gt;Node545 -->
<g id="edge20" class="edge">
<title>Node562&#45;&gt;Node545</title>
<path fill="none" stroke="#191970" d="M210.3154,-343.8556C237.0489,-311.7332 293.7392,-243.6152 314.5898,-218.5614"/>
<polygon fill="#191970" stroke="#191970" points="207.6198,-341.6232 203.9131,-351.5485 213.0003,-346.101 207.6198,-341.6232"/>
</g>
<!-- Node562&#45;&gt;Node546 -->
<g id="edge22" class="edge">
<title>Node562&#45;&gt;Node546</title>
<path fill="none" stroke="#191970" d="M261.2767,-361.0567C315.2512,-361.0567 388.3737,-361.0567 422.496,-361.0567"/>
<polygon fill="#191970" stroke="#191970" points="261.095,-357.5568 251.095,-361.0567 261.095,-364.5568 261.095,-357.5568"/>
</g>
<!-- Node562&#45;&gt;Node556 -->
<g id="edge21" class="edge">
<title>Node562&#45;&gt;Node556</title>
<path fill="none" stroke="#191970" d="M220.7263,-375.9121C246.1564,-391.1902 285.0063,-414.5309 306.6088,-427.5094"/>
<polygon fill="#191970" stroke="#191970" points="222.3958,-372.832 212.0213,-370.6822 218.7908,-378.8324 222.3958,-372.832"/>
</g>
</g>
</svg>
