<?xml version="1.0" encoding="UTF-8" standalone="no"?>
<!DOCTYPE svg PUBLIC "-//W3C//DTD SVG 1.1//EN"
 "http://www.w3.org/Graphics/SVG/1.1/DTD/svg11.dtd">
<!-- Generated by graphviz version 2.40.1 (20161225.0304)
 -->
<!-- Title: hexToAsciiString Pages: 1 -->
<svg width="291pt" height="28pt"
 viewBox="0.00 0.00 291.00 28.00" xmlns="http://www.w3.org/2000/svg" xmlns:xlink="http://www.w3.org/1999/xlink">
<g id="graph0" class="graph" transform="scale(1 1) rotate(0) translate(4 24)">
<title>hexToAsciiString</title>
<polygon fill="#ffffff" stroke="transparent" points="-4,4 -4,-24 287,-24 287,4 -4,4"/>
<!-- Node261 -->
<g id="node1" class="node">
<title>Node261</title>
<polygon fill="#bfbfbf" stroke="#000000" points="0,-.5 0,-19.5 91,-19.5 91,-.5 0,-.5"/>
<text text-anchor="middle" x="45.5" y="-7.5" font-family="Helvetica,sans-Serif" font-size="10.00" fill="#000000">hexToAsciiString</text>
</g>
<!-- Node262 -->
<g id="node2" class="node">
<title>Node262</title>
<g id="a_node2"><a xlink:href="$_a_e_s_8c.html#aa177516503b10de65b504a3714073ad7" xlink:title="hexToAscii &#45; Function that converts a given hex value to its ASCII equivalent. ">
<polygon fill="#ffffff" stroke="#000000" points="127,-.5 127,-19.5 192,-19.5 192,-.5 127,-.5"/>
<text text-anchor="middle" x="159.5" y="-7.5" font-family="Helvetica,sans-Serif" font-size="10.00" fill="#000000">hexToAscii</text>
</a>
</g>
</g>
<!-- Node261&#45;&gt;Node262 -->
<g id="edge1" class="edge">
<title>Node261&#45;&gt;Node262</title>
<path fill="none" stroke="#191970" d="M91.2113,-10C99.5738,-10 108.2741,-10 116.5525,-10"/>
<polygon fill="#191970" stroke="#191970" points="116.7559,-13.5001 126.7558,-10 116.7558,-6.5001 116.7559,-13.5001"/>
</g>
<!-- Node263 -->
<g id="node3" class="node">
<title>Node263</title>
<g id="a_node3"><a xlink:href="$_a_e_s_8c.html#a7e5ab2188af44718071074f450963568" xlink:title="hexToInt &#45; Function that converts a given hex value into an integer. ">
<polygon fill="#ffffff" stroke="#000000" points="228,-.5 228,-19.5 283,-19.5 283,-.5 228,-.5"/>
<text text-anchor="middle" x="255.5" y="-7.5" font-family="Helvetica,sans-Serif" font-size="10.00" fill="#000000">hexToInt</text>
</a>
</g>
</g>
<!-- Node262&#45;&gt;Node263 -->
<g id="edge2" class="edge">
<title>Node262&#45;&gt;Node263</title>
<path fill="none" stroke="#191970" d="M192.0012,-10C200.2769,-10 209.2412,-10 217.7541,-10"/>
<polygon fill="#191970" stroke="#191970" points="217.8375,-13.5001 227.8375,-10 217.8374,-6.5001 217.8375,-13.5001"/>
</g>
</g>
</svg>
