<?xml version="1.0" encoding="UTF-8" standalone="no"?>
<!DOCTYPE svg PUBLIC "-//W3C//DTD SVG 1.1//EN"
 "http://www.w3.org/Graphics/SVG/1.1/DTD/svg11.dtd">
<!-- Generated by graphviz version 2.40.1 (20161225.0304)
 -->
<!-- Title: AESDecrypt Pages: 1 -->
<svg width="509pt" height="484pt"
 viewBox="0.00 0.00 509.00 484.00" xmlns="http://www.w3.org/2000/svg" xmlns:xlink="http://www.w3.org/1999/xlink">
<g id="graph0" class="graph" transform="scale(1 1) rotate(0) translate(4 480)">
<title>AESDecrypt</title>
<polygon fill="#ffffff" stroke="transparent" points="-4,4 -4,-480 505,-480 505,4 -4,4"/>
<!-- Node19 -->
<g id="node1" class="node">
<title>Node19</title>
<polygon fill="#bfbfbf" stroke="#000000" points="0,-228.5 0,-247.5 71,-247.5 71,-228.5 0,-228.5"/>
<text text-anchor="middle" x="35.5" y="-235.5" font-family="Helvetica,sans-Serif" font-size="10.00" fill="#000000">AESDecrypt</text>
</g>
<!-- Node20 -->
<g id="node2" class="node">
<title>Node20</title>
<g id="a_node2"><a xlink:href="$_a_e_s_8c.html#a5d65eac115e562c64b00a43e72ee6aca" xlink:title="getPaddedKeyLength &#45; Function to return a valid key length (in bytes) based off of the current key le...">
<polygon fill="#ffffff" stroke="#000000" points="116,-456.5 116,-475.5 226,-475.5 226,-456.5 116,-456.5"/>
<text text-anchor="middle" x="171" y="-463.5" font-family="Helvetica,sans-Serif" font-size="10.00" fill="#000000">getPaddedKeyLength</text>
</a>
</g>
</g>
<!-- Node19&#45;&gt;Node20 -->
<g id="edge1" class="edge">
<title>Node19&#45;&gt;Node20</title>
<path fill="none" stroke="#191970" d="M36.0719,-247.5841C38.492,-279.639 50.5666,-384.3309 107,-442 110.8386,-445.9226 115.3791,-449.2113 120.2427,-451.9669"/>
<polygon fill="#191970" stroke="#191970" points="118.7425,-455.1294 129.264,-456.3734 121.8147,-448.8395 118.7425,-455.1294"/>
</g>
<!-- Node21 -->
<g id="node3" class="node">
<title>Node21</title>
<g id="a_node3"><a xlink:href="$_a_e_s_8c.html#a1c2a403d95a85400bbae142d48cb8c9d" xlink:title="getNumRounds &#45; Function to return the number of rounds of AES encryption and decryption based off of ...">
<polygon fill="#ffffff" stroke="#000000" points="281,-418.5 281,-437.5 366,-437.5 366,-418.5 281,-418.5"/>
<text text-anchor="middle" x="323.5" y="-425.5" font-family="Helvetica,sans-Serif" font-size="10.00" fill="#000000">getNumRounds</text>
</a>
</g>
</g>
<!-- Node19&#45;&gt;Node21 -->
<g id="edge2" class="edge">
<title>Node19&#45;&gt;Node21</title>
<path fill="none" stroke="#191970" d="M36.5638,-247.5885C40.2712,-276.0236 55.3555,-360.3064 107,-399 153.9358,-434.1657 223.1744,-437.427 270.6398,-434.4978"/>
<polygon fill="#191970" stroke="#191970" points="271,-437.9809 280.7191,-433.7631 270.4911,-430.9994 271,-437.9809"/>
</g>
<!-- Node22 -->
<g id="node4" class="node">
<title>Node22</title>
<g id="a_node4"><a xlink:href="$_a_e_s_8c.html#a0e0b199ded54d7fb53a3bda3fcc02256" xlink:title="validateNumRounds &#45; Function that validates the number of rounds that have been passed in by the ...">
<polygon fill="#ffffff" stroke="#000000" points="271,-380.5 271,-399.5 376,-399.5 376,-380.5 271,-380.5"/>
<text text-anchor="middle" x="323.5" y="-387.5" font-family="Helvetica,sans-Serif" font-size="10.00" fill="#000000">validateNumRounds</text>
</a>
</g>
</g>
<!-- Node19&#45;&gt;Node22 -->
<g id="edge3" class="edge">
<title>Node19&#45;&gt;Node22</title>
<path fill="none" stroke="#191970" d="M37.4561,-247.8388C43.0861,-273.2743 61.9029,-341.2904 107,-371 152.1111,-400.7189 214.4804,-403.1391 260.6943,-399.4996"/>
<polygon fill="#191970" stroke="#191970" points="261.2435,-402.9643 270.8882,-398.579 260.6139,-395.9927 261.2435,-402.9643"/>
</g>
<!-- Node23 -->
<g id="node5" class="node">
<title>Node23</title>
<g id="a_node5"><a xlink:href="$_a_e_s_8c.html#ae01a1e7833d53f19b534e37ace03a691" xlink:title="validateCipherTextLength &#45; Function that validates the length of the ciphertext. The validation is do...">
<polygon fill="#ffffff" stroke="#000000" points="107,-304.5 107,-323.5 235,-323.5 235,-304.5 107,-304.5"/>
<text text-anchor="middle" x="171" y="-311.5" font-family="Helvetica,sans-Serif" font-size="10.00" fill="#000000">validateCipherTextLength</text>
</a>
</g>
</g>
<!-- Node19&#45;&gt;Node23 -->
<g id="edge4" class="edge">
<title>Node19&#45;&gt;Node23</title>
<path fill="none" stroke="#191970" d="M45.2699,-247.8659C58.2795,-260.4832 82.5094,-282.2247 107,-295 111.2711,-297.228 115.8423,-299.2333 120.5035,-301.0296"/>
<polygon fill="#191970" stroke="#191970" points="119.5358,-304.3996 130.1306,-304.4275 121.8656,-297.7987 119.5358,-304.3996"/>
</g>
<!-- Node24 -->
<g id="node6" class="node">
<title>Node24</title>
<g id="a_node6"><a xlink:href="$_a_e_s_8c.html#a1c1a633a58f7328faa397db9e45e7e0c" xlink:title="constructStateArray &#45; Function to convert the state array from a flat 1D array to a multidimensional ...">
<polygon fill="#ffffff" stroke="#000000" points="119,-266.5 119,-285.5 223,-285.5 223,-266.5 119,-266.5"/>
<text text-anchor="middle" x="171" y="-273.5" font-family="Helvetica,sans-Serif" font-size="10.00" fill="#000000">constructStateArray</text>
</a>
</g>
</g>
<!-- Node19&#45;&gt;Node24 -->
<g id="edge5" class="edge">
<title>Node19&#45;&gt;Node24</title>
<path fill="none" stroke="#191970" d="M69.6924,-247.589C87.1039,-252.4719 108.4715,-258.4643 127.0871,-263.685"/>
<polygon fill="#191970" stroke="#191970" points="126.2449,-267.0837 136.8186,-266.4141 128.1351,-260.3438 126.2449,-267.0837"/>
</g>
<!-- Node25 -->
<g id="node7" class="node">
<title>Node25</title>
<g id="a_node7"><a xlink:href="$_a_e_s_8c.html#ae9af90db32afa65125a7eec339ed9d58" xlink:title="printStateArray &#45; Function to print the state array to the terminal in hex format. ">
<polygon fill="#ffffff" stroke="#000000" points="130,-228.5 130,-247.5 212,-247.5 212,-228.5 130,-228.5"/>
<text text-anchor="middle" x="171" y="-235.5" font-family="Helvetica,sans-Serif" font-size="10.00" fill="#000000">printStateArray</text>
</a>
</g>
</g>
<!-- Node19&#45;&gt;Node25 -->
<g id="edge6" class="edge">
<title>Node19&#45;&gt;Node25</title>
<path fill="none" stroke="#191970" d="M71.101,-238C85.8949,-238 103.3512,-238 119.4988,-238"/>
<polygon fill="#191970" stroke="#191970" points="119.88,-241.5001 129.88,-238 119.88,-234.5001 119.88,-241.5001"/>
</g>
<!-- Node26 -->
<g id="node8" class="node">
<title>Node26</title>
<g id="a_node8"><a xlink:href="$_a_e_s_8c.html#a185c827e4ccbc8e4608e83dfbf9dfc8e" xlink:title="RijndaelKeySchedule &#45; Function that performs the Rijndael key scheduling for AES encryption. Takes in the original key passed in as parameter. ">
<polygon fill="#ffffff" stroke="#000000" points="116,-342.5 116,-361.5 226,-361.5 226,-342.5 116,-342.5"/>
<text text-anchor="middle" x="171" y="-349.5" font-family="Helvetica,sans-Serif" font-size="10.00" fill="#000000">RijndaelKeySchedule</text>
</a>
</g>
</g>
<!-- Node19&#45;&gt;Node26 -->
<g id="edge7" class="edge">
<title>Node19&#45;&gt;Node26</title>
<path fill="none" stroke="#191970" d="M40.113,-247.6997C49.7596,-266.9359 73.9403,-310.0363 107,-333 109.8959,-335.0116 113.0074,-336.8133 116.2423,-338.4268"/>
<polygon fill="#191970" stroke="#191970" points="115.0423,-341.7214 125.609,-342.493 117.8298,-335.3003 115.0423,-341.7214"/>
</g>
<!-- Node31 -->
<g id="node13" class="node">
<title>Node31</title>
<g id="a_node13"><a xlink:href="$_a_e_s_8c.html#abe15a731f43315f6f595674d3cd62d57" xlink:title="getRoundKey &#45; Function to extract the correct sub&#45;key to use for the appropriate round specified by ...">
<polygon fill="#ffffff" stroke="#000000" points="133,-190.5 133,-209.5 209,-209.5 209,-190.5 133,-190.5"/>
<text text-anchor="middle" x="171" y="-197.5" font-family="Helvetica,sans-Serif" font-size="10.00" fill="#000000">getRoundKey</text>
</a>
</g>
</g>
<!-- Node19&#45;&gt;Node31 -->
<g id="edge15" class="edge">
<title>Node19&#45;&gt;Node31</title>
<path fill="none" stroke="#191970" d="M69.6924,-228.411C87.1039,-223.5281 108.4715,-217.5357 127.0871,-212.315"/>
<polygon fill="#191970" stroke="#191970" points="128.1351,-215.6562 136.8186,-209.5859 126.2449,-208.9163 128.1351,-215.6562"/>
</g>
<!-- Node32 -->
<g id="node14" class="node">
<title>Node32</title>
<g id="a_node14"><a xlink:href="$_a_e_s_8c.html#aef4d8fc4282e3cc21708d25c0ec9ad06" xlink:title="AddRoundKey &#45; Function that performs the Bitwise XOR between state and key as per AES encryption...">
<polygon fill="#ffffff" stroke="#000000" points="131,-152.5 131,-171.5 211,-171.5 211,-152.5 131,-152.5"/>
<text text-anchor="middle" x="171" y="-159.5" font-family="Helvetica,sans-Serif" font-size="10.00" fill="#000000">AddRoundKey</text>
</a>
</g>
</g>
<!-- Node19&#45;&gt;Node32 -->
<g id="edge16" class="edge">
<title>Node19&#45;&gt;Node32</title>
<path fill="none" stroke="#191970" d="M45.2699,-228.1341C58.2795,-215.5168 82.5094,-193.7753 107,-181 111.5087,-178.6481 116.3519,-176.5442 121.2824,-174.6725"/>
<polygon fill="#191970" stroke="#191970" points="122.5145,-177.9496 130.8067,-171.355 120.2119,-171.3392 122.5145,-177.9496"/>
</g>
<!-- Node33 -->
<g id="node15" class="node">
<title>Node33</title>
<g id="a_node15"><a xlink:href="$_a_e_s_8c.html#a903e34d08dd07be2e2d9618d4d489ee6" xlink:title="invShiftRows &#45; Function to shift the state array Inverse according to the AES encryption standard for...">
<polygon fill="#ffffff" stroke="#000000" points="133.5,-114.5 133.5,-133.5 208.5,-133.5 208.5,-114.5 133.5,-114.5"/>
<text text-anchor="middle" x="171" y="-121.5" font-family="Helvetica,sans-Serif" font-size="10.00" fill="#000000">invShiftRows</text>
</a>
</g>
</g>
<!-- Node19&#45;&gt;Node33 -->
<g id="edge17" class="edge">
<title>Node19&#45;&gt;Node33</title>
<path fill="none" stroke="#191970" d="M40.113,-228.3003C49.7596,-209.0641 73.9403,-165.9637 107,-143 112.0006,-139.5265 117.6438,-136.6785 123.4553,-134.3456"/>
<polygon fill="#191970" stroke="#191970" points="125.0345,-137.5007 133.3109,-130.8861 122.716,-130.8958 125.0345,-137.5007"/>
</g>
<!-- Node35 -->
<g id="node17" class="node">
<title>Node35</title>
<g id="a_node17"><a xlink:href="$_a_e_s_8c.html#a8e72edc1f652f8626aacd2781303c86b" xlink:title="invSubBytes &#45; Function that performs the inverse of Function subBytes ">
<polygon fill="#ffffff" stroke="#000000" points="135,-76.5 135,-95.5 207,-95.5 207,-76.5 135,-76.5"/>
<text text-anchor="middle" x="171" y="-83.5" font-family="Helvetica,sans-Serif" font-size="10.00" fill="#000000">invSubBytes</text>
</a>
</g>
</g>
<!-- Node19&#45;&gt;Node35 -->
<g id="edge19" class="edge">
<title>Node19&#45;&gt;Node35</title>
<path fill="none" stroke="#191970" d="M37.9193,-228.3063C44.5419,-203.8013 65.3155,-138.92 107,-105 112.3154,-100.6747 118.5893,-97.3339 125.0956,-94.7534"/>
<polygon fill="#191970" stroke="#191970" points="126.3648,-98.0188 134.7096,-91.4908 124.1152,-91.3901 126.3648,-98.0188"/>
</g>
<!-- Node37 -->
<g id="node19" class="node">
<title>Node37</title>
<g id="a_node19"><a xlink:href="$_a_e_s_8c.html#a9de891875f23dd3dff8fe3f8e10ba3ad" xlink:title="invMixColumns &#45; Function that does the inverse of the Mix Column Step for AES Encryption. Performs the gallois field multiplication and the required XOR to the state passed in as a paramter ">
<polygon fill="#ffffff" stroke="#000000" points="129,-38.5 129,-57.5 213,-57.5 213,-38.5 129,-38.5"/>
<text text-anchor="middle" x="171" y="-45.5" font-family="Helvetica,sans-Serif" font-size="10.00" fill="#000000">invMixColumns</text>
</a>
</g>
</g>
<!-- Node19&#45;&gt;Node37 -->
<g id="edge21" class="edge">
<title>Node19&#45;&gt;Node37</title>
<path fill="none" stroke="#191970" d="M36.6682,-228.2113C40.667,-199.1143 56.4815,-112.3624 107,-67 110.6867,-63.6896 114.9269,-60.9549 119.4328,-58.6961"/>
<polygon fill="#191970" stroke="#191970" points="121.097,-61.7934 128.9629,-54.6957 118.3876,-55.339 121.097,-61.7934"/>
</g>
<!-- Node39 -->
<g id="node21" class="node">
<title>Node39</title>
<g id="a_node21"><a xlink:href="$_a_e_s_8c.html#aaba2e1b9466483b3c6b8669eb42aa5ed" xlink:title="printAESBlock &#45; Function to print a single block in hex format to the terminal. ">
<polygon fill="#ffffff" stroke="#000000" points="131,-.5 131,-19.5 211,-19.5 211,-.5 131,-.5"/>
<text text-anchor="middle" x="171" y="-7.5" font-family="Helvetica,sans-Serif" font-size="10.00" fill="#000000">printAESBlock</text>
</a>
</g>
</g>
<!-- Node19&#45;&gt;Node39 -->
<g id="edge23" class="edge">
<title>Node19&#45;&gt;Node39</title>
<path fill="none" stroke="#191970" d="M35.8142,-228.488C37.4224,-195.7146 47.2378,-86.3587 107,-29 111.1288,-25.0373 116.0457,-21.8963 121.2931,-19.4076"/>
<polygon fill="#191970" stroke="#191970" points="122.9687,-22.5098 130.9965,-15.5957 120.4092,-15.9945 122.9687,-22.5098"/>
</g>
<!-- Node26&#45;&gt;Node21 -->
<g id="edge8" class="edge">
<title>Node26&#45;&gt;Node21</title>
<path fill="none" stroke="#191970" d="M185.8215,-361.5188C204.9803,-373.57 239.6143,-394.5049 271,-409 275.389,-411.027 280.0605,-412.9853 284.7379,-414.8249"/>
<polygon fill="#191970" stroke="#191970" points="283.6668,-418.1615 294.2585,-418.4178 286.1383,-411.6124 283.6668,-418.1615"/>
</g>
<!-- Node26&#45;&gt;Node22 -->
<g id="edge9" class="edge">
<title>Node26&#45;&gt;Node22</title>
<path fill="none" stroke="#191970" d="M209.4822,-361.589C229.5156,-366.5809 254.2023,-372.7324 275.476,-378.0334"/>
<polygon fill="#191970" stroke="#191970" points="274.745,-381.4582 285.2945,-380.4799 276.4375,-374.6659 274.745,-381.4582"/>
</g>
<!-- Node27 -->
<g id="node9" class="node">
<title>Node27</title>
<g id="a_node9"><a xlink:href="$_a_e_s_8c.html#af2f914cf17729a0ee89102c98b39665e" xlink:title="KeyScheduleCore &#45; Function that performs the key schedule core for the Rijndael Key Schedule...">
<polygon fill="#ffffff" stroke="#000000" points="276,-304.5 276,-323.5 371,-323.5 371,-304.5 276,-304.5"/>
<text text-anchor="middle" x="323.5" y="-311.5" font-family="Helvetica,sans-Serif" font-size="10.00" fill="#000000">KeyScheduleCore</text>
</a>
</g>
</g>
<!-- Node26&#45;&gt;Node27 -->
<g id="edge10" class="edge">
<title>Node26&#45;&gt;Node27</title>
<path fill="none" stroke="#191970" d="M209.4822,-342.411C229.5156,-337.4191 254.2023,-331.2676 275.476,-325.9666"/>
<polygon fill="#191970" stroke="#191970" points="276.4375,-329.3341 285.2945,-323.5201 274.745,-322.5418 276.4375,-329.3341"/>
</g>
<!-- Node29 -->
<g id="node11" class="node">
<title>Node29</title>
<g id="a_node11"><a xlink:href="$_a_e_s_8c.html#acdf4abe2846c02b4d3e674782807fdfa" xlink:title="getSBoxValue &#45; Function to return the sBox value passed in as a parameter ">
<polygon fill="#ffffff" stroke="#000000" points="417,-342.5 417,-361.5 496,-361.5 496,-342.5 417,-342.5"/>
<text text-anchor="middle" x="456.5" y="-349.5" font-family="Helvetica,sans-Serif" font-size="10.00" fill="#000000">getSBoxValue</text>
</a>
</g>
</g>
<!-- Node26&#45;&gt;Node29 -->
<g id="edge14" class="edge">
<title>Node26&#45;&gt;Node29</title>
<path fill="none" stroke="#191970" d="M226.0473,-352C278.347,-352 356.2897,-352 406.7608,-352"/>
<polygon fill="#191970" stroke="#191970" points="406.7837,-355.5001 416.7837,-352 406.7837,-348.5001 406.7837,-355.5001"/>
</g>
<!-- Node28 -->
<g id="node10" class="node">
<title>Node28</title>
<g id="a_node10"><a xlink:href="$_a_e_s_8c.html#ac769b0533ccecd203cc3ab64e6b2f950" xlink:title="SingleRotateLeft &#45; Function to rotate the array passed in as a paramter. ">
<polygon fill="#ffffff" stroke="#000000" points="412,-266.5 412,-285.5 501,-285.5 501,-266.5 412,-266.5"/>
<text text-anchor="middle" x="456.5" y="-273.5" font-family="Helvetica,sans-Serif" font-size="10.00" fill="#000000">SingleRotateLeft</text>
</a>
</g>
</g>
<!-- Node27&#45;&gt;Node28 -->
<g id="edge11" class="edge">
<title>Node27&#45;&gt;Node28</title>
<path fill="none" stroke="#191970" d="M357.0615,-304.411C374.073,-299.5506 394.9319,-293.5909 413.1446,-288.3873"/>
<polygon fill="#191970" stroke="#191970" points="414.2955,-291.6986 422.9492,-285.5859 412.3724,-284.9679 414.2955,-291.6986"/>
</g>
<!-- Node27&#45;&gt;Node29 -->
<g id="edge12" class="edge">
<title>Node27&#45;&gt;Node29</title>
<path fill="none" stroke="#191970" d="M357.0615,-323.589C374.073,-328.4494 394.9319,-334.4091 413.1446,-339.6127"/>
<polygon fill="#191970" stroke="#191970" points="412.3724,-343.0321 422.9492,-342.4141 414.2955,-336.3014 412.3724,-343.0321"/>
</g>
<!-- Node30 -->
<g id="node12" class="node">
<title>Node30</title>
<g id="a_node12"><a xlink:href="$_a_e_s_8c.html#a4e58d2e928429bc56387394251b8ece5" xlink:title="getRconValue &#45; Function to return the Rcon value for the index passed in as a parameter ...">
<polygon fill="#ffffff" stroke="#000000" points="417.5,-304.5 417.5,-323.5 495.5,-323.5 495.5,-304.5 417.5,-304.5"/>
<text text-anchor="middle" x="456.5" y="-311.5" font-family="Helvetica,sans-Serif" font-size="10.00" fill="#000000">getRconValue</text>
</a>
</g>
</g>
<!-- Node27&#45;&gt;Node30 -->
<g id="edge13" class="edge">
<title>Node27&#45;&gt;Node30</title>
<path fill="none" stroke="#191970" d="M371.1404,-314C382.7856,-314 395.272,-314 407.0019,-314"/>
<polygon fill="#191970" stroke="#191970" points="407.0751,-317.5001 417.0751,-314 407.0751,-310.5001 407.0751,-317.5001"/>
</g>
<!-- Node34 -->
<g id="node16" class="node">
<title>Node34</title>
<g id="a_node16"><a xlink:href="$_a_e_s_8c.html#a4fc33ada95d0d2aaea28086aefe173bb" xlink:title="SingleRotateRight &#45; Function to rotate the array passed in as a paramter. ">
<polygon fill="#ffffff" stroke="#000000" points="275.5,-114.5 275.5,-133.5 371.5,-133.5 371.5,-114.5 275.5,-114.5"/>
<text text-anchor="middle" x="323.5" y="-121.5" font-family="Helvetica,sans-Serif" font-size="10.00" fill="#000000">SingleRotateRight</text>
</a>
</g>
</g>
<!-- Node33&#45;&gt;Node34 -->
<g id="edge18" class="edge">
<title>Node33&#45;&gt;Node34</title>
<path fill="none" stroke="#191970" d="M208.6966,-124C225.7431,-124 246.2782,-124 265.2394,-124"/>
<polygon fill="#191970" stroke="#191970" points="265.2808,-127.5001 275.2808,-124 265.2807,-120.5001 265.2808,-127.5001"/>
</g>
<!-- Node36 -->
<g id="node18" class="node">
<title>Node36</title>
<g id="a_node18"><a xlink:href="$_a_e_s_8c.html#a425f9b1e2cd595f2c45f129bc5d0a6d0" xlink:title="getInvSBox &#45; Function to return the inverse sBox value passed in as a parameter ">
<polygon fill="#ffffff" stroke="#000000" points="289.5,-76.5 289.5,-95.5 357.5,-95.5 357.5,-76.5 289.5,-76.5"/>
<text text-anchor="middle" x="323.5" y="-83.5" font-family="Helvetica,sans-Serif" font-size="10.00" fill="#000000">getInvSBox</text>
</a>
</g>
</g>
<!-- Node35&#45;&gt;Node36 -->
<g id="edge20" class="edge">
<title>Node35&#45;&gt;Node36</title>
<path fill="none" stroke="#191970" d="M207.1404,-86C228.7561,-86 256.3838,-86 279.2938,-86"/>
<polygon fill="#191970" stroke="#191970" points="279.4496,-89.5001 289.4495,-86 279.4495,-82.5001 279.4496,-89.5001"/>
</g>
<!-- Node38 -->
<g id="node20" class="node">
<title>Node38</title>
<g id="a_node20"><a xlink:href="$_a_e_s_8c.html#a7dbbb13c3ab5608765b6d368eb9f4fe1" xlink:title="galloisFieldMult &#45; Function to perform the Galois field multiplication operation required for the inv...">
<polygon fill="#ffffff" stroke="#000000" points="281.5,-38.5 281.5,-57.5 365.5,-57.5 365.5,-38.5 281.5,-38.5"/>
<text text-anchor="middle" x="323.5" y="-45.5" font-family="Helvetica,sans-Serif" font-size="10.00" fill="#000000">galloisFieldMult</text>
</a>
</g>
</g>
<!-- Node37&#45;&gt;Node38 -->
<g id="edge22" class="edge">
<title>Node37&#45;&gt;Node38</title>
<path fill="none" stroke="#191970" d="M213.075,-48C231.0022,-48 252.1073,-48 271.0383,-48"/>
<polygon fill="#191970" stroke="#191970" points="271.2979,-51.5001 281.2979,-48 271.2978,-44.5001 271.2979,-51.5001"/>
</g>
</g>
</svg>
