<?xml version="1.0" encoding="UTF-8" standalone="no"?>
<!DOCTYPE svg PUBLIC "-//W3C//DTD SVG 1.1//EN"
 "http://www.w3.org/Graphics/SVG/1.1/DTD/svg11.dtd">
<!-- Generated by graphviz version 2.40.1 (20161225.0304)
 -->
<!-- Title: printAESBlock Pages: 1 -->
<svg width="429pt" height="484pt"
 viewBox="0.00 0.00 429.00 484.00" xmlns="http://www.w3.org/2000/svg" xmlns:xlink="http://www.w3.org/1999/xlink">
<g id="graph0" class="graph" transform="scale(1 1) rotate(0) translate(4 480)">
<title>printAESBlock</title>
<polygon fill="#ffffff" stroke="transparent" points="-4,4 -4,-480 425,-480 425,4 -4,4"/>
<!-- Node403 -->
<g id="node1" class="node">
<title>Node403</title>
<polygon fill="#bfbfbf" stroke="#000000" points="0,-266.5 0,-285.5 80,-285.5 80,-266.5 0,-266.5"/>
<text text-anchor="middle" x="40" y="-273.5" font-family="Helvetica,sans-Serif" font-size="10.00" fill="#000000">printAESBlock</text>
</g>
<!-- Node404 -->
<g id="node2" class="node">
<title>Node404</title>
<g id="a_node2"><a xlink:href="$_a_e_s_8h.html#a0ac21e951d3e46598708ab8fd8bc61c5" xlink:title="AESEncrypt &#45; Function to encrypt a single block of plaintext passed in as parameter &#160;plainText using ...">
<polygon fill="#ffffff" stroke="#000000" points="116,-189.5 116,-208.5 187,-208.5 187,-189.5 116,-189.5"/>
<text text-anchor="middle" x="151.5" y="-196.5" font-family="Helvetica,sans-Serif" font-size="10.00" fill="#000000">AESEncrypt</text>
</a>
</g>
</g>
<!-- Node403&#45;&gt;Node404 -->
<g id="edge1" class="edge">
<title>Node403&#45;&gt;Node404</title>
<path fill="none" stroke="#191970" d="M62.3869,-260.54C84.8086,-245.056 118.6193,-221.7069 137.4931,-208.6729"/>
<polygon fill="#191970" stroke="#191970" points="60.3612,-257.6854 54.1216,-266.2479 64.339,-263.4454 60.3612,-257.6854"/>
</g>
<!-- Node406 -->
<g id="node4" class="node">
<title>Node406</title>
<g id="a_node4"><a xlink:href="$cbc_8h.html#ad055b3ad2664ace8ba1ab68a481dc1b3" xlink:title="cbcEncryptFile &#45; Function to encrypt the file with name ">
<polygon fill="#ffffff" stroke="#000000" points="229.5,-266.5 229.5,-285.5 311.5,-285.5 311.5,-266.5 229.5,-266.5"/>
<text text-anchor="middle" x="270.5" y="-273.5" font-family="Helvetica,sans-Serif" font-size="10.00" fill="#000000">cbcEncryptFile</text>
</a>
</g>
</g>
<!-- Node403&#45;&gt;Node406 -->
<g id="edge19" class="edge">
<title>Node403&#45;&gt;Node406</title>
<path fill="none" stroke="#191970" d="M90.35,-276C131.9767,-276 190.3624,-276 229.258,-276"/>
<polygon fill="#191970" stroke="#191970" points="90.1501,-272.5001 80.15,-276 90.15,-279.5001 90.1501,-272.5001"/>
</g>
<!-- Node407 -->
<g id="node5" class="node">
<title>Node407</title>
<g id="a_node5"><a xlink:href="$cbc_8h.html#a90f1f37609cf336c57cd0300282c1dac" xlink:title="cbcEncrypt &#45; Function to encrypt the user input pointed to by ">
<polygon fill="#ffffff" stroke="#000000" points="237.5,-114.5 237.5,-133.5 303.5,-133.5 303.5,-114.5 237.5,-114.5"/>
<text text-anchor="middle" x="270.5" y="-121.5" font-family="Helvetica,sans-Serif" font-size="10.00" fill="#000000">cbcEncrypt</text>
</a>
</g>
</g>
<!-- Node403&#45;&gt;Node407 -->
<g id="edge21" class="edge">
<title>Node403&#45;&gt;Node407</title>
<path fill="none" stroke="#191970" d="M50.2452,-257.5896C63.0404,-236.1553 86.8371,-201.0159 116,-180 153.0344,-153.3116 204.1273,-138.1087 237.2391,-130.4596"/>
<polygon fill="#191970" stroke="#191970" points="47.1413,-255.9654 45.1607,-266.3735 53.1996,-259.4722 47.1413,-255.9654"/>
</g>
<!-- Node409 -->
<g id="node7" class="node">
<title>Node409</title>
<g id="a_node7"><a xlink:href="$cfb_8h.html#a6dce0b90ab3948c3df032eb61c2a64ea" xlink:title="cfbDecryptFile &#45; Function to decrypt the file with name ">
<polygon fill="#ffffff" stroke="#000000" points="230.5,-76.5 230.5,-95.5 310.5,-95.5 310.5,-76.5 230.5,-76.5"/>
<text text-anchor="middle" x="270.5" y="-83.5" font-family="Helvetica,sans-Serif" font-size="10.00" fill="#000000">cfbDecryptFile</text>
</a>
</g>
</g>
<!-- Node403&#45;&gt;Node409 -->
<g id="edge23" class="edge">
<title>Node403&#45;&gt;Node409</title>
<path fill="none" stroke="#191970" d="M46.0945,-256.6497C56.143,-227.7515 78.8568,-173.368 116,-142 148.9141,-114.2036 196.7528,-99.715 230.4584,-92.5059"/>
<polygon fill="#191970" stroke="#191970" points="42.6944,-255.7828 42.8597,-266.3763 49.3367,-257.9918 42.6944,-255.7828"/>
</g>
<!-- Node412 -->
<g id="node10" class="node">
<title>Node412</title>
<g id="a_node10"><a xlink:href="$ecb_8h.html#a50ddfe369298c1293b5c57662f569127" xlink:title="ecbEcryptHelper &#45; Helper function used to encrypt the plaintext pointed to by ">
<polygon fill="#ffffff" stroke="#000000" points="226,-38.5 226,-57.5 315,-57.5 315,-38.5 226,-38.5"/>
<text text-anchor="middle" x="270.5" y="-45.5" font-family="Helvetica,sans-Serif" font-size="10.00" fill="#000000">ecbEcryptHelper</text>
</a>
</g>
</g>
<!-- Node403&#45;&gt;Node412 -->
<g id="edge24" class="edge">
<title>Node403&#45;&gt;Node412</title>
<path fill="none" stroke="#191970" d="M43.1324,-256.2168C49.8807,-220.0704 69.151,-143.1147 116,-100 146.3002,-72.115 192.0661,-59.1298 225.9296,-53.1151"/>
<polygon fill="#191970" stroke="#191970" points="39.6225,-255.9731 41.3624,-266.4241 46.5196,-257.1692 39.6225,-255.9731"/>
</g>
<!-- Node414 -->
<g id="node12" class="node">
<title>Node414</title>
<g id="a_node12"><a xlink:href="$ecb_8h.html#ab68902caeba7880cf1be8b40e8bb9a50" xlink:title="ecbEncryptFile &#45; Function to encrypt the file with name ">
<polygon fill="#ffffff" stroke="#000000" points="229.5,-.5 229.5,-19.5 311.5,-19.5 311.5,-.5 229.5,-.5"/>
<text text-anchor="middle" x="270.5" y="-7.5" font-family="Helvetica,sans-Serif" font-size="10.00" fill="#000000">ecbEncryptFile</text>
</a>
</g>
</g>
<!-- Node403&#45;&gt;Node414 -->
<g id="edge26" class="edge">
<title>Node403&#45;&gt;Node414</title>
<path fill="none" stroke="#191970" d="M41.1551,-255.9018C44.6975,-213.2555 58.972,-113.109 116,-58 146.4988,-28.5275 194.7715,-17.1234 229.2395,-12.7266"/>
<polygon fill="#191970" stroke="#191970" points="37.6479,-255.8789 40.4268,-266.1028 44.6302,-256.3775 37.6479,-255.8789"/>
</g>
<!-- Node415 -->
<g id="node13" class="node">
<title>Node415</title>
<g id="a_node13"><a xlink:href="$_a_e_s_8h.html#aea7dd7439aa08f23e6fecd32d4055ac3" xlink:title="AESDecrypt &#45; Function to decrypt a single block of ciphertext passed in as parameter &#160;cipherText usin...">
<polygon fill="#ffffff" stroke="#000000" points="116,-342.5 116,-361.5 187,-361.5 187,-342.5 116,-342.5"/>
<text text-anchor="middle" x="151.5" y="-349.5" font-family="Helvetica,sans-Serif" font-size="10.00" fill="#000000">AESDecrypt</text>
</a>
</g>
</g>
<!-- Node403&#45;&gt;Node415 -->
<g id="edge12" class="edge">
<title>Node403&#45;&gt;Node415</title>
<path fill="none" stroke="#191970" d="M62.6535,-291.5483C77.7519,-301.8991 98.0462,-315.7891 116,-328 123.0128,-332.7696 130.8196,-338.0505 137.3225,-342.4416"/>
<polygon fill="#191970" stroke="#191970" points="64.2179,-288.3771 53.9915,-285.6074 60.2586,-294.1499 64.2179,-288.3771"/>
</g>
<!-- Node416 -->
<g id="node14" class="node">
<title>Node416</title>
<g id="a_node14"><a xlink:href="$cbc_8h.html#a9375da4cc24b1bedceb0364f2865bcc3" xlink:title="cbcDecryptFile &#45; Function to decrypt the file with name ">
<polygon fill="#ffffff" stroke="#000000" points="229,-456.5 229,-475.5 312,-475.5 312,-456.5 229,-456.5"/>
<text text-anchor="middle" x="270.5" y="-463.5" font-family="Helvetica,sans-Serif" font-size="10.00" fill="#000000">cbcDecryptFile</text>
</a>
</g>
</g>
<!-- Node403&#45;&gt;Node416 -->
<g id="edge20" class="edge">
<title>Node403&#45;&gt;Node416</title>
<path fill="none" stroke="#191970" d="M44.6918,-295.2123C53.34,-326.5154 74.7963,-388.3967 116,-422 148.2037,-448.2634 195.2587,-458.86 228.9679,-463.13"/>
<polygon fill="#191970" stroke="#191970" points="48.0713,-294.3011 42.1556,-285.5117 41.2989,-296.0718 48.0713,-294.3011"/>
</g>
<!-- Node417 -->
<g id="node15" class="node">
<title>Node417</title>
<g id="a_node15"><a xlink:href="$cbc_8h.html#a95fbad6d45d4b793610fe663939b5f8c" xlink:title="cbcDecrypt &#45; Function to decrypt the user input pointed to by ">
<polygon fill="#ffffff" stroke="#000000" points="237,-418.5 237,-437.5 304,-437.5 304,-418.5 237,-418.5"/>
<text text-anchor="middle" x="270.5" y="-425.5" font-family="Helvetica,sans-Serif" font-size="10.00" fill="#000000">cbcDecrypt</text>
</a>
</g>
</g>
<!-- Node403&#45;&gt;Node417 -->
<g id="edge22" class="edge">
<title>Node403&#45;&gt;Node417</title>
<path fill="none" stroke="#191970" d="M46.6683,-294.9392C57.1,-321.6621 79.9025,-369.9619 116,-395 152.0594,-420.0117 203.3961,-426.6494 236.8278,-428.1104"/>
<polygon fill="#191970" stroke="#191970" points="49.9382,-293.6906 43.1659,-285.5428 43.3791,-296.1355 49.9382,-293.6906"/>
</g>
<!-- Node418 -->
<g id="node16" class="node">
<title>Node418</title>
<g id="a_node16"><a xlink:href="$ecb_8h.html#a9661ce321dd2649926ebadd2ab9dcd20" xlink:title="ecbDecryptHelper &#45; Helper function used to decrypt the ciphertext pointed to by ">
<polygon fill="#ffffff" stroke="#000000" points="223,-380.5 223,-399.5 318,-399.5 318,-380.5 223,-380.5"/>
<text text-anchor="middle" x="270.5" y="-387.5" font-family="Helvetica,sans-Serif" font-size="10.00" fill="#000000">ecbDecryptHelper</text>
</a>
</g>
</g>
<!-- Node403&#45;&gt;Node418 -->
<g id="edge25" class="edge">
<title>Node403&#45;&gt;Node418</title>
<path fill="none" stroke="#191970" d="M49.1766,-294.7058C61.1934,-316.9906 84.4949,-353.41 116,-371 148.445,-389.1147 190.6081,-393.2515 222.69,-393.1999"/>
<polygon fill="#191970" stroke="#191970" points="52.161,-292.8569 44.4606,-285.5799 45.9423,-296.0707 52.161,-292.8569"/>
</g>
<!-- Node420 -->
<g id="node18" class="node">
<title>Node420</title>
<g id="a_node18"><a xlink:href="$ecb_8h.html#ab4c77adefd8655ebd7bc79524f958013" xlink:title="ecbDecryptFile &#45; Function to encrypt the file with name ">
<polygon fill="#ffffff" stroke="#000000" points="229,-342.5 229,-361.5 312,-361.5 312,-342.5 229,-342.5"/>
<text text-anchor="middle" x="270.5" y="-349.5" font-family="Helvetica,sans-Serif" font-size="10.00" fill="#000000">ecbDecryptFile</text>
</a>
</g>
</g>
<!-- Node403&#45;&gt;Node420 -->
<g id="edge27" class="edge">
<title>Node403&#45;&gt;Node420</title>
<path fill="none" stroke="#191970" d="M78.8139,-288.7976C124.8049,-303.9617 200.3688,-328.8765 241.5441,-342.4527"/>
<polygon fill="#191970" stroke="#191970" points="79.7861,-285.4329 69.193,-285.6255 77.5941,-292.0809 79.7861,-285.4329"/>
</g>
<!-- Node405 -->
<g id="node3" class="node">
<title>Node405</title>
<g id="a_node3"><a xlink:href="$aes_tester_8c.html#a0ddf1224851353fc92bfbff6f499fa97" xlink:title="main">
<polygon fill="#ffffff" stroke="#000000" points="251.5,-304.5 251.5,-323.5 289.5,-323.5 289.5,-304.5 251.5,-304.5"/>
<text text-anchor="middle" x="270.5" y="-311.5" font-family="Helvetica,sans-Serif" font-size="10.00" fill="#000000">main</text>
</a>
</g>
</g>
<!-- Node404&#45;&gt;Node405 -->
<g id="edge2" class="edge">
<title>Node404&#45;&gt;Node405</title>
<path fill="none" stroke="#191970" d="M161.1546,-217.5584C173.0912,-238.8836 195.2687,-273.6737 223,-295 231.3079,-301.389 242.049,-305.925 251.215,-308.9587"/>
<polygon fill="#191970" stroke="#191970" points="164.1134,-215.6721 156.2726,-208.5466 157.9585,-219.0064 164.1134,-215.6721"/>
</g>
<!-- Node404&#45;&gt;Node406 -->
<g id="edge3" class="edge">
<title>Node404&#45;&gt;Node406</title>
<path fill="none" stroke="#191970" d="M168.7686,-215.5192C182.6042,-228.1081 202.9526,-245.2265 223,-257 228.9738,-260.5083 235.7169,-263.6426 242.206,-266.3051"/>
<polygon fill="#191970" stroke="#191970" points="171.1372,-212.9423 161.4265,-208.7051 166.3753,-218.0731 171.1372,-212.9423"/>
</g>
<!-- Node404&#45;&gt;Node407 -->
<g id="edge4" class="edge">
<title>Node404&#45;&gt;Node407</title>
<path fill="none" stroke="#191970" d="M169.7374,-182.3334C183.598,-170.2795 203.5376,-154.2072 223,-143 229.1575,-139.4543 236.1052,-136.2691 242.748,-133.5655"/>
<polygon fill="#191970" stroke="#191970" points="167.1097,-179.9857 161.9514,-189.2401 171.755,-185.2224 167.1097,-179.9857"/>
</g>
<!-- Node408 -->
<g id="node6" class="node">
<title>Node408</title>
<g id="a_node6"><a xlink:href="$cfb_8h.html#a9384de325e389ba7809b7ee98320f485" xlink:title="cfbEncryptFile &#45; Function to encrypt the file with name ">
<polygon fill="#ffffff" stroke="#000000" points="230.5,-228.5 230.5,-247.5 310.5,-247.5 310.5,-228.5 230.5,-228.5"/>
<text text-anchor="middle" x="270.5" y="-235.5" font-family="Helvetica,sans-Serif" font-size="10.00" fill="#000000">cfbEncryptFile</text>
</a>
</g>
</g>
<!-- Node404&#45;&gt;Node408 -->
<g id="edge5" class="edge">
<title>Node404&#45;&gt;Node408</title>
<path fill="none" stroke="#191970" d="M190.5369,-211.7936C207.0635,-217.2099 225.9885,-223.4122 241.2774,-228.4229"/>
<polygon fill="#191970" stroke="#191970" points="191.2034,-208.3289 180.6107,-208.5405 189.0233,-214.9808 191.2034,-208.3289"/>
</g>
<!-- Node404&#45;&gt;Node409 -->
<g id="edge6" class="edge">
<title>Node404&#45;&gt;Node409</title>
<path fill="none" stroke="#191970" d="M161.4333,-180.5135C173.5005,-159.6127 195.6737,-125.7957 223,-105 227.9475,-101.2349 233.7408,-98.1082 239.5475,-95.5523"/>
<polygon fill="#191970" stroke="#191970" points="158.3072,-178.9327 156.4801,-189.3688 164.4165,-182.3499 158.3072,-178.9327"/>
</g>
<!-- Node410 -->
<g id="node8" class="node">
<title>Node410</title>
<g id="a_node8"><a xlink:href="$cfb_8h.html#a826aec09cb2af95cb8781d2b4c211182" xlink:title="cfbEncrypt &#45; Function to encrypt the user input pointed to by ">
<polygon fill="#ffffff" stroke="#000000" points="238.5,-190.5 238.5,-209.5 302.5,-209.5 302.5,-190.5 238.5,-190.5"/>
<text text-anchor="middle" x="270.5" y="-197.5" font-family="Helvetica,sans-Serif" font-size="10.00" fill="#000000">cfbEncrypt</text>
</a>
</g>
</g>
<!-- Node404&#45;&gt;Node410 -->
<g id="edge7" class="edge">
<title>Node404&#45;&gt;Node410</title>
<path fill="none" stroke="#191970" d="M197.4341,-199.386C211.1381,-199.5012 225.8562,-199.6248 238.4659,-199.7308"/>
<polygon fill="#191970" stroke="#191970" points="197.233,-195.8843 187.2039,-199.3 197.1741,-202.884 197.233,-195.8843"/>
</g>
<!-- Node411 -->
<g id="node9" class="node">
<title>Node411</title>
<g id="a_node9"><a xlink:href="$cfb_8h.html#ad6a75d43203e367b8a83f6b7c7f506c6" xlink:title="cfbDecrypt &#45; Function to decrypt the user input pointed to by ">
<polygon fill="#ffffff" stroke="#000000" points="238,-152.5 238,-171.5 303,-171.5 303,-152.5 238,-152.5"/>
<text text-anchor="middle" x="270.5" y="-159.5" font-family="Helvetica,sans-Serif" font-size="10.00" fill="#000000">cfbDecrypt</text>
</a>
</g>
</g>
<!-- Node404&#45;&gt;Node411 -->
<g id="edge8" class="edge">
<title>Node404&#45;&gt;Node411</title>
<path fill="none" stroke="#191970" d="M192.0293,-186.3984C207.5707,-181.5663 225.0406,-176.1344 239.5448,-171.6247"/>
<polygon fill="#191970" stroke="#191970" points="190.6553,-183.1603 182.1455,-189.4716 192.7337,-189.8447 190.6553,-183.1603"/>
</g>
<!-- Node404&#45;&gt;Node412 -->
<g id="edge9" class="edge">
<title>Node404&#45;&gt;Node412</title>
<path fill="none" stroke="#191970" d="M157.2597,-179.6752C166.639,-151.3018 187.7885,-98.3494 223,-67 227.2455,-63.2201 232.337,-60.1427 237.5862,-57.6527"/>
<polygon fill="#191970" stroke="#191970" points="153.9099,-178.66 154.2365,-189.2498 160.5851,-180.7678 153.9099,-178.66"/>
</g>
<!-- Node404&#45;&gt;Node414 -->
<g id="edge11" class="edge">
<title>Node404&#45;&gt;Node414</title>
<path fill="none" stroke="#191970" d="M154.6988,-179.1929C161.3231,-144.2972 179.7044,-71.5393 223,-29 226.928,-25.1406 231.7395,-22.0362 236.7761,-19.5474"/>
<polygon fill="#191970" stroke="#191970" points="151.1752,-179.0211 152.8841,-189.4772 158.0687,-180.2376 151.1752,-179.0211"/>
</g>
<!-- Node413 -->
<g id="node11" class="node">
<title>Node413</title>
<g id="a_node11"><a xlink:href="$ecb_8h.html#aa451eb4920a712afa521f06831277731" xlink:title="ecbEncrypt &#45; Function to encrypt the user input pointed to by ">
<polygon fill="#ffffff" stroke="#000000" points="354.5,-38.5 354.5,-57.5 420.5,-57.5 420.5,-38.5 354.5,-38.5"/>
<text text-anchor="middle" x="387.5" y="-45.5" font-family="Helvetica,sans-Serif" font-size="10.00" fill="#000000">ecbEncrypt</text>
</a>
</g>
</g>
<!-- Node412&#45;&gt;Node413 -->
<g id="edge10" class="edge">
<title>Node412&#45;&gt;Node413</title>
<path fill="none" stroke="#191970" d="M325.3035,-48C335.2224,-48 345.2836,-48 354.3404,-48"/>
<polygon fill="#191970" stroke="#191970" points="325.0665,-44.5001 315.0664,-48 325.0664,-51.5001 325.0665,-44.5001"/>
</g>
<!-- Node415&#45;&gt;Node405 -->
<g id="edge13" class="edge">
<title>Node415&#45;&gt;Node405</title>
<path fill="none" stroke="#191970" d="M191.1403,-339.3418C211.3843,-332.8773 235.0929,-325.3065 251.2897,-320.1344"/>
<polygon fill="#191970" stroke="#191970" points="189.9901,-336.0348 181.5287,-342.411 192.1195,-342.7031 189.9901,-336.0348"/>
</g>
<!-- Node415&#45;&gt;Node416 -->
<g id="edge14" class="edge">
<title>Node415&#45;&gt;Node416</title>
<path fill="none" stroke="#191970" d="M161.3863,-370.6871C173.4099,-391.8139 195.5426,-425.9939 223,-447 227.9379,-450.7777 233.7269,-453.9101 239.5323,-456.4676"/>
<polygon fill="#191970" stroke="#191970" points="164.3453,-368.8047 156.4534,-361.7359 158.2146,-372.1833 164.3453,-368.8047"/>
</g>
<!-- Node415&#45;&gt;Node417 -->
<g id="edge15" class="edge">
<title>Node415&#45;&gt;Node417</title>
<path fill="none" stroke="#191970" d="M169.2076,-368.5607C183.0599,-380.8871 203.2262,-397.4998 223,-409 229.1422,-412.5722 236.0842,-415.7673 242.7263,-418.472"/>
<polygon fill="#191970" stroke="#191970" points="171.2146,-365.6554 161.4585,-361.5237 166.5086,-370.8375 171.2146,-365.6554"/>
</g>
<!-- Node415&#45;&gt;Node418 -->
<g id="edge16" class="edge">
<title>Node415&#45;&gt;Node418</title>
<path fill="none" stroke="#191970" d="M191.2098,-364.6804C207.2886,-369.8148 225.5433,-375.6441 240.4809,-380.4141"/>
<polygon fill="#191970" stroke="#191970" points="192.1195,-361.2969 181.5287,-361.589 189.9901,-367.9652 192.1195,-361.2969"/>
</g>
<!-- Node415&#45;&gt;Node420 -->
<g id="edge18" class="edge">
<title>Node415&#45;&gt;Node420</title>
<path fill="none" stroke="#191970" d="M197.3596,-352C207.7618,-352 218.7519,-352 228.9631,-352"/>
<polygon fill="#191970" stroke="#191970" points="197.204,-348.5001 187.2039,-352 197.2039,-355.5001 197.204,-348.5001"/>
</g>
<!-- Node419 -->
<g id="node17" class="node">
<title>Node419</title>
<g id="a_node17"><a xlink:href="$ecb_8h.html#acd982a867b70e4f75f2232c974a1e4ae" xlink:title="ecbDecrypt &#45; Function to decrypt the user input pointed to by ">
<polygon fill="#ffffff" stroke="#000000" points="354,-380.5 354,-399.5 421,-399.5 421,-380.5 354,-380.5"/>
<text text-anchor="middle" x="387.5" y="-387.5" font-family="Helvetica,sans-Serif" font-size="10.00" fill="#000000">ecbDecrypt</text>
</a>
</g>
</g>
<!-- Node418&#45;&gt;Node419 -->
<g id="edge17" class="edge">
<title>Node418&#45;&gt;Node419</title>
<path fill="none" stroke="#191970" d="M328.3346,-390C337.1109,-390 345.9073,-390 353.9333,-390"/>
<polygon fill="#191970" stroke="#191970" points="328.0884,-386.5001 318.0884,-390 328.0883,-393.5001 328.0884,-386.5001"/>
</g>
</g>
</svg>
