<?xml version="1.0" encoding="UTF-8" standalone="no"?>
<!DOCTYPE svg PUBLIC "-//W3C//DTD SVG 1.1//EN"
 "http://www.w3.org/Graphics/SVG/1.1/DTD/svg11.dtd">
<!-- Generated by graphviz version 2.40.1 (20161225.0304)
 -->
<!-- Title: getSBoxValue Pages: 1 -->
<svg width="705pt" height="484pt"
 viewBox="0.00 0.00 705.00 484.00" xmlns="http://www.w3.org/2000/svg" xmlns:xlink="http://www.w3.org/1999/xlink">
<g id="graph0" class="graph" transform="scale(1 1) rotate(0) translate(4 480)">
<title>getSBoxValue</title>
<polygon fill="#ffffff" stroke="transparent" points="-4,4 -4,-480 701,-480 701,4 -4,4"/>
<!-- Node221 -->
<g id="node1" class="node">
<title>Node221</title>
<polygon fill="#bfbfbf" stroke="#000000" points="0,-180.5 0,-199.5 79,-199.5 79,-180.5 0,-180.5"/>
<text text-anchor="middle" x="39.5" y="-187.5" font-family="Helvetica,sans-Serif" font-size="10.00" fill="#000000">getSBoxValue</text>
</g>
<!-- Node222 -->
<g id="node2" class="node">
<title>Node222</title>
<g id="a_node2"><a xlink:href="$_a_e_s_8h.html#a53bffc877a08f01e5fd9cf1e28298aab" xlink:title="RijndaelKeySchedule &#45; Function that performs the Rijndael key scheduling for AES encryption. Takes in the original key passed in as parameter. ">
<polygon fill="#ffffff" stroke="#000000" points="246,-161.5 246,-180.5 356,-180.5 356,-161.5 246,-161.5"/>
<text text-anchor="middle" x="301" y="-168.5" font-family="Helvetica,sans-Serif" font-size="10.00" fill="#000000">RijndaelKeySchedule</text>
</a>
</g>
</g>
<!-- Node221&#45;&gt;Node222 -->
<g id="edge1" class="edge">
<title>Node221&#45;&gt;Node222</title>
<path fill="none" stroke="#191970" d="M89.267,-186.384C133.9817,-183.1352 199.5409,-178.3718 245.8397,-175.0078"/>
<polygon fill="#191970" stroke="#191970" points="88.9363,-182.8988 79.2162,-187.1143 89.4436,-189.8803 88.9363,-182.8988"/>
</g>
<!-- Node224 -->
<g id="node4" class="node">
<title>Node224</title>
<g id="a_node4"><a xlink:href="$aes_tester_8c.html#a0ddf1224851353fc92bfbff6f499fa97" xlink:title="main">
<polygon fill="#ffffff" stroke="#000000" points="527.5,-152.5 527.5,-171.5 565.5,-171.5 565.5,-152.5 527.5,-152.5"/>
<text text-anchor="middle" x="546.5" y="-159.5" font-family="Helvetica,sans-Serif" font-size="10.00" fill="#000000">main</text>
</a>
</g>
</g>
<!-- Node221&#45;&gt;Node224 -->
<g id="edge26" class="edge">
<title>Node221&#45;&gt;Node224</title>
<path fill="none" stroke="#191970" d="M88.9991,-179.1963C97.6529,-177.3973 106.5794,-175.5986 115,-174 173.0016,-162.9889 187.1666,-156.9059 246,-152 294.7198,-147.9375 307.1279,-150.7182 356,-152 418.7379,-153.6455 492.9782,-158.3344 527.3149,-160.6593"/>
<polygon fill="#191970" stroke="#191970" points="88.0779,-175.8134 79.0122,-181.2963 89.5184,-182.6635 88.0779,-175.8134"/>
</g>
<!-- Node240 -->
<g id="node20" class="node">
<title>Node240</title>
<g id="a_node20"><a xlink:href="$_a_e_s_8h.html#a4d8c6f749326403dce59fae3f81cd120" xlink:title="KeyScheduleCore &#45; Function that performs the key schedule core for the Rijndael Key Schedule...">
<polygon fill="#ffffff" stroke="#000000" points="115,-199.5 115,-218.5 210,-218.5 210,-199.5 115,-199.5"/>
<text text-anchor="middle" x="162.5" y="-206.5" font-family="Helvetica,sans-Serif" font-size="10.00" fill="#000000">KeyScheduleCore</text>
</a>
</g>
</g>
<!-- Node221&#45;&gt;Node240 -->
<g id="edge21" class="edge">
<title>Node221&#45;&gt;Node240</title>
<path fill="none" stroke="#191970" d="M89.2043,-197.6779C97.6545,-198.9832 106.4134,-200.3362 114.8102,-201.6333"/>
<polygon fill="#191970" stroke="#191970" points="89.5122,-194.184 79.095,-196.1163 88.4435,-201.102 89.5122,-194.184"/>
</g>
<!-- Node241 -->
<g id="node21" class="node">
<title>Node241</title>
<g id="a_node21"><a xlink:href="$_a_e_s_8h.html#a07eae9e44f492880e0a0fb59edb17d34" xlink:title="subBytes &#45; Function that performs the sub byte operation where each value is replaced by the s box va...">
<polygon fill="#ffffff" stroke="#000000" points="272,-237.5 272,-256.5 330,-256.5 330,-237.5 272,-237.5"/>
<text text-anchor="middle" x="301" y="-244.5" font-family="Helvetica,sans-Serif" font-size="10.00" fill="#000000">subBytes</text>
</a>
</g>
</g>
<!-- Node221&#45;&gt;Node241 -->
<g id="edge23" class="edge">
<title>Node221&#45;&gt;Node241</title>
<path fill="none" stroke="#191970" d="M63.1874,-204.7441C77.6198,-212.9967 96.7429,-222.67 115,-228 168.7493,-243.6915 234.5153,-246.8631 271.699,-247.2627"/>
<polygon fill="#191970" stroke="#191970" points="64.829,-201.6489 54.4369,-199.5861 61.2743,-207.6793 64.829,-201.6489"/>
</g>
<!-- Node223 -->
<g id="node3" class="node">
<title>Node223</title>
<g id="a_node3"><a xlink:href="$_a_e_s_8h.html#a0ac21e951d3e46598708ab8fd8bc61c5" xlink:title="AESEncrypt &#45; Function to encrypt a single block of plaintext passed in as parameter &#160;plainText using ...">
<polygon fill="#ffffff" stroke="#000000" points="392,-266.5 392,-285.5 463,-285.5 463,-266.5 392,-266.5"/>
<text text-anchor="middle" x="427.5" y="-273.5" font-family="Helvetica,sans-Serif" font-size="10.00" fill="#000000">AESEncrypt</text>
</a>
</g>
</g>
<!-- Node222&#45;&gt;Node223 -->
<g id="edge2" class="edge">
<title>Node222&#45;&gt;Node223</title>
<path fill="none" stroke="#191970" d="M320.5609,-187.2364C347.2213,-209.3655 394.1306,-248.302 415.8541,-266.3335"/>
<polygon fill="#191970" stroke="#191970" points="322.6042,-184.3837 312.6741,-180.6899 318.1333,-189.77 322.6042,-184.3837"/>
</g>
<!-- Node222&#45;&gt;Node224 -->
<g id="edge20" class="edge">
<title>Node222&#45;&gt;Node224</title>
<path fill="none" stroke="#191970" d="M366.2767,-168.607C420.2512,-166.6283 493.3737,-163.9476 527.496,-162.6967"/>
<polygon fill="#191970" stroke="#191970" points="365.96,-165.1161 356.095,-168.9802 366.2165,-172.1114 365.96,-165.1161"/>
</g>
<!-- Node234 -->
<g id="node14" class="node">
<title>Node234</title>
<g id="a_node14"><a xlink:href="$_a_e_s_8h.html#aea7dd7439aa08f23e6fecd32d4055ac3" xlink:title="AESDecrypt &#45; Function to decrypt a single block of ciphertext passed in as parameter &#160;cipherText usin...">
<polygon fill="#ffffff" stroke="#000000" points="392,-76.5 392,-95.5 463,-95.5 463,-76.5 392,-76.5"/>
<text text-anchor="middle" x="427.5" y="-83.5" font-family="Helvetica,sans-Serif" font-size="10.00" fill="#000000">AESDecrypt</text>
</a>
</g>
</g>
<!-- Node222&#45;&gt;Node234 -->
<g id="edge13" class="edge">
<title>Node222&#45;&gt;Node234</title>
<path fill="none" stroke="#191970" d="M323.9936,-155.5497C349.9653,-138.0984 391.4323,-110.2352 413.1581,-95.6369"/>
<polygon fill="#191970" stroke="#191970" points="321.8594,-152.767 315.5112,-161.2494 325.7635,-158.5772 321.8594,-152.767"/>
</g>
<!-- Node223&#45;&gt;Node224 -->
<g id="edge3" class="edge">
<title>Node223&#45;&gt;Node224</title>
<path fill="none" stroke="#191970" d="M442.4153,-258.6185C448.8951,-250.8944 456.4789,-241.6166 463,-233 479.963,-210.5862 477.0178,-198.5187 499,-181 507.1961,-174.4681 517.9284,-169.921 527.1175,-166.9168"/>
<polygon fill="#191970" stroke="#191970" points="439.7135,-256.393 435.9198,-266.2853 445.0544,-260.9179 439.7135,-256.393"/>
</g>
<!-- Node225 -->
<g id="node5" class="node">
<title>Node225</title>
<g id="a_node5"><a xlink:href="$cbc_8h.html#ad055b3ad2664ace8ba1ab68a481dc1b3" xlink:title="cbcEncryptFile &#45; Function to encrypt the file with name ">
<polygon fill="#ffffff" stroke="#000000" points="505.5,-418.5 505.5,-437.5 587.5,-437.5 587.5,-418.5 505.5,-418.5"/>
<text text-anchor="middle" x="546.5" y="-425.5" font-family="Helvetica,sans-Serif" font-size="10.00" fill="#000000">cbcEncryptFile</text>
</a>
</g>
</g>
<!-- Node223&#45;&gt;Node225 -->
<g id="edge4" class="edge">
<title>Node223&#45;&gt;Node225</title>
<path fill="none" stroke="#191970" d="M433.2192,-295.4707C442.5471,-324.0583 463.6318,-377.411 499,-409 503.2395,-412.7865 508.3281,-415.8673 513.5761,-418.3586"/>
<polygon fill="#191970" stroke="#191970" points="436.53,-294.3306 430.2146,-285.8237 429.8467,-296.4122 436.53,-294.3306"/>
</g>
<!-- Node226 -->
<g id="node6" class="node">
<title>Node226</title>
<g id="a_node6"><a xlink:href="$cbc_8h.html#a90f1f37609cf336c57cd0300282c1dac" xlink:title="cbcEncrypt &#45; Function to encrypt the user input pointed to by ">
<polygon fill="#ffffff" stroke="#000000" points="513.5,-380.5 513.5,-399.5 579.5,-399.5 579.5,-380.5 513.5,-380.5"/>
<text text-anchor="middle" x="546.5" y="-387.5" font-family="Helvetica,sans-Serif" font-size="10.00" fill="#000000">cbcEncrypt</text>
</a>
</g>
</g>
<!-- Node223&#45;&gt;Node226 -->
<g id="edge5" class="edge">
<title>Node223&#45;&gt;Node226</title>
<path fill="none" stroke="#191970" d="M437.3863,-294.6871C449.4099,-315.8139 471.5426,-349.9939 499,-371 503.9379,-374.7777 509.7269,-377.9101 515.5323,-380.4676"/>
<polygon fill="#191970" stroke="#191970" points="440.3453,-292.8047 432.4534,-285.7359 434.2146,-296.1833 440.3453,-292.8047"/>
</g>
<!-- Node227 -->
<g id="node7" class="node">
<title>Node227</title>
<g id="a_node7"><a xlink:href="$cfb_8h.html#a9384de325e389ba7809b7ee98320f485" xlink:title="cfbEncryptFile &#45; Function to encrypt the file with name ">
<polygon fill="#ffffff" stroke="#000000" points="506.5,-342.5 506.5,-361.5 586.5,-361.5 586.5,-342.5 506.5,-342.5"/>
<text text-anchor="middle" x="546.5" y="-349.5" font-family="Helvetica,sans-Serif" font-size="10.00" fill="#000000">cfbEncryptFile</text>
</a>
</g>
</g>
<!-- Node223&#45;&gt;Node227 -->
<g id="edge6" class="edge">
<title>Node223&#45;&gt;Node227</title>
<path fill="none" stroke="#191970" d="M445.2076,-292.5607C459.0599,-304.8871 479.2262,-321.4998 499,-333 505.1422,-336.5722 512.0842,-339.7673 518.7263,-342.472"/>
<polygon fill="#191970" stroke="#191970" points="447.2146,-289.6554 437.4585,-285.5237 442.5086,-294.8375 447.2146,-289.6554"/>
</g>
<!-- Node228 -->
<g id="node8" class="node">
<title>Node228</title>
<g id="a_node8"><a xlink:href="$cfb_8h.html#a6dce0b90ab3948c3df032eb61c2a64ea" xlink:title="cfbDecryptFile &#45; Function to decrypt the file with name ">
<polygon fill="#ffffff" stroke="#000000" points="506.5,-304.5 506.5,-323.5 586.5,-323.5 586.5,-304.5 506.5,-304.5"/>
<text text-anchor="middle" x="546.5" y="-311.5" font-family="Helvetica,sans-Serif" font-size="10.00" fill="#000000">cfbDecryptFile</text>
</a>
</g>
</g>
<!-- Node223&#45;&gt;Node228 -->
<g id="edge7" class="edge">
<title>Node223&#45;&gt;Node228</title>
<path fill="none" stroke="#191970" d="M467.2098,-288.6804C483.2886,-293.8148 501.5433,-299.6441 516.4809,-304.4141"/>
<polygon fill="#191970" stroke="#191970" points="468.1195,-285.2969 457.5287,-285.589 465.9901,-291.9652 468.1195,-285.2969"/>
</g>
<!-- Node229 -->
<g id="node9" class="node">
<title>Node229</title>
<g id="a_node9"><a xlink:href="$cfb_8h.html#a826aec09cb2af95cb8781d2b4c211182" xlink:title="cfbEncrypt &#45; Function to encrypt the user input pointed to by ">
<polygon fill="#ffffff" stroke="#000000" points="514.5,-266.5 514.5,-285.5 578.5,-285.5 578.5,-266.5 514.5,-266.5"/>
<text text-anchor="middle" x="546.5" y="-273.5" font-family="Helvetica,sans-Serif" font-size="10.00" fill="#000000">cfbEncrypt</text>
</a>
</g>
</g>
<!-- Node223&#45;&gt;Node229 -->
<g id="edge8" class="edge">
<title>Node223&#45;&gt;Node229</title>
<path fill="none" stroke="#191970" d="M473.4341,-276C487.1381,-276 501.8562,-276 514.4659,-276"/>
<polygon fill="#191970" stroke="#191970" points="473.204,-272.5001 463.2039,-276 473.2039,-279.5001 473.204,-272.5001"/>
</g>
<!-- Node230 -->
<g id="node10" class="node">
<title>Node230</title>
<g id="a_node10"><a xlink:href="$cfb_8h.html#ad6a75d43203e367b8a83f6b7c7f506c6" xlink:title="cfbDecrypt &#45; Function to decrypt the user input pointed to by ">
<polygon fill="#ffffff" stroke="#000000" points="514,-228.5 514,-247.5 579,-247.5 579,-228.5 514,-228.5"/>
<text text-anchor="middle" x="546.5" y="-235.5" font-family="Helvetica,sans-Serif" font-size="10.00" fill="#000000">cfbDecrypt</text>
</a>
</g>
</g>
<!-- Node223&#45;&gt;Node230 -->
<g id="edge9" class="edge">
<title>Node223&#45;&gt;Node230</title>
<path fill="none" stroke="#191970" d="M467.2098,-263.3196C483.2886,-258.1852 501.5433,-252.3559 516.4809,-247.5859"/>
<polygon fill="#191970" stroke="#191970" points="465.9901,-260.0348 457.5287,-266.411 468.1195,-266.7031 465.9901,-260.0348"/>
</g>
<!-- Node231 -->
<g id="node11" class="node">
<title>Node231</title>
<g id="a_node11"><a xlink:href="$ecb_8h.html#a50ddfe369298c1293b5c57662f569127" xlink:title="ecbEcryptHelper &#45; Helper function used to encrypt the plaintext pointed to by ">
<polygon fill="#ffffff" stroke="#000000" points="502,-190.5 502,-209.5 591,-209.5 591,-190.5 502,-190.5"/>
<text text-anchor="middle" x="546.5" y="-197.5" font-family="Helvetica,sans-Serif" font-size="10.00" fill="#000000">ecbEcryptHelper</text>
</a>
</g>
</g>
<!-- Node223&#45;&gt;Node231 -->
<g id="edge10" class="edge">
<title>Node223&#45;&gt;Node231</title>
<path fill="none" stroke="#191970" d="M445.2076,-259.4393C459.0599,-247.1129 479.2262,-230.5002 499,-219 505.1422,-215.4278 512.0842,-212.2327 518.7263,-209.528"/>
<polygon fill="#191970" stroke="#191970" points="442.5086,-257.1625 437.4585,-266.4763 447.2146,-262.3446 442.5086,-257.1625"/>
</g>
<!-- Node233 -->
<g id="node13" class="node">
<title>Node233</title>
<g id="a_node13"><a xlink:href="$ecb_8h.html#ab68902caeba7880cf1be8b40e8bb9a50" xlink:title="ecbEncryptFile &#45; Function to encrypt the file with name ">
<polygon fill="#ffffff" stroke="#000000" points="505.5,-456.5 505.5,-475.5 587.5,-475.5 587.5,-456.5 505.5,-456.5"/>
<text text-anchor="middle" x="546.5" y="-463.5" font-family="Helvetica,sans-Serif" font-size="10.00" fill="#000000">ecbEncryptFile</text>
</a>
</g>
</g>
<!-- Node223&#45;&gt;Node233 -->
<g id="edge12" class="edge">
<title>Node223&#45;&gt;Node233</title>
<path fill="none" stroke="#191970" d="M430.5791,-295.4664C437.0753,-330.3835 455.3437,-404.0164 499,-447 502.9239,-450.8635 507.7333,-453.97 512.7691,-456.4597"/>
<polygon fill="#191970" stroke="#191970" points="434.0218,-294.8339 428.8664,-285.578 427.1245,-296.0286 434.0218,-294.8339"/>
</g>
<!-- Node232 -->
<g id="node12" class="node">
<title>Node232</title>
<g id="a_node12"><a xlink:href="$ecb_8h.html#aa451eb4920a712afa521f06831277731" xlink:title="ecbEncrypt &#45; Function to encrypt the user input pointed to by ">
<polygon fill="#ffffff" stroke="#000000" points="630.5,-190.5 630.5,-209.5 696.5,-209.5 696.5,-190.5 630.5,-190.5"/>
<text text-anchor="middle" x="663.5" y="-197.5" font-family="Helvetica,sans-Serif" font-size="10.00" fill="#000000">ecbEncrypt</text>
</a>
</g>
</g>
<!-- Node231&#45;&gt;Node232 -->
<g id="edge11" class="edge">
<title>Node231&#45;&gt;Node232</title>
<path fill="none" stroke="#191970" d="M601.3035,-200C611.2224,-200 621.2836,-200 630.3404,-200"/>
<polygon fill="#191970" stroke="#191970" points="601.0665,-196.5001 591.0664,-200 601.0664,-203.5001 601.0665,-196.5001"/>
</g>
<!-- Node234&#45;&gt;Node224 -->
<g id="edge14" class="edge">
<title>Node234&#45;&gt;Node224</title>
<path fill="none" stroke="#191970" d="M445.2076,-102.5607C459.0599,-114.8871 479.2262,-131.4998 499,-143 507.9062,-148.1797 518.4939,-152.5664 527.4107,-155.8153"/>
<polygon fill="#191970" stroke="#191970" points="447.2146,-99.6554 437.4585,-95.5237 442.5086,-104.8375 447.2146,-99.6554"/>
</g>
<!-- Node235 -->
<g id="node15" class="node">
<title>Node235</title>
<g id="a_node15"><a xlink:href="$cbc_8h.html#a9375da4cc24b1bedceb0364f2865bcc3" xlink:title="cbcDecryptFile &#45; Function to decrypt the file with name ">
<polygon fill="#ffffff" stroke="#000000" points="505,-38.5 505,-57.5 588,-57.5 588,-38.5 505,-38.5"/>
<text text-anchor="middle" x="546.5" y="-45.5" font-family="Helvetica,sans-Serif" font-size="10.00" fill="#000000">cbcDecryptFile</text>
</a>
</g>
</g>
<!-- Node234&#45;&gt;Node235 -->
<g id="edge15" class="edge">
<title>Node234&#45;&gt;Node235</title>
<path fill="none" stroke="#191970" d="M467.2098,-73.3196C483.2886,-68.1852 501.5433,-62.3559 516.4809,-57.5859"/>
<polygon fill="#191970" stroke="#191970" points="465.9901,-70.0348 457.5287,-76.411 468.1195,-76.7031 465.9901,-70.0348"/>
</g>
<!-- Node236 -->
<g id="node16" class="node">
<title>Node236</title>
<g id="a_node16"><a xlink:href="$cbc_8h.html#a95fbad6d45d4b793610fe663939b5f8c" xlink:title="cbcDecrypt &#45; Function to decrypt the user input pointed to by ">
<polygon fill="#ffffff" stroke="#000000" points="513,-.5 513,-19.5 580,-19.5 580,-.5 513,-.5"/>
<text text-anchor="middle" x="546.5" y="-7.5" font-family="Helvetica,sans-Serif" font-size="10.00" fill="#000000">cbcDecrypt</text>
</a>
</g>
</g>
<!-- Node234&#45;&gt;Node236 -->
<g id="edge16" class="edge">
<title>Node234&#45;&gt;Node236</title>
<path fill="none" stroke="#191970" d="M445.2076,-69.4393C459.0599,-57.1129 479.2262,-40.5002 499,-29 505.1422,-25.4278 512.0842,-22.2327 518.7263,-19.528"/>
<polygon fill="#191970" stroke="#191970" points="442.5086,-67.1625 437.4585,-76.4763 447.2146,-72.3446 442.5086,-67.1625"/>
</g>
<!-- Node237 -->
<g id="node17" class="node">
<title>Node237</title>
<g id="a_node17"><a xlink:href="$ecb_8h.html#a9661ce321dd2649926ebadd2ab9dcd20" xlink:title="ecbDecryptHelper &#45; Helper function used to decrypt the ciphertext pointed to by ">
<polygon fill="#ffffff" stroke="#000000" points="499,-114.5 499,-133.5 594,-133.5 594,-114.5 499,-114.5"/>
<text text-anchor="middle" x="546.5" y="-121.5" font-family="Helvetica,sans-Serif" font-size="10.00" fill="#000000">ecbDecryptHelper</text>
</a>
</g>
</g>
<!-- Node234&#45;&gt;Node237 -->
<g id="edge17" class="edge">
<title>Node234&#45;&gt;Node237</title>
<path fill="none" stroke="#191970" d="M467.2098,-98.6804C483.2886,-103.8148 501.5433,-109.6441 516.4809,-114.4141"/>
<polygon fill="#191970" stroke="#191970" points="468.1195,-95.2969 457.5287,-95.589 465.9901,-101.9652 468.1195,-95.2969"/>
</g>
<!-- Node239 -->
<g id="node19" class="node">
<title>Node239</title>
<g id="a_node19"><a xlink:href="$ecb_8h.html#ab4c77adefd8655ebd7bc79524f958013" xlink:title="ecbDecryptFile &#45; Function to encrypt the file with name ">
<polygon fill="#ffffff" stroke="#000000" points="505,-76.5 505,-95.5 588,-95.5 588,-76.5 505,-76.5"/>
<text text-anchor="middle" x="546.5" y="-83.5" font-family="Helvetica,sans-Serif" font-size="10.00" fill="#000000">ecbDecryptFile</text>
</a>
</g>
</g>
<!-- Node234&#45;&gt;Node239 -->
<g id="edge19" class="edge">
<title>Node234&#45;&gt;Node239</title>
<path fill="none" stroke="#191970" d="M473.3596,-86C483.7618,-86 494.7519,-86 504.9631,-86"/>
<polygon fill="#191970" stroke="#191970" points="473.204,-82.5001 463.2039,-86 473.2039,-89.5001 473.204,-82.5001"/>
</g>
<!-- Node238 -->
<g id="node18" class="node">
<title>Node238</title>
<g id="a_node18"><a xlink:href="$ecb_8h.html#acd982a867b70e4f75f2232c974a1e4ae" xlink:title="ecbDecrypt &#45; Function to decrypt the user input pointed to by ">
<polygon fill="#ffffff" stroke="#000000" points="630,-114.5 630,-133.5 697,-133.5 697,-114.5 630,-114.5"/>
<text text-anchor="middle" x="663.5" y="-121.5" font-family="Helvetica,sans-Serif" font-size="10.00" fill="#000000">ecbDecrypt</text>
</a>
</g>
</g>
<!-- Node237&#45;&gt;Node238 -->
<g id="edge18" class="edge">
<title>Node237&#45;&gt;Node238</title>
<path fill="none" stroke="#191970" d="M604.3346,-124C613.1109,-124 621.9073,-124 629.9333,-124"/>
<polygon fill="#191970" stroke="#191970" points="604.0884,-120.5001 594.0884,-124 604.0883,-127.5001 604.0884,-120.5001"/>
</g>
<!-- Node240&#45;&gt;Node222 -->
<g id="edge22" class="edge">
<title>Node240&#45;&gt;Node222</title>
<path fill="none" stroke="#191970" d="M207.1342,-196.7538C226.2247,-191.516 248.1845,-185.4909 266.0618,-180.5859"/>
<polygon fill="#191970" stroke="#191970" points="206.1669,-193.3898 197.4494,-199.411 208.0191,-200.1403 206.1669,-193.3898"/>
</g>
<!-- Node241&#45;&gt;Node223 -->
<g id="edge24" class="edge">
<title>Node241&#45;&gt;Node223</title>
<path fill="none" stroke="#191970" d="M339.9387,-255.9267C356.4905,-259.7211 375.6621,-264.1162 391.8391,-267.8248"/>
<polygon fill="#191970" stroke="#191970" points="340.5509,-252.4763 330.0217,-253.6532 338.9867,-259.2993 340.5509,-252.4763"/>
</g>
<!-- Node241&#45;&gt;Node224 -->
<g id="edge25" class="edge">
<title>Node241&#45;&gt;Node224</title>
<path fill="none" stroke="#191970" d="M338.3958,-234.0524C391.4733,-215.6752 486.7143,-182.6997 527.3167,-168.6419"/>
<polygon fill="#191970" stroke="#191970" points="336.9892,-230.8354 328.6848,-237.4146 339.2795,-237.4502 336.9892,-230.8354"/>
</g>
</g>
</svg>
