<?xml version="1.0" encoding="UTF-8" standalone="no"?>
<!DOCTYPE svg PUBLIC "-//W3C//DTD SVG 1.1//EN"
 "http://www.w3.org/Graphics/SVG/1.1/DTD/svg11.dtd">
<!-- Generated by graphviz version 2.40.1 (20161225.0304)
 -->
<!-- Title: getInvSBox Pages: 1 -->
<svg width="525pt" height="180pt"
 viewBox="0.00 0.00 525.00 180.00" xmlns="http://www.w3.org/2000/svg" xmlns:xlink="http://www.w3.org/1999/xlink">
<g id="graph0" class="graph" transform="scale(1 1) rotate(0) translate(4 176)">
<title>getInvSBox</title>
<polygon fill="#ffffff" stroke="transparent" points="-4,4 -4,-176 521,-176 521,4 -4,4"/>
<!-- Node120 -->
<g id="node1" class="node">
<title>Node120</title>
<polygon fill="#bfbfbf" stroke="#000000" points="0,-114.5 0,-133.5 68,-133.5 68,-114.5 0,-114.5"/>
<text text-anchor="middle" x="34" y="-121.5" font-family="Helvetica,sans-Serif" font-size="10.00" fill="#000000">getInvSBox</text>
</g>
<!-- Node121 -->
<g id="node2" class="node">
<title>Node121</title>
<g id="a_node2"><a xlink:href="$_a_e_s_8h.html#abbaab65a86e18c20ed73cb7f712e0eed" xlink:title="invSubBytes &#45; Function that performs the inverse of Function subBytes ">
<polygon fill="#ffffff" stroke="#000000" points="104,-95.5 104,-114.5 176,-114.5 176,-95.5 104,-95.5"/>
<text text-anchor="middle" x="140" y="-102.5" font-family="Helvetica,sans-Serif" font-size="10.00" fill="#000000">invSubBytes</text>
</a>
</g>
</g>
<!-- Node120&#45;&gt;Node121 -->
<g id="edge1" class="edge">
<title>Node120&#45;&gt;Node121</title>
<path fill="none" stroke="#191970" d="M77.9837,-116.1161C86.5586,-114.5791 95.4579,-112.984 103.7478,-111.498"/>
<polygon fill="#191970" stroke="#191970" points="77.3481,-112.6742 68.1225,-117.8837 78.5832,-119.5644 77.3481,-112.6742"/>
</g>
<!-- Node123 -->
<g id="node4" class="node">
<title>Node123</title>
<g id="a_node4"><a xlink:href="$aes_tester_8c.html#a0ddf1224851353fc92bfbff6f499fa97" xlink:title="main">
<polygon fill="#ffffff" stroke="#000000" points="347.5,-152.5 347.5,-171.5 385.5,-171.5 385.5,-152.5 347.5,-152.5"/>
<text text-anchor="middle" x="366.5" y="-159.5" font-family="Helvetica,sans-Serif" font-size="10.00" fill="#000000">main</text>
</a>
</g>
</g>
<!-- Node120&#45;&gt;Node123 -->
<g id="edge9" class="edge">
<title>Node120&#45;&gt;Node123</title>
<path fill="none" stroke="#191970" d="M78.3232,-129.0655C151.7486,-137.457 295.6544,-153.9034 347.3984,-159.817"/>
<polygon fill="#191970" stroke="#191970" points="78.3535,-125.5463 68.0208,-127.8881 77.5586,-132.501 78.3535,-125.5463"/>
</g>
<!-- Node122 -->
<g id="node3" class="node">
<title>Node122</title>
<g id="a_node3"><a xlink:href="$_a_e_s_8h.html#aea7dd7439aa08f23e6fecd32d4055ac3" xlink:title="AESDecrypt &#45; Function to decrypt a single block of ciphertext passed in as parameter &#160;cipherText usin...">
<polygon fill="#ffffff" stroke="#000000" points="212,-95.5 212,-114.5 283,-114.5 283,-95.5 212,-95.5"/>
<text text-anchor="middle" x="247.5" y="-102.5" font-family="Helvetica,sans-Serif" font-size="10.00" fill="#000000">AESDecrypt</text>
</a>
</g>
</g>
<!-- Node121&#45;&gt;Node122 -->
<g id="edge2" class="edge">
<title>Node121&#45;&gt;Node122</title>
<path fill="none" stroke="#191970" d="M186.2828,-105C194.7865,-105 203.5446,-105 211.683,-105"/>
<polygon fill="#191970" stroke="#191970" points="186.095,-101.5001 176.095,-105 186.095,-108.5001 186.095,-101.5001"/>
</g>
<!-- Node122&#45;&gt;Node123 -->
<g id="edge3" class="edge">
<title>Node122&#45;&gt;Node123</title>
<path fill="none" stroke="#191970" d="M273.4068,-119.6377C286.8364,-127.0023 303.6089,-135.8572 319,-143 328.1844,-147.2623 338.6083,-151.4963 347.3466,-154.8819"/>
<polygon fill="#191970" stroke="#191970" points="274.7296,-116.3693 264.2862,-114.5843 271.337,-122.4923 274.7296,-116.3693"/>
</g>
<!-- Node124 -->
<g id="node5" class="node">
<title>Node124</title>
<g id="a_node5"><a xlink:href="$cbc_8h.html#a9375da4cc24b1bedceb0364f2865bcc3" xlink:title="cbcDecryptFile &#45; Function to decrypt the file with name ">
<polygon fill="#ffffff" stroke="#000000" points="325,-114.5 325,-133.5 408,-133.5 408,-114.5 325,-114.5"/>
<text text-anchor="middle" x="366.5" y="-121.5" font-family="Helvetica,sans-Serif" font-size="10.00" fill="#000000">cbcDecryptFile</text>
</a>
</g>
</g>
<!-- Node122&#45;&gt;Node124 -->
<g id="edge4" class="edge">
<title>Node122&#45;&gt;Node124</title>
<path fill="none" stroke="#191970" d="M293.3596,-112.3221C303.7618,-113.983 314.7519,-115.7377 324.9631,-117.3681"/>
<polygon fill="#191970" stroke="#191970" points="293.6307,-108.8212 283.2039,-110.7006 292.527,-115.7336 293.6307,-108.8212"/>
</g>
<!-- Node125 -->
<g id="node6" class="node">
<title>Node125</title>
<g id="a_node6"><a xlink:href="$cbc_8h.html#a95fbad6d45d4b793610fe663939b5f8c" xlink:title="cbcDecrypt &#45; Function to decrypt the user input pointed to by ">
<polygon fill="#ffffff" stroke="#000000" points="333,-76.5 333,-95.5 400,-95.5 400,-76.5 333,-76.5"/>
<text text-anchor="middle" x="366.5" y="-83.5" font-family="Helvetica,sans-Serif" font-size="10.00" fill="#000000">cbcDecrypt</text>
</a>
</g>
</g>
<!-- Node122&#45;&gt;Node125 -->
<g id="edge5" class="edge">
<title>Node122&#45;&gt;Node125</title>
<path fill="none" stroke="#191970" d="M293.082,-97.7222C306.3084,-95.6104 320.5068,-93.3434 332.8592,-91.3712"/>
<polygon fill="#191970" stroke="#191970" points="292.527,-94.2664 283.2039,-99.2994 293.6307,-101.1788 292.527,-94.2664"/>
</g>
<!-- Node126 -->
<g id="node7" class="node">
<title>Node126</title>
<g id="a_node7"><a xlink:href="$ecb_8h.html#a9661ce321dd2649926ebadd2ab9dcd20" xlink:title="ecbDecryptHelper &#45; Helper function used to decrypt the ciphertext pointed to by ">
<polygon fill="#ffffff" stroke="#000000" points="319,-38.5 319,-57.5 414,-57.5 414,-38.5 319,-38.5"/>
<text text-anchor="middle" x="366.5" y="-45.5" font-family="Helvetica,sans-Serif" font-size="10.00" fill="#000000">ecbDecryptHelper</text>
</a>
</g>
</g>
<!-- Node122&#45;&gt;Node126 -->
<g id="edge6" class="edge">
<title>Node122&#45;&gt;Node126</title>
<path fill="none" stroke="#191970" d="M273.4068,-90.3623C286.8364,-82.9977 303.6089,-74.1428 319,-67 326.0897,-63.7098 333.918,-60.4365 341.1394,-57.5572"/>
<polygon fill="#191970" stroke="#191970" points="271.337,-87.5077 264.2862,-95.4157 274.7296,-93.6307 271.337,-87.5077"/>
</g>
<!-- Node128 -->
<g id="node9" class="node">
<title>Node128</title>
<g id="a_node9"><a xlink:href="$ecb_8h.html#ab4c77adefd8655ebd7bc79524f958013" xlink:title="ecbDecryptFile &#45; Function to encrypt the file with name ">
<polygon fill="#ffffff" stroke="#000000" points="325,-.5 325,-19.5 408,-19.5 408,-.5 325,-.5"/>
<text text-anchor="middle" x="366.5" y="-7.5" font-family="Helvetica,sans-Serif" font-size="10.00" fill="#000000">ecbDecryptFile</text>
</a>
</g>
</g>
<!-- Node122&#45;&gt;Node128 -->
<g id="edge8" class="edge">
<title>Node122&#45;&gt;Node128</title>
<path fill="none" stroke="#191970" d="M260.416,-87.3266C273.548,-70.4157 295.289,-45.1591 319,-29 324.4312,-25.2986 330.6914,-22.1495 336.8476,-19.5427"/>
<polygon fill="#191970" stroke="#191970" points="257.6127,-85.2308 254.3687,-95.3168 263.1944,-89.4552 257.6127,-85.2308"/>
</g>
<!-- Node127 -->
<g id="node8" class="node">
<title>Node127</title>
<g id="a_node8"><a xlink:href="$ecb_8h.html#acd982a867b70e4f75f2232c974a1e4ae" xlink:title="ecbDecrypt &#45; Function to decrypt the user input pointed to by ">
<polygon fill="#ffffff" stroke="#000000" points="450,-38.5 450,-57.5 517,-57.5 517,-38.5 450,-38.5"/>
<text text-anchor="middle" x="483.5" y="-45.5" font-family="Helvetica,sans-Serif" font-size="10.00" fill="#000000">ecbDecrypt</text>
</a>
</g>
</g>
<!-- Node126&#45;&gt;Node127 -->
<g id="edge7" class="edge">
<title>Node126&#45;&gt;Node127</title>
<path fill="none" stroke="#191970" d="M424.3346,-48C433.1109,-48 441.9073,-48 449.9333,-48"/>
<polygon fill="#191970" stroke="#191970" points="424.0884,-44.5001 414.0884,-48 424.0883,-51.5001 424.0884,-44.5001"/>
</g>
</g>
</svg>
