<?xml version="1.0" encoding="UTF-8" standalone="no"?>
<!DOCTYPE svg PUBLIC "-//W3C//DTD SVG 1.1//EN"
 "http://www.w3.org/Graphics/SVG/1.1/DTD/svg11.dtd">
<!-- Generated by graphviz version 2.40.1 (20161225.0304)
 -->
<!-- Title: keyHexToAscii Pages: 1 -->
<svg width="210pt" height="446pt"
 viewBox="0.00 0.00 210.00 446.00" xmlns="http://www.w3.org/2000/svg" xmlns:xlink="http://www.w3.org/1999/xlink">
<g id="graph0" class="graph" transform="scale(1 1) rotate(0) translate(4 442)">
<title>keyHexToAscii</title>
<polygon fill="#ffffff" stroke="transparent" points="-4,4 -4,-442 206,-442 206,4 -4,4"/>
<!-- Node353 -->
<g id="node1" class="node">
<title>Node353</title>
<polygon fill="#bfbfbf" stroke="#000000" points="0,-209.5 0,-228.5 83,-228.5 83,-209.5 0,-209.5"/>
<text text-anchor="middle" x="41.5" y="-216.5" font-family="Helvetica,sans-Serif" font-size="10.00" fill="#000000">keyHexToAscii</text>
</g>
<!-- Node354 -->
<g id="node2" class="node">
<title>Node354</title>
<g id="a_node2"><a xlink:href="$cbc_8h.html#ad055b3ad2664ace8ba1ab68a481dc1b3" xlink:title="cbcEncryptFile &#45; Function to encrypt the file with name ">
<polygon fill="#ffffff" stroke="#000000" points="119.5,-418.5 119.5,-437.5 201.5,-437.5 201.5,-418.5 119.5,-418.5"/>
<text text-anchor="middle" x="160.5" y="-425.5" font-family="Helvetica,sans-Serif" font-size="10.00" fill="#000000">cbcEncryptFile</text>
</a>
</g>
</g>
<!-- Node353&#45;&gt;Node354 -->
<g id="edge1" class="edge">
<title>Node353&#45;&gt;Node354</title>
<path fill="none" stroke="#191970" d="M44.6218,-238.8217C51.524,-276.5552 71.4077,-359.363 119,-409 122.6195,-412.775 127.1311,-415.8664 131.8342,-418.3758"/>
<polygon fill="#191970" stroke="#191970" points="48.0169,-237.9112 42.8801,-228.645 41.1172,-239.0921 48.0169,-237.9112"/>
</g>
<!-- Node355 -->
<g id="node3" class="node">
<title>Node355</title>
<g id="a_node3"><a xlink:href="$cbc_8h.html#a9375da4cc24b1bedceb0364f2865bcc3" xlink:title="cbcDecryptFile &#45; Function to decrypt the file with name ">
<polygon fill="#ffffff" stroke="#000000" points="119,-380.5 119,-399.5 202,-399.5 202,-380.5 119,-380.5"/>
<text text-anchor="middle" x="160.5" y="-387.5" font-family="Helvetica,sans-Serif" font-size="10.00" fill="#000000">cbcDecryptFile</text>
</a>
</g>
</g>
<!-- Node353&#45;&gt;Node355 -->
<g id="edge2" class="edge">
<title>Node353&#45;&gt;Node355</title>
<path fill="none" stroke="#191970" d="M46.7843,-238.295C56.3233,-269.8666 79.2159,-332.8589 119,-371 122.8896,-374.729 127.641,-377.8175 132.5218,-380.3427"/>
<polygon fill="#191970" stroke="#191970" points="50.101,-237.1649 43.9614,-228.5304 43.3764,-239.109 50.101,-237.1649"/>
</g>
<!-- Node356 -->
<g id="node4" class="node">
<title>Node356</title>
<g id="a_node4"><a xlink:href="$cbc_8h.html#a90f1f37609cf336c57cd0300282c1dac" xlink:title="cbcEncrypt &#45; Function to encrypt the user input pointed to by ">
<polygon fill="#ffffff" stroke="#000000" points="127.5,-342.5 127.5,-361.5 193.5,-361.5 193.5,-342.5 127.5,-342.5"/>
<text text-anchor="middle" x="160.5" y="-349.5" font-family="Helvetica,sans-Serif" font-size="10.00" fill="#000000">cbcEncrypt</text>
</a>
</g>
</g>
<!-- Node353&#45;&gt;Node356 -->
<g id="edge3" class="edge">
<title>Node353&#45;&gt;Node356</title>
<path fill="none" stroke="#191970" d="M50.0946,-237.5682C62.3217,-262.2355 86.8664,-305.8494 119,-333 123.358,-336.6822 128.5473,-339.7961 133.7557,-342.3701"/>
<polygon fill="#191970" stroke="#191970" points="53.2429,-236.039 45.7545,-228.544 46.9346,-239.073 53.2429,-236.039"/>
</g>
<!-- Node357 -->
<g id="node5" class="node">
<title>Node357</title>
<g id="a_node5"><a xlink:href="$cbc_8h.html#a95fbad6d45d4b793610fe663939b5f8c" xlink:title="cbcDecrypt &#45; Function to decrypt the user input pointed to by ">
<polygon fill="#ffffff" stroke="#000000" points="127,-304.5 127,-323.5 194,-323.5 194,-304.5 127,-304.5"/>
<text text-anchor="middle" x="160.5" y="-311.5" font-family="Helvetica,sans-Serif" font-size="10.00" fill="#000000">cbcDecrypt</text>
</a>
</g>
</g>
<!-- Node353&#45;&gt;Node357 -->
<g id="edge4" class="edge">
<title>Node353&#45;&gt;Node357</title>
<path fill="none" stroke="#191970" d="M56.457,-236.8842C71.0911,-253.5462 94.6715,-278.267 119,-295 124.0925,-298.5026 129.9344,-301.6347 135.5963,-304.2968"/>
<polygon fill="#191970" stroke="#191970" points="58.8393,-234.2868 49.6632,-228.9906 53.5337,-238.8531 58.8393,-234.2868"/>
</g>
<!-- Node358 -->
<g id="node6" class="node">
<title>Node358</title>
<g id="a_node6"><a xlink:href="$cfb_8h.html#a9384de325e389ba7809b7ee98320f485" xlink:title="cfbEncryptFile &#45; Function to encrypt the file with name ">
<polygon fill="#ffffff" stroke="#000000" points="120.5,-266.5 120.5,-285.5 200.5,-285.5 200.5,-266.5 120.5,-266.5"/>
<text text-anchor="middle" x="160.5" y="-273.5" font-family="Helvetica,sans-Serif" font-size="10.00" fill="#000000">cfbEncryptFile</text>
</a>
</g>
</g>
<!-- Node353&#45;&gt;Node358 -->
<g id="edge5" class="edge">
<title>Node353&#45;&gt;Node358</title>
<path fill="none" stroke="#191970" d="M69.6087,-233.0052C84.283,-240.2601 102.5602,-249.2079 119,-257 125.5876,-260.1224 132.8002,-263.4544 139.3376,-266.4421"/>
<polygon fill="#191970" stroke="#191970" points="71.0555,-229.816 60.5413,-228.5113 67.947,-236.088 71.0555,-229.816"/>
</g>
<!-- Node359 -->
<g id="node7" class="node">
<title>Node359</title>
<g id="a_node7"><a xlink:href="$cfb_8h.html#a6dce0b90ab3948c3df032eb61c2a64ea" xlink:title="cfbDecryptFile &#45; Function to decrypt the file with name ">
<polygon fill="#ffffff" stroke="#000000" points="120.5,-228.5 120.5,-247.5 200.5,-247.5 200.5,-228.5 120.5,-228.5"/>
<text text-anchor="middle" x="160.5" y="-235.5" font-family="Helvetica,sans-Serif" font-size="10.00" fill="#000000">cfbDecryptFile</text>
</a>
</g>
</g>
<!-- Node353&#45;&gt;Node359 -->
<g id="edge6" class="edge">
<title>Node353&#45;&gt;Node359</title>
<path fill="none" stroke="#191970" d="M93.2134,-227.2568C102.2861,-228.7053 111.6046,-230.1932 120.3054,-231.5824"/>
<polygon fill="#191970" stroke="#191970" points="93.5472,-223.7658 83.1204,-225.6453 92.4435,-230.6783 93.5472,-223.7658"/>
</g>
<!-- Node360 -->
<g id="node8" class="node">
<title>Node360</title>
<g id="a_node8"><a xlink:href="$cfb_8h.html#a826aec09cb2af95cb8781d2b4c211182" xlink:title="cfbEncrypt &#45; Function to encrypt the user input pointed to by ">
<polygon fill="#ffffff" stroke="#000000" points="128.5,-190.5 128.5,-209.5 192.5,-209.5 192.5,-190.5 128.5,-190.5"/>
<text text-anchor="middle" x="160.5" y="-197.5" font-family="Helvetica,sans-Serif" font-size="10.00" fill="#000000">cfbEncrypt</text>
</a>
</g>
</g>
<!-- Node353&#45;&gt;Node360 -->
<g id="edge7" class="edge">
<title>Node353&#45;&gt;Node360</title>
<path fill="none" stroke="#191970" d="M93.0768,-210.765C105.1054,-208.8445 117.5739,-206.8537 128.4683,-205.1143"/>
<polygon fill="#191970" stroke="#191970" points="92.4435,-207.3217 83.1204,-212.3547 93.5472,-214.2342 92.4435,-207.3217"/>
</g>
<!-- Node361 -->
<g id="node9" class="node">
<title>Node361</title>
<g id="a_node9"><a xlink:href="$cfb_8h.html#ad6a75d43203e367b8a83f6b7c7f506c6" xlink:title="cfbDecrypt &#45; Function to decrypt the user input pointed to by ">
<polygon fill="#ffffff" stroke="#000000" points="128,-152.5 128,-171.5 193,-171.5 193,-152.5 128,-152.5"/>
<text text-anchor="middle" x="160.5" y="-159.5" font-family="Helvetica,sans-Serif" font-size="10.00" fill="#000000">cfbDecrypt</text>
</a>
</g>
</g>
<!-- Node353&#45;&gt;Node361 -->
<g id="edge8" class="edge">
<title>Node353&#45;&gt;Node361</title>
<path fill="none" stroke="#191970" d="M69.6087,-204.9948C84.283,-197.7399 102.5602,-188.7921 119,-181 125.5876,-177.8776 132.8002,-174.5456 139.3376,-171.5579"/>
<polygon fill="#191970" stroke="#191970" points="67.947,-201.912 60.5413,-209.4887 71.0555,-208.184 67.947,-201.912"/>
</g>
<!-- Node362 -->
<g id="node10" class="node">
<title>Node362</title>
<g id="a_node10"><a xlink:href="$ecb_8h.html#aa451eb4920a712afa521f06831277731" xlink:title="ecbEncrypt &#45; Function to encrypt the user input pointed to by ">
<polygon fill="#ffffff" stroke="#000000" points="127.5,-114.5 127.5,-133.5 193.5,-133.5 193.5,-114.5 127.5,-114.5"/>
<text text-anchor="middle" x="160.5" y="-121.5" font-family="Helvetica,sans-Serif" font-size="10.00" fill="#000000">ecbEncrypt</text>
</a>
</g>
</g>
<!-- Node353&#45;&gt;Node362 -->
<g id="edge9" class="edge">
<title>Node353&#45;&gt;Node362</title>
<path fill="none" stroke="#191970" d="M56.457,-201.1158C71.0911,-184.4538 94.6715,-159.733 119,-143 124.0925,-139.4974 129.9344,-136.3653 135.5963,-133.7032"/>
<polygon fill="#191970" stroke="#191970" points="53.5337,-199.1469 49.6632,-209.0094 58.8393,-203.7132 53.5337,-199.1469"/>
</g>
<!-- Node363 -->
<g id="node11" class="node">
<title>Node363</title>
<g id="a_node11"><a xlink:href="$ecb_8h.html#acd982a867b70e4f75f2232c974a1e4ae" xlink:title="ecbDecrypt &#45; Function to decrypt the user input pointed to by ">
<polygon fill="#ffffff" stroke="#000000" points="127,-76.5 127,-95.5 194,-95.5 194,-76.5 127,-76.5"/>
<text text-anchor="middle" x="160.5" y="-83.5" font-family="Helvetica,sans-Serif" font-size="10.00" fill="#000000">ecbDecrypt</text>
</a>
</g>
</g>
<!-- Node353&#45;&gt;Node363 -->
<g id="edge10" class="edge">
<title>Node353&#45;&gt;Node363</title>
<path fill="none" stroke="#191970" d="M50.0946,-200.4318C62.3217,-175.7645 86.8664,-132.1506 119,-105 123.358,-101.3178 128.5473,-98.2039 133.7557,-95.6299"/>
<polygon fill="#191970" stroke="#191970" points="46.9346,-198.927 45.7545,-209.456 53.2429,-201.961 46.9346,-198.927"/>
</g>
<!-- Node364 -->
<g id="node12" class="node">
<title>Node364</title>
<g id="a_node12"><a xlink:href="$ecb_8h.html#ab68902caeba7880cf1be8b40e8bb9a50" xlink:title="ecbEncryptFile &#45; Function to encrypt the file with name ">
<polygon fill="#ffffff" stroke="#000000" points="119.5,-38.5 119.5,-57.5 201.5,-57.5 201.5,-38.5 119.5,-38.5"/>
<text text-anchor="middle" x="160.5" y="-45.5" font-family="Helvetica,sans-Serif" font-size="10.00" fill="#000000">ecbEncryptFile</text>
</a>
</g>
</g>
<!-- Node353&#45;&gt;Node364 -->
<g id="edge11" class="edge">
<title>Node353&#45;&gt;Node364</title>
<path fill="none" stroke="#191970" d="M46.7843,-199.705C56.3233,-168.1334 79.2159,-105.1411 119,-67 122.8896,-63.271 127.641,-60.1825 132.5218,-57.6573"/>
<polygon fill="#191970" stroke="#191970" points="43.3764,-198.891 43.9614,-209.4696 50.101,-200.8351 43.3764,-198.891"/>
</g>
<!-- Node365 -->
<g id="node13" class="node">
<title>Node365</title>
<g id="a_node13"><a xlink:href="$ecb_8h.html#ab4c77adefd8655ebd7bc79524f958013" xlink:title="ecbDecryptFile &#45; Function to encrypt the file with name ">
<polygon fill="#ffffff" stroke="#000000" points="119,-.5 119,-19.5 202,-19.5 202,-.5 119,-.5"/>
<text text-anchor="middle" x="160.5" y="-7.5" font-family="Helvetica,sans-Serif" font-size="10.00" fill="#000000">ecbDecryptFile</text>
</a>
</g>
</g>
<!-- Node353&#45;&gt;Node365 -->
<g id="edge12" class="edge">
<title>Node353&#45;&gt;Node365</title>
<path fill="none" stroke="#191970" d="M44.6218,-199.1783C51.524,-161.4448 71.4077,-78.637 119,-29 122.6195,-25.225 127.1311,-22.1336 131.8342,-19.6242"/>
<polygon fill="#191970" stroke="#191970" points="41.1172,-198.9079 42.8801,-209.355 48.0169,-200.0888 41.1172,-198.9079"/>
</g>
</g>
</svg>
