<?xml version="1.0" encoding="UTF-8" standalone="no"?>
<!DOCTYPE svg PUBLIC "-//W3C//DTD SVG 1.1//EN"
 "http://www.w3.org/Graphics/SVG/1.1/DTD/svg11.dtd">
<!-- Generated by graphviz version 2.40.1 (20161225.0304)
 -->
<!-- Title: XORBlocks Pages: 1 -->
<svg width="195pt" height="294pt"
 viewBox="0.00 0.00 195.00 294.00" xmlns="http://www.w3.org/2000/svg" xmlns:xlink="http://www.w3.org/1999/xlink">
<g id="graph0" class="graph" transform="scale(1 1) rotate(0) translate(4 290)">
<title>XORBlocks</title>
<polygon fill="#ffffff" stroke="transparent" points="-4,4 -4,-290 191,-290 191,4 -4,4"/>
<!-- Node577 -->
<g id="node1" class="node">
<title>Node577</title>
<polygon fill="#bfbfbf" stroke="#000000" points="0,-133.5 0,-152.5 68,-152.5 68,-133.5 0,-133.5"/>
<text text-anchor="middle" x="34" y="-140.5" font-family="Helvetica,sans-Serif" font-size="10.00" fill="#000000">XORBlocks</text>
</g>
<!-- Node578 -->
<g id="node2" class="node">
<title>Node578</title>
<g id="a_node2"><a xlink:href="$cbc_8h.html#ad055b3ad2664ace8ba1ab68a481dc1b3" xlink:title="cbcEncryptFile &#45; Function to encrypt the file with name ">
<polygon fill="#ffffff" stroke="#000000" points="104.5,-266.5 104.5,-285.5 186.5,-285.5 186.5,-266.5 104.5,-266.5"/>
<text text-anchor="middle" x="145.5" y="-273.5" font-family="Helvetica,sans-Serif" font-size="10.00" fill="#000000">cbcEncryptFile</text>
</a>
</g>
</g>
<!-- Node577&#45;&gt;Node578 -->
<g id="edge1" class="edge">
<title>Node577&#45;&gt;Node578</title>
<path fill="none" stroke="#191970" d="M41.45,-161.924C52.0331,-186.6771 73.571,-230.0558 104,-257 108.1528,-260.6772 113.1374,-263.764 118.1884,-266.3084"/>
<polygon fill="#191970" stroke="#191970" points="44.6368,-160.4707 37.5911,-152.5581 38.1646,-163.1374 44.6368,-160.4707"/>
</g>
<!-- Node579 -->
<g id="node3" class="node">
<title>Node579</title>
<g id="a_node3"><a xlink:href="$cbc_8h.html#a9375da4cc24b1bedceb0364f2865bcc3" xlink:title="cbcDecryptFile &#45; Function to decrypt the file with name ">
<polygon fill="#ffffff" stroke="#000000" points="104,-228.5 104,-247.5 187,-247.5 187,-228.5 104,-228.5"/>
<text text-anchor="middle" x="145.5" y="-235.5" font-family="Helvetica,sans-Serif" font-size="10.00" fill="#000000">cbcDecryptFile</text>
</a>
</g>
</g>
<!-- Node577&#45;&gt;Node579 -->
<g id="edge2" class="edge">
<title>Node577&#45;&gt;Node579</title>
<path fill="none" stroke="#191970" d="M47.0991,-160.9041C60.0613,-177.6389 81.2178,-202.462 104,-219 109.0018,-222.6309 114.8083,-225.8131 120.4648,-228.4829"/>
<polygon fill="#191970" stroke="#191970" points="49.6032,-158.4124 40.7826,-152.5431 44.0179,-162.6319 49.6032,-158.4124"/>
</g>
<!-- Node580 -->
<g id="node4" class="node">
<title>Node580</title>
<g id="a_node4"><a xlink:href="$cbc_8h.html#a90f1f37609cf336c57cd0300282c1dac" xlink:title="cbcEncrypt &#45; Function to encrypt the user input pointed to by ">
<polygon fill="#ffffff" stroke="#000000" points="112.5,-190.5 112.5,-209.5 178.5,-209.5 178.5,-190.5 112.5,-190.5"/>
<text text-anchor="middle" x="145.5" y="-197.5" font-family="Helvetica,sans-Serif" font-size="10.00" fill="#000000">cbcEncrypt</text>
</a>
</g>
</g>
<!-- Node577&#45;&gt;Node580 -->
<g id="edge3" class="edge">
<title>Node577&#45;&gt;Node580</title>
<path fill="none" stroke="#191970" d="M59.7422,-157.5181C72.875,-164.7854 89.1686,-173.5899 104,-181 110.3797,-184.1874 117.4029,-187.482 123.8287,-190.4145"/>
<polygon fill="#191970" stroke="#191970" points="61.2437,-154.3481 50.8043,-152.54 57.8376,-160.4636 61.2437,-154.3481"/>
</g>
<!-- Node581 -->
<g id="node5" class="node">
<title>Node581</title>
<g id="a_node5"><a xlink:href="$cbc_8h.html#a95fbad6d45d4b793610fe663939b5f8c" xlink:title="cbcDecrypt &#45; Function to decrypt the user input pointed to by ">
<polygon fill="#ffffff" stroke="#000000" points="112,-152.5 112,-171.5 179,-171.5 179,-152.5 112,-152.5"/>
<text text-anchor="middle" x="145.5" y="-159.5" font-family="Helvetica,sans-Serif" font-size="10.00" fill="#000000">cbcDecrypt</text>
</a>
</g>
</g>
<!-- Node577&#45;&gt;Node581 -->
<g id="edge4" class="edge">
<title>Node577&#45;&gt;Node581</title>
<path fill="none" stroke="#191970" d="M78.0793,-150.5113C89.2496,-152.4147 101.0742,-154.4297 111.649,-156.2317"/>
<polygon fill="#191970" stroke="#191970" points="78.5054,-147.0335 68.0595,-148.8039 77.3295,-153.934 78.5054,-147.0335"/>
</g>
<!-- Node582 -->
<g id="node6" class="node">
<title>Node582</title>
<g id="a_node6"><a xlink:href="$cfb_8h.html#a9384de325e389ba7809b7ee98320f485" xlink:title="cfbEncryptFile &#45; Function to encrypt the file with name ">
<polygon fill="#ffffff" stroke="#000000" points="105.5,-114.5 105.5,-133.5 185.5,-133.5 185.5,-114.5 105.5,-114.5"/>
<text text-anchor="middle" x="145.5" y="-121.5" font-family="Helvetica,sans-Serif" font-size="10.00" fill="#000000">cfbEncryptFile</text>
</a>
</g>
</g>
<!-- Node577&#45;&gt;Node582 -->
<g id="edge5" class="edge">
<title>Node577&#45;&gt;Node582</title>
<path fill="none" stroke="#191970" d="M78.016,-135.4995C87.0439,-133.9611 96.5018,-132.3495 105.3838,-130.8359"/>
<polygon fill="#191970" stroke="#191970" points="77.3295,-132.066 68.0595,-137.1961 78.5054,-138.9665 77.3295,-132.066"/>
</g>
<!-- Node583 -->
<g id="node7" class="node">
<title>Node583</title>
<g id="a_node7"><a xlink:href="$cfb_8h.html#a6dce0b90ab3948c3df032eb61c2a64ea" xlink:title="cfbDecryptFile &#45; Function to decrypt the file with name ">
<polygon fill="#ffffff" stroke="#000000" points="105.5,-76.5 105.5,-95.5 185.5,-95.5 185.5,-76.5 105.5,-76.5"/>
<text text-anchor="middle" x="145.5" y="-83.5" font-family="Helvetica,sans-Serif" font-size="10.00" fill="#000000">cfbDecryptFile</text>
</a>
</g>
</g>
<!-- Node577&#45;&gt;Node583 -->
<g id="edge6" class="edge">
<title>Node577&#45;&gt;Node583</title>
<path fill="none" stroke="#191970" d="M59.7422,-128.4819C72.875,-121.2146 89.1686,-112.4101 104,-105 110.3797,-101.8126 117.4029,-98.518 123.8287,-95.5855"/>
<polygon fill="#191970" stroke="#191970" points="57.8376,-125.5364 50.8043,-133.46 61.2437,-131.6519 57.8376,-125.5364"/>
</g>
<!-- Node584 -->
<g id="node8" class="node">
<title>Node584</title>
<g id="a_node8"><a xlink:href="$cfb_8h.html#a826aec09cb2af95cb8781d2b4c211182" xlink:title="cfbEncrypt &#45; Function to encrypt the user input pointed to by ">
<polygon fill="#ffffff" stroke="#000000" points="113.5,-38.5 113.5,-57.5 177.5,-57.5 177.5,-38.5 113.5,-38.5"/>
<text text-anchor="middle" x="145.5" y="-45.5" font-family="Helvetica,sans-Serif" font-size="10.00" fill="#000000">cfbEncrypt</text>
</a>
</g>
</g>
<!-- Node577&#45;&gt;Node584 -->
<g id="edge7" class="edge">
<title>Node577&#45;&gt;Node584</title>
<path fill="none" stroke="#191970" d="M47.0991,-125.0959C60.0613,-108.3611 81.2178,-83.538 104,-67 109.0018,-63.3691 114.8083,-60.1869 120.4648,-57.5171"/>
<polygon fill="#191970" stroke="#191970" points="44.0179,-123.3681 40.7826,-133.4569 49.6032,-127.5876 44.0179,-123.3681"/>
</g>
<!-- Node585 -->
<g id="node9" class="node">
<title>Node585</title>
<g id="a_node9"><a xlink:href="$cfb_8h.html#ad6a75d43203e367b8a83f6b7c7f506c6" xlink:title="cfbDecrypt &#45; Function to decrypt the user input pointed to by ">
<polygon fill="#ffffff" stroke="#000000" points="113,-.5 113,-19.5 178,-19.5 178,-.5 113,-.5"/>
<text text-anchor="middle" x="145.5" y="-7.5" font-family="Helvetica,sans-Serif" font-size="10.00" fill="#000000">cfbDecrypt</text>
</a>
</g>
</g>
<!-- Node577&#45;&gt;Node585 -->
<g id="edge8" class="edge">
<title>Node577&#45;&gt;Node585</title>
<path fill="none" stroke="#191970" d="M41.45,-124.076C52.0331,-99.3229 73.571,-55.9442 104,-29 108.1528,-25.3228 113.1374,-22.236 118.1884,-19.6916"/>
<polygon fill="#191970" stroke="#191970" points="38.1646,-122.8626 37.5911,-133.4419 44.6368,-125.5293 38.1646,-122.8626"/>
</g>
</g>
</svg>
