<?xml version="1.0" encoding="UTF-8" standalone="no"?>
<!DOCTYPE svg PUBLIC "-//W3C//DTD SVG 1.1//EN"
 "http://www.w3.org/Graphics/SVG/1.1/DTD/svg11.dtd">
<!-- Generated by graphviz version 2.40.1 (20161225.0304)
 -->
<!-- Title: validatePlainTextLength Pages: 1 -->
<svg width="463pt" height="332pt"
 viewBox="0.00 0.00 463.00 332.00" xmlns="http://www.w3.org/2000/svg" xmlns:xlink="http://www.w3.org/1999/xlink">
<g id="graph0" class="graph" transform="scale(1 1) rotate(0) translate(4 328)">
<title>validatePlainTextLength</title>
<polygon fill="#ffffff" stroke="transparent" points="-4,4 -4,-328 459,-328 459,4 -4,4"/>
<!-- Node564 -->
<g id="node1" class="node">
<title>Node564</title>
<polygon fill="#bfbfbf" stroke="#000000" points="0,-152.5 0,-171.5 121,-171.5 121,-152.5 0,-152.5"/>
<text text-anchor="middle" x="60.5" y="-159.5" font-family="Helvetica,sans-Serif" font-size="10.00" fill="#000000">validatePlainTextLength</text>
</g>
<!-- Node565 -->
<g id="node2" class="node">
<title>Node565</title>
<g id="a_node2"><a xlink:href="$_a_e_s_8h.html#a0ac21e951d3e46598708ab8fd8bc61c5" xlink:title="AESEncrypt &#45; Function to encrypt a single block of plaintext passed in as parameter &#160;plainText using ...">
<polygon fill="#ffffff" stroke="#000000" points="157,-152.5 157,-171.5 228,-171.5 228,-152.5 157,-152.5"/>
<text text-anchor="middle" x="192.5" y="-159.5" font-family="Helvetica,sans-Serif" font-size="10.00" fill="#000000">AESEncrypt</text>
</a>
</g>
</g>
<!-- Node564&#45;&gt;Node565 -->
<g id="edge1" class="edge">
<title>Node564&#45;&gt;Node565</title>
<path fill="none" stroke="#191970" d="M131.1199,-162C139.9908,-162 148.7498,-162 156.7517,-162"/>
<polygon fill="#191970" stroke="#191970" points="131.0914,-158.5001 121.0913,-162 131.0913,-165.5001 131.0914,-158.5001"/>
</g>
<!-- Node566 -->
<g id="node3" class="node">
<title>Node566</title>
<g id="a_node3"><a xlink:href="$aes_tester_8c.html#a0ddf1224851353fc92bfbff6f499fa97" xlink:title="main">
<polygon fill="#ffffff" stroke="#000000" points="289.5,-304.5 289.5,-323.5 327.5,-323.5 327.5,-304.5 289.5,-304.5"/>
<text text-anchor="middle" x="308.5" y="-311.5" font-family="Helvetica,sans-Serif" font-size="10.00" fill="#000000">main</text>
</a>
</g>
</g>
<!-- Node565&#45;&gt;Node566 -->
<g id="edge2" class="edge">
<title>Node565&#45;&gt;Node566</title>
<path fill="none" stroke="#191970" d="M198.3138,-181.366C207.7619,-209.8206 228.9979,-263.0058 264,-295 271.0685,-301.4611 280.6661,-305.9355 289.1386,-308.9114"/>
<polygon fill="#191970" stroke="#191970" points="201.6281,-180.2389 195.2657,-171.7672 194.9564,-182.3575 201.6281,-180.2389"/>
</g>
<!-- Node567 -->
<g id="node4" class="node">
<title>Node567</title>
<g id="a_node4"><a xlink:href="$cbc_8h.html#ad055b3ad2664ace8ba1ab68a481dc1b3" xlink:title="cbcEncryptFile &#45; Function to encrypt the file with name ">
<polygon fill="#ffffff" stroke="#000000" points="267.5,-266.5 267.5,-285.5 349.5,-285.5 349.5,-266.5 267.5,-266.5"/>
<text text-anchor="middle" x="308.5" y="-273.5" font-family="Helvetica,sans-Serif" font-size="10.00" fill="#000000">cbcEncryptFile</text>
</a>
</g>
</g>
<!-- Node565&#45;&gt;Node567 -->
<g id="edge3" class="edge">
<title>Node565&#45;&gt;Node567</title>
<path fill="none" stroke="#191970" d="M202.4737,-180.5742C214.5784,-201.5962 236.7863,-235.6791 264,-257 268.7611,-260.7301 274.3641,-263.865 279.9588,-266.4444"/>
<polygon fill="#191970" stroke="#191970" points="205.434,-178.6967 197.503,-171.6717 199.3222,-182.1092 205.434,-178.6967"/>
</g>
<!-- Node568 -->
<g id="node5" class="node">
<title>Node568</title>
<g id="a_node5"><a xlink:href="$cbc_8h.html#a90f1f37609cf336c57cd0300282c1dac" xlink:title="cbcEncrypt &#45; Function to encrypt the user input pointed to by ">
<polygon fill="#ffffff" stroke="#000000" points="275.5,-228.5 275.5,-247.5 341.5,-247.5 341.5,-228.5 275.5,-228.5"/>
<text text-anchor="middle" x="308.5" y="-235.5" font-family="Helvetica,sans-Serif" font-size="10.00" fill="#000000">cbcEncrypt</text>
</a>
</g>
</g>
<!-- Node565&#45;&gt;Node568 -->
<g id="edge4" class="edge">
<title>Node565&#45;&gt;Node568</title>
<path fill="none" stroke="#191970" d="M210.7658,-178.855C224.6407,-191.0693 244.5856,-207.4077 264,-219 269.9143,-222.5314 276.6054,-225.7499 282.9689,-228.4936"/>
<polygon fill="#191970" stroke="#191970" points="212.7512,-175.9342 202.9702,-171.8621 208.077,-181.1449 212.7512,-175.9342"/>
</g>
<!-- Node569 -->
<g id="node6" class="node">
<title>Node569</title>
<g id="a_node6"><a xlink:href="$cfb_8h.html#a9384de325e389ba7809b7ee98320f485" xlink:title="cfbEncryptFile &#45; Function to encrypt the file with name ">
<polygon fill="#ffffff" stroke="#000000" points="268.5,-190.5 268.5,-209.5 348.5,-209.5 348.5,-190.5 268.5,-190.5"/>
<text text-anchor="middle" x="308.5" y="-197.5" font-family="Helvetica,sans-Serif" font-size="10.00" fill="#000000">cfbEncryptFile</text>
</a>
</g>
</g>
<!-- Node565&#45;&gt;Node569 -->
<g id="edge5" class="edge">
<title>Node565&#45;&gt;Node569</title>
<path fill="none" stroke="#191970" d="M231.6528,-174.8259C247.2176,-179.9247 264.8141,-185.6891 279.2377,-190.4141"/>
<polygon fill="#191970" stroke="#191970" points="232.3644,-171.3761 221.7717,-171.589 230.1852,-178.0282 232.3644,-171.3761"/>
</g>
<!-- Node570 -->
<g id="node7" class="node">
<title>Node570</title>
<g id="a_node7"><a xlink:href="$cfb_8h.html#a6dce0b90ab3948c3df032eb61c2a64ea" xlink:title="cfbDecryptFile &#45; Function to decrypt the file with name ">
<polygon fill="#ffffff" stroke="#000000" points="268.5,-152.5 268.5,-171.5 348.5,-171.5 348.5,-152.5 268.5,-152.5"/>
<text text-anchor="middle" x="308.5" y="-159.5" font-family="Helvetica,sans-Serif" font-size="10.00" fill="#000000">cfbDecryptFile</text>
</a>
</g>
</g>
<!-- Node565&#45;&gt;Node570 -->
<g id="edge6" class="edge">
<title>Node565&#45;&gt;Node570</title>
<path fill="none" stroke="#191970" d="M238.3137,-162C248.191,-162 258.562,-162 268.2099,-162"/>
<polygon fill="#191970" stroke="#191970" points="238.2504,-158.5001 228.2503,-162 238.2503,-165.5001 238.2504,-158.5001"/>
</g>
<!-- Node571 -->
<g id="node8" class="node">
<title>Node571</title>
<g id="a_node8"><a xlink:href="$cfb_8h.html#a826aec09cb2af95cb8781d2b4c211182" xlink:title="cfbEncrypt &#45; Function to encrypt the user input pointed to by ">
<polygon fill="#ffffff" stroke="#000000" points="276.5,-114.5 276.5,-133.5 340.5,-133.5 340.5,-114.5 276.5,-114.5"/>
<text text-anchor="middle" x="308.5" y="-121.5" font-family="Helvetica,sans-Serif" font-size="10.00" fill="#000000">cfbEncrypt</text>
</a>
</g>
</g>
<!-- Node565&#45;&gt;Node571 -->
<g id="edge7" class="edge">
<title>Node565&#45;&gt;Node571</title>
<path fill="none" stroke="#191970" d="M231.6528,-149.1741C247.2176,-144.0753 264.8141,-138.3109 279.2377,-133.5859"/>
<polygon fill="#191970" stroke="#191970" points="230.1852,-145.9718 221.7717,-152.411 232.3644,-152.6239 230.1852,-145.9718"/>
</g>
<!-- Node572 -->
<g id="node9" class="node">
<title>Node572</title>
<g id="a_node9"><a xlink:href="$cfb_8h.html#ad6a75d43203e367b8a83f6b7c7f506c6" xlink:title="cfbDecrypt &#45; Function to decrypt the user input pointed to by ">
<polygon fill="#ffffff" stroke="#000000" points="276,-76.5 276,-95.5 341,-95.5 341,-76.5 276,-76.5"/>
<text text-anchor="middle" x="308.5" y="-83.5" font-family="Helvetica,sans-Serif" font-size="10.00" fill="#000000">cfbDecrypt</text>
</a>
</g>
</g>
<!-- Node565&#45;&gt;Node572 -->
<g id="edge8" class="edge">
<title>Node565&#45;&gt;Node572</title>
<path fill="none" stroke="#191970" d="M210.7658,-145.145C224.6407,-132.9307 244.5856,-116.5923 264,-105 269.9143,-101.4686 276.6054,-98.2501 282.9689,-95.5064"/>
<polygon fill="#191970" stroke="#191970" points="208.077,-142.8551 202.9702,-152.1379 212.7512,-148.0658 208.077,-142.8551"/>
</g>
<!-- Node573 -->
<g id="node10" class="node">
<title>Node573</title>
<g id="a_node10"><a xlink:href="$ecb_8h.html#a50ddfe369298c1293b5c57662f569127" xlink:title="ecbEcryptHelper &#45; Helper function used to encrypt the plaintext pointed to by ">
<polygon fill="#ffffff" stroke="#000000" points="264,-38.5 264,-57.5 353,-57.5 353,-38.5 264,-38.5"/>
<text text-anchor="middle" x="308.5" y="-45.5" font-family="Helvetica,sans-Serif" font-size="10.00" fill="#000000">ecbEcryptHelper</text>
</a>
</g>
</g>
<!-- Node565&#45;&gt;Node573 -->
<g id="edge9" class="edge">
<title>Node565&#45;&gt;Node573</title>
<path fill="none" stroke="#191970" d="M202.4737,-143.4258C214.5784,-122.4038 236.7863,-88.3209 264,-67 268.7611,-63.2699 274.3641,-60.135 279.9588,-57.5556"/>
<polygon fill="#191970" stroke="#191970" points="199.3222,-141.8908 197.503,-152.3283 205.434,-145.3033 199.3222,-141.8908"/>
</g>
<!-- Node575 -->
<g id="node12" class="node">
<title>Node575</title>
<g id="a_node12"><a xlink:href="$ecb_8h.html#ab68902caeba7880cf1be8b40e8bb9a50" xlink:title="ecbEncryptFile &#45; Function to encrypt the file with name ">
<polygon fill="#ffffff" stroke="#000000" points="267.5,-.5 267.5,-19.5 349.5,-19.5 349.5,-.5 267.5,-.5"/>
<text text-anchor="middle" x="308.5" y="-7.5" font-family="Helvetica,sans-Serif" font-size="10.00" fill="#000000">ecbEncryptFile</text>
</a>
</g>
</g>
<!-- Node565&#45;&gt;Node575 -->
<g id="edge11" class="edge">
<title>Node565&#45;&gt;Node575</title>
<path fill="none" stroke="#191970" d="M198.3138,-142.634C207.7619,-114.1794 228.9979,-60.9942 264,-29 268.0923,-25.2594 273.0323,-22.1846 278.1109,-19.6811"/>
<polygon fill="#191970" stroke="#191970" points="194.9564,-141.6425 195.2657,-152.2328 201.6281,-143.7611 194.9564,-141.6425"/>
</g>
<!-- Node574 -->
<g id="node11" class="node">
<title>Node574</title>
<g id="a_node11"><a xlink:href="$ecb_8h.html#aa451eb4920a712afa521f06831277731" xlink:title="ecbEncrypt &#45; Function to encrypt the user input pointed to by ">
<polygon fill="#ffffff" stroke="#000000" points="389,-38.5 389,-57.5 455,-57.5 455,-38.5 389,-38.5"/>
<text text-anchor="middle" x="422" y="-45.5" font-family="Helvetica,sans-Serif" font-size="10.00" fill="#000000">ecbEncrypt</text>
</a>
</g>
</g>
<!-- Node573&#45;&gt;Node574 -->
<g id="edge10" class="edge">
<title>Node573&#45;&gt;Node574</title>
<path fill="none" stroke="#191970" d="M363.2228,-48C371.9711,-48 380.7838,-48 388.8278,-48"/>
<polygon fill="#191970" stroke="#191970" points="363.0325,-44.5001 353.0324,-48 363.0324,-51.5001 363.0325,-44.5001"/>
</g>
</g>
</svg>
