<?xml version="1.0" encoding="UTF-8" standalone="no"?>
<!DOCTYPE svg PUBLIC "-//W3C//DTD SVG 1.1//EN"
 "http://www.w3.org/Graphics/SVG/1.1/DTD/svg11.dtd">
<!-- Generated by graphviz version 2.40.1 (20161225.0304)
 -->
<!-- Title: hexToAscii Pages: 1 -->
<svg width="438pt" height="522pt"
 viewBox="0.00 0.00 438.00 522.00" xmlns="http://www.w3.org/2000/svg" xmlns:xlink="http://www.w3.org/1999/xlink">
<g id="graph0" class="graph" transform="scale(1 1) rotate(0) translate(4 518)">
<title>hexToAscii</title>
<polygon fill="#ffffff" stroke="transparent" points="-4,4 -4,-518 434,-518 434,4 -4,4"/>
<!-- Node244 -->
<g id="node1" class="node">
<title>Node244</title>
<polygon fill="#bfbfbf" stroke="#000000" points="0,-266.5 0,-285.5 65,-285.5 65,-266.5 0,-266.5"/>
<text text-anchor="middle" x="32.5" y="-273.5" font-family="Helvetica,sans-Serif" font-size="10.00" fill="#000000">hexToAscii</text>
</g>
<!-- Node245 -->
<g id="node2" class="node">
<title>Node245</title>
<g id="a_node2"><a xlink:href="$_a_e_s_8h.html#a69dcfd00e48471cb60dc1b24ba6e5520" xlink:title="hexToAsciiString &#45; Function that converts a given string of hex values into its ASCII equivalent...">
<polygon fill="#ffffff" stroke="#000000" points="101,-266.5 101,-285.5 192,-285.5 192,-266.5 101,-266.5"/>
<text text-anchor="middle" x="146.5" y="-273.5" font-family="Helvetica,sans-Serif" font-size="10.00" fill="#000000">hexToAsciiString</text>
</a>
</g>
</g>
<!-- Node244&#45;&gt;Node245 -->
<g id="edge1" class="edge">
<title>Node244&#45;&gt;Node245</title>
<path fill="none" stroke="#191970" d="M75.3527,-276C83.6173,-276 92.3054,-276 100.6605,-276"/>
<polygon fill="#191970" stroke="#191970" points="75.1679,-272.5001 65.1678,-276 75.1678,-279.5001 75.1679,-272.5001"/>
</g>
<!-- Node246 -->
<g id="node3" class="node">
<title>Node246</title>
<g id="a_node3"><a xlink:href="$_a_e_s_8h.html#afba897e91364663f883cc51ed309dc92" xlink:title="keyHexToAscii &#45; Function to convert a key from a Hex string passed in as a paramter ...">
<polygon fill="#ffffff" stroke="#000000" points="228,-266.5 228,-285.5 311,-285.5 311,-266.5 228,-266.5"/>
<text text-anchor="middle" x="269.5" y="-273.5" font-family="Helvetica,sans-Serif" font-size="10.00" fill="#000000">keyHexToAscii</text>
</a>
</g>
</g>
<!-- Node245&#45;&gt;Node246 -->
<g id="edge2" class="edge">
<title>Node245&#45;&gt;Node246</title>
<path fill="none" stroke="#191970" d="M202.5267,-276C211.0029,-276 219.6189,-276 227.7237,-276"/>
<polygon fill="#191970" stroke="#191970" points="202.3007,-272.5001 192.3007,-276 202.3006,-279.5001 202.3007,-272.5001"/>
</g>
<!-- Node247 -->
<g id="node4" class="node">
<title>Node247</title>
<g id="a_node4"><a xlink:href="$cbc_8h.html#ad055b3ad2664ace8ba1ab68a481dc1b3" xlink:title="cbcEncryptFile &#45; Function to encrypt the file with name ">
<polygon fill="#ffffff" stroke="#000000" points="347.5,-494.5 347.5,-513.5 429.5,-513.5 429.5,-494.5 347.5,-494.5"/>
<text text-anchor="middle" x="388.5" y="-501.5" font-family="Helvetica,sans-Serif" font-size="10.00" fill="#000000">cbcEncryptFile</text>
</a>
</g>
</g>
<!-- Node245&#45;&gt;Node247 -->
<g id="edge25" class="edge">
<title>Node245&#45;&gt;Node247</title>
<path fill="none" stroke="#191970" d="M148.4182,-295.7588C153.4707,-336.278 170.9693,-428.8417 228,-475 261.5654,-502.1664 312.0961,-507.2576 347.4685,-506.9338"/>
<polygon fill="#191970" stroke="#191970" points="151.8933,-295.3399 147.3007,-285.7923 144.9369,-296.12 151.8933,-295.3399"/>
</g>
<!-- Node248 -->
<g id="node5" class="node">
<title>Node248</title>
<g id="a_node5"><a xlink:href="$cbc_8h.html#a9375da4cc24b1bedceb0364f2865bcc3" xlink:title="cbcDecryptFile &#45; Function to decrypt the file with name ">
<polygon fill="#ffffff" stroke="#000000" points="347,-456.5 347,-475.5 430,-475.5 430,-456.5 347,-456.5"/>
<text text-anchor="middle" x="388.5" y="-463.5" font-family="Helvetica,sans-Serif" font-size="10.00" fill="#000000">cbcDecryptFile</text>
</a>
</g>
</g>
<!-- Node245&#45;&gt;Node248 -->
<g id="edge26" class="edge">
<title>Node245&#45;&gt;Node248</title>
<path fill="none" stroke="#191970" d="M149.3282,-295.65C155.8091,-332.7673 175.4464,-412.7934 228,-450 262.3964,-474.3518 311.8214,-475.601 346.7168,-472.4949"/>
<polygon fill="#191970" stroke="#191970" points="152.7565,-294.9231 147.7174,-285.6033 145.8447,-296.0313 152.7565,-294.9231"/>
</g>
<!-- Node249 -->
<g id="node6" class="node">
<title>Node249</title>
<g id="a_node6"><a xlink:href="$cbc_8h.html#a90f1f37609cf336c57cd0300282c1dac" xlink:title="cbcEncrypt &#45; Function to encrypt the user input pointed to by ">
<polygon fill="#ffffff" stroke="#000000" points="355.5,-418.5 355.5,-437.5 421.5,-437.5 421.5,-418.5 355.5,-418.5"/>
<text text-anchor="middle" x="388.5" y="-425.5" font-family="Helvetica,sans-Serif" font-size="10.00" fill="#000000">cbcEncrypt</text>
</a>
</g>
</g>
<!-- Node245&#45;&gt;Node249 -->
<g id="edge27" class="edge">
<title>Node245&#45;&gt;Node249</title>
<path fill="none" stroke="#191970" d="M150.3877,-295.9907C158.2338,-330.178 179.5248,-398.9879 228,-428 266.853,-451.2533 321.0508,-444.9858 355.4577,-437.3057"/>
<polygon fill="#191970" stroke="#191970" points="153.7301,-294.8823 148.2224,-285.8316 146.8839,-296.3415 153.7301,-294.8823"/>
</g>
<!-- Node250 -->
<g id="node7" class="node">
<title>Node250</title>
<g id="a_node7"><a xlink:href="$cbc_8h.html#a95fbad6d45d4b793610fe663939b5f8c" xlink:title="cbcDecrypt &#45; Function to decrypt the user input pointed to by ">
<polygon fill="#ffffff" stroke="#000000" points="355,-380.5 355,-399.5 422,-399.5 422,-380.5 355,-380.5"/>
<text text-anchor="middle" x="388.5" y="-387.5" font-family="Helvetica,sans-Serif" font-size="10.00" fill="#000000">cbcDecrypt</text>
</a>
</g>
</g>
<!-- Node245&#45;&gt;Node250 -->
<g id="edge28" class="edge">
<title>Node245&#45;&gt;Node250</title>
<path fill="none" stroke="#191970" d="M151.8414,-295.6862C161.3522,-326.3696 184.4401,-384.6049 228,-409 273.1682,-434.2958 336.5965,-413.2612 368.5037,-399.5382"/>
<polygon fill="#191970" stroke="#191970" points="155.1007,-294.3609 148.939,-285.7421 148.3811,-296.3222 155.1007,-294.3609"/>
</g>
<!-- Node251 -->
<g id="node8" class="node">
<title>Node251</title>
<g id="a_node8"><a xlink:href="$cfb_8h.html#a9384de325e389ba7809b7ee98320f485" xlink:title="cfbEncryptFile &#45; Function to encrypt the file with name ">
<polygon fill="#ffffff" stroke="#000000" points="348.5,-342.5 348.5,-361.5 428.5,-361.5 428.5,-342.5 348.5,-342.5"/>
<text text-anchor="middle" x="388.5" y="-349.5" font-family="Helvetica,sans-Serif" font-size="10.00" fill="#000000">cfbEncryptFile</text>
</a>
</g>
</g>
<!-- Node245&#45;&gt;Node251 -->
<g id="edge29" class="edge">
<title>Node245&#45;&gt;Node251</title>
<path fill="none" stroke="#191970" d="M173.265,-290.1678C188.898,-298.0113 209.1929,-307.4658 228,-314 268.0324,-327.9085 315.421,-338.436 348.2802,-344.8431"/>
<polygon fill="#191970" stroke="#191970" points="174.6865,-286.9637 164.1887,-285.5327 171.5028,-293.1979 174.6865,-286.9637"/>
</g>
<!-- Node252 -->
<g id="node9" class="node">
<title>Node252</title>
<g id="a_node9"><a xlink:href="$cfb_8h.html#a6dce0b90ab3948c3df032eb61c2a64ea" xlink:title="cfbDecryptFile &#45; Function to decrypt the file with name ">
<polygon fill="#ffffff" stroke="#000000" points="348.5,-304.5 348.5,-323.5 428.5,-323.5 428.5,-304.5 348.5,-304.5"/>
<text text-anchor="middle" x="388.5" y="-311.5" font-family="Helvetica,sans-Serif" font-size="10.00" fill="#000000">cfbDecryptFile</text>
</a>
</g>
</g>
<!-- Node245&#45;&gt;Node252 -->
<g id="edge30" class="edge">
<title>Node245&#45;&gt;Node252</title>
<path fill="none" stroke="#191970" d="M193.6825,-287.9377C204.8826,-290.5106 216.8242,-293.0421 228,-295 268.7663,-302.1421 315.8377,-307.3615 348.4151,-310.5029"/>
<polygon fill="#191970" stroke="#191970" points="194.184,-284.4602 183.6483,-285.5784 192.5818,-291.2744 194.184,-284.4602"/>
</g>
<!-- Node253 -->
<g id="node10" class="node">
<title>Node253</title>
<g id="a_node10"><a xlink:href="$cfb_8h.html#a826aec09cb2af95cb8781d2b4c211182" xlink:title="cfbEncrypt &#45; Function to encrypt the user input pointed to by ">
<polygon fill="#ffffff" stroke="#000000" points="356.5,-266.5 356.5,-285.5 420.5,-285.5 420.5,-266.5 356.5,-266.5"/>
<text text-anchor="middle" x="388.5" y="-273.5" font-family="Helvetica,sans-Serif" font-size="10.00" fill="#000000">cfbEncrypt</text>
</a>
</g>
</g>
<!-- Node245&#45;&gt;Node253 -->
<g id="edge31" class="edge">
<title>Node245&#45;&gt;Node253</title>
<path fill="none" stroke="#191970" d="M189.5306,-264.0297C201.8534,-261.132 215.3706,-258.4527 228,-257 264.6473,-252.7847 274.3773,-252.5763 311,-257 326.4037,-258.8606 343.1632,-262.7299 357.1437,-266.4942"/>
<polygon fill="#191970" stroke="#191970" points="188.382,-260.7077 179.5062,-266.493 190.0525,-267.5055 188.382,-260.7077"/>
</g>
<!-- Node254 -->
<g id="node11" class="node">
<title>Node254</title>
<g id="a_node11"><a xlink:href="$cfb_8h.html#ad6a75d43203e367b8a83f6b7c7f506c6" xlink:title="cfbDecrypt &#45; Function to decrypt the user input pointed to by ">
<polygon fill="#ffffff" stroke="#000000" points="356,-228.5 356,-247.5 421,-247.5 421,-228.5 356,-228.5"/>
<text text-anchor="middle" x="388.5" y="-235.5" font-family="Helvetica,sans-Serif" font-size="10.00" fill="#000000">cfbDecrypt</text>
</a>
</g>
</g>
<!-- Node245&#45;&gt;Node254 -->
<g id="edge32" class="edge">
<title>Node245&#45;&gt;Node254</title>
<path fill="none" stroke="#191970" d="M179.5726,-262.9429C194.1889,-257.7235 211.72,-252.2014 228,-249 271.7111,-240.4044 323.2582,-238.2496 355.9087,-237.8466"/>
<polygon fill="#191970" stroke="#191970" points="178.147,-259.7379 169.9705,-266.4757 180.5641,-266.3074 178.147,-259.7379"/>
</g>
<!-- Node255 -->
<g id="node12" class="node">
<title>Node255</title>
<g id="a_node12"><a xlink:href="$ecb_8h.html#aa451eb4920a712afa521f06831277731" xlink:title="ecbEncrypt &#45; Function to encrypt the user input pointed to by ">
<polygon fill="#ffffff" stroke="#000000" points="355.5,-188.5 355.5,-207.5 421.5,-207.5 421.5,-188.5 355.5,-188.5"/>
<text text-anchor="middle" x="388.5" y="-195.5" font-family="Helvetica,sans-Serif" font-size="10.00" fill="#000000">ecbEncrypt</text>
</a>
</g>
</g>
<!-- Node245&#45;&gt;Node255 -->
<g id="edge33" class="edge">
<title>Node245&#45;&gt;Node255</title>
<path fill="none" stroke="#191970" d="M171.6163,-261.3912C187.385,-252.7228 208.383,-242.0794 228,-235 270.767,-219.5662 322.3235,-209.0311 355.2535,-203.2632"/>
<polygon fill="#191970" stroke="#191970" points="169.544,-258.5404 162.5329,-266.4837 172.9672,-264.6463 169.544,-258.5404"/>
</g>
<!-- Node256 -->
<g id="node13" class="node">
<title>Node256</title>
<g id="a_node13"><a xlink:href="$ecb_8h.html#acd982a867b70e4f75f2232c974a1e4ae" xlink:title="ecbDecrypt &#45; Function to decrypt the user input pointed to by ">
<polygon fill="#ffffff" stroke="#000000" points="355,-145.5 355,-164.5 422,-164.5 422,-145.5 355,-145.5"/>
<text text-anchor="middle" x="388.5" y="-152.5" font-family="Helvetica,sans-Serif" font-size="10.00" fill="#000000">ecbDecrypt</text>
</a>
</g>
</g>
<!-- Node245&#45;&gt;Node256 -->
<g id="edge34" class="edge">
<title>Node245&#45;&gt;Node256</title>
<path fill="none" stroke="#191970" d="M162.8934,-259.0716C178.4266,-243.87 203.0349,-221.871 228,-208 268.9135,-185.2679 321.149,-170.2882 354.7162,-162.225"/>
<polygon fill="#191970" stroke="#191970" points="160.2392,-256.776 155.6438,-266.3223 165.1894,-261.7253 160.2392,-256.776"/>
</g>
<!-- Node257 -->
<g id="node14" class="node">
<title>Node257</title>
<g id="a_node14"><a xlink:href="$ecb_8h.html#ab68902caeba7880cf1be8b40e8bb9a50" xlink:title="ecbEncryptFile &#45; Function to encrypt the file with name ">
<polygon fill="#ffffff" stroke="#000000" points="347.5,-98.5 347.5,-117.5 429.5,-117.5 429.5,-98.5 347.5,-98.5"/>
<text text-anchor="middle" x="388.5" y="-105.5" font-family="Helvetica,sans-Serif" font-size="10.00" fill="#000000">ecbEncryptFile</text>
</a>
</g>
</g>
<!-- Node245&#45;&gt;Node257 -->
<g id="edge35" class="edge">
<title>Node245&#45;&gt;Node257</title>
<path fill="none" stroke="#191970" d="M156.4449,-257.4822C169.8493,-234.1164 195.7895,-194.0815 228,-170 263.8864,-143.1703 312.8217,-126.4956 347.1937,-117.2868"/>
<polygon fill="#191970" stroke="#191970" points="153.2968,-255.9415 151.486,-266.3805 159.4114,-259.3492 153.2968,-255.9415"/>
</g>
<!-- Node258 -->
<g id="node15" class="node">
<title>Node258</title>
<g id="a_node15"><a xlink:href="$ecb_8h.html#ab4c77adefd8655ebd7bc79524f958013" xlink:title="ecbDecryptFile &#45; Function to encrypt the file with name ">
<polygon fill="#ffffff" stroke="#000000" points="347,-41.5 347,-60.5 430,-60.5 430,-41.5 347,-41.5"/>
<text text-anchor="middle" x="388.5" y="-48.5" font-family="Helvetica,sans-Serif" font-size="10.00" fill="#000000">ecbDecryptFile</text>
</a>
</g>
</g>
<!-- Node245&#45;&gt;Node258 -->
<g id="edge36" class="edge">
<title>Node245&#45;&gt;Node258</title>
<path fill="none" stroke="#191970" d="M152.3207,-256.693C162.7318,-225.1041 187.3401,-162.0874 228,-124 263.0749,-91.1442 315.4945,-71.1318 350.7923,-60.5671"/>
<polygon fill="#191970" stroke="#191970" points="148.9091,-255.8733 149.2273,-266.4633 155.5826,-257.9863 148.9091,-255.8733"/>
</g>
<!-- Node259 -->
<g id="node16" class="node">
<title>Node259</title>
<g id="a_node16"><a xlink:href="$_a_e_s_8h.html#ad82d1b77336ac1292ed5a24b92380f42" xlink:title="IVHexToAscii &#45; Function to convert a initialization vector from a Hex string passed in as a paramter...">
<polygon fill="#ffffff" stroke="#000000" points="231,-380.5 231,-399.5 308,-399.5 308,-380.5 231,-380.5"/>
<text text-anchor="middle" x="269.5" y="-387.5" font-family="Helvetica,sans-Serif" font-size="10.00" fill="#000000">IVHexToAscii</text>
</a>
</g>
</g>
<!-- Node245&#45;&gt;Node259 -->
<g id="edge15" class="edge">
<title>Node245&#45;&gt;Node259</title>
<path fill="none" stroke="#191970" d="M159.6449,-293.5234C174.7104,-312.8327 200.8431,-344.0563 228,-366 234.7326,-371.4402 242.8441,-376.4212 250.103,-380.4182"/>
<polygon fill="#191970" stroke="#191970" points="162.4027,-291.368 153.5377,-285.566 156.8496,-295.6299 162.4027,-291.368"/>
</g>
<!-- Node260 -->
<g id="node17" class="node">
<title>Node260</title>
<g id="a_node17"><a xlink:href="$aes_tester_8c.html#a0ddf1224851353fc92bfbff6f499fa97" xlink:title="main">
<polygon fill="#ffffff" stroke="#000000" points="250.5,-.5 250.5,-19.5 288.5,-19.5 288.5,-.5 250.5,-.5"/>
<text text-anchor="middle" x="269.5" y="-7.5" font-family="Helvetica,sans-Serif" font-size="10.00" fill="#000000">main</text>
</a>
</g>
</g>
<!-- Node245&#45;&gt;Node260 -->
<g id="edge24" class="edge">
<title>Node245&#45;&gt;Node260</title>
<path fill="none" stroke="#191970" d="M148.464,-255.9257C153.7631,-211.3182 171.9645,-102.4974 228,-34 233.9023,-26.785 242.5835,-21.2894 250.4823,-17.3897"/>
<polygon fill="#191970" stroke="#191970" points="144.9652,-255.7249 147.357,-266.0462 151.9237,-256.486 144.9652,-255.7249"/>
</g>
<!-- Node246&#45;&gt;Node247 -->
<g id="edge3" class="edge">
<title>Node246&#45;&gt;Node247</title>
<path fill="none" stroke="#191970" d="M278.4523,-294.8733C287.2944,-313.8704 300.9197,-344.1271 311,-371 329.6611,-420.7481 311.8188,-445.183 347,-485 350.358,-488.8004 354.6307,-491.8881 359.1509,-494.382"/>
<polygon fill="#191970" stroke="#191970" points="281.5029,-293.1354 274.0849,-285.5707 275.1665,-296.1102 281.5029,-293.1354"/>
</g>
<!-- Node246&#45;&gt;Node248 -->
<g id="edge4" class="edge">
<title>Node246&#45;&gt;Node248</title>
<path fill="none" stroke="#191970" d="M278.0547,-295.3445C297.6046,-339.4885 344.0984,-444.0873 347,-447 350.8029,-450.8174 355.5136,-453.9474 360.3815,-456.4858"/>
<polygon fill="#191970" stroke="#191970" points="281.1565,-293.7047 273.9087,-285.9768 274.7554,-296.5377 281.1565,-293.7047"/>
</g>
<!-- Node246&#45;&gt;Node249 -->
<g id="edge5" class="edge">
<title>Node246&#45;&gt;Node249</title>
<path fill="none" stroke="#191970" d="M276.3488,-295.245C287.286,-323.5455 311.1796,-376.537 347,-409 351.1101,-412.7249 356.0754,-415.8333 361.1208,-418.3839"/>
<polygon fill="#191970" stroke="#191970" points="279.5645,-293.8507 272.7936,-285.7017 273.0049,-296.2945 279.5645,-293.8507"/>
</g>
<!-- Node246&#45;&gt;Node250 -->
<g id="edge6" class="edge">
<title>Node246&#45;&gt;Node250</title>
<path fill="none" stroke="#191970" d="M280.5904,-294.1208C294.1025,-314.9591 318.6658,-349.1038 347,-371 351.7652,-374.6825 357.3587,-377.8531 362.8686,-380.4911"/>
<polygon fill="#191970" stroke="#191970" points="283.4889,-292.1557 275.186,-285.5745 277.5726,-295.8971 283.4889,-292.1557"/>
</g>
<!-- Node246&#45;&gt;Node251 -->
<g id="edge7" class="edge">
<title>Node246&#45;&gt;Node251</title>
<path fill="none" stroke="#191970" d="M289.188,-292.2368C304.4063,-304.3445 326.3013,-320.8237 347,-333 352.7371,-336.375 359.1774,-339.5808 365.2417,-342.365"/>
<polygon fill="#191970" stroke="#191970" points="291.0395,-289.2335 281.0588,-285.6787 286.6442,-294.6817 291.0395,-289.2335"/>
</g>
<!-- Node246&#45;&gt;Node252 -->
<g id="edge8" class="edge">
<title>Node246&#45;&gt;Node252</title>
<path fill="none" stroke="#191970" d="M309.2098,-288.6804C325.2886,-293.8148 343.5433,-299.6441 358.4809,-304.4141"/>
<polygon fill="#191970" stroke="#191970" points="310.1195,-285.2969 299.5287,-285.589 307.9901,-291.9652 310.1195,-285.2969"/>
</g>
<!-- Node246&#45;&gt;Node253 -->
<g id="edge9" class="edge">
<title>Node246&#45;&gt;Node253</title>
<path fill="none" stroke="#191970" d="M321.4378,-276C333.3547,-276 345.6829,-276 356.4683,-276"/>
<polygon fill="#191970" stroke="#191970" points="321.1205,-272.5001 311.1204,-276 321.1204,-279.5001 321.1205,-272.5001"/>
</g>
<!-- Node246&#45;&gt;Node254 -->
<g id="edge10" class="edge">
<title>Node246&#45;&gt;Node254</title>
<path fill="none" stroke="#191970" d="M309.2098,-263.3196C325.2886,-258.1852 343.5433,-252.3559 358.4809,-247.5859"/>
<polygon fill="#191970" stroke="#191970" points="307.9901,-260.0348 299.5287,-266.411 310.1195,-266.7031 307.9901,-260.0348"/>
</g>
<!-- Node246&#45;&gt;Node255 -->
<g id="edge11" class="edge">
<title>Node246&#45;&gt;Node255</title>
<path fill="none" stroke="#191970" d="M289.3275,-259.9952C304.6185,-248.0083 326.5434,-231.5787 347,-219 353.6033,-214.9396 361.0901,-210.9714 367.8691,-207.5972"/>
<polygon fill="#191970" stroke="#191970" points="286.8139,-257.5215 281.1523,-266.4768 291.1627,-263.0067 286.8139,-257.5215"/>
</g>
<!-- Node246&#45;&gt;Node256 -->
<g id="edge12" class="edge">
<title>Node246&#45;&gt;Node256</title>
<path fill="none" stroke="#191970" d="M280.8885,-257.9541C294.6821,-237.1081 319.5112,-202.6515 347,-179 353.4352,-173.4631 361.3306,-168.5284 368.501,-164.5949"/>
<polygon fill="#191970" stroke="#191970" points="277.8601,-256.1915 275.3575,-266.4865 283.7339,-259.9991 277.8601,-256.1915"/>
</g>
<!-- Node246&#45;&gt;Node257 -->
<g id="edge13" class="edge">
<title>Node246&#45;&gt;Node257</title>
<path fill="none" stroke="#191970" d="M276.683,-256.8684C288.1734,-228.1298 312.9126,-173.2259 347,-136 353.6913,-128.6926 362.6528,-122.3408 370.5356,-117.5427"/>
<polygon fill="#191970" stroke="#191970" points="273.42,-255.6026 273.0564,-266.1912 279.9437,-258.1404 273.42,-255.6026"/>
</g>
<!-- Node246&#45;&gt;Node258 -->
<g id="edge14" class="edge">
<title>Node246&#45;&gt;Node258</title>
<path fill="none" stroke="#191970" d="M276.1919,-256.9668C291.011,-215.3588 326.8728,-117.7276 347,-89 354.7356,-77.959 366.1907,-67.7792 375.1073,-60.7405"/>
<polygon fill="#191970" stroke="#191970" points="272.8632,-255.8818 272.8246,-266.4766 279.4618,-258.2184 272.8632,-255.8818"/>
</g>
<!-- Node259&#45;&gt;Node247 -->
<g id="edge16" class="edge">
<title>Node259&#45;&gt;Node247</title>
<path fill="none" stroke="#191970" d="M280.5904,-408.1208C294.1025,-428.9591 318.6658,-463.1038 347,-485 351.7652,-488.6825 357.3587,-491.8531 362.8686,-494.4911"/>
<polygon fill="#191970" stroke="#191970" points="283.4889,-406.1557 275.186,-399.5745 277.5726,-409.8971 283.4889,-406.1557"/>
</g>
<!-- Node259&#45;&gt;Node248 -->
<g id="edge17" class="edge">
<title>Node259&#45;&gt;Node248</title>
<path fill="none" stroke="#191970" d="M289.188,-406.2368C304.4063,-418.3445 326.3013,-434.8237 347,-447 352.7371,-450.375 359.1774,-453.5808 365.2417,-456.365"/>
<polygon fill="#191970" stroke="#191970" points="291.0395,-403.2335 281.0588,-399.6787 286.6442,-408.6817 291.0395,-403.2335"/>
</g>
<!-- Node259&#45;&gt;Node249 -->
<g id="edge18" class="edge">
<title>Node259&#45;&gt;Node249</title>
<path fill="none" stroke="#191970" d="M309.2098,-402.6804C325.2886,-407.8148 343.5433,-413.6441 358.4809,-418.4141"/>
<polygon fill="#191970" stroke="#191970" points="310.1195,-399.2969 299.5287,-399.589 307.9901,-405.9652 310.1195,-399.2969"/>
</g>
<!-- Node259&#45;&gt;Node250 -->
<g id="edge19" class="edge">
<title>Node259&#45;&gt;Node250</title>
<path fill="none" stroke="#191970" d="M318.2682,-390C330.565,-390 343.4943,-390 354.8604,-390"/>
<polygon fill="#191970" stroke="#191970" points="318.1359,-386.5001 308.1359,-390 318.1359,-393.5001 318.1359,-386.5001"/>
</g>
<!-- Node259&#45;&gt;Node251 -->
<g id="edge20" class="edge">
<title>Node259&#45;&gt;Node251</title>
<path fill="none" stroke="#191970" d="M309.2098,-377.3196C325.2886,-372.1852 343.5433,-366.3559 358.4809,-361.5859"/>
<polygon fill="#191970" stroke="#191970" points="307.9901,-374.0348 299.5287,-380.411 310.1195,-380.7031 307.9901,-374.0348"/>
</g>
<!-- Node259&#45;&gt;Node252 -->
<g id="edge21" class="edge">
<title>Node259&#45;&gt;Node252</title>
<path fill="none" stroke="#191970" d="M289.188,-373.7632C304.4063,-361.6555 326.3013,-345.1763 347,-333 352.7371,-329.625 359.1774,-326.4192 365.2417,-323.635"/>
<polygon fill="#191970" stroke="#191970" points="286.6442,-371.3183 281.0588,-380.3213 291.0395,-376.7665 286.6442,-371.3183"/>
</g>
<!-- Node259&#45;&gt;Node253 -->
<g id="edge22" class="edge">
<title>Node259&#45;&gt;Node253</title>
<path fill="none" stroke="#191970" d="M280.5904,-371.8792C294.1025,-351.0409 318.6658,-316.8962 347,-295 351.7652,-291.3175 357.3587,-288.1469 362.8686,-285.5089"/>
<polygon fill="#191970" stroke="#191970" points="277.5726,-370.1029 275.186,-380.4255 283.4889,-373.8443 277.5726,-370.1029"/>
</g>
<!-- Node259&#45;&gt;Node254 -->
<g id="edge23" class="edge">
<title>Node259&#45;&gt;Node254</title>
<path fill="none" stroke="#191970" d="M276.3488,-370.755C287.286,-342.4545 311.1796,-289.463 347,-257 351.1101,-253.2751 356.0754,-250.1667 361.1208,-247.6161"/>
<polygon fill="#191970" stroke="#191970" points="273.0049,-369.7055 272.7936,-380.2983 279.5645,-372.1493 273.0049,-369.7055"/>
</g>
</g>
</svg>
