<?xml version="1.0" encoding="UTF-8" standalone="no"?>
<!DOCTYPE svg PUBLIC "-//W3C//DTD SVG 1.1//EN"
 "http://www.w3.org/Graphics/SVG/1.1/DTD/svg11.dtd">
<!-- Generated by graphviz version 2.40.1 (20161225.0304)
 -->
<!-- Title: getOutputFileName Pages: 1 -->
<svg width="237pt" height="66pt"
 viewBox="0.00 0.00 237.00 66.00" xmlns="http://www.w3.org/2000/svg" xmlns:xlink="http://www.w3.org/1999/xlink">
<g id="graph0" class="graph" transform="scale(1 1) rotate(0) translate(4 62)">
<title>getOutputFileName</title>
<polygon fill="#ffffff" stroke="transparent" points="-4,4 -4,-62 233,-62 233,4 -4,4"/>
<!-- Node150 -->
<g id="node1" class="node">
<title>Node150</title>
<polygon fill="#bfbfbf" stroke="#000000" points="0,-19.5 0,-38.5 101,-38.5 101,-19.5 0,-19.5"/>
<text text-anchor="middle" x="50.5" y="-26.5" font-family="Helvetica,sans-Serif" font-size="10.00" fill="#000000">getOutputFileName</text>
</g>
<!-- Node151 -->
<g id="node2" class="node">
<title>Node151</title>
<g id="a_node2"><a xlink:href="$_a_e_s_8c.html#a9dcad0047890de22f3d15611a10ab74f" xlink:title="Returns the last index of &#39;/&#39; in a given path, otherwise returns &#45;1 if no &#39;/&#39; is found. ">
<polygon fill="#ffffff" stroke="#000000" points="137,-38.5 137,-57.5 229,-57.5 229,-38.5 137,-38.5"/>
<text text-anchor="middle" x="183" y="-45.5" font-family="Helvetica,sans-Serif" font-size="10.00" fill="#000000">fileNameDirIndex</text>
</a>
</g>
</g>
<!-- Node150&#45;&gt;Node151 -->
<g id="edge1" class="edge">
<title>Node150&#45;&gt;Node151</title>
<path fill="none" stroke="#191970" d="M101.349,-36.2916C109.6505,-37.482 118.2935,-38.7213 126.7165,-39.9292"/>
<polygon fill="#191970" stroke="#191970" points="126.4484,-43.4264 136.8439,-41.3814 127.442,-36.4973 126.4484,-43.4264"/>
</g>
<!-- Node152 -->
<g id="node3" class="node">
<title>Node152</title>
<g id="a_node3"><a xlink:href="$_a_e_s_8c.html#ab066697b473ad5ce74faaceae6def5e5" xlink:title="Removes path from the provided path to a file and returns only the file name. ">
<polygon fill="#ffffff" stroke="#000000" points="145.5,-.5 145.5,-19.5 220.5,-19.5 220.5,-.5 145.5,-.5"/>
<text text-anchor="middle" x="183" y="-7.5" font-family="Helvetica,sans-Serif" font-size="10.00" fill="#000000">stripDirectory</text>
</a>
</g>
</g>
<!-- Node150&#45;&gt;Node152 -->
<g id="edge2" class="edge">
<title>Node150&#45;&gt;Node152</title>
<path fill="none" stroke="#191970" d="M101.349,-21.7084C112.41,-20.1223 124.0774,-18.4493 135.0229,-16.8797"/>
<polygon fill="#191970" stroke="#191970" points="135.8505,-20.2969 145.2524,-15.4129 134.8569,-13.3678 135.8505,-20.2969"/>
</g>
</g>
</svg>
