<?xml version="1.0" encoding="UTF-8" standalone="no"?>
<!DOCTYPE svg PUBLIC "-//W3C//DTD SVG 1.1//EN"
 "http://www.w3.org/Graphics/SVG/1.1/DTD/svg11.dtd">
<!-- Generated by graphviz version 2.40.1 (20161225.0304)
 -->
<!-- Title: aesTester.c Pages: 1 -->
<svg width="335pt" height="140pt"
 viewBox="0.00 0.00 334.50 140.00" xmlns="http://www.w3.org/2000/svg" xmlns:xlink="http://www.w3.org/1999/xlink">
<g id="graph0" class="graph" transform="scale(1 1) rotate(0) translate(4 136)">
<title>aesTester.c</title>
<polygon fill="#ffffff" stroke="transparent" points="-4,4 -4,-136 330.5,-136 330.5,4 -4,4"/>
<!-- Node0 -->
<g id="node1" class="node">
<title>Node0</title>
<polygon fill="#bfbfbf" stroke="#000000" points="151,-112.5 151,-131.5 219,-131.5 219,-112.5 151,-112.5"/>
<text text-anchor="middle" x="185" y="-119.5" font-family="Helvetica,sans-Serif" font-size="10.00" fill="#000000">aesTester.c</text>
</g>
<!-- Node1 -->
<g id="node2" class="node">
<title>Node1</title>
<polygon fill="#ffffff" stroke="#bfbfbf" points="0,-.5 0,-19.5 46,-19.5 46,-.5 0,-.5"/>
<text text-anchor="middle" x="23" y="-7.5" font-family="Helvetica,sans-Serif" font-size="10.00" fill="#000000">stdio.h</text>
</g>
<!-- Node0&#45;&gt;Node1 -->
<g id="edge1" class="edge">
<title>Node0&#45;&gt;Node1</title>
<path fill="none" stroke="#191970" d="M168.571,-112.3501C153.3992,-103.3072 130.3538,-89.236 111,-76 87.2404,-59.751 60.9531,-39.7566 43.3511,-26.0602"/>
<polygon fill="#191970" stroke="#191970" points="45.0302,-22.93 34.9974,-19.525 40.7171,-28.4434 45.0302,-22.93"/>
</g>
<!-- Node2 -->
<g id="node3" class="node">
<title>Node2</title>
<g id="a_node3"><a xlink:href="$_a_e_s_8h.html" xlink:title="AES encryption and decryption module header file. This file contains the function headers for the fun...">
<polygon fill="#ffffff" stroke="#000000" points="137.5,-56.5 137.5,-75.5 182.5,-75.5 182.5,-56.5 137.5,-56.5"/>
<text text-anchor="middle" x="160" y="-63.5" font-family="Helvetica,sans-Serif" font-size="10.00" fill="#000000">AES.h</text>
</a>
</g>
</g>
<!-- Node0&#45;&gt;Node2 -->
<g id="edge2" class="edge">
<title>Node0&#45;&gt;Node2</title>
<path fill="none" stroke="#191970" d="M180.6453,-112.2455C177.2756,-104.6973 172.507,-94.0158 168.4017,-84.8197"/>
<polygon fill="#191970" stroke="#191970" points="171.5773,-83.3473 164.3048,-75.6427 165.1853,-86.2009 171.5773,-83.3473"/>
</g>
<!-- Node3 -->
<g id="node4" class="node">
<title>Node3</title>
<polygon fill="#ffffff" stroke="#bfbfbf" points="64.5,-.5 64.5,-19.5 113.5,-19.5 113.5,-.5 64.5,-.5"/>
<text text-anchor="middle" x="89" y="-7.5" font-family="Helvetica,sans-Serif" font-size="10.00" fill="#000000">stdint.h</text>
</g>
<!-- Node0&#45;&gt;Node3 -->
<g id="edge8" class="edge">
<title>Node0&#45;&gt;Node3</title>
<path fill="none" stroke="#191970" d="M170.1908,-112.2939C157.8987,-103.7436 140.4731,-90.4311 128,-76 115.5341,-61.5772 104.8088,-42.6324 97.7788,-28.7409"/>
<polygon fill="#191970" stroke="#191970" points="100.8749,-27.1049 93.3409,-19.6558 94.5852,-30.1773 100.8749,-27.1049"/>
</g>
<!-- Node4 -->
<g id="node5" class="node">
<title>Node4</title>
<polygon fill="#ffffff" stroke="#bfbfbf" points="206.5,-.5 206.5,-19.5 255.5,-19.5 255.5,-.5 206.5,-.5"/>
<text text-anchor="middle" x="231" y="-7.5" font-family="Helvetica,sans-Serif" font-size="10.00" fill="#000000">string.h</text>
</g>
<!-- Node0&#45;&gt;Node4 -->
<g id="edge9" class="edge">
<title>Node0&#45;&gt;Node4</title>
<path fill="none" stroke="#191970" d="M188.9219,-112.4509C196.4923,-94.0186 213.2467,-53.2254 223.1788,-29.043"/>
<polygon fill="#191970" stroke="#191970" points="226.5263,-30.1048 227.088,-19.5249 220.0512,-27.4454 226.5263,-30.1048"/>
</g>
<!-- Node5 -->
<g id="node6" class="node">
<title>Node5</title>
<polygon fill="#ffffff" stroke="#bfbfbf" points="274,-.5 274,-19.5 322,-19.5 322,-.5 274,-.5"/>
<text text-anchor="middle" x="298" y="-7.5" font-family="Helvetica,sans-Serif" font-size="10.00" fill="#000000">stdlib.h</text>
</g>
<!-- Node0&#45;&gt;Node5 -->
<g id="edge10" class="edge">
<title>Node0&#45;&gt;Node5</title>
<path fill="none" stroke="#191970" d="M194.6343,-112.4509C213.8149,-93.4401 256.9948,-50.6423 281.0338,-26.816"/>
<polygon fill="#191970" stroke="#191970" points="283.7515,-29.0503 288.3901,-19.5249 278.8238,-24.0786 283.7515,-29.0503"/>
</g>
<!-- Node7 -->
<g id="node8" class="node">
<title>Node7</title>
<polygon fill="#ffffff" stroke="#bfbfbf" points="277.5,-56.5 277.5,-75.5 326.5,-75.5 326.5,-56.5 277.5,-56.5"/>
<text text-anchor="middle" x="302" y="-63.5" font-family="Helvetica,sans-Serif" font-size="10.00" fill="#000000">ctype.h</text>
</g>
<!-- Node0&#45;&gt;Node7 -->
<g id="edge11" class="edge">
<title>Node0&#45;&gt;Node7</title>
<path fill="none" stroke="#191970" d="M205.113,-112.3733C223.8103,-103.4241 251.8744,-89.9917 272.9934,-79.8835"/>
<polygon fill="#191970" stroke="#191970" points="274.6405,-82.9755 282.1494,-75.5011 271.6183,-76.6614 274.6405,-82.9755"/>
</g>
<!-- Node2&#45;&gt;Node1 -->
<g id="edge3" class="edge">
<title>Node2&#45;&gt;Node1</title>
<path fill="none" stroke="#191970" d="M137.3772,-56.7527C115.1022,-47.6476 80.8487,-33.6462 55.6302,-23.3379"/>
<polygon fill="#191970" stroke="#191970" points="56.6952,-19.9921 46.1143,-19.4482 54.0465,-26.4717 56.6952,-19.9921"/>
</g>
<!-- Node2&#45;&gt;Node3 -->
<g id="edge4" class="edge">
<title>Node2&#45;&gt;Node3</title>
<path fill="none" stroke="#191970" d="M147.6327,-56.2455C137.0446,-47.8943 121.5936,-35.7076 109.2107,-25.9408"/>
<polygon fill="#191970" stroke="#191970" points="111.2447,-23.0875 101.2255,-19.6427 106.9097,-28.5837 111.2447,-23.0875"/>
</g>
<!-- Node2&#45;&gt;Node4 -->
<g id="edge5" class="edge">
<title>Node2&#45;&gt;Node4</title>
<path fill="none" stroke="#191970" d="M172.3673,-56.2455C182.9554,-47.8943 198.4064,-35.7076 210.7893,-25.9408"/>
<polygon fill="#191970" stroke="#191970" points="213.0903,-28.5837 218.7745,-19.6427 208.7553,-23.0875 213.0903,-28.5837"/>
</g>
<!-- Node2&#45;&gt;Node5 -->
<g id="edge6" class="edge">
<title>Node2&#45;&gt;Node5</title>
<path fill="none" stroke="#191970" d="M182.7879,-56.7527C205.0904,-47.7025 239.3138,-33.8147 264.6715,-23.5246"/>
<polygon fill="#191970" stroke="#191970" points="266.3024,-26.6401 274.2524,-19.6367 263.6702,-20.1538 266.3024,-26.6401"/>
</g>
<!-- Node6 -->
<g id="node7" class="node">
<title>Node6</title>
<polygon fill="#ffffff" stroke="#bfbfbf" points="132,-.5 132,-19.5 188,-19.5 188,-.5 132,-.5"/>
<text text-anchor="middle" x="160" y="-7.5" font-family="Helvetica,sans-Serif" font-size="10.00" fill="#000000">stdbool.h</text>
</g>
<!-- Node2&#45;&gt;Node6 -->
<g id="edge7" class="edge">
<title>Node2&#45;&gt;Node6</title>
<path fill="none" stroke="#191970" d="M160,-56.2455C160,-48.9382 160,-38.6944 160,-29.7046"/>
<polygon fill="#191970" stroke="#191970" points="163.5001,-29.6426 160,-19.6427 156.5001,-29.6427 163.5001,-29.6426"/>
</g>
</g>
</svg>
