<?xml version="1.0" encoding="UTF-8" standalone="no"?>
<!DOCTYPE svg PUBLIC "-//W3C//DTD SVG 1.1//EN"
 "http://www.w3.org/Graphics/SVG/1.1/DTD/svg11.dtd">
<!-- Generated by graphviz version 2.40.1 (20161225.0304)
 -->
<!-- Title: main Pages: 1 -->
<svg width="603pt" height="869pt"
 viewBox="0.00 0.00 603.00 869.09" xmlns="http://www.w3.org/2000/svg" xmlns:xlink="http://www.w3.org/1999/xlink">
<g id="graph0" class="graph" transform="scale(1 1) rotate(0) translate(4 865.0856)">
<title>main</title>
<polygon fill="#ffffff" stroke="transparent" points="-4,4 -4,-865.0856 599,-865.0856 599,4 -4,4"/>
<!-- Node0 -->
<g id="node1" class="node">
<title>Node0</title>
<polygon fill="#bfbfbf" stroke="#000000" points="0,-342.5 0,-361.5 38,-361.5 38,-342.5 0,-342.5"/>
<text text-anchor="middle" x="19" y="-349.5" font-family="Helvetica,sans-Serif" font-size="10.00" fill="#000000">main</text>
</g>
<!-- Node1 -->
<g id="node2" class="node">
<title>Node1</title>
<g id="a_node2"><a xlink:href="$_a_e_s_8c.html#acdf4abe2846c02b4d3e674782807fdfa" xlink:title="getSBoxValue &#45; Function to return the sBox value passed in as a parameter ">
<polygon fill="#ffffff" stroke="#000000" points="511,-703.5 511,-722.5 590,-722.5 590,-703.5 511,-703.5"/>
<text text-anchor="middle" x="550.5" y="-710.5" font-family="Helvetica,sans-Serif" font-size="10.00" fill="#000000">getSBoxValue</text>
</a>
</g>
</g>
<!-- Node0&#45;&gt;Node1 -->
<g id="edge1" class="edge">
<title>Node0&#45;&gt;Node1</title>
<path fill="none" stroke="#191970" d="M19.374,-342.3131C21.3276,-297.306 31.9409,-109.2743 74,-73 101.3127,-49.4438 429.9065,-31.5926 470,-67 518.2777,-109.635 544.4061,-588.553 549.5515,-692.9745"/>
<polygon fill="#191970" stroke="#191970" points="546.062,-693.2775 550.0418,-703.0964 553.0538,-692.9387 546.062,-693.2775"/>
</g>
<!-- Node2 -->
<g id="node3" class="node">
<title>Node2</title>
<g id="a_node3"><a xlink:href="$_a_e_s_8c.html#a1c2a403d95a85400bbae142d48cb8c9d" xlink:title="getNumRounds &#45; Function to return the number of rounds of AES encryption and decryption based off of ...">
<polygon fill="#ffffff" stroke="#000000" points="375,-627.5 375,-646.5 460,-646.5 460,-627.5 375,-627.5"/>
<text text-anchor="middle" x="417.5" y="-634.5" font-family="Helvetica,sans-Serif" font-size="10.00" fill="#000000">getNumRounds</text>
</a>
</g>
</g>
<!-- Node0&#45;&gt;Node2 -->
<g id="edge2" class="edge">
<title>Node0&#45;&gt;Node2</title>
<path fill="none" stroke="#191970" d="M19.7198,-361.819C24.1822,-421.6751 48.7061,-736.0188 74,-770 143.3409,-863.1561 231.0701,-889.4176 329,-827 329.9872,-826.3708 386.6324,-703.8528 408.7691,-655.9155"/>
<polygon fill="#191970" stroke="#191970" points="412.0349,-657.1917 413.049,-646.6455 405.6796,-654.2574 412.0349,-657.1917"/>
</g>
<!-- Node3 -->
<g id="node4" class="node">
<title>Node3</title>
<g id="a_node4"><a xlink:href="$_a_e_s_8c.html#a185c827e4ccbc8e4608e83dfbf9dfc8e" xlink:title="RijndaelKeySchedule &#45; Function that performs the Rijndael key scheduling for AES encryption. Takes in the original key passed in as parameter. ">
<polygon fill="#ffffff" stroke="#000000" points="210,-684.5 210,-703.5 320,-703.5 320,-684.5 210,-684.5"/>
<text text-anchor="middle" x="265" y="-691.5" font-family="Helvetica,sans-Serif" font-size="10.00" fill="#000000">RijndaelKeySchedule</text>
</a>
</g>
</g>
<!-- Node0&#45;&gt;Node3 -->
<g id="edge3" class="edge">
<title>Node0&#45;&gt;Node3</title>
<path fill="none" stroke="#191970" d="M20.4148,-361.5132C26.2416,-399.8087 49.2432,-542.429 74,-580 112.7846,-638.8595 138.0085,-643.3651 201,-675 205.5444,-677.2822 210.411,-679.3403 215.3559,-681.1839"/>
<polygon fill="#191970" stroke="#191970" points="214.3028,-684.5229 224.8975,-684.4677 216.5808,-677.904 214.3028,-684.5229"/>
</g>
<!-- Node8 -->
<g id="node9" class="node">
<title>Node8</title>
<g id="a_node9"><a xlink:href="$_a_e_s_8c.html#abeb4dba64fcf4d07eac178e732ca6aa8" xlink:title="ShiftRows &#45; Function to shift the state array according to the AES encryption standard for 128 &#45; bits...">
<polygon fill="#ffffff" stroke="#000000" points="234,-798.5 234,-817.5 296,-817.5 296,-798.5 234,-798.5"/>
<text text-anchor="middle" x="265" y="-805.5" font-family="Helvetica,sans-Serif" font-size="10.00" fill="#000000">ShiftRows</text>
</a>
</g>
</g>
<!-- Node0&#45;&gt;Node8 -->
<g id="edge11" class="edge">
<title>Node0&#45;&gt;Node8</title>
<path fill="none" stroke="#191970" d="M19.2327,-361.5742C20.6749,-413.9052 29.8406,-665.1992 74,-726 109.2163,-774.4875 179.1161,-794.5738 223.8828,-802.7025"/>
<polygon fill="#191970" stroke="#191970" points="223.4142,-806.1729 233.8584,-804.3922 224.5833,-799.2712 223.4142,-806.1729"/>
</g>
<!-- Node9 -->
<g id="node10" class="node">
<title>Node9</title>
<g id="a_node10"><a xlink:href="$_a_e_s_8c.html#aec40f89d2cbf831fd0d5d5f1bfa616f5" xlink:title="subBytes &#45; Function that performs the sub byte operation where each value is replaced by the s box va...">
<polygon fill="#ffffff" stroke="#000000" points="236,-722.5 236,-741.5 294,-741.5 294,-722.5 236,-722.5"/>
<text text-anchor="middle" x="265" y="-729.5" font-family="Helvetica,sans-Serif" font-size="10.00" fill="#000000">subBytes</text>
</a>
</g>
</g>
<!-- Node0&#45;&gt;Node9 -->
<g id="edge13" class="edge">
<title>Node0&#45;&gt;Node9</title>
<path fill="none" stroke="#191970" d="M19.8702,-361.588C23.9922,-405.3607 42.6697,-586.0572 74,-632 109.6068,-684.2137 181.3329,-711.0533 226.0428,-723.2762"/>
<polygon fill="#191970" stroke="#191970" points="225.409,-726.7281 235.9692,-725.8715 227.1797,-719.9557 225.409,-726.7281"/>
</g>
<!-- Node10 -->
<g id="node11" class="node">
<title>Node10</title>
<g id="a_node11"><a xlink:href="$_a_e_s_8c.html#aef4d8fc4282e3cc21708d25c0ec9ad06" xlink:title="AddRoundKey &#45; Function that performs the Bitwise XOR between state and key as per AES encryption...">
<polygon fill="#ffffff" stroke="#000000" points="225,-190.5 225,-209.5 305,-209.5 305,-190.5 225,-190.5"/>
<text text-anchor="middle" x="265" y="-197.5" font-family="Helvetica,sans-Serif" font-size="10.00" fill="#000000">AddRoundKey</text>
</a>
</g>
</g>
<!-- Node0&#45;&gt;Node10 -->
<g id="edge15" class="edge">
<title>Node0&#45;&gt;Node10</title>
<path fill="none" stroke="#191970" d="M30.6672,-342.1806C58.5735,-319.0674 131.9991,-260.4375 201,-224 208.6176,-219.9774 217.0613,-216.3062 225.25,-213.1108"/>
<polygon fill="#191970" stroke="#191970" points="226.5395,-216.3653 234.681,-209.5854 224.0885,-209.8084 226.5395,-216.3653"/>
</g>
<!-- Node11 -->
<g id="node12" class="node">
<title>Node11</title>
<g id="a_node12"><a xlink:href="$_a_e_s_8c.html#aca09b30896a351db6587639a1cc1bf0d" xlink:title="mixColumns &#45; Function that performs the MixColumns step of AES as specified by AES encryption...">
<polygon fill="#ffffff" stroke="#000000" points="229.5,-760.5 229.5,-779.5 300.5,-779.5 300.5,-760.5 229.5,-760.5"/>
<text text-anchor="middle" x="265" y="-767.5" font-family="Helvetica,sans-Serif" font-size="10.00" fill="#000000">mixColumns</text>
</a>
</g>
</g>
<!-- Node0&#45;&gt;Node11 -->
<g id="edge16" class="edge">
<title>Node0&#45;&gt;Node11</title>
<path fill="none" stroke="#191970" d="M19.5048,-361.611C22.2059,-409.9641 36.2653,-626.4198 74,-680 107.9475,-728.2027 174.6299,-751.3618 219.5152,-761.9189"/>
<polygon fill="#191970" stroke="#191970" points="218.7793,-765.3407 229.3016,-764.1033 220.3043,-758.5088 218.7793,-765.3407"/>
</g>
<!-- Node12 -->
<g id="node13" class="node">
<title>Node12</title>
<g id="a_node13"><a xlink:href="$_a_e_s_8c.html#a41cef4df290905c4d632ce1357d0a9bd" xlink:title="AESEncrypt &#45; Function to encrypt a single block of plaintext passed in as parameter &#160;plainText using ...">
<polygon fill="#ffffff" stroke="#000000" points="84,-551.5 84,-570.5 155,-570.5 155,-551.5 84,-551.5"/>
<text text-anchor="middle" x="119.5" y="-558.5" font-family="Helvetica,sans-Serif" font-size="10.00" fill="#000000">AESEncrypt</text>
</a>
</g>
</g>
<!-- Node0&#45;&gt;Node12 -->
<g id="edge17" class="edge">
<title>Node0&#45;&gt;Node12</title>
<path fill="none" stroke="#191970" d="M23.5794,-361.5234C39.0792,-393.7567 89.756,-499.1443 110.5121,-542.3088"/>
<polygon fill="#191970" stroke="#191970" points="107.4057,-543.9253 114.8937,-551.4207 113.7143,-540.8917 107.4057,-543.9253"/>
</g>
<!-- Node19 -->
<g id="node20" class="node">
<title>Node19</title>
<g id="a_node20"><a xlink:href="$_a_e_s_8c.html#a425f9b1e2cd595f2c45f129bc5d0a6d0" xlink:title="getInvSBox &#45; Function to return the inverse sBox value passed in as a parameter ">
<polygon fill="#ffffff" stroke="#000000" points="383.5,-247.5 383.5,-266.5 451.5,-266.5 451.5,-247.5 383.5,-247.5"/>
<text text-anchor="middle" x="417.5" y="-254.5" font-family="Helvetica,sans-Serif" font-size="10.00" fill="#000000">getInvSBox</text>
</a>
</g>
</g>
<!-- Node0&#45;&gt;Node19 -->
<g id="edge31" class="edge">
<title>Node0&#45;&gt;Node19</title>
<path fill="none" stroke="#191970" d="M20.967,-342.1801C27.6582,-309.6789 50.4347,-206.3423 74,-183 116.0436,-141.3543 142.5095,-151.9933 201,-143 257.2281,-134.3545 277.9072,-117.9825 329,-143 339.6554,-148.2174 382.989,-208.1186 404.8128,-238.9299"/>
<polygon fill="#191970" stroke="#191970" points="402.2102,-241.3123 410.8352,-247.4654 407.9298,-237.2767 402.2102,-241.3123"/>
</g>
<!-- Node20 -->
<g id="node21" class="node">
<title>Node20</title>
<g id="a_node21"><a xlink:href="$_a_e_s_8c.html#a903e34d08dd07be2e2d9618d4d489ee6" xlink:title="invShiftRows &#45; Function to shift the state array Inverse according to the AES encryption standard for...">
<polygon fill="#ffffff" stroke="#000000" points="227.5,-152.5 227.5,-171.5 302.5,-171.5 302.5,-152.5 227.5,-152.5"/>
<text text-anchor="middle" x="265" y="-159.5" font-family="Helvetica,sans-Serif" font-size="10.00" fill="#000000">invShiftRows</text>
</a>
</g>
</g>
<!-- Node0&#45;&gt;Node20 -->
<g id="edge32" class="edge">
<title>Node0&#45;&gt;Node20</title>
<path fill="none" stroke="#191970" d="M21.423,-342.4005C27.1637,-321.4233 43.4556,-270.9791 74,-241 113.5942,-202.1386 175.0275,-181.4026 217.4803,-171.073"/>
<polygon fill="#191970" stroke="#191970" points="218.358,-174.4623 227.3035,-168.7853 216.7702,-167.6447 218.358,-174.4623"/>
</g>
<!-- Node22 -->
<g id="node23" class="node">
<title>Node22</title>
<g id="a_node23"><a xlink:href="$_a_e_s_8c.html#a9de891875f23dd3dff8fe3f8e10ba3ad" xlink:title="invMixColumns &#45; Function that does the inverse of the Mix Column Step for AES Encryption. Performs the gallois field multiplication and the required XOR to the state passed in as a paramter ">
<polygon fill="#ffffff" stroke="#000000" points="223,-76.5 223,-95.5 307,-95.5 307,-76.5 223,-76.5"/>
<text text-anchor="middle" x="265" y="-83.5" font-family="Helvetica,sans-Serif" font-size="10.00" fill="#000000">invMixColumns</text>
</a>
</g>
</g>
<!-- Node0&#45;&gt;Node22 -->
<g id="edge34" class="edge">
<title>Node0&#45;&gt;Node22</title>
<path fill="none" stroke="#191970" d="M19.7542,-342.3058C23.1563,-301.2313 38.4796,-142.1841 74,-110 111.0653,-76.4161 170.071,-73.8968 212.6961,-77.5985"/>
<polygon fill="#191970" stroke="#191970" points="212.5832,-81.1049 222.8842,-78.6272 213.2864,-74.1403 212.5832,-81.1049"/>
</g>
<!-- Node24 -->
<g id="node25" class="node">
<title>Node24</title>
<g id="a_node25"><a xlink:href="$_a_e_s_8c.html#ab51c63e6483f94f12bbc9b256374ec64" xlink:title="AESDecrypt &#45; Function to decrypt a single block of ciphertext passed in as parameter &#160;cipherText usin...">
<polygon fill="#ffffff" stroke="#000000" points="84,-342.5 84,-361.5 155,-361.5 155,-342.5 84,-342.5"/>
<text text-anchor="middle" x="119.5" y="-349.5" font-family="Helvetica,sans-Serif" font-size="10.00" fill="#000000">AESDecrypt</text>
</a>
</g>
</g>
<!-- Node0&#45;&gt;Node24 -->
<g id="edge36" class="edge">
<title>Node0&#45;&gt;Node24</title>
<path fill="none" stroke="#191970" d="M38.3774,-352C48.4484,-352 61.2206,-352 73.6334,-352"/>
<polygon fill="#191970" stroke="#191970" points="73.9084,-355.5001 83.9083,-352 73.9083,-348.5001 73.9084,-355.5001"/>
</g>
<!-- Node27 -->
<g id="node28" class="node">
<title>Node27</title>
<g id="a_node28"><a xlink:href="$_a_e_s_8c.html#ad697cbb5d9e462b3017df1f1d939ee96" xlink:title="hexToAsciiString &#45; Function that converts a given string of hex values into its ASCII equivalent...">
<polygon fill="#ffffff" stroke="#000000" points="74,-.5 74,-19.5 165,-19.5 165,-.5 74,-.5"/>
<text text-anchor="middle" x="119.5" y="-7.5" font-family="Helvetica,sans-Serif" font-size="10.00" fill="#000000">hexToAsciiString</text>
</a>
</g>
</g>
<!-- Node0&#45;&gt;Node27 -->
<g id="edge51" class="edge">
<title>Node0&#45;&gt;Node27</title>
<path fill="none" stroke="#191970" d="M19.5369,-342.35C22.3497,-294.7643 36.7031,-85.3328 74,-34 76.4115,-30.681 79.4227,-27.7803 82.7406,-25.2547"/>
<polygon fill="#191970" stroke="#191970" points="84.8859,-28.0386 91.4533,-19.7247 81.1347,-22.1285 84.8859,-28.0386"/>
</g>
<!-- Node3&#45;&gt;Node1 -->
<g id="edge10" class="edge">
<title>Node3&#45;&gt;Node1</title>
<path fill="none" stroke="#191970" d="M320.0473,-697.6634C372.347,-701.1439 450.2897,-706.331 500.7608,-709.6899"/>
<polygon fill="#191970" stroke="#191970" points="500.5733,-713.185 510.7837,-710.3569 501.0382,-706.2005 500.5733,-713.185"/>
</g>
<!-- Node3&#45;&gt;Node2 -->
<g id="edge4" class="edge">
<title>Node3&#45;&gt;Node2</title>
<path fill="none" stroke="#191970" d="M299.7844,-684.4775C309.3283,-681.6473 319.6266,-678.3906 329,-675 348.8478,-667.8206 370.639,-658.4825 387.6317,-650.86"/>
<polygon fill="#191970" stroke="#191970" points="389.3681,-653.9158 397.0312,-646.5996 386.4782,-647.5401 389.3681,-653.9158"/>
</g>
<!-- Node4 -->
<g id="node5" class="node">
<title>Node4</title>
<g id="a_node5"><a xlink:href="$_a_e_s_8c.html#a0e0b199ded54d7fb53a3bda3fcc02256" xlink:title="validateNumRounds &#45; Function that validates the number of rounds that have been passed in by the ...">
<polygon fill="#ffffff" stroke="#000000" points="365,-570.5 365,-589.5 470,-589.5 470,-570.5 365,-570.5"/>
<text text-anchor="middle" x="417.5" y="-577.5" font-family="Helvetica,sans-Serif" font-size="10.00" fill="#000000">validateNumRounds</text>
</a>
</g>
</g>
<!-- Node3&#45;&gt;Node4 -->
<g id="edge5" class="edge">
<title>Node3&#45;&gt;Node4</title>
<path fill="none" stroke="#191970" d="M312.0076,-684.3705C318.065,-681.9194 323.9176,-678.8479 329,-675 352.8886,-656.9138 344.4931,-639.8459 365,-618 373.0533,-609.4209 383.288,-601.5097 392.578,-595.1523"/>
<polygon fill="#191970" stroke="#191970" points="394.6546,-597.9759 401.0934,-589.5621 390.813,-592.1242 394.6546,-597.9759"/>
</g>
<!-- Node5 -->
<g id="node6" class="node">
<title>Node5</title>
<g id="a_node6"><a xlink:href="$_a_e_s_8c.html#af2f914cf17729a0ee89102c98b39665e" xlink:title="KeyScheduleCore &#45; Function that performs the key schedule core for the Rijndael Key Schedule...">
<polygon fill="#ffffff" stroke="#000000" points="370,-760.5 370,-779.5 465,-779.5 465,-760.5 370,-760.5"/>
<text text-anchor="middle" x="417.5" y="-767.5" font-family="Helvetica,sans-Serif" font-size="10.00" fill="#000000">KeyScheduleCore</text>
</a>
</g>
</g>
<!-- Node3&#45;&gt;Node5 -->
<g id="edge6" class="edge">
<title>Node3&#45;&gt;Node5</title>
<path fill="none" stroke="#191970" d="M303.554,-703.5197C312.1018,-706.1572 320.9946,-709.3248 329,-713 353.7512,-724.3631 379.6756,-741.8122 397.02,-754.4111"/>
<polygon fill="#191970" stroke="#191970" points="395.1343,-757.3696 405.2563,-760.4995 399.2954,-751.7406 395.1343,-757.3696"/>
</g>
<!-- Node5&#45;&gt;Node1 -->
<g id="edge8" class="edge">
<title>Node5&#45;&gt;Node1</title>
<path fill="none" stroke="#191970" d="M439.7612,-760.4595C461.4352,-751.1706 494.5835,-736.9642 518.9667,-726.5143"/>
<polygon fill="#191970" stroke="#191970" points="520.3534,-729.7279 528.1662,-722.5716 517.596,-723.2939 520.3534,-729.7279"/>
</g>
<!-- Node6 -->
<g id="node7" class="node">
<title>Node6</title>
<g id="a_node7"><a xlink:href="$_a_e_s_8c.html#ac769b0533ccecd203cc3ab64e6b2f950" xlink:title="SingleRotateLeft &#45; Function to rotate the array passed in as a paramter. ">
<polygon fill="#ffffff" stroke="#000000" points="506,-798.5 506,-817.5 595,-817.5 595,-798.5 506,-798.5"/>
<text text-anchor="middle" x="550.5" y="-805.5" font-family="Helvetica,sans-Serif" font-size="10.00" fill="#000000">SingleRotateLeft</text>
</a>
</g>
</g>
<!-- Node5&#45;&gt;Node6 -->
<g id="edge7" class="edge">
<title>Node5&#45;&gt;Node6</title>
<path fill="none" stroke="#191970" d="M451.0615,-779.589C468.073,-784.4494 488.9319,-790.4091 507.1446,-795.6127"/>
<polygon fill="#191970" stroke="#191970" points="506.3724,-799.0321 516.9492,-798.4141 508.2955,-792.3014 506.3724,-799.0321"/>
</g>
<!-- Node7 -->
<g id="node8" class="node">
<title>Node7</title>
<g id="a_node8"><a xlink:href="$_a_e_s_8c.html#a4e58d2e928429bc56387394251b8ece5" xlink:title="getRconValue &#45; Function to return the Rcon value for the index passed in as a parameter ...">
<polygon fill="#ffffff" stroke="#000000" points="511.5,-760.5 511.5,-779.5 589.5,-779.5 589.5,-760.5 511.5,-760.5"/>
<text text-anchor="middle" x="550.5" y="-767.5" font-family="Helvetica,sans-Serif" font-size="10.00" fill="#000000">getRconValue</text>
</a>
</g>
</g>
<!-- Node5&#45;&gt;Node7 -->
<g id="edge9" class="edge">
<title>Node5&#45;&gt;Node7</title>
<path fill="none" stroke="#191970" d="M465.1404,-770C476.7856,-770 489.272,-770 501.0019,-770"/>
<polygon fill="#191970" stroke="#191970" points="501.0751,-773.5001 511.0751,-770 501.0751,-766.5001 501.0751,-773.5001"/>
</g>
<!-- Node8&#45;&gt;Node6 -->
<g id="edge12" class="edge">
<title>Node8&#45;&gt;Node6</title>
<path fill="none" stroke="#191970" d="M296.097,-808C343.951,-808 436.3113,-808 495.5973,-808"/>
<polygon fill="#191970" stroke="#191970" points="495.9017,-811.5001 505.9017,-808 495.9016,-804.5001 495.9017,-811.5001"/>
</g>
<!-- Node9&#45;&gt;Node1 -->
<g id="edge14" class="edge">
<title>Node9&#45;&gt;Node1</title>
<path fill="none" stroke="#191970" d="M294.2118,-730.056C342.7445,-726.8261 440.5506,-720.3171 500.3102,-716.3401"/>
<polygon fill="#191970" stroke="#191970" points="500.8985,-719.8088 510.644,-715.6524 500.4337,-712.8243 500.8985,-719.8088"/>
</g>
<!-- Node12&#45;&gt;Node2 -->
<g id="edge19" class="edge">
<title>Node12&#45;&gt;Node2</title>
<path fill="none" stroke="#191970" d="M152.342,-570.5508C167.1728,-574.7909 184.9348,-579.7681 201,-584 257.587,-598.9062 322.8656,-614.6955 366.8223,-625.1233"/>
<polygon fill="#191970" stroke="#191970" points="366.1546,-628.5619 376.6919,-627.4596 367.7671,-621.7502 366.1546,-628.5619"/>
</g>
<!-- Node12&#45;&gt;Node3 -->
<g id="edge24" class="edge">
<title>Node12&#45;&gt;Node3</title>
<path fill="none" stroke="#191970" d="M139.1231,-570.5485C147.9574,-575.6308 157.9596,-582.5798 165,-591 191.0541,-622.1603 170.6584,-647.9969 201,-675 202.7587,-676.5652 204.6412,-678.0016 206.6168,-679.3198"/>
<polygon fill="#191970" stroke="#191970" points="205.3335,-682.6091 215.78,-684.3755 208.7151,-676.4801 205.3335,-682.6091"/>
</g>
<!-- Node12&#45;&gt;Node4 -->
<g id="edge20" class="edge">
<title>Node12&#45;&gt;Node4</title>
<path fill="none" stroke="#191970" d="M155.1498,-563.273C204.3656,-566.4109 293.9034,-572.1197 354.5323,-575.9853"/>
<polygon fill="#191970" stroke="#191970" points="354.5486,-579.4933 364.7511,-576.6368 354.9941,-572.5075 354.5486,-579.4933"/>
</g>
<!-- Node12&#45;&gt;Node8 -->
<g id="edge28" class="edge">
<title>Node12&#45;&gt;Node8</title>
<path fill="none" stroke="#191970" d="M119.9861,-570.896C122.2576,-606.0694 134.7585,-726.2872 201,-789 207.352,-795.0137 215.521,-799.1329 223.8835,-801.952"/>
<polygon fill="#191970" stroke="#191970" points="223.1186,-805.3724 233.6921,-804.6999 225.007,-798.6319 223.1186,-805.3724"/>
</g>
<!-- Node12&#45;&gt;Node9 -->
<g id="edge27" class="edge">
<title>Node12&#45;&gt;Node9</title>
<path fill="none" stroke="#191970" d="M121.9285,-570.8786C129.0898,-597.9051 152.7133,-673.6637 201,-713 208.1818,-718.8506 217.1172,-722.9 226.0112,-725.7026"/>
<polygon fill="#191970" stroke="#191970" points="225.3742,-729.1554 235.9396,-728.3666 227.1884,-722.3946 225.3742,-729.1554"/>
</g>
<!-- Node12&#45;&gt;Node10 -->
<g id="edge26" class="edge">
<title>Node12&#45;&gt;Node10</title>
<path fill="none" stroke="#191970" d="M121.774,-551.1966C133.2315,-502.0061 184.7244,-283.3944 201,-257 211.1859,-240.4814 227.6057,-225.9988 241.2632,-215.7655"/>
<polygon fill="#191970" stroke="#191970" points="243.6636,-218.3508 249.7459,-209.6757 239.5813,-212.6644 243.6636,-218.3508"/>
</g>
<!-- Node12&#45;&gt;Node11 -->
<g id="edge29" class="edge">
<title>Node12&#45;&gt;Node11</title>
<path fill="none" stroke="#191970" d="M120.7274,-570.5416C125.2187,-601.477 143.6139,-699.9444 201,-751 206.2944,-755.7103 212.7104,-759.2545 219.4103,-761.9208"/>
<polygon fill="#191970" stroke="#191970" points="218.7383,-765.3863 229.332,-765.2328 220.9548,-758.7465 218.7383,-765.3863"/>
</g>
<!-- Node13 -->
<g id="node14" class="node">
<title>Node13</title>
<g id="a_node14"><a xlink:href="$_a_e_s_8c.html#a5d65eac115e562c64b00a43e72ee6aca" xlink:title="getPaddedKeyLength &#45; Function to return a valid key length (in bytes) based off of the current key le...">
<polygon fill="#ffffff" stroke="#000000" points="210,-418.5 210,-437.5 320,-437.5 320,-418.5 210,-418.5"/>
<text text-anchor="middle" x="265" y="-425.5" font-family="Helvetica,sans-Serif" font-size="10.00" fill="#000000">getPaddedKeyLength</text>
</a>
</g>
</g>
<!-- Node12&#45;&gt;Node13 -->
<g id="edge18" class="edge">
<title>Node12&#45;&gt;Node13</title>
<path fill="none" stroke="#191970" d="M123.6554,-551.406C133.6482,-529.4757 161.1817,-475.3882 201,-447 203.8224,-444.9878 206.8588,-443.1864 210.0207,-441.5741"/>
<polygon fill="#191970" stroke="#191970" points="211.4644,-444.7627 219.1902,-437.5126 208.6294,-438.3624 211.4644,-444.7627"/>
</g>
<!-- Node14 -->
<g id="node15" class="node">
<title>Node14</title>
<g id="a_node15"><a xlink:href="$_a_e_s_8c.html#acefcd728377e1e14187fa8fcd20f4064" xlink:title="validatePlainTextLength &#45; Function that validates the length of the plaintext. The validation is done...">
<polygon fill="#ffffff" stroke="#000000" points="204.5,-646.5 204.5,-665.5 325.5,-665.5 325.5,-646.5 204.5,-646.5"/>
<text text-anchor="middle" x="265" y="-653.5" font-family="Helvetica,sans-Serif" font-size="10.00" fill="#000000">validatePlainTextLength</text>
</a>
</g>
</g>
<!-- Node12&#45;&gt;Node14 -->
<g id="edge21" class="edge">
<title>Node12&#45;&gt;Node14</title>
<path fill="none" stroke="#191970" d="M136.2596,-570.5565C145.2013,-576.0145 156.1529,-583.2939 165,-591 183.2857,-606.9274 181.0477,-618.2175 201,-632 207.0413,-636.1732 213.901,-639.7311 220.8306,-642.7273"/>
<polygon fill="#191970" stroke="#191970" points="219.6673,-646.0312 230.2531,-646.4701 222.2515,-639.5256 219.6673,-646.0312"/>
</g>
<!-- Node15 -->
<g id="node16" class="node">
<title>Node15</title>
<g id="a_node16"><a xlink:href="$_a_e_s_8c.html#a1c1a633a58f7328faa397db9e45e7e0c" xlink:title="constructStateArray &#45; Function to convert the state array from a flat 1D array to a multidimensional ...">
<polygon fill="#ffffff" stroke="#000000" points="213,-380.5 213,-399.5 317,-399.5 317,-380.5 213,-380.5"/>
<text text-anchor="middle" x="265" y="-387.5" font-family="Helvetica,sans-Serif" font-size="10.00" fill="#000000">constructStateArray</text>
</a>
</g>
</g>
<!-- Node12&#45;&gt;Node15 -->
<g id="edge22" class="edge">
<title>Node12&#45;&gt;Node15</title>
<path fill="none" stroke="#191970" d="M121.9285,-551.1214C129.0898,-524.0949 152.7133,-448.3363 201,-409 203.1581,-407.242 205.4744,-405.6466 207.9005,-404.1987"/>
<polygon fill="#191970" stroke="#191970" points="209.7219,-407.2002 217.0778,-399.5752 206.5724,-400.9488 209.7219,-407.2002"/>
</g>
<!-- Node16 -->
<g id="node17" class="node">
<title>Node16</title>
<g id="a_node17"><a xlink:href="$_a_e_s_8c.html#ae9af90db32afa65125a7eec339ed9d58" xlink:title="printStateArray &#45; Function to print the state array to the terminal in hex format. ">
<polygon fill="#ffffff" stroke="#000000" points="224,-532.5 224,-551.5 306,-551.5 306,-532.5 224,-532.5"/>
<text text-anchor="middle" x="265" y="-539.5" font-family="Helvetica,sans-Serif" font-size="10.00" fill="#000000">printStateArray</text>
</a>
</g>
</g>
<!-- Node12&#45;&gt;Node16 -->
<g id="edge23" class="edge">
<title>Node12&#45;&gt;Node16</title>
<path fill="none" stroke="#191970" d="M155.0933,-556.3521C172.7891,-554.0413 194.4942,-551.2069 213.928,-548.6692"/>
<polygon fill="#191970" stroke="#191970" points="214.3877,-552.139 223.8503,-547.3735 213.4812,-545.1979 214.3877,-552.139"/>
</g>
<!-- Node17 -->
<g id="node18" class="node">
<title>Node17</title>
<g id="a_node18"><a xlink:href="$_a_e_s_8c.html#abe15a731f43315f6f595674d3cd62d57" xlink:title="getRoundKey &#45; Function to extract the correct sub&#45;key to use for the appropriate round specified by ...">
<polygon fill="#ffffff" stroke="#000000" points="227,-494.5 227,-513.5 303,-513.5 303,-494.5 227,-494.5"/>
<text text-anchor="middle" x="265" y="-501.5" font-family="Helvetica,sans-Serif" font-size="10.00" fill="#000000">getRoundKey</text>
</a>
</g>
</g>
<!-- Node12&#45;&gt;Node17 -->
<g id="edge25" class="edge">
<title>Node12&#45;&gt;Node17</title>
<path fill="none" stroke="#191970" d="M137.9376,-551.4468C154.2401,-543.2325 178.8118,-531.4136 201,-523 206.9741,-520.7347 213.343,-518.5639 219.6595,-516.5521"/>
<polygon fill="#191970" stroke="#191970" points="220.9499,-519.8171 229.4782,-513.5307 218.8911,-513.1267 220.9499,-519.8171"/>
</g>
<!-- Node18 -->
<g id="node19" class="node">
<title>Node18</title>
<g id="a_node19"><a xlink:href="$_a_e_s_8c.html#aaba2e1b9466483b3c6b8669eb42aa5ed" xlink:title="printAESBlock &#45; Function to print a single block in hex format to the terminal. ">
<polygon fill="#ffffff" stroke="#000000" points="225,-456.5 225,-475.5 305,-475.5 305,-456.5 225,-456.5"/>
<text text-anchor="middle" x="265" y="-463.5" font-family="Helvetica,sans-Serif" font-size="10.00" fill="#000000">printAESBlock</text>
</a>
</g>
</g>
<!-- Node12&#45;&gt;Node18 -->
<g id="edge30" class="edge">
<title>Node12&#45;&gt;Node18</title>
<path fill="none" stroke="#191970" d="M127.2262,-551.3274C140.5838,-535.235 169.5954,-502.9619 201,-485 205.4756,-482.4402 210.3282,-480.1963 215.2918,-478.2358"/>
<polygon fill="#191970" stroke="#191970" points="216.6612,-481.4634 224.9036,-474.8065 214.3089,-474.8704 216.6612,-481.4634"/>
</g>
<!-- Node21 -->
<g id="node22" class="node">
<title>Node21</title>
<g id="a_node22"><a xlink:href="$_a_e_s_8c.html#a4fc33ada95d0d2aaea28086aefe173bb" xlink:title="SingleRotateRight &#45; Function to rotate the array passed in as a paramter. ">
<polygon fill="#ffffff" stroke="#000000" points="369.5,-152.5 369.5,-171.5 465.5,-171.5 465.5,-152.5 369.5,-152.5"/>
<text text-anchor="middle" x="417.5" y="-159.5" font-family="Helvetica,sans-Serif" font-size="10.00" fill="#000000">SingleRotateRight</text>
</a>
</g>
</g>
<!-- Node20&#45;&gt;Node21 -->
<g id="edge33" class="edge">
<title>Node20&#45;&gt;Node21</title>
<path fill="none" stroke="#191970" d="M302.6966,-162C319.7431,-162 340.2782,-162 359.2394,-162"/>
<polygon fill="#191970" stroke="#191970" points="359.2808,-165.5001 369.2808,-162 359.2807,-158.5001 359.2808,-165.5001"/>
</g>
<!-- Node23 -->
<g id="node24" class="node">
<title>Node23</title>
<g id="a_node24"><a xlink:href="$_a_e_s_8c.html#a7dbbb13c3ab5608765b6d368eb9f4fe1" xlink:title="galloisFieldMult &#45; Function to perform the Galois field multiplication operation required for the inv...">
<polygon fill="#ffffff" stroke="#000000" points="375.5,-76.5 375.5,-95.5 459.5,-95.5 459.5,-76.5 375.5,-76.5"/>
<text text-anchor="middle" x="417.5" y="-83.5" font-family="Helvetica,sans-Serif" font-size="10.00" fill="#000000">galloisFieldMult</text>
</a>
</g>
</g>
<!-- Node22&#45;&gt;Node23 -->
<g id="edge35" class="edge">
<title>Node22&#45;&gt;Node23</title>
<path fill="none" stroke="#191970" d="M307.075,-86C325.0022,-86 346.1073,-86 365.0383,-86"/>
<polygon fill="#191970" stroke="#191970" points="365.2979,-89.5001 375.2979,-86 365.2978,-82.5001 365.2979,-89.5001"/>
</g>
<!-- Node24&#45;&gt;Node2 -->
<g id="edge38" class="edge">
<title>Node24&#45;&gt;Node2</title>
<path fill="none" stroke="#191970" d="M126.1871,-342.3259C141.8435,-320.0161 181.058,-266.1668 201,-257 252.6894,-233.2398 286.7203,-218.9372 329,-257 385.7951,-308.1304 326.7256,-532.8557 365,-599 370.4522,-608.4222 379.2819,-616.1501 388.1574,-622.1186"/>
<polygon fill="#191970" stroke="#191970" points="386.571,-625.2515 396.9249,-627.4982 390.2319,-619.2851 386.571,-625.2515"/>
</g>
<!-- Node24&#45;&gt;Node3 -->
<g id="edge43" class="edge">
<title>Node24&#45;&gt;Node3</title>
<path fill="none" stroke="#191970" d="M121.8373,-361.8216C134.576,-415.2799 195.2694,-669.027 201,-675 202.3842,-676.4427 203.8724,-677.7773 205.4443,-679.0117"/>
<polygon fill="#191970" stroke="#191970" points="203.59,-681.9802 213.908,-684.3866 207.3427,-676.0711 203.59,-681.9802"/>
</g>
<!-- Node24&#45;&gt;Node4 -->
<g id="edge39" class="edge">
<title>Node24&#45;&gt;Node4</title>
<path fill="none" stroke="#191970" d="M155.1912,-344.9528C200.2298,-338.1751 277.9608,-333.7597 329,-371 392.2728,-417.1665 410.6438,-517.6456 415.6954,-560.2597"/>
<polygon fill="#191970" stroke="#191970" points="412.2392,-560.8596 416.7733,-570.4352 419.2003,-560.1221 412.2392,-560.8596"/>
</g>
<!-- Node24&#45;&gt;Node10 -->
<g id="edge45" class="edge">
<title>Node24&#45;&gt;Node10</title>
<path fill="none" stroke="#191970" d="M129.0542,-342.4638C138.8915,-332.304 154.2589,-315.4495 165,-299 185.2153,-268.0411 173.7211,-248.9594 201,-224 205.3747,-219.9972 210.48,-216.6427 215.864,-213.8358"/>
<polygon fill="#191970" stroke="#191970" points="217.4676,-216.9512 225.1081,-209.6114 214.5581,-210.5845 217.4676,-216.9512"/>
</g>
<!-- Node24&#45;&gt;Node13 -->
<g id="edge37" class="edge">
<title>Node24&#45;&gt;Node13</title>
<path fill="none" stroke="#191970" d="M130.6405,-361.5653C145.6928,-374.0563 173.7846,-395.8719 201,-409 205.7075,-411.2708 210.7423,-413.3311 215.8431,-415.1847"/>
<polygon fill="#191970" stroke="#191970" points="215.0708,-418.6177 225.6649,-418.4953 217.3067,-411.9844 215.0708,-418.6177"/>
</g>
<!-- Node24&#45;&gt;Node15 -->
<g id="edge41" class="edge">
<title>Node24&#45;&gt;Node15</title>
<path fill="none" stroke="#191970" d="M155.0933,-361.2958C174.2528,-366.2997 198.1124,-372.5311 218.7003,-377.908"/>
<polygon fill="#191970" stroke="#191970" points="217.9495,-381.3292 228.5094,-380.4698 219.7184,-374.5564 217.9495,-381.3292"/>
</g>
<!-- Node24&#45;&gt;Node16 -->
<g id="edge42" class="edge">
<title>Node24&#45;&gt;Node16</title>
<path fill="none" stroke="#191970" d="M121.2802,-361.8139C127.0908,-390.9815 148.2548,-477.9099 201,-523 204.9728,-526.3962 209.5317,-529.1854 214.3471,-531.4762"/>
<polygon fill="#191970" stroke="#191970" points="213.2531,-534.8087 223.8367,-535.2956 215.8667,-528.3149 213.2531,-534.8087"/>
</g>
<!-- Node24&#45;&gt;Node17 -->
<g id="edge44" class="edge">
<title>Node24&#45;&gt;Node17</title>
<path fill="none" stroke="#191970" d="M122.6722,-361.7069C131.1937,-386.2428 156.9672,-451.1907 201,-485 205.8292,-488.708 211.3714,-491.6943 217.1306,-494.0989"/>
<polygon fill="#191970" stroke="#191970" points="216.3457,-497.5358 226.9402,-497.6212 218.7114,-490.9476 216.3457,-497.5358"/>
</g>
<!-- Node24&#45;&gt;Node18 -->
<g id="edge50" class="edge">
<title>Node24&#45;&gt;Node18</title>
<path fill="none" stroke="#191970" d="M125.1204,-361.6849C136.7673,-380.8944 165.4431,-423.9493 201,-447 205.3856,-449.8431 210.212,-452.2741 215.1878,-454.35"/>
<polygon fill="#191970" stroke="#191970" points="214.2707,-457.7422 224.864,-457.9193 216.6933,-451.1747 214.2707,-457.7422"/>
</g>
<!-- Node24&#45;&gt;Node20 -->
<g id="edge46" class="edge">
<title>Node24&#45;&gt;Node20</title>
<path fill="none" stroke="#191970" d="M122.8701,-342.4706C134.5423,-309.9496 174.0025,-204.0793 201,-181 205.8565,-176.8483 211.589,-173.6037 217.5951,-171.0679"/>
<polygon fill="#191970" stroke="#191970" points="218.9375,-174.3049 227.1719,-167.6381 216.5773,-167.7147 218.9375,-174.3049"/>
</g>
<!-- Node24&#45;&gt;Node22 -->
<g id="edge49" class="edge">
<title>Node24&#45;&gt;Node22</title>
<path fill="none" stroke="#191970" d="M121.5197,-342.4951C128.4382,-311.5017 153.4257,-211.4321 201,-143 212.217,-126.8652 228.894,-112.2076 242.412,-101.7973"/>
<polygon fill="#191970" stroke="#191970" points="244.8142,-104.3727 250.75,-95.5968 240.637,-98.7556 244.8142,-104.3727"/>
</g>
<!-- Node25 -->
<g id="node26" class="node">
<title>Node25</title>
<g id="a_node26"><a xlink:href="$_a_e_s_8c.html#ae01a1e7833d53f19b534e37ace03a691" xlink:title="validateCipherTextLength &#45; Function that validates the length of the ciphertext. The validation is do...">
<polygon fill="#ffffff" stroke="#000000" points="201,-266.5 201,-285.5 329,-285.5 329,-266.5 201,-266.5"/>
<text text-anchor="middle" x="265" y="-273.5" font-family="Helvetica,sans-Serif" font-size="10.00" fill="#000000">validateCipherTextLength</text>
</a>
</g>
</g>
<!-- Node24&#45;&gt;Node25 -->
<g id="edge40" class="edge">
<title>Node24&#45;&gt;Node25</title>
<path fill="none" stroke="#191970" d="M130.6405,-342.4347C145.6928,-329.9437 173.7846,-308.1281 201,-295 205.7075,-292.7292 210.7423,-290.6689 215.8431,-288.8153"/>
<polygon fill="#191970" stroke="#191970" points="217.3067,-292.0156 225.6649,-285.5047 215.0708,-285.3823 217.3067,-292.0156"/>
</g>
<!-- Node26 -->
<g id="node27" class="node">
<title>Node26</title>
<g id="a_node27"><a xlink:href="$_a_e_s_8c.html#a8e72edc1f652f8626aacd2781303c86b" xlink:title="invSubBytes &#45; Function that performs the inverse of Function subBytes ">
<polygon fill="#ffffff" stroke="#000000" points="229,-304.5 229,-323.5 301,-323.5 301,-304.5 229,-304.5"/>
<text text-anchor="middle" x="265" y="-311.5" font-family="Helvetica,sans-Serif" font-size="10.00" fill="#000000">invSubBytes</text>
</a>
</g>
</g>
<!-- Node24&#45;&gt;Node26 -->
<g id="edge47" class="edge">
<title>Node24&#45;&gt;Node26</title>
<path fill="none" stroke="#191970" d="M155.0933,-342.7042C174.3251,-337.6814 198.2925,-331.4219 218.9333,-326.0312"/>
<polygon fill="#191970" stroke="#191970" points="219.9724,-329.3773 228.7634,-323.4638 218.2035,-322.6044 219.9724,-329.3773"/>
</g>
<!-- Node26&#45;&gt;Node19 -->
<g id="edge48" class="edge">
<title>Node26&#45;&gt;Node19</title>
<path fill="none" stroke="#191970" d="M299.7844,-304.4775C309.3283,-301.6473 319.6266,-298.3906 329,-295 348.8478,-287.8206 370.639,-278.4825 387.6317,-270.86"/>
<polygon fill="#191970" stroke="#191970" points="389.3681,-273.9158 397.0312,-266.5996 386.4782,-267.5401 389.3681,-273.9158"/>
</g>
<!-- Node28 -->
<g id="node29" class="node">
<title>Node28</title>
<g id="a_node29"><a xlink:href="$_a_e_s_8c.html#aa177516503b10de65b504a3714073ad7" xlink:title="hexToAscii &#45; Function that converts a given hex value to its ASCII equivalent. ">
<polygon fill="#ffffff" stroke="#000000" points="232.5,-.5 232.5,-19.5 297.5,-19.5 297.5,-.5 232.5,-.5"/>
<text text-anchor="middle" x="265" y="-7.5" font-family="Helvetica,sans-Serif" font-size="10.00" fill="#000000">hexToAscii</text>
</a>
</g>
</g>
<!-- Node27&#45;&gt;Node28 -->
<g id="edge52" class="edge">
<title>Node27&#45;&gt;Node28</title>
<path fill="none" stroke="#191970" d="M165.1379,-10C183.3908,-10 204.3008,-10 222.2548,-10"/>
<polygon fill="#191970" stroke="#191970" points="222.4418,-13.5001 232.4418,-10 222.4418,-6.5001 222.4418,-13.5001"/>
</g>
<!-- Node29 -->
<g id="node30" class="node">
<title>Node29</title>
<g id="a_node30"><a xlink:href="$_a_e_s_8c.html#a7e5ab2188af44718071074f450963568" xlink:title="hexToInt &#45; Function that converts a given hex value into an integer. ">
<polygon fill="#ffffff" stroke="#000000" points="390,-.5 390,-19.5 445,-19.5 445,-.5 390,-.5"/>
<text text-anchor="middle" x="417.5" y="-7.5" font-family="Helvetica,sans-Serif" font-size="10.00" fill="#000000">hexToInt</text>
</a>
</g>
</g>
<!-- Node28&#45;&gt;Node29 -->
<g id="edge53" class="edge">
<title>Node28&#45;&gt;Node29</title>
<path fill="none" stroke="#191970" d="M297.7151,-10C321.7608,-10 354.4932,-10 379.6651,-10"/>
<polygon fill="#191970" stroke="#191970" points="379.9428,-13.5001 389.9427,-10 379.9427,-6.5001 379.9428,-13.5001"/>
</g>
</g>
</svg>
