<?xml version="1.0" encoding="UTF-8" standalone="no"?>
<!DOCTYPE svg PUBLIC "-//W3C//DTD SVG 1.1//EN"
 "http://www.w3.org/Graphics/SVG/1.1/DTD/svg11.dtd">
<!-- Generated by graphviz version 2.40.1 (20161225.0304)
 -->
<!-- Title: cbcEncryptFile Pages: 1 -->
<svg width="650pt" height="668pt"
 viewBox="0.00 0.00 650.00 667.89" xmlns="http://www.w3.org/2000/svg" xmlns:xlink="http://www.w3.org/1999/xlink">
<g id="graph0" class="graph" transform="scale(1 1) rotate(0) translate(4 663.8896)">
<title>cbcEncryptFile</title>
<polygon fill="#ffffff" stroke="transparent" points="-4,4 -4,-663.8896 646,-663.8896 646,4 -4,4"/>
<!-- Node89 -->
<g id="node1" class="node">
<title>Node89</title>
<polygon fill="#bfbfbf" stroke="#000000" points="0,-469.3896 0,-488.3896 82,-488.3896 82,-469.3896 0,-469.3896"/>
<text text-anchor="middle" x="41" y="-476.3896" font-family="Helvetica,sans-Serif" font-size="10.00" fill="#000000">cbcEncryptFile</text>
</g>
<!-- Node90 -->
<g id="node2" class="node">
<title>Node90</title>
<g id="a_node2"><a xlink:href="$_a_e_s_8c.html#afba897e91364663f883cc51ed309dc92" xlink:title="keyHexToAscii &#45; Function to convert a key from a Hex string passed in as a paramter ...">
<polygon fill="#ffffff" stroke="#000000" points="127,-564.3896 127,-583.3896 210,-583.3896 210,-564.3896 127,-564.3896"/>
<text text-anchor="middle" x="168.5" y="-571.3896" font-family="Helvetica,sans-Serif" font-size="10.00" fill="#000000">keyHexToAscii</text>
</a>
</g>
</g>
<!-- Node89&#45;&gt;Node90 -->
<g id="edge1" class="edge">
<title>Node89&#45;&gt;Node90</title>
<path fill="none" stroke="#191970" d="M49.7085,-488.6127C63.2292,-503.2916 90.5794,-531.3601 118,-549.8896 123.3837,-553.5276 129.4047,-556.904 135.3615,-559.9069"/>
<polygon fill="#191970" stroke="#191970" points="134.0364,-563.1526 144.5687,-564.3021 137.052,-556.8355 134.0364,-563.1526"/>
</g>
<!-- Node91 -->
<g id="node3" class="node">
<title>Node91</title>
<g id="a_node3"><a xlink:href="$_a_e_s_8c.html#a1c2a403d95a85400bbae142d48cb8c9d" xlink:title="getNumRounds &#45; Function to return the number of rounds of AES encryption and decryption based off of ...">
<polygon fill="#ffffff" stroke="#000000" points="422,-412.3896 422,-431.3896 507,-431.3896 507,-412.3896 422,-412.3896"/>
<text text-anchor="middle" x="464.5" y="-419.3896" font-family="Helvetica,sans-Serif" font-size="10.00" fill="#000000">getNumRounds</text>
</a>
</g>
</g>
<!-- Node89&#45;&gt;Node91 -->
<g id="edge10" class="edge">
<title>Node89&#45;&gt;Node91</title>
<path fill="none" stroke="#191970" d="M82.1777,-475.535C145.558,-470.0754 270.7246,-458.1182 376,-440.8896 388.4818,-438.8469 401.8628,-436.2106 414.3439,-433.5559"/>
<polygon fill="#191970" stroke="#191970" points="415.0954,-436.9744 424.1261,-431.4339 413.6114,-430.1335 415.0954,-436.9744"/>
</g>
<!-- Node92 -->
<g id="node4" class="node">
<title>Node92</title>
<g id="a_node4"><a xlink:href="$_a_e_s_8c.html#a5d65eac115e562c64b00a43e72ee6aca" xlink:title="getPaddedKeyLength &#45; Function to return a valid key length (in bytes) based off of the current key le...">
<polygon fill="#ffffff" stroke="#000000" points="260.5,-564.3896 260.5,-583.3896 370.5,-583.3896 370.5,-564.3896 260.5,-564.3896"/>
<text text-anchor="middle" x="315.5" y="-571.3896" font-family="Helvetica,sans-Serif" font-size="10.00" fill="#000000">getPaddedKeyLength</text>
</a>
</g>
</g>
<!-- Node89&#45;&gt;Node92 -->
<g id="edge9" class="edge">
<title>Node89&#45;&gt;Node92</title>
<path fill="none" stroke="#191970" d="M58.0359,-488.3915C73.3827,-496.6844 96.7329,-508.648 118,-516.8896 166.7759,-535.7915 224.4443,-551.7347 264.8316,-561.9107"/>
<polygon fill="#191970" stroke="#191970" points="264.1617,-565.3507 274.7112,-564.3718 265.8538,-558.5583 264.1617,-565.3507"/>
</g>
<!-- Node93 -->
<g id="node5" class="node">
<title>Node93</title>
<g id="a_node5"><a xlink:href="$_a_e_s_8c.html#ad697cbb5d9e462b3017df1f1d939ee96" xlink:title="hexToAsciiString &#45; Function that converts a given string of hex values into its ASCII equivalent...">
<polygon fill="#ffffff" stroke="#000000" points="270,-640.3896 270,-659.3896 361,-659.3896 361,-640.3896 270,-640.3896"/>
<text text-anchor="middle" x="315.5" y="-647.3896" font-family="Helvetica,sans-Serif" font-size="10.00" fill="#000000">hexToAsciiString</text>
</a>
</g>
</g>
<!-- Node89&#45;&gt;Node93 -->
<g id="edge15" class="edge">
<title>Node89&#45;&gt;Node93</title>
<path fill="none" stroke="#191970" d="M42.595,-488.4569C47.7463,-516.0215 66.6904,-595.8693 118,-630.8896 159.266,-659.0548 217.1691,-661.404 259.611,-658.1493"/>
<polygon fill="#191970" stroke="#191970" points="260.1272,-661.6172 269.776,-657.2412 259.5043,-654.6449 260.1272,-661.6172"/>
</g>
<!-- Node96 -->
<g id="node8" class="node">
<title>Node96</title>
<g id="a_node8"><a xlink:href="$_a_e_s_8c.html#ad82d1b77336ac1292ed5a24b92380f42" xlink:title="IVHexToAscii &#45; Function to convert a initialization vector from a Hex string passed in as a paramter...">
<polygon fill="#ffffff" stroke="#000000" points="130,-602.3896 130,-621.3896 207,-621.3896 207,-602.3896 130,-602.3896"/>
<text text-anchor="middle" x="168.5" y="-609.3896" font-family="Helvetica,sans-Serif" font-size="10.00" fill="#000000">IVHexToAscii</text>
</a>
</g>
</g>
<!-- Node89&#45;&gt;Node96 -->
<g id="edge7" class="edge">
<title>Node89&#45;&gt;Node96</title>
<path fill="none" stroke="#191970" d="M45.0597,-488.6192C54.6006,-510.36 80.509,-563.2908 118,-592.8896 120.2746,-594.6854 122.737,-596.3246 125.3085,-597.8189"/>
<polygon fill="#191970" stroke="#191970" points="123.85,-601.0029 134.3579,-602.3579 126.9885,-594.7459 123.85,-601.0029"/>
</g>
<!-- Node97 -->
<g id="node9" class="node">
<title>Node97</title>
<g id="a_node9"><a xlink:href="$_a_e_s_8c.html#a0e0b199ded54d7fb53a3bda3fcc02256" xlink:title="validateNumRounds &#45; Function that validates the number of rounds that have been passed in by the ...">
<polygon fill="#ffffff" stroke="#000000" points="412,-108.3896 412,-127.3896 517,-127.3896 517,-108.3896 412,-108.3896"/>
<text text-anchor="middle" x="464.5" y="-115.3896" font-family="Helvetica,sans-Serif" font-size="10.00" fill="#000000">validateNumRounds</text>
</a>
</g>
</g>
<!-- Node89&#45;&gt;Node97 -->
<g id="edge11" class="edge">
<title>Node89&#45;&gt;Node97</title>
<path fill="none" stroke="#191970" d="M41.579,-469.3259C45.6333,-412.1515 75.1715,-114.9252 255,-22.8896 302.8723,1.6113 326.6879,-1.4334 376,-22.8896 377.2,-23.4117 423.267,-73.208 448.4483,-100.4861"/>
<polygon fill="#191970" stroke="#191970" points="446.166,-103.1738 455.5199,-108.1493 451.3104,-98.4266 446.166,-103.1738"/>
</g>
<!-- Node98 -->
<g id="node10" class="node">
<title>Node98</title>
<g id="a_node10"><a xlink:href="$_a_e_s_8c.html#acc2acf0b03a8863f9290bdd36dd6f478" xlink:title="Get the output file name from all the parameters passed in. ">
<polygon fill="#ffffff" stroke="#000000" points="118,-488.3896 118,-507.3896 219,-507.3896 219,-488.3896 118,-488.3896"/>
<text text-anchor="middle" x="168.5" y="-495.3896" font-family="Helvetica,sans-Serif" font-size="10.00" fill="#000000">getOutputFileName</text>
</a>
</g>
</g>
<!-- Node89&#45;&gt;Node98 -->
<g id="edge12" class="edge">
<title>Node89&#45;&gt;Node98</title>
<path fill="none" stroke="#191970" d="M82.0436,-485.0059C90.206,-486.2223 98.9397,-487.5237 107.603,-488.8147"/>
<polygon fill="#191970" stroke="#191970" points="107.2955,-492.3075 117.7022,-490.3197 108.3273,-485.3839 107.2955,-492.3075"/>
</g>
<!-- Node101 -->
<g id="node13" class="node">
<title>Node101</title>
<g id="a_node13"><a xlink:href="$_a_e_s_8c.html#aaba2e1b9466483b3c6b8669eb42aa5ed" xlink:title="printAESBlock &#45; Function to print a single block in hex format to the terminal. ">
<polygon fill="#ffffff" stroke="#000000" points="275.5,-412.3896 275.5,-431.3896 355.5,-431.3896 355.5,-412.3896 275.5,-412.3896"/>
<text text-anchor="middle" x="315.5" y="-419.3896" font-family="Helvetica,sans-Serif" font-size="10.00" fill="#000000">printAESBlock</text>
</a>
</g>
</g>
<!-- Node89&#45;&gt;Node101 -->
<g id="edge16" class="edge">
<title>Node89&#45;&gt;Node101</title>
<path fill="none" stroke="#191970" d="M59.1432,-469.3654C74.4227,-461.7767 97.0741,-451.5216 118,-445.8896 166.9389,-432.7183 224.6586,-426.7612 265.0169,-424.0755"/>
<polygon fill="#191970" stroke="#191970" points="265.3809,-427.5597 275.1444,-423.4459 264.9465,-420.5732 265.3809,-427.5597"/>
</g>
<!-- Node102 -->
<g id="node14" class="node">
<title>Node102</title>
<g id="a_node14"><a xlink:href="$_a_e_s_8c.html#ab601c369ba50730fc02d03bc44aad4e0" xlink:title="XORBlocks &#45; Function to XOR two blocks of length. ">
<polygon fill="#ffffff" stroke="#000000" points="134.5,-222.3896 134.5,-241.3896 202.5,-241.3896 202.5,-222.3896 134.5,-222.3896"/>
<text text-anchor="middle" x="168.5" y="-229.3896" font-family="Helvetica,sans-Serif" font-size="10.00" fill="#000000">XORBlocks</text>
</a>
</g>
</g>
<!-- Node89&#45;&gt;Node102 -->
<g id="edge17" class="edge">
<title>Node89&#45;&gt;Node102</title>
<path fill="none" stroke="#191970" d="M41.43,-469.1663C43.4775,-434.576 54.9966,-316.0829 118,-250.8896 120.2072,-248.6057 122.7155,-246.5935 125.4066,-244.8211"/>
<polygon fill="#191970" stroke="#191970" points="127.3326,-247.7593 134.4789,-239.9375 124.0146,-241.5956 127.3326,-247.7593"/>
</g>
<!-- Node103 -->
<g id="node15" class="node">
<title>Node103</title>
<g id="a_node15"><a xlink:href="$_a_e_s_8c.html#a41cef4df290905c4d632ce1357d0a9bd" xlink:title="AESEncrypt &#45; Function to encrypt a single block of plaintext passed in as parameter &#160;plainText using ...">
<polygon fill="#ffffff" stroke="#000000" points="133,-260.3896 133,-279.3896 204,-279.3896 204,-260.3896 133,-260.3896"/>
<text text-anchor="middle" x="168.5" y="-267.3896" font-family="Helvetica,sans-Serif" font-size="10.00" fill="#000000">AESEncrypt</text>
</a>
</g>
</g>
<!-- Node89&#45;&gt;Node103 -->
<g id="edge18" class="edge">
<title>Node89&#45;&gt;Node103</title>
<path fill="none" stroke="#191970" d="M46.8097,-469.3662C66.5566,-436.9969 131.3084,-330.8547 157.4288,-288.0377"/>
<polygon fill="#191970" stroke="#191970" points="160.4361,-289.8286 162.6562,-279.4689 154.4603,-286.183 160.4361,-289.8286"/>
</g>
<!-- Node90&#45;&gt;Node91 -->
<g id="edge2" class="edge">
<title>Node90&#45;&gt;Node91</title>
<path fill="none" stroke="#191970" d="M203.5666,-583.3979C219.1835,-587.1625 237.8801,-591.0315 255,-592.8896 308.4638,-598.6922 330.058,-620.8428 376,-592.8896 431.1242,-559.3495 453.4354,-479.1662 461.0762,-441.7498"/>
<polygon fill="#191970" stroke="#191970" points="464.5746,-442.0865 462.9965,-431.6099 457.6968,-440.7839 464.5746,-442.0865"/>
</g>
<!-- Node90&#45;&gt;Node92 -->
<g id="edge3" class="edge">
<title>Node90&#45;&gt;Node92</title>
<path fill="none" stroke="#191970" d="M210.2311,-573.8896C222.6769,-573.8896 236.6277,-573.8896 250.2006,-573.8896"/>
<polygon fill="#191970" stroke="#191970" points="250.4752,-577.3897 260.4752,-573.8896 250.4751,-570.3897 250.4752,-577.3897"/>
</g>
<!-- Node90&#45;&gt;Node93 -->
<g id="edge4" class="edge">
<title>Node90&#45;&gt;Node93</title>
<path fill="none" stroke="#191970" d="M199.5591,-583.4376C206.2008,-586.0585 213.0139,-589.212 219,-592.8896 237.4939,-604.2512 236.6079,-614.3638 255,-625.8896 261.3853,-629.8911 268.5494,-633.4364 275.6532,-636.4917"/>
<polygon fill="#191970" stroke="#191970" points="274.6407,-639.8573 285.224,-640.3512 277.2586,-633.3652 274.6407,-639.8573"/>
</g>
<!-- Node94 -->
<g id="node6" class="node">
<title>Node94</title>
<g id="a_node6"><a xlink:href="$_a_e_s_8c.html#aa177516503b10de65b504a3714073ad7" xlink:title="hexToAscii &#45; Function that converts a given hex value to its ASCII equivalent. ">
<polygon fill="#ffffff" stroke="#000000" points="432,-640.3896 432,-659.3896 497,-659.3896 497,-640.3896 432,-640.3896"/>
<text text-anchor="middle" x="464.5" y="-647.3896" font-family="Helvetica,sans-Serif" font-size="10.00" fill="#000000">hexToAscii</text>
</a>
</g>
</g>
<!-- Node93&#45;&gt;Node94 -->
<g id="edge5" class="edge">
<title>Node93&#45;&gt;Node94</title>
<path fill="none" stroke="#191970" d="M361.0145,-649.8896C380.2224,-649.8896 402.4758,-649.8896 421.4138,-649.8896"/>
<polygon fill="#191970" stroke="#191970" points="421.5534,-653.3897 431.5534,-649.8896 421.5533,-646.3897 421.5534,-653.3897"/>
</g>
<!-- Node95 -->
<g id="node7" class="node">
<title>Node95</title>
<g id="a_node7"><a xlink:href="$_a_e_s_8c.html#a7e5ab2188af44718071074f450963568" xlink:title="hexToInt &#45; Function that converts a given hex value into an integer. ">
<polygon fill="#ffffff" stroke="#000000" points="570,-640.3896 570,-659.3896 625,-659.3896 625,-640.3896 570,-640.3896"/>
<text text-anchor="middle" x="597.5" y="-647.3896" font-family="Helvetica,sans-Serif" font-size="10.00" fill="#000000">hexToInt</text>
</a>
</g>
</g>
<!-- Node94&#45;&gt;Node95 -->
<g id="edge6" class="edge">
<title>Node94&#45;&gt;Node95</title>
<path fill="none" stroke="#191970" d="M497.0355,-649.8896C515.9398,-649.8896 539.85,-649.8896 559.6014,-649.8896"/>
<polygon fill="#191970" stroke="#191970" points="559.7947,-653.3897 569.7946,-649.8896 559.7946,-646.3897 559.7947,-653.3897"/>
</g>
<!-- Node96&#45;&gt;Node93 -->
<g id="edge8" class="edge">
<title>Node96&#45;&gt;Node93</title>
<path fill="none" stroke="#191970" d="M205.5943,-621.4786C224.8178,-626.4479 248.4863,-632.5663 268.9294,-637.8509"/>
<polygon fill="#191970" stroke="#191970" points="268.1147,-641.2553 278.6724,-640.3695 269.8667,-634.4781 268.1147,-641.2553"/>
</g>
<!-- Node99 -->
<g id="node11" class="node">
<title>Node99</title>
<g id="a_node11"><a xlink:href="$_a_e_s_8c.html#a9dcad0047890de22f3d15611a10ab74f" xlink:title="Returns the last index of &#39;/&#39; in a given path, otherwise returns &#45;1 if no &#39;/&#39; is found. ">
<polygon fill="#ffffff" stroke="#000000" points="269.5,-488.3896 269.5,-507.3896 361.5,-507.3896 361.5,-488.3896 269.5,-488.3896"/>
<text text-anchor="middle" x="315.5" y="-495.3896" font-family="Helvetica,sans-Serif" font-size="10.00" fill="#000000">fileNameDirIndex</text>
</a>
</g>
</g>
<!-- Node98&#45;&gt;Node99 -->
<g id="edge13" class="edge">
<title>Node98&#45;&gt;Node99</title>
<path fill="none" stroke="#191970" d="M219.0891,-497.8896C231.9333,-497.8896 245.8148,-497.8896 258.9349,-497.8896"/>
<polygon fill="#191970" stroke="#191970" points="259.2594,-501.3897 269.2594,-497.8896 259.2593,-494.3897 259.2594,-501.3897"/>
</g>
<!-- Node100 -->
<g id="node12" class="node">
<title>Node100</title>
<g id="a_node12"><a xlink:href="$_a_e_s_8c.html#ab066697b473ad5ce74faaceae6def5e5" xlink:title="Removes path from the provided path to a file and returns only the file name. ">
<polygon fill="#ffffff" stroke="#000000" points="278,-526.3896 278,-545.3896 353,-545.3896 353,-526.3896 278,-526.3896"/>
<text text-anchor="middle" x="315.5" y="-533.3896" font-family="Helvetica,sans-Serif" font-size="10.00" fill="#000000">stripDirectory</text>
</a>
</g>
</g>
<!-- Node98&#45;&gt;Node100 -->
<g id="edge14" class="edge">
<title>Node98&#45;&gt;Node100</title>
<path fill="none" stroke="#191970" d="M205.5943,-507.4786C224.8178,-512.4479 248.4863,-518.5663 268.9294,-523.8509"/>
<polygon fill="#191970" stroke="#191970" points="268.1147,-527.2553 278.6724,-526.3695 269.8667,-520.4781 268.1147,-527.2553"/>
</g>
<!-- Node103&#45;&gt;Node91 -->
<g id="edge20" class="edge">
<title>Node103&#45;&gt;Node91</title>
<path fill="none" stroke="#191970" d="M174.5729,-279.6351C187.1281,-298.9536 217.8941,-342.1948 255,-364.8896 268.7265,-373.285 357.3422,-395.8387 414.8407,-409.9291"/>
<polygon fill="#191970" stroke="#191970" points="414.2932,-413.3982 424.8381,-412.3707 415.954,-406.5981 414.2932,-413.3982"/>
</g>
<!-- Node103&#45;&gt;Node92 -->
<g id="edge19" class="edge">
<title>Node103&#45;&gt;Node92</title>
<path fill="none" stroke="#191970" d="M170.8604,-279.5422C182.5383,-326.9942 234.396,-534.0864 255,-554.8896 256.4526,-556.3562 258.017,-557.71 259.6689,-558.9594"/>
<polygon fill="#191970" stroke="#191970" points="258.1877,-562.1558 268.5469,-564.3783 261.8347,-556.1809 258.1877,-562.1558"/>
</g>
<!-- Node103&#45;&gt;Node97 -->
<g id="edge21" class="edge">
<title>Node103&#45;&gt;Node97</title>
<path fill="none" stroke="#191970" d="M204.1514,-261.2024C209.6589,-258.6051 214.8768,-255.2416 219,-250.8896 255.5432,-212.3188 213.6079,-170.2033 255,-136.8896 297.1882,-102.9351 360.7933,-101.9413 406.8494,-107.1163"/>
<polygon fill="#191970" stroke="#191970" points="406.6237,-110.6153 416.9811,-108.3847 407.4933,-103.6695 406.6237,-110.6153"/>
</g>
<!-- Node103&#45;&gt;Node101 -->
<g id="edge40" class="edge">
<title>Node103&#45;&gt;Node101</title>
<path fill="none" stroke="#191970" d="M172.6309,-279.6906C183.0379,-303.279 212.5646,-363.778 255,-397.8896 260.0283,-401.9316 265.8229,-405.3644 271.792,-408.2587"/>
<polygon fill="#191970" stroke="#191970" points="270.665,-411.5855 281.2305,-412.3738 273.4627,-405.1688 270.665,-411.5855"/>
</g>
<!-- Node104 -->
<g id="node16" class="node">
<title>Node104</title>
<g id="a_node16"><a xlink:href="$_a_e_s_8c.html#acefcd728377e1e14187fa8fcd20f4064" xlink:title="validatePlainTextLength &#45; Function that validates the length of the plaintext. The validation is done...">
<polygon fill="#ffffff" stroke="#000000" points="255,-260.3896 255,-279.3896 376,-279.3896 376,-260.3896 255,-260.3896"/>
<text text-anchor="middle" x="315.5" y="-267.3896" font-family="Helvetica,sans-Serif" font-size="10.00" fill="#000000">validatePlainTextLength</text>
</a>
</g>
</g>
<!-- Node103&#45;&gt;Node104 -->
<g id="edge22" class="edge">
<title>Node103&#45;&gt;Node104</title>
<path fill="none" stroke="#191970" d="M204.0846,-269.8896C216.3237,-269.8896 230.4944,-269.8896 244.5411,-269.8896"/>
<polygon fill="#191970" stroke="#191970" points="244.7181,-273.3897 254.7181,-269.8896 244.718,-266.3897 244.7181,-273.3897"/>
</g>
<!-- Node105 -->
<g id="node17" class="node">
<title>Node105</title>
<g id="a_node17"><a xlink:href="$_a_e_s_8c.html#a1c1a633a58f7328faa397db9e45e7e0c" xlink:title="constructStateArray &#45; Function to convert the state array from a flat 1D array to a multidimensional ...">
<polygon fill="#ffffff" stroke="#000000" points="263.5,-184.3896 263.5,-203.3896 367.5,-203.3896 367.5,-184.3896 263.5,-184.3896"/>
<text text-anchor="middle" x="315.5" y="-191.3896" font-family="Helvetica,sans-Serif" font-size="10.00" fill="#000000">constructStateArray</text>
</a>
</g>
</g>
<!-- Node103&#45;&gt;Node105 -->
<g id="edge23" class="edge">
<title>Node103&#45;&gt;Node105</title>
<path fill="none" stroke="#191970" d="M200.5552,-260.3348C206.9284,-257.7554 213.3813,-254.6203 219,-250.8896 238.3812,-238.0209 235.2688,-225.215 255,-212.8896 258.3702,-210.7844 261.9926,-208.8951 265.7293,-207.2027"/>
<polygon fill="#191970" stroke="#191970" points="267.211,-210.3791 275.1742,-203.3907 264.591,-203.8879 267.211,-210.3791"/>
</g>
<!-- Node106 -->
<g id="node18" class="node">
<title>Node106</title>
<g id="a_node18"><a xlink:href="$_a_e_s_8c.html#ae9af90db32afa65125a7eec339ed9d58" xlink:title="printStateArray &#45; Function to print the state array to the terminal in hex format. ">
<polygon fill="#ffffff" stroke="#000000" points="274.5,-146.3896 274.5,-165.3896 356.5,-165.3896 356.5,-146.3896 274.5,-146.3896"/>
<text text-anchor="middle" x="315.5" y="-153.3896" font-family="Helvetica,sans-Serif" font-size="10.00" fill="#000000">printStateArray</text>
</a>
</g>
</g>
<!-- Node103&#45;&gt;Node106 -->
<g id="edge24" class="edge">
<title>Node103&#45;&gt;Node106</title>
<path fill="none" stroke="#191970" d="M204.1875,-260.4705C209.5623,-257.9662 214.7274,-254.8234 219,-250.8896 246.4962,-225.5736 226.8112,-199.432 255,-174.8896 258.0423,-172.2408 261.4532,-169.961 265.0647,-167.9988"/>
<polygon fill="#191970" stroke="#191970" points="266.7222,-171.0895 274.3597,-163.7465 263.8101,-164.724 266.7222,-171.0895"/>
</g>
<!-- Node107 -->
<g id="node19" class="node">
<title>Node107</title>
<g id="a_node19"><a xlink:href="$_a_e_s_8c.html#a185c827e4ccbc8e4608e83dfbf9dfc8e" xlink:title="RijndaelKeySchedule &#45; Function that performs the Rijndael key scheduling for AES encryption. Takes in the original key passed in as parameter. ">
<polygon fill="#ffffff" stroke="#000000" points="260.5,-222.3896 260.5,-241.3896 370.5,-241.3896 370.5,-222.3896 260.5,-222.3896"/>
<text text-anchor="middle" x="315.5" y="-229.3896" font-family="Helvetica,sans-Serif" font-size="10.00" fill="#000000">RijndaelKeySchedule</text>
</a>
</g>
</g>
<!-- Node103&#45;&gt;Node107 -->
<g id="edge25" class="edge">
<title>Node103&#45;&gt;Node107</title>
<path fill="none" stroke="#191970" d="M204.0846,-260.6909C223.5967,-255.6469 248.018,-249.3339 269.02,-243.9048"/>
<polygon fill="#191970" stroke="#191970" points="269.9022,-247.2919 278.708,-241.4005 268.1502,-240.5147 269.9022,-247.2919"/>
</g>
<!-- Node112 -->
<g id="node24" class="node">
<title>Node112</title>
<g id="a_node24"><a xlink:href="$_a_e_s_8c.html#abe15a731f43315f6f595674d3cd62d57" xlink:title="getRoundKey &#45; Function to extract the correct sub&#45;key to use for the appropriate round specified by ...">
<polygon fill="#ffffff" stroke="#000000" points="277.5,-70.3896 277.5,-89.3896 353.5,-89.3896 353.5,-70.3896 277.5,-70.3896"/>
<text text-anchor="middle" x="315.5" y="-77.3896" font-family="Helvetica,sans-Serif" font-size="10.00" fill="#000000">getRoundKey</text>
</a>
</g>
</g>
<!-- Node103&#45;&gt;Node112 -->
<g id="edge33" class="edge">
<title>Node103&#45;&gt;Node112</title>
<path fill="none" stroke="#191970" d="M204.1393,-261.5493C209.7156,-258.9117 214.9598,-255.4448 219,-250.8896 263.6331,-200.5673 210.8165,-154.607 255,-103.8896 258.7112,-99.6296 263.2806,-96.1181 268.2314,-93.2252"/>
<polygon fill="#191970" stroke="#191970" points="270.0443,-96.2332 277.4518,-88.6582 266.9373,-89.9605 270.0443,-96.2332"/>
</g>
<!-- Node113 -->
<g id="node25" class="node">
<title>Node113</title>
<g id="a_node25"><a xlink:href="$_a_e_s_8c.html#aef4d8fc4282e3cc21708d25c0ec9ad06" xlink:title="AddRoundKey &#45; Function that performs the Bitwise XOR between state and key as per AES encryption...">
<polygon fill="#ffffff" stroke="#000000" points="275.5,-32.3896 275.5,-51.3896 355.5,-51.3896 355.5,-32.3896 275.5,-32.3896"/>
<text text-anchor="middle" x="315.5" y="-39.3896" font-family="Helvetica,sans-Serif" font-size="10.00" fill="#000000">AddRoundKey</text>
</a>
</g>
</g>
<!-- Node103&#45;&gt;Node113 -->
<g id="edge34" class="edge">
<title>Node103&#45;&gt;Node113</title>
<path fill="none" stroke="#191970" d="M204.0862,-261.8471C209.7377,-259.1768 215.0214,-255.6218 219,-250.8896 274.3091,-185.1039 197.8849,-125.1137 255,-60.8896 258.2145,-57.275 262.1078,-54.3414 266.3521,-51.9617"/>
<polygon fill="#191970" stroke="#191970" points="267.8045,-55.1462 275.4522,-47.8138 264.9012,-48.7766 267.8045,-55.1462"/>
</g>
<!-- Node114 -->
<g id="node26" class="node">
<title>Node114</title>
<g id="a_node26"><a xlink:href="$_a_e_s_8c.html#aec40f89d2cbf831fd0d5d5f1bfa616f5" xlink:title="subBytes &#45; Function that performs the sub byte operation where each value is replaced by the s box va...">
<polygon fill="#ffffff" stroke="#000000" points="435.5,-279.3896 435.5,-298.3896 493.5,-298.3896 493.5,-279.3896 435.5,-279.3896"/>
<text text-anchor="middle" x="464.5" y="-286.3896" font-family="Helvetica,sans-Serif" font-size="10.00" fill="#000000">subBytes</text>
</a>
</g>
</g>
<!-- Node103&#45;&gt;Node114 -->
<g id="edge35" class="edge">
<title>Node103&#45;&gt;Node114</title>
<path fill="none" stroke="#191970" d="M203.5666,-279.3979C219.1835,-283.1625 237.8801,-287.0315 255,-288.8896 314.0016,-295.2932 382.9019,-293.5336 425.1119,-291.4155"/>
<polygon fill="#191970" stroke="#191970" points="425.4469,-294.9027 435.2459,-290.8741 425.0734,-287.9127 425.4469,-294.9027"/>
</g>
<!-- Node115 -->
<g id="node27" class="node">
<title>Node115</title>
<g id="a_node27"><a xlink:href="$_a_e_s_8c.html#abeb4dba64fcf4d07eac178e732ca6aa8" xlink:title="ShiftRows &#45; Function to shift the state array according to the AES encryption standard for 128 &#45; bits...">
<polygon fill="#ffffff" stroke="#000000" points="433.5,-32.3896 433.5,-51.3896 495.5,-51.3896 495.5,-32.3896 433.5,-32.3896"/>
<text text-anchor="middle" x="464.5" y="-39.3896" font-family="Helvetica,sans-Serif" font-size="10.00" fill="#000000">ShiftRows</text>
</a>
</g>
</g>
<!-- Node103&#45;&gt;Node115 -->
<g id="edge37" class="edge">
<title>Node103&#45;&gt;Node115</title>
<path fill="none" stroke="#191970" d="M204.2069,-261.947C209.846,-259.2665 215.0944,-255.6822 219,-250.8896 283.8075,-171.3633 177.0068,-89.5343 255,-22.8896 306.2383,20.8932 392.4719,-8.3209 436.6204,-28.0412"/>
<polygon fill="#191970" stroke="#191970" points="435.3355,-31.303 445.8817,-32.317 438.2697,-24.9476 435.3355,-31.303"/>
</g>
<!-- Node116 -->
<g id="node28" class="node">
<title>Node116</title>
<g id="a_node28"><a xlink:href="$_a_e_s_8c.html#aca09b30896a351db6587639a1cc1bf0d" xlink:title="mixColumns &#45; Function that performs the MixColumns step of AES as specified by AES encryption...">
<polygon fill="#ffffff" stroke="#000000" points="280,-336.3896 280,-355.3896 351,-355.3896 351,-336.3896 280,-336.3896"/>
<text text-anchor="middle" x="315.5" y="-343.3896" font-family="Helvetica,sans-Serif" font-size="10.00" fill="#000000">mixColumns</text>
</a>
</g>
</g>
<!-- Node103&#45;&gt;Node116 -->
<g id="edge39" class="edge">
<title>Node103&#45;&gt;Node116</title>
<path fill="none" stroke="#191970" d="M182.7835,-279.4712C199.6084,-290.5202 228.6158,-308.8353 255,-321.8896 262.6323,-325.6659 271.0137,-329.2986 279.0419,-332.5451"/>
<polygon fill="#191970" stroke="#191970" points="277.998,-335.8954 288.5852,-336.2972 280.5594,-329.3808 277.998,-335.8954"/>
</g>
<!-- Node107&#45;&gt;Node91 -->
<g id="edge26" class="edge">
<title>Node107&#45;&gt;Node91</title>
<path fill="none" stroke="#191970" d="M360.2483,-241.4319C365.9274,-243.8962 371.364,-246.9946 376,-250.8896 388.827,-261.6664 435.8353,-360.4268 455.6251,-402.7642"/>
<polygon fill="#191970" stroke="#191970" points="452.5347,-404.4188 459.9307,-412.005 458.8797,-401.4624 452.5347,-404.4188"/>
</g>
<!-- Node107&#45;&gt;Node97 -->
<g id="edge27" class="edge">
<title>Node107&#45;&gt;Node97</title>
<path fill="none" stroke="#191970" d="M356.1709,-222.3159C363.0671,-219.8096 369.9467,-216.7062 376,-212.8896 408.5335,-192.3769 437.0137,-157.0062 452.3915,-135.6956"/>
<polygon fill="#191970" stroke="#191970" points="455.2607,-137.7 458.1533,-127.5076 449.536,-133.6715 455.2607,-137.7"/>
</g>
<!-- Node108 -->
<g id="node20" class="node">
<title>Node108</title>
<g id="a_node20"><a xlink:href="$_a_e_s_8c.html#af2f914cf17729a0ee89102c98b39665e" xlink:title="KeyScheduleCore &#45; Function that performs the key schedule core for the Rijndael Key Schedule...">
<polygon fill="#ffffff" stroke="#000000" points="417,-194.3896 417,-213.3896 512,-213.3896 512,-194.3896 417,-194.3896"/>
<text text-anchor="middle" x="464.5" y="-201.3896" font-family="Helvetica,sans-Serif" font-size="10.00" fill="#000000">KeyScheduleCore</text>
</a>
</g>
</g>
<!-- Node107&#45;&gt;Node108 -->
<g id="edge28" class="edge">
<title>Node107&#45;&gt;Node108</title>
<path fill="none" stroke="#191970" d="M366.3606,-222.3319C379.3936,-219.8827 393.5035,-217.2312 406.8516,-214.7228"/>
<polygon fill="#191970" stroke="#191970" points="407.6986,-218.125 416.8801,-212.8383 406.4057,-211.2455 407.6986,-218.125"/>
</g>
<!-- Node110 -->
<g id="node22" class="node">
<title>Node110</title>
<g id="a_node22"><a xlink:href="$_a_e_s_8c.html#acdf4abe2846c02b4d3e674782807fdfa" xlink:title="getSBoxValue &#45; Function to return the sBox value passed in as a parameter ">
<polygon fill="#ffffff" stroke="#000000" points="558,-232.3896 558,-251.3896 637,-251.3896 637,-232.3896 558,-232.3896"/>
<text text-anchor="middle" x="597.5" y="-239.3896" font-family="Helvetica,sans-Serif" font-size="10.00" fill="#000000">getSBoxValue</text>
</a>
</g>
</g>
<!-- Node107&#45;&gt;Node110 -->
<g id="edge32" class="edge">
<title>Node107&#45;&gt;Node110</title>
<path fill="none" stroke="#191970" d="M370.5419,-233.8414C421.8695,-235.6616 497.7719,-238.3531 547.4315,-240.1141"/>
<polygon fill="#191970" stroke="#191970" points="547.4939,-243.6184 557.6117,-240.4751 547.742,-236.6228 547.4939,-243.6184"/>
</g>
<!-- Node109 -->
<g id="node21" class="node">
<title>Node109</title>
<g id="a_node21"><a xlink:href="$_a_e_s_8c.html#ac769b0533ccecd203cc3ab64e6b2f950" xlink:title="SingleRotateLeft &#45; Function to rotate the array passed in as a paramter. ">
<polygon fill="#ffffff" stroke="#000000" points="553,-89.3896 553,-108.3896 642,-108.3896 642,-89.3896 553,-89.3896"/>
<text text-anchor="middle" x="597.5" y="-96.3896" font-family="Helvetica,sans-Serif" font-size="10.00" fill="#000000">SingleRotateLeft</text>
</a>
</g>
</g>
<!-- Node108&#45;&gt;Node109 -->
<g id="edge29" class="edge">
<title>Node108&#45;&gt;Node109</title>
<path fill="none" stroke="#191970" d="M476.7739,-194.1997C499.7356,-176.072 549.386,-136.8743 577.3329,-114.811"/>
<polygon fill="#191970" stroke="#191970" points="579.5757,-117.4997 585.2557,-108.5561 575.2381,-112.0055 579.5757,-117.4997"/>
</g>
<!-- Node108&#45;&gt;Node110 -->
<g id="edge30" class="edge">
<title>Node108&#45;&gt;Node110</title>
<path fill="none" stroke="#191970" d="M498.0615,-213.4786C515.073,-218.339 535.9319,-224.2987 554.1446,-229.5023"/>
<polygon fill="#191970" stroke="#191970" points="553.3724,-232.9217 563.9492,-232.3037 555.2955,-226.191 553.3724,-232.9217"/>
</g>
<!-- Node111 -->
<g id="node23" class="node">
<title>Node111</title>
<g id="a_node23"><a xlink:href="$_a_e_s_8c.html#a4e58d2e928429bc56387394251b8ece5" xlink:title="getRconValue &#45; Function to return the Rcon value for the index passed in as a parameter ...">
<polygon fill="#ffffff" stroke="#000000" points="558.5,-194.3896 558.5,-213.3896 636.5,-213.3896 636.5,-194.3896 558.5,-194.3896"/>
<text text-anchor="middle" x="597.5" y="-201.3896" font-family="Helvetica,sans-Serif" font-size="10.00" fill="#000000">getRconValue</text>
</a>
</g>
</g>
<!-- Node108&#45;&gt;Node111 -->
<g id="edge31" class="edge">
<title>Node108&#45;&gt;Node111</title>
<path fill="none" stroke="#191970" d="M512.1404,-203.8896C523.7856,-203.8896 536.272,-203.8896 548.0019,-203.8896"/>
<polygon fill="#191970" stroke="#191970" points="548.0751,-207.3897 558.0751,-203.8896 548.0751,-200.3897 548.0751,-207.3897"/>
</g>
<!-- Node114&#45;&gt;Node110 -->
<g id="edge36" class="edge">
<title>Node114&#45;&gt;Node110</title>
<path fill="none" stroke="#191970" d="M491.4145,-279.3784C511.2932,-272.3537 538.5917,-262.7068 560.5185,-254.9583"/>
<polygon fill="#191970" stroke="#191970" points="561.9066,-258.1799 570.169,-251.5479 559.5742,-251.5799 561.9066,-258.1799"/>
</g>
<!-- Node115&#45;&gt;Node109 -->
<g id="edge38" class="edge">
<title>Node115&#45;&gt;Node109</title>
<path fill="none" stroke="#191970" d="M486.7612,-51.4301C508.4352,-60.719 541.5835,-74.9254 565.9667,-85.3753"/>
<polygon fill="#191970" stroke="#191970" points="564.596,-88.5957 575.1662,-89.3179 567.3534,-82.1617 564.596,-88.5957"/>
</g>
</g>
</svg>
