<?xml version="1.0" encoding="UTF-8" standalone="no"?>
<!DOCTYPE svg PUBLIC "-//W3C//DTD SVG 1.1//EN"
 "http://www.w3.org/Graphics/SVG/1.1/DTD/svg11.dtd">
<!-- Generated by graphviz version 2.40.1 (20161225.0304)
 -->
<!-- Title: cfbEncryptFile Pages: 1 -->
<svg width="648pt" height="750pt"
 viewBox="0.00 0.00 648.00 750.00" xmlns="http://www.w3.org/2000/svg" xmlns:xlink="http://www.w3.org/1999/xlink">
<g id="graph0" class="graph" transform="scale(1 1) rotate(0) translate(4 746)">
<title>cfbEncryptFile</title>
<polygon fill="#ffffff" stroke="transparent" points="-4,4 -4,-746 644,-746 644,4 -4,4"/>
<!-- Node83 -->
<g id="node1" class="node">
<title>Node83</title>
<polygon fill="#bfbfbf" stroke="#000000" points="0,-570.5 0,-589.5 80,-589.5 80,-570.5 0,-570.5"/>
<text text-anchor="middle" x="40" y="-577.5" font-family="Helvetica,sans-Serif" font-size="10.00" fill="#000000">cfbEncryptFile</text>
</g>
<!-- Node84 -->
<g id="node2" class="node">
<title>Node84</title>
<g id="a_node2"><a xlink:href="$_a_e_s_8c.html#afba897e91364663f883cc51ed309dc92" xlink:title="keyHexToAscii &#45; Function to convert a key from a Hex string passed in as a paramter ...">
<polygon fill="#ffffff" stroke="#000000" points="125,-646.5 125,-665.5 208,-665.5 208,-646.5 125,-646.5"/>
<text text-anchor="middle" x="166.5" y="-653.5" font-family="Helvetica,sans-Serif" font-size="10.00" fill="#000000">keyHexToAscii</text>
</a>
</g>
</g>
<!-- Node83&#45;&gt;Node84 -->
<g id="edge1" class="edge">
<title>Node83&#45;&gt;Node84</title>
<path fill="none" stroke="#191970" d="M52.7779,-589.6591C67.5649,-600.6174 92.8548,-618.691 116,-632 122.1062,-635.5112 128.8081,-638.9601 135.2774,-642.1"/>
<polygon fill="#191970" stroke="#191970" points="133.9557,-645.3464 144.4929,-646.4504 136.944,-639.0163 133.9557,-645.3464"/>
</g>
<!-- Node85 -->
<g id="node3" class="node">
<title>Node85</title>
<g id="a_node3"><a xlink:href="$_a_e_s_8c.html#a1c2a403d95a85400bbae142d48cb8c9d" xlink:title="getNumRounds &#45; Function to return the number of rounds of AES encryption and decryption based off of ...">
<polygon fill="#ffffff" stroke="#000000" points="420,-513.5 420,-532.5 505,-532.5 505,-513.5 420,-513.5"/>
<text text-anchor="middle" x="462.5" y="-520.5" font-family="Helvetica,sans-Serif" font-size="10.00" fill="#000000">getNumRounds</text>
</a>
</g>
</g>
<!-- Node83&#45;&gt;Node85 -->
<g id="edge10" class="edge">
<title>Node83&#45;&gt;Node85</title>
<path fill="none" stroke="#191970" d="M73.8367,-570.495C86.9231,-567.095 102.0767,-563.492 116,-561 219.2658,-542.5175 341.5608,-531.6416 409.7626,-526.5455"/>
<polygon fill="#191970" stroke="#191970" points="410.1117,-530.0294 419.8284,-525.8061 409.5988,-523.0482 410.1117,-530.0294"/>
</g>
<!-- Node86 -->
<g id="node4" class="node">
<title>Node86</title>
<g id="a_node4"><a xlink:href="$_a_e_s_8c.html#a5d65eac115e562c64b00a43e72ee6aca" xlink:title="getPaddedKeyLength &#45; Function to return a valid key length (in bytes) based off of the current key le...">
<polygon fill="#ffffff" stroke="#000000" points="258.5,-646.5 258.5,-665.5 368.5,-665.5 368.5,-646.5 258.5,-646.5"/>
<text text-anchor="middle" x="313.5" y="-653.5" font-family="Helvetica,sans-Serif" font-size="10.00" fill="#000000">getPaddedKeyLength</text>
</a>
</g>
</g>
<!-- Node83&#45;&gt;Node86 -->
<g id="edge9" class="edge">
<title>Node83&#45;&gt;Node86</title>
<path fill="none" stroke="#191970" d="M74.362,-589.5485C123.7952,-603.2849 214.9945,-628.6274 269.3593,-643.7342"/>
<polygon fill="#191970" stroke="#191970" points="268.4914,-647.1256 279.0634,-646.4308 270.3656,-640.3811 268.4914,-647.1256"/>
</g>
<!-- Node87 -->
<g id="node5" class="node">
<title>Node87</title>
<g id="a_node5"><a xlink:href="$_a_e_s_8c.html#ad697cbb5d9e462b3017df1f1d939ee96" xlink:title="hexToAsciiString &#45; Function that converts a given string of hex values into its ASCII equivalent...">
<polygon fill="#ffffff" stroke="#000000" points="268,-722.5 268,-741.5 359,-741.5 359,-722.5 268,-722.5"/>
<text text-anchor="middle" x="313.5" y="-729.5" font-family="Helvetica,sans-Serif" font-size="10.00" fill="#000000">hexToAsciiString</text>
</a>
</g>
</g>
<!-- Node83&#45;&gt;Node87 -->
<g id="edge38" class="edge">
<title>Node83&#45;&gt;Node87</title>
<path fill="none" stroke="#191970" d="M42.2995,-589.8356C48.8154,-615.2634 69.9892,-683.2626 116,-713 157.8269,-740.0332 215.4031,-742.5919 257.5985,-739.6983"/>
<polygon fill="#191970" stroke="#191970" points="258.019,-743.1758 267.7047,-738.882 257.4554,-736.1985 258.019,-743.1758"/>
</g>
<!-- Node90 -->
<g id="node8" class="node">
<title>Node90</title>
<g id="a_node8"><a xlink:href="$_a_e_s_8c.html#ad82d1b77336ac1292ed5a24b92380f42" xlink:title="IVHexToAscii &#45; Function to convert a initialization vector from a Hex string passed in as a paramter...">
<polygon fill="#ffffff" stroke="#000000" points="128,-684.5 128,-703.5 205,-703.5 205,-684.5 128,-684.5"/>
<text text-anchor="middle" x="166.5" y="-691.5" font-family="Helvetica,sans-Serif" font-size="10.00" fill="#000000">IVHexToAscii</text>
</a>
</g>
</g>
<!-- Node83&#45;&gt;Node90 -->
<g id="edge7" class="edge">
<title>Node83&#45;&gt;Node90</title>
<path fill="none" stroke="#191970" d="M45.3793,-589.7816C56.2935,-608.7832 82.8413,-650.9272 116,-675 118.5335,-676.8393 121.2662,-678.5222 124.103,-680.0581"/>
<polygon fill="#191970" stroke="#191970" points="122.8666,-683.3456 133.401,-684.4753 125.8703,-677.0228 122.8666,-683.3456"/>
</g>
<!-- Node91 -->
<g id="node9" class="node">
<title>Node91</title>
<g id="a_node9"><a xlink:href="$_a_e_s_8c.html#a0e0b199ded54d7fb53a3bda3fcc02256" xlink:title="validateNumRounds &#45; Function that validates the number of rounds that have been passed in by the ...">
<polygon fill="#ffffff" stroke="#000000" points="410,-76.5 410,-95.5 515,-95.5 515,-76.5 410,-76.5"/>
<text text-anchor="middle" x="462.5" y="-83.5" font-family="Helvetica,sans-Serif" font-size="10.00" fill="#000000">validateNumRounds</text>
</a>
</g>
</g>
<!-- Node83&#45;&gt;Node91 -->
<g id="edge11" class="edge">
<title>Node83&#45;&gt;Node91</title>
<path fill="none" stroke="#191970" d="M40.1996,-570.3584C42.0434,-509.9436 60.8828,-182.4597 253,-70 308.6366,-37.432 387.3025,-57.4573 430.6839,-72.9807"/>
<polygon fill="#191970" stroke="#191970" points="429.5587,-76.2964 440.1516,-76.4994 431.9974,-69.7349 429.5587,-76.2964"/>
</g>
<!-- Node92 -->
<g id="node10" class="node">
<title>Node92</title>
<g id="a_node10"><a xlink:href="$_a_e_s_8c.html#acc2acf0b03a8863f9290bdd36dd6f478" xlink:title="Get the output file name from all the parameters passed in. ">
<polygon fill="#ffffff" stroke="#000000" points="116,-570.5 116,-589.5 217,-589.5 217,-570.5 116,-570.5"/>
<text text-anchor="middle" x="166.5" y="-577.5" font-family="Helvetica,sans-Serif" font-size="10.00" fill="#000000">getOutputFileName</text>
</a>
</g>
</g>
<!-- Node83&#45;&gt;Node92 -->
<g id="edge12" class="edge">
<title>Node83&#45;&gt;Node92</title>
<path fill="none" stroke="#191970" d="M80.0254,-580C88.1414,-580 96.8499,-580 105.5022,-580"/>
<polygon fill="#191970" stroke="#191970" points="105.5945,-583.5001 115.5944,-580 105.5944,-576.5001 105.5945,-583.5001"/>
</g>
<!-- Node95 -->
<g id="node13" class="node">
<title>Node95</title>
<g id="a_node13"><a xlink:href="$_a_e_s_8c.html#a41cef4df290905c4d632ce1357d0a9bd" xlink:title="AESEncrypt &#45; Function to encrypt a single block of plaintext passed in as parameter &#160;plainText using ...">
<polygon fill="#ffffff" stroke="#000000" points="131,-323.5 131,-342.5 202,-342.5 202,-323.5 131,-323.5"/>
<text text-anchor="middle" x="166.5" y="-330.5" font-family="Helvetica,sans-Serif" font-size="10.00" fill="#000000">AESEncrypt</text>
</a>
</g>
</g>
<!-- Node83&#45;&gt;Node95 -->
<g id="edge15" class="edge">
<title>Node83&#45;&gt;Node95</title>
<path fill="none" stroke="#191970" d="M44.9589,-570.3173C63.8908,-533.3516 131.8115,-400.7318 157.0064,-351.5369"/>
<polygon fill="#191970" stroke="#191970" points="160.1321,-353.1118 161.5753,-342.6158 153.9016,-349.9209 160.1321,-353.1118"/>
</g>
<!-- Node110 -->
<g id="node28" class="node">
<title>Node110</title>
<g id="a_node28"><a xlink:href="$_a_e_s_8c.html#ab601c369ba50730fc02d03bc44aad4e0" xlink:title="XORBlocks &#45; Function to XOR two blocks of length. ">
<polygon fill="#ffffff" stroke="#000000" points="132.5,-.5 132.5,-19.5 200.5,-19.5 200.5,-.5 132.5,-.5"/>
<text text-anchor="middle" x="166.5" y="-7.5" font-family="Helvetica,sans-Serif" font-size="10.00" fill="#000000">XORBlocks</text>
</a>
</g>
</g>
<!-- Node83&#45;&gt;Node110 -->
<g id="edge39" class="edge">
<title>Node83&#45;&gt;Node110</title>
<path fill="none" stroke="#191970" d="M40.1268,-570.1764C41.1576,-504.0801 49.9253,-124.1062 116,-34 118.5831,-30.4774 121.8185,-27.4516 125.397,-24.8569"/>
<polygon fill="#191970" stroke="#191970" points="127.4547,-27.7038 134.2242,-19.5537 123.8498,-21.7034 127.4547,-27.7038"/>
</g>
<!-- Node84&#45;&gt;Node85 -->
<g id="edge2" class="edge">
<title>Node84&#45;&gt;Node85</title>
<path fill="none" stroke="#191970" d="M201.5666,-665.5083C217.1835,-669.273 235.8801,-673.1419 253,-675 306.4638,-680.8026 327.378,-701.8037 374,-675 424.1638,-646.1601 448.5541,-576.7339 457.8413,-542.6072"/>
<polygon fill="#191970" stroke="#191970" points="461.2461,-543.4196 460.3394,-532.8636 454.4654,-541.681 461.2461,-543.4196"/>
</g>
<!-- Node84&#45;&gt;Node86 -->
<g id="edge3" class="edge">
<title>Node84&#45;&gt;Node86</title>
<path fill="none" stroke="#191970" d="M208.2311,-656C220.6769,-656 234.6277,-656 248.2006,-656"/>
<polygon fill="#191970" stroke="#191970" points="248.4752,-659.5001 258.4752,-656 248.4751,-652.5001 248.4752,-659.5001"/>
</g>
<!-- Node84&#45;&gt;Node87 -->
<g id="edge4" class="edge">
<title>Node84&#45;&gt;Node87</title>
<path fill="none" stroke="#191970" d="M197.5591,-665.548C204.2008,-668.1689 211.0139,-671.3225 217,-675 235.4939,-686.3616 234.6079,-696.4742 253,-708 259.3853,-712.0015 266.5494,-715.5468 273.6532,-718.6022"/>
<polygon fill="#191970" stroke="#191970" points="272.6407,-721.9677 283.224,-722.4616 275.2586,-715.4756 272.6407,-721.9677"/>
</g>
<!-- Node88 -->
<g id="node6" class="node">
<title>Node88</title>
<g id="a_node6"><a xlink:href="$_a_e_s_8c.html#aa177516503b10de65b504a3714073ad7" xlink:title="hexToAscii &#45; Function that converts a given hex value to its ASCII equivalent. ">
<polygon fill="#ffffff" stroke="#000000" points="430,-722.5 430,-741.5 495,-741.5 495,-722.5 430,-722.5"/>
<text text-anchor="middle" x="462.5" y="-729.5" font-family="Helvetica,sans-Serif" font-size="10.00" fill="#000000">hexToAscii</text>
</a>
</g>
</g>
<!-- Node87&#45;&gt;Node88 -->
<g id="edge5" class="edge">
<title>Node87&#45;&gt;Node88</title>
<path fill="none" stroke="#191970" d="M359.0145,-732C378.2224,-732 400.4758,-732 419.4138,-732"/>
<polygon fill="#191970" stroke="#191970" points="419.5534,-735.5001 429.5534,-732 419.5533,-728.5001 419.5534,-735.5001"/>
</g>
<!-- Node89 -->
<g id="node7" class="node">
<title>Node89</title>
<g id="a_node7"><a xlink:href="$_a_e_s_8c.html#a7e5ab2188af44718071074f450963568" xlink:title="hexToInt &#45; Function that converts a given hex value into an integer. ">
<polygon fill="#ffffff" stroke="#000000" points="568,-722.5 568,-741.5 623,-741.5 623,-722.5 568,-722.5"/>
<text text-anchor="middle" x="595.5" y="-729.5" font-family="Helvetica,sans-Serif" font-size="10.00" fill="#000000">hexToInt</text>
</a>
</g>
</g>
<!-- Node88&#45;&gt;Node89 -->
<g id="edge6" class="edge">
<title>Node88&#45;&gt;Node89</title>
<path fill="none" stroke="#191970" d="M495.0355,-732C513.9398,-732 537.85,-732 557.6014,-732"/>
<polygon fill="#191970" stroke="#191970" points="557.7947,-735.5001 567.7946,-732 557.7946,-728.5001 557.7947,-735.5001"/>
</g>
<!-- Node90&#45;&gt;Node87 -->
<g id="edge8" class="edge">
<title>Node90&#45;&gt;Node87</title>
<path fill="none" stroke="#191970" d="M203.5943,-703.589C222.8178,-708.5583 246.4863,-714.6767 266.9294,-719.9613"/>
<polygon fill="#191970" stroke="#191970" points="266.1147,-723.3657 276.6724,-722.4799 267.8667,-716.5885 266.1147,-723.3657"/>
</g>
<!-- Node93 -->
<g id="node11" class="node">
<title>Node93</title>
<g id="a_node11"><a xlink:href="$_a_e_s_8c.html#a9dcad0047890de22f3d15611a10ab74f" xlink:title="Returns the last index of &#39;/&#39; in a given path, otherwise returns &#45;1 if no &#39;/&#39; is found. ">
<polygon fill="#ffffff" stroke="#000000" points="267.5,-608.5 267.5,-627.5 359.5,-627.5 359.5,-608.5 267.5,-608.5"/>
<text text-anchor="middle" x="313.5" y="-615.5" font-family="Helvetica,sans-Serif" font-size="10.00" fill="#000000">fileNameDirIndex</text>
</a>
</g>
</g>
<!-- Node92&#45;&gt;Node93 -->
<g id="edge13" class="edge">
<title>Node92&#45;&gt;Node93</title>
<path fill="none" stroke="#191970" d="M203.5943,-589.589C222.8178,-594.5583 246.4863,-600.6767 266.9294,-605.9613"/>
<polygon fill="#191970" stroke="#191970" points="266.1147,-609.3657 276.6724,-608.4799 267.8667,-602.5885 266.1147,-609.3657"/>
</g>
<!-- Node94 -->
<g id="node12" class="node">
<title>Node94</title>
<g id="a_node12"><a xlink:href="$_a_e_s_8c.html#ab066697b473ad5ce74faaceae6def5e5" xlink:title="Removes path from the provided path to a file and returns only the file name. ">
<polygon fill="#ffffff" stroke="#000000" points="276,-570.5 276,-589.5 351,-589.5 351,-570.5 276,-570.5"/>
<text text-anchor="middle" x="313.5" y="-577.5" font-family="Helvetica,sans-Serif" font-size="10.00" fill="#000000">stripDirectory</text>
</a>
</g>
</g>
<!-- Node92&#45;&gt;Node94 -->
<g id="edge14" class="edge">
<title>Node92&#45;&gt;Node94</title>
<path fill="none" stroke="#191970" d="M217.0891,-580C232.7441,-580 249.9399,-580 265.42,-580"/>
<polygon fill="#191970" stroke="#191970" points="265.8228,-583.5001 275.8228,-580 265.8228,-576.5001 265.8228,-583.5001"/>
</g>
<!-- Node95&#45;&gt;Node85 -->
<g id="edge17" class="edge">
<title>Node95&#45;&gt;Node85</title>
<path fill="none" stroke="#191970" d="M168.9405,-342.7792C176.3337,-370.2182 201.2215,-448.3133 253,-485 298.8903,-517.5147 364.2339,-524.8031 409.6977,-525.3657"/>
<polygon fill="#191970" stroke="#191970" points="409.9354,-528.866 419.9414,-525.3834 409.9476,-521.866 409.9354,-528.866"/>
</g>
<!-- Node95&#45;&gt;Node86 -->
<g id="edge16" class="edge">
<title>Node95&#45;&gt;Node86</title>
<path fill="none" stroke="#191970" d="M168.6682,-342.6328C179.8411,-391.9401 231.2329,-614.6352 253,-637 254.4109,-638.4497 255.931,-639.7891 257.5373,-641.0267"/>
<polygon fill="#191970" stroke="#191970" points="255.8413,-644.0936 266.1811,-646.4045 259.5392,-638.15 255.8413,-644.0936"/>
</g>
<!-- Node95&#45;&gt;Node91 -->
<g id="edge18" class="edge">
<title>Node95&#45;&gt;Node91</title>
<path fill="none" stroke="#191970" d="M166.7928,-323.1091C168.4501,-286.9031 179.4887,-160.8042 253,-105 294.6469,-73.3848 355.2374,-71.1894 400.5562,-75.3954"/>
<polygon fill="#191970" stroke="#191970" points="400.2501,-78.8824 410.5618,-76.4496 400.9836,-71.9209 400.2501,-78.8824"/>
</g>
<!-- Node96 -->
<g id="node14" class="node">
<title>Node96</title>
<g id="a_node14"><a xlink:href="$_a_e_s_8c.html#acefcd728377e1e14187fa8fcd20f4064" xlink:title="validatePlainTextLength &#45; Function that validates the length of the plaintext. The validation is done...">
<polygon fill="#ffffff" stroke="#000000" points="253,-228.5 253,-247.5 374,-247.5 374,-228.5 253,-228.5"/>
<text text-anchor="middle" x="313.5" y="-235.5" font-family="Helvetica,sans-Serif" font-size="10.00" fill="#000000">validatePlainTextLength</text>
</a>
</g>
</g>
<!-- Node95&#45;&gt;Node96 -->
<g id="edge19" class="edge">
<title>Node95&#45;&gt;Node96</title>
<path fill="none" stroke="#191970" d="M176.1173,-323.3757C191.3288,-308.575 222.3685,-280.0496 253,-262 259.6261,-258.0956 267.0054,-254.5708 274.269,-251.4998"/>
<polygon fill="#191970" stroke="#191970" points="276.035,-254.5632 284.0205,-247.6003 273.4358,-248.0635 276.035,-254.5632"/>
</g>
<!-- Node97 -->
<g id="node15" class="node">
<title>Node97</title>
<g id="a_node15"><a xlink:href="$_a_e_s_8c.html#a1c1a633a58f7328faa397db9e45e7e0c" xlink:title="constructStateArray &#45; Function to convert the state array from a flat 1D array to a multidimensional ...">
<polygon fill="#ffffff" stroke="#000000" points="261.5,-190.5 261.5,-209.5 365.5,-209.5 365.5,-190.5 261.5,-190.5"/>
<text text-anchor="middle" x="313.5" y="-197.5" font-family="Helvetica,sans-Serif" font-size="10.00" fill="#000000">constructStateArray</text>
</a>
</g>
</g>
<!-- Node95&#45;&gt;Node97 -->
<g id="edge20" class="edge">
<title>Node95&#45;&gt;Node97</title>
<path fill="none" stroke="#191970" d="M171.1065,-323.4533C182.1249,-301.6225 212.1555,-247.7298 253,-219 255.8323,-217.0078 258.8819,-215.2183 262.0526,-213.6118"/>
<polygon fill="#191970" stroke="#191970" points="263.5001,-216.7987 271.2294,-209.5525 260.6682,-210.3971 263.5001,-216.7987"/>
</g>
<!-- Node98 -->
<g id="node16" class="node">
<title>Node98</title>
<g id="a_node16"><a xlink:href="$_a_e_s_8c.html#ae9af90db32afa65125a7eec339ed9d58" xlink:title="printStateArray &#45; Function to print the state array to the terminal in hex format. ">
<polygon fill="#ffffff" stroke="#000000" points="272.5,-152.5 272.5,-171.5 354.5,-171.5 354.5,-152.5 272.5,-152.5"/>
<text text-anchor="middle" x="313.5" y="-159.5" font-family="Helvetica,sans-Serif" font-size="10.00" fill="#000000">printStateArray</text>
</a>
</g>
</g>
<!-- Node95&#45;&gt;Node98 -->
<g id="edge21" class="edge">
<title>Node95&#45;&gt;Node98</title>
<path fill="none" stroke="#191970" d="M169.2986,-323.155C177.4643,-296.2144 203.8476,-220.6551 253,-181 256.0927,-178.5049 259.5159,-176.3357 263.115,-174.4501"/>
<polygon fill="#191970" stroke="#191970" points="264.6381,-177.603 272.3356,-170.323 261.7783,-171.2138 264.6381,-177.603"/>
</g>
<!-- Node99 -->
<g id="node17" class="node">
<title>Node99</title>
<g id="a_node17"><a xlink:href="$_a_e_s_8c.html#a185c827e4ccbc8e4608e83dfbf9dfc8e" xlink:title="RijndaelKeySchedule &#45; Function that performs the Rijndael key scheduling for AES encryption. Takes in the original key passed in as parameter. ">
<polygon fill="#ffffff" stroke="#000000" points="258.5,-304.5 258.5,-323.5 368.5,-323.5 368.5,-304.5 258.5,-304.5"/>
<text text-anchor="middle" x="313.5" y="-311.5" font-family="Helvetica,sans-Serif" font-size="10.00" fill="#000000">RijndaelKeySchedule</text>
</a>
</g>
</g>
<!-- Node95&#45;&gt;Node99 -->
<g id="edge22" class="edge">
<title>Node95&#45;&gt;Node99</title>
<path fill="none" stroke="#191970" d="M202.0846,-328.4006C215.9554,-326.6078 232.3071,-324.4943 248.1478,-322.4469"/>
<polygon fill="#191970" stroke="#191970" points="248.9835,-325.8681 258.4523,-321.115 248.0861,-318.9258 248.9835,-325.8681"/>
</g>
<!-- Node104 -->
<g id="node22" class="node">
<title>Node104</title>
<g id="a_node22"><a xlink:href="$_a_e_s_8c.html#abe15a731f43315f6f595674d3cd62d57" xlink:title="getRoundKey &#45; Function to extract the correct sub&#45;key to use for the appropriate round specified by ...">
<polygon fill="#ffffff" stroke="#000000" points="275.5,-114.5 275.5,-133.5 351.5,-133.5 351.5,-114.5 275.5,-114.5"/>
<text text-anchor="middle" x="313.5" y="-121.5" font-family="Helvetica,sans-Serif" font-size="10.00" fill="#000000">getRoundKey</text>
</a>
</g>
</g>
<!-- Node95&#45;&gt;Node104 -->
<g id="edge30" class="edge">
<title>Node95&#45;&gt;Node104</title>
<path fill="none" stroke="#191970" d="M168.0286,-323.4839C173.4874,-292.6268 194.8905,-194.3719 253,-143 256.8702,-139.5785 261.3542,-136.773 266.0969,-134.4725"/>
<polygon fill="#191970" stroke="#191970" points="267.5172,-137.673 275.4429,-130.6421 264.8625,-131.1959 267.5172,-137.673"/>
</g>
<!-- Node105 -->
<g id="node23" class="node">
<title>Node105</title>
<g id="a_node23"><a xlink:href="$_a_e_s_8c.html#aef4d8fc4282e3cc21708d25c0ec9ad06" xlink:title="AddRoundKey &#45; Function that performs the Bitwise XOR between state and key as per AES encryption...">
<polygon fill="#ffffff" stroke="#000000" points="273.5,-456.5 273.5,-475.5 353.5,-475.5 353.5,-456.5 273.5,-456.5"/>
<text text-anchor="middle" x="313.5" y="-463.5" font-family="Helvetica,sans-Serif" font-size="10.00" fill="#000000">AddRoundKey</text>
</a>
</g>
</g>
<!-- Node95&#45;&gt;Node105 -->
<g id="edge31" class="edge">
<title>Node95&#45;&gt;Node105</title>
<path fill="none" stroke="#191970" d="M171.7152,-342.5417C183.5445,-363.3706 214.4053,-413.3354 253,-442 258.4854,-446.074 264.7549,-449.5625 271.1321,-452.5147"/>
<polygon fill="#191970" stroke="#191970" points="269.8999,-455.7936 280.4736,-456.4621 272.6246,-449.3457 269.8999,-455.7936"/>
</g>
<!-- Node106 -->
<g id="node24" class="node">
<title>Node106</title>
<g id="a_node24"><a xlink:href="$_a_e_s_8c.html#aec40f89d2cbf831fd0d5d5f1bfa616f5" xlink:title="subBytes &#45; Function that performs the sub byte operation where each value is replaced by the s box va...">
<polygon fill="#ffffff" stroke="#000000" points="433.5,-266.5 433.5,-285.5 491.5,-285.5 491.5,-266.5 433.5,-266.5"/>
<text text-anchor="middle" x="462.5" y="-273.5" font-family="Helvetica,sans-Serif" font-size="10.00" fill="#000000">subBytes</text>
</a>
</g>
</g>
<!-- Node95&#45;&gt;Node106 -->
<g id="edge32" class="edge">
<title>Node95&#45;&gt;Node106</title>
<path fill="none" stroke="#191970" d="M183.7901,-323.4003C200.836,-314.426 227.9037,-301.4666 253,-295 310.8698,-280.0886 380.3542,-276.477 422.9618,-275.8119"/>
<polygon fill="#191970" stroke="#191970" points="423.2302,-279.3093 433.1917,-275.7012 423.1544,-272.3097 423.2302,-279.3093"/>
</g>
<!-- Node107 -->
<g id="node25" class="node">
<title>Node107</title>
<g id="a_node25"><a xlink:href="$_a_e_s_8c.html#abeb4dba64fcf4d07eac178e732ca6aa8" xlink:title="ShiftRows &#45; Function to shift the state array according to the AES encryption standard for 128 &#45; bits...">
<polygon fill="#ffffff" stroke="#000000" points="431.5,-409.5 431.5,-428.5 493.5,-428.5 493.5,-409.5 431.5,-409.5"/>
<text text-anchor="middle" x="462.5" y="-416.5" font-family="Helvetica,sans-Serif" font-size="10.00" fill="#000000">ShiftRows</text>
</a>
</g>
</g>
<!-- Node95&#45;&gt;Node107 -->
<g id="edge34" class="edge">
<title>Node95&#45;&gt;Node107</title>
<path fill="none" stroke="#191970" d="M173.7625,-342.7105C187.1962,-359.7939 217.7884,-394.7608 253,-409 307.8871,-431.1958 377.5639,-429.231 421.1024,-424.8423"/>
<polygon fill="#191970" stroke="#191970" points="421.7584,-428.2914 431.316,-423.7195 420.9934,-421.3333 421.7584,-428.2914"/>
</g>
<!-- Node108 -->
<g id="node26" class="node">
<title>Node108</title>
<g id="a_node26"><a xlink:href="$_a_e_s_8c.html#aca09b30896a351db6587639a1cc1bf0d" xlink:title="mixColumns &#45; Function that performs the MixColumns step of AES as specified by AES encryption...">
<polygon fill="#ffffff" stroke="#000000" points="278,-380.5 278,-399.5 349,-399.5 349,-380.5 278,-380.5"/>
<text text-anchor="middle" x="313.5" y="-387.5" font-family="Helvetica,sans-Serif" font-size="10.00" fill="#000000">mixColumns</text>
</a>
</g>
</g>
<!-- Node95&#45;&gt;Node108 -->
<g id="edge36" class="edge">
<title>Node95&#45;&gt;Node108</title>
<path fill="none" stroke="#191970" d="M186.5156,-342.541C203.8839,-350.6388 229.8121,-362.2955 253,-371 258.8846,-373.209 265.1537,-375.3778 271.343,-377.4143"/>
<polygon fill="#191970" stroke="#191970" points="270.3454,-380.7699 280.9366,-380.4926 272.4841,-374.1046 270.3454,-380.7699"/>
</g>
<!-- Node109 -->
<g id="node27" class="node">
<title>Node109</title>
<g id="a_node27"><a xlink:href="$_a_e_s_8c.html#aaba2e1b9466483b3c6b8669eb42aa5ed" xlink:title="printAESBlock &#45; Function to print a single block in hex format to the terminal. ">
<polygon fill="#ffffff" stroke="#000000" points="273.5,-342.5 273.5,-361.5 353.5,-361.5 353.5,-342.5 273.5,-342.5"/>
<text text-anchor="middle" x="313.5" y="-349.5" font-family="Helvetica,sans-Serif" font-size="10.00" fill="#000000">printAESBlock</text>
</a>
</g>
</g>
<!-- Node95&#45;&gt;Node109 -->
<g id="edge37" class="edge">
<title>Node95&#45;&gt;Node109</title>
<path fill="none" stroke="#191970" d="M202.0846,-337.5994C220.4751,-339.9764 243.2268,-342.9171 263.3661,-345.5201"/>
<polygon fill="#191970" stroke="#191970" points="262.9502,-348.9954 273.3164,-346.8062 263.8476,-342.0531 262.9502,-348.9954"/>
</g>
<!-- Node99&#45;&gt;Node85 -->
<g id="edge23" class="edge">
<title>Node99&#45;&gt;Node85</title>
<path fill="none" stroke="#191970" d="M360.017,-323.5005C365.1582,-325.9706 369.9785,-329.0817 374,-333 409.3345,-367.4275 388.9069,-393.4034 410,-438 421.5134,-462.3424 438.3705,-488.4211 449.8557,-505.1776"/>
<polygon fill="#191970" stroke="#191970" points="447.0317,-507.2471 455.6156,-513.4574 452.7781,-503.2496 447.0317,-507.2471"/>
</g>
<!-- Node99&#45;&gt;Node91 -->
<g id="edge24" class="edge">
<title>Node99&#45;&gt;Node91</title>
<path fill="none" stroke="#191970" d="M326.2854,-304.1368C339.4322,-293.5306 359.9194,-275.662 374,-257 411.9699,-206.676 442.0251,-137.6962 455.2207,-104.858"/>
<polygon fill="#191970" stroke="#191970" points="458.4844,-106.1222 458.9013,-95.5356 451.9735,-103.5516 458.4844,-106.1222"/>
</g>
<!-- Node100 -->
<g id="node18" class="node">
<title>Node100</title>
<g id="a_node18"><a xlink:href="$_a_e_s_8c.html#af2f914cf17729a0ee89102c98b39665e" xlink:title="KeyScheduleCore &#45; Function that performs the key schedule core for the Rijndael Key Schedule...">
<polygon fill="#ffffff" stroke="#000000" points="415,-342.5 415,-361.5 510,-361.5 510,-342.5 415,-342.5"/>
<text text-anchor="middle" x="462.5" y="-349.5" font-family="Helvetica,sans-Serif" font-size="10.00" fill="#000000">KeyScheduleCore</text>
</a>
</g>
</g>
<!-- Node99&#45;&gt;Node100 -->
<g id="edge25" class="edge">
<title>Node99&#45;&gt;Node100</title>
<path fill="none" stroke="#191970" d="M351.099,-323.589C370.584,-328.5583 394.5745,-334.6767 415.2958,-339.9613"/>
<polygon fill="#191970" stroke="#191970" points="414.6166,-343.4001 425.1714,-342.4799 416.3465,-336.6172 414.6166,-343.4001"/>
</g>
<!-- Node102 -->
<g id="node20" class="node">
<title>Node102</title>
<g id="a_node20"><a xlink:href="$_a_e_s_8c.html#acdf4abe2846c02b4d3e674782807fdfa" xlink:title="getSBoxValue &#45; Function to return the sBox value passed in as a parameter ">
<polygon fill="#ffffff" stroke="#000000" points="556,-304.5 556,-323.5 635,-323.5 635,-304.5 556,-304.5"/>
<text text-anchor="middle" x="595.5" y="-311.5" font-family="Helvetica,sans-Serif" font-size="10.00" fill="#000000">getSBoxValue</text>
</a>
</g>
</g>
<!-- Node99&#45;&gt;Node102 -->
<g id="edge29" class="edge">
<title>Node99&#45;&gt;Node102</title>
<path fill="none" stroke="#191970" d="M368.5419,-314C419.8695,-314 495.7719,-314 545.4315,-314"/>
<polygon fill="#191970" stroke="#191970" points="545.6117,-317.5001 555.6117,-314 545.6116,-310.5001 545.6117,-317.5001"/>
</g>
<!-- Node101 -->
<g id="node19" class="node">
<title>Node101</title>
<g id="a_node19"><a xlink:href="$_a_e_s_8c.html#ac769b0533ccecd203cc3ab64e6b2f950" xlink:title="SingleRotateLeft &#45; Function to rotate the array passed in as a paramter. ">
<polygon fill="#ffffff" stroke="#000000" points="551,-399.5 551,-418.5 640,-418.5 640,-399.5 551,-399.5"/>
<text text-anchor="middle" x="595.5" y="-406.5" font-family="Helvetica,sans-Serif" font-size="10.00" fill="#000000">SingleRotateLeft</text>
</a>
</g>
</g>
<!-- Node100&#45;&gt;Node101 -->
<g id="edge26" class="edge">
<title>Node100&#45;&gt;Node101</title>
<path fill="none" stroke="#191970" d="M484.7612,-361.5405C506.4352,-370.8294 539.5835,-385.0358 563.9667,-395.4857"/>
<polygon fill="#191970" stroke="#191970" points="562.596,-398.7061 573.1662,-399.4284 565.3534,-392.2721 562.596,-398.7061"/>
</g>
<!-- Node100&#45;&gt;Node102 -->
<g id="edge27" class="edge">
<title>Node100&#45;&gt;Node102</title>
<path fill="none" stroke="#191970" d="M496.0615,-342.411C513.073,-337.5506 533.9319,-331.5909 552.1446,-326.3873"/>
<polygon fill="#191970" stroke="#191970" points="553.2955,-329.6986 561.9492,-323.5859 551.3724,-322.9679 553.2955,-329.6986"/>
</g>
<!-- Node103 -->
<g id="node21" class="node">
<title>Node103</title>
<g id="a_node21"><a xlink:href="$_a_e_s_8c.html#a4e58d2e928429bc56387394251b8ece5" xlink:title="getRconValue &#45; Function to return the Rcon value for the index passed in as a parameter ...">
<polygon fill="#ffffff" stroke="#000000" points="556.5,-342.5 556.5,-361.5 634.5,-361.5 634.5,-342.5 556.5,-342.5"/>
<text text-anchor="middle" x="595.5" y="-349.5" font-family="Helvetica,sans-Serif" font-size="10.00" fill="#000000">getRconValue</text>
</a>
</g>
</g>
<!-- Node100&#45;&gt;Node103 -->
<g id="edge28" class="edge">
<title>Node100&#45;&gt;Node103</title>
<path fill="none" stroke="#191970" d="M510.1404,-352C521.7856,-352 534.272,-352 546.0019,-352"/>
<polygon fill="#191970" stroke="#191970" points="546.0751,-355.5001 556.0751,-352 546.0751,-348.5001 546.0751,-355.5001"/>
</g>
<!-- Node106&#45;&gt;Node102 -->
<g id="edge33" class="edge">
<title>Node106&#45;&gt;Node102</title>
<path fill="none" stroke="#191970" d="M491.6874,-284.3393C509.4802,-289.4229 532.542,-296.012 552.4087,-301.6882"/>
<polygon fill="#191970" stroke="#191970" points="551.587,-305.0934 562.1637,-304.4754 553.5101,-298.3627 551.587,-305.0934"/>
</g>
<!-- Node107&#45;&gt;Node101 -->
<g id="edge35" class="edge">
<title>Node107&#45;&gt;Node101</title>
<path fill="none" stroke="#191970" d="M493.6826,-416.6554C507.6647,-415.6042 524.5814,-414.3322 540.5762,-413.1296"/>
<polygon fill="#191970" stroke="#191970" points="541.2044,-416.5923 550.9138,-412.3523 540.6795,-409.612 541.2044,-416.5923"/>
</g>
</g>
</svg>
