<?xml version="1.0" encoding="UTF-8" standalone="no"?>
<!DOCTYPE svg PUBLIC "-//W3C//DTD SVG 1.1//EN"
 "http://www.w3.org/Graphics/SVG/1.1/DTD/svg11.dtd">
<!-- Generated by graphviz version 2.40.1 (20161225.0304)
 -->
<!-- Title: cfbEncrypt Pages: 1 -->
<svg width="614pt" height="697pt"
 viewBox="0.00 0.00 614.00 697.25" xmlns="http://www.w3.org/2000/svg" xmlns:xlink="http://www.w3.org/1999/xlink">
<g id="graph0" class="graph" transform="scale(1 1) rotate(0) translate(4 693.2486)">
<title>cfbEncrypt</title>
<polygon fill="#ffffff" stroke="transparent" points="-4,4 -4,-693.2486 610,-693.2486 610,4 -4,4"/>
<!-- Node57 -->
<g id="node1" class="node">
<title>Node57</title>
<polygon fill="#bfbfbf" stroke="#000000" points="0,-551.5 0,-570.5 64,-570.5 64,-551.5 0,-551.5"/>
<text text-anchor="middle" x="32" y="-558.5" font-family="Helvetica,sans-Serif" font-size="10.00" fill="#000000">cfbEncrypt</text>
</g>
<!-- Node58 -->
<g id="node2" class="node">
<title>Node58</title>
<g id="a_node2"><a xlink:href="$_a_e_s_8c.html#ad697cbb5d9e462b3017df1f1d939ee96" xlink:title="hexToAsciiString &#45; Function that converts a given string of hex values into its ASCII equivalent...">
<polygon fill="#ffffff" stroke="#000000" points="234,-646.5 234,-665.5 325,-665.5 325,-646.5 234,-646.5"/>
<text text-anchor="middle" x="279.5" y="-653.5" font-family="Helvetica,sans-Serif" font-size="10.00" fill="#000000">hexToAsciiString</text>
</a>
</g>
</g>
<!-- Node57&#45;&gt;Node58 -->
<g id="edge1" class="edge">
<title>Node57&#45;&gt;Node58</title>
<path fill="none" stroke="#191970" d="M34.3062,-570.665C40.3977,-593.7512 59.3203,-651.8981 100,-675 146.902,-701.6355 211.8773,-683.866 249.4213,-669.3617"/>
<polygon fill="#191970" stroke="#191970" points="250.8285,-672.5682 258.7967,-665.5855 248.2132,-666.0751 250.8285,-672.5682"/>
</g>
<!-- Node61 -->
<g id="node5" class="node">
<title>Node61</title>
<g id="a_node5"><a xlink:href="$_a_e_s_8c.html#afba897e91364663f883cc51ed309dc92" xlink:title="keyHexToAscii &#45; Function to convert a key from a Hex string passed in as a paramter ...">
<polygon fill="#ffffff" stroke="#000000" points="100,-570.5 100,-589.5 183,-589.5 183,-570.5 100,-570.5"/>
<text text-anchor="middle" x="141.5" y="-577.5" font-family="Helvetica,sans-Serif" font-size="10.00" fill="#000000">keyHexToAscii</text>
</a>
</g>
</g>
<!-- Node57&#45;&gt;Node61 -->
<g id="edge4" class="edge">
<title>Node57&#45;&gt;Node61</title>
<path fill="none" stroke="#191970" d="M64.2614,-566.5979C72.2417,-567.9826 80.9935,-569.5012 89.6485,-571.0029"/>
<polygon fill="#191970" stroke="#191970" points="89.261,-574.4879 99.7122,-572.7492 90.4578,-567.591 89.261,-574.4879"/>
</g>
<!-- Node62 -->
<g id="node6" class="node">
<title>Node62</title>
<g id="a_node6"><a xlink:href="$_a_e_s_8c.html#a1c2a403d95a85400bbae142d48cb8c9d" xlink:title="getNumRounds &#45; Function to return the number of rounds of AES encryption and decryption based off of ...">
<polygon fill="#ffffff" stroke="#000000" points="386,-532.5 386,-551.5 471,-551.5 471,-532.5 386,-532.5"/>
<text text-anchor="middle" x="428.5" y="-539.5" font-family="Helvetica,sans-Serif" font-size="10.00" fill="#000000">getNumRounds</text>
</a>
</g>
</g>
<!-- Node57&#45;&gt;Node62 -->
<g id="edge11" class="edge">
<title>Node57&#45;&gt;Node62</title>
<path fill="none" stroke="#191970" d="M44.6817,-570.7226C57.7328,-580.0659 79.0604,-593.5461 100,-599 203.5128,-625.9606 236.7568,-608.9755 340,-581 361.5399,-575.1634 384.5694,-564.8745 401.7353,-556.3298"/>
<polygon fill="#191970" stroke="#191970" points="403.7922,-559.2097 411.1092,-551.5473 400.6109,-552.9743 403.7922,-559.2097"/>
</g>
<!-- Node63 -->
<g id="node7" class="node">
<title>Node63</title>
<g id="a_node7"><a xlink:href="$_a_e_s_8c.html#a5d65eac115e562c64b00a43e72ee6aca" xlink:title="getPaddedKeyLength &#45; Function to return a valid key length (in bytes) based off of the current key le...">
<polygon fill="#ffffff" stroke="#000000" points="224.5,-532.5 224.5,-551.5 334.5,-551.5 334.5,-532.5 224.5,-532.5"/>
<text text-anchor="middle" x="279.5" y="-539.5" font-family="Helvetica,sans-Serif" font-size="10.00" fill="#000000">getPaddedKeyLength</text>
</a>
</g>
</g>
<!-- Node57&#45;&gt;Node63 -->
<g id="edge10" class="edge">
<title>Node57&#45;&gt;Node63</title>
<path fill="none" stroke="#191970" d="M64.1026,-558.5356C101.9567,-555.6296 165.8398,-550.7254 214.2304,-547.0106"/>
<polygon fill="#191970" stroke="#191970" points="214.6036,-550.4923 224.3063,-546.2371 214.0677,-543.5129 214.6036,-550.4923"/>
</g>
<!-- Node64 -->
<g id="node8" class="node">
<title>Node64</title>
<g id="a_node8"><a xlink:href="$_a_e_s_8c.html#ad82d1b77336ac1292ed5a24b92380f42" xlink:title="IVHexToAscii &#45; Function to convert a initialization vector from a Hex string passed in as a paramter...">
<polygon fill="#ffffff" stroke="#000000" points="103,-646.5 103,-665.5 180,-665.5 180,-646.5 103,-646.5"/>
<text text-anchor="middle" x="141.5" y="-653.5" font-family="Helvetica,sans-Serif" font-size="10.00" fill="#000000">IVHexToAscii</text>
</a>
</g>
</g>
<!-- Node57&#45;&gt;Node64 -->
<g id="edge8" class="edge">
<title>Node57&#45;&gt;Node64</title>
<path fill="none" stroke="#191970" d="M39.6364,-570.5591C51.5059,-585.0237 75.5681,-612.8161 100,-632 104.1486,-635.2575 108.7865,-638.373 113.4172,-641.2171"/>
<polygon fill="#191970" stroke="#191970" points="111.7792,-644.3134 122.1827,-646.3181 115.3001,-638.2633 111.7792,-644.3134"/>
</g>
<!-- Node65 -->
<g id="node9" class="node">
<title>Node65</title>
<g id="a_node9"><a xlink:href="$_a_e_s_8c.html#a0e0b199ded54d7fb53a3bda3fcc02256" xlink:title="validateNumRounds &#45; Function that validates the number of rounds that have been passed in by the ...">
<polygon fill="#ffffff" stroke="#000000" points="376,-266.5 376,-285.5 481,-285.5 481,-266.5 376,-266.5"/>
<text text-anchor="middle" x="428.5" y="-273.5" font-family="Helvetica,sans-Serif" font-size="10.00" fill="#000000">validateNumRounds</text>
</a>
</g>
</g>
<!-- Node57&#45;&gt;Node65 -->
<g id="edge12" class="edge">
<title>Node57&#45;&gt;Node65</title>
<path fill="none" stroke="#191970" d="M33.7662,-551.2933C40.0891,-517.5748 63.1975,-402.7424 100,-314 140.9472,-215.2634 126.5909,-158.7227 219,-105 265.492,-77.9715 294.5572,-76.2424 340,-105 371.5828,-124.9866 358.9526,-147.7385 376,-181 389.8331,-207.9901 407.0235,-238.5924 417.8822,-257.597"/>
<polygon fill="#191970" stroke="#191970" points="414.9193,-259.466 422.9322,-266.3975 420.9908,-255.982 414.9193,-259.466"/>
</g>
<!-- Node66 -->
<g id="node10" class="node">
<title>Node66</title>
<g id="a_node10"><a xlink:href="$_a_e_s_8c.html#a41cef4df290905c4d632ce1357d0a9bd" xlink:title="AESEncrypt &#45; Function to encrypt a single block of plaintext passed in as parameter &#160;plainText using ...">
<polygon fill="#ffffff" stroke="#000000" points="106,-323.5 106,-342.5 177,-342.5 177,-323.5 106,-323.5"/>
<text text-anchor="middle" x="141.5" y="-330.5" font-family="Helvetica,sans-Serif" font-size="10.00" fill="#000000">AESEncrypt</text>
</a>
</g>
</g>
<!-- Node57&#45;&gt;Node66 -->
<g id="edge13" class="edge">
<title>Node57&#45;&gt;Node66</title>
<path fill="none" stroke="#191970" d="M36.5657,-551.4934C53.1229,-517.0181 110.2051,-398.1619 132.4886,-351.7634"/>
<polygon fill="#191970" stroke="#191970" points="135.7406,-353.0767 136.9148,-342.5472 129.4305,-350.0462 135.7406,-353.0767"/>
</g>
<!-- Node81 -->
<g id="node25" class="node">
<title>Node81</title>
<g id="a_node25"><a xlink:href="$_a_e_s_8c.html#ab601c369ba50730fc02d03bc44aad4e0" xlink:title="XORBlocks &#45; Function to XOR two blocks of length. ">
<polygon fill="#ffffff" stroke="#000000" points="107.5,-.5 107.5,-19.5 175.5,-19.5 175.5,-.5 107.5,-.5"/>
<text text-anchor="middle" x="141.5" y="-7.5" font-family="Helvetica,sans-Serif" font-size="10.00" fill="#000000">XORBlocks</text>
</a>
</g>
</g>
<!-- Node57&#45;&gt;Node81 -->
<g id="edge36" class="edge">
<title>Node57&#45;&gt;Node81</title>
<path fill="none" stroke="#191970" d="M32.1057,-551.169C32.9674,-486.6332 40.4386,-123.4589 100,-34 102.2198,-30.666 105.0716,-27.7373 108.2393,-25.1794"/>
<polygon fill="#191970" stroke="#191970" points="110.2409,-28.0512 116.5843,-19.5652 106.3335,-22.2432 110.2409,-28.0512"/>
</g>
<!-- Node59 -->
<g id="node3" class="node">
<title>Node59</title>
<g id="a_node3"><a xlink:href="$_a_e_s_8c.html#aa177516503b10de65b504a3714073ad7" xlink:title="hexToAscii &#45; Function that converts a given hex value to its ASCII equivalent. ">
<polygon fill="#ffffff" stroke="#000000" points="396,-646.5 396,-665.5 461,-665.5 461,-646.5 396,-646.5"/>
<text text-anchor="middle" x="428.5" y="-653.5" font-family="Helvetica,sans-Serif" font-size="10.00" fill="#000000">hexToAscii</text>
</a>
</g>
</g>
<!-- Node58&#45;&gt;Node59 -->
<g id="edge2" class="edge">
<title>Node58&#45;&gt;Node59</title>
<path fill="none" stroke="#191970" d="M325.0145,-656C344.2224,-656 366.4758,-656 385.4138,-656"/>
<polygon fill="#191970" stroke="#191970" points="385.5534,-659.5001 395.5534,-656 385.5533,-652.5001 385.5534,-659.5001"/>
</g>
<!-- Node60 -->
<g id="node4" class="node">
<title>Node60</title>
<g id="a_node4"><a xlink:href="$_a_e_s_8c.html#a7e5ab2188af44718071074f450963568" xlink:title="hexToInt &#45; Function that converts a given hex value into an integer. ">
<polygon fill="#ffffff" stroke="#000000" points="534,-646.5 534,-665.5 589,-665.5 589,-646.5 534,-646.5"/>
<text text-anchor="middle" x="561.5" y="-653.5" font-family="Helvetica,sans-Serif" font-size="10.00" fill="#000000">hexToInt</text>
</a>
</g>
</g>
<!-- Node59&#45;&gt;Node60 -->
<g id="edge3" class="edge">
<title>Node59&#45;&gt;Node60</title>
<path fill="none" stroke="#191970" d="M461.0355,-656C479.9398,-656 503.85,-656 523.6014,-656"/>
<polygon fill="#191970" stroke="#191970" points="523.7947,-659.5001 533.7946,-656 523.7946,-652.5001 523.7947,-659.5001"/>
</g>
<!-- Node61&#45;&gt;Node58 -->
<g id="edge7" class="edge">
<title>Node61&#45;&gt;Node58</title>
<path fill="none" stroke="#191970" d="M158.9778,-589.6255C182.7231,-602.7025 225.3816,-626.1957 253.0559,-641.4366"/>
<polygon fill="#191970" stroke="#191970" points="251.7162,-644.6944 262.1641,-646.4527 255.0931,-638.5628 251.7162,-644.6944"/>
</g>
<!-- Node61&#45;&gt;Node62 -->
<g id="edge5" class="edge">
<title>Node61&#45;&gt;Node62</title>
<path fill="none" stroke="#191970" d="M183.1144,-577.4276C223.3991,-574.6053 286.1153,-569.3343 340,-561 352.6218,-559.0478 366.1493,-556.4201 378.7353,-553.7427"/>
<polygon fill="#191970" stroke="#191970" points="379.5654,-557.144 388.5919,-551.5966 378.0762,-550.3042 379.5654,-557.144"/>
</g>
<!-- Node61&#45;&gt;Node63 -->
<g id="edge6" class="edge">
<title>Node61&#45;&gt;Node63</title>
<path fill="none" stroke="#191970" d="M176.3232,-570.411C194.1377,-565.5056 216.0184,-559.4804 235.0389,-554.2429"/>
<polygon fill="#191970" stroke="#191970" points="235.976,-557.6152 244.6879,-551.5859 234.1175,-550.8664 235.976,-557.6152"/>
</g>
<!-- Node64&#45;&gt;Node58 -->
<g id="edge9" class="edge">
<title>Node64&#45;&gt;Node58</title>
<path fill="none" stroke="#191970" d="M180.3079,-656C193.6512,-656 208.8708,-656 223.3141,-656"/>
<polygon fill="#191970" stroke="#191970" points="223.6559,-659.5001 233.6558,-656 223.6558,-652.5001 223.6559,-659.5001"/>
</g>
<!-- Node66&#45;&gt;Node62 -->
<g id="edge15" class="edge">
<title>Node66&#45;&gt;Node62</title>
<path fill="none" stroke="#191970" d="M143.5196,-342.5407C149.7044,-369.3519 170.9582,-445.9541 219,-485 231.3394,-495.0288 318.431,-516.6011 376.3705,-530.1423"/>
<polygon fill="#191970" stroke="#191970" points="375.5804,-533.5519 386.1133,-532.408 377.166,-526.7338 375.5804,-533.5519"/>
</g>
<!-- Node66&#45;&gt;Node63 -->
<g id="edge14" class="edge">
<title>Node66&#45;&gt;Node63</title>
<path fill="none" stroke="#191970" d="M142.8438,-342.5084C147.5625,-372.4786 166.0553,-466.0547 219,-518 222.9825,-521.9074 227.6794,-525.2003 232.6669,-527.9704"/>
<polygon fill="#191970" stroke="#191970" points="231.3396,-531.2161 241.8667,-532.4118 234.3829,-524.9122 231.3396,-531.2161"/>
</g>
<!-- Node66&#45;&gt;Node65 -->
<g id="edge16" class="edge">
<title>Node66&#45;&gt;Node65</title>
<path fill="none" stroke="#191970" d="M156.8532,-323.3655C172.0234,-314.3653 196.2012,-301.3874 219,-295 267.0823,-281.5291 323.5641,-277.0278 365.7578,-275.7575"/>
<polygon fill="#191970" stroke="#191970" points="365.9806,-279.2531 375.8906,-275.5059 365.8068,-272.2553 365.9806,-279.2531"/>
</g>
<!-- Node67 -->
<g id="node11" class="node">
<title>Node67</title>
<g id="a_node11"><a xlink:href="$_a_e_s_8c.html#acefcd728377e1e14187fa8fcd20f4064" xlink:title="validatePlainTextLength &#45; Function that validates the length of the plaintext. The validation is done...">
<polygon fill="#ffffff" stroke="#000000" points="219,-228.5 219,-247.5 340,-247.5 340,-228.5 219,-228.5"/>
<text text-anchor="middle" x="279.5" y="-235.5" font-family="Helvetica,sans-Serif" font-size="10.00" fill="#000000">validatePlainTextLength</text>
</a>
</g>
</g>
<!-- Node66&#45;&gt;Node67 -->
<g id="edge17" class="edge">
<title>Node66&#45;&gt;Node67</title>
<path fill="none" stroke="#191970" d="M150.1284,-323.0517C163.5583,-308.0787 190.8561,-279.6313 219,-262 225.3859,-257.9994 232.5502,-254.4545 239.6541,-251.3994"/>
<polygon fill="#191970" stroke="#191970" points="241.2596,-254.5259 249.225,-247.54 238.6417,-248.0338 241.2596,-254.5259"/>
</g>
<!-- Node68 -->
<g id="node12" class="node">
<title>Node68</title>
<g id="a_node12"><a xlink:href="$_a_e_s_8c.html#a1c1a633a58f7328faa397db9e45e7e0c" xlink:title="constructStateArray &#45; Function to convert the state array from a flat 1D array to a multidimensional ...">
<polygon fill="#ffffff" stroke="#000000" points="227.5,-190.5 227.5,-209.5 331.5,-209.5 331.5,-190.5 227.5,-190.5"/>
<text text-anchor="middle" x="279.5" y="-197.5" font-family="Helvetica,sans-Serif" font-size="10.00" fill="#000000">constructStateArray</text>
</a>
</g>
</g>
<!-- Node66&#45;&gt;Node68 -->
<g id="edge18" class="edge">
<title>Node66&#45;&gt;Node68</title>
<path fill="none" stroke="#191970" d="M145.3479,-323.4477C154.6326,-301.605 180.3882,-247.6892 219,-219 221.5254,-217.1236 224.241,-215.4293 227.0727,-213.8999"/>
<polygon fill="#191970" stroke="#191970" points="228.8281,-216.9437 236.4218,-209.5554 225.8781,-210.5956 228.8281,-216.9437"/>
</g>
<!-- Node69 -->
<g id="node13" class="node">
<title>Node69</title>
<g id="a_node13"><a xlink:href="$_a_e_s_8c.html#ae9af90db32afa65125a7eec339ed9d58" xlink:title="printStateArray &#45; Function to print the state array to the terminal in hex format. ">
<polygon fill="#ffffff" stroke="#000000" points="238.5,-152.5 238.5,-171.5 320.5,-171.5 320.5,-152.5 238.5,-152.5"/>
<text text-anchor="middle" x="279.5" y="-159.5" font-family="Helvetica,sans-Serif" font-size="10.00" fill="#000000">printStateArray</text>
</a>
</g>
</g>
<!-- Node66&#45;&gt;Node69 -->
<g id="edge19" class="edge">
<title>Node66&#45;&gt;Node69</title>
<path fill="none" stroke="#191970" d="M143.6896,-323.1678C150.1933,-296.2596 171.9479,-220.7757 219,-181 222.0806,-178.3958 225.5187,-176.1478 229.149,-174.2075"/>
<polygon fill="#191970" stroke="#191970" points="230.8048,-177.3 238.4741,-169.9902 227.9203,-170.9219 230.8048,-177.3"/>
</g>
<!-- Node70 -->
<g id="node14" class="node">
<title>Node70</title>
<g id="a_node14"><a xlink:href="$_a_e_s_8c.html#a185c827e4ccbc8e4608e83dfbf9dfc8e" xlink:title="RijndaelKeySchedule &#45; Function that performs the Rijndael key scheduling for AES encryption. Takes in the original key passed in as parameter. ">
<polygon fill="#ffffff" stroke="#000000" points="224.5,-380.5 224.5,-399.5 334.5,-399.5 334.5,-380.5 224.5,-380.5"/>
<text text-anchor="middle" x="279.5" y="-387.5" font-family="Helvetica,sans-Serif" font-size="10.00" fill="#000000">RijndaelKeySchedule</text>
</a>
</g>
</g>
<!-- Node66&#45;&gt;Node70 -->
<g id="edge20" class="edge">
<title>Node66&#45;&gt;Node70</title>
<path fill="none" stroke="#191970" d="M159.0066,-342.5349C174.4923,-350.7375 197.848,-362.5495 219,-371 224.5016,-373.1979 230.3635,-375.3114 236.1911,-377.2787"/>
<polygon fill="#191970" stroke="#191970" points="235.3044,-380.6708 245.8967,-380.4408 237.4728,-374.0152 235.3044,-380.6708"/>
</g>
<!-- Node75 -->
<g id="node19" class="node">
<title>Node75</title>
<g id="a_node19"><a xlink:href="$_a_e_s_8c.html#abe15a731f43315f6f595674d3cd62d57" xlink:title="getRoundKey &#45; Function to extract the correct sub&#45;key to use for the appropriate round specified by ...">
<polygon fill="#ffffff" stroke="#000000" points="241.5,-114.5 241.5,-133.5 317.5,-133.5 317.5,-114.5 241.5,-114.5"/>
<text text-anchor="middle" x="279.5" y="-121.5" font-family="Helvetica,sans-Serif" font-size="10.00" fill="#000000">getRoundKey</text>
</a>
</g>
</g>
<!-- Node66&#45;&gt;Node75 -->
<g id="edge28" class="edge">
<title>Node66&#45;&gt;Node75</title>
<path fill="none" stroke="#191970" d="M142.5992,-323.0682C146.5914,-291.7941 163.1645,-194.3834 219,-143 222.8011,-139.5019 227.2413,-136.6479 231.9586,-134.3193"/>
<polygon fill="#191970" stroke="#191970" points="233.3785,-137.5196 241.2766,-130.4577 230.6985,-131.0529 233.3785,-137.5196"/>
</g>
<!-- Node76 -->
<g id="node20" class="node">
<title>Node76</title>
<g id="a_node20"><a xlink:href="$_a_e_s_8c.html#aef4d8fc4282e3cc21708d25c0ec9ad06" xlink:title="AddRoundKey &#45; Function that performs the Bitwise XOR between state and key as per AES encryption...">
<polygon fill="#ffffff" stroke="#000000" points="239.5,-456.5 239.5,-475.5 319.5,-475.5 319.5,-456.5 239.5,-456.5"/>
<text text-anchor="middle" x="279.5" y="-463.5" font-family="Helvetica,sans-Serif" font-size="10.00" fill="#000000">AddRoundKey</text>
</a>
</g>
</g>
<!-- Node66&#45;&gt;Node76 -->
<g id="edge29" class="edge">
<title>Node66&#45;&gt;Node76</title>
<path fill="none" stroke="#191970" d="M145.9084,-342.5634C155.9801,-363.4355 182.6447,-413.4811 219,-442 224.1344,-446.0276 230.031,-449.4595 236.0848,-452.3593"/>
<polygon fill="#191970" stroke="#191970" points="235.0721,-455.7344 245.6401,-456.4875 237.8483,-449.3085 235.0721,-455.7344"/>
</g>
<!-- Node77 -->
<g id="node21" class="node">
<title>Node77</title>
<g id="a_node21"><a xlink:href="$_a_e_s_8c.html#aec40f89d2cbf831fd0d5d5f1bfa616f5" xlink:title="subBytes &#45; Function that performs the sub byte operation where each value is replaced by the s box va...">
<polygon fill="#ffffff" stroke="#000000" points="399.5,-418.5 399.5,-437.5 457.5,-437.5 457.5,-418.5 399.5,-418.5"/>
<text text-anchor="middle" x="428.5" y="-425.5" font-family="Helvetica,sans-Serif" font-size="10.00" fill="#000000">subBytes</text>
</a>
</g>
</g>
<!-- Node66&#45;&gt;Node77 -->
<g id="edge30" class="edge">
<title>Node66&#45;&gt;Node77</title>
<path fill="none" stroke="#191970" d="M147.817,-342.5539C159.5518,-359.3888 186.4998,-393.9752 219,-409 273.9713,-434.4133 345.6313,-434.8753 389.2936,-432.0478"/>
<polygon fill="#191970" stroke="#191970" points="389.7831,-435.5213 399.4978,-431.2934 389.2669,-428.5403 389.7831,-435.5213"/>
</g>
<!-- Node78 -->
<g id="node22" class="node">
<title>Node78</title>
<g id="a_node22"><a xlink:href="$_a_e_s_8c.html#abeb4dba64fcf4d07eac178e732ca6aa8" xlink:title="ShiftRows &#45; Function to shift the state array according to the AES encryption standard for 128 &#45; bits...">
<polygon fill="#ffffff" stroke="#000000" points="397.5,-152.5 397.5,-171.5 459.5,-171.5 459.5,-152.5 397.5,-152.5"/>
<text text-anchor="middle" x="428.5" y="-159.5" font-family="Helvetica,sans-Serif" font-size="10.00" fill="#000000">ShiftRows</text>
</a>
</g>
</g>
<!-- Node66&#45;&gt;Node78 -->
<g id="edge32" class="edge">
<title>Node66&#45;&gt;Node78</title>
<path fill="none" stroke="#191970" d="M143.2416,-323.4331C150.6977,-283.6372 181.2732,-132.023 219,-105 262.7195,-73.6846 288.4081,-89.8234 340,-105 366.8744,-112.9056 393.2944,-131.7791 410.1694,-145.6521"/>
<polygon fill="#191970" stroke="#191970" points="408.1879,-148.5611 418.0758,-152.3664 412.719,-143.2255 408.1879,-148.5611"/>
</g>
<!-- Node79 -->
<g id="node23" class="node">
<title>Node79</title>
<g id="a_node23"><a xlink:href="$_a_e_s_8c.html#aca09b30896a351db6587639a1cc1bf0d" xlink:title="mixColumns &#45; Function that performs the MixColumns step of AES as specified by AES encryption...">
<polygon fill="#ffffff" stroke="#000000" points="244,-342.5 244,-361.5 315,-361.5 315,-342.5 244,-342.5"/>
<text text-anchor="middle" x="279.5" y="-349.5" font-family="Helvetica,sans-Serif" font-size="10.00" fill="#000000">mixColumns</text>
</a>
</g>
</g>
<!-- Node66&#45;&gt;Node79 -->
<g id="edge34" class="edge">
<title>Node66&#45;&gt;Node79</title>
<path fill="none" stroke="#191970" d="M177.0384,-337.893C194.2882,-340.2679 215.2195,-343.1498 233.6558,-345.6881"/>
<polygon fill="#191970" stroke="#191970" points="233.2184,-349.1608 243.6024,-347.0576 234.1732,-342.2263 233.2184,-349.1608"/>
</g>
<!-- Node80 -->
<g id="node24" class="node">
<title>Node80</title>
<g id="a_node24"><a xlink:href="$_a_e_s_8c.html#aaba2e1b9466483b3c6b8669eb42aa5ed" xlink:title="printAESBlock &#45; Function to print a single block in hex format to the terminal. ">
<polygon fill="#ffffff" stroke="#000000" points="239.5,-304.5 239.5,-323.5 319.5,-323.5 319.5,-304.5 239.5,-304.5"/>
<text text-anchor="middle" x="279.5" y="-311.5" font-family="Helvetica,sans-Serif" font-size="10.00" fill="#000000">printAESBlock</text>
</a>
</g>
</g>
<!-- Node66&#45;&gt;Node80 -->
<g id="edge35" class="edge">
<title>Node66&#45;&gt;Node80</title>
<path fill="none" stroke="#191970" d="M177.0384,-328.107C192.9269,-325.9195 211.9386,-323.3019 229.2472,-320.9189"/>
<polygon fill="#191970" stroke="#191970" points="229.7759,-324.3792 239.205,-319.5479 228.821,-317.4446 229.7759,-324.3792"/>
</g>
<!-- Node70&#45;&gt;Node62 -->
<g id="edge21" class="edge">
<title>Node70&#45;&gt;Node62</title>
<path fill="none" stroke="#191970" d="M290.412,-399.883C302.6849,-411.0895 323.1088,-430.0135 340,-447 366.3056,-473.4541 395.5887,-505.4105 413.004,-524.6973"/>
<polygon fill="#191970" stroke="#191970" points="410.6165,-527.2765 419.9076,-532.3683 415.8197,-522.5939 410.6165,-527.2765"/>
</g>
<!-- Node70&#45;&gt;Node65 -->
<g id="edge22" class="edge">
<title>Node70&#45;&gt;Node65</title>
<path fill="none" stroke="#191970" d="M320.1709,-380.4263C327.0671,-377.92 333.9467,-374.8166 340,-371 342.214,-369.6041 387.8233,-320.2023 412.6772,-293.2063"/>
<polygon fill="#191970" stroke="#191970" points="415.4572,-295.354 419.6532,-285.6255 410.3062,-290.614 415.4572,-295.354"/>
</g>
<!-- Node71 -->
<g id="node15" class="node">
<title>Node71</title>
<g id="a_node15"><a xlink:href="$_a_e_s_8c.html#af2f914cf17729a0ee89102c98b39665e" xlink:title="KeyScheduleCore &#45; Function that performs the key schedule core for the Rijndael Key Schedule...">
<polygon fill="#ffffff" stroke="#000000" points="381,-342.5 381,-361.5 476,-361.5 476,-342.5 381,-342.5"/>
<text text-anchor="middle" x="428.5" y="-349.5" font-family="Helvetica,sans-Serif" font-size="10.00" fill="#000000">KeyScheduleCore</text>
</a>
</g>
</g>
<!-- Node70&#45;&gt;Node71 -->
<g id="edge23" class="edge">
<title>Node70&#45;&gt;Node71</title>
<path fill="none" stroke="#191970" d="M317.099,-380.411C336.584,-375.4417 360.5745,-369.3233 381.2958,-364.0387"/>
<polygon fill="#191970" stroke="#191970" points="382.3465,-367.3828 391.1714,-361.5201 380.6166,-360.5999 382.3465,-367.3828"/>
</g>
<!-- Node73 -->
<g id="node17" class="node">
<title>Node73</title>
<g id="a_node17"><a xlink:href="$_a_e_s_8c.html#acdf4abe2846c02b4d3e674782807fdfa" xlink:title="getSBoxValue &#45; Function to return the sBox value passed in as a parameter ">
<polygon fill="#ffffff" stroke="#000000" points="522,-380.5 522,-399.5 601,-399.5 601,-380.5 522,-380.5"/>
<text text-anchor="middle" x="561.5" y="-387.5" font-family="Helvetica,sans-Serif" font-size="10.00" fill="#000000">getSBoxValue</text>
</a>
</g>
</g>
<!-- Node70&#45;&gt;Node73 -->
<g id="edge27" class="edge">
<title>Node70&#45;&gt;Node73</title>
<path fill="none" stroke="#191970" d="M334.5419,-390C385.8695,-390 461.7719,-390 511.4315,-390"/>
<polygon fill="#191970" stroke="#191970" points="511.6117,-393.5001 521.6117,-390 511.6116,-386.5001 511.6117,-393.5001"/>
</g>
<!-- Node72 -->
<g id="node16" class="node">
<title>Node72</title>
<g id="a_node16"><a xlink:href="$_a_e_s_8c.html#ac769b0533ccecd203cc3ab64e6b2f950" xlink:title="SingleRotateLeft &#45; Function to rotate the array passed in as a paramter. ">
<polygon fill="#ffffff" stroke="#000000" points="517,-228.5 517,-247.5 606,-247.5 606,-228.5 517,-228.5"/>
<text text-anchor="middle" x="561.5" y="-235.5" font-family="Helvetica,sans-Serif" font-size="10.00" fill="#000000">SingleRotateLeft</text>
</a>
</g>
</g>
<!-- Node71&#45;&gt;Node72 -->
<g id="edge24" class="edge">
<title>Node71&#45;&gt;Node72</title>
<path fill="none" stroke="#191970" d="M439.8395,-342.2804C462.6112,-322.7618 514.1232,-278.6087 542.2639,-254.4881"/>
<polygon fill="#191970" stroke="#191970" points="544.8744,-256.8603 550.1892,-247.695 540.3188,-251.5455 544.8744,-256.8603"/>
</g>
<!-- Node71&#45;&gt;Node73 -->
<g id="edge25" class="edge">
<title>Node71&#45;&gt;Node73</title>
<path fill="none" stroke="#191970" d="M462.0615,-361.589C479.073,-366.4494 499.9319,-372.4091 518.1446,-377.6127"/>
<polygon fill="#191970" stroke="#191970" points="517.3724,-381.0321 527.9492,-380.4141 519.2955,-374.3014 517.3724,-381.0321"/>
</g>
<!-- Node74 -->
<g id="node18" class="node">
<title>Node74</title>
<g id="a_node18"><a xlink:href="$_a_e_s_8c.html#a4e58d2e928429bc56387394251b8ece5" xlink:title="getRconValue &#45; Function to return the Rcon value for the index passed in as a parameter ...">
<polygon fill="#ffffff" stroke="#000000" points="522.5,-342.5 522.5,-361.5 600.5,-361.5 600.5,-342.5 522.5,-342.5"/>
<text text-anchor="middle" x="561.5" y="-349.5" font-family="Helvetica,sans-Serif" font-size="10.00" fill="#000000">getRconValue</text>
</a>
</g>
</g>
<!-- Node71&#45;&gt;Node74 -->
<g id="edge26" class="edge">
<title>Node71&#45;&gt;Node74</title>
<path fill="none" stroke="#191970" d="M476.1404,-352C487.7856,-352 500.272,-352 512.0019,-352"/>
<polygon fill="#191970" stroke="#191970" points="512.0751,-355.5001 522.0751,-352 512.0751,-348.5001 512.0751,-355.5001"/>
</g>
<!-- Node77&#45;&gt;Node73 -->
<g id="edge31" class="edge">
<title>Node77&#45;&gt;Node73</title>
<path fill="none" stroke="#191970" d="M457.6874,-419.6607C475.4802,-414.5771 498.542,-407.988 518.4087,-402.3118"/>
<polygon fill="#191970" stroke="#191970" points="519.5101,-405.6373 528.1637,-399.5246 517.587,-398.9066 519.5101,-405.6373"/>
</g>
<!-- Node78&#45;&gt;Node72 -->
<g id="edge33" class="edge">
<title>Node78&#45;&gt;Node72</title>
<path fill="none" stroke="#191970" d="M445.3445,-171.6255C468.2295,-184.7025 509.3424,-208.1957 536.014,-223.4366"/>
<polygon fill="#191970" stroke="#191970" points="534.3733,-226.5301 544.7922,-228.4527 537.8463,-220.4524 534.3733,-226.5301"/>
</g>
</g>
</svg>
