<?xml version="1.0" encoding="UTF-8" standalone="no"?>
<!DOCTYPE svg PUBLIC "-//W3C//DTD SVG 1.1//EN"
 "http://www.w3.org/Graphics/SVG/1.1/DTD/svg11.dtd">
<!-- Generated by graphviz version 2.40.1 (20161225.0304)
 -->
<!-- Title: ecb.h Pages: 1 -->
<svg width="261pt" height="140pt"
 viewBox="0.00 0.00 261.00 140.00" xmlns="http://www.w3.org/2000/svg" xmlns:xlink="http://www.w3.org/1999/xlink">
<g id="graph0" class="graph" transform="scale(1 1) rotate(0) translate(4 136)">
<title>ecb.h</title>
<polygon fill="#ffffff" stroke="transparent" points="-4,4 -4,-136 257,-136 257,4 -4,4"/>
<!-- Node8 -->
<g id="node1" class="node">
<title>Node8</title>
<polygon fill="#bfbfbf" stroke="#000000" points="73,-112.5 73,-131.5 114,-131.5 114,-112.5 73,-112.5"/>
<text text-anchor="middle" x="93.5" y="-119.5" font-family="Helvetica,sans-Serif" font-size="10.00" fill="#000000">ecb.h</text>
</g>
<!-- Node9 -->
<g id="node2" class="node">
<title>Node9</title>
<g id="a_node2"><a xlink:href="$ecb_8c.html" xlink:title="Electronic code book (ECB) &#45; AES Implementation file This file contains the implementation of the fun...">
<polygon fill="#ffffff" stroke="#000000" points="0,-56.5 0,-75.5 41,-75.5 41,-56.5 0,-56.5"/>
<text text-anchor="middle" x="20.5" y="-63.5" font-family="Helvetica,sans-Serif" font-size="10.00" fill="#000000">ecb.c</text>
</a>
</g>
</g>
<!-- Node8&#45;&gt;Node9 -->
<g id="edge1" class="edge">
<title>Node8&#45;&gt;Node9</title>
<path fill="none" stroke="#191970" d="M72.549,-105.928C59.7893,-96.1397 43.9115,-83.9595 33.0699,-75.6427"/>
<polygon fill="#191970" stroke="#191970" points="70.7197,-108.9359 80.7844,-112.2455 74.9804,-103.3819 70.7197,-108.9359"/>
</g>
<!-- Node10 -->
<g id="node3" class="node">
<title>Node10</title>
<g id="a_node3"><a xlink:href="$ecb_tester_8c_source.html" xlink:title="ecbTester.c">
<polygon fill="#ffffff" stroke="#000000" points="59.5,-56.5 59.5,-75.5 127.5,-75.5 127.5,-56.5 59.5,-56.5"/>
<text text-anchor="middle" x="93.5" y="-63.5" font-family="Helvetica,sans-Serif" font-size="10.00" fill="#000000">ecbTester.c</text>
</a>
</g>
</g>
<!-- Node8&#45;&gt;Node10 -->
<g id="edge2" class="edge">
<title>Node8&#45;&gt;Node10</title>
<path fill="none" stroke="#191970" d="M93.5,-102.1575C93.5,-93.155 93.5,-82.9199 93.5,-75.6427"/>
<polygon fill="#191970" stroke="#191970" points="90.0001,-102.2455 93.5,-112.2455 97.0001,-102.2456 90.0001,-102.2455"/>
</g>
<!-- Node11 -->
<g id="node4" class="node">
<title>Node11</title>
<g id="a_node4"><a xlink:href="$encryption_platform_8h_source.html" xlink:title="encryptionPlatform.h">
<polygon fill="#ffffff" stroke="#000000" points="146,-56.5 146,-75.5 253,-75.5 253,-56.5 146,-56.5"/>
<text text-anchor="middle" x="199.5" y="-63.5" font-family="Helvetica,sans-Serif" font-size="10.00" fill="#000000">encryptionPlatform.h</text>
</a>
</g>
</g>
<!-- Node8&#45;&gt;Node11 -->
<g id="edge3" class="edge">
<title>Node8&#45;&gt;Node11</title>
<path fill="none" stroke="#191970" d="M121.0222,-107.46C139.9908,-97.4388 164.6727,-84.3993 181.2478,-75.6427"/>
<polygon fill="#191970" stroke="#191970" points="119.1708,-104.4796 111.9638,-112.2455 122.4407,-110.669 119.1708,-104.4796"/>
</g>
<!-- Node12 -->
<g id="node5" class="node">
<title>Node12</title>
<g id="a_node5"><a xlink:href="$encryption_platform_8c.html" xlink:title="Implementation file for the cbc and cfb encryption platform. All functions, to specify key...">
<polygon fill="#ffffff" stroke="#000000" points="146,-.5 146,-19.5 253,-19.5 253,-.5 146,-.5"/>
<text text-anchor="middle" x="199.5" y="-7.5" font-family="Helvetica,sans-Serif" font-size="10.00" fill="#000000">encryptionPlatform.c</text>
</a>
</g>
</g>
<!-- Node11&#45;&gt;Node12 -->
<g id="edge4" class="edge">
<title>Node11&#45;&gt;Node12</title>
<path fill="none" stroke="#191970" d="M199.5,-46.1575C199.5,-37.155 199.5,-26.9199 199.5,-19.6427"/>
<polygon fill="#191970" stroke="#191970" points="196.0001,-46.2455 199.5,-56.2455 203.0001,-46.2456 196.0001,-46.2455"/>
</g>
</g>
</svg>
