<?xml version="1.0" encoding="UTF-8" standalone="no"?>
<!DOCTYPE svg PUBLIC "-//W3C//DTD SVG 1.1//EN"
 "http://www.w3.org/Graphics/SVG/1.1/DTD/svg11.dtd">
<!-- Generated by graphviz version 2.40.1 (20161225.0304)
 -->
<!-- Title: ecb.c Pages: 1 -->
<svg width="329pt" height="196pt"
 viewBox="0.00 0.00 329.00 196.00" xmlns="http://www.w3.org/2000/svg" xmlns:xlink="http://www.w3.org/1999/xlink">
<g id="graph0" class="graph" transform="scale(1 1) rotate(0) translate(4 192)">
<title>ecb.c</title>
<polygon fill="#ffffff" stroke="transparent" points="-4,4 -4,-192 325,-192 325,4 -4,4"/>
<!-- Node0 -->
<g id="node1" class="node">
<title>Node0</title>
<polygon fill="#bfbfbf" stroke="#000000" points="101.5,-168.5 101.5,-187.5 142.5,-187.5 142.5,-168.5 101.5,-168.5"/>
<text text-anchor="middle" x="122" y="-175.5" font-family="Helvetica,sans-Serif" font-size="10.00" fill="#000000">ecb.c</text>
</g>
<!-- Node1 -->
<g id="node2" class="node">
<title>Node1</title>
<g id="a_node2"><a xlink:href="$ecb_8h.html" xlink:title="Electronic code book (ECB) &#45; AES header file This file contains the function headers of the functions...">
<polygon fill="#ffffff" stroke="#000000" points="101.5,-112.5 101.5,-131.5 142.5,-131.5 142.5,-112.5 101.5,-112.5"/>
<text text-anchor="middle" x="122" y="-119.5" font-family="Helvetica,sans-Serif" font-size="10.00" fill="#000000">ecb.h</text>
</a>
</g>
</g>
<!-- Node0&#45;&gt;Node1 -->
<g id="edge1" class="edge">
<title>Node0&#45;&gt;Node1</title>
<path fill="none" stroke="#191970" d="M122,-168.2455C122,-160.9382 122,-150.6944 122,-141.7046"/>
<polygon fill="#191970" stroke="#191970" points="125.5001,-141.6426 122,-131.6427 118.5001,-141.6427 125.5001,-141.6426"/>
</g>
<!-- Node2 -->
<g id="node3" class="node">
<title>Node2</title>
<g id="a_node3"><a xlink:href="$_a_e_s_8h.html" xlink:title="AES encryption and decryption module header file. This file contains the function headers for the fun...">
<polygon fill="#ffffff" stroke="#000000" points="99.5,-56.5 99.5,-75.5 144.5,-75.5 144.5,-56.5 99.5,-56.5"/>
<text text-anchor="middle" x="122" y="-63.5" font-family="Helvetica,sans-Serif" font-size="10.00" fill="#000000">AES.h</text>
</a>
</g>
</g>
<!-- Node1&#45;&gt;Node2 -->
<g id="edge2" class="edge">
<title>Node1&#45;&gt;Node2</title>
<path fill="none" stroke="#191970" d="M122,-112.2455C122,-104.9382 122,-94.6944 122,-85.7046"/>
<polygon fill="#191970" stroke="#191970" points="125.5001,-85.6426 122,-75.6427 118.5001,-85.6427 125.5001,-85.6426"/>
</g>
<!-- Node3 -->
<g id="node4" class="node">
<title>Node3</title>
<polygon fill="#ffffff" stroke="#bfbfbf" points="0,-.5 0,-19.5 46,-19.5 46,-.5 0,-.5"/>
<text text-anchor="middle" x="23" y="-7.5" font-family="Helvetica,sans-Serif" font-size="10.00" fill="#000000">stdio.h</text>
</g>
<!-- Node1&#45;&gt;Node3 -->
<g id="edge8" class="edge">
<title>Node1&#45;&gt;Node3</title>
<path fill="none" stroke="#191970" d="M113.5593,-112.4509C96.8281,-93.5227 59.2535,-51.014 38.1398,-27.1279"/>
<polygon fill="#191970" stroke="#191970" points="40.6646,-24.6994 31.4193,-19.5249 35.4198,-29.3354 40.6646,-24.6994"/>
</g>
<!-- Node8 -->
<g id="node9" class="node">
<title>Node8</title>
<polygon fill="#ffffff" stroke="#bfbfbf" points="162.5,-56.5 162.5,-75.5 209.5,-75.5 209.5,-56.5 162.5,-56.5"/>
<text text-anchor="middle" x="186" y="-63.5" font-family="Helvetica,sans-Serif" font-size="10.00" fill="#000000">math.h</text>
</g>
<!-- Node1&#45;&gt;Node8 -->
<g id="edge9" class="edge">
<title>Node1&#45;&gt;Node8</title>
<path fill="none" stroke="#191970" d="M133.1479,-112.2455C142.5087,-104.0549 156.0858,-92.1749 167.1349,-82.5069"/>
<polygon fill="#191970" stroke="#191970" points="169.7588,-84.8618 174.9798,-75.6427 165.1492,-79.5937 169.7588,-84.8618"/>
</g>
<!-- Node2&#45;&gt;Node3 -->
<g id="edge3" class="edge">
<title>Node2&#45;&gt;Node3</title>
<path fill="none" stroke="#191970" d="M104.7555,-56.2455C89.4239,-47.5731 66.7801,-34.7645 49.2084,-24.825"/>
<polygon fill="#191970" stroke="#191970" points="50.4741,-21.5198 40.0469,-19.6427 47.0276,-27.6126 50.4741,-21.5198"/>
</g>
<!-- Node4 -->
<g id="node5" class="node">
<title>Node4</title>
<polygon fill="#ffffff" stroke="#bfbfbf" points="64.5,-.5 64.5,-19.5 113.5,-19.5 113.5,-.5 64.5,-.5"/>
<text text-anchor="middle" x="89" y="-7.5" font-family="Helvetica,sans-Serif" font-size="10.00" fill="#000000">stdint.h</text>
</g>
<!-- Node2&#45;&gt;Node4 -->
<g id="edge4" class="edge">
<title>Node2&#45;&gt;Node4</title>
<path fill="none" stroke="#191970" d="M116.2518,-56.2455C111.7565,-48.617 105.3752,-37.7881 99.9175,-28.5267"/>
<polygon fill="#191970" stroke="#191970" points="102.7747,-26.4811 94.6823,-19.6427 96.7439,-30.035 102.7747,-26.4811"/>
</g>
<!-- Node5 -->
<g id="node6" class="node">
<title>Node5</title>
<polygon fill="#ffffff" stroke="#bfbfbf" points="131.5,-.5 131.5,-19.5 180.5,-19.5 180.5,-.5 131.5,-.5"/>
<text text-anchor="middle" x="156" y="-7.5" font-family="Helvetica,sans-Serif" font-size="10.00" fill="#000000">string.h</text>
</g>
<!-- Node2&#45;&gt;Node5 -->
<g id="edge5" class="edge">
<title>Node2&#45;&gt;Node5</title>
<path fill="none" stroke="#191970" d="M127.9223,-56.2455C132.6027,-48.5367 139.2673,-37.5598 144.9289,-28.2348"/>
<polygon fill="#191970" stroke="#191970" points="147.9475,-30.007 150.1455,-19.6427 141.9639,-26.3741 147.9475,-30.007"/>
</g>
<!-- Node6 -->
<g id="node7" class="node">
<title>Node6</title>
<polygon fill="#ffffff" stroke="#bfbfbf" points="199,-.5 199,-19.5 247,-19.5 247,-.5 199,-.5"/>
<text text-anchor="middle" x="223" y="-7.5" font-family="Helvetica,sans-Serif" font-size="10.00" fill="#000000">stdlib.h</text>
</g>
<!-- Node2&#45;&gt;Node6 -->
<g id="edge6" class="edge">
<title>Node2&#45;&gt;Node6</title>
<path fill="none" stroke="#191970" d="M139.5929,-56.2455C155.379,-47.4928 178.7639,-34.527 196.7587,-24.5496"/>
<polygon fill="#191970" stroke="#191970" points="198.5603,-27.5528 205.6087,-19.6427 195.1659,-21.4308 198.5603,-27.5528"/>
</g>
<!-- Node7 -->
<g id="node8" class="node">
<title>Node7</title>
<polygon fill="#ffffff" stroke="#bfbfbf" points="265,-.5 265,-19.5 321,-19.5 321,-.5 265,-.5"/>
<text text-anchor="middle" x="293" y="-7.5" font-family="Helvetica,sans-Serif" font-size="10.00" fill="#000000">stdbool.h</text>
</g>
<!-- Node2&#45;&gt;Node7 -->
<g id="edge7" class="edge">
<title>Node2&#45;&gt;Node7</title>
<path fill="none" stroke="#191970" d="M144.7075,-58.5636C172.9041,-49.3297 221.4067,-33.4457 255.2364,-22.367"/>
<polygon fill="#191970" stroke="#191970" points="256.378,-25.6762 264.792,-19.2377 254.1994,-19.0238 256.378,-25.6762"/>
</g>
</g>
</svg>
