<?xml version="1.0" encoding="UTF-8" standalone="no"?>
<!DOCTYPE svg PUBLIC "-//W3C//DTD SVG 1.1//EN"
 "http://www.w3.org/Graphics/SVG/1.1/DTD/svg11.dtd">
<!-- Generated by graphviz version 2.40.1 (20161225.0304)
 -->
<!-- Title: ecbEcryptHelper Pages: 1 -->
<svg width="627pt" height="475pt"
 viewBox="0.00 0.00 627.00 475.08" xmlns="http://www.w3.org/2000/svg" xmlns:xlink="http://www.w3.org/1999/xlink">
<g id="graph0" class="graph" transform="scale(1 1) rotate(0) translate(4 471.0833)">
<title>ecbEcryptHelper</title>
<polygon fill="#ffffff" stroke="transparent" points="-4,4 -4,-471.0833 623,-471.0833 623,4 -4,4"/>
<!-- Node84 -->
<g id="node1" class="node">
<title>Node84</title>
<polygon fill="#bfbfbf" stroke="#000000" points="0,-114.5 0,-133.5 89,-133.5 89,-114.5 0,-114.5"/>
<text text-anchor="middle" x="44.5" y="-121.5" font-family="Helvetica,sans-Serif" font-size="10.00" fill="#000000">ecbEcryptHelper</text>
</g>
<!-- Node85 -->
<g id="node2" class="node">
<title>Node85</title>
<g id="a_node2"><a xlink:href="$_a_e_s_8c.html#a41cef4df290905c4d632ce1357d0a9bd" xlink:title="AESEncrypt &#45; Function to encrypt a single block of plaintext passed in as parameter &#160;plainText using ...">
<polygon fill="#ffffff" stroke="#000000" points="125,-209.5 125,-228.5 196,-228.5 196,-209.5 125,-209.5"/>
<text text-anchor="middle" x="160.5" y="-216.5" font-family="Helvetica,sans-Serif" font-size="10.00" fill="#000000">AESEncrypt</text>
</a>
</g>
</g>
<!-- Node84&#45;&gt;Node85 -->
<g id="edge1" class="edge">
<title>Node84&#45;&gt;Node85</title>
<path fill="none" stroke="#191970" d="M56.4771,-133.8089C76.4646,-150.1779 116.8035,-183.214 140.9536,-202.9922"/>
<polygon fill="#191970" stroke="#191970" points="138.8065,-205.7578 148.7608,-209.386 143.2418,-200.3421 138.8065,-205.7578"/>
</g>
<!-- Node102 -->
<g id="node19" class="node">
<title>Node102</title>
<g id="a_node19"><a xlink:href="$_a_e_s_8c.html#aaba2e1b9466483b3c6b8669eb42aa5ed" xlink:title="printAESBlock &#45; Function to print a single block in hex format to the terminal. ">
<polygon fill="#ffffff" stroke="#000000" points="252.5,-.5 252.5,-19.5 332.5,-19.5 332.5,-.5 252.5,-.5"/>
<text text-anchor="middle" x="292.5" y="-7.5" font-family="Helvetica,sans-Serif" font-size="10.00" fill="#000000">printAESBlock</text>
</a>
</g>
</g>
<!-- Node84&#45;&gt;Node102 -->
<g id="edge24" class="edge">
<title>Node84&#45;&gt;Node102</title>
<path fill="none" stroke="#191970" d="M61.1257,-114.3966C93.3241,-96.0665 166.7694,-55.5568 232,-29 237.4217,-26.7927 243.2012,-24.6826 248.956,-22.7247"/>
<polygon fill="#191970" stroke="#191970" points="250.1359,-26.0213 258.55,-19.5828 247.9573,-19.3689 250.1359,-26.0213"/>
</g>
<!-- Node86 -->
<g id="node3" class="node">
<title>Node86</title>
<g id="a_node3"><a xlink:href="$_a_e_s_8c.html#a5d65eac115e562c64b00a43e72ee6aca" xlink:title="getPaddedKeyLength &#45; Function to return a valid key length (in bytes) based off of the current key le...">
<polygon fill="#ffffff" stroke="#000000" points="237.5,-342.5 237.5,-361.5 347.5,-361.5 347.5,-342.5 237.5,-342.5"/>
<text text-anchor="middle" x="292.5" y="-349.5" font-family="Helvetica,sans-Serif" font-size="10.00" fill="#000000">getPaddedKeyLength</text>
</a>
</g>
</g>
<!-- Node85&#45;&gt;Node86 -->
<g id="edge2" class="edge">
<title>Node85&#45;&gt;Node86</title>
<path fill="none" stroke="#191970" d="M163.8357,-228.5513C171.951,-250.3918 194.8303,-304.3035 232,-333 234.4482,-334.8901 237.0877,-336.5942 239.8469,-338.1303"/>
<polygon fill="#191970" stroke="#191970" points="238.4473,-341.3404 248.9799,-342.4868 241.461,-335.0224 238.4473,-341.3404"/>
</g>
<!-- Node87 -->
<g id="node4" class="node">
<title>Node87</title>
<g id="a_node4"><a xlink:href="$_a_e_s_8c.html#a1c2a403d95a85400bbae142d48cb8c9d" xlink:title="getNumRounds &#45; Function to return the number of rounds of AES encryption and decryption based off of ...">
<polygon fill="#ffffff" stroke="#000000" points="399,-389.5 399,-408.5 484,-408.5 484,-389.5 399,-389.5"/>
<text text-anchor="middle" x="441.5" y="-396.5" font-family="Helvetica,sans-Serif" font-size="10.00" fill="#000000">getNumRounds</text>
</a>
</g>
</g>
<!-- Node85&#45;&gt;Node87 -->
<g id="edge3" class="edge">
<title>Node85&#45;&gt;Node87</title>
<path fill="none" stroke="#191970" d="M162.6705,-228.8712C170.7734,-264.7291 200.4119,-387.1364 232,-409 284.7763,-445.529 364.1991,-427.0126 408.5518,-411.9356"/>
<polygon fill="#191970" stroke="#191970" points="409.9902,-415.1393 418.2488,-408.5026 407.654,-408.5407 409.9902,-415.1393"/>
</g>
<!-- Node88 -->
<g id="node5" class="node">
<title>Node88</title>
<g id="a_node5"><a xlink:href="$_a_e_s_8c.html#a0e0b199ded54d7fb53a3bda3fcc02256" xlink:title="validateNumRounds &#45; Function that validates the number of rounds that have been passed in by the ...">
<polygon fill="#ffffff" stroke="#000000" points="389,-266.5 389,-285.5 494,-285.5 494,-266.5 389,-266.5"/>
<text text-anchor="middle" x="441.5" y="-273.5" font-family="Helvetica,sans-Serif" font-size="10.00" fill="#000000">validateNumRounds</text>
</a>
</g>
</g>
<!-- Node85&#45;&gt;Node88 -->
<g id="edge4" class="edge">
<title>Node85&#45;&gt;Node88</title>
<path fill="none" stroke="#191970" d="M174.5534,-228.6553C188.4666,-237.6709 210.7134,-250.66 232,-257 279.8561,-271.2535 336.3533,-275.7015 378.6105,-276.7522"/>
<polygon fill="#191970" stroke="#191970" points="378.6947,-280.2543 388.7599,-276.9464 378.8287,-273.2556 378.6947,-280.2543"/>
</g>
<!-- Node89 -->
<g id="node6" class="node">
<title>Node89</title>
<g id="a_node6"><a xlink:href="$_a_e_s_8c.html#acefcd728377e1e14187fa8fcd20f4064" xlink:title="validatePlainTextLength &#45; Function that validates the length of the plaintext. The validation is done...">
<polygon fill="#ffffff" stroke="#000000" points="232,-228.5 232,-247.5 353,-247.5 353,-228.5 232,-228.5"/>
<text text-anchor="middle" x="292.5" y="-235.5" font-family="Helvetica,sans-Serif" font-size="10.00" fill="#000000">validatePlainTextLength</text>
</a>
</g>
</g>
<!-- Node85&#45;&gt;Node89 -->
<g id="edge5" class="edge">
<title>Node85&#45;&gt;Node89</title>
<path fill="none" stroke="#191970" d="M196.2211,-224.1417C204.2095,-225.2915 212.9534,-226.5501 221.8105,-227.825"/>
<polygon fill="#191970" stroke="#191970" points="221.4277,-231.3059 231.8243,-229.2664 222.425,-224.3773 221.4277,-231.3059"/>
</g>
<!-- Node90 -->
<g id="node7" class="node">
<title>Node90</title>
<g id="a_node7"><a xlink:href="$_a_e_s_8c.html#a1c1a633a58f7328faa397db9e45e7e0c" xlink:title="constructStateArray &#45; Function to convert the state array from a flat 1D array to a multidimensional ...">
<polygon fill="#ffffff" stroke="#000000" points="240.5,-190.5 240.5,-209.5 344.5,-209.5 344.5,-190.5 240.5,-190.5"/>
<text text-anchor="middle" x="292.5" y="-197.5" font-family="Helvetica,sans-Serif" font-size="10.00" fill="#000000">constructStateArray</text>
</a>
</g>
</g>
<!-- Node85&#45;&gt;Node90 -->
<g id="edge6" class="edge">
<title>Node85&#45;&gt;Node90</title>
<path fill="none" stroke="#191970" d="M196.2211,-213.8583C206.7327,-212.3453 218.5525,-210.644 230.217,-208.965"/>
<polygon fill="#191970" stroke="#191970" points="230.9915,-212.3897 240.3908,-207.5006 229.9941,-205.4611 230.9915,-212.3897"/>
</g>
<!-- Node91 -->
<g id="node8" class="node">
<title>Node91</title>
<g id="a_node8"><a xlink:href="$_a_e_s_8c.html#ae9af90db32afa65125a7eec339ed9d58" xlink:title="printStateArray &#45; Function to print the state array to the terminal in hex format. ">
<polygon fill="#ffffff" stroke="#000000" points="251.5,-152.5 251.5,-171.5 333.5,-171.5 333.5,-152.5 251.5,-152.5"/>
<text text-anchor="middle" x="292.5" y="-159.5" font-family="Helvetica,sans-Serif" font-size="10.00" fill="#000000">printStateArray</text>
</a>
</g>
</g>
<!-- Node85&#45;&gt;Node91 -->
<g id="edge7" class="edge">
<title>Node85&#45;&gt;Node91</title>
<path fill="none" stroke="#191970" d="M176.5542,-209.3658C190.7788,-201.0995 212.2896,-189.2499 232,-181 237.2047,-178.8215 242.7503,-176.7538 248.2915,-174.8398"/>
<polygon fill="#191970" stroke="#191970" points="249.7899,-178.0309 258.1867,-171.5699 247.5935,-171.3844 249.7899,-178.0309"/>
</g>
<!-- Node92 -->
<g id="node9" class="node">
<title>Node92</title>
<g id="a_node9"><a xlink:href="$_a_e_s_8c.html#a185c827e4ccbc8e4608e83dfbf9dfc8e" xlink:title="RijndaelKeySchedule &#45; Function that performs the Rijndael key scheduling for AES encryption. Takes in the original key passed in as parameter. ">
<polygon fill="#ffffff" stroke="#000000" points="237.5,-304.5 237.5,-323.5 347.5,-323.5 347.5,-304.5 237.5,-304.5"/>
<text text-anchor="middle" x="292.5" y="-311.5" font-family="Helvetica,sans-Serif" font-size="10.00" fill="#000000">RijndaelKeySchedule</text>
</a>
</g>
</g>
<!-- Node85&#45;&gt;Node92 -->
<g id="edge8" class="edge">
<title>Node85&#45;&gt;Node92</title>
<path fill="none" stroke="#191970" d="M167.8957,-228.5049C179.9158,-243.4023 205.0717,-272.3662 232,-290 238.1741,-294.0431 245.1358,-297.5853 252.0813,-300.6191"/>
<polygon fill="#191970" stroke="#191970" points="250.8854,-303.9111 261.467,-304.4402 253.5249,-297.4278 250.8854,-303.9111"/>
</g>
<!-- Node97 -->
<g id="node14" class="node">
<title>Node97</title>
<g id="a_node14"><a xlink:href="$_a_e_s_8c.html#abe15a731f43315f6f595674d3cd62d57" xlink:title="getRoundKey &#45; Function to extract the correct sub&#45;key to use for the appropriate round specified by ...">
<polygon fill="#ffffff" stroke="#000000" points="254.5,-76.5 254.5,-95.5 330.5,-95.5 330.5,-76.5 254.5,-76.5"/>
<text text-anchor="middle" x="292.5" y="-83.5" font-family="Helvetica,sans-Serif" font-size="10.00" fill="#000000">getRoundKey</text>
</a>
</g>
</g>
<!-- Node85&#45;&gt;Node97 -->
<g id="edge16" class="edge">
<title>Node85&#45;&gt;Node97</title>
<path fill="none" stroke="#191970" d="M164.3638,-209.4274C173.2505,-188.5369 197.0926,-138.4569 232,-110 236.9429,-105.9705 242.6469,-102.5512 248.536,-99.6689"/>
<polygon fill="#191970" stroke="#191970" points="250.1135,-102.7988 257.8602,-95.5711 247.297,-96.3904 250.1135,-102.7988"/>
</g>
<!-- Node98 -->
<g id="node15" class="node">
<title>Node98</title>
<g id="a_node15"><a xlink:href="$_a_e_s_8c.html#aef4d8fc4282e3cc21708d25c0ec9ad06" xlink:title="AddRoundKey &#45; Function that performs the Bitwise XOR between state and key as per AES encryption...">
<polygon fill="#ffffff" stroke="#000000" points="252.5,-38.5 252.5,-57.5 332.5,-57.5 332.5,-38.5 252.5,-38.5"/>
<text text-anchor="middle" x="292.5" y="-45.5" font-family="Helvetica,sans-Serif" font-size="10.00" fill="#000000">AddRoundKey</text>
</a>
</g>
</g>
<!-- Node85&#45;&gt;Node98 -->
<g id="edge17" class="edge">
<title>Node85&#45;&gt;Node98</title>
<path fill="none" stroke="#191970" d="M163.8938,-209.3041C174.6424,-179.0877 208.6033,-87.4257 232,-67 235.2656,-64.1491 238.9578,-61.7257 242.8683,-59.6658"/>
<polygon fill="#191970" stroke="#191970" points="244.5672,-62.7412 252.2906,-55.4887 241.7301,-56.3419 244.5672,-62.7412"/>
</g>
<!-- Node99 -->
<g id="node16" class="node">
<title>Node99</title>
<g id="a_node16"><a xlink:href="$_a_e_s_8c.html#aec40f89d2cbf831fd0d5d5f1bfa616f5" xlink:title="subBytes &#45; Function that performs the sub byte operation where each value is replaced by the s box va...">
<polygon fill="#ffffff" stroke="#000000" points="412.5,-446.5 412.5,-465.5 470.5,-465.5 470.5,-446.5 412.5,-446.5"/>
<text text-anchor="middle" x="441.5" y="-453.5" font-family="Helvetica,sans-Serif" font-size="10.00" fill="#000000">subBytes</text>
</a>
</g>
</g>
<!-- Node85&#45;&gt;Node99 -->
<g id="edge18" class="edge">
<title>Node85&#45;&gt;Node99</title>
<path fill="none" stroke="#191970" d="M162.3044,-228.6399C169.633,-266.7157 198.3879,-405.8833 232,-433 280.2165,-471.8989 356.2931,-469.4049 402.2874,-463.2554"/>
<polygon fill="#191970" stroke="#191970" points="403.0714,-466.6782 412.4606,-461.7697 402.0597,-459.7516 403.0714,-466.6782"/>
</g>
<!-- Node100 -->
<g id="node17" class="node">
<title>Node100</title>
<g id="a_node17"><a xlink:href="$_a_e_s_8c.html#abeb4dba64fcf4d07eac178e732ca6aa8" xlink:title="ShiftRows &#45; Function to shift the state array according to the AES encryption standard for 128 &#45; bits...">
<polygon fill="#ffffff" stroke="#000000" points="410.5,-171.5 410.5,-190.5 472.5,-190.5 472.5,-171.5 410.5,-171.5"/>
<text text-anchor="middle" x="441.5" y="-178.5" font-family="Helvetica,sans-Serif" font-size="10.00" fill="#000000">ShiftRows</text>
</a>
</g>
</g>
<!-- Node85&#45;&gt;Node100 -->
<g id="edge20" class="edge">
<title>Node85&#45;&gt;Node100</title>
<path fill="none" stroke="#191970" d="M165.8449,-209.4442C176.0702,-192.2767 200.2384,-156.7272 232,-143 294.041,-116.1862 374.3293,-147.0591 415.1512,-166.8943"/>
<polygon fill="#191970" stroke="#191970" points="413.6699,-170.0668 424.1784,-171.4165 416.8052,-163.8082 413.6699,-170.0668"/>
</g>
<!-- Node101 -->
<g id="node18" class="node">
<title>Node101</title>
<g id="a_node18"><a xlink:href="$_a_e_s_8c.html#aca09b30896a351db6587639a1cc1bf0d" xlink:title="mixColumns &#45; Function that performs the MixColumns step of AES as specified by AES encryption...">
<polygon fill="#ffffff" stroke="#000000" points="257,-380.5 257,-399.5 328,-399.5 328,-380.5 257,-380.5"/>
<text text-anchor="middle" x="292.5" y="-387.5" font-family="Helvetica,sans-Serif" font-size="10.00" fill="#000000">mixColumns</text>
</a>
</g>
</g>
<!-- Node85&#45;&gt;Node101 -->
<g id="edge22" class="edge">
<title>Node85&#45;&gt;Node101</title>
<path fill="none" stroke="#191970" d="M162.279,-228.8199C167.6632,-255.6966 186.305,-331.1076 232,-371 236.4629,-374.8962 241.7229,-377.9939 247.2475,-380.4567"/>
<polygon fill="#191970" stroke="#191970" points="246.1095,-383.7682 256.7011,-384.0309 248.585,-377.2205 246.1095,-383.7682"/>
</g>
<!-- Node85&#45;&gt;Node102 -->
<g id="edge23" class="edge">
<title>Node85&#45;&gt;Node102</title>
<path fill="none" stroke="#191970" d="M163.9264,-209.1799C177.215,-171.193 224.9586,-35.6602 232,-29 235.283,-25.8947 239.0686,-23.2968 243.1112,-21.1233"/>
<polygon fill="#191970" stroke="#191970" points="244.5855,-24.298 252.2764,-17.011 241.7199,-17.9114 244.5855,-24.298"/>
</g>
<!-- Node92&#45;&gt;Node87 -->
<g id="edge9" class="edge">
<title>Node92&#45;&gt;Node87</title>
<path fill="none" stroke="#191970" d="M331.6501,-323.5282C338.9912,-326.0754 346.4195,-329.2049 353,-333 371.8023,-343.8436 371.7414,-352.8375 389,-366 397.3863,-372.3959 407.0426,-378.7295 415.7687,-384.1116"/>
<polygon fill="#191970" stroke="#191970" points="414.0628,-387.17 424.4333,-389.3388 417.6787,-381.1763 414.0628,-387.17"/>
</g>
<!-- Node92&#45;&gt;Node88 -->
<g id="edge10" class="edge">
<title>Node92&#45;&gt;Node88</title>
<path fill="none" stroke="#191970" d="M330.099,-304.411C349.584,-299.4417 373.5745,-293.3233 394.2958,-288.0387"/>
<polygon fill="#191970" stroke="#191970" points="395.3465,-291.3828 404.1714,-285.5201 393.6166,-284.5999 395.3465,-291.3828"/>
</g>
<!-- Node93 -->
<g id="node10" class="node">
<title>Node93</title>
<g id="a_node10"><a xlink:href="$_a_e_s_8c.html#af2f914cf17729a0ee89102c98b39665e" xlink:title="KeyScheduleCore &#45; Function that performs the key schedule core for the Rijndael Key Schedule...">
<polygon fill="#ffffff" stroke="#000000" points="394,-304.5 394,-323.5 489,-323.5 489,-304.5 394,-304.5"/>
<text text-anchor="middle" x="441.5" y="-311.5" font-family="Helvetica,sans-Serif" font-size="10.00" fill="#000000">KeyScheduleCore</text>
</a>
</g>
</g>
<!-- Node92&#45;&gt;Node93 -->
<g id="edge11" class="edge">
<title>Node92&#45;&gt;Node93</title>
<path fill="none" stroke="#191970" d="M347.5588,-314C359.2282,-314 371.5818,-314 383.3614,-314"/>
<polygon fill="#191970" stroke="#191970" points="383.5337,-317.5001 393.5337,-314 383.5337,-310.5001 383.5337,-317.5001"/>
</g>
<!-- Node95 -->
<g id="node12" class="node">
<title>Node95</title>
<g id="a_node12"><a xlink:href="$_a_e_s_8c.html#acdf4abe2846c02b4d3e674782807fdfa" xlink:title="getSBoxValue &#45; Function to return the sBox value passed in as a parameter ">
<polygon fill="#ffffff" stroke="#000000" points="535,-342.5 535,-361.5 614,-361.5 614,-342.5 535,-342.5"/>
<text text-anchor="middle" x="574.5" y="-349.5" font-family="Helvetica,sans-Serif" font-size="10.00" fill="#000000">getSBoxValue</text>
</a>
</g>
</g>
<!-- Node92&#45;&gt;Node95 -->
<g id="edge15" class="edge">
<title>Node92&#45;&gt;Node95</title>
<path fill="none" stroke="#191970" d="M336.5483,-323.5621C352.9558,-326.8888 371.7744,-330.4277 389,-333 434.8024,-339.8398 487.3389,-344.9683 524.7818,-348.1623"/>
<polygon fill="#191970" stroke="#191970" points="524.667,-351.6648 534.9243,-349.0116 525.2513,-344.6892 524.667,-351.6648"/>
</g>
<!-- Node94 -->
<g id="node11" class="node">
<title>Node94</title>
<g id="a_node11"><a xlink:href="$_a_e_s_8c.html#ac769b0533ccecd203cc3ab64e6b2f950" xlink:title="SingleRotateLeft &#45; Function to rotate the array passed in as a paramter. ">
<polygon fill="#ffffff" stroke="#000000" points="530,-219.5 530,-238.5 619,-238.5 619,-219.5 530,-219.5"/>
<text text-anchor="middle" x="574.5" y="-226.5" font-family="Helvetica,sans-Serif" font-size="10.00" fill="#000000">SingleRotateLeft</text>
</a>
</g>
</g>
<!-- Node93&#45;&gt;Node94 -->
<g id="edge12" class="edge">
<title>Node93&#45;&gt;Node94</title>
<path fill="none" stroke="#191970" d="M473.368,-304.4298C480.3673,-301.7949 487.596,-298.6412 494,-295 518.0813,-281.308 542.1849,-260.3508 557.6507,-245.7372"/>
<polygon fill="#191970" stroke="#191970" points="560.1336,-248.2052 564.9051,-238.7456 555.276,-243.165 560.1336,-248.2052"/>
</g>
<!-- Node93&#45;&gt;Node95 -->
<g id="edge13" class="edge">
<title>Node93&#45;&gt;Node95</title>
<path fill="none" stroke="#191970" d="M475.0615,-323.589C492.073,-328.4494 512.9319,-334.4091 531.1446,-339.6127"/>
<polygon fill="#191970" stroke="#191970" points="530.3724,-343.0321 540.9492,-342.4141 532.2955,-336.3014 530.3724,-343.0321"/>
</g>
<!-- Node96 -->
<g id="node13" class="node">
<title>Node96</title>
<g id="a_node13"><a xlink:href="$_a_e_s_8c.html#a4e58d2e928429bc56387394251b8ece5" xlink:title="getRconValue &#45; Function to return the Rcon value for the index passed in as a parameter ...">
<polygon fill="#ffffff" stroke="#000000" points="535.5,-304.5 535.5,-323.5 613.5,-323.5 613.5,-304.5 535.5,-304.5"/>
<text text-anchor="middle" x="574.5" y="-311.5" font-family="Helvetica,sans-Serif" font-size="10.00" fill="#000000">getRconValue</text>
</a>
</g>
</g>
<!-- Node93&#45;&gt;Node96 -->
<g id="edge14" class="edge">
<title>Node93&#45;&gt;Node96</title>
<path fill="none" stroke="#191970" d="M489.1404,-314C500.7856,-314 513.272,-314 525.0019,-314"/>
<polygon fill="#191970" stroke="#191970" points="525.0751,-317.5001 535.0751,-314 525.0751,-310.5001 525.0751,-317.5001"/>
</g>
<!-- Node99&#45;&gt;Node95 -->
<g id="edge19" class="edge">
<title>Node99&#45;&gt;Node95</title>
<path fill="none" stroke="#191970" d="M455.4848,-446.2234C466.1597,-438.6779 481.1669,-427.8908 494,-418 515.4536,-401.4652 539.3786,-381.6694 555.5281,-368.0982"/>
<polygon fill="#191970" stroke="#191970" points="557.8225,-370.7418 563.2102,-361.619 553.3094,-365.3908 557.8225,-370.7418"/>
</g>
<!-- Node100&#45;&gt;Node94 -->
<g id="edge21" class="edge">
<title>Node100&#45;&gt;Node94</title>
<path fill="none" stroke="#191970" d="M468.0949,-190.5982C488.3014,-197.8907 516.3083,-207.9985 538.5168,-216.0136"/>
<polygon fill="#191970" stroke="#191970" points="537.3569,-219.3159 547.9512,-219.4185 539.7332,-212.7316 537.3569,-219.3159"/>
</g>
</g>
</svg>
