<?xml version="1.0" encoding="UTF-8" standalone="no"?>
<!DOCTYPE svg PUBLIC "-//W3C//DTD SVG 1.1//EN"
 "http://www.w3.org/Graphics/SVG/1.1/DTD/svg11.dtd">
<!-- Generated by graphviz version 2.40.1 (20161225.0304)
 -->
<!-- Title: ecbEncryptFile Pages: 1 -->
<svg width="650pt" height="712pt"
 viewBox="0.00 0.00 650.00 712.00" xmlns="http://www.w3.org/2000/svg" xmlns:xlink="http://www.w3.org/1999/xlink">
<g id="graph0" class="graph" transform="scale(1 1) rotate(0) translate(4 708)">
<title>ecbEncryptFile</title>
<polygon fill="#ffffff" stroke="transparent" points="-4,4 -4,-708 646,-708 646,4 -4,4"/>
<!-- Node130 -->
<g id="node1" class="node">
<title>Node130</title>
<polygon fill="#bfbfbf" stroke="#000000" points="0,-475.5 0,-494.5 82,-494.5 82,-475.5 0,-475.5"/>
<text text-anchor="middle" x="41" y="-482.5" font-family="Helvetica,sans-Serif" font-size="10.00" fill="#000000">ecbEncryptFile</text>
</g>
<!-- Node131 -->
<g id="node2" class="node">
<title>Node131</title>
<g id="a_node2"><a xlink:href="$_a_e_s_8c.html#afba897e91364663f883cc51ed309dc92" xlink:title="keyHexToAscii &#45; Function to convert a key from a Hex string passed in as a paramter ...">
<polygon fill="#ffffff" stroke="#000000" points="127,-608.5 127,-627.5 210,-627.5 210,-608.5 127,-608.5"/>
<text text-anchor="middle" x="168.5" y="-615.5" font-family="Helvetica,sans-Serif" font-size="10.00" fill="#000000">keyHexToAscii</text>
</a>
</g>
</g>
<!-- Node130&#45;&gt;Node131 -->
<g id="edge1" class="edge">
<title>Node130&#45;&gt;Node131</title>
<path fill="none" stroke="#191970" d="M50.1695,-494.565C71.4767,-516.7914 124.5824,-572.1879 151.8164,-600.5967"/>
<polygon fill="#191970" stroke="#191970" points="149.6228,-603.3661 159.0696,-608.1628 154.6759,-598.5219 149.6228,-603.3661"/>
</g>
<!-- Node132 -->
<g id="node3" class="node">
<title>Node132</title>
<g id="a_node3"><a xlink:href="$_a_e_s_8c.html#a1c2a403d95a85400bbae142d48cb8c9d" xlink:title="getNumRounds &#45; Function to return the number of rounds of AES encryption and decryption based off of ...">
<polygon fill="#ffffff" stroke="#000000" points="422,-570.5 422,-589.5 507,-589.5 507,-570.5 422,-570.5"/>
<text text-anchor="middle" x="464.5" y="-577.5" font-family="Helvetica,sans-Serif" font-size="10.00" fill="#000000">getNumRounds</text>
</a>
</g>
</g>
<!-- Node130&#45;&gt;Node132 -->
<g id="edge8" class="edge">
<title>Node130&#45;&gt;Node132</title>
<path fill="none" stroke="#191970" d="M42.4381,-494.8094C47.1642,-523.0302 65.0707,-604.4795 118,-637 223.5146,-701.8295 379.7444,-627.8877 439.7712,-594.5831"/>
<polygon fill="#191970" stroke="#191970" points="441.5754,-597.5838 448.5566,-589.6143 438.1293,-591.4908 441.5754,-597.5838"/>
</g>
<!-- Node133 -->
<g id="node4" class="node">
<title>Node133</title>
<g id="a_node4"><a xlink:href="$_a_e_s_8c.html#a5d65eac115e562c64b00a43e72ee6aca" xlink:title="getPaddedKeyLength &#45; Function to return a valid key length (in bytes) based off of the current key le...">
<polygon fill="#ffffff" stroke="#000000" points="260.5,-570.5 260.5,-589.5 370.5,-589.5 370.5,-570.5 260.5,-570.5"/>
<text text-anchor="middle" x="315.5" y="-577.5" font-family="Helvetica,sans-Serif" font-size="10.00" fill="#000000">getPaddedKeyLength</text>
</a>
</g>
</g>
<!-- Node130&#45;&gt;Node133 -->
<g id="edge7" class="edge">
<title>Node130&#45;&gt;Node133</title>
<path fill="none" stroke="#191970" d="M68.5769,-494.5439C118.2117,-511.7217 222.6072,-547.8513 278.4334,-567.1719"/>
<polygon fill="#191970" stroke="#191970" points="277.3466,-570.4994 287.9414,-570.4624 279.636,-563.8843 277.3466,-570.4994"/>
</g>
<!-- Node134 -->
<g id="node5" class="node">
<title>Node134</title>
<g id="a_node5"><a xlink:href="$_a_e_s_8c.html#ad697cbb5d9e462b3017df1f1d939ee96" xlink:title="hexToAsciiString &#45; Function that converts a given string of hex values into its ASCII equivalent...">
<polygon fill="#ffffff" stroke="#000000" points="270,-684.5 270,-703.5 361,-703.5 361,-684.5 270,-684.5"/>
<text text-anchor="middle" x="315.5" y="-691.5" font-family="Helvetica,sans-Serif" font-size="10.00" fill="#000000">hexToAsciiString</text>
</a>
</g>
</g>
<!-- Node130&#45;&gt;Node134 -->
<g id="edge13" class="edge">
<title>Node130&#45;&gt;Node134</title>
<path fill="none" stroke="#191970" d="M41.747,-494.673C44.7262,-525.966 58.6724,-625.0244 118,-670 158.2619,-700.5221 216.9931,-704.0001 259.943,-701.3743"/>
<polygon fill="#191970" stroke="#191970" points="260.2354,-704.8623 269.9508,-700.6359 259.7203,-697.8813 260.2354,-704.8623"/>
</g>
<!-- Node137 -->
<g id="node8" class="node">
<title>Node137</title>
<g id="a_node8"><a xlink:href="$_a_e_s_8c.html#a0e0b199ded54d7fb53a3bda3fcc02256" xlink:title="validateNumRounds &#45; Function that validates the number of rounds that have been passed in by the ...">
<polygon fill="#ffffff" stroke="#000000" points="412,-190.5 412,-209.5 517,-209.5 517,-190.5 412,-190.5"/>
<text text-anchor="middle" x="464.5" y="-197.5" font-family="Helvetica,sans-Serif" font-size="10.00" fill="#000000">validateNumRounds</text>
</a>
</g>
</g>
<!-- Node130&#45;&gt;Node137 -->
<g id="edge9" class="edge">
<title>Node130&#45;&gt;Node137</title>
<path fill="none" stroke="#191970" d="M42.3781,-475.4623C49.1921,-429.3495 80.4649,-229.7453 118,-181 190.931,-86.2876 274.9889,-41.077 376,-105 407.5828,-124.9866 384.3447,-155.858 412,-181 413.7191,-182.5629 415.5765,-183.9996 417.5312,-185.3202"/>
<polygon fill="#191970" stroke="#191970" points="416.1627,-188.5652 426.598,-190.3968 419.5825,-182.4574 416.1627,-188.5652"/>
</g>
<!-- Node138 -->
<g id="node9" class="node">
<title>Node138</title>
<g id="a_node9"><a xlink:href="$_a_e_s_8c.html#acc2acf0b03a8863f9290bdd36dd6f478" xlink:title="Get the output file name from all the parameters passed in. ">
<polygon fill="#ffffff" stroke="#000000" points="118,-38.5 118,-57.5 219,-57.5 219,-38.5 118,-38.5"/>
<text text-anchor="middle" x="168.5" y="-45.5" font-family="Helvetica,sans-Serif" font-size="10.00" fill="#000000">getOutputFileName</text>
</a>
</g>
</g>
<!-- Node130&#45;&gt;Node138 -->
<g id="edge10" class="edge">
<title>Node130&#45;&gt;Node138</title>
<path fill="none" stroke="#191970" d="M41.6388,-475.1424C45.4578,-418.8735 66.8564,-138.4813 118,-72 120.7717,-68.3971 124.2191,-65.3093 128.0023,-62.6686"/>
<polygon fill="#191970" stroke="#191970" points="129.8325,-65.6529 136.6889,-57.5757 126.292,-59.6142 129.8325,-65.6529"/>
</g>
<!-- Node141 -->
<g id="node12" class="node">
<title>Node141</title>
<g id="a_node12"><a xlink:href="$_a_e_s_8c.html#aaba2e1b9466483b3c6b8669eb42aa5ed" xlink:title="printAESBlock &#45; Function to print a single block in hex format to the terminal. ">
<polygon fill="#ffffff" stroke="#000000" points="275.5,-114.5 275.5,-133.5 355.5,-133.5 355.5,-114.5 275.5,-114.5"/>
<text text-anchor="middle" x="315.5" y="-121.5" font-family="Helvetica,sans-Serif" font-size="10.00" fill="#000000">printAESBlock</text>
</a>
</g>
</g>
<!-- Node130&#45;&gt;Node141 -->
<g id="edge14" class="edge">
<title>Node130&#45;&gt;Node141</title>
<path fill="none" stroke="#191970" d="M44.4591,-475.4493C60.8215,-431.5588 134.7106,-247.1704 255,-149 260.3833,-144.6066 266.6462,-140.8857 273.0614,-137.7667"/>
<polygon fill="#191970" stroke="#191970" points="274.7417,-140.8513 282.4847,-133.6196 271.922,-134.4443 274.7417,-140.8513"/>
</g>
<!-- Node142 -->
<g id="node13" class="node">
<title>Node142</title>
<g id="a_node13"><a xlink:href="$_a_e_s_8c.html#a41cef4df290905c4d632ce1357d0a9bd" xlink:title="AESEncrypt &#45; Function to encrypt a single block of plaintext passed in as parameter &#160;plainText using ...">
<polygon fill="#ffffff" stroke="#000000" points="133,-361.5 133,-380.5 204,-380.5 204,-361.5 133,-361.5"/>
<text text-anchor="middle" x="168.5" y="-368.5" font-family="Helvetica,sans-Serif" font-size="10.00" fill="#000000">AESEncrypt</text>
</a>
</g>
</g>
<!-- Node130&#45;&gt;Node142 -->
<g id="edge15" class="edge">
<title>Node130&#45;&gt;Node142</title>
<path fill="none" stroke="#191970" d="M51.8706,-475.2804C73.7006,-455.7618 123.0824,-411.6087 150.0594,-387.4881"/>
<polygon fill="#191970" stroke="#191970" points="152.5351,-389.9695 157.6569,-380.695 147.8693,-384.7512 152.5351,-389.9695"/>
</g>
<!-- Node131&#45;&gt;Node132 -->
<g id="edge2" class="edge">
<title>Node131&#45;&gt;Node132</title>
<path fill="none" stroke="#191970" d="M210.0155,-615.671C252.0318,-612.9689 318.782,-607.7293 376,-599 388.7484,-597.0551 402.4175,-594.4047 415.1072,-591.701"/>
<polygon fill="#191970" stroke="#191970" points="416.014,-595.0855 425.0377,-589.5337 414.5214,-588.2465 416.014,-595.0855"/>
</g>
<!-- Node131&#45;&gt;Node133 -->
<g id="edge3" class="edge">
<title>Node131&#45;&gt;Node133</title>
<path fill="none" stroke="#191970" d="M205.5943,-608.411C224.8178,-603.4417 248.4863,-597.3233 268.9294,-592.0387"/>
<polygon fill="#191970" stroke="#191970" points="269.8667,-595.4115 278.6724,-589.5201 268.1147,-588.6343 269.8667,-595.4115"/>
</g>
<!-- Node131&#45;&gt;Node134 -->
<g id="edge4" class="edge">
<title>Node131&#45;&gt;Node134</title>
<path fill="none" stroke="#191970" d="M187.1177,-627.6255C212.6324,-640.8168 258.6474,-664.6068 288.0999,-679.834"/>
<polygon fill="#191970" stroke="#191970" points="286.5431,-682.9691 297.0335,-684.4527 289.7579,-676.751 286.5431,-682.9691"/>
</g>
<!-- Node135 -->
<g id="node6" class="node">
<title>Node135</title>
<g id="a_node6"><a xlink:href="$_a_e_s_8c.html#aa177516503b10de65b504a3714073ad7" xlink:title="hexToAscii &#45; Function that converts a given hex value to its ASCII equivalent. ">
<polygon fill="#ffffff" stroke="#000000" points="432,-684.5 432,-703.5 497,-703.5 497,-684.5 432,-684.5"/>
<text text-anchor="middle" x="464.5" y="-691.5" font-family="Helvetica,sans-Serif" font-size="10.00" fill="#000000">hexToAscii</text>
</a>
</g>
</g>
<!-- Node134&#45;&gt;Node135 -->
<g id="edge5" class="edge">
<title>Node134&#45;&gt;Node135</title>
<path fill="none" stroke="#191970" d="M361.0145,-694C380.2224,-694 402.4758,-694 421.4138,-694"/>
<polygon fill="#191970" stroke="#191970" points="421.5534,-697.5001 431.5534,-694 421.5533,-690.5001 421.5534,-697.5001"/>
</g>
<!-- Node136 -->
<g id="node7" class="node">
<title>Node136</title>
<g id="a_node7"><a xlink:href="$_a_e_s_8c.html#a7e5ab2188af44718071074f450963568" xlink:title="hexToInt &#45; Function that converts a given hex value into an integer. ">
<polygon fill="#ffffff" stroke="#000000" points="570,-684.5 570,-703.5 625,-703.5 625,-684.5 570,-684.5"/>
<text text-anchor="middle" x="597.5" y="-691.5" font-family="Helvetica,sans-Serif" font-size="10.00" fill="#000000">hexToInt</text>
</a>
</g>
</g>
<!-- Node135&#45;&gt;Node136 -->
<g id="edge6" class="edge">
<title>Node135&#45;&gt;Node136</title>
<path fill="none" stroke="#191970" d="M497.0355,-694C515.9398,-694 539.85,-694 559.6014,-694"/>
<polygon fill="#191970" stroke="#191970" points="559.7947,-697.5001 569.7946,-694 559.7946,-690.5001 559.7947,-697.5001"/>
</g>
<!-- Node139 -->
<g id="node10" class="node">
<title>Node139</title>
<g id="a_node10"><a xlink:href="$_a_e_s_8c.html#a9dcad0047890de22f3d15611a10ab74f" xlink:title="Returns the last index of &#39;/&#39; in a given path, otherwise returns &#45;1 if no &#39;/&#39; is found. ">
<polygon fill="#ffffff" stroke="#000000" points="269.5,-.5 269.5,-19.5 361.5,-19.5 361.5,-.5 269.5,-.5"/>
<text text-anchor="middle" x="315.5" y="-7.5" font-family="Helvetica,sans-Serif" font-size="10.00" fill="#000000">fileNameDirIndex</text>
</a>
</g>
</g>
<!-- Node138&#45;&gt;Node139 -->
<g id="edge11" class="edge">
<title>Node138&#45;&gt;Node139</title>
<path fill="none" stroke="#191970" d="M205.5943,-38.411C224.8178,-33.4417 248.4863,-27.3233 268.9294,-22.0387"/>
<polygon fill="#191970" stroke="#191970" points="269.8667,-25.4115 278.6724,-19.5201 268.1147,-18.6343 269.8667,-25.4115"/>
</g>
<!-- Node140 -->
<g id="node11" class="node">
<title>Node140</title>
<g id="a_node11"><a xlink:href="$_a_e_s_8c.html#ab066697b473ad5ce74faaceae6def5e5" xlink:title="Removes path from the provided path to a file and returns only the file name. ">
<polygon fill="#ffffff" stroke="#000000" points="278,-38.5 278,-57.5 353,-57.5 353,-38.5 278,-38.5"/>
<text text-anchor="middle" x="315.5" y="-45.5" font-family="Helvetica,sans-Serif" font-size="10.00" fill="#000000">stripDirectory</text>
</a>
</g>
</g>
<!-- Node138&#45;&gt;Node140 -->
<g id="edge12" class="edge">
<title>Node138&#45;&gt;Node140</title>
<path fill="none" stroke="#191970" d="M219.0891,-48C234.7441,-48 251.9399,-48 267.42,-48"/>
<polygon fill="#191970" stroke="#191970" points="267.8228,-51.5001 277.8228,-48 267.8228,-44.5001 267.8228,-51.5001"/>
</g>
<!-- Node142&#45;&gt;Node132 -->
<g id="edge17" class="edge">
<title>Node142&#45;&gt;Node132</title>
<path fill="none" stroke="#191970" d="M171.1052,-380.557C178.9318,-407.4114 204.8505,-484.1161 255,-523 267.5753,-532.7504 354.7125,-554.438 412.576,-568.0726"/>
<polygon fill="#191970" stroke="#191970" points="412.1246,-571.5616 422.6596,-570.4371 413.7227,-564.7464 412.1246,-571.5616"/>
</g>
<!-- Node142&#45;&gt;Node133 -->
<g id="edge16" class="edge">
<title>Node142&#45;&gt;Node133</title>
<path fill="none" stroke="#191970" d="M170.3488,-380.5221C176.6513,-410.5331 200.0288,-504.2171 255,-556 259.268,-560.0205 264.2916,-563.3972 269.589,-566.2259"/>
<polygon fill="#191970" stroke="#191970" points="268.1374,-569.4109 278.6776,-570.4859 271.1083,-563.0726 268.1374,-569.4109"/>
</g>
<!-- Node142&#45;&gt;Node137 -->
<g id="edge18" class="edge">
<title>Node142&#45;&gt;Node137</title>
<path fill="none" stroke="#191970" d="M170.6817,-361.3835C177.5254,-333.6853 201.3856,-253.5116 255,-219 298.3041,-191.1251 357.4687,-188.1945 401.881,-191.1853"/>
<polygon fill="#191970" stroke="#191970" points="401.7317,-194.6844 411.9764,-191.9831 402.2832,-187.7061 401.7317,-194.6844"/>
</g>
<!-- Node142&#45;&gt;Node141 -->
<g id="edge37" class="edge">
<title>Node142&#45;&gt;Node141</title>
<path fill="none" stroke="#191970" d="M172.035,-361.2483C187.2613,-319.3316 246.8463,-156.2161 255,-148 258.8803,-144.09 263.4767,-140.7988 268.3757,-138.0326"/>
<polygon fill="#191970" stroke="#191970" points="269.9885,-141.14 277.4316,-133.6 266.911,-134.8528 269.9885,-141.14"/>
</g>
<!-- Node143 -->
<g id="node14" class="node">
<title>Node143</title>
<g id="a_node14"><a xlink:href="$_a_e_s_8c.html#acefcd728377e1e14187fa8fcd20f4064" xlink:title="validatePlainTextLength &#45; Function that validates the length of the plaintext. The validation is done...">
<polygon fill="#ffffff" stroke="#000000" points="255,-456.5 255,-475.5 376,-475.5 376,-456.5 255,-456.5"/>
<text text-anchor="middle" x="315.5" y="-463.5" font-family="Helvetica,sans-Serif" font-size="10.00" fill="#000000">validatePlainTextLength</text>
</a>
</g>
</g>
<!-- Node142&#45;&gt;Node143 -->
<g id="edge19" class="edge">
<title>Node142&#45;&gt;Node143</title>
<path fill="none" stroke="#191970" d="M176.8645,-380.5917C191.2835,-396.5648 222.4224,-428.6667 255,-447 258.8827,-449.185 263.0497,-451.154 267.3141,-452.9207"/>
<polygon fill="#191970" stroke="#191970" points="266.1408,-456.2188 276.7327,-456.4704 268.6096,-449.6685 266.1408,-456.2188"/>
</g>
<!-- Node144 -->
<g id="node15" class="node">
<title>Node144</title>
<g id="a_node15"><a xlink:href="$_a_e_s_8c.html#a1c1a633a58f7328faa397db9e45e7e0c" xlink:title="constructStateArray &#45; Function to convert the state array from a flat 1D array to a multidimensional ...">
<polygon fill="#ffffff" stroke="#000000" points="263.5,-418.5 263.5,-437.5 367.5,-437.5 367.5,-418.5 263.5,-418.5"/>
<text text-anchor="middle" x="315.5" y="-425.5" font-family="Helvetica,sans-Serif" font-size="10.00" fill="#000000">constructStateArray</text>
</a>
</g>
</g>
<!-- Node142&#45;&gt;Node144 -->
<g id="edge20" class="edge">
<title>Node142&#45;&gt;Node144</title>
<path fill="none" stroke="#191970" d="M188.5156,-380.541C205.8839,-388.6388 231.8121,-400.2955 255,-409 260.8846,-411.209 267.1537,-413.3778 273.343,-415.4143"/>
<polygon fill="#191970" stroke="#191970" points="272.3454,-418.7699 282.9366,-418.4926 274.4841,-412.1046 272.3454,-418.7699"/>
</g>
<!-- Node145 -->
<g id="node16" class="node">
<title>Node145</title>
<g id="a_node16"><a xlink:href="$_a_e_s_8c.html#ae9af90db32afa65125a7eec339ed9d58" xlink:title="printStateArray &#45; Function to print the state array to the terminal in hex format. ">
<polygon fill="#ffffff" stroke="#000000" points="274.5,-380.5 274.5,-399.5 356.5,-399.5 356.5,-380.5 274.5,-380.5"/>
<text text-anchor="middle" x="315.5" y="-387.5" font-family="Helvetica,sans-Serif" font-size="10.00" fill="#000000">printStateArray</text>
</a>
</g>
</g>
<!-- Node142&#45;&gt;Node145 -->
<g id="edge21" class="edge">
<title>Node142&#45;&gt;Node145</title>
<path fill="none" stroke="#191970" d="M204.0846,-375.5994C222.1017,-377.9281 244.3046,-380.7979 264.1362,-383.3611"/>
<polygon fill="#191970" stroke="#191970" points="263.8898,-386.8583 274.2559,-384.6691 264.7871,-379.9161 263.8898,-386.8583"/>
</g>
<!-- Node146 -->
<g id="node17" class="node">
<title>Node146</title>
<g id="a_node17"><a xlink:href="$_a_e_s_8c.html#a185c827e4ccbc8e4608e83dfbf9dfc8e" xlink:title="RijndaelKeySchedule &#45; Function that performs the Rijndael key scheduling for AES encryption. Takes in the original key passed in as parameter. ">
<polygon fill="#ffffff" stroke="#000000" points="260.5,-494.5 260.5,-513.5 370.5,-513.5 370.5,-494.5 260.5,-494.5"/>
<text text-anchor="middle" x="315.5" y="-501.5" font-family="Helvetica,sans-Serif" font-size="10.00" fill="#000000">RijndaelKeySchedule</text>
</a>
</g>
</g>
<!-- Node142&#45;&gt;Node146 -->
<g id="edge22" class="edge">
<title>Node142&#45;&gt;Node146</title>
<path fill="none" stroke="#191970" d="M173.1065,-380.5467C184.1249,-402.3775 214.1555,-456.2702 255,-485 257.8323,-486.9922 260.8819,-488.7817 264.0526,-490.3882"/>
<polygon fill="#191970" stroke="#191970" points="262.6682,-493.6029 273.2294,-494.4475 265.5001,-487.2013 262.6682,-493.6029"/>
</g>
<!-- Node151 -->
<g id="node22" class="node">
<title>Node151</title>
<g id="a_node22"><a xlink:href="$_a_e_s_8c.html#abe15a731f43315f6f595674d3cd62d57" xlink:title="getRoundKey &#45; Function to extract the correct sub&#45;key to use for the appropriate round specified by ...">
<polygon fill="#ffffff" stroke="#000000" points="277.5,-342.5 277.5,-361.5 353.5,-361.5 353.5,-342.5 277.5,-342.5"/>
<text text-anchor="middle" x="315.5" y="-349.5" font-family="Helvetica,sans-Serif" font-size="10.00" fill="#000000">getRoundKey</text>
</a>
</g>
</g>
<!-- Node142&#45;&gt;Node151 -->
<g id="edge30" class="edge">
<title>Node142&#45;&gt;Node151</title>
<path fill="none" stroke="#191970" d="M204.0846,-366.4006C223.0567,-363.9485 246.6699,-360.8964 267.2685,-358.234"/>
<polygon fill="#191970" stroke="#191970" points="267.945,-361.6758 277.4138,-356.9227 267.0476,-354.7335 267.945,-361.6758"/>
</g>
<!-- Node152 -->
<g id="node23" class="node">
<title>Node152</title>
<g id="a_node23"><a xlink:href="$_a_e_s_8c.html#aef4d8fc4282e3cc21708d25c0ec9ad06" xlink:title="AddRoundKey &#45; Function that performs the Bitwise XOR between state and key as per AES encryption...">
<polygon fill="#ffffff" stroke="#000000" points="275.5,-304.5 275.5,-323.5 355.5,-323.5 355.5,-304.5 275.5,-304.5"/>
<text text-anchor="middle" x="315.5" y="-311.5" font-family="Helvetica,sans-Serif" font-size="10.00" fill="#000000">AddRoundKey</text>
</a>
</g>
</g>
<!-- Node142&#45;&gt;Node152 -->
<g id="edge31" class="edge">
<title>Node142&#45;&gt;Node152</title>
<path fill="none" stroke="#191970" d="M188.5156,-361.459C205.8839,-353.3612 231.8121,-341.7045 255,-333 260.8846,-330.791 267.1537,-328.6222 273.343,-326.5857"/>
<polygon fill="#191970" stroke="#191970" points="274.4841,-329.8954 282.9366,-323.5074 272.3454,-323.2301 274.4841,-329.8954"/>
</g>
<!-- Node153 -->
<g id="node24" class="node">
<title>Node153</title>
<g id="a_node24"><a xlink:href="$_a_e_s_8c.html#aec40f89d2cbf831fd0d5d5f1bfa616f5" xlink:title="subBytes &#45; Function that performs the sub byte operation where each value is replaced by the s box va...">
<polygon fill="#ffffff" stroke="#000000" points="435.5,-371.5 435.5,-390.5 493.5,-390.5 493.5,-371.5 435.5,-371.5"/>
<text text-anchor="middle" x="464.5" y="-378.5" font-family="Helvetica,sans-Serif" font-size="10.00" fill="#000000">subBytes</text>
</a>
</g>
</g>
<!-- Node142&#45;&gt;Node153 -->
<g id="edge32" class="edge">
<title>Node142&#45;&gt;Node153</title>
<path fill="none" stroke="#191970" d="M175.4877,-361.3937C188.7061,-344.144 219.2718,-308.466 255,-295 305.3222,-276.0335 329.8432,-267.4029 376,-295 405.0136,-312.3472 386.4193,-339.9015 412,-362 416.0229,-365.4752 420.7316,-368.3335 425.6477,-370.6796"/>
<polygon fill="#191970" stroke="#191970" points="424.65,-374.0525 435.2313,-374.5876 427.2932,-367.5707 424.65,-374.0525"/>
</g>
<!-- Node154 -->
<g id="node25" class="node">
<title>Node154</title>
<g id="a_node25"><a xlink:href="$_a_e_s_8c.html#abeb4dba64fcf4d07eac178e732ca6aa8" xlink:title="ShiftRows &#45; Function to shift the state array according to the AES encryption standard for 128 &#45; bits...">
<polygon fill="#ffffff" stroke="#000000" points="433.5,-152.5 433.5,-171.5 495.5,-171.5 495.5,-152.5 433.5,-152.5"/>
<text text-anchor="middle" x="464.5" y="-159.5" font-family="Helvetica,sans-Serif" font-size="10.00" fill="#000000">ShiftRows</text>
</a>
</g>
</g>
<!-- Node142&#45;&gt;Node154 -->
<g id="edge34" class="edge">
<title>Node142&#45;&gt;Node154</title>
<path fill="none" stroke="#191970" d="M171.5784,-361.4735C182.961,-326.8556 223.6308,-208.5726 255,-186 304.3473,-150.4908 377.8296,-150.9513 423.3694,-155.6574"/>
<polygon fill="#191970" stroke="#191970" points="423.1438,-159.1544 433.4781,-156.8194 423.9433,-152.2002 423.1438,-159.1544"/>
</g>
<!-- Node155 -->
<g id="node26" class="node">
<title>Node155</title>
<g id="a_node26"><a xlink:href="$_a_e_s_8c.html#aca09b30896a351db6587639a1cc1bf0d" xlink:title="mixColumns &#45; Function that performs the MixColumns step of AES as specified by AES encryption...">
<polygon fill="#ffffff" stroke="#000000" points="280,-228.5 280,-247.5 351,-247.5 351,-228.5 280,-228.5"/>
<text text-anchor="middle" x="315.5" y="-235.5" font-family="Helvetica,sans-Serif" font-size="10.00" fill="#000000">mixColumns</text>
</a>
</g>
</g>
<!-- Node142&#45;&gt;Node155 -->
<g id="edge36" class="edge">
<title>Node142&#45;&gt;Node155</title>
<path fill="none" stroke="#191970" d="M173.7152,-361.4583C185.5445,-340.6294 216.4053,-290.6646 255,-262 260.4854,-257.926 266.7549,-254.4375 273.1321,-251.4853"/>
<polygon fill="#191970" stroke="#191970" points="274.6246,-254.6543 282.4736,-247.5379 271.8999,-248.2064 274.6246,-254.6543"/>
</g>
<!-- Node146&#45;&gt;Node132 -->
<g id="edge23" class="edge">
<title>Node146&#45;&gt;Node132</title>
<path fill="none" stroke="#191970" d="M342.0871,-513.5329C352.7849,-517.6292 365.1364,-522.6926 376,-528 398.907,-539.1911 423.8499,-554.1138 441.3994,-565.1023"/>
<polygon fill="#191970" stroke="#191970" points="439.5305,-568.0616 449.8528,-570.4494 443.2726,-562.1457 439.5305,-568.0616"/>
</g>
<!-- Node146&#45;&gt;Node137 -->
<g id="edge24" class="edge">
<title>Node146&#45;&gt;Node137</title>
<path fill="none" stroke="#191970" d="M363.3348,-494.4591C368.0623,-491.9906 372.4241,-488.8908 376,-485 425.6158,-431.0142 389.6153,-393.8221 412,-324 424.3024,-285.6264 443.8402,-242.7098 455.2919,-218.7663"/>
<polygon fill="#191970" stroke="#191970" points="458.4567,-220.2612 459.66,-209.7349 452.1551,-217.2133 458.4567,-220.2612"/>
</g>
<!-- Node147 -->
<g id="node18" class="node">
<title>Node147</title>
<g id="a_node18"><a xlink:href="$_a_e_s_8c.html#af2f914cf17729a0ee89102c98b39665e" xlink:title="KeyScheduleCore &#45; Function that performs the key schedule core for the Rijndael Key Schedule...">
<polygon fill="#ffffff" stroke="#000000" points="417,-333.5 417,-352.5 512,-352.5 512,-333.5 417,-333.5"/>
<text text-anchor="middle" x="464.5" y="-340.5" font-family="Helvetica,sans-Serif" font-size="10.00" fill="#000000">KeyScheduleCore</text>
</a>
</g>
</g>
<!-- Node146&#45;&gt;Node147 -->
<g id="edge25" class="edge">
<title>Node146&#45;&gt;Node147</title>
<path fill="none" stroke="#191970" d="M362.7905,-494.3767C367.6754,-491.9249 372.223,-488.8516 376,-485 415.8809,-444.3311 373.0015,-403.5158 412,-362 413.3688,-360.5429 414.8578,-359.1972 416.4388,-357.9545"/>
<polygon fill="#191970" stroke="#191970" points="418.3939,-360.8593 424.9791,-352.5596 414.6554,-354.9412 418.3939,-360.8593"/>
</g>
<!-- Node149 -->
<g id="node20" class="node">
<title>Node149</title>
<g id="a_node20"><a xlink:href="$_a_e_s_8c.html#acdf4abe2846c02b4d3e674782807fdfa" xlink:title="getSBoxValue &#45; Function to return the sBox value passed in as a parameter ">
<polygon fill="#ffffff" stroke="#000000" points="558,-371.5 558,-390.5 637,-390.5 637,-371.5 558,-371.5"/>
<text text-anchor="middle" x="597.5" y="-378.5" font-family="Helvetica,sans-Serif" font-size="10.00" fill="#000000">getSBoxValue</text>
</a>
</g>
</g>
<!-- Node146&#45;&gt;Node149 -->
<g id="edge29" class="edge">
<title>Node146&#45;&gt;Node149</title>
<path fill="none" stroke="#191970" d="M348.7489,-494.4416C357.6821,-491.6344 367.2809,-488.3982 376,-485 447.7918,-457.0195 529.0389,-416.4837 570.3074,-395.2278"/>
<polygon fill="#191970" stroke="#191970" points="571.927,-398.3307 579.2002,-390.6267 568.7102,-392.1136 571.927,-398.3307"/>
</g>
<!-- Node148 -->
<g id="node19" class="node">
<title>Node148</title>
<g id="a_node19"><a xlink:href="$_a_e_s_8c.html#ac769b0533ccecd203cc3ab64e6b2f950" xlink:title="SingleRotateLeft &#45; Function to rotate the array passed in as a paramter. ">
<polygon fill="#ffffff" stroke="#000000" points="553,-266.5 553,-285.5 642,-285.5 642,-266.5 553,-266.5"/>
<text text-anchor="middle" x="597.5" y="-273.5" font-family="Helvetica,sans-Serif" font-size="10.00" fill="#000000">SingleRotateLeft</text>
</a>
</g>
</g>
<!-- Node147&#45;&gt;Node148 -->
<g id="edge26" class="edge">
<title>Node147&#45;&gt;Node148</title>
<path fill="none" stroke="#191970" d="M483.5557,-333.4005C505.9748,-322.1067 543.4054,-303.2506 569.2132,-290.2497"/>
<polygon fill="#191970" stroke="#191970" points="571.1235,-293.2065 578.4797,-285.5817 567.9742,-286.9549 571.1235,-293.2065"/>
</g>
<!-- Node147&#45;&gt;Node149 -->
<g id="edge27" class="edge">
<title>Node147&#45;&gt;Node149</title>
<path fill="none" stroke="#191970" d="M498.0615,-352.589C515.073,-357.4494 535.9319,-363.4091 554.1446,-368.6127"/>
<polygon fill="#191970" stroke="#191970" points="553.3724,-372.0321 563.9492,-371.4141 555.2955,-365.3014 553.3724,-372.0321"/>
</g>
<!-- Node150 -->
<g id="node21" class="node">
<title>Node150</title>
<g id="a_node21"><a xlink:href="$_a_e_s_8c.html#a4e58d2e928429bc56387394251b8ece5" xlink:title="getRconValue &#45; Function to return the Rcon value for the index passed in as a parameter ...">
<polygon fill="#ffffff" stroke="#000000" points="558.5,-333.5 558.5,-352.5 636.5,-352.5 636.5,-333.5 558.5,-333.5"/>
<text text-anchor="middle" x="597.5" y="-340.5" font-family="Helvetica,sans-Serif" font-size="10.00" fill="#000000">getRconValue</text>
</a>
</g>
</g>
<!-- Node147&#45;&gt;Node150 -->
<g id="edge28" class="edge">
<title>Node147&#45;&gt;Node150</title>
<path fill="none" stroke="#191970" d="M512.1404,-343C523.7856,-343 536.272,-343 548.0019,-343"/>
<polygon fill="#191970" stroke="#191970" points="548.0751,-346.5001 558.0751,-343 548.0751,-339.5001 548.0751,-346.5001"/>
</g>
<!-- Node153&#45;&gt;Node149 -->
<g id="edge33" class="edge">
<title>Node153&#45;&gt;Node149</title>
<path fill="none" stroke="#191970" d="M493.6874,-381C509.4855,-381 529.4374,-381 547.6186,-381"/>
<polygon fill="#191970" stroke="#191970" points="547.7856,-384.5001 557.7856,-381 547.7856,-377.5001 547.7856,-384.5001"/>
</g>
<!-- Node154&#45;&gt;Node148 -->
<g id="edge35" class="edge">
<title>Node154&#45;&gt;Node148</title>
<path fill="none" stroke="#191970" d="M495.5209,-170.214C502.9305,-172.9702 510.5535,-176.518 517,-181 547.015,-201.8681 572.5016,-236.6186 586.3458,-257.806"/>
<polygon fill="#191970" stroke="#191970" points="583.5449,-259.9243 591.8619,-266.4878 589.4532,-256.1703 583.5449,-259.9243"/>
</g>
</g>
</svg>
