<?xml version="1.0" encoding="UTF-8" standalone="no"?>
<!DOCTYPE svg PUBLIC "-//W3C//DTD SVG 1.1//EN"
 "http://www.w3.org/Graphics/SVG/1.1/DTD/svg11.dtd">
<!-- Generated by graphviz version 2.40.1 (20161225.0304)
 -->
<!-- Title: encryptionPlatform.c Pages: 1 -->
<svg width="571pt" height="252pt"
 viewBox="0.00 0.00 571.00 252.00" xmlns="http://www.w3.org/2000/svg" xmlns:xlink="http://www.w3.org/1999/xlink">
<g id="graph0" class="graph" transform="scale(1 1) rotate(0) translate(4 248)">
<title>encryptionPlatform.c</title>
<polygon fill="#ffffff" stroke="transparent" points="-4,4 -4,-248 567,-248 567,4 -4,4"/>
<!-- Node0 -->
<g id="node1" class="node">
<title>Node0</title>
<polygon fill="#bfbfbf" stroke="#000000" points="190.5,-224.5 190.5,-243.5 297.5,-243.5 297.5,-224.5 190.5,-224.5"/>
<text text-anchor="middle" x="244" y="-231.5" font-family="Helvetica,sans-Serif" font-size="10.00" fill="#000000">encryptionPlatform.c</text>
</g>
<!-- Node1 -->
<g id="node2" class="node">
<title>Node1</title>
<g id="a_node2"><a xlink:href="$encryption_platform_8h_source.html" xlink:title="encryptionPlatform.h">
<polygon fill="#ffffff" stroke="#000000" points="190.5,-168.5 190.5,-187.5 297.5,-187.5 297.5,-168.5 190.5,-168.5"/>
<text text-anchor="middle" x="244" y="-175.5" font-family="Helvetica,sans-Serif" font-size="10.00" fill="#000000">encryptionPlatform.h</text>
</a>
</g>
</g>
<!-- Node0&#45;&gt;Node1 -->
<g id="edge1" class="edge">
<title>Node0&#45;&gt;Node1</title>
<path fill="none" stroke="#191970" d="M244,-224.2455C244,-216.9382 244,-206.6944 244,-197.7046"/>
<polygon fill="#191970" stroke="#191970" points="247.5001,-197.6426 244,-187.6427 240.5001,-197.6427 247.5001,-197.6426"/>
</g>
<!-- Node2 -->
<g id="node3" class="node">
<title>Node2</title>
<polygon fill="#ffffff" stroke="#bfbfbf" points="0,-.5 0,-19.5 48,-19.5 48,-.5 0,-.5"/>
<text text-anchor="middle" x="24" y="-7.5" font-family="Helvetica,sans-Serif" font-size="10.00" fill="#000000">stdlib.h</text>
</g>
<!-- Node1&#45;&gt;Node2 -->
<g id="edge2" class="edge">
<title>Node1&#45;&gt;Node2</title>
<path fill="none" stroke="#191970" d="M193.9156,-168.4958C152.8982,-159.8727 98.9684,-146.3458 82,-132 50.0463,-104.9851 34.4601,-56.3666 27.9478,-29.3796"/>
<polygon fill="#191970" stroke="#191970" points="31.3521,-28.5648 25.7537,-19.5699 24.5209,-30.0928 31.3521,-28.5648"/>
</g>
<!-- Node3 -->
<g id="node4" class="node">
<title>Node3</title>
<polygon fill="#ffffff" stroke="#bfbfbf" points="208.5,-.5 208.5,-19.5 257.5,-19.5 257.5,-.5 208.5,-.5"/>
<text text-anchor="middle" x="233" y="-7.5" font-family="Helvetica,sans-Serif" font-size="10.00" fill="#000000">string.h</text>
</g>
<!-- Node1&#45;&gt;Node3 -->
<g id="edge3" class="edge">
<title>Node1&#45;&gt;Node3</title>
<path fill="none" stroke="#191970" d="M235.5023,-168.2186C228.4597,-159.4179 218.9829,-145.786 215,-132 204.7507,-96.5239 216.4826,-53.4725 225.2291,-29.1567"/>
<polygon fill="#191970" stroke="#191970" points="228.5506,-30.2689 228.8349,-19.6779 222.008,-27.78 228.5506,-30.2689"/>
</g>
<!-- Node4 -->
<g id="node5" class="node">
<title>Node4</title>
<polygon fill="#ffffff" stroke="#bfbfbf" points="281,-.5 281,-19.5 327,-19.5 327,-.5 281,-.5"/>
<text text-anchor="middle" x="304" y="-7.5" font-family="Helvetica,sans-Serif" font-size="10.00" fill="#000000">stdio.h</text>
</g>
<!-- Node1&#45;&gt;Node4 -->
<g id="edge4" class="edge">
<title>Node1&#45;&gt;Node4</title>
<path fill="none" stroke="#191970" d="M274.6891,-168.4838C312.0452,-154.9326 372.7717,-126.0045 394,-76 406.1767,-47.3169 367.5369,-28.6252 337.1214,-18.6912"/>
<polygon fill="#191970" stroke="#191970" points="337.7936,-15.2367 327.2071,-15.6562 335.7446,-21.9301 337.7936,-15.2367"/>
</g>
<!-- Node5 -->
<g id="node6" class="node">
<title>Node5</title>
<polygon fill="#ffffff" stroke="#bfbfbf" points="441.5,-112.5 441.5,-131.5 492.5,-131.5 492.5,-112.5 441.5,-112.5"/>
<text text-anchor="middle" x="467" y="-119.5" font-family="Helvetica,sans-Serif" font-size="10.00" fill="#000000">unistd.h</text>
</g>
<!-- Node1&#45;&gt;Node5 -->
<g id="edge5" class="edge">
<title>Node1&#45;&gt;Node5</title>
<path fill="none" stroke="#191970" d="M282.0817,-168.4369C323.9395,-157.9255 390.6472,-141.1738 431.4636,-130.9239"/>
<polygon fill="#191970" stroke="#191970" points="432.4055,-134.2962 441.2519,-128.4659 430.7006,-127.5069 432.4055,-134.2962"/>
</g>
<!-- Node6 -->
<g id="node7" class="node">
<title>Node6</title>
<polygon fill="#ffffff" stroke="#bfbfbf" points="511,-112.5 511,-131.5 563,-131.5 563,-112.5 511,-112.5"/>
<text text-anchor="middle" x="537" y="-119.5" font-family="Helvetica,sans-Serif" font-size="10.00" fill="#000000">getopt.h</text>
</g>
<!-- Node1&#45;&gt;Node6 -->
<g id="edge6" class="edge">
<title>Node1&#45;&gt;Node6</title>
<path fill="none" stroke="#191970" d="M297.6882,-170.0619C347.8486,-162.2783 424.9826,-149.3736 500.5369,-132.168"/>
<polygon fill="#191970" stroke="#191970" points="501.7434,-135.4817 510.7015,-129.8246 500.1708,-128.6607 501.7434,-135.4817"/>
</g>
<!-- Node7 -->
<g id="node8" class="node">
<title>Node7</title>
<g id="a_node8"><a xlink:href="$_a_e_s_8h.html" xlink:title="AES encryption and decryption module header file. This file contains the function headers for the fun...">
<polygon fill="#ffffff" stroke="#000000" points="121.5,-56.5 121.5,-75.5 166.5,-75.5 166.5,-56.5 121.5,-56.5"/>
<text text-anchor="middle" x="144" y="-63.5" font-family="Helvetica,sans-Serif" font-size="10.00" fill="#000000">AES.h</text>
</a>
</g>
</g>
<!-- Node1&#45;&gt;Node7 -->
<g id="edge7" class="edge">
<title>Node1&#45;&gt;Node7</title>
<path fill="none" stroke="#191970" d="M226.9238,-168.3533C213.2778,-160.0268 194.2994,-146.9953 181,-132 168.5154,-117.9234 158.4184,-98.9374 151.9456,-84.9424"/>
<polygon fill="#191970" stroke="#191970" points="155.1369,-83.5049 147.8906,-75.7756 148.7352,-86.3367 155.1369,-83.5049"/>
</g>
<!-- Node10 -->
<g id="node11" class="node">
<title>Node10</title>
<g id="a_node11"><a xlink:href="$cfb_8h.html" xlink:title="Cipher Feedback (CFB) &#45; AES header file This file contains the function headers of the functions used...">
<polygon fill="#ffffff" stroke="#000000" points="91,-112.5 91,-131.5 129,-131.5 129,-112.5 91,-112.5"/>
<text text-anchor="middle" x="110" y="-119.5" font-family="Helvetica,sans-Serif" font-size="10.00" fill="#000000">cfb.h</text>
</a>
</g>
</g>
<!-- Node1&#45;&gt;Node10 -->
<g id="edge13" class="edge">
<title>Node1&#45;&gt;Node10</title>
<path fill="none" stroke="#191970" d="M220.9646,-168.3733C198.2089,-158.8634 163.3391,-144.291 138.7732,-134.0246"/>
<polygon fill="#191970" stroke="#191970" points="139.841,-130.6775 129.2647,-130.0509 137.1418,-137.1362 139.841,-130.6775"/>
</g>
<!-- Node11 -->
<g id="node12" class="node">
<title>Node11</title>
<g id="a_node12"><a xlink:href="$cbc_8h.html" xlink:title="Cipher Block Chaining (CBC) &#45; AES Header file This file contains the function headers of the function...">
<polygon fill="#ffffff" stroke="#000000" points="223.5,-112.5 223.5,-131.5 264.5,-131.5 264.5,-112.5 223.5,-112.5"/>
<text text-anchor="middle" x="244" y="-119.5" font-family="Helvetica,sans-Serif" font-size="10.00" fill="#000000">cbc.h</text>
</a>
</g>
</g>
<!-- Node1&#45;&gt;Node11 -->
<g id="edge15" class="edge">
<title>Node1&#45;&gt;Node11</title>
<path fill="none" stroke="#191970" d="M244,-168.2455C244,-160.9382 244,-150.6944 244,-141.7046"/>
<polygon fill="#191970" stroke="#191970" points="247.5001,-141.6426 244,-131.6427 240.5001,-141.6427 247.5001,-141.6426"/>
</g>
<!-- Node12 -->
<g id="node13" class="node">
<title>Node12</title>
<g id="a_node13"><a xlink:href="$ecb_8h.html" xlink:title="Electronic code book (ECB) &#45; AES header file This file contains the function headers of the functions...">
<polygon fill="#ffffff" stroke="#000000" points="285.5,-112.5 285.5,-131.5 326.5,-131.5 326.5,-112.5 285.5,-112.5"/>
<text text-anchor="middle" x="306" y="-119.5" font-family="Helvetica,sans-Serif" font-size="10.00" fill="#000000">ecb.h</text>
</a>
</g>
</g>
<!-- Node1&#45;&gt;Node12 -->
<g id="edge19" class="edge">
<title>Node1&#45;&gt;Node12</title>
<path fill="none" stroke="#191970" d="M254.7996,-168.2455C263.8678,-160.0549 277.0206,-148.1749 287.7245,-138.5069"/>
<polygon fill="#191970" stroke="#191970" points="290.2491,-140.9429 295.3242,-131.6427 285.5571,-135.7482 290.2491,-140.9429"/>
</g>
<!-- Node7&#45;&gt;Node2 -->
<g id="edge11" class="edge">
<title>Node7&#45;&gt;Node2</title>
<path fill="none" stroke="#191970" d="M123.3713,-56.3733C104.1081,-47.3838 75.1514,-33.8706 53.4581,-23.7471"/>
<polygon fill="#191970" stroke="#191970" points="54.9015,-20.5584 44.3595,-19.5011 51.9413,-26.9017 54.9015,-20.5584"/>
</g>
<!-- Node7&#45;&gt;Node3 -->
<g id="edge10" class="edge">
<title>Node7&#45;&gt;Node3</title>
<path fill="none" stroke="#191970" d="M159.5026,-56.2455C173.158,-47.6534 193.2657,-35.0014 208.9989,-25.1018"/>
<polygon fill="#191970" stroke="#191970" points="211.0751,-27.9307 217.675,-19.6427 207.3471,-22.006 211.0751,-27.9307"/>
</g>
<!-- Node7&#45;&gt;Node4 -->
<g id="edge8" class="edge">
<title>Node7&#45;&gt;Node4</title>
<path fill="none" stroke="#191970" d="M166.5847,-58.0953C193.8675,-48.5464 239.98,-32.407 271.1861,-21.4849"/>
<polygon fill="#191970" stroke="#191970" points="272.469,-24.7441 280.7513,-18.137 270.1565,-18.1371 272.469,-24.7441"/>
</g>
<!-- Node8 -->
<g id="node9" class="node">
<title>Node8</title>
<polygon fill="#ffffff" stroke="#bfbfbf" points="66.5,-.5 66.5,-19.5 115.5,-19.5 115.5,-.5 66.5,-.5"/>
<text text-anchor="middle" x="91" y="-7.5" font-family="Helvetica,sans-Serif" font-size="10.00" fill="#000000">stdint.h</text>
</g>
<!-- Node7&#45;&gt;Node8 -->
<g id="edge9" class="edge">
<title>Node7&#45;&gt;Node8</title>
<path fill="none" stroke="#191970" d="M134.7681,-56.2455C127.1683,-48.2155 116.2123,-36.6394 107.1632,-27.0781"/>
<polygon fill="#191970" stroke="#191970" points="109.542,-24.4998 100.1261,-19.6427 104.4579,-29.3115 109.542,-24.4998"/>
</g>
<!-- Node9 -->
<g id="node10" class="node">
<title>Node9</title>
<polygon fill="#ffffff" stroke="#bfbfbf" points="134,-.5 134,-19.5 190,-19.5 190,-.5 134,-.5"/>
<text text-anchor="middle" x="162" y="-7.5" font-family="Helvetica,sans-Serif" font-size="10.00" fill="#000000">stdbool.h</text>
</g>
<!-- Node7&#45;&gt;Node9 -->
<g id="edge12" class="edge">
<title>Node7&#45;&gt;Node9</title>
<path fill="none" stroke="#191970" d="M147.1354,-56.2455C149.51,-48.8579 152.8493,-38.4689 155.7615,-29.4087"/>
<polygon fill="#191970" stroke="#191970" points="159.1725,-30.234 158.9006,-19.6427 152.5083,-28.0919 159.1725,-30.234"/>
</g>
<!-- Node10&#45;&gt;Node7 -->
<g id="edge14" class="edge">
<title>Node10&#45;&gt;Node7</title>
<path fill="none" stroke="#191970" d="M115.9223,-112.2455C120.6027,-104.5367 127.2673,-93.5598 132.9289,-84.2348"/>
<polygon fill="#191970" stroke="#191970" points="135.9475,-86.007 138.1455,-75.6427 129.9639,-82.3741 135.9475,-86.007"/>
</g>
<!-- Node11&#45;&gt;Node3 -->
<g id="edge18" class="edge">
<title>Node11&#45;&gt;Node3</title>
<path fill="none" stroke="#191970" d="M243.0621,-112.4509C241.2681,-94.184 237.317,-53.9553 234.9346,-29.6976"/>
<polygon fill="#191970" stroke="#191970" points="238.3962,-29.1349 233.9355,-19.5249 231.4298,-29.8191 238.3962,-29.1349"/>
</g>
<!-- Node11&#45;&gt;Node4 -->
<g id="edge17" class="edge">
<title>Node11&#45;&gt;Node4</title>
<path fill="none" stroke="#191970" d="M249.1156,-112.4509C259.0786,-93.8533 281.2365,-52.4919 294.1448,-28.3964"/>
<polygon fill="#191970" stroke="#191970" points="297.2603,-29.9925 298.8974,-19.5249 291.0899,-26.6869 297.2603,-29.9925"/>
</g>
<!-- Node11&#45;&gt;Node7 -->
<g id="edge16" class="edge">
<title>Node11&#45;&gt;Node7</title>
<path fill="none" stroke="#191970" d="M226.5813,-112.2455C210.9515,-103.4928 187.7981,-90.527 169.9815,-80.5496"/>
<polygon fill="#191970" stroke="#191970" points="171.6543,-77.475 161.2191,-75.6427 168.234,-83.5825 171.6543,-77.475"/>
</g>
<!-- Node12&#45;&gt;Node4 -->
<g id="edge21" class="edge">
<title>Node12&#45;&gt;Node4</title>
<path fill="none" stroke="#191970" d="M305.8295,-112.4509C305.5033,-94.184 304.7849,-53.9553 304.3517,-29.6976"/>
<polygon fill="#191970" stroke="#191970" points="307.8482,-29.4608 304.1701,-19.5249 300.8493,-29.5858 307.8482,-29.4608"/>
</g>
<!-- Node12&#45;&gt;Node7 -->
<g id="edge20" class="edge">
<title>Node12&#45;&gt;Node7</title>
<path fill="none" stroke="#191970" d="M285.4826,-114.9076C257.937,-105.3856 208.7102,-88.369 176.2016,-77.1314"/>
<polygon fill="#191970" stroke="#191970" points="177.2867,-73.8034 166.692,-73.8441 174.9997,-80.4192 177.2867,-73.8034"/>
</g>
<!-- Node13 -->
<g id="node14" class="node">
<title>Node13</title>
<polygon fill="#ffffff" stroke="#bfbfbf" points="337.5,-56.5 337.5,-75.5 384.5,-75.5 384.5,-56.5 337.5,-56.5"/>
<text text-anchor="middle" x="361" y="-63.5" font-family="Helvetica,sans-Serif" font-size="10.00" fill="#000000">math.h</text>
</g>
<!-- Node12&#45;&gt;Node13 -->
<g id="edge22" class="edge">
<title>Node12&#45;&gt;Node13</title>
<path fill="none" stroke="#191970" d="M315.5803,-112.2455C323.5458,-104.1352 335.0641,-92.4075 344.5079,-82.7919"/>
<polygon fill="#191970" stroke="#191970" points="347.0195,-85.2297 351.5295,-75.6427 342.0253,-80.3247 347.0195,-85.2297"/>
</g>
</g>
</svg>
